<svg xmlns="http://www.w3.org/2000/svg" width="300" height="300" viewBox="0 0 300 300">
<path d="M 67 268 L 67 277 L 68 276 L 69 277 L 69 275 L 70 274 L 71 274 L 72 275 L 72 276 L 74 276 L 74 269 L 72 269 L 71 270 L 70 270 L 69 269 L 69 268 L 68 269 " stroke="black" stroke-width="1" fill="none"/>
<path d="M 67 270 L 68 269 L 69 270 L 72 270 L 73 269 L 74 270 L 74 275 L 73 276 L 72 275 L 72 274 L 71 273 L 71 272 L 71 273 L 70 274 L 69 274 L 69 275 L 68 276 L 67 275 " stroke="black" stroke-width="1" fill="none"/>
<path d="M 75 263 L 74 264 L 74 266 L 75 266 L 76 267 L 77 266 L 77 264 L 76 264 " stroke="black" stroke-width="1" fill="none"/>
<path d="M 78 253 L 76 255 L 76 260 L 78 262 L 82 262 L 84 260 L 84 255 L 82 253 " stroke="black" stroke-width="1" fill="none"/>
<path d="M 78 253 L 81 253 L 84 256 L 84 259 L 81 262 L 78 262 L 76 260 L 76 256 L 77 255 L 77 254 " stroke="black" stroke-width="1" fill="none"/>
<path d="M 79 256 L 78 257 L 78 258 L 79 259 L 81 259 L 81 256 " stroke="black" stroke-width="1" fill="none"/>
<path d="M 78 257 L 79 256 L 80 256 L 81 257 L 81 258 L 80 259 L 79 259 L 78 258 " stroke="black" stroke-width="1" fill="none"/>
<path d="M 100 216 L 100 224 L 101 223 L 102 224 L 102 222 L 103 221 L 104 221 L 105 222 L 105 223 L 107 223 L 107 216 L 105 216 L 104 217 L 103 217 L 102 216 " stroke="black" stroke-width="1" fill="none"/>
<path d="M 100 217 L 101 216 L 102 217 L 105 217 L 106 216 L 107 217 L 107 222 L 106 223 L 105 222 L 105 221 L 104 220 L 104 219 L 104 220 L 103 221 L 102 221 L 102 222 L 101 223 L 100 222 " stroke="black" stroke-width="1" fill="none"/>
<path d="M 76 215 L 75 215 L 74 218 L 72 220 L 68 228 L 64 233 L 64 237 L 74 252 L 76 251 L 76 249 L 73 246 L 72 243 L 70 241 L 67 235 L 69 231 L 73 226 L 74 223 L 76 221 L 77 217 L 76 220 L 74 222 L 73 225 L 71 227 L 70 230 L 67 234 L 67 237 L 76 250 L 75 251 L 74 251 L 71 248 L 70 245 L 65 238 L 64 234 L 66 232 L 67 229 L 71 224 L 72 221 L 74 219 " stroke="black" stroke-width="1" fill="none"/>
<path d="M 27 207 L 27 214 L 28 214 L 29 215 L 33 215 L 35 213 L 35 208 L 33 206 L 29 206 L 28 207 " stroke="black" stroke-width="1" fill="none"/>
<path d="M 29 206 L 32 206 L 35 209 L 35 212 L 32 215 L 29 215 L 27 213 L 27 208 " stroke="black" stroke-width="1" fill="none"/>
<path d="M 30 209 L 29 210 L 29 211 L 30 212 L 32 212 L 32 209 " stroke="black" stroke-width="1" fill="none"/>
<path d="M 29 210 L 30 209 L 31 209 L 32 210 L 32 211 L 31 212 L 30 212 L 29 211 " stroke="black" stroke-width="1" fill="none"/>
<path d="M 12 197 L 12 206 L 13 205 L 14 206 L 14 204 L 15 203 L 16 203 L 17 204 L 17 205 L 19 205 L 19 198 L 17 198 L 16 199 L 15 199 L 14 198 L 14 197 L 13 198 " stroke="black" stroke-width="1" fill="none"/>
<path d="M 12 199 L 13 198 L 14 199 L 17 199 L 18 198 L 19 199 L 19 204 L 18 205 L 17 204 L 17 203 L 16 202 L 16 201 L 16 202 L 15 203 L 14 203 L 14 204 L 13 205 L 12 204 " stroke="black" stroke-width="1" fill="none"/>
<path d="M 247 145 L 247 148 L 246 149 L 246 154 L 245 155 L 243 153 L 243 145 L 243 153 L 244 154 L 244 162 L 245 161 L 246 161 L 246 149 L 247 148 " stroke="black" stroke-width="1" fill="none"/>
<path d="M 245 155 L 246 156 L 246 160 L 245 161 L 244 160 L 244 156 " stroke="black" stroke-width="1" fill="none"/>
<path d="M 30 144 L 30 150 L 29 151 L 28 151 L 28 158 L 29 158 L 30 159 L 34 159 L 36 157 L 36 152 L 34 150 L 31 150 L 30 149 L 31 148 L 32 148 L 32 144 " stroke="black" stroke-width="1" fill="none"/>
<path d="M 30 150 L 33 150 L 36 153 L 36 156 L 33 159 L 30 159 L 28 157 L 28 152 " stroke="black" stroke-width="1" fill="none"/>
<path d="M 31 153 L 30 154 L 30 155 L 31 156 L 33 156 L 33 153 " stroke="black" stroke-width="1" fill="none"/>
<path d="M 30 154 L 31 153 L 32 153 L 33 154 L 33 155 L 32 156 L 31 156 L 30 155 " stroke="black" stroke-width="1" fill="none"/>
<path d="M 31 144 L 32 145 L 32 147 L 31 148 L 30 147 L 30 145 " stroke="black" stroke-width="1" fill="none"/>
<path d="M 144 139 L 144 147 L 145 147 L 146 148 L 146 146 L 147 145 L 148 145 L 149 146 L 149 147 L 151 147 L 151 140 L 149 140 L 148 141 L 147 141 L 146 140 L 146 139 L 145 140 " stroke="black" stroke-width="1" fill="none"/>
<path d="M 144 141 L 145 140 L 146 141 L 149 141 L 150 140 L 151 141 L 151 146 L 150 147 L 149 146 L 149 145 L 148 144 L 148 143 L 148 144 L 147 145 L 146 145 L 146 146 L 145 147 L 144 146 " stroke="black" stroke-width="1" fill="none"/>
<path d="M 27 133 L 27 142 L 28 141 L 29 141 L 29 140 L 30 139 L 31 139 L 32 140 L 32 141 L 34 141 L 34 134 L 32 134 L 31 135 L 30 135 L 29 134 L 29 133 L 28 134 " stroke="black" stroke-width="1" fill="none"/>
<path d="M 27 135 L 28 134 L 29 135 L 32 135 L 33 134 L 34 135 L 34 140 L 33 141 L 32 140 L 32 139 L 31 138 L 31 137 L 31 138 L 30 139 L 29 139 L 29 140 L 28 141 L 27 140 " stroke="black" stroke-width="1" fill="none"/>
<path d="M 280 131 L 280 140 L 281 139 L 282 140 L 282 138 L 283 137 L 284 137 L 285 138 L 285 139 L 287 139 L 287 132 L 285 132 L 284 133 L 283 133 L 282 132 L 282 131 L 281 132 " stroke="black" stroke-width="1" fill="none"/>
<path d="M 280 133 L 281 132 L 282 133 L 285 133 L 286 132 L 287 133 L 287 138 L 286 139 L 285 138 L 285 137 L 284 136 L 284 135 L 284 136 L 283 137 L 282 137 L 282 138 L 281 139 L 280 138 " stroke="black" stroke-width="1" fill="none"/>
<path d="M 267 124 L 267 131 L 268 131 L 269 132 L 273 132 L 275 130 L 275 125 L 273 123 L 269 123 L 268 124 " stroke="black" stroke-width="1" fill="none"/>
<path d="M 269 123 L 272 123 L 275 126 L 275 129 L 272 132 L 269 132 L 267 130 L 267 125 " stroke="black" stroke-width="1" fill="none"/>
<path d="M 270 126 L 269 127 L 269 128 L 270 129 L 272 129 L 272 126 " stroke="black" stroke-width="1" fill="none"/>
<path d="M 269 127 L 270 126 L 271 126 L 272 127 L 272 128 L 271 129 L 270 129 L 269 128 " stroke="black" stroke-width="1" fill="none"/>
<path d="M 153 120 L 153 121 L 152 122 L 154 124 L 155 124 L 156 125 L 157 125 L 159 127 L 160 127 L 161 128 L 162 128 L 163 129 L 164 129 L 165 130 L 167 130 L 168 131 L 169 131 L 168 131 L 167 130 L 166 130 L 165 129 L 164 129 L 163 128 L 162 128 L 161 127 L 160 127 L 158 125 L 157 125 L 156 124 L 155 124 L 153 122 " stroke="black" stroke-width="1" fill="none"/>
<path d="M 175 99 L 175 108 L 176 107 L 177 108 L 177 106 L 178 105 L 179 105 L 180 106 L 180 108 L 181 107 L 182 107 L 182 100 L 180 100 L 179 101 L 178 101 L 177 100 L 177 99 L 176 100 " stroke="black" stroke-width="1" fill="none"/>
<path d="M 175 101 L 176 100 L 177 101 L 180 101 L 181 100 L 182 101 L 182 106 L 181 107 L 180 106 L 180 105 L 179 104 L 179 103 L 179 104 L 178 105 L 177 105 L 177 106 L 176 107 L 175 106 " stroke="black" stroke-width="1" fill="none"/>
<path d="M 225 43 L 222 69 L 199 84 L 176 70 L 200 86 L 200 114 L 170 127 L 172 156 L 152 168 L 130 156 L 142 147 L 129 153 L 129 131 L 155 119 L 130 129 L 129 155 L 167 191 L 132 159 L 106 167 L 126 156 L 137 122 L 153 115 L 177 127 L 197 115 L 184 108 L 198 111 L 197 86 L 175 75 L 197 87 L 198 111 L 184 107 L 195 116 L 176 127 L 154 115 L 136 122 L 127 154 L 108 166 L 101 142 L 101 168 L 77 156 L 53 169 L 78 153 L 100 165 L 81 153 L 54 167 L 39 158 L 53 167 L 53 194 L 36 203 L 53 195 L 54 170 L 55 196 L 79 211 L 54 198 L 37 207 L 54 198 L 89 236 L 79 211 L 92 236 L 85 210 L 106 200 L 130 212 L 153 198 L 154 175 L 170 189 L 159 166 L 177 156 L 201 168 L 221 156 L 223 127 L 247 112 L 238 80 L 221 73 L 199 85 L 222 70 L 249 85 L 249 114 L 225 128 L 248 140 L 225 131 L 219 160 L 200 171 L 177 160 L 180 181 L 178 160 L 201 171 L 224 157 L 225 131 L 249 143 L 250 172 L 249 142 L 264 133 L 227 128 L 249 115 L 249 84 L 224 69 " stroke="black" stroke-width="1" fill="none"/>
<path d="M 180 177 L 182 175 L 183 175 L 184 176 L 184 177 L 183 178 L 181 178 " stroke="black" stroke-width="1" fill="none"/>
<path d="M 179 173 L 181 171 L 182 172 L 182 173 L 183 173 L 184 174 L 183 175 L 182 175 L 181 176 L 180 175 L 180 174 " stroke="black" stroke-width="1" fill="none"/>
<path d="M 104 170 L 105 171 L 105 195 L 104 196 L 103 195 L 103 171 " stroke="black" stroke-width="1" fill="none"/>
<path d="M 101 168 L 102 167 L 104 167 L 105 166 L 106 167 L 106 169 L 105 170 L 104 170 L 103 169 L 102 169 " stroke="black" stroke-width="1" fill="none"/>
<path d="M 247 163 L 249 163 L 252 166 L 252 169 L 249 172 L 246 172 L 244 170 L 244 166 " stroke="black" stroke-width="1" fill="none"/>
<path d="M 247 166 L 246 167 L 246 168 L 247 169 L 249 169 L 249 166 " stroke="black" stroke-width="1" fill="none"/>
<path d="M 246 167 L 247 166 L 248 166 L 249 167 L 249 168 L 248 169 L 247 169 L 246 168 " stroke="black" stroke-width="1" fill="none"/>
<path d="M 127 158 L 129 158 L 141 164 L 143 166 L 146 167 L 151 171 L 151 195 L 146 199 L 136 204 L 129 209 L 127 209 L 120 204 L 110 199 L 105 195 L 105 171 L 107 169 L 120 163 " stroke="black" stroke-width="1" fill="none"/>
<path d="M 39 159 L 40 158 L 41 158 L 42 159 L 43 159 L 46 162 L 47 162 L 49 164 L 47 166 L 45 164 L 44 164 L 43 163 L 42 163 L 41 162 L 40 162 L 39 161 " stroke="black" stroke-width="1" fill="none"/>
<path d="M 174 157 L 172 159 L 171 159 L 170 160 L 169 160 L 168 161 L 167 161 L 166 162 L 165 162 L 164 163 L 163 163 L 161 165 L 160 165 L 158 167 L 157 167 L 156 168 L 155 168 L 155 169 L 154 170 L 152 168 L 154 166 L 155 166 L 157 164 L 158 164 L 159 163 L 160 163 L 162 161 L 163 161 L 164 160 L 165 160 L 166 159 L 167 159 L 168 158 L 169 158 L 170 157 L 171 157 L 172 156 L 173 156 " stroke="black" stroke-width="1" fill="none"/>
<path d="M 55 170 L 78 156 L 103 170 L 103 195 L 81 209 L 103 196 L 106 197 L 104 199 L 107 197 L 126 209 L 130 209 L 150 197 L 152 174 L 154 175 L 153 197 L 129 212 L 106 200 L 103 203 L 102 201 L 99 201 L 81 213 L 55 195 " stroke="black" stroke-width="1" fill="none"/>
<path d="M 249 155 L 250 156 L 250 160 L 249 161 L 248 160 L 248 156 " stroke="black" stroke-width="1" fill="none"/>
<path d="M 173 156 L 174 155 L 176 155 L 177 156 L 175 158 " stroke="black" stroke-width="1" fill="none"/>
<path d="M 102 142 L 105 142 L 106 143 L 106 161 L 105 162 L 105 166 L 104 167 L 103 167 L 102 166 L 103 165 L 102 164 L 102 153 L 101 152 L 101 143 " stroke="black" stroke-width="1" fill="none"/>
<path d="M 263 132 L 263 133 L 262 134 L 261 134 L 259 136 L 258 136 L 257 137 L 256 137 L 254 139 L 253 139 L 252 140 L 251 140 L 249 142 L 248 142 L 247 141 L 250 138 L 251 138 L 252 137 L 253 137 L 255 135 L 256 135 L 258 133 L 259 133 L 260 132 L 261 132 L 262 131 " stroke="black" stroke-width="1" fill="none"/>
<path d="M 175 130 L 176 131 L 176 154 L 175 155 L 174 154 L 174 131 " stroke="black" stroke-width="1" fill="none"/>
<path d="M 199 116 L 201 118 L 217 126 L 222 130 L 222 154 L 217 158 L 207 163 L 200 168 L 198 168 L 191 163 L 179 157 L 176 154 L 176 131 L 181 127 L 184 126 L 186 124 L 196 119 " stroke="black" stroke-width="1" fill="none"/>
<path d="M 199 115 L 200 114 L 201 115 L 202 115 L 203 116 L 204 116 L 205 117 L 206 117 L 207 118 L 208 118 L 209 119 L 210 119 L 211 120 L 212 120 L 213 121 L 214 121 L 216 123 L 217 123 L 218 124 L 219 124 L 221 126 L 222 126 L 223 127 L 223 128 L 222 129 L 221 128 L 220 128 L 218 126 L 217 126 L 216 125 L 215 125 L 213 123 L 212 123 L 211 122 L 210 122 L 209 121 L 208 121 L 207 120 L 206 120 L 205 119 L 204 119 L 203 118 L 201 118 L 199 116 " stroke="black" stroke-width="1" fill="none"/>
<path d="M 222 73 L 224 73 L 228 76 L 237 80 L 247 87 L 247 112 L 242 116 L 228 123 L 223 127 L 220 124 L 202 115 L 200 113 L 200 89 L 199 88 L 202 85 L 205 84 L 207 82 L 210 81 L 212 79 L 215 78 " stroke="black" stroke-width="1" fill="none"/>
<path d="M 222 62 L 223 62 L 224 63 L 224 67 L 223 68 L 222 68 L 221 67 L 222 66 L 221 65 L 221 63 " stroke="black" stroke-width="1" fill="none"/>
<path d="M 221 43 L 224 43 L 225 44 L 225 49 L 224 50 L 223 50 L 224 51 L 224 56 L 223 57 L 221 55 L 221 49 L 222 48 L 221 47 L 222 46 L 221 46 L 220 45 L 220 44 " stroke="black" stroke-width="1" fill="none"/>
</svg>