<svg xmlns="http://www.w3.org/2000/svg" width="300" height="300" viewBox="0 0 300 300">
<path d="M 154 225 L 153 226 L 152 225 L 152 227 L 150 229 L 149 228 L 149 226 L 146 226 L 146 235 L 149 235 L 149 232 L 150 231 L 152 233 L 152 236 L 153 235 L 154 236 " stroke="black" stroke-width="1" fill="none"/>
<path d="M 153 226 L 154 227 L 154 234 L 153 235 L 152 234 L 152 233 L 151 232 L 151 229 L 152 228 L 152 227 " stroke="black" stroke-width="1" fill="none"/>
<path d="M 147 226 L 148 226 L 149 227 L 149 234 L 148 235 L 147 235 L 146 234 L 146 227 " stroke="black" stroke-width="1" fill="none"/>
<path d="M 148 205 L 147 206 L 146 205 L 146 208 L 145 209 L 143 207 L 143 206 L 141 206 L 140 207 L 140 215 L 143 215 L 143 214 L 144 213 L 145 214 L 145 215 L 148 215 " stroke="black" stroke-width="1" fill="none"/>
<path d="M 142 206 L 143 207 L 143 208 L 144 209 L 143 210 L 144 209 L 145 209 L 146 208 L 146 207 L 147 206 L 148 207 L 148 214 L 147 215 L 146 215 L 145 214 L 145 213 L 144 212 L 145 211 L 144 212 L 144 213 L 142 215 L 141 215 L 140 214 L 140 208 " stroke="black" stroke-width="1" fill="none"/>
<path d="M 106 200 L 104 200 L 102 202 L 101 202 L 100 203 L 99 203 L 97 205 L 96 205 L 95 206 L 94 206 L 92 208 L 91 208 L 90 209 L 89 209 L 87 211 L 86 211 L 85 212 L 86 212 L 87 211 L 88 211 L 90 209 L 91 209 L 92 208 L 93 208 L 95 206 L 96 206 L 97 205 L 98 205 L 100 203 L 101 203 L 102 202 L 103 202 L 105 200 L 106 201 L 106 202 L 105 203 L 106 202 " stroke="black" stroke-width="1" fill="none"/>
<path d="M 59 172 L 58 173 L 58 197 L 59 197 L 60 198 L 60 172 " stroke="black" stroke-width="1" fill="none"/>
<path d="M 59 172 L 60 173 L 60 196 L 59 197 L 58 196 L 58 173 " stroke="black" stroke-width="1" fill="none"/>
<path d="M 85 158 L 86 159 L 87 159 L 89 161 L 90 161 L 91 162 L 92 162 L 94 164 L 95 164 L 96 165 L 97 165 L 99 167 L 100 167 L 101 168 L 102 168 L 104 170 L 106 170 L 106 168 L 105 167 L 106 168 L 106 169 L 105 170 L 103 168 L 102 168 L 101 167 L 100 167 L 98 165 L 97 165 L 96 164 L 95 164 L 93 162 L 92 162 L 91 161 L 90 161 L 88 159 L 87 159 L 86 158 " stroke="black" stroke-width="1" fill="none"/>
<path d="M 207 158 L 206 158 L 205 157 L 205 159 L 203 161 L 202 160 L 202 158 L 199 158 L 199 167 L 202 167 L 202 164 L 203 163 L 205 165 L 205 168 L 206 167 L 207 168 " stroke="black" stroke-width="1" fill="none"/>
<path d="M 206 158 L 207 159 L 207 166 L 206 167 L 205 166 L 205 165 L 204 164 L 204 161 L 205 160 L 205 159 " stroke="black" stroke-width="1" fill="none"/>
<path d="M 200 158 L 201 158 L 202 159 L 202 166 L 201 167 L 200 167 L 199 166 L 199 159 " stroke="black" stroke-width="1" fill="none"/>
<path d="M 83 153 L 88 155 L 85 153 L 83 153 L 57 168 L 56 170 L 56 200 L 57 202 L 65 206 L 79 215 L 85 217 L 88 215 L 83 217 L 66 206 L 61 204 L 56 200 L 56 170 L 61 166 L 66 164 " stroke="black" stroke-width="1" fill="none"/>
<path d="M 209 150 L 207 150 L 206 151 L 206 155 L 207 154 L 208 155 L 208 156 L 208 154 L 209 153 " stroke="black" stroke-width="1" fill="none"/>
<path d="M 208 150 L 209 151 L 209 152 L 207 154 L 206 153 L 206 152 " stroke="black" stroke-width="1" fill="none"/>
<path d="M 213 137 L 212 138 L 211 137 L 211 140 L 210 141 L 208 139 L 208 138 L 206 138 L 205 139 L 205 147 L 208 147 L 208 146 L 209 145 L 210 146 L 210 147 L 213 147 " stroke="black" stroke-width="1" fill="none"/>
<path d="M 207 138 L 208 139 L 208 140 L 209 141 L 208 142 L 209 141 L 210 141 L 211 140 L 211 139 L 212 138 L 213 139 L 213 146 L 212 147 L 211 147 L 210 146 L 210 145 L 209 144 L 210 143 L 209 144 L 209 145 L 207 147 L 206 147 L 205 146 L 205 140 " stroke="black" stroke-width="1" fill="none"/>
<path d="M 244 136 L 240 136 L 239 137 L 236 137 L 235 138 L 232 138 L 231 139 L 228 139 L 227 140 L 223 140 L 222 141 L 219 141 L 218 142 L 217 142 L 218 143 L 217 144 L 222 144 L 223 143 L 226 143 L 227 142 L 230 142 L 231 141 L 234 141 L 235 140 L 238 140 L 239 139 L 242 139 L 243 138 L 244 138 L 243 137 " stroke="black" stroke-width="1" fill="none"/>
<path d="M 243 137 L 241 139 L 239 139 L 238 140 L 235 140 L 234 141 L 231 141 L 230 142 L 227 142 L 226 143 L 223 143 L 222 144 L 219 144 L 218 143 L 220 141 L 222 141 L 223 140 L 227 140 L 228 139 L 231 139 L 232 138 L 235 138 L 236 137 L 239 137 L 240 136 L 242 136 " stroke="black" stroke-width="1" fill="none"/>
<path d="M 228 73 L 226 75 L 226 82 L 228 84 L 233 84 L 235 82 L 235 75 L 233 73 " stroke="black" stroke-width="1" fill="none"/>
<path d="M 229 73 L 232 73 L 235 76 L 235 81 L 232 84 L 229 84 L 226 81 L 226 76 " stroke="black" stroke-width="1" fill="none"/>
<path d="M 229 76 L 229 81 L 232 81 L 232 76 " stroke="black" stroke-width="1" fill="none"/>
<path d="M 230 76 L 231 76 L 232 77 L 232 80 L 231 81 L 230 81 L 229 80 L 229 77 " stroke="black" stroke-width="1" fill="none"/>
<path d="M 223 81 L 201 85 L 185 67 L 199 84 L 195 88 L 173 55 L 171 64 L 196 90 L 187 117 L 154 125 L 141 158 L 112 166 L 82 150 L 58 164 L 54 203 L 82 220 L 112 204 L 137 211 L 114 200 L 114 170 L 145 160 L 107 166 L 107 204 L 137 210 L 111 204 L 85 220 L 54 202 L 54 168 L 83 150 L 111 166 L 144 157 L 155 125 L 187 118 L 195 88 L 221 81 L 198 89 L 189 119 L 200 136 L 187 121 L 156 127 L 147 159 L 165 185 L 151 203 L 162 185 L 143 164 L 162 185 L 152 204 L 165 186 L 147 158 L 156 128 L 186 121 L 201 136 L 189 119 L 198 90 " stroke="black" stroke-width="1" fill="none"/>
<path d="M 113 169 L 114 170 L 114 200 L 113 201 L 112 200 L 112 170 " stroke="black" stroke-width="1" fill="none"/>
<path d="M 174 55 L 177 55 L 180 58 L 180 63 L 177 66 L 174 66 L 171 63 L 171 58 " stroke="black" stroke-width="1" fill="none"/>
<path d="M 174 58 L 174 63 L 177 63 L 177 58 " stroke="black" stroke-width="1" fill="none"/>
<path d="M 175 58 L 176 58 L 177 59 L 177 62 L 176 63 L 175 63 L 174 62 L 174 59 " stroke="black" stroke-width="1" fill="none"/>
<path d="M 240 54 L 239 55 L 238 54 L 238 56 L 236 58 L 235 57 L 235 55 L 232 55 L 232 64 L 235 64 L 235 61 L 236 60 L 238 62 L 238 65 L 239 64 L 240 65 " stroke="black" stroke-width="1" fill="none"/>
<path d="M 239 55 L 240 56 L 240 63 L 239 64 L 238 63 L 238 62 L 237 61 L 237 58 L 238 57 L 238 56 " stroke="black" stroke-width="1" fill="none"/>
<path d="M 233 55 L 234 55 L 235 56 L 235 63 L 234 64 L 233 64 L 232 63 L 232 56 " stroke="black" stroke-width="1" fill="none"/>
</svg>