<svg xmlns="http://www.w3.org/2000/svg" width="300" height="300" viewBox="0 0 300 300">
<path d="M 171 275 L 171 284 L 172 283 L 173 284 L 173 282 L 174 281 L 175 281 L 176 282 L 176 283 L 178 283 L 178 276 L 176 276 L 175 277 L 174 277 L 173 276 L 173 275 L 172 276 " stroke="black" stroke-width="1" fill="none"/>
<path d="M 171 277 L 172 276 L 173 277 L 176 277 L 177 276 L 178 277 L 178 282 L 177 283 L 176 282 L 176 281 L 175 280 L 175 279 L 175 280 L 174 281 L 173 281 L 173 282 L 172 283 L 171 282 " stroke="black" stroke-width="1" fill="none"/>
<path d="M 189 270 L 188 271 L 188 272 L 189 273 L 191 273 L 191 270 " stroke="black" stroke-width="1" fill="none"/>
<path d="M 188 271 L 189 270 L 190 270 L 191 271 L 191 272 L 190 273 L 189 273 L 188 272 " stroke="black" stroke-width="1" fill="none"/>
<path d="M 194 269 L 192 267 L 192 268 L 194 270 L 194 273 L 191 276 L 188 276 L 186 274 L 186 270 L 188 268 L 187 268 L 186 269 L 186 275 L 187 275 L 188 276 L 192 276 L 194 274 " stroke="black" stroke-width="1" fill="none"/>
<path d="M 230 257 L 230 266 L 231 265 L 232 266 L 232 264 L 233 263 L 234 263 L 235 264 L 235 265 L 237 265 L 237 258 L 235 258 L 234 259 L 233 259 L 232 258 L 231 258 " stroke="black" stroke-width="1" fill="none"/>
<path d="M 230 259 L 231 258 L 232 259 L 235 259 L 236 258 L 237 259 L 237 264 L 236 265 L 235 264 L 235 263 L 234 262 L 234 261 L 234 262 L 233 263 L 232 263 L 232 264 L 231 265 L 230 264 " stroke="black" stroke-width="1" fill="none"/>
<path d="M 140 257 L 140 266 L 141 265 L 142 266 L 142 264 L 143 263 L 144 263 L 145 264 L 145 265 L 147 265 L 147 258 L 145 258 L 144 259 L 143 259 L 142 258 L 141 258 " stroke="black" stroke-width="1" fill="none"/>
<path d="M 140 259 L 141 258 L 142 259 L 145 259 L 146 258 L 147 259 L 147 264 L 146 265 L 145 264 L 145 263 L 144 262 L 144 261 L 144 262 L 143 263 L 142 263 L 142 264 L 141 265 L 140 264 " stroke="black" stroke-width="1" fill="none"/>
<path d="M 237 241 L 233 241 L 232 242 L 231 242 L 231 249 L 233 251 L 233 255 L 235 255 L 235 252 L 234 252 L 233 251 L 234 250 L 237 250 L 239 248 L 239 243 " stroke="black" stroke-width="1" fill="none"/>
<path d="M 233 241 L 236 241 L 239 244 L 239 247 L 236 250 L 233 250 L 231 248 L 231 243 " stroke="black" stroke-width="1" fill="none"/>
<path d="M 234 244 L 233 245 L 233 246 L 234 247 L 236 247 L 236 244 " stroke="black" stroke-width="1" fill="none"/>
<path d="M 233 245 L 234 244 L 235 244 L 236 245 L 236 246 L 235 247 L 234 247 L 233 246 " stroke="black" stroke-width="1" fill="none"/>
<path d="M 147 241 L 143 241 L 142 242 L 141 242 L 141 249 L 143 251 L 143 255 L 145 255 L 145 252 L 144 252 L 143 251 L 144 250 L 147 250 L 149 248 L 149 243 " stroke="black" stroke-width="1" fill="none"/>
<path d="M 143 241 L 146 241 L 149 244 L 149 247 L 146 250 L 143 250 L 141 248 L 141 243 " stroke="black" stroke-width="1" fill="none"/>
<path d="M 144 244 L 143 245 L 143 246 L 144 247 L 146 247 L 146 244 " stroke="black" stroke-width="1" fill="none"/>
<path d="M 143 245 L 144 244 L 145 244 L 146 245 L 146 246 L 145 247 L 144 247 L 143 246 " stroke="black" stroke-width="1" fill="none"/>
<path d="M 118 203 L 118 210 L 119 210 L 120 211 L 124 211 L 126 209 L 126 204 L 124 202 L 120 202 L 119 203 " stroke="black" stroke-width="1" fill="none"/>
<path d="M 120 202 L 123 202 L 126 205 L 126 208 L 123 211 L 120 211 L 118 209 L 118 204 " stroke="black" stroke-width="1" fill="none"/>
<path d="M 121 205 L 120 206 L 120 207 L 121 208 L 123 208 L 123 205 " stroke="black" stroke-width="1" fill="none"/>
<path d="M 120 206 L 121 205 L 122 205 L 123 206 L 123 207 L 122 208 L 121 208 L 120 207 " stroke="black" stroke-width="1" fill="none"/>
<path d="M 128 201 L 131 203 L 141 197 L 130 203 L 131 199 L 142 194 L 165 208 L 165 233 L 158 238 L 156 236 L 163 232 L 151 237 L 151 241 L 155 242 L 165 233 L 185 245 L 186 265 L 191 265 L 189 249 L 191 246 L 212 234 L 224 243 L 227 238 L 213 231 L 213 207 L 227 200 L 226 195 L 210 205 L 197 197 L 198 201 L 211 209 L 211 231 L 189 245 L 167 231 L 167 209 L 182 200 L 182 197 L 167 205 L 145 191 L 167 208 L 145 197 L 143 191 " stroke="black" stroke-width="1" fill="none"/>
<path d="M 189 249 L 190 250 L 190 259 L 191 260 L 191 264 L 190 265 L 187 265 L 186 264 L 186 256 L 188 254 L 187 254 L 186 253 L 186 252 " stroke="black" stroke-width="1" fill="none"/>
<path d="M 151 238 L 152 237 L 154 237 L 155 238 L 155 239 L 154 240 L 155 241 L 154 242 L 153 242 L 151 240 " stroke="black" stroke-width="1" fill="none"/>
<path d="M 155 236 L 156 236 L 158 238 L 157 239 L 157 240 L 156 241 L 155 241 L 154 240 L 155 239 L 155 238 L 154 237 " stroke="black" stroke-width="1" fill="none"/>
<path d="M 212 234 L 214 232 L 215 233 L 216 233 L 217 234 L 218 234 L 220 236 L 224 236 L 226 238 L 226 239 L 225 240 L 225 241 L 224 242 L 222 240 L 221 240 L 218 237 L 217 237 L 216 236 L 215 236 L 214 235 L 213 235 " stroke="black" stroke-width="1" fill="none"/>
<path d="M 166 208 L 167 209 L 167 231 L 168 232 L 168 233 L 169 233 L 170 234 L 171 234 L 172 235 L 173 235 L 174 236 L 175 236 L 176 237 L 177 237 L 178 238 L 179 238 L 181 240 L 182 240 L 183 241 L 184 241 L 186 243 L 187 243 L 188 244 L 187 245 L 185 245 L 184 244 L 183 244 L 178 240 L 177 240 L 176 239 L 175 239 L 174 238 L 173 238 L 172 237 L 171 237 L 170 236 L 169 236 L 168 235 L 167 235 L 165 233 L 165 209 " stroke="black" stroke-width="1" fill="none"/>
<path d="M 197 198 L 198 197 L 199 198 L 200 198 L 202 200 L 203 200 L 205 202 L 206 202 L 207 203 L 208 203 L 210 205 L 209 206 L 208 206 L 207 205 L 206 205 L 205 204 L 204 204 L 202 202 L 201 202 L 200 201 L 199 201 L 197 199 " stroke="black" stroke-width="1" fill="none"/>
<path d="M 182 198 L 182 199 L 181 200 L 180 200 L 179 201 L 178 201 L 177 202 L 176 202 L 174 204 L 173 204 L 172 205 L 171 205 L 169 207 L 168 207 L 167 206 L 167 205 L 168 204 L 169 204 L 170 203 L 171 203 L 172 202 L 173 202 L 175 200 L 176 200 L 177 199 L 178 199 L 179 198 L 180 198 L 181 197 " stroke="black" stroke-width="1" fill="none"/>
<path d="M 225 195 L 228 198 L 226 200 L 222 202 L 219 202 L 217 204 L 213 206 L 213 231 L 214 232 L 211 235 L 200 240 L 195 244 L 192 245 L 188 250 L 186 246 L 188 244 L 189 245 L 199 238 L 210 233 L 211 231 L 211 208 L 209 206 L 213 203 L 214 203 L 217 200 L 221 198 L 224 195 " stroke="black" stroke-width="1" fill="none"/>
<path d="M 231 190 L 231 197 L 232 197 L 233 198 L 237 198 L 239 196 L 239 191 L 237 189 L 233 189 L 232 190 " stroke="black" stroke-width="1" fill="none"/>
<path d="M 233 189 L 236 189 L 239 192 L 239 195 L 236 198 L 233 198 L 231 196 L 231 191 " stroke="black" stroke-width="1" fill="none"/>
<path d="M 234 192 L 233 193 L 233 194 L 234 195 L 236 195 L 236 192 " stroke="black" stroke-width="1" fill="none"/>
<path d="M 233 193 L 234 192 L 235 192 L 236 193 L 236 194 L 235 195 L 234 195 L 233 194 " stroke="black" stroke-width="1" fill="none"/>
<path d="M 186 190 L 186 197 L 187 197 L 188 198 L 192 198 L 194 196 L 194 191 L 192 189 L 188 189 L 187 190 " stroke="black" stroke-width="1" fill="none"/>
<path d="M 188 189 L 191 189 L 194 192 L 194 195 L 191 198 L 188 198 L 186 196 L 186 191 " stroke="black" stroke-width="1" fill="none"/>
<path d="M 189 192 L 188 193 L 188 194 L 189 195 L 191 195 L 191 192 " stroke="black" stroke-width="1" fill="none"/>
<path d="M 188 193 L 189 192 L 190 192 L 191 193 L 191 194 L 190 195 L 189 195 L 188 194 " stroke="black" stroke-width="1" fill="none"/>
<path d="M 232 180 L 232 182 L 231 183 L 231 186 L 236 186 L 236 183 L 235 182 L 235 180 L 235 182 L 234 183 L 233 183 L 232 182 " stroke="black" stroke-width="1" fill="none"/>
<path d="M 231 184 L 232 183 L 235 183 L 236 184 L 236 185 L 235 186 L 232 186 L 231 185 " stroke="black" stroke-width="1" fill="none"/>
<path d="M 103 164 L 101 162 L 95 163 L 95 170 L 101 172 L 99 173 L 98 193 L 97 173 L 95 172 L 95 193 L 76 205 L 55 193 L 51 193 L 29 206 L 29 234 L 49 246 L 55 247 L 76 234 L 76 209 L 97 196 L 114 204 L 115 202 L 101 193 L 101 171 L 103 169 " stroke="black" stroke-width="1" fill="none"/>
<path d="M 101 174 L 101 193 L 114 202 L 113 204 L 100 196 L 96 196 L 76 209 L 70 205 L 71 208 L 69 209 L 56 202 L 54 198 L 53 200 L 60 205 L 74 209 L 74 231 L 71 234 L 74 231 L 74 209 L 76 209 L 76 233 L 54 247 L 29 233 L 29 207 L 32 204 L 54 193 L 70 203 L 77 205 L 95 194 L 96 173 L 97 193 L 99 193 L 99 174 " stroke="black" stroke-width="1" fill="none"/>
<path d="M 70 230 L 68 230 L 66 232 L 65 232 L 64 233 L 63 233 L 61 235 L 60 235 L 58 237 L 57 237 L 56 238 L 55 238 L 53 240 L 54 241 L 54 242 L 54 240 L 56 238 L 57 238 L 58 237 L 59 237 L 61 235 L 62 235 L 64 233 L 65 233 L 66 232 L 67 232 L 69 230 " stroke="black" stroke-width="1" fill="none"/>
<path d="M 34 210 L 33 211 L 33 229 L 34 229 L 35 230 L 35 210 " stroke="black" stroke-width="1" fill="none"/>
<path d="M 34 210 L 35 211 L 35 228 L 34 229 L 33 228 L 33 211 " stroke="black" stroke-width="1" fill="none"/>
<path d="M 51 196 L 41 201 L 39 203 L 38 203 L 36 205 L 32 207 L 31 209 L 31 231 L 32 233 L 44 239 L 51 244 L 54 244 L 52 244 L 50 242 L 38 236 L 31 231 L 31 209 L 37 204 L 40 203 L 42 201 L 52 196 L 55 196 L 56 197 L 55 196 " stroke="black" stroke-width="1" fill="none"/>
<path d="M 97 162 L 100 162 L 103 165 L 103 168 L 100 171 L 98 171 L 97 170 L 96 170 L 95 169 L 95 164 " stroke="black" stroke-width="1" fill="none"/>
<path d="M 98 165 L 97 166 L 97 167 L 98 168 L 100 168 L 100 165 " stroke="black" stroke-width="1" fill="none"/>
<path d="M 97 166 L 98 165 L 99 165 L 100 166 L 100 167 L 99 168 L 98 168 L 97 167 " stroke="black" stroke-width="1" fill="none"/>
<path d="M 235 169 L 256 175 L 258 177 L 261 185 L 264 200 L 265 201 L 269 200 L 269 196 L 264 186 L 261 177 L 261 174 L 272 162 L 272 160 L 270 159 L 266 163 L 264 167 L 270 160 L 272 161 L 262 172 L 261 171 L 262 172 L 261 173 L 261 178 L 269 197 L 269 199 L 266 201 L 263 197 L 263 193 L 258 176 " stroke="black" stroke-width="1" fill="none"/>
<path d="M 272 150 L 272 156 L 274 158 L 278 158 L 280 156 L 280 151 L 278 149 L 274 149 L 273 150 " stroke="black" stroke-width="1" fill="none"/>
<path d="M 274 149 L 277 149 L 280 152 L 280 155 L 277 158 L 274 158 L 273 157 L 273 156 L 272 155 L 272 151 " stroke="black" stroke-width="1" fill="none"/>
<path d="M 275 152 L 274 153 L 274 154 L 275 155 L 277 155 L 277 152 " stroke="black" stroke-width="1" fill="none"/>
<path d="M 274 153 L 275 152 L 276 152 L 277 153 L 277 154 L 276 155 L 275 155 L 274 154 " stroke="black" stroke-width="1" fill="none"/>
<path d="M 276 137 L 276 145 L 277 144 L 278 145 L 278 143 L 279 142 L 280 142 L 281 143 L 281 144 L 283 144 L 283 137 L 281 137 L 280 138 L 279 138 L 278 137 L 278 136 L 277 137 " stroke="black" stroke-width="1" fill="none"/>
<path d="M 276 138 L 277 137 L 278 138 L 281 138 L 282 137 L 283 138 L 283 143 L 282 144 L 281 143 L 281 142 L 280 141 L 280 140 L 280 141 L 279 142 L 278 142 L 278 143 L 277 144 L 276 143 " stroke="black" stroke-width="1" fill="none"/>
<path d="M 222 126 L 222 127 L 223 128 L 223 129 L 226 132 L 226 133 L 228 135 L 228 136 L 231 139 L 231 140 L 232 140 L 233 141 L 233 162 L 233 141 L 231 139 L 231 138 L 228 135 L 228 134 L 226 132 L 226 131 L 223 128 L 223 127 " stroke="black" stroke-width="1" fill="none"/>
<path d="M 196 126 L 196 135 L 197 134 L 198 135 L 198 133 L 199 132 L 200 132 L 201 133 L 201 134 L 203 134 L 203 127 L 201 127 L 200 128 L 199 128 L 198 127 L 198 126 L 197 127 " stroke="black" stroke-width="1" fill="none"/>
<path d="M 196 128 L 197 127 L 198 128 L 201 128 L 202 127 L 203 128 L 203 133 L 202 134 L 201 133 L 201 132 L 200 131 L 200 130 L 200 131 L 199 132 L 198 132 L 198 133 L 197 134 L 196 133 " stroke="black" stroke-width="1" fill="none"/>
<path d="M 220 125 L 220 145 L 221 146 L 221 147 L 223 149 L 223 150 L 225 152 L 225 153 L 228 156 L 228 157 L 230 159 L 230 160 L 231 161 L 231 160 L 230 159 L 230 158 L 228 156 L 228 155 L 225 152 L 225 151 L 223 149 L 223 148 L 220 145 " stroke="black" stroke-width="1" fill="none"/>
<path d="M 220 120 L 221 121 L 221 122 L 220 123 L 221 122 L 225 126 L 225 127 L 228 130 L 228 131 L 230 133 L 230 132 L 228 130 L 228 129 L 225 126 L 225 125 " stroke="black" stroke-width="1" fill="none"/>
<path d="M 209 98 L 209 105 L 210 105 L 211 106 L 215 106 L 217 104 L 217 99 L 215 97 L 211 97 L 210 98 " stroke="black" stroke-width="1" fill="none"/>
<path d="M 211 97 L 214 97 L 217 100 L 217 103 L 214 106 L 211 106 L 209 104 L 209 99 " stroke="black" stroke-width="1" fill="none"/>
<path d="M 212 100 L 211 101 L 211 102 L 212 103 L 214 103 L 214 100 " stroke="black" stroke-width="1" fill="none"/>
<path d="M 211 101 L 212 100 L 213 100 L 214 101 L 214 102 L 213 103 L 212 103 L 211 102 " stroke="black" stroke-width="1" fill="none"/>
<path d="M 221 85 L 219 89 L 232 100 L 226 109 L 220 106 L 225 111 L 205 127 L 218 123 L 218 147 L 232 166 L 235 178 L 232 165 L 218 146 L 218 122 L 209 128 L 205 126 L 218 120 L 225 111 L 222 119 L 227 112 L 230 114 L 231 135 L 235 135 L 236 141 L 235 166 L 258 173 L 265 145 L 260 125 L 263 123 L 270 130 L 262 169 L 269 136 L 274 137 L 271 140 L 274 136 L 257 112 L 264 109 L 264 104 L 256 103 L 257 118 L 242 105 L 257 118 L 260 114 L 261 135 L 236 141 L 258 132 L 258 122 L 235 101 L 228 109 L 232 100 L 228 91 L 236 99 L 252 105 L 239 102 L 253 104 L 237 99 " stroke="black" stroke-width="1" fill="none"/>
<path d="M 256 135 L 258 135 L 261 138 L 261 139 L 265 143 L 265 145 L 264 146 L 264 148 L 263 149 L 263 153 L 262 154 L 262 157 L 261 158 L 261 162 L 260 163 L 260 166 L 259 167 L 259 171 L 257 173 L 256 173 L 255 172 L 253 172 L 252 171 L 250 171 L 249 170 L 247 170 L 246 169 L 244 169 L 243 168 L 241 168 L 240 167 L 237 167 L 235 165 L 235 143 L 237 141 L 240 141 L 241 140 L 243 140 L 244 139 L 246 139 L 247 138 L 249 138 L 250 137 L 252 137 L 253 136 L 255 136 " stroke="black" stroke-width="1" fill="none"/>
<path d="M 234 129 L 235 130 L 235 133 L 234 134 L 233 133 L 233 130 " stroke="black" stroke-width="1" fill="none"/>
<path d="M 231 117 L 231 116 L 233 114 L 234 115 L 235 115 L 236 116 L 235 117 L 233 117 L 232 118 " stroke="black" stroke-width="1" fill="none"/>
<path d="M 224 110 L 225 109 L 226 109 L 227 108 L 233 114 L 232 115 L 231 115 L 229 113 L 228 113 L 226 111 L 225 111 " stroke="black" stroke-width="1" fill="none"/>
<path d="M 220 107 L 221 106 L 222 106 L 223 107 L 224 107 L 225 108 L 225 109 L 224 110 L 223 109 L 222 109 " stroke="black" stroke-width="1" fill="none"/>
<path d="M 258 102 L 261 102 L 264 105 L 264 108 L 261 111 L 258 111 L 256 109 L 256 104 " stroke="black" stroke-width="1" fill="none"/>
<path d="M 259 105 L 258 106 L 258 107 L 259 108 L 261 108 L 261 105 " stroke="black" stroke-width="1" fill="none"/>
<path d="M 258 106 L 259 105 L 260 105 L 261 106 L 261 107 L 260 108 L 259 108 L 258 107 " stroke="black" stroke-width="1" fill="none"/>
<path d="M 235 101 L 240 107 L 241 107 L 249 115 L 250 115 L 255 120 L 256 120 L 258 122 L 258 131 L 257 132 L 256 132 L 253 134 L 248 135 L 247 136 L 244 136 L 243 137 L 238 138 L 237 139 L 236 139 L 235 138 L 235 124 L 235 128 L 234 129 L 233 128 L 233 126 L 232 125 L 232 121 L 233 120 L 235 122 L 236 121 L 236 119 L 234 121 L 232 119 L 232 118 L 233 117 L 236 117 L 236 115 L 235 115 L 231 111 L 230 111 L 229 110 L 229 109 " stroke="black" stroke-width="1" fill="none"/>
<path d="M 219 88 L 222 85 L 228 91 L 226 93 L 225 92 L 224 92 L 222 90 L 221 90 " stroke="black" stroke-width="1" fill="none"/>
<path d="M 218 72 L 216 72 L 216 74 L 216 73 L 217 72 L 218 73 L 218 75 L 217 76 L 214 76 L 213 77 L 212 77 L 212 84 L 213 84 L 214 85 L 217 85 L 219 83 L 220 83 L 220 78 L 218 76 " stroke="black" stroke-width="1" fill="none"/>
<path d="M 214 76 L 217 76 L 220 79 L 220 82 L 217 85 L 214 85 L 212 83 L 212 78 " stroke="black" stroke-width="1" fill="none"/>
<path d="M 215 79 L 214 80 L 214 81 L 215 82 L 217 82 L 217 79 " stroke="black" stroke-width="1" fill="none"/>
<path d="M 214 80 L 215 79 L 216 79 L 217 80 L 217 81 L 216 82 L 215 82 L 214 81 " stroke="black" stroke-width="1" fill="none"/>
<path d="M 214 61 L 214 70 L 215 69 L 216 69 L 216 68 L 217 67 L 218 67 L 219 68 L 219 69 L 221 69 L 221 62 L 219 62 L 218 63 L 217 63 L 216 62 L 216 61 L 215 62 " stroke="black" stroke-width="1" fill="none"/>
<path d="M 214 63 L 215 62 L 216 63 L 219 63 L 220 62 L 221 63 L 221 68 L 220 69 L 219 68 L 219 67 L 218 66 L 218 65 L 218 66 L 217 67 L 216 67 L 216 68 L 215 69 L 214 68 " stroke="black" stroke-width="1" fill="none"/>
<path d="M 139 57 L 138 58 L 139 58 L 141 60 L 141 61 L 142 62 L 142 63 L 144 65 L 144 66 L 146 68 L 146 69 L 147 70 L 147 71 L 149 73 L 149 74 L 149 72 L 147 70 L 147 69 L 146 68 L 146 67 L 144 65 L 144 64 L 142 62 L 142 61 L 141 60 L 141 59 " stroke="black" stroke-width="1" fill="none"/>
<path d="M 149 38 L 149 39 L 169 39 L 168 38 L 168 37 L 150 37 " stroke="black" stroke-width="1" fill="none"/>
<path d="M 149 38 L 150 37 L 167 37 L 168 38 L 167 39 L 150 39 " stroke="black" stroke-width="1" fill="none"/>
<path d="M 145 33 L 132 58 L 145 80 L 173 83 L 183 101 L 173 118 L 183 101 L 170 80 L 174 74 L 170 73 L 181 58 L 178 68 L 183 54 L 170 35 L 146 36 L 136 59 L 148 35 L 170 35 L 183 55 L 174 64 L 170 78 L 145 75 L 170 80 L 146 80 L 132 57 L 146 33 L 175 36 L 186 57 L 174 80 L 185 100 L 205 102 L 188 103 L 177 118 L 179 111 L 169 121 L 169 128 L 175 129 L 175 119 L 181 117 L 189 103 L 206 101 L 187 101 L 174 79 L 186 58 L 175 35 " stroke="black" stroke-width="1" fill="none"/>
<path d="M 171 120 L 174 120 L 177 123 L 177 126 L 174 129 L 171 129 L 169 127 L 169 122 " stroke="black" stroke-width="1" fill="none"/>
<path d="M 172 123 L 171 124 L 171 125 L 172 126 L 174 126 L 174 123 " stroke="black" stroke-width="1" fill="none"/>
<path d="M 171 124 L 172 123 L 173 123 L 174 124 L 174 125 L 173 126 L 172 126 L 171 125 " stroke="black" stroke-width="1" fill="none"/>
</svg>