<svg xmlns="http://www.w3.org/2000/svg" width="300" height="300" viewBox="0 0 300 300">
<path d="M 97 201 L 95 203 L 95 210 L 97 212 L 102 212 L 104 210 L 104 203 L 102 201 " stroke="black" stroke-width="1" fill="none"/>
<path d="M 98 201 L 101 201 L 104 204 L 104 209 L 101 212 L 98 212 L 95 209 L 95 204 " stroke="black" stroke-width="1" fill="none"/>
<path d="M 98 204 L 98 209 L 101 209 L 101 204 " stroke="black" stroke-width="1" fill="none"/>
<path d="M 99 204 L 100 204 L 101 205 L 101 208 L 100 209 L 99 209 L 98 208 L 98 205 " stroke="black" stroke-width="1" fill="none"/>
<path d="M 38 200 L 36 202 L 36 209 L 38 211 L 43 211 L 45 209 L 45 202 L 43 200 " stroke="black" stroke-width="1" fill="none"/>
<path d="M 39 200 L 42 200 L 45 203 L 45 208 L 42 211 L 39 211 L 36 208 L 36 203 " stroke="black" stroke-width="1" fill="none"/>
<path d="M 39 203 L 39 208 L 42 208 L 42 203 " stroke="black" stroke-width="1" fill="none"/>
<path d="M 40 203 L 41 203 L 42 204 L 42 207 L 41 208 L 40 208 L 39 207 L 39 204 " stroke="black" stroke-width="1" fill="none"/>
<path d="M 216 193 L 214 195 L 214 202 L 216 204 L 221 204 L 223 202 L 223 195 L 221 193 " stroke="black" stroke-width="1" fill="none"/>
<path d="M 217 193 L 220 193 L 223 196 L 223 201 L 220 204 L 217 204 L 214 201 L 214 196 " stroke="black" stroke-width="1" fill="none"/>
<path d="M 217 196 L 217 201 L 220 201 L 220 196 " stroke="black" stroke-width="1" fill="none"/>
<path d="M 218 196 L 219 196 L 220 197 L 220 200 L 219 201 L 218 201 L 217 200 L 217 197 " stroke="black" stroke-width="1" fill="none"/>
<path d="M 136 188 L 136 190 L 136 189 L 137 188 L 139 190 L 140 190 L 141 191 L 142 191 L 144 193 L 145 193 L 146 194 L 147 194 L 149 196 L 150 196 L 151 197 L 152 197 L 154 199 L 155 199 L 156 200 L 156 202 L 156 201 L 157 200 L 156 199 L 155 199 L 153 197 L 152 197 L 151 196 L 150 196 L 148 194 L 147 194 L 146 193 L 145 193 L 143 191 L 142 191 L 141 190 L 140 190 L 138 188 " stroke="black" stroke-width="1" fill="none"/>
<path d="M 183 161 L 182 161 L 182 186 L 183 185 L 184 185 L 184 162 " stroke="black" stroke-width="1" fill="none"/>
<path d="M 183 161 L 184 162 L 184 184 L 183 185 L 182 184 L 182 162 " stroke="black" stroke-width="1" fill="none"/>
<path d="M 217 153 L 217 155 L 221 159 L 221 160 L 224 163 L 224 164 L 226 166 L 226 167 L 229 170 L 229 171 L 231 173 L 232 172 L 233 172 L 232 171 L 232 170 L 231 169 L 232 170 L 232 171 L 231 172 L 229 170 L 229 169 L 226 166 L 226 165 L 224 163 L 224 162 L 221 159 L 221 158 L 217 154 L 218 153 L 219 153 L 221 155 L 219 153 " stroke="black" stroke-width="1" fill="none"/>
<path d="M 99 146 L 98 146 L 97 147 L 96 147 L 95 148 L 94 148 L 92 150 L 91 150 L 90 151 L 89 151 L 88 152 L 87 152 L 85 154 L 84 154 L 83 155 L 82 155 L 81 156 L 80 156 L 78 158 L 77 157 L 77 156 L 78 155 L 77 156 L 77 158 L 79 158 L 81 156 L 82 156 L 83 155 L 84 155 L 86 153 L 87 153 L 88 152 L 89 152 L 90 151 L 91 151 L 92 150 L 93 150 L 95 148 L 96 148 L 97 147 L 98 147 " stroke="black" stroke-width="1" fill="none"/>
<path d="M 156 145 L 156 147 L 155 148 L 154 148 L 152 150 L 151 150 L 150 151 L 149 151 L 147 153 L 146 153 L 145 154 L 144 154 L 142 156 L 141 156 L 140 157 L 139 157 L 137 159 L 136 158 L 136 157 L 136 159 L 138 159 L 140 157 L 141 157 L 142 156 L 143 156 L 145 154 L 146 154 L 147 153 L 148 153 L 150 151 L 151 151 L 152 150 L 153 150 L 155 148 L 156 148 L 157 147 L 156 146 " stroke="black" stroke-width="1" fill="none"/>
<path d="M 222 153 L 216 149 L 186 159 L 158 142 L 156 143 L 161 143 L 186 159 L 186 188 L 161 204 L 156 204 L 162 204 L 186 188 L 210 197 L 185 192 L 158 208 L 129 192 L 108 204 L 130 192 L 157 208 L 161 208 L 186 192 L 211 198 L 209 195 L 188 188 L 188 159 L 216 149 " stroke="black" stroke-width="1" fill="none"/>
<path d="M 187 158 L 188 159 L 188 188 L 187 189 L 186 188 L 186 159 " stroke="black" stroke-width="1" fill="none"/>
<path d="M 99 141 L 94 144 L 96 143 L 97 144 L 96 145 L 98 144 L 96 143 L 97 142 L 101 141 L 126 156 L 129 159 L 129 188 L 126 191 L 110 200 L 108 202 L 109 202 L 117 196 L 127 191 L 129 188 L 130 189 L 131 188 L 134 191 L 133 190 L 134 189 L 133 190 L 131 188 L 131 159 L 133 157 L 134 158 L 133 157 L 134 156 L 131 159 L 130 158 L 129 159 L 127 156 L 122 154 L 105 143 " stroke="black" stroke-width="1" fill="none"/>
<path d="M 130 158 L 131 159 L 131 188 L 130 189 L 129 188 L 129 159 " stroke="black" stroke-width="1" fill="none"/>
<path d="M 239 172 L 220 146 L 186 155 L 163 141 L 158 113 L 158 138 L 131 155 L 102 138 L 70 154 L 69 187 L 50 198 L 49 204 L 52 206 L 71 193 L 91 204 L 71 189 L 71 158 L 76 154 L 71 158 L 71 189 L 91 203 L 71 193 L 51 206 L 61 197 L 53 202 L 50 199 L 69 188 L 69 156 L 99 138 L 129 155 L 158 138 L 185 155 L 219 146 L 239 173 L 225 191 L 236 174 L 234 170 L 226 192 " stroke="black" stroke-width="1" fill="none"/>
<path d="M 159 113 L 160 114 L 160 138 L 159 139 L 158 138 L 158 114 " stroke="black" stroke-width="1" fill="none"/>
<path d="M 156 100 L 154 102 L 154 109 L 156 111 L 161 111 L 163 109 L 163 102 L 161 100 " stroke="black" stroke-width="1" fill="none"/>
<path d="M 157 100 L 160 100 L 163 103 L 163 108 L 160 111 L 157 111 L 154 108 L 154 103 " stroke="black" stroke-width="1" fill="none"/>
<path d="M 157 103 L 157 108 L 160 108 L 160 103 " stroke="black" stroke-width="1" fill="none"/>
<path d="M 158 103 L 159 103 L 160 104 L 160 107 L 159 108 L 158 108 L 157 107 L 157 104 " stroke="black" stroke-width="1" fill="none"/>
<path d="M 188 90 L 185 90 L 184 91 L 183 91 L 181 93 L 180 93 L 179 94 L 178 94 L 177 95 L 176 95 L 174 97 L 173 97 L 172 98 L 171 98 L 169 100 L 168 100 L 167 101 L 168 102 L 168 103 L 170 103 L 171 102 L 172 102 L 174 100 L 175 100 L 176 99 L 177 99 L 179 97 L 180 97 L 181 96 L 182 96 L 183 95 L 184 95 L 186 93 L 187 93 L 188 92 L 187 92 L 186 93 L 185 93 L 183 95 L 182 95 L 181 96 L 180 96 L 179 97 L 178 97 L 176 99 L 175 99 L 173 101 L 172 101 L 169 103 L 168 102 L 168 101 L 169 100 L 170 100 L 172 98 L 173 98 L 174 97 L 175 97 L 177 95 L 178 95 L 179 94 L 180 94 L 181 93 L 182 93 L 184 91 L 185 91 L 186 90 " stroke="black" stroke-width="1" fill="none"/>
</svg>