<svg xmlns="http://www.w3.org/2000/svg" width="300" height="300" viewBox="0 0 300 300">
<path d="M 231 267 L 232 268 L 232 269 L 235 269 L 236 268 L 237 269 L 237 274 L 236 275 L 235 274 L 235 273 L 234 272 L 234 271 L 234 272 L 233 273 L 232 273 L 232 274 L 231 275 L 230 274 L 230 269 L 230 276 L 231 275 L 232 276 L 232 274 L 233 273 L 234 273 L 235 274 L 235 275 L 237 275 L 237 268 L 235 268 L 234 269 L 233 269 L 232 268 L 232 267 " stroke="black" stroke-width="1" fill="none"/>
<path d="M 224 264 L 223 265 L 223 266 L 224 267 L 226 267 L 226 264 " stroke="black" stroke-width="1" fill="none"/>
<path d="M 223 265 L 224 264 L 225 264 L 226 265 L 226 266 L 225 267 L 224 267 L 223 266 " stroke="black" stroke-width="1" fill="none"/>
<path d="M 229 263 L 227 261 L 227 262 L 229 264 L 229 266 L 228 267 L 228 268 L 226 270 L 223 270 L 221 268 L 221 264 L 223 262 L 222 262 L 221 263 L 221 269 L 222 269 L 223 270 L 227 270 L 228 269 L 228 268 L 229 267 " stroke="black" stroke-width="1" fill="none"/>
<path d="M 187 254 L 187 263 L 188 262 L 189 263 L 189 261 L 190 260 L 191 260 L 192 261 L 192 262 L 194 262 L 194 255 L 192 255 L 191 256 L 190 256 L 189 255 L 189 254 L 188 255 " stroke="black" stroke-width="1" fill="none"/>
<path d="M 187 256 L 188 255 L 189 256 L 192 256 L 193 255 L 194 256 L 194 261 L 193 262 L 192 261 L 192 260 L 191 259 L 191 258 L 191 259 L 190 260 L 189 260 L 189 261 L 188 262 L 187 261 " stroke="black" stroke-width="1" fill="none"/>
<path d="M 256 242 L 254 244 L 254 250 L 255 250 L 256 251 L 260 251 L 262 249 L 262 246 L 261 245 L 261 243 L 260 242 " stroke="black" stroke-width="1" fill="none"/>
<path d="M 256 242 L 259 242 L 261 244 L 261 245 L 262 246 L 262 248 L 259 251 L 256 251 L 254 249 L 254 245 L 255 244 L 255 243 " stroke="black" stroke-width="1" fill="none"/>
<path d="M 257 245 L 256 246 L 256 247 L 257 248 L 259 248 L 259 245 " stroke="black" stroke-width="1" fill="none"/>
<path d="M 256 246 L 257 245 L 258 245 L 259 246 L 259 247 L 258 248 L 257 248 L 256 247 " stroke="black" stroke-width="1" fill="none"/>
<path d="M 188 243 L 188 250 L 189 250 L 190 251 L 194 251 L 196 249 L 196 245 L 195 244 L 195 243 L 194 242 L 190 242 L 189 243 " stroke="black" stroke-width="1" fill="none"/>
<path d="M 190 242 L 193 242 L 195 244 L 195 245 L 196 246 L 196 248 L 193 251 L 190 251 L 188 249 L 188 244 " stroke="black" stroke-width="1" fill="none"/>
<path d="M 191 245 L 190 246 L 190 247 L 191 248 L 193 248 L 193 245 " stroke="black" stroke-width="1" fill="none"/>
<path d="M 190 246 L 191 245 L 192 245 L 193 246 L 193 247 L 192 248 L 191 248 L 190 247 " stroke="black" stroke-width="1" fill="none"/>
<path d="M 263 237 L 263 243 L 263 239 L 264 238 L 265 239 L 268 239 L 269 238 L 270 239 L 270 244 L 269 245 L 268 244 L 268 243 L 267 242 L 267 241 L 267 242 L 266 243 L 265 243 L 265 245 L 264 246 L 265 246 L 265 244 L 266 243 L 267 243 L 268 244 L 268 245 L 270 245 L 270 238 L 268 238 L 267 239 L 266 239 L 265 238 L 265 237 L 264 238 " stroke="black" stroke-width="1" fill="none"/>
<path d="M 39 226 L 39 235 L 40 234 L 41 235 L 41 233 L 42 232 L 43 232 L 44 233 L 44 234 L 46 234 L 46 227 L 44 227 L 43 228 L 42 228 L 41 227 L 41 226 L 40 227 " stroke="black" stroke-width="1" fill="none"/>
<path d="M 39 228 L 40 227 L 41 228 L 44 228 L 45 227 L 46 228 L 46 233 L 45 234 L 44 233 L 44 232 L 43 231 L 43 230 L 43 231 L 42 232 L 41 232 L 41 233 L 40 234 L 39 233 " stroke="black" stroke-width="1" fill="none"/>
<path d="M 40 215 L 40 222 L 41 222 L 42 223 L 46 223 L 48 221 L 48 216 L 46 214 L 42 214 L 41 215 " stroke="black" stroke-width="1" fill="none"/>
<path d="M 42 214 L 45 214 L 48 217 L 48 220 L 45 223 L 42 223 L 40 221 L 40 216 " stroke="black" stroke-width="1" fill="none"/>
<path d="M 43 217 L 42 218 L 42 219 L 43 220 L 45 220 L 45 217 " stroke="black" stroke-width="1" fill="none"/>
<path d="M 42 218 L 43 217 L 44 217 L 45 218 L 45 219 L 44 220 L 43 220 L 42 219 " stroke="black" stroke-width="1" fill="none"/>
<path d="M 258 208 L 254 207 L 241 216 L 232 213 L 231 215 L 240 221 L 240 236 L 224 246 L 209 236 L 209 221 L 218 215 L 217 213 L 214 213 L 207 219 L 205 214 L 198 212 L 197 215 L 207 219 L 207 234 L 198 239 L 197 242 L 199 245 L 201 245 L 206 239 L 208 239 L 209 241 L 221 247 L 208 239 L 209 237 L 223 245 L 221 259 L 226 259 L 226 247 L 235 244 L 241 239 L 247 245 L 251 244 L 251 241 L 242 236 L 242 220 L 245 217 L 258 212 " stroke="black" stroke-width="1" fill="none"/>
<path d="M 224 246 L 225 247 L 225 250 L 226 251 L 225 252 L 225 253 L 226 254 L 226 258 L 225 259 L 222 259 L 221 258 L 221 254 L 222 253 L 222 250 L 223 249 L 223 247 " stroke="black" stroke-width="1" fill="none"/>
<path d="M 241 239 L 243 237 L 245 239 L 247 239 L 249 241 L 250 241 L 251 242 L 251 243 L 249 245 L 248 245 L 243 240 L 242 240 " stroke="black" stroke-width="1" fill="none"/>
<path d="M 241 239 L 239 241 L 238 241 L 237 242 L 236 242 L 234 244 L 233 244 L 232 245 L 231 245 L 230 246 L 229 246 L 228 247 L 225 247 L 224 246 L 225 245 L 226 245 L 227 244 L 228 244 L 229 243 L 230 243 L 231 242 L 233 242 L 235 240 L 236 240 L 237 239 L 238 239 L 238 238 L 239 237 " stroke="black" stroke-width="1" fill="none"/>
<path d="M 239 237 L 240 236 L 241 236 L 242 237 L 242 238 L 241 239 " stroke="black" stroke-width="1" fill="none"/>
<path d="M 216 213 L 217 214 L 214 217 L 213 217 L 212 218 L 211 218 L 210 219 L 210 220 L 209 221 L 209 237 L 207 239 L 205 239 L 203 241 L 203 242 L 200 245 L 199 244 L 199 243 L 197 241 L 199 239 L 200 239 L 201 238 L 202 238 L 203 237 L 204 237 L 205 236 L 206 236 L 207 235 L 207 219 L 210 216 L 211 216 L 212 215 L 213 215 L 215 213 " stroke="black" stroke-width="1" fill="none"/>
<path d="M 197 214 L 199 212 L 201 212 L 203 214 L 204 214 L 206 216 L 205 217 L 203 217 L 202 216 L 200 216 L 199 215 L 198 215 " stroke="black" stroke-width="1" fill="none"/>
<path d="M 256 207 L 258 209 L 258 211 L 257 212 L 256 212 L 255 213 L 253 213 L 252 214 L 251 214 L 250 215 L 249 215 L 248 216 L 247 216 L 246 217 L 245 217 L 242 219 L 242 235 L 241 236 L 240 235 L 240 220 L 238 218 L 237 218 L 236 217 L 235 217 L 232 214 L 233 213 L 234 213 L 236 215 L 237 215 L 240 217 L 241 216 L 242 216 L 243 215 L 244 215 L 246 213 L 247 213 L 248 212 L 249 212 L 251 210 L 252 210 L 255 207 " stroke="black" stroke-width="1" fill="none"/>
<path d="M 191 207 L 190 208 L 190 209 L 191 210 L 193 210 L 193 207 " stroke="black" stroke-width="1" fill="none"/>
<path d="M 190 208 L 191 207 L 192 207 L 193 208 L 193 209 L 192 210 L 191 210 L 190 209 " stroke="black" stroke-width="1" fill="none"/>
<path d="M 221 205 L 221 212 L 222 212 L 223 213 L 227 213 L 229 211 L 229 206 L 227 204 L 223 204 L 222 205 " stroke="black" stroke-width="1" fill="none"/>
<path d="M 223 204 L 226 204 L 229 207 L 229 210 L 226 213 L 223 213 L 221 211 L 221 206 " stroke="black" stroke-width="1" fill="none"/>
<path d="M 224 207 L 223 208 L 223 209 L 224 210 L 226 210 L 226 207 " stroke="black" stroke-width="1" fill="none"/>
<path d="M 223 208 L 224 207 L 225 207 L 226 208 L 226 209 L 225 210 L 224 210 L 223 209 " stroke="black" stroke-width="1" fill="none"/>
<path d="M 196 206 L 194 204 L 194 205 L 196 207 L 196 210 L 193 213 L 190 213 L 188 211 L 188 207 L 190 205 L 189 205 L 188 206 L 188 212 L 189 212 L 190 213 L 194 213 L 196 211 " stroke="black" stroke-width="1" fill="none"/>
<path d="M 121 197 L 121 206 L 122 205 L 123 206 L 123 204 L 124 203 L 125 203 L 126 204 L 126 205 L 128 205 L 128 198 L 126 198 L 125 199 L 124 199 L 123 198 L 122 198 " stroke="black" stroke-width="1" fill="none"/>
<path d="M 121 199 L 122 198 L 123 199 L 126 199 L 127 198 L 128 199 L 128 204 L 127 205 L 126 204 L 126 203 L 125 202 L 125 201 L 125 202 L 124 203 L 123 203 L 123 204 L 122 205 L 121 204 " stroke="black" stroke-width="1" fill="none"/>
<path d="M 155 186 L 155 193 L 156 193 L 157 194 L 161 194 L 163 192 L 163 187 L 161 185 L 157 185 L 156 186 " stroke="black" stroke-width="1" fill="none"/>
<path d="M 157 185 L 160 185 L 163 188 L 163 191 L 160 194 L 157 194 L 155 192 L 155 187 " stroke="black" stroke-width="1" fill="none"/>
<path d="M 158 188 L 157 189 L 157 190 L 158 191 L 160 191 L 160 188 " stroke="black" stroke-width="1" fill="none"/>
<path d="M 157 189 L 158 188 L 159 188 L 160 189 L 160 190 L 159 191 L 158 191 L 157 190 " stroke="black" stroke-width="1" fill="none"/>
<path d="M 237 180 L 235 180 L 234 181 L 233 181 L 232 180 L 232 179 L 231 180 L 230 179 L 230 184 L 228 186 L 227 185 L 223 185 L 222 186 L 221 186 L 221 193 L 222 193 L 223 194 L 227 194 L 229 192 L 229 188 L 228 187 L 228 186 L 229 185 L 230 186 L 230 181 L 231 180 L 232 181 L 235 181 L 236 180 L 237 181 L 237 186 L 236 187 L 235 186 L 235 185 L 234 184 L 234 183 L 234 184 L 233 185 L 232 185 L 232 187 L 231 188 L 232 188 L 232 186 L 233 185 L 234 185 L 235 186 L 235 187 L 237 187 " stroke="black" stroke-width="1" fill="none"/>
<path d="M 223 185 L 226 185 L 228 187 L 228 188 L 229 189 L 229 191 L 226 194 L 223 194 L 221 192 L 221 187 " stroke="black" stroke-width="1" fill="none"/>
<path d="M 224 188 L 223 189 L 223 190 L 224 191 L 226 191 L 226 188 " stroke="black" stroke-width="1" fill="none"/>
<path d="M 223 189 L 224 188 L 225 188 L 226 189 L 226 190 L 225 191 L 224 191 L 223 190 " stroke="black" stroke-width="1" fill="none"/>
<path d="M 40 177 L 40 184 L 41 184 L 42 185 L 46 185 L 48 183 L 48 178 L 46 176 L 42 176 L 41 177 " stroke="black" stroke-width="1" fill="none"/>
<path d="M 42 176 L 45 176 L 48 179 L 48 182 L 45 185 L 42 185 L 40 183 L 40 178 " stroke="black" stroke-width="1" fill="none"/>
<path d="M 43 179 L 42 180 L 42 181 L 43 182 L 45 182 L 45 179 " stroke="black" stroke-width="1" fill="none"/>
<path d="M 42 180 L 43 179 L 44 179 L 45 180 L 45 181 L 44 182 L 43 182 L 42 181 " stroke="black" stroke-width="1" fill="none"/>
<path d="M 105 164 L 105 173 L 106 172 L 107 172 L 107 171 L 108 170 L 109 170 L 110 171 L 110 172 L 112 172 L 112 165 L 110 165 L 109 166 L 108 166 L 107 165 L 107 164 L 106 165 " stroke="black" stroke-width="1" fill="none"/>
<path d="M 105 166 L 106 165 L 107 166 L 110 166 L 111 165 L 112 166 L 112 171 L 111 172 L 110 171 L 110 170 L 109 169 L 109 168 L 109 169 L 108 170 L 107 170 L 107 171 L 106 172 L 105 171 " stroke="black" stroke-width="1" fill="none"/>
<path d="M 147 159 L 139 158 L 139 165 L 145 167 L 143 179 L 139 167 L 139 180 L 126 188 L 108 174 L 106 181 L 93 188 L 78 180 L 60 188 L 51 185 L 58 192 L 58 207 L 51 215 L 59 211 L 78 220 L 93 210 L 93 192 L 108 183 L 124 195 L 124 189 L 122 192 L 108 183 L 93 191 L 87 189 L 87 193 L 77 188 L 77 185 L 85 189 L 77 183 L 60 191 L 52 188 L 52 185 L 60 188 L 77 180 L 93 188 L 107 181 L 109 175 L 110 182 L 112 179 L 126 188 L 139 181 L 140 168 L 143 180 L 144 168 L 145 181 L 151 186 L 140 183 L 127 190 L 126 195 L 128 190 L 141 183 L 151 187 L 145 181 " stroke="black" stroke-width="1" fill="none"/>
<path d="M 59 191 L 60 192 L 60 207 L 59 208 L 58 207 L 58 192 " stroke="black" stroke-width="1" fill="none"/>
<path d="M 93 192 L 93 209 L 77 220 L 71 218 L 60 211 L 58 211 L 52 215 L 51 214 L 58 207 L 74 217 L 79 216 L 77 215 L 80 213 L 82 214 L 81 213 L 82 212 L 77 215 L 76 214 L 77 212 L 87 206 L 88 208 L 87 209 L 88 206 L 86 206 L 75 213 L 78 216 L 77 217 L 73 216 L 60 208 L 60 192 L 73 184 L 77 183 L 78 184 L 75 187 L 84 192 L 88 193 L 89 190 L 91 192 L 91 207 L 90 209 L 91 208 L 91 192 L 92 191 " stroke="black" stroke-width="1" fill="none"/>
<path d="M 64 192 L 63 193 L 62 193 L 62 206 L 63 206 L 64 207 " stroke="black" stroke-width="1" fill="none"/>
<path d="M 63 193 L 64 194 L 64 205 L 63 206 L 62 205 L 62 194 " stroke="black" stroke-width="1" fill="none"/>
<path d="M 141 157 L 144 157 L 147 160 L 147 163 L 144 166 L 142 166 L 141 165 L 140 165 L 139 164 L 139 159 " stroke="black" stroke-width="1" fill="none"/>
<path d="M 142 160 L 141 161 L 141 162 L 142 163 L 144 163 L 144 160 " stroke="black" stroke-width="1" fill="none"/>
<path d="M 141 161 L 142 160 L 143 160 L 144 161 L 144 162 L 143 163 L 142 163 L 141 162 " stroke="black" stroke-width="1" fill="none"/>
<path d="M 188 148 L 188 155 L 189 155 L 190 156 L 194 156 L 196 154 L 196 149 L 194 147 L 190 147 L 189 148 " stroke="black" stroke-width="1" fill="none"/>
<path d="M 190 147 L 193 147 L 196 150 L 196 153 L 193 156 L 190 156 L 188 154 L 188 149 " stroke="black" stroke-width="1" fill="none"/>
<path d="M 191 150 L 190 151 L 190 152 L 191 153 L 193 153 L 193 150 " stroke="black" stroke-width="1" fill="none"/>
<path d="M 190 151 L 191 150 L 192 150 L 193 151 L 193 152 L 192 153 L 191 153 L 190 152 " stroke="black" stroke-width="1" fill="none"/>
<path d="M 155 129 L 157 155 L 170 160 L 174 164 L 174 179 L 165 182 L 164 185 L 169 186 L 174 182 L 188 190 L 173 180 L 175 163 L 177 181 L 191 189 L 188 202 L 193 202 L 192 191 L 208 182 L 214 189 L 215 186 L 216 189 L 217 182 L 209 179 L 209 163 L 213 159 L 218 158 L 216 154 L 207 159 L 199 156 L 198 158 L 207 164 L 207 178 L 204 182 L 191 189 L 176 179 L 176 164 L 184 156 L 182 155 L 175 160 L 161 150 L 159 139 L 156 138 L 163 135 L 163 130 L 161 128 " stroke="black" stroke-width="1" fill="none"/>
<path d="M 191 189 L 192 190 L 192 193 L 193 194 L 192 195 L 192 196 L 193 197 L 193 201 L 192 202 L 189 202 L 188 201 L 188 197 L 189 196 L 189 193 L 190 192 L 190 190 " stroke="black" stroke-width="1" fill="none"/>
<path d="M 208 182 L 206 184 L 205 184 L 204 185 L 203 185 L 201 187 L 200 187 L 199 188 L 198 188 L 197 189 L 196 189 L 195 190 L 192 190 L 191 189 L 192 188 L 193 188 L 194 187 L 195 187 L 196 186 L 197 186 L 198 185 L 200 185 L 202 183 L 203 183 L 204 182 L 205 182 L 205 181 L 206 180 " stroke="black" stroke-width="1" fill="none"/>
<path d="M 174 181 L 174 182 L 173 183 L 170 183 L 170 184 L 168 186 L 167 186 L 166 185 L 165 185 L 164 184 L 166 182 L 167 182 L 168 183 L 167 182 L 168 181 L 169 181 L 170 180 L 171 181 L 172 180 L 173 180 " stroke="black" stroke-width="1" fill="none"/>
<path d="M 200 156 L 201 156 L 203 158 L 204 158 L 205 159 L 206 159 L 207 160 L 208 159 L 210 161 L 209 162 L 209 180 L 211 180 L 212 181 L 214 181 L 215 182 L 216 182 L 217 183 L 217 184 L 216 185 L 215 185 L 215 186 L 214 187 L 210 183 L 209 183 L 206 180 L 207 179 L 207 163 L 205 161 L 204 161 L 203 160 L 202 160 L 199 157 " stroke="black" stroke-width="1" fill="none"/>
<path d="M 184 156 L 184 157 L 181 160 L 180 160 L 179 161 L 178 161 L 177 162 L 177 163 L 176 164 L 175 163 L 174 164 L 173 163 L 173 162 L 172 161 L 172 160 L 173 159 L 174 160 L 176 160 L 177 159 L 178 159 L 179 158 L 180 158 L 183 155 " stroke="black" stroke-width="1" fill="none"/>
<path d="M 218 157 L 216 159 L 212 159 L 210 161 L 208 159 L 209 158 L 210 158 L 213 155 L 214 155 L 215 154 " stroke="black" stroke-width="1" fill="none"/>
<path d="M 157 150 L 159 148 L 160 149 L 160 150 L 161 150 L 165 154 L 166 154 L 169 157 L 170 157 L 171 158 L 172 158 L 173 159 L 171 161 L 170 160 L 169 160 L 168 159 L 167 159 L 166 158 L 165 158 L 164 157 L 162 157 L 161 156 L 160 156 L 159 155 L 158 155 L 157 154 " stroke="black" stroke-width="1" fill="none"/>
<path d="M 158 139 L 159 140 L 159 148 L 158 149 L 157 148 L 157 140 " stroke="black" stroke-width="1" fill="none"/>
<path d="M 157 128 L 160 128 L 163 131 L 163 134 L 160 137 L 157 137 L 155 135 L 155 130 " stroke="black" stroke-width="1" fill="none"/>
<path d="M 158 131 L 157 132 L 157 133 L 158 134 L 160 134 L 160 131 " stroke="black" stroke-width="1" fill="none"/>
<path d="M 157 132 L 158 131 L 159 131 L 160 132 L 160 133 L 159 134 L 158 134 L 157 133 " stroke="black" stroke-width="1" fill="none"/>
<path d="M 122 129 L 122 136 L 123 136 L 124 137 L 128 137 L 130 135 L 130 130 L 128 128 L 124 128 L 123 129 " stroke="black" stroke-width="1" fill="none"/>
<path d="M 124 128 L 127 128 L 130 131 L 130 134 L 127 137 L 124 137 L 122 135 L 122 130 " stroke="black" stroke-width="1" fill="none"/>
<path d="M 125 131 L 124 132 L 124 133 L 125 134 L 127 134 L 127 131 " stroke="black" stroke-width="1" fill="none"/>
<path d="M 124 132 L 125 131 L 126 131 L 127 132 L 127 133 L 126 134 L 125 134 L 124 133 " stroke="black" stroke-width="1" fill="none"/>
<path d="M 78 96 L 78 105 L 79 104 L 80 105 L 80 103 L 81 102 L 82 102 L 83 103 L 83 104 L 85 104 L 85 97 L 83 97 L 82 98 L 81 98 L 80 97 L 80 96 L 79 97 " stroke="black" stroke-width="1" fill="none"/>
<path d="M 78 98 L 79 97 L 80 98 L 83 98 L 84 97 L 85 98 L 85 103 L 84 104 L 83 103 L 83 102 L 82 101 L 82 100 L 82 101 L 81 102 L 80 102 L 80 103 L 79 104 L 78 103 " stroke="black" stroke-width="1" fill="none"/>
<path d="M 155 91 L 155 98 L 156 98 L 157 99 L 161 99 L 163 97 L 163 92 L 161 90 L 157 90 L 156 91 " stroke="black" stroke-width="1" fill="none"/>
<path d="M 157 90 L 160 90 L 163 93 L 163 96 L 160 99 L 157 99 L 155 97 L 155 92 " stroke="black" stroke-width="1" fill="none"/>
<path d="M 158 93 L 157 94 L 157 95 L 158 96 L 160 96 L 160 93 " stroke="black" stroke-width="1" fill="none"/>
<path d="M 157 94 L 158 93 L 159 93 L 160 94 L 160 95 L 159 96 L 158 96 L 157 95 " stroke="black" stroke-width="1" fill="none"/>
<path d="M 89 91 L 89 98 L 90 98 L 91 99 L 95 99 L 97 97 L 97 92 L 95 90 L 91 90 L 90 91 " stroke="black" stroke-width="1" fill="none"/>
<path d="M 91 90 L 94 90 L 97 93 L 97 96 L 94 99 L 91 99 L 89 97 L 89 92 " stroke="black" stroke-width="1" fill="none"/>
<path d="M 92 93 L 91 94 L 91 95 L 92 96 L 94 96 L 94 93 " stroke="black" stroke-width="1" fill="none"/>
<path d="M 91 94 L 92 93 L 93 93 L 94 94 L 94 95 L 93 96 L 92 96 L 91 95 " stroke="black" stroke-width="1" fill="none"/>
<path d="M 99 99 L 99 102 L 101 101 L 106 104 L 107 102 L 109 103 L 109 126 L 116 130 L 118 129 L 117 126 L 110 122 L 110 107 L 125 97 L 141 107 L 141 121 L 133 126 L 132 129 L 138 128 L 142 125 L 147 129 L 148 132 L 147 128 L 145 127 L 149 125 L 150 132 L 150 125 L 143 122 L 143 106 L 147 102 L 152 101 L 150 97 L 146 98 L 140 103 L 139 101 L 126 93 L 126 88 L 124 90 L 122 84 L 126 83 L 127 86 L 127 83 L 122 83 L 123 94 L 109 103 L 103 98 " stroke="black" stroke-width="1" fill="none"/>
<path d="M 147 125 L 145 127 L 144 126 L 143 126 L 142 125 L 141 125 L 139 127 L 138 127 L 137 128 L 135 128 L 134 129 L 133 129 L 132 128 L 134 126 L 135 126 L 136 125 L 137 125 L 138 124 L 139 124 L 141 122 L 142 122 L 143 123 L 144 123 L 145 124 L 146 124 " stroke="black" stroke-width="1" fill="none"/>
<path d="M 99 100 L 101 98 L 102 98 L 104 100 L 105 100 L 107 102 L 106 103 L 104 103 L 103 102 L 102 102 L 101 101 L 100 102 L 99 101 " stroke="black" stroke-width="1" fill="none"/>
<path d="M 152 100 L 150 102 L 146 102 L 144 104 L 142 102 L 143 101 L 144 101 L 147 98 L 148 98 L 149 97 " stroke="black" stroke-width="1" fill="none"/>
<path d="M 125 90 L 126 91 L 126 94 L 128 96 L 138 101 L 140 103 L 142 102 L 144 104 L 143 105 L 143 121 L 142 122 L 141 121 L 141 106 L 135 102 L 132 101 L 130 99 L 126 97 L 124 97 L 115 103 L 112 104 L 110 107 L 110 122 L 111 124 L 116 126 L 118 128 L 116 129 L 110 126 L 108 124 L 108 104 L 114 101 L 119 97 L 122 96 L 123 95 L 123 91 " stroke="black" stroke-width="1" fill="none"/>
<path d="M 154 78 L 154 87 L 155 86 L 156 87 L 156 85 L 157 84 L 158 84 L 159 85 L 159 86 L 161 86 L 161 79 L 159 79 L 158 80 L 157 80 L 156 79 L 156 78 L 155 79 " stroke="black" stroke-width="1" fill="none"/>
<path d="M 154 80 L 155 79 L 156 80 L 159 80 L 160 79 L 161 80 L 161 85 L 160 86 L 159 85 L 159 84 L 158 83 L 158 82 L 158 83 L 157 84 L 156 84 L 156 85 L 155 86 L 154 85 " stroke="black" stroke-width="1" fill="none"/>
<path d="M 122 72 L 122 79 L 123 79 L 124 80 L 128 80 L 130 78 L 130 73 L 128 71 L 124 71 L 123 72 " stroke="black" stroke-width="1" fill="none"/>
<path d="M 124 71 L 127 71 L 130 74 L 130 77 L 127 80 L 124 80 L 122 78 L 122 73 " stroke="black" stroke-width="1" fill="none"/>
<path d="M 125 74 L 124 75 L 124 76 L 125 77 L 127 77 L 127 74 " stroke="black" stroke-width="1" fill="none"/>
<path d="M 124 75 L 125 74 L 126 74 L 127 75 L 127 76 L 126 77 L 125 77 L 124 76 " stroke="black" stroke-width="1" fill="none"/>
<path d="M 281 67 L 282 68 L 282 69 L 285 69 L 286 68 L 287 69 L 287 74 L 286 75 L 285 74 L 285 73 L 284 72 L 284 71 L 284 72 L 283 73 L 282 73 L 282 74 L 281 75 L 280 74 L 280 69 L 280 76 L 281 75 L 282 76 L 282 74 L 283 73 L 284 73 L 285 74 L 285 75 L 287 75 L 287 68 L 285 68 L 284 69 L 283 69 L 282 68 L 282 67 " stroke="black" stroke-width="1" fill="none"/>
<path d="M 111 65 L 111 74 L 112 73 L 113 74 L 113 72 L 114 71 L 115 71 L 116 72 L 116 73 L 118 73 L 118 66 L 116 66 L 115 67 L 114 67 L 113 66 L 113 65 L 112 66 " stroke="black" stroke-width="1" fill="none"/>
<path d="M 111 67 L 112 66 L 113 67 L 116 67 L 117 66 L 118 67 L 118 72 L 117 73 L 116 72 L 116 71 L 115 70 L 115 69 L 115 70 L 114 71 L 113 71 L 113 72 L 112 73 L 111 72 " stroke="black" stroke-width="1" fill="none"/>
<path d="M 271 62 L 271 69 L 272 69 L 273 70 L 277 70 L 278 69 L 278 68 L 279 67 L 279 63 L 277 61 L 273 61 L 272 62 " stroke="black" stroke-width="1" fill="none"/>
<path d="M 273 61 L 276 61 L 279 64 L 279 66 L 278 67 L 278 68 L 276 70 L 273 70 L 271 68 L 271 63 " stroke="black" stroke-width="1" fill="none"/>
<path d="M 274 64 L 273 65 L 273 66 L 274 67 L 276 67 L 276 64 " stroke="black" stroke-width="1" fill="none"/>
<path d="M 273 65 L 274 64 L 275 64 L 276 65 L 276 66 L 275 67 L 274 67 L 273 66 " stroke="black" stroke-width="1" fill="none"/>
<path d="M 244 42 L 238 43 L 238 50 L 240 53 L 240 64 L 223 75 L 223 96 L 240 107 L 240 122 L 223 132 L 223 147 L 221 148 L 221 155 L 227 156 L 229 154 L 229 149 L 227 147 L 222 146 L 225 145 L 225 135 L 242 125 L 242 107 L 258 96 L 258 78 L 267 72 L 267 70 L 265 69 L 257 74 L 242 64 L 242 53 L 239 52 L 244 51 L 246 49 L 246 44 " stroke="black" stroke-width="1" fill="none"/>
<path d="M 223 147 L 226 147 L 229 150 L 229 153 L 226 156 L 223 156 L 221 154 L 221 149 " stroke="black" stroke-width="1" fill="none"/>
<path d="M 224 150 L 223 151 L 223 152 L 224 153 L 226 153 L 226 150 " stroke="black" stroke-width="1" fill="none"/>
<path d="M 223 151 L 224 150 L 225 150 L 226 151 L 226 152 L 225 153 L 224 153 L 223 152 " stroke="black" stroke-width="1" fill="none"/>
<path d="M 241 106 L 242 107 L 242 124 L 240 126 L 239 126 L 238 127 L 237 127 L 236 128 L 235 128 L 234 129 L 233 129 L 232 130 L 231 130 L 229 132 L 228 132 L 227 133 L 226 133 L 226 134 L 225 135 L 225 144 L 224 145 L 223 144 L 223 133 L 225 131 L 226 131 L 228 129 L 229 129 L 230 128 L 231 128 L 232 127 L 233 127 L 234 126 L 235 126 L 236 125 L 237 125 L 238 124 L 239 124 L 239 123 L 240 122 L 240 107 " stroke="black" stroke-width="1" fill="none"/>
<path d="M 266 69 L 267 71 L 262 75 L 259 76 L 258 78 L 255 76 L 256 78 L 256 93 L 255 95 L 256 94 L 256 78 L 257 77 L 258 78 L 258 95 L 255 98 L 244 104 L 242 107 L 241 106 L 240 107 L 238 104 L 228 99 L 223 95 L 223 76 L 228 72 L 238 67 L 240 64 L 241 65 L 242 64 L 244 67 L 247 68 L 256 74 L 259 74 " stroke="black" stroke-width="1" fill="none"/>
<path d="M 253 92 L 252 92 L 251 93 L 249 93 L 248 94 L 247 94 L 246 95 L 245 95 L 243 97 L 242 97 L 240 99 L 241 100 L 241 101 L 242 100 L 243 100 L 244 99 L 245 99 L 247 97 L 248 97 L 249 96 L 250 96 L 251 95 L 252 95 L 253 94 " stroke="black" stroke-width="1" fill="none"/>
<path d="M 253 93 L 253 94 L 252 95 L 251 95 L 250 96 L 249 96 L 248 97 L 247 97 L 245 99 L 244 99 L 243 100 L 242 100 L 241 99 L 243 97 L 244 97 L 246 95 L 247 95 L 248 94 L 249 94 L 250 93 L 251 93 L 252 92 " stroke="black" stroke-width="1" fill="none"/>
<path d="M 229 78 L 228 79 L 227 79 L 227 92 L 228 92 L 229 93 " stroke="black" stroke-width="1" fill="none"/>
<path d="M 228 79 L 229 80 L 229 91 L 228 92 L 227 91 L 227 80 " stroke="black" stroke-width="1" fill="none"/>
<path d="M 241 70 L 241 71 L 240 72 L 242 74 L 243 74 L 245 76 L 246 76 L 247 77 L 248 77 L 249 78 L 251 78 L 252 79 L 253 79 L 253 77 L 252 76 L 251 76 L 250 75 L 249 75 L 248 74 L 247 74 L 245 72 L 244 72 L 243 71 L 242 71 " stroke="black" stroke-width="1" fill="none"/>
<path d="M 241 72 L 242 71 L 243 71 L 244 72 L 245 72 L 247 74 L 248 74 L 249 75 L 250 75 L 251 76 L 252 76 L 253 77 L 253 78 L 252 79 L 251 78 L 250 78 L 249 77 L 248 77 L 247 76 L 246 76 L 244 74 L 243 74 " stroke="black" stroke-width="1" fill="none"/>
<path d="M 240 68 L 242 68 L 250 73 L 246 70 L 242 68 L 240 68 L 236 70 L 234 72 L 231 73 L 229 75 L 226 76 L 225 78 L 225 93 L 226 95 L 229 96 L 236 101 L 240 103 L 242 103 L 250 98 L 246 101 L 242 103 L 240 103 L 238 101 L 232 98 L 230 96 L 227 95 L 225 93 L 225 78 L 227 76 L 235 72 " stroke="black" stroke-width="1" fill="none"/>
<path d="M 241 53 L 242 54 L 242 64 L 241 65 L 240 64 L 240 54 " stroke="black" stroke-width="1" fill="none"/>
<path d="M 240 42 L 243 42 L 246 45 L 246 48 L 243 51 L 240 51 L 238 49 L 238 44 " stroke="black" stroke-width="1" fill="none"/>
<path d="M 241 45 L 240 46 L 240 47 L 241 48 L 243 48 L 243 45 " stroke="black" stroke-width="1" fill="none"/>
<path d="M 240 46 L 241 45 L 242 45 L 243 46 L 243 47 L 242 48 L 241 48 L 240 47 " stroke="black" stroke-width="1" fill="none"/>
<path d="M 223 37 L 225 37 L 226 38 L 227 38 L 228 39 L 229 39 L 231 41 L 232 41 L 234 43 L 233 44 L 232 44 L 231 43 L 230 43 L 229 42 L 228 42 L 226 40 L 225 40 L 224 39 L 223 39 L 224 40 L 225 40 L 227 42 L 228 42 L 229 43 L 230 43 L 231 44 L 234 44 L 234 43 L 235 42 L 234 42 L 233 41 L 232 41 L 230 39 L 229 39 L 228 38 L 227 38 L 226 37 " stroke="black" stroke-width="1" fill="none"/>
</svg>