<svg xmlns="http://www.w3.org/2000/svg" width="300" height="300" viewBox="0 0 300 300">
<path d="M 31 176 L 29 178 L 29 185 L 31 187 L 36 187 L 38 185 L 38 178 L 36 176 " stroke="black" stroke-width="1" fill="none"/>
<path d="M 32 176 L 35 176 L 38 179 L 38 184 L 35 187 L 32 187 L 29 184 L 29 179 " stroke="black" stroke-width="1" fill="none"/>
<path d="M 32 179 L 32 184 L 35 184 L 35 179 " stroke="black" stroke-width="1" fill="none"/>
<path d="M 33 179 L 34 179 L 35 180 L 35 183 L 34 184 L 33 184 L 32 183 L 32 180 " stroke="black" stroke-width="1" fill="none"/>
<path d="M 148 175 L 146 177 L 146 184 L 148 186 L 153 186 L 155 184 L 155 177 L 153 175 " stroke="black" stroke-width="1" fill="none"/>
<path d="M 149 175 L 152 175 L 155 178 L 155 183 L 152 186 L 149 186 L 146 183 L 146 178 " stroke="black" stroke-width="1" fill="none"/>
<path d="M 149 178 L 149 183 L 152 183 L 152 178 " stroke="black" stroke-width="1" fill="none"/>
<path d="M 150 178 L 151 178 L 152 179 L 152 182 L 151 183 L 150 183 L 149 182 L 149 179 " stroke="black" stroke-width="1" fill="none"/>
<path d="M 19 166 L 18 167 L 17 166 L 17 168 L 15 170 L 14 169 L 14 167 L 11 167 L 11 176 L 14 176 L 14 173 L 15 172 L 17 174 L 17 177 L 18 176 L 19 177 " stroke="black" stroke-width="1" fill="none"/>
<path d="M 18 167 L 19 168 L 19 175 L 18 176 L 17 175 L 17 174 L 16 173 L 16 170 L 17 169 L 17 168 " stroke="black" stroke-width="1" fill="none"/>
<path d="M 12 167 L 13 167 L 14 168 L 14 175 L 13 176 L 12 176 L 11 175 L 11 168 " stroke="black" stroke-width="1" fill="none"/>
<path d="M 42 177 L 64 169 L 95 185 L 123 168 L 142 178 L 123 164 L 123 135 L 152 118 L 179 135 L 179 164 L 160 178 L 181 168 L 206 182 L 208 217 L 235 233 L 267 217 L 267 181 L 235 165 L 208 180 L 181 164 L 181 132 L 154 115 L 153 76 L 146 78 L 148 115 L 123 131 L 94 113 L 92 88 L 92 113 L 62 131 L 62 165 " stroke="black" stroke-width="1" fill="none"/>
<path d="M 160 176 L 181 164 L 203 178 L 211 180 L 238 165 L 267 182 L 267 216 L 236 233 L 208 216 L 209 183 L 210 214 L 213 217 L 213 215 L 210 214 L 210 184 L 213 183 L 213 181 L 208 184 L 182 168 L 178 168 L 161 178 " stroke="black" stroke-width="1" fill="none"/>
<path d="M 262 186 L 261 186 L 261 212 L 262 211 L 263 211 L 263 187 " stroke="black" stroke-width="1" fill="none"/>
<path d="M 262 186 L 263 187 L 263 210 L 262 211 L 261 210 L 261 187 " stroke="black" stroke-width="1" fill="none"/>
<path d="M 235 171 L 235 173 L 234 174 L 233 174 L 231 176 L 230 176 L 229 177 L 228 177 L 226 179 L 225 179 L 224 180 L 223 180 L 222 181 L 221 181 L 220 182 L 219 182 L 218 183 L 217 183 L 216 184 L 215 184 L 216 184 L 217 183 L 219 183 L 220 182 L 221 182 L 222 181 L 223 181 L 224 180 L 225 180 L 226 179 L 227 179 L 229 177 L 230 177 L 231 176 L 232 176 L 234 174 L 235 174 L 236 173 L 235 172 " stroke="black" stroke-width="1" fill="none"/>
<path d="M 235 168 L 220 177 L 238 168 L 265 184 L 265 214 L 260 218 L 236 230 L 233 228 L 235 227 L 235 224 L 215 214 L 215 216 L 216 214 L 234 224 L 235 226 L 234 227 L 225 222 L 225 224 L 227 223 L 227 225 L 229 224 L 230 227 L 230 225 L 234 227 L 232 228 L 235 230 L 239 230 L 264 216 L 265 184 L 261 180 L 243 170 " stroke="black" stroke-width="1" fill="none"/>
<path d="M 122 134 L 123 135 L 123 164 L 122 165 L 121 164 L 121 135 " stroke="black" stroke-width="1" fill="none"/>
<path d="M 181 133 L 180 165 L 178 133 L 153 118 L 121 135 L 91 117 L 88 119 L 93 117 L 121 135 L 121 164 L 90 181 L 121 164 L 142 177 L 121 168 L 94 185 L 65 169 L 43 178 L 62 165 L 69 169 L 70 165 L 90 179 L 75 167 L 64 165 L 64 134 L 75 132 L 90 120 L 70 134 L 65 132 L 63 166 L 62 132 L 92 113 L 123 131 L 148 116 L 149 89 L 150 115 L 153 89 L 154 116 " stroke="black" stroke-width="1" fill="none"/>
<path d="M 118 137 L 117 137 L 117 162 L 118 161 L 119 161 L 119 138 " stroke="black" stroke-width="1" fill="none"/>
<path d="M 118 137 L 119 138 L 119 160 L 118 161 L 117 160 L 117 138 " stroke="black" stroke-width="1" fill="none"/>
<path d="M 93 88 L 94 89 L 94 113 L 93 114 L 92 113 L 92 89 " stroke="black" stroke-width="1" fill="none"/>
<path d="M 149 87 L 153 87 L 154 88 L 153 89 L 152 89 L 152 114 L 151 115 L 150 114 L 150 89 L 149 89 L 148 88 " stroke="black" stroke-width="1" fill="none"/>
<path d="M 149 76 L 152 76 L 155 79 L 155 84 L 152 87 L 149 87 L 146 84 L 146 79 " stroke="black" stroke-width="1" fill="none"/>
<path d="M 149 79 L 149 84 L 152 84 L 152 79 " stroke="black" stroke-width="1" fill="none"/>
<path d="M 150 79 L 151 79 L 152 80 L 152 83 L 151 84 L 150 84 L 149 83 L 149 80 " stroke="black" stroke-width="1" fill="none"/>
<path d="M 90 75 L 88 77 L 88 84 L 90 86 L 95 86 L 97 84 L 97 77 L 95 75 " stroke="black" stroke-width="1" fill="none"/>
<path d="M 91 75 L 94 75 L 97 78 L 97 83 L 94 86 L 91 86 L 88 83 L 88 78 " stroke="black" stroke-width="1" fill="none"/>
<path d="M 91 78 L 91 83 L 94 83 L 94 78 " stroke="black" stroke-width="1" fill="none"/>
<path d="M 92 78 L 93 78 L 94 79 L 94 82 L 93 83 L 92 83 L 91 82 L 91 79 " stroke="black" stroke-width="1" fill="none"/>
<path d="M 64 64 L 66 64 L 67 65 L 68 65 L 70 67 L 71 67 L 72 68 L 73 68 L 74 69 L 75 69 L 77 71 L 78 71 L 79 72 L 80 72 L 82 74 L 83 74 L 84 75 L 84 76 L 83 77 L 82 76 L 81 76 L 80 75 L 79 75 L 77 73 L 76 73 L 74 71 L 73 71 L 72 70 L 71 70 L 70 69 L 69 69 L 67 67 L 66 67 L 65 66 L 64 66 L 65 67 L 66 67 L 68 69 L 69 69 L 70 70 L 71 70 L 72 71 L 73 71 L 75 73 L 76 73 L 77 74 L 78 74 L 80 76 L 81 76 L 82 77 L 84 77 L 84 76 L 85 75 L 84 74 L 83 74 L 81 72 L 80 72 L 79 71 L 78 71 L 76 69 L 75 69 L 74 68 L 73 68 L 72 67 L 71 67 L 69 65 L 68 65 L 67 64 " stroke="black" stroke-width="1" fill="none"/>
</svg>