<svg xmlns="http://www.w3.org/2000/svg" width="300" height="300" viewBox="0 0 300 300">
<path d="M 175 197 L 175 206 L 178 206 L 178 203 L 179 202 L 181 204 L 181 207 L 182 206 L 183 207 L 183 196 L 182 197 L 181 197 L 181 198 L 179 200 L 178 199 L 178 196 L 177 197 L 178 198 L 178 205 L 177 206 L 176 206 L 175 205 " stroke="black" stroke-width="1" fill="none"/>
<path d="M 182 197 L 183 198 L 183 205 L 182 206 L 181 205 L 181 204 L 180 203 L 180 200 L 181 199 L 181 198 " stroke="black" stroke-width="1" fill="none"/>
<path d="M 205 179 L 203 181 L 203 188 L 205 190 L 210 190 L 212 188 L 212 181 L 210 179 " stroke="black" stroke-width="1" fill="none"/>
<path d="M 206 179 L 209 179 L 212 182 L 212 187 L 209 190 L 206 190 L 203 187 L 203 182 " stroke="black" stroke-width="1" fill="none"/>
<path d="M 206 182 L 206 187 L 209 187 L 209 182 " stroke="black" stroke-width="1" fill="none"/>
<path d="M 207 182 L 208 182 L 209 183 L 209 186 L 208 187 L 207 187 L 206 186 L 206 183 " stroke="black" stroke-width="1" fill="none"/>
<path d="M 120 179 L 119 180 L 118 180 L 117 181 L 117 182 L 118 183 L 118 190 L 117 191 L 117 202 L 116 203 L 116 206 L 115 207 L 116 208 L 115 209 L 122 209 L 121 208 L 121 199 L 120 198 " stroke="black" stroke-width="1" fill="none"/>
<path d="M 115 207 L 116 206 L 120 206 L 121 207 L 121 208 L 120 209 L 117 209 " stroke="black" stroke-width="1" fill="none"/>
<path d="M 119 183 L 120 184 L 120 198 L 119 199 L 120 199 L 121 200 L 121 205 L 120 206 L 117 206 L 116 205 L 116 204 L 117 203 L 118 203 L 119 204 L 117 202 L 118 201 L 117 200 L 117 192 L 118 191 L 118 184 " stroke="black" stroke-width="1" fill="none"/>
<path d="M 117 181 L 118 180 L 119 180 L 120 181 L 120 182 L 119 183 L 118 183 L 117 182 " stroke="black" stroke-width="1" fill="none"/>
<path d="M 258 152 L 256 154 L 256 161 L 258 163 L 263 163 L 265 161 L 265 154 L 263 152 " stroke="black" stroke-width="1" fill="none"/>
<path d="M 259 152 L 262 152 L 265 155 L 265 160 L 262 163 L 259 163 L 256 160 L 256 155 " stroke="black" stroke-width="1" fill="none"/>
<path d="M 259 155 L 259 160 L 262 160 L 262 155 " stroke="black" stroke-width="1" fill="none"/>
<path d="M 260 155 L 261 155 L 262 156 L 262 159 L 261 160 L 260 160 L 259 159 L 259 156 " stroke="black" stroke-width="1" fill="none"/>
<path d="M 59 141 L 59 177 L 88 194 L 117 177 L 146 193 L 174 178 L 176 194 L 181 193 L 179 175 L 200 184 L 178 173 L 178 144 L 205 134 L 226 159 L 213 177 L 228 162 L 253 162 L 253 156 L 228 156 L 211 134 L 221 103 L 218 99 L 206 129 L 180 140 L 206 130 L 219 100 L 212 132 L 215 108 L 208 131 L 226 158 L 208 134 L 178 141 L 178 114 L 183 118 L 183 107 L 175 108 L 174 139 L 150 125 L 120 140 L 91 123 L 91 90 L 89 123 " stroke="black" stroke-width="1" fill="none"/>
<path d="M 177 184 L 178 184 L 179 185 L 179 186 L 180 187 L 180 189 L 181 190 L 181 192 L 179 194 L 177 194 L 176 193 L 176 192 L 175 191 L 175 186 " stroke="black" stroke-width="1" fill="none"/>
<path d="M 121 177 L 122 176 L 123 176 L 124 177 L 127 178 L 129 180 L 132 181 L 134 183 L 137 184 L 139 186 L 144 188 L 146 190 L 150 190 L 152 188 L 157 186 L 159 184 L 162 183 L 164 181 L 167 180 L 169 178 L 170 178 L 173 176 L 174 176 L 175 177 L 170 181 L 165 183 L 163 185 L 160 186 L 158 188 L 153 190 L 149 193 L 147 193 L 146 192 L 145 192 L 143 190 L 138 188 L 136 186 L 133 185 L 131 183 L 126 181 " stroke="black" stroke-width="1" fill="none"/>
<path d="M 176 174 L 178 174 L 179 175 L 178 176 L 178 183 L 177 184 L 175 182 L 175 177 L 174 176 " stroke="black" stroke-width="1" fill="none"/>
<path d="M 117 175 L 118 174 L 120 174 L 121 175 L 119 177 " stroke="black" stroke-width="1" fill="none"/>
<path d="M 226 160 L 228 162 L 227 163 L 226 163 L 226 164 L 222 168 L 222 169 L 219 172 L 219 173 L 215 177 L 214 177 L 213 176 L 216 173 L 216 172 L 220 168 L 220 167 L 224 163 L 224 162 " stroke="black" stroke-width="1" fill="none"/>
<path d="M 229 159 L 230 158 L 251 158 L 252 159 L 251 160 L 230 160 " stroke="black" stroke-width="1" fill="none"/>
<path d="M 226 158 L 228 156 L 251 156 L 252 157 L 251 158 L 229 158 L 229 160 L 251 160 L 252 161 L 251 162 L 228 162 L 226 160 " stroke="black" stroke-width="1" fill="none"/>
<path d="M 177 143 L 178 144 L 178 173 L 177 174 L 176 173 L 176 144 " stroke="black" stroke-width="1" fill="none"/>
<path d="M 119 143 L 120 144 L 120 173 L 119 174 L 118 173 L 118 144 " stroke="black" stroke-width="1" fill="none"/>
<path d="M 176 131 L 177 131 L 178 132 L 178 141 L 179 142 L 178 143 L 176 143 L 174 141 L 175 140 L 175 132 " stroke="black" stroke-width="1" fill="none"/>
<path d="M 147 128 L 149 128 L 151 130 L 167 138 L 169 140 L 173 141 L 176 144 L 176 173 L 173 176 L 163 181 L 161 183 L 151 188 L 149 190 L 147 190 L 145 188 L 140 186 L 133 181 L 128 179 L 126 177 L 123 176 L 120 173 L 120 144 L 122 142 L 138 134 " stroke="black" stroke-width="1" fill="none"/>
<path d="M 209 127 L 210 128 L 210 130 L 209 131 L 208 130 L 208 128 " stroke="black" stroke-width="1" fill="none"/>
<path d="M 89 127 L 91 127 L 92 128 L 91 129 L 92 130 L 91 132 L 100 138 L 105 140 L 111 144 L 114 144 L 116 142 L 118 144 L 118 173 L 115 176 L 112 177 L 90 191 L 69 180 L 61 174 L 61 144 L 64 141 " stroke="black" stroke-width="1" fill="none"/>
<path d="M 210 124 L 211 125 L 211 127 L 210 128 L 209 127 L 209 125 " stroke="black" stroke-width="1" fill="none"/>
<path d="M 59 176 L 59 142 L 89 123 L 118 140 L 147 125 L 175 140 L 172 141 L 150 128 L 146 128 L 120 144 L 114 140 L 116 142 L 112 144 L 93 133 L 91 129 L 93 128 L 104 134 L 88 127 L 62 142 L 62 176 L 88 191 L 115 176 L 117 177 L 89 194 " stroke="black" stroke-width="1" fill="none"/>
<path d="M 211 121 L 212 122 L 212 124 L 211 125 L 210 124 L 210 122 " stroke="black" stroke-width="1" fill="none"/>
<path d="M 214 112 L 215 113 L 215 115 L 214 116 L 214 118 L 213 119 L 213 121 L 212 122 L 211 121 L 211 118 L 212 117 L 212 115 L 213 114 L 213 113 " stroke="black" stroke-width="1" fill="none"/>
<path d="M 182 108 L 183 109 L 183 116 L 182 117 L 181 116 L 181 115 L 180 114 L 180 111 L 181 110 L 181 109 " stroke="black" stroke-width="1" fill="none"/>
<path d="M 176 108 L 177 108 L 178 109 L 178 119 L 179 119 L 181 121 L 181 124 L 180 125 L 180 127 L 179 128 L 179 130 L 178 131 L 177 131 L 176 130 L 176 129 L 175 128 L 175 122 L 176 121 L 176 119 L 175 118 L 175 109 " stroke="black" stroke-width="1" fill="none"/>
<path d="M 90 90 L 91 91 L 91 123 L 90 124 L 89 123 L 89 91 " stroke="black" stroke-width="1" fill="none"/>
</svg>