<svg xmlns="http://www.w3.org/2000/svg" width="300" height="300" viewBox="0 0 300 300">
<path d="M 243 204 L 243 211 L 244 211 L 245 212 L 249 212 L 251 210 L 251 205 L 249 203 L 245 203 L 244 204 " stroke="black" stroke-width="1" fill="none"/>
<path d="M 245 203 L 248 203 L 251 206 L 251 209 L 248 212 L 245 212 L 243 210 L 243 205 " stroke="black" stroke-width="1" fill="none"/>
<path d="M 246 206 L 245 207 L 245 208 L 246 209 L 248 209 L 248 206 " stroke="black" stroke-width="1" fill="none"/>
<path d="M 245 207 L 246 206 L 247 206 L 248 207 L 248 208 L 247 209 L 246 209 L 245 208 " stroke="black" stroke-width="1" fill="none"/>
<path d="M 269 193 L 267 193 L 266 194 L 265 194 L 263 196 L 262 196 L 261 197 L 260 197 L 258 199 L 257 199 L 256 200 L 255 200 L 253 202 L 254 203 L 254 204 L 256 204 L 258 202 L 259 202 L 260 201 L 261 201 L 263 199 L 264 199 L 265 198 L 266 198 L 268 196 L 269 196 L 270 195 L 269 194 " stroke="black" stroke-width="1" fill="none"/>
<path d="M 269 194 L 269 195 L 268 196 L 267 196 L 265 198 L 264 198 L 263 199 L 262 199 L 260 201 L 259 201 L 257 203 L 256 203 L 255 204 L 254 203 L 254 202 L 256 200 L 257 200 L 258 199 L 259 199 L 261 197 L 262 197 L 263 196 L 264 196 L 266 194 L 267 194 L 268 193 " stroke="black" stroke-width="1" fill="none"/>
<path d="M 124 163 L 124 170 L 125 170 L 126 171 L 130 171 L 132 169 L 132 164 L 130 162 L 126 162 L 125 163 " stroke="black" stroke-width="1" fill="none"/>
<path d="M 126 162 L 129 162 L 132 165 L 132 168 L 129 171 L 126 171 L 124 169 L 124 164 " stroke="black" stroke-width="1" fill="none"/>
<path d="M 127 165 L 126 166 L 126 167 L 127 168 L 129 168 L 129 165 " stroke="black" stroke-width="1" fill="none"/>
<path d="M 126 166 L 127 165 L 128 165 L 129 166 L 129 167 L 128 168 L 127 168 L 126 167 " stroke="black" stroke-width="1" fill="none"/>
<path d="M 28 163 L 28 170 L 29 170 L 30 171 L 34 171 L 36 169 L 36 164 L 34 162 L 30 162 L 29 163 " stroke="black" stroke-width="1" fill="none"/>
<path d="M 30 162 L 33 162 L 36 165 L 36 168 L 33 171 L 30 171 L 28 169 L 28 164 " stroke="black" stroke-width="1" fill="none"/>
<path d="M 31 165 L 30 166 L 30 167 L 31 168 L 33 168 L 33 165 " stroke="black" stroke-width="1" fill="none"/>
<path d="M 30 166 L 31 165 L 32 165 L 33 166 L 33 167 L 32 168 L 31 168 L 30 167 " stroke="black" stroke-width="1" fill="none"/>
<path d="M 12 154 L 12 163 L 13 162 L 14 163 L 14 161 L 15 160 L 16 160 L 17 161 L 17 162 L 19 162 L 19 155 L 17 155 L 16 156 L 15 156 L 14 155 L 14 154 L 13 155 " stroke="black" stroke-width="1" fill="none"/>
<path d="M 12 156 L 13 155 L 14 156 L 17 156 L 18 155 L 19 156 L 19 161 L 18 162 L 17 161 L 17 160 L 16 159 L 16 158 L 16 159 L 15 160 L 14 160 L 14 161 L 13 162 L 12 161 " stroke="black" stroke-width="1" fill="none"/>
<path d="M 147 129 L 146 129 L 146 150 L 147 149 L 148 149 L 148 130 " stroke="black" stroke-width="1" fill="none"/>
<path d="M 147 129 L 148 130 L 148 148 L 147 149 L 146 148 L 146 130 " stroke="black" stroke-width="1" fill="none"/>
<path d="M 38 162 L 55 156 L 81 169 L 104 155 L 120 164 L 105 151 L 105 128 L 128 114 L 150 128 L 150 151 L 135 163 L 152 155 L 172 167 L 176 197 L 196 209 L 221 196 L 237 205 L 240 203 L 223 192 L 223 166 L 196 152 L 174 165 L 152 151 L 152 125 L 130 111 L 130 80 L 124 81 L 124 88 L 130 90 L 128 110 L 124 90 L 124 111 L 104 124 L 80 109 L 80 90 L 77 89 L 84 86 L 84 81 L 76 80 L 78 109 L 53 124 L 53 152 " stroke="black" stroke-width="1" fill="none"/>
<path d="M 135 161 L 152 151 L 176 165 L 199 152 L 223 167 L 222 193 L 221 169 L 218 166 L 221 169 L 221 192 L 218 195 L 223 192 L 239 204 L 220 196 L 197 209 L 174 194 L 175 168 L 177 194 L 196 206 L 208 201 L 200 202 L 216 192 L 200 200 L 202 204 L 199 206 L 176 192 L 176 169 L 197 155 L 202 157 L 200 161 L 216 169 L 201 161 L 201 158 L 208 162 L 200 155 L 174 169 L 153 155 L 136 163 " stroke="black" stroke-width="1" fill="none"/>
<path d="M 179 170 L 178 171 L 178 190 L 179 190 L 180 191 L 180 170 " stroke="black" stroke-width="1" fill="none"/>
<path d="M 179 170 L 180 171 L 180 189 L 179 190 L 178 189 L 178 171 " stroke="black" stroke-width="1" fill="none"/>
<path d="M 104 127 L 105 128 L 105 151 L 104 152 L 103 151 L 103 128 " stroke="black" stroke-width="1" fill="none"/>
<path d="M 152 126 L 151 152 L 149 126 L 129 114 L 105 128 L 100 125 L 97 128 L 81 116 L 92 126 L 103 128 L 103 151 L 92 153 L 81 163 L 97 151 L 100 154 L 105 151 L 120 163 L 105 155 L 80 169 L 56 156 L 39 163 L 55 152 L 77 166 L 82 165 L 78 166 L 55 152 L 55 127 L 78 113 L 83 115 L 77 113 L 56 125 L 54 153 L 53 125 L 78 109 L 105 124 L 124 112 L 125 91 L 126 111 L 129 91 L 130 112 " stroke="black" stroke-width="1" fill="none"/>
<path d="M 58 129 L 57 130 L 57 149 L 58 149 L 59 150 L 59 129 " stroke="black" stroke-width="1" fill="none"/>
<path d="M 58 129 L 59 130 L 59 148 L 58 149 L 57 148 L 57 130 " stroke="black" stroke-width="1" fill="none"/>
<path d="M 79 90 L 80 91 L 80 109 L 79 110 L 78 109 L 78 91 " stroke="black" stroke-width="1" fill="none"/>
<path d="M 126 80 L 129 80 L 132 83 L 132 86 L 129 89 L 127 89 L 126 88 L 125 88 L 124 87 L 124 82 " stroke="black" stroke-width="1" fill="none"/>
<path d="M 127 83 L 126 84 L 126 85 L 127 86 L 129 86 L 129 83 " stroke="black" stroke-width="1" fill="none"/>
<path d="M 126 84 L 127 83 L 128 83 L 129 84 L 129 85 L 128 86 L 127 86 L 126 85 " stroke="black" stroke-width="1" fill="none"/>
<path d="M 78 79 L 81 79 L 84 82 L 84 85 L 81 88 L 78 88 L 76 86 L 76 81 " stroke="black" stroke-width="1" fill="none"/>
<path d="M 79 82 L 78 83 L 78 84 L 79 85 L 81 85 L 81 82 " stroke="black" stroke-width="1" fill="none"/>
<path d="M 78 83 L 79 82 L 80 82 L 81 83 L 81 84 L 80 85 L 79 85 L 78 84 " stroke="black" stroke-width="1" fill="none"/>
<path d="M 61 70 L 61 79 L 62 78 L 63 79 L 63 77 L 64 76 L 65 76 L 66 77 L 66 78 L 68 78 L 68 71 L 66 71 L 65 72 L 64 72 L 63 71 L 63 70 L 62 71 " stroke="black" stroke-width="1" fill="none"/>
<path d="M 61 72 L 62 71 L 63 72 L 66 72 L 67 71 L 68 72 L 68 77 L 67 78 L 66 77 L 66 76 L 65 75 L 65 74 L 65 75 L 64 76 L 63 76 L 63 77 L 62 78 L 61 77 " stroke="black" stroke-width="1" fill="none"/>
</svg>