<svg xmlns="http://www.w3.org/2000/svg" width="300" height="300" viewBox="0 0 300 300">
<path d="M 81 277 L 81 286 L 82 285 L 83 286 L 83 284 L 84 283 L 85 283 L 86 284 L 86 285 L 88 285 L 88 278 L 86 278 L 85 279 L 84 279 L 83 278 L 83 277 L 82 278 " stroke="black" stroke-width="1" fill="none"/>
<path d="M 81 279 L 82 278 L 83 279 L 86 279 L 87 278 L 88 279 L 88 284 L 87 285 L 86 284 L 86 283 L 85 282 L 85 281 L 85 282 L 84 283 L 83 283 L 83 284 L 82 285 L 81 284 " stroke="black" stroke-width="1" fill="none"/>
<path d="M 99 272 L 98 273 L 98 274 L 99 275 L 101 275 L 101 272 " stroke="black" stroke-width="1" fill="none"/>
<path d="M 98 273 L 99 272 L 100 272 L 101 273 L 101 274 L 100 275 L 99 275 L 98 274 " stroke="black" stroke-width="1" fill="none"/>
<path d="M 104 271 L 102 269 L 102 270 L 104 272 L 104 275 L 101 278 L 98 278 L 96 276 L 96 272 L 98 270 L 97 270 L 96 271 L 96 277 L 97 277 L 98 278 L 102 278 L 104 276 " stroke="black" stroke-width="1" fill="none"/>
<path d="M 141 259 L 141 268 L 142 267 L 143 268 L 143 266 L 144 265 L 145 265 L 146 266 L 146 267 L 148 267 L 148 260 L 146 260 L 145 261 L 144 261 L 143 260 L 142 260 " stroke="black" stroke-width="1" fill="none"/>
<path d="M 141 261 L 142 260 L 143 261 L 146 261 L 147 260 L 148 261 L 148 266 L 147 267 L 146 266 L 146 265 L 145 264 L 145 263 L 145 264 L 144 265 L 143 265 L 143 266 L 142 267 L 141 266 " stroke="black" stroke-width="1" fill="none"/>
<path d="M 49 259 L 49 268 L 50 267 L 51 268 L 51 266 L 52 265 L 53 265 L 54 266 L 54 267 L 56 267 L 56 260 L 54 260 L 53 261 L 52 261 L 51 260 L 50 260 " stroke="black" stroke-width="1" fill="none"/>
<path d="M 49 261 L 50 260 L 51 261 L 54 261 L 55 260 L 56 261 L 56 266 L 55 267 L 54 266 L 54 265 L 53 264 L 53 263 L 53 264 L 52 265 L 51 265 L 51 266 L 50 267 L 49 266 " stroke="black" stroke-width="1" fill="none"/>
<path d="M 148 243 L 144 243 L 143 244 L 142 244 L 142 251 L 144 253 L 144 257 L 146 257 L 146 254 L 145 254 L 144 253 L 145 252 L 148 252 L 150 250 L 150 245 " stroke="black" stroke-width="1" fill="none"/>
<path d="M 144 243 L 147 243 L 150 246 L 150 249 L 147 252 L 144 252 L 142 250 L 142 245 " stroke="black" stroke-width="1" fill="none"/>
<path d="M 145 246 L 144 247 L 144 248 L 145 249 L 147 249 L 147 246 " stroke="black" stroke-width="1" fill="none"/>
<path d="M 144 247 L 145 246 L 146 246 L 147 247 L 147 248 L 146 249 L 145 249 L 144 248 " stroke="black" stroke-width="1" fill="none"/>
<path d="M 56 243 L 52 243 L 51 244 L 50 244 L 50 251 L 52 253 L 52 257 L 54 257 L 54 254 L 53 254 L 52 253 L 53 252 L 56 252 L 58 250 L 58 245 " stroke="black" stroke-width="1" fill="none"/>
<path d="M 52 243 L 55 243 L 58 246 L 58 249 L 55 252 L 52 252 L 50 250 L 50 245 " stroke="black" stroke-width="1" fill="none"/>
<path d="M 53 246 L 52 247 L 52 248 L 53 249 L 55 249 L 55 246 " stroke="black" stroke-width="1" fill="none"/>
<path d="M 52 247 L 53 246 L 54 246 L 55 247 L 55 248 L 54 249 L 53 249 L 52 248 " stroke="black" stroke-width="1" fill="none"/>
<path d="M 27 204 L 27 211 L 28 211 L 29 212 L 33 212 L 35 210 L 35 205 L 33 203 L 29 203 L 28 204 " stroke="black" stroke-width="1" fill="none"/>
<path d="M 29 203 L 32 203 L 35 206 L 35 209 L 32 212 L 29 212 L 27 210 L 27 205 " stroke="black" stroke-width="1" fill="none"/>
<path d="M 30 206 L 29 207 L 29 208 L 30 209 L 32 209 L 32 206 " stroke="black" stroke-width="1" fill="none"/>
<path d="M 29 207 L 30 206 L 31 206 L 32 207 L 32 208 L 31 209 L 30 209 L 29 208 " stroke="black" stroke-width="1" fill="none"/>
<path d="M 12 195 L 12 204 L 13 203 L 14 204 L 14 202 L 15 201 L 16 201 L 17 202 L 17 203 L 19 203 L 19 196 L 17 196 L 16 197 L 15 197 L 14 196 L 14 195 L 13 196 " stroke="black" stroke-width="1" fill="none"/>
<path d="M 12 197 L 13 196 L 14 197 L 17 197 L 18 196 L 19 197 L 19 202 L 18 203 L 17 202 L 17 201 L 16 200 L 16 199 L 16 200 L 15 201 L 14 201 L 14 202 L 13 203 L 12 202 " stroke="black" stroke-width="1" fill="none"/>
<path d="M 37 202 L 44 202 L 50 198 L 38 203 L 51 195 L 75 209 L 75 232 L 61 239 L 63 246 L 77 236 L 97 249 L 96 267 L 101 267 L 100 250 L 122 235 L 135 245 L 139 244 L 138 240 L 123 232 L 123 209 L 138 201 L 137 196 L 121 206 L 107 198 L 107 201 L 121 210 L 121 232 L 97 248 L 78 236 L 68 241 L 65 239 L 75 233 L 76 209 L 78 234 L 97 245 L 77 232 L 77 210 L 92 201 L 92 198 L 77 206 L 53 192 " stroke="black" stroke-width="1" fill="none"/>
<path d="M 99 246 L 101 248 L 101 249 L 100 250 L 100 252 L 101 253 L 101 254 L 100 255 L 100 258 L 101 259 L 101 266 L 100 267 L 97 267 L 96 266 L 96 259 L 97 258 L 97 248 " stroke="black" stroke-width="1" fill="none"/>
<path d="M 64 238 L 65 239 L 65 240 L 66 240 L 67 241 L 65 243 L 64 243 L 63 244 L 60 241 L 62 239 L 63 239 " stroke="black" stroke-width="1" fill="none"/>
<path d="M 126 236 L 127 235 L 128 236 L 129 236 L 131 238 L 132 238 L 133 239 L 134 239 L 135 240 L 136 239 L 139 242 L 139 243 L 137 245 L 136 245 L 133 242 L 132 242 L 129 239 L 128 239 L 126 237 " stroke="black" stroke-width="1" fill="none"/>
<path d="M 122 209 L 123 210 L 123 232 L 124 233 L 124 234 L 126 234 L 127 235 L 125 237 L 122 235 L 117 239 L 114 240 L 112 242 L 109 243 L 107 245 L 106 245 L 105 246 L 104 246 L 102 248 L 101 248 L 100 247 L 100 246 L 101 245 L 102 245 L 103 244 L 106 243 L 108 241 L 111 240 L 113 238 L 114 238 L 116 236 L 117 236 L 120 234 L 120 233 L 121 232 L 121 210 " stroke="black" stroke-width="1" fill="none"/>
<path d="M 107 199 L 108 198 L 109 199 L 110 199 L 111 200 L 112 200 L 114 202 L 115 202 L 116 203 L 117 203 L 119 205 L 120 205 L 121 206 L 121 207 L 120 208 L 119 207 L 118 207 L 117 206 L 116 206 L 114 204 L 113 204 L 111 202 L 110 202 L 109 201 L 108 201 L 107 200 " stroke="black" stroke-width="1" fill="none"/>
<path d="M 92 199 L 92 200 L 91 201 L 90 201 L 89 202 L 88 202 L 87 203 L 86 203 L 84 205 L 83 205 L 82 206 L 81 206 L 79 208 L 78 208 L 77 207 L 77 206 L 78 205 L 79 205 L 80 204 L 81 204 L 82 203 L 83 203 L 85 201 L 86 201 L 87 200 L 88 200 L 89 199 L 90 199 L 91 198 " stroke="black" stroke-width="1" fill="none"/>
<path d="M 139 199 L 137 201 L 136 201 L 135 202 L 134 202 L 133 203 L 130 203 L 128 205 L 127 205 L 125 207 L 124 207 L 122 209 L 121 209 L 120 208 L 124 204 L 125 204 L 128 201 L 129 201 L 131 199 L 132 199 L 135 196 L 136 196 " stroke="black" stroke-width="1" fill="none"/>
<path d="M 51 195 L 54 192 L 55 192 L 58 195 L 59 195 L 61 197 L 62 197 L 64 199 L 65 199 L 66 200 L 67 200 L 69 202 L 70 202 L 71 203 L 72 203 L 74 205 L 75 205 L 78 208 L 77 209 L 76 209 L 74 207 L 73 207 L 72 206 L 71 206 L 70 205 L 69 205 L 68 204 L 67 204 L 66 203 L 65 203 L 64 202 L 63 202 L 62 201 L 61 201 L 60 200 L 59 200 L 58 199 L 57 199 L 56 198 L 54 198 " stroke="black" stroke-width="1" fill="none"/>
<path d="M 96 191 L 96 198 L 97 198 L 98 199 L 102 199 L 104 197 L 104 192 L 102 190 L 98 190 L 97 191 " stroke="black" stroke-width="1" fill="none"/>
<path d="M 98 190 L 101 190 L 104 193 L 104 196 L 101 199 L 98 199 L 96 197 L 96 192 " stroke="black" stroke-width="1" fill="none"/>
<path d="M 99 193 L 98 194 L 98 195 L 99 196 L 101 196 L 101 193 " stroke="black" stroke-width="1" fill="none"/>
<path d="M 98 194 L 99 193 L 100 193 L 101 194 L 101 195 L 100 196 L 99 196 L 98 195 " stroke="black" stroke-width="1" fill="none"/>
<path d="M 80 116 L 80 125 L 81 124 L 82 125 L 82 123 L 83 122 L 84 122 L 85 123 L 85 124 L 87 124 L 87 117 L 85 117 L 84 118 L 83 118 L 82 117 L 82 116 L 81 117 " stroke="black" stroke-width="1" fill="none"/>
<path d="M 80 118 L 81 117 L 82 118 L 85 118 L 86 117 L 87 118 L 87 123 L 86 124 L 85 123 L 85 122 L 84 121 L 84 120 L 84 121 L 83 122 L 82 122 L 82 123 L 81 124 L 80 123 " stroke="black" stroke-width="1" fill="none"/>
<path d="M 96 109 L 96 116 L 97 116 L 98 117 L 102 117 L 104 115 L 104 110 L 102 108 L 98 108 L 97 109 " stroke="black" stroke-width="1" fill="none"/>
<path d="M 98 108 L 101 108 L 104 111 L 104 114 L 101 117 L 98 117 L 96 115 L 96 110 " stroke="black" stroke-width="1" fill="none"/>
<path d="M 99 111 L 98 112 L 98 113 L 99 114 L 101 114 L 101 111 " stroke="black" stroke-width="1" fill="none"/>
<path d="M 98 112 L 99 111 L 100 111 L 101 112 L 101 113 L 100 114 L 99 114 L 98 113 " stroke="black" stroke-width="1" fill="none"/>
<path d="M 170 78 L 170 79 L 169 80 L 171 82 L 172 82 L 173 83 L 174 83 L 176 85 L 177 85 L 178 86 L 179 86 L 180 87 L 181 87 L 182 88 L 184 88 L 185 89 L 186 89 L 185 89 L 184 88 L 183 88 L 182 87 L 181 87 L 180 86 L 179 86 L 178 85 L 177 85 L 175 83 L 174 83 L 173 82 L 172 82 L 170 80 " stroke="black" stroke-width="1" fill="none"/>
<path d="M 256 71 L 253 71 L 251 73 L 250 73 L 249 74 L 248 74 L 246 76 L 245 76 L 243 78 L 242 78 L 241 79 L 240 79 L 238 81 L 239 82 L 239 83 L 239 81 L 241 79 L 242 79 L 243 78 L 244 78 L 246 76 L 247 76 L 249 74 L 250 74 L 251 73 L 252 73 L 254 71 " stroke="black" stroke-width="1" fill="none"/>
<path d="M 120 69 L 120 76 L 121 76 L 122 77 L 126 77 L 128 75 L 128 70 L 126 68 L 122 68 L 121 69 " stroke="black" stroke-width="1" fill="none"/>
<path d="M 122 68 L 125 68 L 128 71 L 128 74 L 125 77 L 122 77 L 120 75 L 120 70 " stroke="black" stroke-width="1" fill="none"/>
<path d="M 123 71 L 122 72 L 122 73 L 123 74 L 125 74 L 125 71 " stroke="black" stroke-width="1" fill="none"/>
<path d="M 122 72 L 123 71 L 124 71 L 125 72 L 125 73 L 124 74 L 123 74 L 122 73 " stroke="black" stroke-width="1" fill="none"/>
<path d="M 219 50 L 218 51 L 218 70 L 219 70 L 220 71 L 220 50 " stroke="black" stroke-width="1" fill="none"/>
<path d="M 219 50 L 220 51 L 220 69 L 219 70 L 218 69 L 218 51 " stroke="black" stroke-width="1" fill="none"/>
<path d="M 239 38 L 239 39 L 238 40 L 240 42 L 241 42 L 242 43 L 243 43 L 245 45 L 246 45 L 248 47 L 249 47 L 250 48 L 251 48 L 253 50 L 256 50 L 254 50 L 252 48 L 251 48 L 250 47 L 249 47 L 247 45 L 246 45 L 244 43 L 243 43 L 242 42 L 241 42 L 239 40 " stroke="black" stroke-width="1" fill="none"/>
<path d="M 277 37 L 260 45 L 234 34 L 214 46 L 214 72 L 192 85 L 171 73 L 148 84 L 131 75 L 128 80 L 145 90 L 145 111 L 123 125 L 106 119 L 121 129 L 120 155 L 144 170 L 142 198 L 150 197 L 143 189 L 146 170 L 170 155 L 170 129 L 186 118 L 168 125 L 147 111 L 147 89 L 171 76 L 147 88 L 146 112 L 143 88 L 168 73 L 193 85 L 216 72 L 239 85 L 216 72 L 216 49 L 239 36 L 217 47 L 215 73 L 214 47 L 237 33 L 260 45 L 277 38 L 262 49 L 249 42 L 260 49 L 260 72 L 249 79 L 260 72 L 261 48 L 262 74 L 239 88 L 217 76 L 193 89 L 187 85 L 189 116 L 195 117 L 197 110 L 190 107 L 196 86 L 216 76 L 240 88 L 261 76 L 262 49 " stroke="black" stroke-width="1" fill="none"/>
<path d="M 144 190 L 147 190 L 150 193 L 150 196 L 147 199 L 144 199 L 142 197 L 142 192 " stroke="black" stroke-width="1" fill="none"/>
<path d="M 145 193 L 144 194 L 144 195 L 145 196 L 147 196 L 147 193 " stroke="black" stroke-width="1" fill="none"/>
<path d="M 144 194 L 145 193 L 146 193 L 147 194 L 147 195 L 146 196 L 145 196 L 144 195 " stroke="black" stroke-width="1" fill="none"/>
<path d="M 145 169 L 146 170 L 146 187 L 145 188 L 144 187 L 144 170 " stroke="black" stroke-width="1" fill="none"/>
<path d="M 184 116 L 184 119 L 170 129 L 147 115 L 136 120 L 136 122 L 144 119 L 132 127 L 123 128 L 122 152 L 125 155 L 122 152 L 123 129 L 125 127 L 129 129 L 144 121 L 143 116 L 150 117 L 168 129 L 168 152 L 144 166 L 167 154 L 168 129 L 170 129 L 170 154 L 146 170 L 120 154 L 121 129 L 107 119 L 108 117 L 120 125 L 124 125 L 147 111 L 170 125 " stroke="black" stroke-width="1" fill="none"/>
<path d="M 127 152 L 128 152 L 130 154 L 131 154 L 132 155 L 133 155 L 135 157 L 136 157 L 137 158 L 138 158 L 139 159 L 140 159 L 142 161 L 143 161 L 144 162 L 144 164 L 144 163 L 145 162 L 144 161 L 143 161 L 141 159 L 140 159 L 139 158 L 138 158 L 137 157 L 136 157 L 134 155 L 133 155 L 132 154 L 131 154 L 129 152 " stroke="black" stroke-width="1" fill="none"/>
<path d="M 165 130 L 164 130 L 164 151 L 165 150 L 166 150 L 166 131 " stroke="black" stroke-width="1" fill="none"/>
<path d="M 165 130 L 166 131 L 166 149 L 165 150 L 164 149 L 164 131 " stroke="black" stroke-width="1" fill="none"/>
<path d="M 191 108 L 194 108 L 197 111 L 197 114 L 194 117 L 191 117 L 189 115 L 189 110 " stroke="black" stroke-width="1" fill="none"/>
<path d="M 192 111 L 191 112 L 191 113 L 192 114 L 194 114 L 194 111 " stroke="black" stroke-width="1" fill="none"/>
<path d="M 191 112 L 192 111 L 193 111 L 194 112 L 194 113 L 193 114 L 192 114 L 191 113 " stroke="black" stroke-width="1" fill="none"/>
<path d="M 192 88 L 193 89 L 193 105 L 192 106 L 191 105 L 191 89 " stroke="black" stroke-width="1" fill="none"/>
<path d="M 132 82 L 133 81 L 134 81 L 135 82 L 136 82 L 137 83 L 138 83 L 139 84 L 140 84 L 141 85 L 142 85 L 144 87 L 143 88 L 142 88 L 141 87 L 140 87 L 139 86 L 138 86 L 137 85 L 136 85 L 135 84 L 134 84 " stroke="black" stroke-width="1" fill="none"/>
<path d="M 129 79 L 131 77 L 132 78 L 133 78 L 134 79 L 135 79 L 136 80 L 135 79 L 134 79 L 133 78 L 132 78 L 131 77 L 131 76 L 132 75 L 133 76 L 134 76 L 135 77 L 136 77 L 137 78 L 138 78 L 140 80 L 141 80 L 142 81 L 143 81 L 145 83 L 146 83 L 147 84 L 146 85 L 145 85 L 145 86 L 144 87 L 142 85 L 143 84 L 142 85 L 141 85 L 140 84 L 139 84 L 138 83 L 137 83 L 136 82 L 135 82 L 134 81 L 133 81 L 132 80 L 133 81 L 132 82 L 131 82 L 129 80 " stroke="black" stroke-width="1" fill="none"/>
<path d="M 283 24 L 283 29 L 282 30 L 281 30 L 281 37 L 282 37 L 283 38 L 287 38 L 289 36 L 289 31 L 287 29 L 284 29 L 283 28 L 284 27 L 285 27 L 285 24 " stroke="black" stroke-width="1" fill="none"/>
<path d="M 283 29 L 286 29 L 289 32 L 289 35 L 286 38 L 283 38 L 281 36 L 281 31 " stroke="black" stroke-width="1" fill="none"/>
<path d="M 284 32 L 283 33 L 283 34 L 284 35 L 286 35 L 286 32 " stroke="black" stroke-width="1" fill="none"/>
<path d="M 283 33 L 284 32 L 285 32 L 286 33 L 286 34 L 285 35 L 284 35 L 283 34 " stroke="black" stroke-width="1" fill="none"/>
<path d="M 280 13 L 280 22 L 281 21 L 282 21 L 282 20 L 283 19 L 284 19 L 285 20 L 285 21 L 287 21 L 287 14 L 285 14 L 284 15 L 283 15 L 282 14 L 282 13 L 281 14 " stroke="black" stroke-width="1" fill="none"/>
<path d="M 280 15 L 281 14 L 282 15 L 285 15 L 286 14 L 287 15 L 287 20 L 286 21 L 285 20 L 285 19 L 284 18 L 284 17 L 284 18 L 283 19 L 282 19 L 282 20 L 281 21 L 280 20 " stroke="black" stroke-width="1" fill="none"/>
</svg>