<svg xmlns="http://www.w3.org/2000/svg" width="300" height="300" viewBox="0 0 300 300">
<path d="M 226 216 L 226 225 L 227 224 L 228 225 L 228 223 L 229 222 L 230 222 L 231 223 L 231 224 L 233 224 L 233 217 L 231 217 L 230 218 L 229 218 L 228 217 L 228 216 L 227 217 " stroke="black" stroke-width="1" fill="none"/>
<path d="M 226 218 L 227 217 L 228 218 L 231 218 L 232 217 L 233 218 L 233 223 L 232 224 L 231 223 L 231 222 L 230 221 L 230 220 L 230 221 L 229 222 L 228 222 L 228 223 L 227 224 L 226 223 " stroke="black" stroke-width="1" fill="none"/>
<path d="M 239 190 L 239 193 L 238 194 L 238 198 L 239 199 L 239 202 L 240 203 L 240 206 L 240 203 L 241 202 L 242 203 L 242 206 L 242 203 L 241 202 L 241 199 L 240 198 L 240 195 L 240 198 L 239 199 L 238 198 L 238 194 L 239 193 " stroke="black" stroke-width="1" fill="none"/>
<path d="M 240 198 L 241 199 L 241 202 L 240 203 L 239 202 L 239 199 " stroke="black" stroke-width="1" fill="none"/>
<path d="M 218 176 L 218 178 L 234 184 L 239 210 L 236 214 L 239 210 L 235 195 L 234 183 L 221 179 L 219 177 L 220 176 L 235 181 L 239 180 L 242 176 L 244 178 L 238 184 L 236 184 L 240 184 L 245 208 L 265 215 L 268 218 L 266 219 L 245 211 L 241 211 L 238 215 L 242 211 L 245 211 L 269 219 L 268 216 L 249 210 L 245 207 L 239 183 L 244 178 L 242 176 L 237 181 L 223 176 " stroke="black" stroke-width="1" fill="none"/>
<path d="M 210 169 L 208 171 L 208 176 L 210 178 L 214 178 L 215 177 L 214 176 L 214 175 L 212 175 L 211 174 L 211 173 L 212 172 L 214 172 L 214 171 L 215 170 L 214 169 " stroke="black" stroke-width="1" fill="none"/>
<path d="M 210 169 L 213 169 L 214 170 L 214 171 L 213 172 L 211 172 L 211 175 L 213 175 L 214 176 L 214 177 L 213 178 L 210 178 L 208 176 L 208 172 L 209 171 L 209 170 " stroke="black" stroke-width="1" fill="none"/>
<path d="M 245 166 L 245 174 L 246 174 L 247 175 L 247 173 L 248 172 L 249 172 L 250 173 L 250 174 L 252 174 L 252 167 L 250 167 L 249 168 L 248 168 L 247 167 L 247 166 L 246 167 " stroke="black" stroke-width="1" fill="none"/>
<path d="M 245 168 L 246 167 L 247 168 L 250 168 L 251 167 L 252 168 L 252 173 L 251 174 L 250 173 L 250 172 L 249 171 L 249 170 L 249 171 L 248 172 L 247 172 L 247 173 L 246 174 L 245 173 " stroke="black" stroke-width="1" fill="none"/>
<path d="M 192 164 L 193 165 L 192 166 L 193 167 L 193 172 L 192 173 L 193 173 L 194 174 L 197 174 L 198 175 L 200 175 L 201 176 L 204 176 L 204 170 L 205 169 L 205 168 L 204 167 L 202 167 L 201 166 L 199 166 L 198 165 L 196 165 L 195 164 " stroke="black" stroke-width="1" fill="none"/>
<path d="M 193 165 L 194 164 L 195 164 L 196 165 L 198 165 L 199 166 L 201 166 L 202 167 L 203 167 L 205 169 L 204 170 L 204 175 L 203 176 L 201 176 L 200 175 L 198 175 L 197 174 L 195 174 L 193 172 L 193 169 L 194 168 L 193 167 " stroke="black" stroke-width="1" fill="none"/>
<path d="M 184 161 L 182 163 L 182 168 L 184 170 L 188 170 L 189 169 L 188 168 L 188 167 L 186 167 L 185 166 L 185 165 L 186 164 L 188 164 L 188 163 L 189 162 L 188 161 " stroke="black" stroke-width="1" fill="none"/>
<path d="M 184 161 L 187 161 L 188 162 L 188 163 L 187 164 L 185 164 L 185 167 L 187 167 L 188 168 L 188 169 L 187 170 L 184 170 L 182 168 L 182 164 L 183 163 L 183 162 " stroke="black" stroke-width="1" fill="none"/>
<path d="M 166 159 L 167 160 L 166 161 L 167 162 L 169 162 L 170 163 L 172 163 L 173 164 L 175 164 L 176 165 L 178 165 L 178 164 L 179 163 L 178 162 L 175 162 L 174 161 L 172 161 L 171 160 L 170 160 L 169 159 " stroke="black" stroke-width="1" fill="none"/>
<path d="M 167 160 L 168 159 L 169 159 L 170 160 L 171 160 L 172 161 L 174 161 L 175 162 L 177 162 L 178 163 L 178 164 L 177 165 L 176 165 L 175 164 L 173 164 L 172 163 L 170 163 L 169 162 L 168 162 L 167 161 " stroke="black" stroke-width="1" fill="none"/>
<path d="M 158 153 L 156 155 L 156 160 L 158 162 L 162 162 L 163 161 L 162 160 L 162 159 L 160 159 L 159 158 L 159 157 L 160 156 L 162 156 L 162 155 L 163 154 L 162 153 " stroke="black" stroke-width="1" fill="none"/>
<path d="M 158 153 L 161 153 L 162 154 L 162 155 L 161 156 L 159 156 L 159 159 L 161 159 L 162 160 L 162 161 L 161 162 L 158 162 L 156 160 L 156 156 L 157 155 L 157 154 " stroke="black" stroke-width="1" fill="none"/>
<path d="M 141 148 L 141 155 L 140 156 L 141 156 L 142 157 L 145 157 L 146 158 L 148 158 L 149 159 L 152 159 L 152 153 L 153 152 L 153 151 L 152 150 L 150 150 L 149 149 L 146 149 L 145 148 " stroke="black" stroke-width="1" fill="none"/>
<path d="M 141 149 L 142 148 L 145 148 L 146 149 L 149 149 L 150 150 L 151 150 L 153 152 L 152 153 L 152 158 L 151 159 L 149 159 L 148 158 L 146 158 L 145 157 L 143 157 L 141 155 " stroke="black" stroke-width="1" fill="none"/>
<path d="M 91 147 L 91 156 L 92 155 L 93 156 L 93 154 L 94 153 L 95 153 L 96 154 L 96 155 L 98 155 L 98 148 L 96 148 L 95 149 L 94 149 L 93 148 L 93 147 L 92 148 " stroke="black" stroke-width="1" fill="none"/>
<path d="M 91 149 L 92 148 L 93 149 L 96 149 L 97 148 L 98 149 L 98 154 L 97 155 L 96 154 L 96 153 L 95 152 L 95 151 L 95 152 L 94 153 L 93 153 L 93 154 L 92 155 L 91 154 " stroke="black" stroke-width="1" fill="none"/>
<path d="M 132 144 L 130 146 L 130 151 L 132 153 L 136 153 L 137 152 L 136 151 L 136 150 L 134 150 L 133 149 L 133 148 L 134 147 L 136 147 L 136 146 L 137 145 L 136 144 " stroke="black" stroke-width="1" fill="none"/>
<path d="M 132 144 L 135 144 L 136 145 L 136 146 L 135 147 L 133 147 L 133 150 L 135 150 L 136 151 L 136 152 L 135 153 L 132 153 L 130 151 L 130 147 L 131 146 L 131 145 " stroke="black" stroke-width="1" fill="none"/>
<path d="M 51 118 L 51 125 L 52 125 L 53 126 L 57 126 L 59 124 L 59 119 L 57 117 L 53 117 L 52 118 " stroke="black" stroke-width="1" fill="none"/>
<path d="M 53 117 L 56 117 L 59 120 L 59 123 L 56 126 L 53 126 L 51 124 L 51 119 " stroke="black" stroke-width="1" fill="none"/>
<path d="M 54 120 L 53 121 L 53 122 L 54 123 L 56 123 L 56 120 " stroke="black" stroke-width="1" fill="none"/>
<path d="M 53 121 L 54 120 L 55 120 L 56 121 L 56 122 L 55 123 L 54 123 L 53 122 " stroke="black" stroke-width="1" fill="none"/>
<path d="M 101 115 L 101 116 L 102 117 L 102 121 L 103 122 L 103 125 L 104 126 L 104 130 L 104 126 L 105 125 L 106 126 L 106 130 L 107 131 L 107 136 L 107 131 L 106 130 L 106 126 L 105 125 L 105 121 L 104 120 L 104 117 L 103 116 L 103 115 " stroke="black" stroke-width="1" fill="none"/>
<path d="M 103 116 L 104 117 L 104 120 L 105 121 L 105 125 L 104 126 L 103 125 L 103 122 L 102 121 L 102 117 " stroke="black" stroke-width="1" fill="none"/>
<path d="M 110 98 L 110 106 L 111 106 L 112 107 L 112 105 L 113 104 L 114 104 L 115 105 L 115 106 L 117 106 L 117 99 L 115 99 L 114 100 L 113 100 L 112 99 L 112 98 L 111 99 " stroke="black" stroke-width="1" fill="none"/>
<path d="M 110 100 L 111 99 L 112 100 L 115 100 L 116 99 L 117 100 L 117 105 L 116 106 L 115 105 L 115 104 L 114 103 L 114 102 L 114 103 L 113 104 L 112 104 L 112 105 L 111 106 L 110 105 " stroke="black" stroke-width="1" fill="none"/>
<path d="M 39 79 L 31 104 L 34 110 L 47 118 L 34 105 L 35 101 L 39 103 L 44 84 L 37 99 L 41 82 L 67 82 L 71 99 L 64 84 L 69 103 L 73 101 L 74 105 L 62 117 L 76 108 L 97 114 L 104 140 L 101 146 L 104 140 L 98 114 L 75 108 L 62 116 L 74 106 L 66 81 L 40 83 L 34 106 L 46 118 L 31 106 L 40 79 L 68 79 L 77 105 L 103 112 L 110 140 L 126 146 L 106 143 L 103 147 L 110 143 L 126 148 L 110 139 L 105 114 L 108 108 L 99 112 L 78 105 L 69 79 " stroke="black" stroke-width="1" fill="none"/>
<path d="M 107 108 L 108 109 L 108 110 L 106 112 L 106 113 L 105 114 L 103 112 " stroke="black" stroke-width="1" fill="none"/>
<path d="M 72 98 L 73 99 L 73 101 L 72 102 L 71 101 L 71 99 " stroke="black" stroke-width="1" fill="none"/>
<path d="M 36 98 L 37 99 L 37 101 L 36 102 L 35 101 L 35 99 " stroke="black" stroke-width="1" fill="none"/>
<path d="M 65 85 L 67 87 L 67 89 L 68 90 L 68 92 L 69 93 L 69 95 L 70 96 L 70 98 L 71 99 L 71 101 L 72 102 L 71 103 L 70 103 L 69 102 L 69 100 L 68 99 L 68 97 L 67 96 L 67 94 L 66 93 L 66 91 L 65 90 L 65 88 L 64 87 L 64 86 " stroke="black" stroke-width="1" fill="none"/>
<path d="M 43 85 L 44 86 L 44 87 L 43 88 L 43 90 L 42 91 L 42 93 L 41 94 L 41 96 L 40 97 L 40 99 L 39 100 L 39 102 L 38 103 L 37 103 L 36 102 L 37 101 L 37 99 L 38 98 L 38 96 L 39 95 L 39 93 L 40 92 L 40 90 L 41 89 L 41 87 " stroke="black" stroke-width="1" fill="none"/>
</svg>