<svg xmlns="http://www.w3.org/2000/svg" width="300" height="300" viewBox="0 0 300 300">
<path d="M 167 268 L 167 275 L 168 275 L 169 276 L 173 276 L 175 274 L 175 269 L 173 267 L 169 267 L 168 268 " stroke="black" stroke-width="1" fill="none"/>
<path d="M 169 267 L 172 267 L 175 270 L 175 273 L 172 276 L 169 276 L 167 274 L 167 269 " stroke="black" stroke-width="1" fill="none"/>
<path d="M 170 270 L 169 271 L 169 272 L 170 273 L 172 273 L 172 270 " stroke="black" stroke-width="1" fill="none"/>
<path d="M 169 271 L 170 270 L 171 270 L 172 271 L 172 272 L 171 273 L 170 273 L 169 272 " stroke="black" stroke-width="1" fill="none"/>
<path d="M 127 268 L 127 275 L 128 275 L 129 276 L 133 276 L 135 274 L 135 269 L 133 267 L 129 267 L 128 268 " stroke="black" stroke-width="1" fill="none"/>
<path d="M 129 267 L 132 267 L 135 270 L 135 273 L 132 276 L 129 276 L 127 274 L 127 269 " stroke="black" stroke-width="1" fill="none"/>
<path d="M 130 270 L 129 271 L 129 272 L 130 273 L 132 273 L 132 270 " stroke="black" stroke-width="1" fill="none"/>
<path d="M 129 271 L 130 270 L 131 270 L 132 271 L 132 272 L 131 273 L 130 273 L 129 272 " stroke="black" stroke-width="1" fill="none"/>
<path d="M 178 268 L 178 270 L 180 270 L 181 269 L 183 269 L 185 267 L 186 267 L 187 266 L 188 266 L 190 264 L 191 264 L 192 263 L 193 264 L 194 264 L 195 265 L 196 265 L 198 267 L 199 267 L 200 268 L 201 268 L 203 270 L 204 270 L 205 271 L 206 271 L 208 273 L 210 273 L 209 273 L 208 272 L 207 272 L 205 270 L 204 270 L 203 269 L 202 269 L 200 267 L 199 267 L 198 266 L 197 266 L 195 264 L 193 264 L 192 263 L 191 263 L 190 264 L 189 264 L 187 266 L 186 266 L 185 267 L 184 267 L 182 269 L 181 269 L 180 270 L 179 270 L 178 269 L 180 267 L 181 267 L 182 266 L 181 267 L 179 267 " stroke="black" stroke-width="1" fill="none"/>
<path d="M 124 269 L 123 268 L 121 268 L 118 266 L 119 267 L 120 267 L 123 269 L 123 270 L 122 271 L 121 270 L 120 270 L 119 269 L 118 269 L 116 267 L 115 267 L 114 266 L 113 266 L 111 264 L 110 264 L 109 263 L 108 263 L 107 264 L 105 264 L 103 266 L 102 266 L 101 267 L 100 267 L 98 269 L 97 269 L 96 270 L 95 270 L 93 272 L 92 272 L 91 273 L 90 273 L 92 273 L 94 271 L 95 271 L 96 270 L 97 270 L 99 268 L 100 268 L 101 267 L 102 267 L 104 265 L 105 265 L 108 263 L 109 264 L 110 264 L 112 266 L 113 266 L 114 267 L 115 267 L 117 269 L 119 269 L 122 271 L 123 271 L 123 270 " stroke="black" stroke-width="1" fill="none"/>
<path d="M 187 233 L 187 240 L 189 243 L 189 256 L 187 258 L 177 263 L 177 264 L 187 258 L 189 259 L 183 263 L 186 261 L 188 262 L 184 265 L 189 262 L 189 259 L 188 258 L 189 257 L 189 244 L 190 243 L 191 244 L 191 258 L 192 260 L 211 271 L 197 262 L 194 261 L 191 258 L 191 243 L 189 243 L 188 242 L 189 241 L 193 241 L 195 239 L 195 234 L 193 232 L 189 232 " stroke="black" stroke-width="1" fill="none"/>
<path d="M 189 232 L 192 232 L 195 235 L 195 238 L 192 241 L 189 241 L 187 239 L 187 234 " stroke="black" stroke-width="1" fill="none"/>
<path d="M 190 235 L 189 236 L 189 237 L 190 238 L 192 238 L 192 235 " stroke="black" stroke-width="1" fill="none"/>
<path d="M 189 236 L 190 235 L 191 235 L 192 236 L 192 237 L 191 238 L 190 238 L 189 237 " stroke="black" stroke-width="1" fill="none"/>
<path d="M 113 232 L 109 232 L 107 233 L 107 240 L 109 243 L 109 258 L 106 261 L 103 262 L 89 271 L 108 260 L 109 258 L 109 244 L 110 243 L 111 244 L 111 257 L 112 258 L 111 259 L 111 262 L 116 265 L 112 262 L 114 261 L 117 263 L 111 259 L 113 258 L 123 264 L 123 263 L 113 258 L 111 256 L 111 243 L 109 243 L 108 242 L 109 241 L 113 241 L 115 239 L 115 234 " stroke="black" stroke-width="1" fill="none"/>
<path d="M 109 232 L 112 232 L 115 235 L 115 238 L 112 241 L 109 241 L 107 239 L 107 234 " stroke="black" stroke-width="1" fill="none"/>
<path d="M 110 235 L 109 236 L 109 237 L 110 238 L 112 238 L 112 235 " stroke="black" stroke-width="1" fill="none"/>
<path d="M 109 236 L 110 235 L 111 235 L 112 236 L 112 237 L 111 238 L 110 238 L 109 237 " stroke="black" stroke-width="1" fill="none"/>
<path d="M 134 156 L 134 165 L 135 164 L 136 165 L 136 163 L 137 162 L 138 162 L 139 163 L 139 164 L 141 164 L 141 157 L 139 157 L 138 158 L 137 158 L 136 157 L 136 156 L 135 157 " stroke="black" stroke-width="1" fill="none"/>
<path d="M 134 158 L 135 157 L 136 158 L 139 158 L 140 157 L 141 158 L 141 163 L 140 164 L 139 163 L 139 162 L 138 161 L 138 160 L 138 161 L 137 162 L 136 162 L 136 163 L 135 164 L 134 163 " stroke="black" stroke-width="1" fill="none"/>
<path d="M 207 61 L 207 68 L 208 68 L 209 69 L 213 69 L 215 67 L 215 62 L 213 60 L 209 60 L 208 61 " stroke="black" stroke-width="1" fill="none"/>
<path d="M 209 60 L 212 60 L 215 63 L 215 66 L 212 69 L 209 69 L 207 67 L 207 62 " stroke="black" stroke-width="1" fill="none"/>
<path d="M 210 63 L 209 64 L 209 65 L 210 66 L 212 66 L 212 63 " stroke="black" stroke-width="1" fill="none"/>
<path d="M 209 64 L 210 63 L 211 63 L 212 64 L 212 65 L 211 66 L 210 66 L 209 65 " stroke="black" stroke-width="1" fill="none"/>
<path d="M 173 60 L 167 61 L 169 86 L 149 98 L 149 123 L 169 136 L 169 153 L 149 165 L 145 164 L 144 166 L 149 170 L 149 189 L 129 202 L 129 224 L 118 233 L 131 228 L 152 238 L 169 228 L 181 234 L 184 232 L 171 224 L 171 202 L 151 189 L 153 170 L 171 159 L 178 160 L 178 168 L 181 165 L 185 167 L 185 160 L 178 160 L 171 155 L 171 136 L 191 123 L 191 98 L 171 86 L 171 71 L 168 70 L 175 67 " stroke="black" stroke-width="1" fill="none"/>
<path d="M 118 232 L 129 225 L 140 230 L 140 228 L 138 229 L 138 227 L 136 228 L 131 224 L 131 205 L 133 203 L 137 205 L 150 197 L 149 195 L 148 198 L 136 205 L 134 202 L 132 203 L 130 225 L 129 203 L 151 189 L 171 203 L 171 224 L 169 224 L 168 203 L 149 193 L 169 205 L 169 224 L 149 235 L 169 225 L 181 230 L 183 233 L 169 228 L 149 238 L 131 228 L 120 233 " stroke="black" stroke-width="1" fill="none"/>
<path d="M 135 223 L 136 223 L 137 224 L 138 224 L 140 226 L 141 226 L 142 227 L 143 227 L 144 228 L 145 228 L 147 230 L 148 230 L 149 231 L 149 233 L 149 232 L 150 231 L 149 230 L 148 230 L 146 228 L 145 228 L 144 227 L 143 227 L 142 226 L 141 226 L 139 224 L 138 224 L 137 223 " stroke="black" stroke-width="1" fill="none"/>
<path d="M 166 205 L 165 205 L 165 223 L 166 222 L 167 222 L 167 206 " stroke="black" stroke-width="1" fill="none"/>
<path d="M 166 205 L 167 206 L 167 221 L 166 222 L 165 221 L 165 206 " stroke="black" stroke-width="1" fill="none"/>
<path d="M 178 161 L 179 160 L 180 161 L 183 161 L 184 160 L 185 161 L 185 166 L 184 167 L 183 166 L 183 165 L 182 164 L 182 163 L 182 164 L 181 165 L 180 165 L 180 166 L 179 167 L 178 166 " stroke="black" stroke-width="1" fill="none"/>
<path d="M 170 135 L 171 136 L 171 155 L 172 157 L 175 159 L 175 160 L 174 161 L 171 159 L 155 169 L 153 168 L 154 167 L 153 168 L 151 167 L 155 164 L 157 165 L 156 166 L 157 165 L 156 164 L 157 163 L 159 164 L 158 163 L 159 162 L 151 166 L 151 169 L 152 170 L 151 171 L 151 189 L 150 190 L 149 189 L 149 170 L 148 168 L 145 166 L 145 165 L 146 164 L 147 165 L 149 165 L 167 155 L 169 156 L 169 158 L 169 156 L 168 155 L 169 154 L 169 136 " stroke="black" stroke-width="1" fill="none"/>
<path d="M 169 87 L 171 87 L 181 92 L 183 94 L 188 96 L 191 99 L 191 122 L 188 125 L 185 126 L 183 128 L 180 129 L 178 131 L 173 133 L 171 136 L 170 135 L 169 136 L 167 133 L 164 132 L 162 130 L 154 126 L 149 122 L 149 99 L 154 95 L 157 94 L 159 92 " stroke="black" stroke-width="1" fill="none"/>
<path d="M 155 119 L 156 119 L 159 122 L 160 122 L 162 124 L 163 124 L 164 125 L 165 125 L 167 127 L 168 127 L 169 128 L 169 130 L 169 129 L 170 128 L 169 127 L 168 127 L 166 125 L 165 125 L 164 124 L 163 124 L 161 122 L 160 122 L 157 119 " stroke="black" stroke-width="1" fill="none"/>
<path d="M 186 102 L 185 102 L 185 120 L 186 119 L 187 119 L 187 103 " stroke="black" stroke-width="1" fill="none"/>
<path d="M 186 102 L 187 103 L 187 118 L 186 119 L 185 118 L 185 103 " stroke="black" stroke-width="1" fill="none"/>
<path d="M 169 92 L 169 94 L 168 95 L 167 95 L 165 97 L 164 97 L 163 98 L 162 98 L 161 99 L 160 99 L 158 101 L 157 101 L 156 102 L 154 102 L 157 102 L 158 101 L 159 101 L 161 99 L 162 99 L 163 98 L 164 98 L 165 97 L 166 97 L 168 95 L 169 95 L 170 94 L 169 93 " stroke="black" stroke-width="1" fill="none"/>
<path d="M 168 90 L 159 95 L 168 90 L 171 90 L 179 94 L 181 96 L 186 98 L 189 101 L 189 120 L 186 123 L 183 124 L 181 126 L 178 127 L 171 132 L 169 132 L 171 132 L 175 130 L 177 128 L 180 127 L 182 125 L 188 122 L 189 120 L 189 101 L 188 99 L 182 96 L 180 94 L 172 90 " stroke="black" stroke-width="1" fill="none"/>
<path d="M 170 71 L 171 72 L 171 86 L 170 87 L 169 86 L 169 72 " stroke="black" stroke-width="1" fill="none"/>
<path d="M 169 60 L 172 60 L 175 63 L 175 66 L 172 69 L 169 69 L 167 67 L 167 62 " stroke="black" stroke-width="1" fill="none"/>
<path d="M 170 63 L 169 64 L 169 65 L 170 66 L 172 66 L 172 63 " stroke="black" stroke-width="1" fill="none"/>
<path d="M 169 64 L 170 63 L 171 63 L 172 64 L 172 65 L 171 66 L 170 66 L 169 65 " stroke="black" stroke-width="1" fill="none"/>
<path d="M 189 29 L 189 51 L 186 54 L 178 58 L 178 59 L 189 52 L 189 30 L 190 29 L 191 30 L 191 51 L 193 52 L 189 56 L 178 61 L 182 60 L 188 56 L 197 62 L 203 64 L 204 62 L 198 59 L 203 62 L 202 64 L 189 56 L 192 53 L 194 55 L 193 56 L 194 57 L 193 56 L 195 55 L 200 58 L 202 57 L 203 59 L 203 57 L 201 55 L 191 50 L 191 29 " stroke="black" stroke-width="1" fill="none"/>
<path d="M 192 53 L 193 52 L 194 52 L 195 53 L 196 53 L 197 54 L 198 54 L 199 55 L 200 55 L 202 57 L 201 58 L 200 58 L 199 57 L 198 57 L 197 56 L 196 56 L 195 55 L 194 55 " stroke="black" stroke-width="1" fill="none"/>
</svg>