<svg xmlns="http://www.w3.org/2000/svg" width="300" height="300" viewBox="0 0 300 300">
<path d="M 143 252 L 143 261 L 144 260 L 145 261 L 145 259 L 146 258 L 147 258 L 148 259 L 148 260 L 150 260 L 150 253 L 148 253 L 147 254 L 146 254 L 145 253 L 145 252 L 144 253 " stroke="black" stroke-width="1" fill="none"/>
<path d="M 143 254 L 144 253 L 145 254 L 148 254 L 149 253 L 150 254 L 150 259 L 149 260 L 148 259 L 148 258 L 147 257 L 147 256 L 147 257 L 146 258 L 145 258 L 145 259 L 144 260 L 143 259 " stroke="black" stroke-width="1" fill="none"/>
<path d="M 161 247 L 160 248 L 160 249 L 161 250 L 163 250 L 163 247 " stroke="black" stroke-width="1" fill="none"/>
<path d="M 160 248 L 161 247 L 162 247 L 163 248 L 163 249 L 162 250 L 161 250 L 160 249 " stroke="black" stroke-width="1" fill="none"/>
<path d="M 166 246 L 164 244 L 164 245 L 166 247 L 166 250 L 163 253 L 160 253 L 158 251 L 158 247 L 160 245 L 159 245 L 158 246 L 158 252 L 159 252 L 160 253 L 164 253 L 166 251 " stroke="black" stroke-width="1" fill="none"/>
<path d="M 204 218 L 202 220 L 202 226 L 203 226 L 204 227 L 208 227 L 210 225 L 210 220 L 208 218 " stroke="black" stroke-width="1" fill="none"/>
<path d="M 204 218 L 207 218 L 210 221 L 210 224 L 207 227 L 204 227 L 202 225 L 202 221 L 203 220 L 203 219 " stroke="black" stroke-width="1" fill="none"/>
<path d="M 205 221 L 204 222 L 204 223 L 205 224 L 207 224 L 207 221 " stroke="black" stroke-width="1" fill="none"/>
<path d="M 204 222 L 205 221 L 206 221 L 207 222 L 207 223 L 206 224 L 205 224 L 204 223 " stroke="black" stroke-width="1" fill="none"/>
<path d="M 114 219 L 114 226 L 115 226 L 116 227 L 120 227 L 122 225 L 122 220 L 120 218 L 116 218 L 115 219 " stroke="black" stroke-width="1" fill="none"/>
<path d="M 116 218 L 119 218 L 122 221 L 122 224 L 119 227 L 116 227 L 114 225 L 114 220 " stroke="black" stroke-width="1" fill="none"/>
<path d="M 117 221 L 116 222 L 116 223 L 117 224 L 119 224 L 119 221 " stroke="black" stroke-width="1" fill="none"/>
<path d="M 116 222 L 117 221 L 118 221 L 119 222 L 119 223 L 118 224 L 117 224 L 116 223 " stroke="black" stroke-width="1" fill="none"/>
<path d="M 214 211 L 214 220 L 215 219 L 216 220 L 216 218 L 217 217 L 218 217 L 219 218 L 219 219 L 221 219 L 221 212 L 219 212 L 218 213 L 217 213 L 216 212 L 216 211 L 215 212 " stroke="black" stroke-width="1" fill="none"/>
<path d="M 214 213 L 215 212 L 216 213 L 219 213 L 220 212 L 221 213 L 221 218 L 220 219 L 219 218 L 219 217 L 218 216 L 218 215 L 218 216 L 217 217 L 216 217 L 216 218 L 215 219 L 214 218 " stroke="black" stroke-width="1" fill="none"/>
<path d="M 100 211 L 100 220 L 101 219 L 102 220 L 102 218 L 103 217 L 104 217 L 105 218 L 105 219 L 107 219 L 107 212 L 105 212 L 104 213 L 103 213 L 102 212 L 102 211 L 101 212 " stroke="black" stroke-width="1" fill="none"/>
<path d="M 100 213 L 101 212 L 102 213 L 105 213 L 106 212 L 107 213 L 107 218 L 106 219 L 105 218 L 105 217 L 104 216 L 104 215 L 104 216 L 103 217 L 102 217 L 102 218 L 101 219 L 100 218 " stroke="black" stroke-width="1" fill="none"/>
<path d="M 56 176 L 56 185 L 57 184 L 58 185 L 58 183 L 59 182 L 60 182 L 61 183 L 61 184 L 63 184 L 63 177 L 61 177 L 60 178 L 59 178 L 58 177 L 58 176 L 57 177 " stroke="black" stroke-width="1" fill="none"/>
<path d="M 56 178 L 57 177 L 58 178 L 61 178 L 62 177 L 63 178 L 63 183 L 62 184 L 61 183 L 61 182 L 60 181 L 60 180 L 60 181 L 59 182 L 58 182 L 58 183 L 57 184 L 56 183 " stroke="black" stroke-width="1" fill="none"/>
<path d="M 205 171 L 204 172 L 204 173 L 205 174 L 207 174 L 207 171 " stroke="black" stroke-width="1" fill="none"/>
<path d="M 204 172 L 205 171 L 206 171 L 207 172 L 207 173 L 206 174 L 205 174 L 204 173 " stroke="black" stroke-width="1" fill="none"/>
<path d="M 210 170 L 208 168 L 208 169 L 210 171 L 210 174 L 207 177 L 204 177 L 202 175 L 202 171 L 204 169 L 203 169 L 202 170 L 202 176 L 203 176 L 204 177 L 208 177 L 210 175 " stroke="black" stroke-width="1" fill="none"/>
<path d="M 158 169 L 158 176 L 159 176 L 160 177 L 164 177 L 166 175 L 166 170 L 164 168 L 160 168 L 159 169 " stroke="black" stroke-width="1" fill="none"/>
<path d="M 160 168 L 163 168 L 166 171 L 166 174 L 163 177 L 160 177 L 158 175 L 158 170 " stroke="black" stroke-width="1" fill="none"/>
<path d="M 161 171 L 160 172 L 160 173 L 161 174 L 163 174 L 163 171 " stroke="black" stroke-width="1" fill="none"/>
<path d="M 160 172 L 161 171 L 162 171 L 163 172 L 163 173 L 162 174 L 161 174 L 160 173 " stroke="black" stroke-width="1" fill="none"/>
<path d="M 114 145 L 116 176 L 138 187 L 138 211 L 127 220 L 124 216 L 136 210 L 124 215 L 127 222 L 138 212 L 159 224 L 158 242 L 163 242 L 161 226 L 183 212 L 194 220 L 199 219 L 199 216 L 192 215 L 184 209 L 184 186 L 198 179 L 197 174 L 182 183 L 169 177 L 168 179 L 182 188 L 182 208 L 161 222 L 140 209 L 140 188 L 154 179 L 154 176 L 140 184 L 118 168 L 118 154 L 115 153 L 122 150 L 122 145 L 120 143 " stroke="black" stroke-width="1" fill="none"/>
<path d="M 160 227 L 162 229 L 162 236 L 163 237 L 163 241 L 162 242 L 159 242 L 158 241 L 158 233 L 160 231 L 159 231 L 158 230 L 158 229 " stroke="black" stroke-width="1" fill="none"/>
<path d="M 183 212 L 182 213 L 181 213 L 180 214 L 179 214 L 177 216 L 176 216 L 175 217 L 174 217 L 173 218 L 172 218 L 171 219 L 170 219 L 169 220 L 168 220 L 166 222 L 165 222 L 164 223 L 163 223 L 162 224 L 162 225 L 160 227 L 159 226 L 159 224 L 158 223 L 160 221 L 161 222 L 162 221 L 163 221 L 164 220 L 165 220 L 167 218 L 168 218 L 169 217 L 170 217 L 171 216 L 172 216 L 173 215 L 174 215 L 175 214 L 176 214 L 178 212 L 179 212 L 181 210 " stroke="black" stroke-width="1" fill="none"/>
<path d="M 139 187 L 140 188 L 140 209 L 141 210 L 141 211 L 142 211 L 143 212 L 144 212 L 146 214 L 147 214 L 148 215 L 149 215 L 150 216 L 151 216 L 152 217 L 153 217 L 154 218 L 155 218 L 157 220 L 159 220 L 160 221 L 158 223 L 157 222 L 156 222 L 154 220 L 153 220 L 152 219 L 151 219 L 150 218 L 149 218 L 148 217 L 147 217 L 146 216 L 145 216 L 143 214 L 142 214 L 141 213 L 140 213 L 138 211 L 138 188 " stroke="black" stroke-width="1" fill="none"/>
<path d="M 154 177 L 154 178 L 153 179 L 152 179 L 151 180 L 150 180 L 148 182 L 147 182 L 145 184 L 144 184 L 143 185 L 142 185 L 141 186 L 140 185 L 140 184 L 141 183 L 142 183 L 144 181 L 145 181 L 146 180 L 147 180 L 149 178 L 150 178 L 151 177 L 152 177 L 153 176 " stroke="black" stroke-width="1" fill="none"/>
<path d="M 170 177 L 173 178 L 175 180 L 178 181 L 182 184 L 188 179 L 192 177 L 195 174 L 196 174 L 199 177 L 197 179 L 193 181 L 190 181 L 188 183 L 184 185 L 184 209 L 187 212 L 189 212 L 192 215 L 196 215 L 199 217 L 198 219 L 195 220 L 189 215 L 184 213 L 181 210 L 182 209 L 182 187 L 180 185 L 177 184 L 175 182 L 171 180 L 169 178 " stroke="black" stroke-width="1" fill="none"/>
<path d="M 117 154 L 118 155 L 118 168 L 119 169 L 119 170 L 122 173 L 123 173 L 126 176 L 127 176 L 129 178 L 130 178 L 132 180 L 133 180 L 134 181 L 135 181 L 137 183 L 138 183 L 141 186 L 140 187 L 139 187 L 137 185 L 136 185 L 135 184 L 134 184 L 133 183 L 132 183 L 129 181 L 127 181 L 126 180 L 125 180 L 122 178 L 120 178 L 119 177 L 118 177 L 115 174 L 117 171 L 117 170 L 116 169 L 116 155 " stroke="black" stroke-width="1" fill="none"/>
<path d="M 116 143 L 119 143 L 122 146 L 122 149 L 119 152 L 116 152 L 114 150 L 114 145 " stroke="black" stroke-width="1" fill="none"/>
<path d="M 117 146 L 116 147 L 116 148 L 117 149 L 119 149 L 119 146 " stroke="black" stroke-width="1" fill="none"/>
<path d="M 116 147 L 117 146 L 118 146 L 119 147 L 119 148 L 118 149 L 117 149 L 116 148 " stroke="black" stroke-width="1" fill="none"/>
<path d="M 27 144 L 27 151 L 28 151 L 29 152 L 33 152 L 35 150 L 35 145 L 33 143 L 29 143 L 28 144 " stroke="black" stroke-width="1" fill="none"/>
<path d="M 29 143 L 32 143 L 35 146 L 35 149 L 32 152 L 29 152 L 27 150 L 27 145 " stroke="black" stroke-width="1" fill="none"/>
<path d="M 30 146 L 29 147 L 29 148 L 30 149 L 32 149 L 32 146 " stroke="black" stroke-width="1" fill="none"/>
<path d="M 29 147 L 30 146 L 31 146 L 32 147 L 32 148 L 31 149 L 30 149 L 29 148 " stroke="black" stroke-width="1" fill="none"/>
<path d="M 36 141 L 38 144 L 40 144 L 51 136 L 69 147 L 72 150 L 70 166 L 76 167 L 70 169 L 70 176 L 72 177 L 76 177 L 78 175 L 78 170 L 75 166 L 75 160 L 74 159 L 72 161 L 71 160 L 71 155 L 73 154 L 74 157 L 74 150 L 77 147 L 95 136 L 107 145 L 109 145 L 111 142 L 108 145 L 100 138 L 95 136 L 74 149 L 72 149 L 51 136 L 46 138 L 39 144 " stroke="black" stroke-width="1" fill="none"/>
<path d="M 73 168 L 75 168 L 78 171 L 78 174 L 75 177 L 72 177 L 70 175 L 70 170 L 71 169 L 72 169 " stroke="black" stroke-width="1" fill="none"/>
<path d="M 73 171 L 72 172 L 72 173 L 73 174 L 75 174 L 75 171 " stroke="black" stroke-width="1" fill="none"/>
<path d="M 72 172 L 73 171 L 74 171 L 75 172 L 75 173 L 74 174 L 73 174 L 72 173 " stroke="black" stroke-width="1" fill="none"/>
<path d="M 73 160 L 75 162 L 74 163 L 75 164 L 75 165 L 74 166 L 71 166 L 70 165 L 70 164 L 71 163 L 72 163 L 71 162 " stroke="black" stroke-width="1" fill="none"/>
<path d="M 12 135 L 12 144 L 13 143 L 14 144 L 14 142 L 15 141 L 16 141 L 17 142 L 17 143 L 19 143 L 19 136 L 17 136 L 16 137 L 15 137 L 14 136 L 14 135 L 13 136 " stroke="black" stroke-width="1" fill="none"/>
<path d="M 12 137 L 13 136 L 14 137 L 17 137 L 18 136 L 19 137 L 19 142 L 18 143 L 17 142 L 17 141 L 16 140 L 16 139 L 16 140 L 15 141 L 14 141 L 14 142 L 13 143 L 12 142 " stroke="black" stroke-width="1" fill="none"/>
<path d="M 182 130 L 180 132 L 180 137 L 182 139 L 186 139 L 187 138 L 186 137 L 186 136 L 184 136 L 183 135 L 183 134 L 184 133 L 186 133 L 186 132 L 187 131 L 186 130 " stroke="black" stroke-width="1" fill="none"/>
<path d="M 182 130 L 185 130 L 186 131 L 186 132 L 185 133 L 183 133 L 183 136 L 185 136 L 186 137 L 186 138 L 185 139 L 182 139 L 180 137 L 180 133 L 181 132 L 181 131 " stroke="black" stroke-width="1" fill="none"/>
<path d="M 168 122 L 168 123 L 167 124 L 167 126 L 166 127 L 165 126 L 166 127 L 164 129 L 165 130 L 166 130 L 168 132 L 169 132 L 170 133 L 171 133 L 172 134 L 174 134 L 175 135 L 176 135 L 176 132 L 177 131 L 177 130 L 178 129 L 177 128 L 178 127 L 177 126 L 176 126 L 175 125 L 174 125 L 173 124 L 172 124 L 170 122 " stroke="black" stroke-width="1" fill="none"/>
<path d="M 169 122 L 171 124 L 173 124 L 175 126 L 176 126 L 177 127 L 177 131 L 176 132 L 176 134 L 175 135 L 174 134 L 173 134 L 172 133 L 171 133 L 170 132 L 169 132 L 167 130 L 166 130 L 165 129 L 165 128 L 166 127 L 167 127 L 167 124 " stroke="black" stroke-width="1" fill="none"/>
<path d="M 157 118 L 157 126 L 158 125 L 159 125 L 160 124 L 161 125 L 163 125 L 164 124 L 164 118 L 162 118 L 163 118 L 164 119 L 164 123 L 162 125 L 161 124 L 161 123 L 160 123 L 159 122 L 160 123 L 160 124 L 159 125 L 158 125 L 157 124 L 157 119 L 158 118 L 159 118 L 160 119 L 160 120 L 161 120 L 160 119 L 160 118 " stroke="black" stroke-width="1" fill="none"/>
<path d="M 271 109 L 251 96 L 247 96 L 228 107 L 226 109 L 226 133 L 224 135 L 214 140 L 205 147 L 196 140 L 190 139 L 191 142 L 193 142 L 203 149 L 202 166 L 207 166 L 205 150 L 226 137 L 230 138 L 247 149 L 254 147 L 260 142 L 271 136 " stroke="black" stroke-width="1" fill="none"/>
<path d="M 204 151 L 206 153 L 206 160 L 207 161 L 207 165 L 206 166 L 203 166 L 202 165 L 202 157 L 204 155 L 203 155 L 202 154 L 202 153 " stroke="black" stroke-width="1" fill="none"/>
<path d="M 191 140 L 192 139 L 193 139 L 194 140 L 195 140 L 197 142 L 198 142 L 199 143 L 200 143 L 202 145 L 203 145 L 204 146 L 203 147 L 201 147 L 200 146 L 199 146 L 197 144 L 196 144 L 195 143 L 194 143 L 193 142 L 192 142 L 191 141 " stroke="black" stroke-width="1" fill="none"/>
<path d="M 271 110 L 271 135 L 248 149 L 231 138 L 225 137 L 203 150 L 204 146 L 226 133 L 250 146 L 254 143 L 252 144 L 251 140 L 265 132 L 250 140 L 252 144 L 249 146 L 228 133 L 228 112 L 248 99 L 251 100 L 249 103 L 255 108 L 269 112 L 269 133 L 266 136 L 268 135 L 269 112 L 265 108 L 265 112 L 256 108 L 250 101 L 255 102 L 250 99 L 229 110 L 228 133 L 226 133 L 226 110 L 237 102 L 250 96 " stroke="black" stroke-width="1" fill="none"/>
<path d="M 232 112 L 231 113 L 230 113 L 230 131 L 231 131 L 232 132 " stroke="black" stroke-width="1" fill="none"/>
<path d="M 231 113 L 232 114 L 232 130 L 231 131 L 230 130 L 230 114 " stroke="black" stroke-width="1" fill="none"/>
<path d="M 29 87 L 29 92 L 28 93 L 27 93 L 27 100 L 28 100 L 29 101 L 33 101 L 35 99 L 35 94 L 33 92 L 30 92 L 29 91 L 30 90 L 31 90 L 31 87 " stroke="black" stroke-width="1" fill="none"/>
<path d="M 29 92 L 32 92 L 35 95 L 35 98 L 32 101 L 29 101 L 27 99 L 27 94 " stroke="black" stroke-width="1" fill="none"/>
<path d="M 30 95 L 29 96 L 29 97 L 30 98 L 32 98 L 32 95 " stroke="black" stroke-width="1" fill="none"/>
<path d="M 29 96 L 30 95 L 31 95 L 32 96 L 32 97 L 31 98 L 30 98 L 29 97 " stroke="black" stroke-width="1" fill="none"/>
<path d="M 26 76 L 26 85 L 27 84 L 28 84 L 28 83 L 29 82 L 30 82 L 31 83 L 31 84 L 33 84 L 33 77 L 31 77 L 30 78 L 29 78 L 28 77 L 28 76 L 27 77 " stroke="black" stroke-width="1" fill="none"/>
<path d="M 26 78 L 27 77 L 28 78 L 31 78 L 32 77 L 33 78 L 33 83 L 32 84 L 31 83 L 31 82 L 30 81 L 30 80 L 30 81 L 29 82 L 28 82 L 28 83 L 27 84 L 26 83 " stroke="black" stroke-width="1" fill="none"/>
<path d="M 36 102 L 50 111 L 50 132 L 38 139 L 50 133 L 50 110 L 47 108 L 71 97 L 70 72 L 73 70 L 76 73 L 74 95 L 88 105 L 71 99 L 54 109 L 52 134 L 74 146 L 94 134 L 95 116 L 96 133 L 110 140 L 96 132 L 96 116 L 93 115 L 100 112 L 98 105 L 92 106 L 92 135 L 73 146 L 52 133 L 52 112 L 72 99 L 87 106 L 89 104 L 74 95 L 75 71 L 70 71 L 70 97 L 52 108 L 41 100 " stroke="black" stroke-width="1" fill="none"/>
<path d="M 94 105 L 97 105 L 100 108 L 100 111 L 97 114 L 94 114 L 92 112 L 92 107 " stroke="black" stroke-width="1" fill="none"/>
<path d="M 95 108 L 94 109 L 94 110 L 95 111 L 97 111 L 97 108 " stroke="black" stroke-width="1" fill="none"/>
<path d="M 94 109 L 95 108 L 96 108 L 97 109 L 97 110 L 96 111 L 95 111 L 94 110 " stroke="black" stroke-width="1" fill="none"/>
<path d="M 45 107 L 47 105 L 48 105 L 49 106 L 47 108 L 46 108 " stroke="black" stroke-width="1" fill="none"/>
<path d="M 36 103 L 39 100 L 40 100 L 42 102 L 41 103 L 42 102 L 43 102 L 45 104 L 46 104 L 47 105 L 45 107 L 44 106 L 43 106 L 42 105 L 39 105 L 38 104 L 37 104 " stroke="black" stroke-width="1" fill="none"/>
<path d="M 88 62 L 87 62 L 86 63 L 85 63 L 84 64 L 82 64 L 80 66 L 79 66 L 77 68 L 76 68 L 76 69 L 78 67 L 79 67 L 80 66 L 81 66 L 83 64 L 84 64 L 85 63 L 86 63 L 87 62 L 88 63 L 88 64 L 87 65 L 86 65 L 85 66 L 84 66 L 82 68 L 81 68 L 79 70 L 78 70 L 77 71 L 78 71 L 80 69 L 81 69 L 82 68 L 83 68 L 85 66 L 86 66 L 87 65 L 88 65 L 89 64 L 88 63 " stroke="black" stroke-width="1" fill="none"/>
<path d="M 94 49 L 94 54 L 93 55 L 92 55 L 92 62 L 93 62 L 94 63 L 98 63 L 100 61 L 100 56 L 98 54 L 95 54 L 94 53 L 95 52 L 96 52 L 96 49 " stroke="black" stroke-width="1" fill="none"/>
<path d="M 94 54 L 97 54 L 100 57 L 100 60 L 97 63 L 94 63 L 92 61 L 92 56 " stroke="black" stroke-width="1" fill="none"/>
<path d="M 95 57 L 94 58 L 94 59 L 95 60 L 97 60 L 97 57 " stroke="black" stroke-width="1" fill="none"/>
<path d="M 94 58 L 95 57 L 96 57 L 97 58 L 97 59 L 96 60 L 95 60 L 94 59 " stroke="black" stroke-width="1" fill="none"/>
<path d="M 91 38 L 91 47 L 92 46 L 93 46 L 93 45 L 94 44 L 95 44 L 96 45 L 96 46 L 98 46 L 98 39 L 96 39 L 95 40 L 94 40 L 93 39 L 93 38 L 92 39 " stroke="black" stroke-width="1" fill="none"/>
<path d="M 91 40 L 92 39 L 93 40 L 96 40 L 97 39 L 98 40 L 98 45 L 97 46 L 96 45 L 96 44 L 95 43 L 95 42 L 95 43 L 94 44 L 93 44 L 93 45 L 92 46 L 91 45 " stroke="black" stroke-width="1" fill="none"/>
</svg>