<svg xmlns="http://www.w3.org/2000/svg" width="300" height="300" viewBox="0 0 300 300">
<path d="M 66 242 L 65 243 L 64 243 L 64 244 L 62 246 L 61 245 L 61 243 L 58 243 L 58 252 L 61 252 L 61 249 L 62 248 L 64 250 L 64 253 L 65 252 L 66 253 " stroke="black" stroke-width="1" fill="none"/>
<path d="M 65 243 L 66 244 L 66 251 L 65 252 L 64 251 L 64 250 L 63 249 L 63 246 L 64 245 L 64 244 " stroke="black" stroke-width="1" fill="none"/>
<path d="M 59 243 L 60 243 L 61 244 L 61 251 L 60 252 L 59 252 L 58 251 L 58 244 " stroke="black" stroke-width="1" fill="none"/>
<path d="M 59 221 L 57 223 L 57 230 L 59 232 L 63 232 L 64 233 L 63 234 L 62 234 L 62 240 L 64 240 L 64 232 L 66 230 L 66 223 L 64 221 " stroke="black" stroke-width="1" fill="none"/>
<path d="M 63 234 L 64 235 L 64 239 L 63 240 L 62 239 L 62 235 " stroke="black" stroke-width="1" fill="none"/>
<path d="M 60 221 L 63 221 L 66 224 L 66 229 L 63 232 L 60 232 L 57 229 L 57 224 " stroke="black" stroke-width="1" fill="none"/>
<path d="M 60 224 L 60 229 L 63 229 L 63 224 " stroke="black" stroke-width="1" fill="none"/>
<path d="M 61 224 L 62 224 L 63 225 L 63 228 L 62 229 L 61 229 L 60 228 L 60 225 " stroke="black" stroke-width="1" fill="none"/>
<path d="M 204 204 L 202 206 L 202 213 L 204 215 L 209 215 L 211 213 L 211 206 L 209 204 " stroke="black" stroke-width="1" fill="none"/>
<path d="M 205 204 L 208 204 L 211 207 L 211 212 L 208 215 L 205 215 L 202 212 L 202 207 " stroke="black" stroke-width="1" fill="none"/>
<path d="M 205 207 L 205 212 L 208 212 L 208 207 " stroke="black" stroke-width="1" fill="none"/>
<path d="M 206 207 L 207 207 L 208 208 L 208 211 L 207 212 L 206 212 L 205 211 L 205 208 " stroke="black" stroke-width="1" fill="none"/>
<path d="M 234 185 L 233 186 L 232 185 L 232 187 L 230 189 L 229 188 L 229 186 L 226 186 L 226 195 L 229 195 L 229 192 L 230 191 L 232 193 L 232 196 L 233 195 L 234 196 " stroke="black" stroke-width="1" fill="none"/>
<path d="M 233 186 L 234 187 L 234 194 L 233 195 L 232 194 L 232 193 L 231 192 L 231 189 L 232 188 L 232 187 " stroke="black" stroke-width="1" fill="none"/>
<path d="M 227 186 L 228 186 L 229 187 L 229 194 L 228 195 L 227 195 L 226 194 L 226 187 " stroke="black" stroke-width="1" fill="none"/>
<path d="M 263 171 L 261 173 L 261 180 L 263 182 L 268 182 L 270 180 L 270 173 L 268 171 " stroke="black" stroke-width="1" fill="none"/>
<path d="M 264 171 L 267 171 L 270 174 L 270 179 L 267 182 L 264 182 L 261 179 L 261 174 " stroke="black" stroke-width="1" fill="none"/>
<path d="M 264 174 L 264 179 L 267 179 L 267 174 " stroke="black" stroke-width="1" fill="none"/>
<path d="M 265 174 L 266 174 L 267 175 L 267 178 L 266 179 L 265 179 L 264 178 L 264 175 " stroke="black" stroke-width="1" fill="none"/>
<path d="M 53 165 L 51 165 L 50 166 L 49 166 L 47 168 L 46 168 L 45 169 L 44 169 L 42 171 L 41 171 L 40 172 L 39 172 L 38 173 L 37 173 L 35 175 L 34 175 L 33 176 L 34 176 L 35 175 L 36 175 L 38 173 L 39 173 L 40 172 L 41 172 L 42 171 L 43 171 L 45 169 L 46 169 L 48 167 L 49 167 L 52 165 L 53 166 L 53 167 L 52 168 L 51 168 L 49 170 L 48 170 L 47 171 L 46 171 L 44 173 L 43 173 L 42 174 L 41 174 L 40 175 L 39 175 L 37 177 L 36 177 L 35 178 L 33 178 L 36 178 L 37 177 L 38 177 L 40 175 L 41 175 L 42 174 L 43 174 L 44 173 L 45 173 L 47 171 L 48 171 L 49 170 L 50 170 L 52 168 L 53 168 L 54 167 L 53 166 " stroke="black" stroke-width="1" fill="none"/>
<path d="M 240 162 L 240 164 L 241 165 L 242 165 L 244 167 L 245 167 L 246 168 L 247 168 L 252 173 L 253 173 L 254 174 L 257 174 L 258 173 L 258 172 L 256 174 L 255 174 L 254 173 L 253 173 L 249 169 L 248 169 L 246 167 L 245 167 L 243 165 L 242 165 L 240 163 L 241 162 L 243 162 L 245 164 L 246 164 L 247 165 L 248 165 L 250 167 L 251 167 L 252 168 L 255 168 L 258 170 L 258 169 L 257 169 L 256 168 L 253 168 L 252 167 L 251 167 L 249 165 L 248 165 L 247 164 L 246 164 L 243 162 " stroke="black" stroke-width="1" fill="none"/>
<path d="M 286 161 L 285 162 L 284 161 L 284 163 L 282 165 L 281 164 L 281 162 L 278 162 L 278 171 L 281 171 L 281 168 L 282 167 L 284 169 L 284 172 L 285 171 L 286 172 " stroke="black" stroke-width="1" fill="none"/>
<path d="M 285 162 L 286 163 L 286 170 L 285 171 L 284 170 L 284 169 L 283 168 L 283 165 L 284 164 L 284 163 " stroke="black" stroke-width="1" fill="none"/>
<path d="M 279 162 L 280 162 L 281 163 L 281 170 L 280 171 L 279 171 L 278 170 L 278 163 " stroke="black" stroke-width="1" fill="none"/>
<path d="M 59 154 L 57 156 L 57 163 L 59 165 L 64 165 L 66 163 L 66 156 L 64 154 " stroke="black" stroke-width="1" fill="none"/>
<path d="M 60 154 L 63 154 L 66 157 L 66 162 L 63 165 L 60 165 L 57 162 L 57 157 " stroke="black" stroke-width="1" fill="none"/>
<path d="M 60 157 L 60 162 L 63 162 L 63 157 " stroke="black" stroke-width="1" fill="none"/>
<path d="M 61 157 L 62 157 L 63 158 L 63 161 L 62 162 L 61 162 L 60 161 L 60 158 " stroke="black" stroke-width="1" fill="none"/>
<path d="M 206 140 L 205 141 L 204 140 L 204 142 L 202 144 L 201 143 L 201 141 L 198 141 L 198 150 L 201 150 L 201 147 L 202 146 L 204 148 L 204 151 L 205 150 L 206 151 " stroke="black" stroke-width="1" fill="none"/>
<path d="M 205 141 L 206 142 L 206 149 L 205 150 L 204 149 L 204 148 L 203 147 L 203 144 L 204 143 L 204 142 " stroke="black" stroke-width="1" fill="none"/>
<path d="M 199 141 L 200 141 L 201 142 L 201 149 L 200 150 L 199 150 L 198 149 L 198 142 " stroke="black" stroke-width="1" fill="none"/>
<path d="M 175 120 L 173 122 L 173 129 L 175 131 L 180 131 L 182 129 L 182 122 L 180 120 " stroke="black" stroke-width="1" fill="none"/>
<path d="M 176 120 L 179 120 L 182 123 L 182 128 L 179 131 L 176 131 L 173 128 L 173 123 " stroke="black" stroke-width="1" fill="none"/>
<path d="M 176 123 L 176 128 L 179 128 L 179 123 " stroke="black" stroke-width="1" fill="none"/>
<path d="M 177 123 L 178 123 L 179 124 L 179 127 L 178 128 L 177 128 L 176 127 L 176 124 " stroke="black" stroke-width="1" fill="none"/>
<path d="M 118 120 L 116 122 L 116 129 L 118 131 L 123 131 L 125 129 L 125 122 L 123 120 " stroke="black" stroke-width="1" fill="none"/>
<path d="M 119 120 L 122 120 L 125 123 L 125 128 L 122 131 L 119 131 L 116 128 L 116 123 " stroke="black" stroke-width="1" fill="none"/>
<path d="M 119 123 L 119 128 L 122 128 L 122 123 " stroke="black" stroke-width="1" fill="none"/>
<path d="M 120 123 L 121 123 L 122 124 L 122 127 L 121 128 L 120 128 L 119 127 L 119 124 " stroke="black" stroke-width="1" fill="none"/>
<path d="M 287 114 L 286 115 L 285 114 L 285 116 L 283 118 L 282 117 L 282 115 L 279 115 L 279 124 L 282 124 L 282 121 L 283 120 L 285 122 L 285 125 L 286 124 L 287 125 " stroke="black" stroke-width="1" fill="none"/>
<path d="M 286 115 L 287 116 L 287 123 L 286 124 L 285 123 L 285 122 L 284 121 L 284 118 L 285 117 L 285 116 " stroke="black" stroke-width="1" fill="none"/>
<path d="M 280 115 L 281 115 L 282 116 L 282 123 L 281 124 L 280 124 L 279 123 L 279 116 " stroke="black" stroke-width="1" fill="none"/>
<path d="M 107 110 L 106 111 L 105 110 L 105 112 L 103 114 L 102 113 L 102 111 L 99 111 L 99 120 L 102 120 L 102 117 L 103 116 L 105 118 L 105 121 L 106 120 L 107 121 " stroke="black" stroke-width="1" fill="none"/>
<path d="M 106 111 L 107 112 L 107 119 L 106 120 L 105 119 L 105 118 L 104 117 L 104 114 L 105 113 L 105 112 " stroke="black" stroke-width="1" fill="none"/>
<path d="M 100 111 L 101 111 L 102 112 L 102 119 L 101 120 L 100 120 L 99 119 L 99 112 " stroke="black" stroke-width="1" fill="none"/>
<path d="M 258 115 L 236 124 L 206 108 L 186 121 L 207 108 L 237 125 L 258 116 L 239 126 L 238 161 L 211 178 L 235 161 L 237 128 L 210 112 L 186 123 L 209 112 L 234 126 L 236 159 L 209 176 L 183 162 L 205 178 L 179 162 L 196 153 L 180 156 L 179 133 L 178 159 L 151 176 L 122 158 L 120 133 L 117 161 L 92 175 L 71 165 L 90 179 L 90 210 L 71 224 L 92 214 L 123 229 L 151 213 L 176 228 L 174 262 L 181 264 L 182 228 L 199 217 L 178 225 L 153 211 L 151 180 L 179 162 L 206 180 L 208 202 L 208 181 L 222 188 L 224 183 L 211 178 L 238 162 L 239 127 " stroke="black" stroke-width="1" fill="none"/>
<path d="M 177 253 L 180 253 L 183 256 L 183 261 L 180 264 L 177 264 L 174 261 L 174 256 " stroke="black" stroke-width="1" fill="none"/>
<path d="M 177 256 L 177 261 L 180 261 L 180 256 " stroke="black" stroke-width="1" fill="none"/>
<path d="M 178 256 L 179 256 L 180 257 L 180 260 L 179 261 L 178 261 L 177 260 L 177 257 " stroke="black" stroke-width="1" fill="none"/>
<path d="M 179 228 L 180 229 L 180 251 L 181 251 L 182 252 L 181 253 L 177 253 L 176 252 L 177 251 L 178 251 L 178 229 " stroke="black" stroke-width="1" fill="none"/>
<path d="M 212 182 L 214 180 L 215 180 L 216 181 L 217 181 L 218 182 L 217 183 L 218 182 L 220 182 L 221 183 L 223 183 L 224 184 L 224 185 L 221 188 L 220 188 L 217 185 L 216 185 L 214 183 L 213 183 " stroke="black" stroke-width="1" fill="none"/>
<path d="M 150 179 L 151 180 L 151 209 L 150 210 L 149 209 L 149 180 " stroke="black" stroke-width="1" fill="none"/>
<path d="M 91 178 L 92 179 L 92 210 L 91 211 L 90 210 L 90 179 " stroke="black" stroke-width="1" fill="none"/>
<path d="M 209 176 L 211 178 L 209 180 L 208 180 L 208 201 L 207 202 L 206 201 L 206 179 L 205 178 L 207 176 " stroke="black" stroke-width="1" fill="none"/>
<path d="M 71 166 L 93 175 L 122 158 L 152 176 L 178 160 L 151 180 L 145 176 L 149 180 L 149 209 L 145 213 L 151 209 L 177 225 L 197 215 L 182 227 L 182 250 L 180 228 L 177 251 L 176 227 L 152 213 L 122 229 L 93 214 L 72 224 L 92 210 L 123 226 L 144 211 L 124 223 L 124 220 L 145 209 L 123 220 L 122 226 L 92 210 L 92 179 L 120 162 L 126 164 L 120 162 L 92 179 " stroke="black" stroke-width="1" fill="none"/>
<path d="M 95 181 L 94 182 L 94 206 L 95 206 L 96 207 L 96 181 " stroke="black" stroke-width="1" fill="none"/>
<path d="M 95 181 L 96 182 L 96 205 L 95 206 L 94 205 L 94 182 " stroke="black" stroke-width="1" fill="none"/>
<path d="M 123 165 L 123 166 L 122 167 L 124 169 L 125 169 L 128 172 L 129 172 L 131 174 L 132 174 L 133 175 L 136 176 L 138 178 L 139 178 L 142 180 L 145 180 L 143 180 L 142 179 L 139 178 L 137 176 L 136 176 L 135 175 L 132 174 L 130 172 L 129 172 L 126 169 L 125 169 L 123 167 L 124 166 L 127 167 L 130 170 L 131 170 L 133 172 L 134 172 L 135 173 L 138 174 L 140 176 L 141 176 L 144 178 L 143 177 L 140 176 L 138 174 L 135 173 L 133 171 L 132 171 L 130 169 L 129 169 L 127 167 L 126 167 " stroke="black" stroke-width="1" fill="none"/>
<path d="M 187 157 L 186 158 L 185 158 L 183 160 L 181 160 L 180 161 L 179 161 L 178 160 L 178 159 L 179 158 L 180 158 L 181 157 L 182 157 L 183 156 L 184 156 L 185 155 " stroke="black" stroke-width="1" fill="none"/>
<path d="M 193 149 L 195 151 L 195 152 L 196 153 L 194 155 L 193 155 L 192 156 L 191 156 L 190 157 L 187 157 L 185 155 L 187 153 L 188 153 L 192 149 " stroke="black" stroke-width="1" fill="none"/>
<path d="M 179 143 L 180 144 L 180 156 L 181 157 L 180 158 L 179 158 L 178 157 L 178 144 " stroke="black" stroke-width="1" fill="none"/>
<path d="M 178 133 L 180 135 L 180 142 L 179 143 L 177 141 L 177 134 " stroke="black" stroke-width="1" fill="none"/>
<path d="M 121 133 L 122 134 L 122 158 L 121 159 L 120 158 L 120 134 " stroke="black" stroke-width="1" fill="none"/>
<path d="M 263 103 L 261 105 L 261 112 L 263 114 L 268 114 L 270 112 L 270 105 L 268 103 " stroke="black" stroke-width="1" fill="none"/>
<path d="M 264 103 L 267 103 L 270 106 L 270 111 L 267 114 L 264 114 L 261 111 L 261 106 " stroke="black" stroke-width="1" fill="none"/>
<path d="M 264 106 L 264 111 L 267 111 L 267 106 " stroke="black" stroke-width="1" fill="none"/>
<path d="M 265 106 L 266 106 L 267 107 L 267 110 L 266 111 L 265 111 L 264 110 L 264 107 " stroke="black" stroke-width="1" fill="none"/>
<path d="M 228 65 L 225 65 L 222 67 L 220 67 L 215 71 L 212 72 L 209 75 L 205 75 L 205 85 L 206 86 L 208 84 L 209 85 L 209 91 L 207 93 L 206 92 L 206 88 L 206 106 L 207 105 L 208 106 L 208 104 L 209 103 L 208 102 L 209 101 L 209 100 L 208 99 L 208 96 L 207 96 L 206 95 L 206 94 L 207 93 L 208 94 L 209 93 L 209 83 L 210 82 L 210 78 L 212 76 L 213 76 L 215 74 L 218 73 L 223 69 L 224 69 L 225 68 L 227 68 L 228 67 L 227 66 " stroke="black" stroke-width="1" fill="none"/>
<path d="M 206 104 L 206 103 L 207 102 L 208 102 L 209 103 L 207 105 " stroke="black" stroke-width="1" fill="none"/>
<path d="M 207 98 L 208 99 L 208 101 L 207 102 L 206 101 L 206 99 " stroke="black" stroke-width="1" fill="none"/>
<path d="M 205 83 L 206 82 L 208 82 L 209 83 L 207 85 " stroke="black" stroke-width="1" fill="none"/>
<path d="M 227 66 L 227 67 L 226 68 L 224 68 L 223 69 L 222 69 L 220 71 L 219 71 L 217 73 L 216 73 L 215 74 L 214 74 L 211 77 L 210 77 L 210 81 L 209 82 L 206 82 L 205 81 L 205 76 L 206 75 L 209 75 L 210 74 L 211 74 L 213 72 L 214 72 L 215 71 L 216 71 L 218 69 L 219 69 L 221 67 L 222 67 L 223 66 L 224 66 L 225 65 L 226 65 " stroke="black" stroke-width="1" fill="none"/>
<path d="M 233 53 L 231 55 L 231 62 L 233 64 L 238 64 L 240 62 L 240 55 L 238 53 " stroke="black" stroke-width="1" fill="none"/>
<path d="M 234 53 L 237 53 L 240 56 L 240 61 L 237 64 L 234 64 L 231 61 L 231 56 " stroke="black" stroke-width="1" fill="none"/>
<path d="M 234 56 L 234 61 L 237 61 L 237 56 " stroke="black" stroke-width="1" fill="none"/>
<path d="M 235 56 L 236 56 L 237 57 L 237 60 L 236 61 L 235 61 L 234 60 L 234 57 " stroke="black" stroke-width="1" fill="none"/>
<path d="M 239 33 L 238 34 L 237 33 L 237 35 L 235 37 L 234 36 L 234 34 L 231 34 L 231 43 L 234 43 L 234 40 L 235 39 L 237 41 L 237 43 L 238 43 L 239 44 " stroke="black" stroke-width="1" fill="none"/>
<path d="M 238 34 L 239 35 L 239 42 L 238 43 L 237 42 L 237 41 L 236 40 L 236 37 L 237 36 L 237 35 " stroke="black" stroke-width="1" fill="none"/>
<path d="M 232 34 L 233 34 L 234 35 L 234 42 L 233 43 L 232 43 L 231 42 L 231 35 " stroke="black" stroke-width="1" fill="none"/>
</svg>