<svg xmlns="http://www.w3.org/2000/svg" width="300" height="300" viewBox="0 0 300 300">
<path d="M 157 217 L 157 226 L 160 226 L 160 223 L 161 222 L 163 224 L 163 227 L 164 226 L 165 227 L 165 216 L 164 217 L 163 217 L 163 218 L 161 220 L 160 219 L 160 216 L 159 217 " stroke="black" stroke-width="1" fill="none"/>
<path d="M 164 217 L 165 218 L 165 225 L 164 226 L 163 225 L 163 224 L 162 223 L 162 220 L 163 219 L 163 218 " stroke="black" stroke-width="1" fill="none"/>
<path d="M 158 217 L 159 217 L 160 218 L 160 225 L 159 226 L 158 226 L 157 225 L 157 218 " stroke="black" stroke-width="1" fill="none"/>
<path d="M 247 204 L 245 206 L 245 213 L 247 215 L 252 215 L 254 213 L 254 206 L 252 204 " stroke="black" stroke-width="1" fill="none"/>
<path d="M 248 204 L 251 204 L 254 207 L 254 212 L 251 215 L 248 215 L 245 212 L 245 207 " stroke="black" stroke-width="1" fill="none"/>
<path d="M 248 207 L 248 212 L 251 212 L 251 207 " stroke="black" stroke-width="1" fill="none"/>
<path d="M 249 207 L 250 207 L 251 208 L 251 211 L 250 212 L 249 212 L 248 211 L 248 208 " stroke="black" stroke-width="1" fill="none"/>
<path d="M 242 207 L 239 209 L 219 198 L 190 214 L 165 199 L 189 214 L 188 246 L 193 246 L 192 239 L 193 242 L 191 243 L 193 245 L 192 246 L 188 245 L 188 240 L 190 239 L 189 238 L 190 228 L 192 230 L 192 237 L 192 228 L 189 227 L 189 224 L 190 223 L 191 225 L 192 221 L 191 216 L 190 217 L 189 216 L 190 214 L 198 211 L 219 198 L 239 209 L 241 209 " stroke="black" stroke-width="1" fill="none"/>
<path d="M 190 219 L 191 220 L 191 222 L 190 223 L 189 222 L 189 220 " stroke="black" stroke-width="1" fill="none"/>
<path d="M 202 165 L 201 166 L 200 165 L 200 167 L 198 169 L 197 168 L 197 166 L 194 166 L 194 175 L 197 175 L 197 172 L 198 171 L 200 173 L 200 176 L 201 175 L 202 176 " stroke="black" stroke-width="1" fill="none"/>
<path d="M 201 166 L 202 167 L 202 174 L 201 175 L 200 174 L 200 173 L 199 172 L 199 169 L 200 168 L 200 167 " stroke="black" stroke-width="1" fill="none"/>
<path d="M 195 166 L 196 166 L 197 167 L 197 174 L 196 175 L 195 175 L 194 174 L 194 167 " stroke="black" stroke-width="1" fill="none"/>
<path d="M 70 147 L 72 149 L 73 149 L 74 150 L 77 151 L 79 153 L 86 156 L 88 158 L 89 158 L 96 162 L 98 162 L 99 163 L 101 161 L 102 161 L 104 159 L 107 158 L 109 156 L 110 156 L 112 154 L 113 154 L 115 152 L 116 152 L 118 150 L 119 150 L 121 148 L 122 148 L 123 147 L 120 148 L 118 150 L 117 150 L 115 152 L 114 152 L 112 154 L 111 154 L 106 158 L 103 159 L 101 161 L 100 161 L 100 162 L 99 163 L 98 162 L 97 162 L 96 161 L 89 158 L 87 156 L 80 153 L 78 151 L 73 149 L 71 147 " stroke="black" stroke-width="1" fill="none"/>
<path d="M 68 147 L 67 149 L 68 152 L 81 157 L 85 160 L 95 164 L 98 167 L 99 196 L 101 201 L 131 216 L 136 215 L 156 201 L 156 200 L 133 216 L 102 201 L 99 196 L 98 166 L 81 157 L 70 153 L 67 150 " stroke="black" stroke-width="1" fill="none"/>
<path d="M 144 132 L 144 137 L 147 137 L 147 132 " stroke="black" stroke-width="1" fill="none"/>
<path d="M 145 132 L 146 132 L 147 133 L 147 136 L 146 137 L 145 137 L 144 136 L 144 133 " stroke="black" stroke-width="1" fill="none"/>
<path d="M 105 126 L 104 127 L 103 126 L 103 128 L 101 130 L 100 129 L 100 127 L 97 127 L 97 136 L 100 136 L 100 133 L 101 132 L 103 134 L 103 137 L 104 136 L 105 137 " stroke="black" stroke-width="1" fill="none"/>
<path d="M 104 127 L 105 128 L 105 135 L 104 136 L 103 135 L 103 134 L 102 133 L 102 130 L 103 129 L 103 128 " stroke="black" stroke-width="1" fill="none"/>
<path d="M 98 127 L 99 127 L 100 128 L 100 135 L 99 136 L 98 136 L 97 135 L 97 128 " stroke="black" stroke-width="1" fill="none"/>
<path d="M 242 203 L 222 191 L 221 154 L 214 156 L 214 163 L 221 166 L 217 196 L 190 211 L 162 194 L 160 160 L 185 148 L 191 150 L 192 162 L 196 162 L 192 148 L 211 155 L 191 144 L 193 117 L 200 114 L 198 105 L 191 107 L 194 118 L 188 143 L 161 157 L 188 144 L 195 118 L 190 144 L 209 157 L 191 147 L 160 160 L 152 141 L 158 161 L 149 141 L 155 159 L 128 146 L 100 165 L 102 198 L 131 213 L 158 196 L 159 214 L 164 213 L 164 196 L 192 211 L 219 195 L 220 178 L 222 192 " stroke="black" stroke-width="1" fill="none"/>
<path d="M 161 203 L 163 205 L 163 207 L 164 208 L 164 212 L 162 214 L 160 214 L 159 213 L 159 205 " stroke="black" stroke-width="1" fill="none"/>
<path d="M 159 202 L 159 201 L 161 199 L 162 199 L 163 200 L 163 201 L 161 203 L 160 203 " stroke="black" stroke-width="1" fill="none"/>
<path d="M 159 196 L 160 195 L 162 195 L 163 196 L 163 198 L 162 199 L 160 199 L 159 198 L 160 197 " stroke="black" stroke-width="1" fill="none"/>
<path d="M 220 167 L 221 168 L 221 177 L 220 178 L 219 177 L 219 168 " stroke="black" stroke-width="1" fill="none"/>
<path d="M 158 161 L 159 161 L 160 162 L 160 169 L 161 170 L 161 179 L 162 180 L 162 194 L 161 195 L 160 194 L 160 193 L 159 192 L 159 176 L 158 175 L 158 168 L 157 167 L 157 162 " stroke="black" stroke-width="1" fill="none"/>
<path d="M 192 161 L 194 159 L 195 159 L 196 160 L 196 161 L 195 162 L 193 162 " stroke="black" stroke-width="1" fill="none"/>
<path d="M 217 154 L 220 154 L 223 157 L 223 162 L 220 165 L 217 165 L 214 162 L 214 157 " stroke="black" stroke-width="1" fill="none"/>
<path d="M 217 157 L 217 162 L 220 162 L 220 157 " stroke="black" stroke-width="1" fill="none"/>
<path d="M 218 157 L 219 157 L 220 158 L 220 161 L 219 162 L 218 162 L 217 161 L 217 158 " stroke="black" stroke-width="1" fill="none"/>
<path d="M 128 146 L 130 148 L 134 150 L 136 150 L 148 156 L 152 159 L 155 159 L 157 161 L 158 175 L 159 176 L 159 192 L 160 194 L 133 213 L 104 199 L 102 197 L 102 185 L 101 184 L 101 168 L 100 167 L 100 165 L 124 150 " stroke="black" stroke-width="1" fill="none"/>
<path d="M 194 105 L 197 105 L 200 108 L 200 113 L 197 116 L 194 116 L 191 113 L 191 108 " stroke="black" stroke-width="1" fill="none"/>
<path d="M 194 108 L 194 113 L 197 113 L 197 108 " stroke="black" stroke-width="1" fill="none"/>
<path d="M 195 108 L 196 108 L 197 109 L 197 112 L 196 113 L 195 113 L 194 112 L 194 109 " stroke="black" stroke-width="1" fill="none"/>
<path d="M 156 96 L 151 96 L 149 98 L 149 105 L 152 109 L 151 110 L 151 112 L 149 116 L 149 119 L 148 120 L 148 123 L 147 124 L 147 127 L 149 128 L 148 129 L 143 129 L 141 131 L 141 138 L 143 140 L 146 140 L 144 140 L 141 137 L 141 132 L 144 129 L 147 129 L 150 132 L 150 137 L 148 139 L 150 137 L 150 131 L 148 129 L 150 126 L 150 123 L 151 122 L 151 119 L 154 112 L 154 109 L 154 112 L 151 119 L 151 122 L 150 123 L 150 125 L 148 127 L 147 126 L 147 124 L 148 123 L 148 120 L 149 119 L 150 113 L 152 110 L 151 108 L 152 107 L 156 107 L 158 105 L 158 98 " stroke="black" stroke-width="1" fill="none"/>
<path d="M 152 96 L 155 96 L 158 99 L 158 104 L 155 107 L 152 107 L 149 104 L 149 99 " stroke="black" stroke-width="1" fill="none"/>
<path d="M 152 99 L 152 104 L 155 104 L 155 99 " stroke="black" stroke-width="1" fill="none"/>
<path d="M 153 99 L 154 99 L 155 100 L 155 103 L 154 104 L 153 104 L 152 103 L 152 100 " stroke="black" stroke-width="1" fill="none"/>
<path d="M 183 52 L 179 54 L 172 85 L 140 85 L 120 109 L 126 141 L 113 134 L 108 136 L 109 139 L 125 146 L 117 141 L 120 139 L 152 156 L 128 142 L 122 112 L 143 87 L 170 87 L 143 87 L 122 111 L 127 143 L 119 112 L 141 85 L 173 85 L 181 52 L 184 57 L 177 85 L 163 96 L 169 89 L 162 96 L 177 87 L 189 102 L 176 89 L 189 103 L 176 86 " stroke="black" stroke-width="1" fill="none"/>
<path d="M 108 137 L 111 134 L 112 134 L 114 136 L 115 136 L 117 138 L 118 138 L 119 139 L 117 141 L 114 141 L 113 140 L 112 140 L 111 139 L 110 139 " stroke="black" stroke-width="1" fill="none"/>
</svg>