<svg xmlns="http://www.w3.org/2000/svg" width="300" height="300" viewBox="0 0 300 300">
<path d="M 157 254 L 156 255 L 156 264 L 157 265 L 162 265 L 163 264 L 166 264 L 167 265 L 167 264 L 168 263 L 168 257 L 167 257 L 166 258 L 164 256 L 164 255 L 163 254 " stroke="black" stroke-width="1" fill="none"/>
<path d="M 156 256 L 158 254 L 162 254 L 164 256 L 164 258 L 165 257 L 166 258 L 167 257 L 168 258 L 168 262 L 166 264 L 163 264 L 162 265 L 158 265 L 156 263 " stroke="black" stroke-width="1" fill="none"/>
<path d="M 159 256 L 159 263 L 161 263 L 161 256 L 161 257 L 160 258 L 159 257 " stroke="black" stroke-width="1" fill="none"/>
<path d="M 140 254 L 139 255 L 138 254 L 138 256 L 136 258 L 135 257 L 135 255 L 132 255 L 132 264 L 135 264 L 135 261 L 136 260 L 138 262 L 138 265 L 139 264 L 140 265 " stroke="black" stroke-width="1" fill="none"/>
<path d="M 139 255 L 140 256 L 140 263 L 139 264 L 138 263 L 138 262 L 137 261 L 137 258 L 138 257 L 138 256 " stroke="black" stroke-width="1" fill="none"/>
<path d="M 133 255 L 134 255 L 135 256 L 135 263 L 134 264 L 133 264 L 132 263 L 132 256 " stroke="black" stroke-width="1" fill="none"/>
<path d="M 239 179 L 238 180 L 237 180 L 237 181 L 235 183 L 234 182 L 234 180 L 231 180 L 231 189 L 234 189 L 234 186 L 235 185 L 237 187 L 237 190 L 238 189 L 239 190 " stroke="black" stroke-width="1" fill="none"/>
<path d="M 238 180 L 239 181 L 239 188 L 238 189 L 237 188 L 237 187 L 236 186 L 236 183 L 237 182 L 237 181 " stroke="black" stroke-width="1" fill="none"/>
<path d="M 232 180 L 233 180 L 234 181 L 234 188 L 233 189 L 232 189 L 231 188 L 231 181 " stroke="black" stroke-width="1" fill="none"/>
<path d="M 230 163 L 228 165 L 228 172 L 230 174 L 235 174 L 236 175 L 236 176 L 235 177 L 234 177 L 233 176 L 233 177 L 234 177 L 235 178 L 236 177 L 237 178 L 236 177 L 236 175 L 235 174 L 237 172 L 237 165 L 235 163 " stroke="black" stroke-width="1" fill="none"/>
<path d="M 231 163 L 234 163 L 237 166 L 237 171 L 234 174 L 231 174 L 228 171 L 228 166 " stroke="black" stroke-width="1" fill="none"/>
<path d="M 231 166 L 231 171 L 234 171 L 234 166 " stroke="black" stroke-width="1" fill="none"/>
<path d="M 232 166 L 233 166 L 234 167 L 234 170 L 233 171 L 232 171 L 231 170 L 231 167 " stroke="black" stroke-width="1" fill="none"/>
<path d="M 29 155 L 27 157 L 27 164 L 29 166 L 34 166 L 36 164 L 36 157 L 34 155 " stroke="black" stroke-width="1" fill="none"/>
<path d="M 30 155 L 33 155 L 36 158 L 36 163 L 33 166 L 30 166 L 27 163 L 27 158 " stroke="black" stroke-width="1" fill="none"/>
<path d="M 30 158 L 30 163 L 33 163 L 33 158 " stroke="black" stroke-width="1" fill="none"/>
<path d="M 31 158 L 32 158 L 33 159 L 33 162 L 32 163 L 31 163 L 30 162 L 30 159 " stroke="black" stroke-width="1" fill="none"/>
<path d="M 19 155 L 18 156 L 17 155 L 17 157 L 15 159 L 14 158 L 14 156 L 11 156 L 11 165 L 14 165 L 14 162 L 15 161 L 17 163 L 17 166 L 18 165 L 19 166 " stroke="black" stroke-width="1" fill="none"/>
<path d="M 18 156 L 19 157 L 19 164 L 18 165 L 17 164 L 17 163 L 16 162 L 16 159 L 17 158 L 17 157 " stroke="black" stroke-width="1" fill="none"/>
<path d="M 12 156 L 13 156 L 14 157 L 14 164 L 13 165 L 12 165 L 11 164 L 11 157 " stroke="black" stroke-width="1" fill="none"/>
<path d="M 82 141 L 82 151 L 85 151 L 85 148 L 86 147 L 88 149 L 88 152 L 89 151 L 90 152 L 90 141 L 89 142 L 88 141 L 88 143 L 86 145 L 85 144 L 85 142 L 84 142 L 85 143 L 85 150 L 84 151 L 83 151 L 82 150 " stroke="black" stroke-width="1" fill="none"/>
<path d="M 89 142 L 90 143 L 90 150 L 89 151 L 88 150 L 88 149 L 87 148 L 87 145 L 88 144 L 88 143 " stroke="black" stroke-width="1" fill="none"/>
<path d="M 157 136 L 155 138 L 155 145 L 157 147 L 162 147 L 164 145 L 164 138 L 162 136 " stroke="black" stroke-width="1" fill="none"/>
<path d="M 158 136 L 161 136 L 164 139 L 164 144 L 161 147 L 158 147 L 155 144 L 155 139 " stroke="black" stroke-width="1" fill="none"/>
<path d="M 158 139 L 158 144 L 161 144 L 161 139 " stroke="black" stroke-width="1" fill="none"/>
<path d="M 159 139 L 160 139 L 161 140 L 161 143 L 160 144 L 159 144 L 158 143 L 158 140 " stroke="black" stroke-width="1" fill="none"/>
<path d="M 139 135 L 139 137 L 141 137 L 143 135 L 144 136 L 145 136 L 146 137 L 144 139 L 143 138 L 143 139 L 145 139 L 147 141 L 150 141 L 150 137 L 148 137 L 148 138 L 146 140 L 145 139 L 145 138 L 146 137 L 146 136 L 144 136 L 143 135 " stroke="black" stroke-width="1" fill="none"/>
<path d="M 149 137 L 150 138 L 150 140 L 149 141 L 148 141 L 147 140 L 147 139 " stroke="black" stroke-width="1" fill="none"/>
<path d="M 78 129 L 77 129 L 76 130 L 74 130 L 73 131 L 71 131 L 68 133 L 66 133 L 65 134 L 63 134 L 62 135 L 60 135 L 59 136 L 57 136 L 56 137 L 54 137 L 53 138 L 51 138 L 50 139 L 47 139 L 45 141 L 44 144 L 42 146 L 42 149 L 40 152 L 40 154 L 40 153 L 41 152 L 41 150 L 42 149 L 42 147 L 44 145 L 45 142 L 48 139 L 50 139 L 51 138 L 53 138 L 54 137 L 56 137 L 57 136 L 59 136 L 60 135 L 62 135 L 63 134 L 65 134 L 66 133 L 68 133 L 71 131 L 73 131 L 74 130 L 76 130 L 77 129 " stroke="black" stroke-width="1" fill="none"/>
<path d="M 172 94 L 170 96 L 170 103 L 172 105 L 177 105 L 179 103 L 179 96 L 177 94 " stroke="black" stroke-width="1" fill="none"/>
<path d="M 173 94 L 176 94 L 179 97 L 179 102 L 176 105 L 173 105 L 170 102 L 170 97 " stroke="black" stroke-width="1" fill="none"/>
<path d="M 173 97 L 173 102 L 176 102 L 176 97 " stroke="black" stroke-width="1" fill="none"/>
<path d="M 174 97 L 175 97 L 176 98 L 176 101 L 175 102 L 174 102 L 173 101 L 173 98 " stroke="black" stroke-width="1" fill="none"/>
<path d="M 73 91 L 72 92 L 71 92 L 71 94 L 71 93 L 72 92 L 73 92 L 74 93 L 74 94 L 72 96 L 72 98 L 73 98 L 75 96 L 74 95 L 74 93 L 73 92 " stroke="black" stroke-width="1" fill="none"/>
<path d="M 130 110 L 136 134 L 114 150 L 87 131 L 113 150 L 137 136 L 130 110 L 90 102 L 94 81 L 89 80 L 77 96 L 93 81 L 88 102 L 91 83 L 86 101 L 78 99 L 89 84 L 77 100 L 37 114 L 44 138 L 35 152 L 38 154 L 35 151 L 44 139 L 39 112 L 75 99 L 85 101 L 85 104 L 75 102 L 41 114 L 46 137 L 79 126 L 82 139 L 87 138 L 85 127 L 114 147 L 133 134 L 127 110 L 89 103 " stroke="black" stroke-width="1" fill="none"/>
<path d="M 81 125 L 83 127 L 83 129 L 84 130 L 83 131 L 83 132 L 84 132 L 85 133 L 85 134 L 87 136 L 87 137 L 85 139 L 83 139 L 81 137 L 81 131 L 80 130 L 80 126 " stroke="black" stroke-width="1" fill="none"/>
<path d="M 88 106 L 90 104 L 91 105 L 96 105 L 97 106 L 102 106 L 103 107 L 109 107 L 110 108 L 115 108 L 116 109 L 122 109 L 123 110 L 126 110 L 128 113 L 128 115 L 129 116 L 129 118 L 131 122 L 131 125 L 132 126 L 133 133 L 128 137 L 122 140 L 114 147 L 108 142 L 107 142 L 104 139 L 103 139 L 100 136 L 99 136 L 97 134 L 93 132 L 90 129 L 85 127 L 83 125 L 85 121 L 85 118 L 86 117 L 86 114 L 87 113 L 87 109 L 88 108 " stroke="black" stroke-width="1" fill="none"/>
<path d="M 86 105 L 85 106 L 85 109 L 84 110 L 84 113 L 83 114 L 83 118 L 82 119 L 82 122 L 79 126 L 77 126 L 74 128 L 72 128 L 71 129 L 66 130 L 63 132 L 61 132 L 60 133 L 58 133 L 57 134 L 55 134 L 54 135 L 52 135 L 51 136 L 49 136 L 48 137 L 47 137 L 45 135 L 45 132 L 44 131 L 44 128 L 43 127 L 43 125 L 42 124 L 42 121 L 41 120 L 41 118 L 40 117 L 40 116 L 42 114 L 44 114 L 45 113 L 47 113 L 48 112 L 50 112 L 51 111 L 53 111 L 54 110 L 56 110 L 57 109 L 62 108 L 65 106 L 67 106 L 68 105 L 69 105 L 70 104 L 72 104 L 75 102 L 76 102 L 77 103 L 82 103 L 83 104 L 85 104 " stroke="black" stroke-width="1" fill="none"/>
<path d="M 87 101 L 89 103 L 89 104 L 88 105 L 88 108 L 87 109 L 87 113 L 86 114 L 86 117 L 85 118 L 85 121 L 84 122 L 84 124 L 82 126 L 81 125 L 81 123 L 82 122 L 82 119 L 83 118 L 83 114 L 84 113 L 84 110 L 85 109 L 85 106 L 86 105 L 86 102 " stroke="black" stroke-width="1" fill="none"/>
<path d="M 265 84 L 242 75 L 233 79 L 219 92 L 222 117 L 204 133 L 184 126 L 179 106 L 177 107 L 180 109 L 183 126 L 205 133 L 223 119 L 205 135 L 211 156 L 209 162 L 205 159 L 201 135 L 182 128 L 169 135 L 177 126 L 173 110 L 175 107 L 173 110 L 177 126 L 168 134 L 169 136 L 180 128 L 202 136 L 205 159 L 209 162 L 211 156 L 206 136 L 224 120 L 250 128 L 270 112 " stroke="black" stroke-width="1" fill="none"/>
<path d="M 240 75 L 242 75 L 243 76 L 245 76 L 246 77 L 254 79 L 257 81 L 259 81 L 263 83 L 266 86 L 267 94 L 268 95 L 268 98 L 269 99 L 270 111 L 265 116 L 264 116 L 260 120 L 259 120 L 255 124 L 254 124 L 249 128 L 247 128 L 246 127 L 244 127 L 243 126 L 241 126 L 240 125 L 232 123 L 229 121 L 224 120 L 222 118 L 222 112 L 221 111 L 221 106 L 220 105 L 219 93 L 228 84 L 229 84 L 234 79 L 235 79 " stroke="black" stroke-width="1" fill="none"/>
<path d="M 239 81 L 236 83 L 237 82 L 239 83 L 226 94 L 224 91 L 222 93 L 225 117 L 245 125 L 250 125 L 267 111 L 266 97 L 267 110 L 249 125 L 242 124 L 241 123 L 244 122 L 233 118 L 229 119 L 228 117 L 231 115 L 245 120 L 246 123 L 247 121 L 231 115 L 228 115 L 229 116 L 227 118 L 225 116 L 222 93 L 223 92 L 225 94 L 227 94 L 240 83 " stroke="black" stroke-width="1" fill="none"/>
<path d="M 233 120 L 234 119 L 236 119 L 237 120 L 239 120 L 240 121 L 241 121 L 242 122 L 241 123 L 239 123 L 238 122 L 236 122 L 235 121 L 234 121 " stroke="black" stroke-width="1" fill="none"/>
<path d="M 230 119 L 231 118 L 233 118 L 234 119 L 233 120 L 231 120 " stroke="black" stroke-width="1" fill="none"/>
<path d="M 239 78 L 237 80 L 240 78 L 243 78 L 244 79 L 246 79 L 247 80 L 249 80 L 250 81 L 252 81 L 257 84 L 259 84 L 260 85 L 261 85 L 264 88 L 264 91 L 263 92 L 262 91 L 262 89 L 261 89 L 260 88 L 260 93 L 261 94 L 261 97 L 262 98 L 262 105 L 263 106 L 263 108 L 264 107 L 265 108 L 265 103 L 264 102 L 264 96 L 265 95 L 265 92 L 264 91 L 264 88 L 263 87 L 263 86 L 262 85 L 260 85 L 259 84 L 257 84 L 252 81 L 250 81 L 249 80 L 247 80 L 246 79 L 244 79 L 243 78 " stroke="black" stroke-width="1" fill="none"/>
<path d="M 264 91 L 265 92 L 265 95 L 264 96 L 263 95 L 263 92 " stroke="black" stroke-width="1" fill="none"/>
<path d="M 261 89 L 262 90 L 262 91 L 263 92 L 263 95 L 264 96 L 264 102 L 265 103 L 265 106 L 264 107 L 262 105 L 262 98 L 261 97 L 261 94 L 260 93 L 260 90 " stroke="black" stroke-width="1" fill="none"/>
<path d="M 72 73 L 71 74 L 70 73 L 70 75 L 68 77 L 67 76 L 67 74 L 64 74 L 64 83 L 67 83 L 67 80 L 68 79 L 70 81 L 70 84 L 71 84 L 72 83 " stroke="black" stroke-width="1" fill="none"/>
<path d="M 71 74 L 72 75 L 72 83 L 71 84 L 70 83 L 70 81 L 69 80 L 69 77 L 70 76 L 70 75 " stroke="black" stroke-width="1" fill="none"/>
<path d="M 65 74 L 66 74 L 67 75 L 67 82 L 66 83 L 65 83 L 64 82 L 64 75 " stroke="black" stroke-width="1" fill="none"/>
<path d="M 97 68 L 96 69 L 95 68 L 95 71 L 94 72 L 92 70 L 92 69 L 90 69 L 89 70 L 89 78 L 92 78 L 92 77 L 93 76 L 94 77 L 94 78 L 97 78 " stroke="black" stroke-width="1" fill="none"/>
<path d="M 91 69 L 92 70 L 92 71 L 93 72 L 92 73 L 93 72 L 94 72 L 95 71 L 95 70 L 96 69 L 97 70 L 97 77 L 96 78 L 95 78 L 94 77 L 94 76 L 93 75 L 94 74 L 93 75 L 93 76 L 91 78 L 90 78 L 89 77 L 89 71 " stroke="black" stroke-width="1" fill="none"/>
<path d="M 108 52 L 108 54 L 107 55 L 107 56 L 106 57 L 106 58 L 104 60 L 104 61 L 103 62 L 103 63 L 102 64 L 102 65 L 101 66 L 100 66 L 99 65 L 100 64 L 100 63 L 101 62 L 101 61 L 102 60 L 102 59 L 104 57 L 104 56 L 105 55 L 105 54 L 106 53 L 106 52 L 105 53 L 105 54 L 104 55 L 104 56 L 102 58 L 102 59 L 101 60 L 101 61 L 100 62 L 100 64 L 99 65 L 99 66 L 100 66 L 101 67 L 102 66 L 102 65 L 103 64 L 103 63 L 104 62 L 104 61 L 106 59 L 106 58 L 107 57 L 107 56 L 108 55 " stroke="black" stroke-width="1" fill="none"/>
</svg>