<svg xmlns="http://www.w3.org/2000/svg" width="300" height="300" viewBox="0 0 300 300">
<path d="M 100 228 L 100 236 L 101 235 L 102 236 L 102 234 L 103 233 L 104 233 L 105 234 L 105 235 L 107 235 L 107 228 L 105 228 L 104 229 L 103 229 L 102 228 " stroke="black" stroke-width="1" fill="none"/>
<path d="M 100 229 L 101 228 L 102 229 L 105 229 L 106 228 L 107 229 L 107 234 L 106 235 L 105 234 L 105 233 L 104 232 L 104 231 L 104 232 L 103 233 L 102 233 L 102 234 L 101 235 L 100 234 " stroke="black" stroke-width="1" fill="none"/>
<path d="M 27 219 L 27 226 L 28 226 L 29 227 L 33 227 L 35 225 L 35 220 L 33 218 L 29 218 L 28 219 " stroke="black" stroke-width="1" fill="none"/>
<path d="M 29 218 L 32 218 L 35 221 L 35 224 L 32 227 L 29 227 L 27 225 L 27 220 " stroke="black" stroke-width="1" fill="none"/>
<path d="M 30 221 L 29 222 L 29 223 L 30 224 L 32 224 L 32 221 " stroke="black" stroke-width="1" fill="none"/>
<path d="M 29 222 L 30 221 L 31 221 L 32 222 L 32 223 L 31 224 L 30 224 L 29 223 " stroke="black" stroke-width="1" fill="none"/>
<path d="M 12 209 L 12 218 L 13 217 L 14 218 L 14 216 L 15 215 L 16 215 L 17 216 L 17 217 L 19 217 L 19 210 L 17 210 L 16 211 L 15 211 L 14 210 L 14 209 L 13 210 " stroke="black" stroke-width="1" fill="none"/>
<path d="M 12 211 L 13 210 L 14 211 L 17 211 L 18 210 L 19 211 L 19 216 L 18 217 L 17 216 L 17 215 L 16 214 L 16 213 L 16 214 L 15 215 L 14 215 L 14 216 L 13 217 L 12 216 " stroke="black" stroke-width="1" fill="none"/>
<path d="M 100 177 L 81 165 L 77 165 L 68 171 L 59 175 L 53 179 L 53 206 L 50 209 L 36 215 L 38 215 L 53 207 L 53 180 L 60 175 L 69 171 L 76 166 L 80 165 L 82 167 " stroke="black" stroke-width="1" fill="none"/>
<path d="M 280 143 L 280 152 L 281 151 L 282 152 L 282 150 L 283 149 L 284 149 L 285 150 L 285 151 L 287 151 L 287 144 L 285 144 L 284 145 L 283 145 L 282 144 L 282 143 L 281 144 " stroke="black" stroke-width="1" fill="none"/>
<path d="M 280 145 L 281 144 L 282 145 L 285 145 L 286 144 L 287 145 L 287 150 L 286 151 L 285 150 L 285 149 L 284 148 L 284 147 L 284 148 L 283 149 L 282 149 L 282 150 L 281 151 L 280 150 " stroke="black" stroke-width="1" fill="none"/>
<path d="M 267 136 L 267 143 L 268 143 L 269 144 L 273 144 L 275 142 L 275 137 L 273 135 L 269 135 L 268 136 " stroke="black" stroke-width="1" fill="none"/>
<path d="M 269 135 L 272 135 L 275 138 L 275 141 L 272 144 L 269 144 L 267 142 L 267 137 " stroke="black" stroke-width="1" fill="none"/>
<path d="M 270 138 L 269 139 L 269 140 L 270 141 L 272 141 L 272 138 " stroke="black" stroke-width="1" fill="none"/>
<path d="M 269 139 L 270 138 L 271 138 L 272 139 L 272 140 L 271 141 L 270 141 L 269 140 " stroke="black" stroke-width="1" fill="none"/>
<path d="M 171 113 L 171 122 L 172 121 L 173 121 L 173 120 L 174 119 L 175 119 L 176 120 L 175 121 L 176 120 L 176 119 L 175 118 L 174 119 L 173 119 L 173 120 L 172 121 L 171 120 L 171 115 L 172 114 L 173 115 L 173 114 L 172 114 " stroke="black" stroke-width="1" fill="none"/>
<path d="M 264 145 L 248 151 L 224 138 L 242 122 L 232 98 L 205 101 L 201 127 L 222 141 L 199 128 L 177 141 L 196 123 L 187 115 L 196 127 L 176 139 L 183 116 L 176 108 L 183 115 L 171 140 L 150 130 L 129 143 L 129 167 L 167 203 L 132 171 L 106 180 L 126 168 L 129 139 L 151 127 L 170 137 L 150 127 L 127 140 L 127 166 L 105 177 L 101 154 L 101 180 L 80 168 L 56 180 L 55 208 L 78 222 L 103 208 L 130 221 L 150 209 L 153 186 L 151 211 L 129 224 L 99 213 L 79 227 L 54 210 L 36 217 L 54 210 L 77 225 L 64 247 L 77 225 L 66 248 L 79 227 L 91 248 L 81 225 L 93 248 L 82 224 L 106 212 L 132 223 L 153 210 L 154 187 L 169 202 L 154 182 L 177 168 L 197 180 L 218 170 L 224 138 L 247 153 L 225 143 L 219 172 L 200 183 L 177 172 L 180 193 L 187 191 L 178 172 L 201 183 L 224 169 L 225 143 L 243 155 " stroke="black" stroke-width="1" fill="none"/>
<path d="M 180 189 L 182 187 L 183 187 L 184 188 L 184 189 L 183 190 L 181 190 " stroke="black" stroke-width="1" fill="none"/>
<path d="M 179 185 L 181 183 L 182 184 L 182 185 L 183 185 L 184 186 L 183 187 L 182 187 L 181 188 L 180 187 L 180 186 " stroke="black" stroke-width="1" fill="none"/>
<path d="M 104 182 L 105 183 L 105 207 L 104 208 L 103 207 L 103 183 " stroke="black" stroke-width="1" fill="none"/>
<path d="M 101 180 L 102 179 L 104 179 L 105 178 L 106 179 L 106 181 L 105 182 L 104 182 L 103 181 L 102 181 " stroke="black" stroke-width="1" fill="none"/>
<path d="M 127 170 L 129 170 L 141 176 L 143 178 L 146 179 L 151 183 L 151 207 L 146 211 L 136 216 L 129 221 L 127 221 L 120 216 L 110 211 L 105 207 L 105 183 L 107 181 L 120 175 " stroke="black" stroke-width="1" fill="none"/>
<path d="M 174 169 L 172 171 L 171 171 L 170 172 L 169 172 L 168 173 L 167 173 L 166 174 L 165 174 L 164 175 L 163 175 L 161 177 L 160 177 L 158 179 L 157 179 L 156 180 L 155 180 L 155 181 L 154 182 L 152 180 L 154 178 L 155 178 L 157 176 L 158 176 L 159 175 L 160 175 L 162 173 L 163 173 L 164 172 L 165 172 L 166 171 L 167 171 L 168 170 L 169 170 L 170 169 L 171 169 L 172 168 L 173 168 " stroke="black" stroke-width="1" fill="none"/>
<path d="M 78 168 L 83 170 L 85 172 L 88 173 L 90 175 L 93 176 L 95 178 L 103 182 L 103 207 L 100 210 L 97 211 L 95 213 L 92 214 L 90 216 L 87 217 L 80 222 L 78 222 L 74 219 L 67 216 L 65 214 L 58 210 L 55 207 L 55 182 L 57 180 L 71 173 " stroke="black" stroke-width="1" fill="none"/>
<path d="M 173 168 L 174 167 L 176 167 L 177 168 L 175 170 " stroke="black" stroke-width="1" fill="none"/>
<path d="M 102 154 L 105 154 L 106 155 L 106 173 L 105 174 L 105 178 L 104 179 L 103 179 L 102 178 L 103 177 L 102 176 L 102 165 L 101 164 L 101 155 " stroke="black" stroke-width="1" fill="none"/>
<path d="M 263 144 L 263 145 L 262 146 L 261 146 L 259 148 L 258 148 L 257 149 L 256 149 L 254 151 L 253 151 L 252 152 L 251 152 L 250 153 L 248 153 L 247 152 L 248 151 L 249 151 L 250 150 L 251 150 L 252 149 L 253 149 L 255 147 L 256 147 L 258 145 L 259 145 L 260 144 L 261 144 L 262 143 " stroke="black" stroke-width="1" fill="none"/>
<path d="M 173 136 L 174 136 L 175 137 L 175 139 L 177 141 L 176 142 L 176 166 L 175 167 L 174 166 L 174 142 L 172 140 L 172 137 " stroke="black" stroke-width="1" fill="none"/>
<path d="M 172 134 L 174 132 L 175 132 L 176 133 L 176 134 L 174 136 " stroke="black" stroke-width="1" fill="none"/>
<path d="M 151 130 L 153 130 L 157 133 L 164 136 L 166 138 L 171 140 L 174 143 L 174 166 L 172 168 L 161 173 L 156 177 L 153 178 L 152 180 L 144 174 L 129 167 L 142 162 L 142 159 L 141 158 L 138 158 L 134 161 L 140 158 L 142 161 L 137 164 L 136 163 L 135 164 L 134 163 L 131 163 L 131 164 L 132 163 L 134 164 L 132 166 L 129 165 L 129 143 L 139 136 " stroke="black" stroke-width="1" fill="none"/>
<path d="M 144 151 L 144 159 L 145 159 L 146 160 L 146 158 L 147 157 L 148 157 L 149 158 L 149 159 L 151 159 L 151 152 L 149 152 L 148 153 L 147 153 L 146 152 L 146 151 L 145 152 " stroke="black" stroke-width="1" fill="none"/>
<path d="M 144 153 L 145 152 L 146 153 L 149 153 L 150 152 L 151 153 L 151 158 L 150 159 L 149 158 L 149 157 L 148 156 L 148 155 L 148 156 L 147 157 L 146 157 L 146 158 L 145 159 L 144 158 " stroke="black" stroke-width="1" fill="none"/>
<path d="M 199 128 L 202 131 L 220 140 L 222 142 L 222 166 L 217 170 L 207 175 L 200 180 L 198 180 L 191 175 L 179 169 L 176 166 L 176 143 L 181 139 L 184 138 L 186 136 L 196 131 " stroke="black" stroke-width="1" fill="none"/>
<path d="M 176 123 L 177 124 L 177 127 L 176 128 L 176 130 L 174 132 L 172 130 L 172 125 L 174 123 " stroke="black" stroke-width="1" fill="none"/>
<path d="M 192 123 L 193 122 L 194 122 L 195 123 L 195 124 L 194 125 " stroke="black" stroke-width="1" fill="none"/>
<path d="M 186 120 L 189 117 L 192 120 L 193 120 L 194 121 L 192 123 L 191 123 L 190 122 L 188 122 " stroke="black" stroke-width="1" fill="none"/>
<path d="M 207 100 L 215 100 L 216 99 L 224 99 L 225 98 L 231 98 L 232 99 L 232 100 L 233 101 L 233 103 L 239 114 L 239 116 L 242 120 L 242 121 L 237 126 L 236 126 L 231 131 L 230 131 L 224 137 L 224 138 L 223 139 L 221 137 L 220 137 L 219 136 L 218 136 L 217 135 L 210 132 L 208 130 L 205 129 L 201 126 L 201 122 L 202 121 L 202 118 L 203 117 L 203 113 L 204 112 L 204 106 L 205 105 L 205 102 " stroke="black" stroke-width="1" fill="none"/>
<path d="M 194 53 L 185 77 L 162 81 L 159 84 L 162 84 L 160 83 L 162 81 L 183 77 L 185 79 L 181 80 L 184 81 L 188 77 L 196 88 L 194 90 L 185 83 L 162 88 L 164 85 L 167 85 L 160 88 L 187 84 L 203 100 L 198 126 L 203 100 L 194 90 L 196 88 L 205 98 L 232 95 L 245 122 L 228 138 L 245 123 L 243 115 L 233 95 L 205 98 L 189 77 L 196 53 " stroke="black" stroke-width="1" fill="none"/>
<path d="M 195 54 L 196 55 L 196 56 L 195 57 L 195 59 L 194 60 L 194 61 L 193 62 L 193 64 L 192 65 L 192 66 L 191 67 L 191 69 L 190 70 L 190 73 L 189 74 L 189 76 L 187 78 L 186 77 L 186 74 L 187 73 L 187 71 L 188 70 L 188 68 L 189 67 L 189 65 L 190 64 L 190 62 L 191 61 L 191 60 L 192 59 L 192 57 L 193 56 L 193 55 L 194 54 " stroke="black" stroke-width="1" fill="none"/>
</svg>