<svg xmlns="http://www.w3.org/2000/svg" width="300" height="300" viewBox="0 0 300 300">
<path d="M 107 233 L 107 242 L 108 241 L 109 242 L 109 240 L 110 239 L 111 239 L 112 240 L 112 241 L 114 241 L 114 234 L 112 234 L 111 235 L 110 235 L 109 234 L 109 233 L 108 234 " stroke="black" stroke-width="1" fill="none"/>
<path d="M 107 235 L 108 234 L 109 235 L 112 235 L 113 234 L 114 235 L 114 240 L 113 241 L 112 240 L 112 239 L 111 238 L 111 237 L 111 238 L 110 239 L 109 239 L 109 240 L 108 241 L 107 240 " stroke="black" stroke-width="1" fill="none"/>
<path d="M 28 224 L 28 231 L 29 231 L 30 232 L 34 232 L 36 230 L 36 225 L 34 223 L 30 223 L 29 224 " stroke="black" stroke-width="1" fill="none"/>
<path d="M 30 223 L 33 223 L 36 226 L 36 229 L 33 232 L 30 232 L 28 230 L 28 225 " stroke="black" stroke-width="1" fill="none"/>
<path d="M 31 226 L 30 227 L 30 228 L 31 229 L 33 229 L 33 226 " stroke="black" stroke-width="1" fill="none"/>
<path d="M 30 227 L 31 226 L 32 226 L 33 227 L 33 228 L 32 229 L 31 229 L 30 228 " stroke="black" stroke-width="1" fill="none"/>
<path d="M 23 222 L 23 223 L 22 224 L 23 225 L 25 225 L 25 222 " stroke="black" stroke-width="1" fill="none"/>
<path d="M 12 214 L 12 223 L 13 222 L 14 223 L 14 221 L 15 220 L 16 220 L 17 221 L 17 222 L 19 222 L 19 215 L 17 215 L 16 216 L 15 216 L 14 215 L 14 214 L 13 215 " stroke="black" stroke-width="1" fill="none"/>
<path d="M 12 216 L 13 215 L 14 216 L 17 216 L 18 215 L 19 216 L 19 221 L 18 222 L 17 221 L 17 220 L 16 219 L 16 218 L 16 219 L 15 220 L 14 220 L 14 221 L 13 222 L 12 221 " stroke="black" stroke-width="1" fill="none"/>
<path d="M 190 180 L 190 182 L 191 182 L 190 181 L 192 179 L 193 180 L 193 183 L 192 184 L 191 184 L 191 186 L 192 187 L 192 190 L 193 191 L 193 194 L 199 194 L 194 194 L 193 193 L 194 192 L 193 191 L 195 189 L 197 189 L 198 190 L 197 191 L 196 191 L 197 191 L 198 192 L 199 192 L 198 191 L 198 190 L 197 189 L 197 188 L 196 187 L 196 186 L 195 185 L 195 184 L 193 182 L 193 179 L 192 179 L 191 180 " stroke="black" stroke-width="1" fill="none"/>
<path d="M 192 189 L 194 187 L 195 187 L 196 188 L 194 190 L 193 190 " stroke="black" stroke-width="1" fill="none"/>
<path d="M 191 185 L 193 183 L 194 184 L 194 185 L 195 185 L 196 186 L 195 187 L 194 187 L 193 188 L 192 187 L 192 186 " stroke="black" stroke-width="1" fill="none"/>
<path d="M 185 172 L 184 172 L 183 173 L 182 173 L 181 174 L 180 174 L 178 176 L 177 176 L 176 177 L 175 177 L 174 178 L 173 178 L 172 179 L 171 179 L 169 181 L 168 181 L 167 182 L 166 182 L 166 183 L 167 182 L 168 182 L 169 181 L 170 181 L 172 179 L 173 179 L 174 178 L 175 178 L 176 177 L 177 177 L 178 176 L 179 176 L 181 174 L 182 174 L 183 173 L 184 173 " stroke="black" stroke-width="1" fill="none"/>
<path d="M 154 151 L 154 160 L 155 159 L 156 160 L 156 158 L 157 157 L 158 157 L 159 158 L 159 159 L 161 159 L 161 152 L 159 152 L 158 153 L 157 153 L 156 152 L 156 151 L 155 152 " stroke="black" stroke-width="1" fill="none"/>
<path d="M 154 153 L 155 152 L 156 153 L 159 153 L 160 152 L 161 153 L 161 158 L 160 159 L 159 158 L 159 157 L 158 156 L 158 155 L 158 156 L 157 157 L 156 157 L 156 158 L 155 159 L 154 158 " stroke="black" stroke-width="1" fill="none"/>
<path d="M 163 132 L 164 133 L 165 133 L 167 135 L 168 135 L 169 136 L 170 136 L 171 137 L 172 137 L 174 139 L 175 139 L 176 140 L 177 140 L 179 142 L 181 142 L 180 142 L 178 140 L 177 140 L 176 139 L 175 139 L 173 137 L 172 137 L 171 136 L 170 136 L 169 135 L 168 135 L 166 133 L 165 133 L 164 132 " stroke="black" stroke-width="1" fill="none"/>
<path d="M 187 107 L 187 116 L 188 115 L 189 116 L 189 114 L 190 113 L 191 113 L 192 114 L 192 116 L 193 115 L 194 115 L 194 108 L 192 108 L 191 109 L 190 109 L 189 108 L 189 107 L 188 108 " stroke="black" stroke-width="1" fill="none"/>
<path d="M 187 109 L 188 108 L 189 109 L 192 109 L 193 108 L 194 109 L 194 114 L 193 115 L 192 114 L 192 113 L 191 112 L 191 111 L 191 112 L 190 113 L 189 113 L 189 114 L 188 115 L 187 114 " stroke="black" stroke-width="1" fill="none"/>
<path d="M 264 92 L 241 79 L 213 94 L 185 82 L 211 95 L 212 121 L 197 114 L 211 126 L 183 139 L 184 169 L 162 182 L 139 168 L 151 160 L 138 164 L 138 142 L 161 127 L 139 140 L 138 165 L 149 159 L 139 168 L 162 183 L 139 171 L 112 182 L 135 169 L 136 140 L 161 124 L 185 138 L 208 126 L 186 138 L 160 124 L 136 139 L 134 169 L 112 180 L 113 154 L 108 179 L 80 167 L 56 181 L 56 211 L 37 220 L 56 212 L 56 182 L 85 166 L 108 181 L 82 169 L 59 182 L 59 214 L 85 227 L 112 212 L 139 226 L 161 213 L 162 186 L 164 213 L 136 229 L 106 217 L 84 232 L 57 215 L 38 224 L 57 215 L 82 230 L 68 254 L 84 232 L 99 254 L 88 228 L 108 217 L 113 230 L 113 216 L 145 226 L 164 214 L 164 188 L 182 204 L 164 180 L 186 167 L 212 182 L 236 170 L 239 138 L 265 122 " stroke="black" stroke-width="1" fill="none"/>
<path d="M 86 230 L 87 231 L 87 233 L 89 235 L 89 236 L 90 237 L 90 238 L 91 239 L 91 240 L 92 241 L 92 242 L 93 243 L 93 244 L 95 246 L 95 247 L 96 248 L 96 249 L 98 251 L 98 252 L 99 253 L 98 254 L 97 254 L 96 253 L 96 252 L 94 250 L 94 249 L 93 248 L 93 247 L 91 245 L 91 244 L 90 243 L 90 242 L 89 241 L 89 240 L 88 239 L 88 238 L 86 236 L 86 235 L 85 234 L 85 233 L 84 232 " stroke="black" stroke-width="1" fill="none"/>
<path d="M 82 230 L 84 232 L 82 234 L 82 235 L 80 237 L 80 238 L 79 239 L 79 240 L 77 242 L 77 243 L 76 244 L 76 245 L 74 247 L 74 248 L 73 249 L 73 250 L 71 252 L 71 253 L 70 254 L 69 254 L 68 253 L 69 252 L 69 251 L 71 249 L 71 248 L 72 247 L 72 246 L 74 244 L 74 243 L 75 242 L 75 241 L 77 239 L 77 238 L 78 237 L 78 236 L 80 234 L 80 233 L 81 232 L 81 231 " stroke="black" stroke-width="1" fill="none"/>
<path d="M 108 228 L 109 227 L 112 227 L 113 228 L 113 229 L 112 230 L 109 230 L 108 229 " stroke="black" stroke-width="1" fill="none"/>
<path d="M 108 223 L 109 222 L 111 222 L 112 223 L 112 224 L 111 225 L 112 226 L 111 227 L 110 227 L 109 226 L 109 224 " stroke="black" stroke-width="1" fill="none"/>
<path d="M 166 186 L 168 188 L 168 189 L 182 203 L 179 206 L 178 206 L 176 204 L 176 203 L 174 201 L 174 200 L 171 197 L 171 196 L 169 194 L 169 193 L 164 188 " stroke="black" stroke-width="1" fill="none"/>
<path d="M 111 184 L 112 185 L 112 211 L 111 212 L 110 211 L 110 185 " stroke="black" stroke-width="1" fill="none"/>
<path d="M 161 184 L 162 183 L 163 183 L 166 186 L 164 188 L 161 185 " stroke="black" stroke-width="1" fill="none"/>
<path d="M 136 171 L 138 171 L 142 174 L 151 178 L 161 185 L 161 212 L 159 214 L 156 215 L 154 217 L 142 223 L 138 226 L 136 226 L 132 223 L 125 220 L 123 218 L 115 214 L 112 211 L 112 185 L 114 183 L 132 174 " stroke="black" stroke-width="1" fill="none"/>
<path d="M 83 169 L 85 169 L 87 171 L 92 173 L 94 175 L 107 182 L 110 185 L 110 211 L 107 214 L 100 217 L 98 219 L 95 220 L 93 222 L 90 223 L 88 225 L 84 227 L 76 223 L 74 221 L 67 218 L 65 216 L 60 214 L 58 212 L 58 184 L 60 182 L 74 175 L 76 173 L 81 171 " stroke="black" stroke-width="1" fill="none"/>
<path d="M 109 154 L 112 154 L 113 155 L 113 165 L 112 166 L 112 178 L 111 179 L 112 180 L 111 181 L 113 183 L 112 184 L 110 184 L 108 182 L 108 181 L 109 180 L 108 179 L 109 178 L 109 175 L 108 174 L 108 159 L 107 158 L 107 157 L 108 156 L 108 155 " stroke="black" stroke-width="1" fill="none"/>
<path d="M 187 141 L 188 142 L 188 167 L 187 168 L 186 167 L 186 142 " stroke="black" stroke-width="1" fill="none"/>
<path d="M 213 125 L 219 130 L 229 135 L 231 137 L 236 139 L 238 141 L 238 167 L 235 170 L 232 171 L 230 173 L 218 179 L 214 182 L 209 180 L 207 178 L 197 173 L 195 171 L 191 170 L 188 167 L 188 142 L 191 139 L 194 138 L 204 131 L 207 130 " stroke="black" stroke-width="1" fill="none"/>
<path d="M 212 94 L 214 96 L 214 123 L 216 125 L 219 126 L 226 131 L 233 134 L 235 136 L 237 136 L 239 138 L 238 140 L 232 137 L 230 135 L 225 133 L 223 131 L 220 130 L 213 125 L 211 126 L 210 124 L 204 121 L 199 120 L 196 117 L 199 113 L 205 118 L 206 118 L 210 122 L 212 121 L 212 107 L 211 106 L 211 95 " stroke="black" stroke-width="1" fill="none"/>
<path d="M 240 79 L 242 81 L 256 88 L 258 90 L 263 92 L 265 94 L 265 122 L 263 124 L 258 126 L 256 128 L 242 135 L 239 138 L 234 134 L 227 131 L 225 129 L 217 125 L 214 122 L 214 96 L 213 95 L 218 91 L 223 89 L 225 87 L 228 86 L 235 81 " stroke="black" stroke-width="1" fill="none"/>
<path d="M 240 72 L 235 78 L 213 91 L 190 76 L 185 79 L 189 76 L 213 91 L 240 76 L 267 92 L 267 124 L 241 139 L 265 152 L 261 155 L 241 142 L 240 169 L 214 185 L 193 175 L 211 185 L 221 182 L 240 170 L 241 142 L 260 155 L 265 153 L 263 149 L 243 139 L 267 125 L 267 91 L 242 77 " stroke="black" stroke-width="1" fill="none"/>
<path d="M 236 47 L 236 53 L 237 54 L 237 52 L 236 51 L 237 50 L 238 50 L 237 50 L 236 49 L 236 48 L 237 47 L 240 47 L 241 48 L 241 53 L 240 54 L 239 54 L 240 55 L 240 64 L 239 65 L 238 64 L 238 62 L 237 61 L 237 56 L 237 62 L 238 63 L 238 70 L 240 70 L 240 55 L 241 54 L 241 47 " stroke="black" stroke-width="1" fill="none"/>
<path d="M 239 65 L 240 66 L 240 69 L 239 70 L 238 69 L 238 66 " stroke="black" stroke-width="1" fill="none"/>
</svg>