<svg xmlns="http://www.w3.org/2000/svg" width="300" height="300" viewBox="0 0 300 300">
<path d="M 177 195 L 176 196 L 176 202 L 181 202 L 182 203 L 182 204 L 181 205 L 180 204 L 180 206 L 178 208 L 177 207 L 177 205 L 174 205 L 174 214 L 177 214 L 177 211 L 178 210 L 180 212 L 180 215 L 181 214 L 182 215 L 182 203 L 181 202 L 181 196 L 180 195 L 179 196 L 178 196 " stroke="black" stroke-width="1" fill="none"/>
<path d="M 181 205 L 182 206 L 182 213 L 181 214 L 180 213 L 180 212 L 179 211 L 179 208 L 180 207 L 180 206 " stroke="black" stroke-width="1" fill="none"/>
<path d="M 175 205 L 176 205 L 177 206 L 177 213 L 176 214 L 175 214 L 174 213 L 174 206 " stroke="black" stroke-width="1" fill="none"/>
<path d="M 176 200 L 177 199 L 180 199 L 181 200 L 181 201 L 180 202 L 177 202 L 176 201 " stroke="black" stroke-width="1" fill="none"/>
<path d="M 176 198 L 178 196 L 179 196 L 181 198 L 180 199 L 177 199 " stroke="black" stroke-width="1" fill="none"/>
<path d="M 178 187 L 178 190 L 177 191 L 177 193 L 177 191 L 178 190 L 179 190 L 180 191 L 180 193 L 180 187 " stroke="black" stroke-width="1" fill="none"/>
<path d="M 125 176 L 124 177 L 123 177 L 123 179 L 122 180 L 120 178 L 120 177 L 118 177 L 117 178 L 117 186 L 120 186 L 120 185 L 121 184 L 122 185 L 122 186 L 125 186 " stroke="black" stroke-width="1" fill="none"/>
<path d="M 119 177 L 120 178 L 120 179 L 121 180 L 120 181 L 121 180 L 122 180 L 123 179 L 123 178 L 124 177 L 125 178 L 125 185 L 124 186 L 123 186 L 122 185 L 122 184 L 121 183 L 122 182 L 121 183 L 121 184 L 119 186 L 118 186 L 117 185 L 117 179 " stroke="black" stroke-width="1" fill="none"/>
<path d="M 212 127 L 211 128 L 210 128 L 210 130 L 209 131 L 207 129 L 207 128 L 205 128 L 204 129 L 204 137 L 207 137 L 207 136 L 208 135 L 209 136 L 209 137 L 212 137 " stroke="black" stroke-width="1" fill="none"/>
<path d="M 206 128 L 207 129 L 207 130 L 208 131 L 207 132 L 208 131 L 209 131 L 210 130 L 210 129 L 211 128 L 212 129 L 212 136 L 211 137 L 210 137 L 209 136 L 209 135 L 208 134 L 209 133 L 208 134 L 208 135 L 206 137 L 205 137 L 204 136 L 204 130 " stroke="black" stroke-width="1" fill="none"/>
<path d="M 177 127 L 176 128 L 176 134 L 177 135 L 177 144 L 178 145 L 178 146 L 178 144 L 177 143 L 178 142 L 177 141 L 177 140 L 178 139 L 179 139 L 180 140 L 180 146 L 180 135 L 181 134 L 181 128 L 180 127 " stroke="black" stroke-width="1" fill="none"/>
<path d="M 177 137 L 178 136 L 179 136 L 180 137 L 180 138 L 179 139 L 178 139 L 177 138 " stroke="black" stroke-width="1" fill="none"/>
<path d="M 178 127 L 179 127 L 181 129 L 181 133 L 180 134 L 177 134 L 176 133 L 176 129 " stroke="black" stroke-width="1" fill="none"/>
<path d="M 182 115 L 181 116 L 180 115 L 180 117 L 178 119 L 177 118 L 177 116 L 174 116 L 174 125 L 176 125 L 177 124 L 177 122 L 178 121 L 180 123 L 180 125 L 181 125 L 182 126 " stroke="black" stroke-width="1" fill="none"/>
<path d="M 181 116 L 182 117 L 182 124 L 181 125 L 180 124 L 180 123 L 179 122 L 179 119 L 180 118 L 180 117 " stroke="black" stroke-width="1" fill="none"/>
<path d="M 175 116 L 176 116 L 177 117 L 177 124 L 176 125 L 175 125 L 174 124 L 174 117 " stroke="black" stroke-width="1" fill="none"/>
<path d="M 130 113 L 129 114 L 128 113 L 128 115 L 129 114 L 130 115 L 130 122 L 129 123 L 128 122 L 128 119 L 127 119 L 126 118 L 126 116 L 125 115 L 125 114 L 122 114 L 122 115 L 123 116 L 123 118 L 122 119 L 123 120 L 122 121 L 123 122 L 123 124 L 124 125 L 124 124 L 123 123 L 123 116 L 122 115 L 123 114 L 124 114 L 126 117 L 126 125 L 126 120 L 127 119 L 128 120 L 128 122 L 130 124 " stroke="black" stroke-width="1" fill="none"/>
<path d="M 210 97 L 178 81 L 149 98 L 150 132 L 149 99 L 179 81 L 211 99 L 209 125 L 208 99 L 181 84 L 152 99 L 152 132 L 176 149 L 149 136 L 125 150 L 148 133 L 136 122 L 147 134 L 125 147 L 120 127 L 120 147 L 91 132 L 62 148 L 62 185 L 90 201 L 90 238 L 96 201 L 115 189 L 92 199 L 66 184 L 64 151 L 92 135 L 121 151 L 121 174 L 123 151 L 150 136 L 178 152 L 175 184 L 151 198 L 130 186 L 152 198 L 177 185 L 152 201 L 129 188 L 149 201 L 177 185 L 210 200 L 237 184 L 238 150 L 219 137 L 238 151 L 238 180 L 207 200 L 180 184 L 206 197 L 231 185 L 235 151 L 216 139 L 236 153 L 235 181 L 207 197 L 180 181 L 180 152 L 201 137 L 177 148 L 152 132 L 153 99 L 180 84 L 208 100 L 210 125 " stroke="black" stroke-width="1" fill="none"/>
<path d="M 91 227 L 94 227 L 97 230 L 97 235 L 94 238 L 91 238 L 88 235 L 88 230 " stroke="black" stroke-width="1" fill="none"/>
<path d="M 91 230 L 91 235 L 94 235 L 94 230 " stroke="black" stroke-width="1" fill="none"/>
<path d="M 92 230 L 93 230 L 94 231 L 94 234 L 93 235 L 92 235 L 91 234 L 91 231 " stroke="black" stroke-width="1" fill="none"/>
<path d="M 93 202 L 94 203 L 94 225 L 95 225 L 96 226 L 95 227 L 91 227 L 90 226 L 91 225 L 92 225 L 92 203 " stroke="black" stroke-width="1" fill="none"/>
<path d="M 177 183 L 178 182 L 180 182 L 181 183 L 179 185 " stroke="black" stroke-width="1" fill="none"/>
<path d="M 179 151 L 180 152 L 180 181 L 179 182 L 178 181 L 178 152 " stroke="black" stroke-width="1" fill="none"/>
<path d="M 122 150 L 123 151 L 123 173 L 122 174 L 121 173 L 121 151 " stroke="black" stroke-width="1" fill="none"/>
<path d="M 177 150 L 179 148 L 181 150 L 180 151 L 178 151 " stroke="black" stroke-width="1" fill="none"/>
<path d="M 121 139 L 122 139 L 124 141 L 124 144 L 123 145 L 120 142 L 120 140 " stroke="black" stroke-width="1" fill="none"/>
<path d="M 201 138 L 201 139 L 200 140 L 199 140 L 197 142 L 196 142 L 195 143 L 194 143 L 193 144 L 192 144 L 191 145 L 190 145 L 189 146 L 188 146 L 186 148 L 185 148 L 184 149 L 183 149 L 182 150 L 181 150 L 180 149 L 182 147 L 183 147 L 184 146 L 185 146 L 187 144 L 188 144 L 189 143 L 190 143 L 191 142 L 192 142 L 194 140 L 196 140 L 198 138 L 199 138 L 200 137 " stroke="black" stroke-width="1" fill="none"/>
<path d="M 92 132 L 122 148 L 122 144 L 124 147 L 123 150 L 118 149 L 99 137 L 91 135 L 64 151 L 65 184 L 92 199 L 113 187 L 114 188 L 96 201 L 95 225 L 94 202 L 92 202 L 91 225 L 90 201 L 62 184 L 62 149 " stroke="black" stroke-width="1" fill="none"/>
<path d="M 133 125 L 136 122 L 137 123 L 138 123 L 140 125 L 141 125 L 144 128 L 144 129 L 143 130 L 142 129 L 141 129 L 140 128 L 139 128 L 138 127 L 137 128 L 136 127 L 134 127 L 133 126 " stroke="black" stroke-width="1" fill="none"/>
</svg>