<svg xmlns="http://www.w3.org/2000/svg" width="300" height="300" viewBox="0 0 300 300">
<path d="M 118 279 L 118 288 L 119 287 L 120 288 L 120 286 L 121 285 L 122 285 L 123 286 L 123 287 L 125 287 L 125 280 L 123 280 L 122 281 L 121 281 L 120 280 L 120 279 L 119 280 " stroke="black" stroke-width="1" fill="none"/>
<path d="M 118 281 L 119 280 L 120 281 L 123 281 L 124 280 L 125 281 L 125 286 L 124 287 L 123 286 L 123 285 L 122 284 L 122 283 L 122 284 L 121 285 L 120 285 L 120 286 L 119 287 L 118 286 " stroke="black" stroke-width="1" fill="none"/>
<path d="M 132 276 L 131 277 L 131 278 L 132 279 L 134 279 L 134 276 " stroke="black" stroke-width="1" fill="none"/>
<path d="M 131 277 L 132 276 L 133 276 L 134 277 L 134 278 L 133 279 L 132 279 L 131 278 " stroke="black" stroke-width="1" fill="none"/>
<path d="M 137 275 L 135 273 L 135 274 L 137 276 L 137 279 L 134 282 L 131 282 L 129 280 L 129 276 L 131 274 L 130 274 L 129 275 L 129 281 L 130 281 L 131 282 L 135 282 L 137 280 " stroke="black" stroke-width="1" fill="none"/>
<path d="M 160 266 L 160 275 L 161 274 L 162 275 L 162 273 L 163 272 L 164 272 L 165 273 L 165 274 L 167 274 L 167 267 L 165 267 L 164 268 L 163 268 L 162 267 L 161 267 " stroke="black" stroke-width="1" fill="none"/>
<path d="M 160 268 L 161 267 L 162 268 L 165 268 L 166 267 L 167 268 L 167 273 L 166 274 L 165 273 L 165 272 L 164 271 L 164 270 L 164 271 L 163 272 L 162 272 L 162 273 L 161 274 L 160 273 " stroke="black" stroke-width="1" fill="none"/>
<path d="M 96 266 L 96 275 L 97 274 L 98 275 L 98 273 L 99 272 L 100 272 L 101 273 L 101 274 L 103 274 L 103 267 L 101 267 L 100 268 L 99 268 L 98 267 L 97 267 " stroke="black" stroke-width="1" fill="none"/>
<path d="M 96 268 L 97 267 L 98 268 L 101 268 L 102 267 L 103 268 L 103 273 L 102 274 L 101 273 L 101 272 L 100 271 L 100 270 L 100 271 L 99 272 L 98 272 L 98 273 L 97 274 L 96 273 " stroke="black" stroke-width="1" fill="none"/>
<path d="M 161 256 L 161 263 L 162 263 L 163 264 L 167 264 L 169 262 L 169 257 L 167 255 L 163 255 L 162 256 " stroke="black" stroke-width="1" fill="none"/>
<path d="M 163 255 L 166 255 L 169 258 L 169 261 L 166 264 L 163 264 L 161 262 L 161 257 " stroke="black" stroke-width="1" fill="none"/>
<path d="M 164 258 L 163 259 L 163 260 L 164 261 L 166 261 L 166 258 " stroke="black" stroke-width="1" fill="none"/>
<path d="M 163 259 L 164 258 L 165 258 L 166 259 L 166 260 L 165 261 L 164 261 L 163 260 " stroke="black" stroke-width="1" fill="none"/>
<path d="M 97 256 L 97 263 L 98 263 L 99 264 L 103 264 L 105 262 L 105 257 L 103 255 L 99 255 L 98 256 " stroke="black" stroke-width="1" fill="none"/>
<path d="M 99 255 L 102 255 L 105 258 L 105 261 L 102 264 L 99 264 L 97 262 L 97 257 " stroke="black" stroke-width="1" fill="none"/>
<path d="M 100 258 L 99 259 L 99 260 L 100 261 L 102 261 L 102 258 " stroke="black" stroke-width="1" fill="none"/>
<path d="M 99 259 L 100 258 L 101 258 L 102 259 L 102 260 L 101 261 L 100 261 L 99 260 " stroke="black" stroke-width="1" fill="none"/>
<path d="M 114 252 L 113 252 L 112 253 L 112 254 L 109 257 L 106 254 L 106 255 L 108 257 L 110 257 L 112 255 L 112 254 " stroke="black" stroke-width="1" fill="none"/>
<path d="M 81 228 L 81 235 L 82 235 L 83 236 L 87 236 L 89 234 L 89 229 L 87 227 L 83 227 L 82 228 " stroke="black" stroke-width="1" fill="none"/>
<path d="M 83 227 L 86 227 L 89 230 L 89 233 L 86 236 L 83 236 L 81 234 L 81 229 " stroke="black" stroke-width="1" fill="none"/>
<path d="M 84 230 L 83 231 L 83 232 L 84 233 L 86 233 L 86 230 " stroke="black" stroke-width="1" fill="none"/>
<path d="M 83 231 L 84 230 L 85 230 L 86 231 L 86 232 L 85 233 L 84 233 L 83 232 " stroke="black" stroke-width="1" fill="none"/>
<path d="M 70 221 L 70 230 L 71 229 L 72 230 L 72 228 L 73 227 L 74 227 L 75 228 L 75 229 L 77 229 L 77 222 L 75 222 L 74 223 L 73 223 L 72 222 L 72 221 L 71 222 " stroke="black" stroke-width="1" fill="none"/>
<path d="M 70 223 L 71 222 L 72 223 L 75 223 L 76 222 L 77 223 L 77 228 L 76 229 L 75 228 L 75 227 L 74 226 L 74 225 L 74 226 L 73 227 L 72 227 L 72 228 L 71 229 L 70 228 " stroke="black" stroke-width="1" fill="none"/>
<path d="M 91 226 L 92 228 L 100 226 L 115 235 L 115 248 L 106 252 L 115 249 L 115 234 L 98 225 L 93 228 L 92 226 L 101 220 L 115 231 L 125 228 L 117 233 L 117 249 L 131 258 L 129 260 L 116 253 L 130 261 L 129 271 L 134 271 L 133 262 L 150 250 L 158 254 L 156 257 L 150 253 L 153 256 L 158 256 L 158 253 L 149 249 L 149 233 L 158 229 L 156 224 L 147 230 L 140 227 L 139 229 L 147 234 L 147 249 L 132 259 L 117 249 L 117 234 L 124 230 L 125 227 L 123 226 L 116 231 L 102 220 " stroke="black" stroke-width="1" fill="none"/>
<path d="M 131 258 L 132 259 L 132 260 L 133 261 L 133 267 L 134 268 L 134 270 L 133 271 L 130 271 L 129 270 L 129 266 L 130 265 L 131 265 L 130 265 L 129 264 L 129 263 L 130 262 L 130 261 L 129 260 " stroke="black" stroke-width="1" fill="none"/>
<path d="M 148 252 L 147 253 L 146 253 L 145 254 L 144 254 L 143 255 L 142 255 L 141 256 L 140 256 L 138 258 L 137 258 L 136 259 L 135 259 L 133 261 L 132 260 L 132 259 L 134 257 L 135 257 L 136 256 L 137 256 L 139 254 L 140 254 L 141 253 L 142 253 L 143 252 L 144 252 L 146 250 " stroke="black" stroke-width="1" fill="none"/>
<path d="M 148 233 L 149 234 L 149 251 L 148 252 L 146 250 L 147 249 L 147 234 " stroke="black" stroke-width="1" fill="none"/>
<path d="M 140 228 L 141 227 L 142 228 L 143 228 L 144 229 L 146 229 L 147 230 L 147 231 L 146 232 L 145 232 L 144 231 L 143 231 L 142 230 L 141 230 L 140 229 " stroke="black" stroke-width="1" fill="none"/>
<path d="M 157 226 L 157 227 L 158 228 L 156 230 L 152 230 L 150 232 L 149 232 L 148 233 L 147 233 L 146 232 L 149 229 L 150 229 L 155 224 " stroke="black" stroke-width="1" fill="none"/>
<path d="M 129 219 L 129 226 L 130 226 L 131 227 L 135 227 L 137 225 L 137 220 L 135 218 L 131 218 L 130 219 " stroke="black" stroke-width="1" fill="none"/>
<path d="M 131 218 L 134 218 L 137 221 L 137 224 L 134 227 L 131 227 L 129 225 L 129 220 " stroke="black" stroke-width="1" fill="none"/>
<path d="M 132 221 L 131 222 L 131 223 L 132 224 L 134 224 L 134 221 " stroke="black" stroke-width="1" fill="none"/>
<path d="M 131 222 L 132 221 L 133 221 L 134 222 L 134 223 L 133 224 L 132 224 L 131 223 " stroke="black" stroke-width="1" fill="none"/>
<path d="M 193 200 L 193 207 L 194 207 L 195 208 L 199 208 L 201 206 L 201 201 L 199 199 L 195 199 L 194 200 " stroke="black" stroke-width="1" fill="none"/>
<path d="M 195 199 L 198 199 L 201 202 L 201 205 L 198 208 L 195 208 L 193 206 L 193 201 " stroke="black" stroke-width="1" fill="none"/>
<path d="M 196 202 L 195 203 L 195 204 L 196 205 L 198 205 L 198 202 " stroke="black" stroke-width="1" fill="none"/>
<path d="M 195 203 L 196 202 L 197 202 L 198 203 L 198 204 L 197 205 L 196 205 L 195 204 " stroke="black" stroke-width="1" fill="none"/>
<path d="M 213 194 L 210 194 L 208 196 L 207 196 L 206 197 L 205 197 L 203 199 L 204 200 L 204 201 L 206 201 L 208 199 L 209 199 L 210 198 L 211 198 L 213 196 L 212 196 L 210 198 L 209 198 L 208 199 L 207 199 L 205 201 L 204 200 L 204 199 L 206 197 L 207 197 L 208 196 L 209 196 L 211 194 " stroke="black" stroke-width="1" fill="none"/>
<path d="M 204 140 L 200 146 L 201 158 L 198 148 L 196 148 L 199 150 L 198 155 L 197 151 L 197 158 L 193 147 L 180 141 L 174 143 L 165 152 L 164 167 L 162 146 L 175 141 L 162 145 L 163 166 L 147 176 L 147 196 L 163 206 L 163 218 L 161 219 L 161 226 L 163 227 L 169 225 L 169 220 L 162 217 L 165 216 L 165 206 L 180 197 L 186 201 L 190 199 L 181 193 L 181 176 L 165 166 L 165 153 L 179 141 L 194 149 L 196 159 L 200 159 L 198 168 L 204 169 L 206 162 L 200 159 L 202 158 L 200 146 " stroke="black" stroke-width="1" fill="none"/>
<path d="M 163 218 L 166 218 L 169 221 L 169 224 L 166 227 L 163 227 L 161 225 L 161 220 " stroke="black" stroke-width="1" fill="none"/>
<path d="M 164 221 L 163 222 L 163 223 L 164 224 L 166 224 L 166 221 " stroke="black" stroke-width="1" fill="none"/>
<path d="M 163 222 L 164 221 L 165 221 L 166 222 L 166 223 L 165 224 L 164 224 L 163 223 " stroke="black" stroke-width="1" fill="none"/>
<path d="M 164 205 L 165 206 L 165 215 L 164 216 L 163 215 L 163 206 " stroke="black" stroke-width="1" fill="none"/>
<path d="M 147 177 L 150 174 L 163 167 L 165 167 L 173 171 L 175 173 L 178 174 L 181 177 L 181 193 L 180 194 L 179 193 L 179 178 L 178 177 L 179 179 L 179 193 L 178 195 L 181 193 L 183 196 L 186 197 L 189 200 L 187 201 L 185 199 L 181 197 L 179 197 L 165 205 L 163 205 L 155 201 L 153 199 L 150 198 L 147 195 " stroke="black" stroke-width="1" fill="none"/>
<path d="M 153 179 L 152 180 L 151 180 L 151 192 L 152 192 L 153 193 " stroke="black" stroke-width="1" fill="none"/>
<path d="M 152 180 L 153 181 L 153 191 L 152 192 L 151 191 L 151 181 " stroke="black" stroke-width="1" fill="none"/>
<path d="M 164 169 L 173 174 L 164 169 L 151 176 L 149 179 L 149 193 L 150 195 L 164 203 L 173 198 L 164 203 L 161 201 L 163 199 L 164 200 L 166 197 L 175 192 L 176 193 L 175 195 L 169 198 L 175 195 L 176 192 L 168 195 L 161 201 L 152 196 L 149 193 L 149 179 L 152 176 L 161 171 L 168 177 L 176 180 L 175 177 L 169 174 L 176 178 L 175 180 L 166 175 L 164 172 L 163 173 L 161 171 " stroke="black" stroke-width="1" fill="none"/>
<path d="M 200 160 L 203 160 L 206 163 L 206 166 L 203 169 L 200 169 L 198 167 L 198 163 L 199 162 L 199 161 " stroke="black" stroke-width="1" fill="none"/>
<path d="M 201 163 L 200 164 L 200 165 L 201 166 L 203 166 L 203 163 " stroke="black" stroke-width="1" fill="none"/>
<path d="M 200 164 L 201 163 L 202 163 L 203 164 L 203 165 L 202 166 L 201 166 L 200 165 " stroke="black" stroke-width="1" fill="none"/>
<path d="M 199 154 L 200 155 L 200 157 L 199 158 L 198 157 L 198 155 " stroke="black" stroke-width="1" fill="none"/>
<path d="M 208 129 L 206 131 L 206 137 L 207 137 L 208 138 L 212 138 L 214 136 L 214 131 L 212 129 " stroke="black" stroke-width="1" fill="none"/>
<path d="M 208 129 L 211 129 L 214 132 L 214 135 L 211 138 L 208 138 L 206 136 L 206 132 L 207 131 L 207 130 " stroke="black" stroke-width="1" fill="none"/>
<path d="M 209 132 L 208 133 L 208 134 L 209 135 L 211 135 L 211 132 " stroke="black" stroke-width="1" fill="none"/>
<path d="M 208 133 L 209 132 L 210 132 L 211 133 L 211 134 L 210 135 L 209 135 L 208 134 " stroke="black" stroke-width="1" fill="none"/>
<path d="M 216 43 L 215 44 L 214 43 L 214 44 L 213 45 L 213 48 L 212 49 L 212 52 L 211 53 L 212 54 L 211 55 L 212 54 L 214 56 L 213 57 L 210 57 L 209 58 L 208 58 L 208 65 L 209 65 L 210 66 L 214 66 L 216 64 L 216 59 L 214 57 L 214 53 L 215 52 L 215 49 L 216 48 " stroke="black" stroke-width="1" fill="none"/>
<path d="M 210 57 L 213 57 L 216 60 L 216 63 L 213 66 L 210 66 L 208 64 L 208 59 " stroke="black" stroke-width="1" fill="none"/>
<path d="M 211 60 L 210 61 L 210 62 L 211 63 L 213 63 L 213 60 " stroke="black" stroke-width="1" fill="none"/>
<path d="M 210 61 L 211 60 L 212 60 L 213 61 L 213 62 L 212 63 L 211 63 L 210 62 " stroke="black" stroke-width="1" fill="none"/>
<path d="M 215 44 L 216 45 L 216 48 L 215 49 L 215 52 L 214 53 L 214 54 L 213 55 L 211 53 L 212 52 L 212 49 L 213 48 L 213 46 " stroke="black" stroke-width="1" fill="none"/>
<path d="M 182 32 L 180 33 L 180 40 L 182 41 L 179 53 L 161 60 L 157 80 L 170 92 L 166 111 L 180 122 L 179 137 L 176 139 L 179 138 L 180 124 L 182 123 L 182 140 L 197 145 L 202 139 L 197 145 L 182 139 L 183 123 L 199 120 L 204 128 L 206 124 L 203 119 L 196 117 L 182 120 L 170 107 L 173 93 L 191 86 L 194 69 L 205 65 L 205 63 L 193 65 L 182 55 L 183 43 L 181 42 L 188 39 L 188 34 " stroke="black" stroke-width="1" fill="none"/>
<path d="M 206 126 L 205 127 L 202 124 L 202 123 L 201 122 L 201 121 L 200 120 L 196 120 L 195 121 L 190 121 L 189 122 L 183 122 L 182 123 L 180 121 L 179 121 L 178 120 L 179 119 L 181 119 L 182 120 L 183 120 L 184 119 L 191 119 L 192 118 L 195 118 L 196 117 L 200 117 L 203 120 L 203 121 L 204 122 L 204 123 L 206 125 " stroke="black" stroke-width="1" fill="none"/>
<path d="M 169 107 L 173 111 L 173 112 L 179 118 L 179 119 L 178 120 L 174 116 L 173 116 L 169 112 L 168 112 L 166 110 " stroke="black" stroke-width="1" fill="none"/>
<path d="M 186 82 L 184 84 L 182 84 L 181 85 L 179 85 L 178 86 L 175 86 L 174 87 L 173 86 L 173 85 L 174 84 L 176 84 L 177 83 L 179 83 L 180 82 L 182 82 L 183 81 L 185 81 " stroke="black" stroke-width="1" fill="none"/>
<path d="M 203 63 L 204 64 L 203 65 L 194 68 L 194 71 L 193 72 L 193 75 L 192 76 L 192 83 L 189 87 L 187 87 L 186 88 L 184 88 L 183 89 L 181 89 L 180 90 L 178 90 L 177 91 L 175 91 L 174 92 L 173 92 L 173 95 L 172 96 L 172 99 L 171 100 L 171 104 L 169 107 L 168 106 L 168 101 L 169 100 L 169 96 L 170 95 L 170 91 L 172 89 L 175 89 L 176 88 L 178 88 L 179 87 L 182 87 L 183 86 L 185 86 L 186 85 L 189 84 L 189 78 L 190 77 L 190 72 L 191 71 L 191 69 L 192 68 L 191 67 L 193 65 L 196 65 L 197 64 L 199 64 L 200 63 " stroke="black" stroke-width="1" fill="none"/>
<path d="M 182 43 L 182 55 L 180 57 L 163 62 L 162 77 L 164 78 L 166 69 L 165 64 L 164 66 L 165 64 L 166 69 L 163 77 L 162 64 L 165 61 L 177 57 L 181 58 L 180 57 L 182 56 L 192 65 L 188 69 L 179 61 L 181 60 L 183 62 L 181 60 L 178 61 L 187 69 L 190 66 L 192 68 L 189 83 L 182 87 L 178 86 L 186 83 L 186 81 L 173 84 L 173 87 L 179 87 L 172 89 L 160 78 L 161 69 L 160 79 L 171 89 L 170 91 L 157 79 L 159 66 L 163 59 L 179 54 " stroke="black" stroke-width="1" fill="none"/>
<path d="M 182 32 L 185 32 L 188 35 L 188 38 L 185 41 L 183 41 L 182 40 L 181 40 L 180 39 L 180 34 " stroke="black" stroke-width="1" fill="none"/>
<path d="M 183 35 L 182 36 L 182 37 L 183 38 L 185 38 L 185 35 " stroke="black" stroke-width="1" fill="none"/>
<path d="M 182 36 L 183 35 L 184 35 L 185 36 L 185 37 L 184 38 L 183 38 L 182 37 " stroke="black" stroke-width="1" fill="none"/>
<path d="M 169 26 L 174 31 L 176 31 L 175 31 L 170 26 " stroke="black" stroke-width="1" fill="none"/>
<path d="M 170 24 L 171 24 L 176 29 L 177 29 L 172 24 " stroke="black" stroke-width="1" fill="none"/>
</svg>