<svg xmlns="http://www.w3.org/2000/svg" width="300" height="300" viewBox="0 0 300 300">
<path d="M 67 191 L 66 192 L 66 194 L 65 195 L 65 196 L 66 197 L 66 198 L 67 199 L 71 199 L 72 198 L 72 197 L 73 196 L 73 194 L 72 193 L 72 192 L 71 191 " stroke="black" stroke-width="1" fill="none"/>
<path d="M 68 191 L 70 191 L 73 194 L 73 196 L 70 199 L 68 199 L 65 196 L 65 195 L 66 194 L 66 193 " stroke="black" stroke-width="1" fill="none"/>
<path d="M 29 192 L 30 193 L 30 195 L 32 194 L 32 193 L 34 191 L 36 193 L 43 196 L 44 197 L 43 202 L 47 202 L 48 203 L 47 204 L 44 204 L 43 206 L 41 208 L 40 208 L 39 210 L 36 208 L 36 216 L 39 214 L 40 215 L 39 214 L 37 215 L 36 214 L 36 210 L 37 209 L 38 210 L 40 210 L 41 208 L 43 209 L 42 211 L 42 215 L 42 211 L 43 210 L 45 212 L 48 212 L 50 209 L 50 207 L 47 202 L 47 199 L 45 199 L 44 198 L 45 197 L 50 196 L 52 194 L 55 193 L 53 193 L 49 196 L 45 197 L 34 191 L 32 192 " stroke="black" stroke-width="1" fill="none"/>
<path d="M 45 204 L 47 204 L 50 207 L 50 209 L 47 212 L 45 212 L 43 210 L 43 209 L 42 208 L 42 207 " stroke="black" stroke-width="1" fill="none"/>
<path d="M 43 201 L 45 199 L 46 199 L 47 200 L 47 201 L 46 202 L 44 202 " stroke="black" stroke-width="1" fill="none"/>
<path d="M 107 188 L 107 190 L 104 193 L 103 192 L 101 192 L 100 193 L 99 193 L 98 194 L 97 194 L 96 195 L 95 195 L 94 196 L 95 196 L 96 195 L 97 195 L 98 194 L 99 194 L 101 192 L 102 192 L 103 193 L 105 193 L 107 191 " stroke="black" stroke-width="1" fill="none"/>
<path d="M 122 188 L 121 189 L 120 188 L 119 188 L 118 187 L 118 190 L 116 192 L 115 191 L 112 191 L 111 192 L 111 193 L 110 194 L 110 196 L 111 197 L 111 198 L 112 199 L 116 199 L 117 198 L 117 197 L 121 193 L 122 194 L 121 193 L 120 193 L 117 196 L 117 197 L 115 199 L 113 199 L 110 196 L 110 194 L 113 191 L 115 191 L 117 193 L 116 192 L 118 190 L 118 189 L 119 188 L 120 189 L 121 189 " stroke="black" stroke-width="1" fill="none"/>
<path d="M 13 187 L 13 195 L 14 194 L 15 194 L 16 193 L 17 194 L 17 195 L 18 195 L 20 197 L 20 198 L 21 199 L 25 199 L 26 198 L 26 197 L 27 196 L 27 195 L 26 194 L 26 192 L 25 191 L 22 191 L 20 193 L 19 192 L 19 188 L 19 192 L 20 193 L 20 194 L 19 195 L 18 195 L 17 194 L 17 193 L 15 193 L 14 194 L 13 193 L 13 189 L 14 188 L 15 189 L 16 189 L 17 188 L 16 189 L 15 188 L 14 188 " stroke="black" stroke-width="1" fill="none"/>
<path d="M 22 191 L 24 191 L 26 193 L 26 194 L 27 195 L 27 196 L 24 199 L 22 199 L 19 196 L 19 195 L 20 194 L 20 193 " stroke="black" stroke-width="1" fill="none"/>
<path d="M 89 165 L 88 166 L 88 167 L 87 168 L 87 170 L 88 171 L 88 172 L 89 173 L 93 173 L 94 172 L 94 171 L 95 170 L 95 168 L 94 167 L 94 166 L 93 165 " stroke="black" stroke-width="1" fill="none"/>
<path d="M 90 165 L 92 165 L 95 168 L 95 170 L 92 173 L 90 173 L 87 170 L 87 168 " stroke="black" stroke-width="1" fill="none"/>
<path d="M 26 158 L 26 164 L 25 165 L 22 165 L 21 166 L 20 166 L 20 167 L 19 168 L 19 170 L 20 171 L 20 172 L 21 173 L 25 173 L 26 172 L 26 171 L 27 170 L 27 168 L 26 167 L 26 166 L 25 165 L 26 164 " stroke="black" stroke-width="1" fill="none"/>
<path d="M 22 165 L 24 165 L 27 168 L 27 170 L 24 173 L 22 173 L 19 170 L 19 168 " stroke="black" stroke-width="1" fill="none"/>
<path d="M 43 155 L 44 168 L 35 174 L 32 171 L 30 171 L 28 174 L 28 176 L 33 178 L 33 187 L 29 190 L 33 188 L 33 177 L 28 175 L 31 171 L 36 176 L 35 177 L 35 188 L 36 190 L 44 194 L 47 194 L 56 189 L 58 193 L 61 194 L 63 191 L 62 189 L 60 189 L 58 187 L 58 181 L 55 180 L 59 179 L 61 176 L 59 171 L 55 171 L 53 175 L 56 181 L 56 188 L 54 190 L 45 194 L 35 188 L 35 178 L 45 172 L 50 173 L 51 171 L 46 168 L 48 155 " stroke="black" stroke-width="1" fill="none"/>
<path d="M 56 189 L 57 188 L 59 188 L 60 189 L 61 189 L 63 191 L 60 194 L 58 192 L 58 191 " stroke="black" stroke-width="1" fill="none"/>
<path d="M 57 181 L 58 182 L 58 187 L 57 188 L 56 187 L 56 182 " stroke="black" stroke-width="1" fill="none"/>
<path d="M 56 171 L 58 171 L 61 174 L 61 176 L 58 179 L 56 179 L 53 176 L 53 175 L 54 174 L 54 173 " stroke="black" stroke-width="1" fill="none"/>
<path d="M 50 171 L 50 172 L 49 173 L 48 172 L 44 172 L 43 173 L 42 173 L 41 174 L 40 174 L 39 175 L 38 175 L 37 176 L 36 176 L 35 175 L 35 174 L 36 173 L 38 173 L 39 172 L 40 172 L 41 171 L 42 171 L 44 169 L 44 167 L 45 166 L 46 167 L 46 169 L 47 169 L 48 170 L 49 170 " stroke="black" stroke-width="1" fill="none"/>
<path d="M 46 158 L 47 159 L 47 161 L 46 162 L 46 165 L 45 166 L 44 165 L 44 159 L 45 158 " stroke="black" stroke-width="1" fill="none"/>
<path d="M 43 156 L 44 155 L 47 155 L 48 156 L 48 157 L 47 158 L 44 158 L 43 157 " stroke="black" stroke-width="1" fill="none"/>
<path d="M 158 152 L 157 153 L 157 154 L 156 155 L 156 157 L 157 158 L 157 159 L 158 160 L 162 160 L 163 159 L 163 158 L 164 157 L 164 155 L 163 154 L 163 153 L 162 152 " stroke="black" stroke-width="1" fill="none"/>
<path d="M 159 152 L 161 152 L 164 155 L 164 157 L 161 160 L 159 160 L 156 157 L 156 155 " stroke="black" stroke-width="1" fill="none"/>
<path d="M 135 152 L 134 153 L 134 155 L 133 156 L 133 157 L 134 158 L 134 159 L 135 160 L 139 160 L 140 159 L 140 158 L 141 157 L 141 156 L 140 155 L 140 153 L 139 152 " stroke="black" stroke-width="1" fill="none"/>
<path d="M 136 152 L 138 152 L 140 154 L 140 155 L 141 156 L 141 157 L 138 160 L 136 160 L 133 157 L 133 156 L 134 155 L 134 154 " stroke="black" stroke-width="1" fill="none"/>
<path d="M 73 148 L 73 151 L 71 153 L 67 152 L 65 157 L 68 162 L 67 172 L 77 176 L 79 179 L 79 187 L 74 189 L 74 191 L 76 193 L 80 191 L 89 197 L 88 202 L 93 202 L 91 195 L 102 188 L 103 177 L 104 189 L 105 189 L 104 178 L 108 176 L 108 174 L 106 171 L 105 172 L 104 171 L 101 174 L 97 173 L 98 174 L 97 175 L 102 178 L 102 187 L 100 190 L 91 195 L 88 192 L 83 190 L 81 188 L 81 178 L 85 175 L 84 173 L 80 175 L 70 167 L 70 162 L 72 158 L 76 154 L 77 155 L 75 154 L 70 160 L 68 160 L 65 157 L 65 155 L 68 152 L 72 154 L 71 153 L 73 150 L 77 149 L 76 150 " stroke="black" stroke-width="1" fill="none"/>
<path d="M 91 195 L 92 196 L 92 198 L 93 199 L 93 201 L 92 202 L 89 202 L 88 201 L 88 200 L 89 199 L 89 198 L 90 197 L 90 196 " stroke="black" stroke-width="1" fill="none"/>
<path d="M 80 190 L 81 189 L 82 190 L 83 190 L 84 191 L 85 191 L 86 192 L 87 192 L 89 194 L 90 194 L 91 195 L 89 197 L 86 194 L 85 194 L 84 193 L 83 193 L 82 192 L 81 192 L 80 191 " stroke="black" stroke-width="1" fill="none"/>
<path d="M 98 174 L 99 173 L 100 174 L 101 174 L 102 175 L 101 176 L 99 176 L 98 175 " stroke="black" stroke-width="1" fill="none"/>
<path d="M 83 173 L 84 174 L 84 175 L 83 176 L 82 176 L 81 177 L 81 189 L 79 191 L 78 191 L 77 192 L 76 192 L 74 190 L 76 188 L 79 188 L 79 178 L 77 176 L 77 175 L 78 174 L 79 175 L 80 175 L 81 174 L 82 174 " stroke="black" stroke-width="1" fill="none"/>
<path d="M 101 176 L 102 175 L 102 174 L 104 172 L 106 172 L 107 173 L 107 174 L 108 175 L 107 176 L 105 176 L 104 177 L 102 177 " stroke="black" stroke-width="1" fill="none"/>
<path d="M 69 162 L 70 163 L 70 168 L 72 170 L 73 170 L 76 173 L 77 173 L 78 174 L 76 176 L 75 175 L 73 175 L 72 174 L 70 174 L 67 171 L 67 170 L 68 169 L 68 163 " stroke="black" stroke-width="1" fill="none"/>
<path d="M 67 161 L 68 160 L 70 160 L 71 161 L 70 162 L 68 162 " stroke="black" stroke-width="1" fill="none"/>
<path d="M 279 140 L 275 140 L 274 141 L 274 142 L 273 143 L 273 145 L 274 146 L 274 147 L 273 148 L 273 156 L 274 155 L 275 155 L 276 154 L 277 155 L 276 154 L 275 154 L 274 155 L 273 154 L 273 151 L 274 150 L 275 151 L 276 150 L 274 150 L 273 149 L 273 148 L 274 147 L 275 147 L 276 148 L 278 148 L 279 149 L 279 155 L 279 148 L 280 147 L 280 146 L 281 145 L 281 143 L 280 142 L 280 141 " stroke="black" stroke-width="1" fill="none"/>
<path d="M 276 140 L 278 140 L 281 143 L 281 145 L 278 148 L 277 148 L 276 147 L 275 147 L 273 145 L 273 143 " stroke="black" stroke-width="1" fill="none"/>
<path d="M 199 131 L 199 133 L 200 134 L 200 135 L 201 136 L 201 137 L 202 138 L 202 136 L 203 135 L 204 136 L 204 137 L 204 135 L 203 135 L 202 136 L 201 136 L 200 135 L 202 133 L 203 133 L 203 131 " stroke="black" stroke-width="1" fill="none"/>
<path d="M 199 132 L 200 131 L 202 131 L 203 132 L 201 134 " stroke="black" stroke-width="1" fill="none"/>
<path d="M 154 134 L 150 132 L 147 135 L 138 129 L 138 123 L 135 123 L 134 131 L 126 135 L 123 132 L 121 132 L 119 136 L 124 139 L 124 148 L 122 150 L 124 152 L 122 153 L 119 151 L 113 154 L 112 153 L 113 164 L 110 168 L 111 172 L 116 173 L 118 170 L 115 164 L 116 158 L 124 152 L 130 154 L 131 152 L 126 148 L 126 139 L 128 137 L 136 133 L 146 137 L 147 149 L 143 152 L 144 154 L 148 152 L 149 154 L 149 152 L 146 150 L 147 136 L 151 132 L 154 135 L 149 138 L 149 147 L 154 151 L 151 154 L 152 154 L 154 150 L 149 147 L 149 139 L 154 136 " stroke="black" stroke-width="1" fill="none"/>
<path d="M 113 165 L 115 165 L 118 168 L 118 170 L 115 173 L 113 173 L 110 170 L 110 168 " stroke="black" stroke-width="1" fill="none"/>
<path d="M 120 151 L 122 153 L 121 154 L 120 154 L 117 157 L 116 157 L 116 158 L 115 159 L 115 162 L 114 163 L 113 162 L 113 157 L 114 156 L 113 157 L 112 156 L 112 155 L 113 154 L 114 154 L 115 153 L 116 153 L 117 152 L 118 153 " stroke="black" stroke-width="1" fill="none"/>
<path d="M 144 153 L 144 152 L 146 150 L 148 152 L 147 153 L 146 153 L 145 154 " stroke="black" stroke-width="1" fill="none"/>
<path d="M 123 150 L 124 149 L 125 149 L 126 148 L 127 149 L 127 150 L 128 151 L 129 151 L 130 152 L 130 153 L 129 154 L 128 153 L 127 153 L 126 152 L 125 152 " stroke="black" stroke-width="1" fill="none"/>
<path d="M 125 138 L 126 139 L 126 148 L 125 149 L 124 148 L 124 139 " stroke="black" stroke-width="1" fill="none"/>
<path d="M 119 135 L 122 132 L 124 134 L 124 135 L 125 135 L 127 137 L 126 138 L 124 138 L 123 137 L 122 137 L 121 136 L 120 136 " stroke="black" stroke-width="1" fill="none"/>
<path d="M 126 135 L 127 134 L 129 134 L 130 133 L 131 133 L 132 132 L 133 132 L 134 131 L 135 131 L 135 127 L 136 126 L 137 126 L 138 127 L 138 130 L 139 131 L 140 131 L 142 133 L 143 133 L 144 134 L 146 134 L 147 135 L 147 136 L 146 137 L 145 137 L 144 136 L 143 136 L 142 135 L 141 135 L 140 134 L 139 134 L 138 133 L 135 133 L 134 134 L 133 134 L 132 135 L 131 135 L 130 136 L 129 136 L 128 137 L 127 137 L 126 136 " stroke="black" stroke-width="1" fill="none"/>
<path d="M 135 124 L 136 123 L 137 123 L 138 124 L 138 125 L 137 126 L 136 126 L 135 125 " stroke="black" stroke-width="1" fill="none"/>
<path d="M 157 117 L 157 125 L 158 126 L 157 127 L 157 128 L 156 129 L 156 131 L 157 132 L 157 133 L 158 134 L 162 134 L 163 133 L 163 132 L 164 131 L 164 129 L 163 128 L 163 127 L 162 126 L 163 125 L 163 118 L 163 125 L 162 126 L 158 126 L 157 125 L 158 124 L 159 124 L 160 123 L 159 123 L 158 124 L 157 123 L 157 119 L 158 118 L 159 119 L 160 119 L 161 118 L 160 119 L 159 118 L 158 118 " stroke="black" stroke-width="1" fill="none"/>
<path d="M 159 126 L 161 126 L 164 129 L 164 131 L 161 134 L 159 134 L 156 131 L 156 129 " stroke="black" stroke-width="1" fill="none"/>
<path d="M 111 117 L 111 125 L 112 126 L 111 127 L 111 128 L 110 129 L 110 131 L 111 132 L 111 133 L 112 134 L 116 134 L 117 133 L 117 132 L 118 131 L 118 129 L 117 128 L 117 127 L 116 126 L 117 125 L 117 118 L 117 125 L 116 126 L 112 126 L 111 125 L 112 124 L 113 124 L 114 123 L 113 123 L 112 124 L 111 123 L 111 119 L 112 118 L 113 119 L 114 119 L 115 118 L 114 119 L 113 118 L 112 118 " stroke="black" stroke-width="1" fill="none"/>
<path d="M 113 126 L 115 126 L 118 129 L 118 131 L 115 134 L 113 134 L 110 131 L 110 129 " stroke="black" stroke-width="1" fill="none"/>
<path d="M 275 112 L 274 113 L 274 114 L 273 115 L 273 117 L 274 118 L 274 119 L 275 120 L 278 120 L 279 119 L 281 121 L 281 124 L 282 123 L 283 123 L 284 122 L 285 123 L 284 122 L 283 122 L 282 123 L 281 122 L 281 121 L 279 119 L 280 118 L 278 120 L 276 120 L 273 117 L 273 115 L 276 112 L 278 112 L 280 114 L 280 115 L 283 118 L 284 118 L 285 117 L 284 118 L 280 114 L 280 113 L 279 112 " stroke="black" stroke-width="1" fill="none"/>
<path d="M 145 109 L 144 110 L 143 109 L 142 109 L 141 108 L 141 111 L 139 113 L 138 112 L 135 112 L 134 113 L 134 114 L 133 115 L 133 117 L 134 118 L 134 119 L 135 120 L 139 120 L 140 119 L 140 118 L 144 114 L 145 115 L 144 114 L 143 114 L 140 117 L 140 118 L 138 120 L 136 120 L 133 117 L 133 115 L 136 112 L 138 112 L 140 114 L 139 113 L 141 111 L 141 110 L 142 109 L 143 110 L 144 110 " stroke="black" stroke-width="1" fill="none"/>
<path d="M 258 98 L 255 112 L 257 98 L 261 106 L 255 115 L 249 103 L 253 117 L 244 105 L 253 117 L 242 125 L 227 119 L 215 132 L 216 123 L 228 116 L 242 121 L 250 117 L 237 117 L 242 107 L 238 120 L 227 116 L 216 122 L 215 131 L 209 125 L 214 136 L 208 141 L 217 138 L 205 146 L 193 138 L 184 143 L 181 154 L 183 141 L 199 138 L 192 135 L 182 141 L 180 153 L 174 148 L 174 133 L 168 133 L 168 152 L 182 158 L 172 164 L 172 178 L 180 183 L 192 178 L 197 161 L 195 176 L 206 182 L 188 182 L 181 195 L 180 185 L 169 178 L 174 159 L 169 179 L 181 187 L 179 198 L 194 179 L 206 185 L 195 175 L 201 161 L 219 164 L 230 158 L 236 141 L 228 159 L 218 164 L 197 161 L 212 159 L 207 146 L 217 138 L 228 146 L 228 155 L 220 160 L 210 153 L 216 161 L 227 157 L 227 144 L 236 138 L 240 151 L 243 137 L 252 143 L 265 138 L 254 146 L 244 140 L 251 146 L 270 140 L 270 119 L 255 115 L 261 107 " stroke="black" stroke-width="1" fill="none"/>
<path d="M 179 196 L 180 195 L 183 195 L 184 196 L 184 197 L 183 198 L 180 198 L 179 197 " stroke="black" stroke-width="1" fill="none"/>
<path d="M 182 158 L 184 160 L 185 160 L 186 161 L 187 161 L 189 163 L 190 163 L 191 164 L 192 164 L 193 165 L 193 176 L 191 178 L 190 178 L 189 179 L 188 179 L 187 180 L 186 180 L 184 182 L 183 182 L 182 183 L 181 183 L 180 182 L 179 182 L 178 181 L 177 181 L 175 179 L 174 179 L 171 176 L 171 166 L 174 163 L 175 163 L 177 161 L 178 161 L 179 160 L 180 160 " stroke="black" stroke-width="1" fill="none"/>
<path d="M 168 151 L 170 149 L 171 149 L 172 148 L 173 148 L 177 152 L 178 152 L 179 153 L 180 153 L 181 154 L 182 154 L 183 155 L 183 156 L 182 157 L 181 157 L 180 156 L 178 156 L 177 155 L 176 155 L 175 154 L 173 154 L 172 153 L 170 153 " stroke="black" stroke-width="1" fill="none"/>
<path d="M 206 145 L 207 146 L 207 155 L 206 156 L 205 155 L 205 146 " stroke="black" stroke-width="1" fill="none"/>
<path d="M 168 143 L 169 142 L 170 143 L 170 146 L 170 144 L 171 143 L 172 144 L 172 146 L 172 143 L 173 142 L 174 143 L 174 147 L 173 148 L 171 148 L 170 149 L 169 149 L 168 148 " stroke="black" stroke-width="1" fill="none"/>
<path d="M 241 140 L 242 141 L 242 145 L 243 146 L 243 149 L 241 151 L 240 151 L 238 149 L 238 143 " stroke="black" stroke-width="1" fill="none"/>
<path d="M 168 141 L 169 140 L 173 140 L 174 141 L 173 142 L 172 142 L 171 143 L 170 142 L 169 142 " stroke="black" stroke-width="1" fill="none"/>
<path d="M 194 138 L 195 139 L 196 139 L 198 141 L 199 141 L 200 142 L 202 142 L 203 143 L 203 144 L 205 146 L 205 155 L 203 157 L 202 157 L 201 158 L 200 158 L 199 159 L 198 159 L 195 162 L 194 162 L 192 164 L 191 163 L 190 163 L 188 161 L 187 161 L 186 160 L 184 160 L 182 158 L 182 157 L 183 156 L 184 157 L 185 157 L 186 158 L 187 158 L 188 159 L 189 159 L 191 161 L 192 161 L 190 159 L 189 159 L 188 158 L 187 158 L 186 157 L 185 157 L 183 155 L 183 145 L 185 143 L 186 143 L 187 142 L 188 142 L 189 141 L 190 141 L 192 139 L 193 139 " stroke="black" stroke-width="1" fill="none"/>
<path d="M 265 139 L 267 137 L 269 137 L 270 138 L 270 139 L 268 141 L 267 141 " stroke="black" stroke-width="1" fill="none"/>
<path d="M 217 137 L 218 136 L 219 137 L 220 137 L 221 138 L 222 138 L 223 139 L 224 139 L 226 141 L 227 141 L 228 142 L 228 143 L 227 144 L 226 143 L 225 143 L 223 141 L 222 141 L 221 140 L 219 140 L 217 138 " stroke="black" stroke-width="1" fill="none"/>
<path d="M 170 132 L 172 132 L 175 135 L 175 137 L 172 140 L 170 140 L 167 137 L 167 135 " stroke="black" stroke-width="1" fill="none"/>
<path d="M 212 133 L 214 131 L 216 133 L 217 133 L 218 134 L 218 136 L 217 137 L 216 137 " stroke="black" stroke-width="1" fill="none"/>
<path d="M 241 125 L 242 126 L 242 139 L 240 141 L 239 141 L 238 140 L 239 139 L 238 138 L 240 136 L 240 126 " stroke="black" stroke-width="1" fill="none"/>
<path d="M 210 125 L 212 127 L 212 128 L 213 129 L 213 130 L 214 131 L 212 133 L 207 128 " stroke="black" stroke-width="1" fill="none"/>
<path d="M 266 124 L 267 125 L 267 130 L 266 131 L 266 136 L 267 137 L 266 138 L 265 138 L 264 137 L 264 126 " stroke="black" stroke-width="1" fill="none"/>
<path d="M 228 119 L 230 119 L 231 120 L 232 120 L 233 121 L 234 121 L 235 122 L 236 122 L 240 126 L 240 135 L 237 138 L 235 138 L 234 139 L 233 139 L 230 142 L 228 142 L 225 139 L 224 139 L 223 138 L 222 138 L 221 137 L 220 137 L 218 135 L 218 125 L 220 123 L 221 123 L 222 122 L 223 122 L 224 121 L 225 121 L 226 120 L 227 120 " stroke="black" stroke-width="1" fill="none"/>
<path d="M 269 119 L 271 122 L 270 123 L 268 123 L 267 124 L 264 124 L 265 125 L 264 126 L 264 136 L 262 138 L 261 138 L 260 139 L 257 140 L 255 142 L 254 142 L 253 143 L 252 142 L 251 142 L 249 140 L 248 140 L 246 138 L 245 138 L 242 136 L 242 126 L 245 123 L 246 123 L 248 121 L 249 121 L 251 119 L 252 119 L 252 118 L 253 117 L 254 118 L 254 119 L 255 119 L 257 121 L 258 121 L 259 122 L 262 123 L 261 122 L 258 121 L 253 117 L 255 115 L 256 116 L 256 117 L 257 117 L 259 119 L 262 120 L 264 122 L 267 119 " stroke="black" stroke-width="1" fill="none"/>
<path d="M 258 83 L 257 84 L 256 83 L 255 83 L 254 82 L 254 86 L 253 87 L 253 88 L 252 89 L 251 89 L 250 90 L 250 91 L 249 92 L 249 94 L 250 95 L 250 96 L 251 97 L 254 97 L 255 96 L 256 96 L 256 95 L 257 94 L 257 92 L 256 91 L 256 89 L 257 88 L 256 87 L 256 89 L 255 90 L 257 92 L 257 94 L 254 97 L 252 97 L 249 94 L 249 92 L 252 89 L 253 89 L 253 87 L 254 86 L 254 84 L 255 83 L 256 84 L 257 84 " stroke="black" stroke-width="1" fill="none"/>
</svg>