<svg xmlns="http://www.w3.org/2000/svg" width="300" height="300" viewBox="0 0 300 300">
<path d="M 76 235 L 76 243 L 77 242 L 78 243 L 78 241 L 79 240 L 80 240 L 81 241 L 81 242 L 83 242 L 83 235 L 81 235 L 80 236 L 79 236 L 78 235 L 78 234 L 77 235 " stroke="black" stroke-width="1" fill="none"/>
<path d="M 76 236 L 77 235 L 78 236 L 81 236 L 82 235 L 83 236 L 83 241 L 82 242 L 81 241 L 81 240 L 80 239 L 80 238 L 80 239 L 79 240 L 78 240 L 78 241 L 77 242 L 76 241 " stroke="black" stroke-width="1" fill="none"/>
<path d="M 13 227 L 13 234 L 14 234 L 15 235 L 19 235 L 21 233 L 21 228 L 19 226 L 15 226 L 14 227 " stroke="black" stroke-width="1" fill="none"/>
<path d="M 15 226 L 18 226 L 21 229 L 21 232 L 18 235 L 15 235 L 13 233 L 13 228 " stroke="black" stroke-width="1" fill="none"/>
<path d="M 16 229 L 15 230 L 15 231 L 16 232 L 18 232 L 18 229 " stroke="black" stroke-width="1" fill="none"/>
<path d="M 15 230 L 16 229 L 17 229 L 18 230 L 18 231 L 17 232 L 16 232 L 15 231 " stroke="black" stroke-width="1" fill="none"/>
<path d="M 78 144 L 78 151 L 79 151 L 80 152 L 84 152 L 85 151 L 85 150 L 86 149 L 86 145 L 84 143 L 80 143 L 79 144 " stroke="black" stroke-width="1" fill="none"/>
<path d="M 80 143 L 83 143 L 86 146 L 86 148 L 85 149 L 85 150 L 83 152 L 80 152 L 78 150 L 78 145 " stroke="black" stroke-width="1" fill="none"/>
<path d="M 81 146 L 80 147 L 80 148 L 81 149 L 83 149 L 83 146 " stroke="black" stroke-width="1" fill="none"/>
<path d="M 80 147 L 81 146 L 82 146 L 83 147 L 83 148 L 82 149 L 81 149 L 80 148 " stroke="black" stroke-width="1" fill="none"/>
<path d="M 77 128 L 77 137 L 78 136 L 79 136 L 79 135 L 80 134 L 81 134 L 82 135 L 82 136 L 84 136 L 84 129 L 82 129 L 81 130 L 80 130 L 79 129 L 79 128 L 78 129 " stroke="black" stroke-width="1" fill="none"/>
<path d="M 77 130 L 78 129 L 79 130 L 82 130 L 83 129 L 84 130 L 84 135 L 83 136 L 82 135 L 82 134 L 81 133 L 81 132 L 81 133 L 80 134 L 79 134 L 79 135 L 78 136 L 77 135 " stroke="black" stroke-width="1" fill="none"/>
<path d="M 239 79 L 239 86 L 240 87 L 245 87 L 247 85 L 247 80 L 245 78 L 241 78 L 240 79 " stroke="black" stroke-width="1" fill="none"/>
<path d="M 241 78 L 244 78 L 247 81 L 247 84 L 244 87 L 241 87 L 239 85 L 239 80 " stroke="black" stroke-width="1" fill="none"/>
<path d="M 242 81 L 241 82 L 241 83 L 242 84 L 244 84 L 244 81 " stroke="black" stroke-width="1" fill="none"/>
<path d="M 241 82 L 242 81 L 243 81 L 244 82 L 244 83 L 243 84 L 242 84 L 241 83 " stroke="black" stroke-width="1" fill="none"/>
<path d="M 271 100 L 248 103 L 244 89 L 244 103 L 231 99 L 235 88 L 225 96 L 212 75 L 222 96 L 202 102 L 191 91 L 200 104 L 193 124 L 172 129 L 154 112 L 170 131 L 161 152 L 141 157 L 120 147 L 102 158 L 89 149 L 101 162 L 101 181 L 84 191 L 102 184 L 83 195 L 78 171 L 78 192 L 61 181 L 42 189 L 24 224 L 37 222 L 24 230 L 38 222 L 56 233 L 46 252 L 58 235 L 69 253 L 60 233 L 71 252 L 60 233 L 78 221 L 107 230 L 123 220 L 124 197 L 137 214 L 124 196 L 141 185 L 152 204 L 142 160 L 144 183 L 164 188 L 176 172 L 164 154 L 141 160 L 121 150 L 103 160 L 102 179 L 90 149 L 101 158 L 121 147 L 153 155 L 173 128 L 194 124 L 202 102 L 225 96 L 244 103 L 203 104 L 194 127 L 172 132 L 166 153 L 179 171 L 164 191 L 147 186 L 165 191 L 179 172 L 166 152 L 172 133 L 196 126 L 204 104 L 243 105 L 241 129 L 249 106 " stroke="black" stroke-width="1" fill="none"/>
<path d="M 56 233 L 58 235 L 56 237 L 56 238 L 55 239 L 55 240 L 53 242 L 53 243 L 52 244 L 52 245 L 51 246 L 51 247 L 50 248 L 50 249 L 49 250 L 49 251 L 48 252 L 47 252 L 46 251 L 47 250 L 47 249 L 48 248 L 48 247 L 49 246 L 49 245 L 50 244 L 50 243 L 51 242 L 51 241 L 53 239 L 53 238 L 54 237 L 54 236 L 55 235 L 55 234 " stroke="black" stroke-width="1" fill="none"/>
<path d="M 77 220 L 78 219 L 80 219 L 81 220 L 80 221 L 78 221 " stroke="black" stroke-width="1" fill="none"/>
<path d="M 34 219 L 32 221 L 31 221 L 30 222 L 29 222 L 28 223 L 27 223 L 26 224 L 25 224 L 24 223 L 26 221 L 27 221 L 28 220 L 29 220 L 30 219 L 31 219 L 32 218 L 33 218 " stroke="black" stroke-width="1" fill="none"/>
<path d="M 130 202 L 138 210 L 138 212 L 136 214 L 135 214 L 134 213 L 134 212 L 132 210 L 132 209 L 131 208 L 131 207 L 130 207 L 128 205 L 128 204 " stroke="black" stroke-width="1" fill="none"/>
<path d="M 126 200 L 127 199 L 130 202 L 128 204 L 127 203 L 127 202 L 126 201 " stroke="black" stroke-width="1" fill="none"/>
<path d="M 80 195 L 81 196 L 81 218 L 80 219 L 79 218 L 79 196 " stroke="black" stroke-width="1" fill="none"/>
<path d="M 102 184 L 105 187 L 108 188 L 110 190 L 111 190 L 115 193 L 118 194 L 121 197 L 121 217 L 118 220 L 113 222 L 111 224 L 110 224 L 109 225 L 106 226 L 104 228 L 101 229 L 100 228 L 95 226 L 93 224 L 88 222 L 86 220 L 85 220 L 84 219 L 82 219 L 81 218 L 81 196 L 82 195 L 83 195 L 84 194 L 86 194 L 88 192 L 97 188 " stroke="black" stroke-width="1" fill="none"/>
<path d="M 58 184 L 60 184 L 61 185 L 62 185 L 64 187 L 69 189 L 71 191 L 72 191 L 74 193 L 77 194 L 79 196 L 79 218 L 78 219 L 75 220 L 73 222 L 70 223 L 68 225 L 63 227 L 59 230 L 57 230 L 53 227 L 48 225 L 46 223 L 45 223 L 41 220 L 40 220 L 37 217 L 37 206 L 38 205 L 38 196 L 40 194 L 41 194 L 45 191 L 54 187 " stroke="black" stroke-width="1" fill="none"/>
<path d="M 141 184 L 141 185 L 140 186 L 139 186 L 138 187 L 137 187 L 135 189 L 134 189 L 133 190 L 132 190 L 130 192 L 129 192 L 128 193 L 127 193 L 124 196 L 122 194 L 124 192 L 125 192 L 126 191 L 127 191 L 129 189 L 130 189 L 131 188 L 132 188 L 134 186 L 135 186 L 136 185 L 137 185 L 138 184 L 139 184 L 140 183 " stroke="black" stroke-width="1" fill="none"/>
<path d="M 60 181 L 71 187 L 79 193 L 76 194 L 63 185 L 57 184 L 38 195 L 38 205 L 37 206 L 37 218 L 54 229 L 59 230 L 76 220 L 78 221 L 75 224 L 62 231 L 58 235 L 54 231 L 37 222 L 33 218 L 35 217 L 35 197 L 36 194 L 54 183 " stroke="black" stroke-width="1" fill="none"/>
<path d="M 110 174 L 112 176 L 112 177 L 113 178 L 111 180 L 107 180 L 106 181 L 105 181 L 104 182 L 103 182 L 103 183 L 102 184 L 100 182 L 101 181 L 101 180 L 102 179 L 103 179 L 104 178 L 105 178 L 108 175 L 109 175 " stroke="black" stroke-width="1" fill="none"/>
<path d="M 79 171 L 82 171 L 83 172 L 83 179 L 82 180 L 82 190 L 81 191 L 82 192 L 82 194 L 81 195 L 79 195 L 78 194 L 79 193 L 80 193 L 79 192 L 79 188 L 78 187 L 78 172 " stroke="black" stroke-width="1" fill="none"/>
<path d="M 162 157 L 162 158 L 161 159 L 160 159 L 159 160 L 157 160 L 156 161 L 154 161 L 153 162 L 151 162 L 150 163 L 148 163 L 147 162 L 149 160 L 151 160 L 152 159 L 155 159 L 156 158 L 157 158 L 158 157 L 160 157 L 161 156 " stroke="black" stroke-width="1" fill="none"/>
<path d="M 151 158 L 152 157 L 154 157 L 155 156 L 157 156 L 158 157 L 157 158 L 156 158 L 155 159 L 152 159 " stroke="black" stroke-width="1" fill="none"/>
<path d="M 157 156 L 158 155 L 160 155 L 161 156 L 160 157 L 158 157 " stroke="black" stroke-width="1" fill="none"/>
<path d="M 161 154 L 163 154 L 166 157 L 166 158 L 168 160 L 168 161 L 170 163 L 170 164 L 174 168 L 174 169 L 176 171 L 175 172 L 175 173 L 172 176 L 172 177 L 170 179 L 170 180 L 167 183 L 167 184 L 163 188 L 162 188 L 161 187 L 159 187 L 158 186 L 156 186 L 155 185 L 153 185 L 152 184 L 150 184 L 149 183 L 145 183 L 143 181 L 143 161 L 148 158 L 151 158 L 152 159 L 151 160 L 149 160 L 148 161 L 147 161 L 147 162 L 146 163 L 150 163 L 151 162 L 153 162 L 154 161 L 156 161 L 157 160 L 162 159 L 163 158 L 162 157 L 162 156 L 161 156 L 160 155 " stroke="black" stroke-width="1" fill="none"/>
<path d="M 122 150 L 141 161 L 141 182 L 122 194 L 106 184 L 120 192 L 124 196 L 123 219 L 106 230 L 100 232 L 81 220 L 83 219 L 94 226 L 103 229 L 120 219 L 121 196 L 102 184 L 108 180 L 113 179 L 111 174 L 107 175 L 105 178 L 103 177 L 103 161 " stroke="black" stroke-width="1" fill="none"/>
<path d="M 115 168 L 115 176 L 116 176 L 117 177 L 117 175 L 118 174 L 119 174 L 120 175 L 120 176 L 122 176 L 122 169 L 120 169 L 119 170 L 118 170 L 117 169 L 117 168 L 116 169 " stroke="black" stroke-width="1" fill="none"/>
<path d="M 115 170 L 116 169 L 117 170 L 120 170 L 121 169 L 122 170 L 122 175 L 121 176 L 120 175 L 120 174 L 119 173 L 119 172 L 119 173 L 118 174 L 117 174 L 117 175 L 116 176 L 115 175 " stroke="black" stroke-width="1" fill="none"/>
<path d="M 166 122 L 169 125 L 169 126 L 172 129 L 170 131 L 169 130 L 169 129 L 164 124 " stroke="black" stroke-width="1" fill="none"/>
<path d="M 157 110 L 158 111 L 158 112 L 160 114 L 160 115 L 161 115 L 162 116 L 162 117 L 164 119 L 164 120 L 166 122 L 164 124 L 163 123 L 163 122 L 162 121 L 161 121 L 159 119 L 159 118 L 160 117 L 159 118 L 158 118 L 154 114 L 154 113 " stroke="black" stroke-width="1" fill="none"/>
<path d="M 246 106 L 247 107 L 247 110 L 246 111 L 246 113 L 245 114 L 245 116 L 244 117 L 244 120 L 243 121 L 243 123 L 242 124 L 242 126 L 240 128 L 239 127 L 239 125 L 240 124 L 240 121 L 241 120 L 241 118 L 242 117 L 242 115 L 243 114 L 243 112 L 244 111 L 244 109 L 245 108 L 245 107 " stroke="black" stroke-width="1" fill="none"/>
<path d="M 244 105 L 246 103 L 247 103 L 248 104 L 248 106 L 247 107 L 246 106 L 245 106 " stroke="black" stroke-width="1" fill="none"/>
<path d="M 270 101 L 268 103 L 264 103 L 263 104 L 258 104 L 257 105 L 252 105 L 251 106 L 249 106 L 248 105 L 248 104 L 249 103 L 253 103 L 254 102 L 258 102 L 259 101 L 264 101 L 265 100 L 269 100 " stroke="black" stroke-width="1" fill="none"/>
<path d="M 220 93 L 221 92 L 222 92 L 223 93 L 223 94 L 224 95 L 224 96 L 223 97 L 221 95 L 221 94 " stroke="black" stroke-width="1" fill="none"/>
<path d="M 190 93 L 192 91 L 193 91 L 195 93 L 194 94 L 194 95 L 194 94 L 195 93 L 197 95 L 197 96 L 198 97 L 198 98 L 202 102 L 201 103 L 200 103 L 194 97 L 193 97 L 192 96 L 192 95 " stroke="black" stroke-width="1" fill="none"/>
<path d="M 243 89 L 245 91 L 245 94 L 246 95 L 246 98 L 247 99 L 247 102 L 246 103 L 245 102 L 245 101 L 244 100 L 244 98 L 243 97 L 243 94 L 242 93 L 242 90 " stroke="black" stroke-width="1" fill="none"/>
<path d="M 234 88 L 235 89 L 235 90 L 228 97 L 226 97 L 225 96 L 226 95 L 227 95 L 227 94 L 230 91 L 231 91 " stroke="black" stroke-width="1" fill="none"/>
<path d="M 213 76 L 214 77 L 217 77 L 218 76 L 219 77 L 219 82 L 220 83 L 220 84 L 221 85 L 221 86 L 222 87 L 221 88 L 222 89 L 222 91 L 220 93 L 219 92 L 219 91 L 217 89 L 217 88 L 216 87 L 216 86 L 217 85 L 217 81 L 216 80 L 216 79 L 216 80 L 215 81 L 214 81 L 214 82 L 213 83 L 212 82 L 212 77 " stroke="black" stroke-width="1" fill="none"/>
<path d="M 213 55 L 213 62 L 214 62 L 215 63 L 219 63 L 221 61 L 221 56 L 219 54 L 215 54 L 214 55 " stroke="black" stroke-width="1" fill="none"/>
<path d="M 215 54 L 218 54 L 221 57 L 221 60 L 218 63 L 215 63 L 213 61 L 213 56 " stroke="black" stroke-width="1" fill="none"/>
<path d="M 216 57 L 215 58 L 215 59 L 216 60 L 218 60 L 218 57 " stroke="black" stroke-width="1" fill="none"/>
<path d="M 215 58 L 216 57 L 217 57 L 218 58 L 218 59 L 217 60 L 216 60 L 215 59 " stroke="black" stroke-width="1" fill="none"/>
<path d="M 179 45 L 193 60 L 191 62 L 177 46 L 177 48 L 191 63 L 187 79 L 191 67 L 191 62 L 194 59 L 205 57 L 209 58 L 206 60 L 194 62 L 194 64 L 206 62 L 197 63 L 196 62 L 197 61 L 207 59 L 209 60 L 207 64 L 193 67 L 189 80 L 183 82 L 183 89 L 188 90 L 191 88 L 191 83 L 189 80 L 193 68 L 195 66 L 210 63 L 209 62 L 210 57 L 193 60 " stroke="black" stroke-width="1" fill="none"/>
<path d="M 185 81 L 188 81 L 191 84 L 191 87 L 188 90 L 185 90 L 183 88 L 183 83 " stroke="black" stroke-width="1" fill="none"/>
<path d="M 186 84 L 185 85 L 185 86 L 186 87 L 188 87 L 188 84 " stroke="black" stroke-width="1" fill="none"/>
<path d="M 185 85 L 186 84 L 187 84 L 188 85 L 188 86 L 187 87 L 186 87 L 185 86 " stroke="black" stroke-width="1" fill="none"/>
</svg>