<svg xmlns="http://www.w3.org/2000/svg" width="300" height="300" viewBox="0 0 300 300">
<path d="M 268 222 L 268 229 L 269 229 L 270 230 L 274 230 L 276 228 L 276 223 L 274 221 L 270 221 L 269 222 " stroke="black" stroke-width="1" fill="none"/>
<path d="M 270 221 L 273 221 L 276 224 L 276 227 L 273 230 L 270 230 L 268 228 L 268 223 " stroke="black" stroke-width="1" fill="none"/>
<path d="M 271 224 L 270 225 L 270 226 L 271 227 L 273 227 L 273 224 " stroke="black" stroke-width="1" fill="none"/>
<path d="M 270 225 L 271 224 L 272 224 L 273 225 L 273 226 L 272 227 L 271 227 L 270 226 " stroke="black" stroke-width="1" fill="none"/>
<path d="M 280 213 L 280 222 L 281 221 L 282 222 L 282 220 L 283 219 L 284 219 L 285 220 L 285 221 L 287 221 L 287 214 L 285 214 L 284 215 L 283 215 L 282 214 L 282 213 L 281 214 " stroke="black" stroke-width="1" fill="none"/>
<path d="M 280 215 L 281 214 L 282 215 L 285 215 L 286 214 L 287 215 L 287 220 L 286 221 L 285 220 L 285 219 L 284 218 L 284 217 L 284 218 L 283 219 L 282 219 L 282 220 L 281 221 L 280 220 " stroke="black" stroke-width="1" fill="none"/>
<path d="M 69 199 L 69 208 L 70 207 L 71 208 L 71 206 L 72 205 L 73 205 L 74 206 L 74 207 L 76 207 L 76 200 L 74 200 L 73 201 L 72 201 L 71 200 L 70 200 " stroke="black" stroke-width="1" fill="none"/>
<path d="M 69 201 L 70 200 L 71 201 L 74 201 L 75 200 L 76 201 L 76 206 L 75 207 L 74 206 L 74 205 L 73 204 L 73 203 L 73 204 L 72 205 L 71 205 L 71 206 L 70 207 L 69 206 " stroke="black" stroke-width="1" fill="none"/>
<path d="M 245 191 L 244 191 L 244 210 L 245 209 L 246 209 L 246 192 " stroke="black" stroke-width="1" fill="none"/>
<path d="M 245 191 L 246 192 L 246 208 L 245 209 L 244 208 L 244 192 " stroke="black" stroke-width="1" fill="none"/>
<path d="M 76 184 L 72 184 L 71 185 L 70 185 L 70 192 L 72 194 L 72 197 L 74 197 L 74 195 L 74 196 L 73 197 L 72 196 L 72 194 L 73 193 L 76 193 L 78 191 L 78 186 " stroke="black" stroke-width="1" fill="none"/>
<path d="M 72 184 L 75 184 L 78 187 L 78 190 L 75 193 L 72 193 L 70 191 L 70 186 " stroke="black" stroke-width="1" fill="none"/>
<path d="M 73 187 L 72 188 L 72 189 L 73 190 L 75 190 L 75 187 " stroke="black" stroke-width="1" fill="none"/>
<path d="M 72 188 L 73 187 L 74 187 L 75 188 L 75 189 L 74 190 L 73 190 L 72 189 " stroke="black" stroke-width="1" fill="none"/>
<path d="M 159 184 L 159 191 L 160 191 L 161 192 L 165 192 L 167 190 L 167 185 L 165 183 L 161 183 L 160 184 " stroke="black" stroke-width="1" fill="none"/>
<path d="M 161 183 L 164 183 L 167 186 L 167 189 L 164 192 L 161 192 L 159 190 L 159 185 " stroke="black" stroke-width="1" fill="none"/>
<path d="M 162 186 L 161 187 L 161 188 L 162 189 L 164 189 L 164 186 " stroke="black" stroke-width="1" fill="none"/>
<path d="M 161 187 L 162 186 L 163 186 L 164 187 L 164 188 L 163 189 L 162 189 L 161 188 " stroke="black" stroke-width="1" fill="none"/>
<path d="M 226 180 L 225 180 L 224 181 L 223 181 L 222 182 L 221 182 L 220 183 L 219 183 L 218 182 L 219 183 L 218 184 L 219 183 L 220 183 L 221 182 L 222 182 L 223 181 L 224 181 L 225 180 L 226 181 L 226 182 L 225 183 L 224 183 L 223 184 L 222 184 L 221 185 L 220 185 L 219 186 L 218 186 L 216 188 L 215 188 L 214 189 L 213 189 L 211 191 L 210 191 L 212 191 L 214 189 L 215 189 L 216 188 L 217 188 L 219 186 L 220 186 L 221 185 L 222 185 L 223 184 L 224 184 L 225 183 L 226 183 L 227 182 L 226 181 " stroke="black" stroke-width="1" fill="none"/>
<path d="M 208 185 L 228 174 L 250 188 L 249 212 L 247 188 L 228 177 L 223 179 L 227 177 L 248 190 L 248 211 L 231 222 L 224 223 L 228 224 L 248 211 L 264 222 L 247 215 L 226 227 L 204 213 L 204 193 L 205 215 L 225 227 L 229 227 L 248 215 L 264 223 L 263 219 L 250 211 L 249 186 L 229 174 L 225 174 " stroke="black" stroke-width="1" fill="none"/>
<path d="M 100 173 L 101 173 L 103 175 L 104 175 L 105 176 L 106 176 L 108 178 L 109 178 L 110 179 L 111 179 L 112 180 L 113 180 L 114 181 L 115 181 L 116 182 L 116 183 L 115 184 L 114 183 L 113 183 L 112 182 L 111 182 L 110 181 L 109 181 L 108 180 L 109 181 L 108 182 L 109 181 L 110 181 L 111 182 L 112 182 L 113 183 L 114 183 L 115 184 L 116 184 L 116 183 L 117 182 L 116 181 L 115 181 L 114 180 L 113 180 L 112 179 L 111 179 L 110 178 L 109 178 L 107 176 L 106 176 L 105 175 L 104 175 L 102 173 " stroke="black" stroke-width="1" fill="none"/>
<path d="M 136 153 L 135 153 L 135 173 L 136 172 L 137 172 L 137 154 " stroke="black" stroke-width="1" fill="none"/>
<path d="M 136 153 L 137 154 L 137 171 L 136 172 L 135 171 L 135 154 " stroke="black" stroke-width="1" fill="none"/>
<path d="M 50 73 L 50 97 L 29 111 L 50 98 L 51 73 L 52 97 L 75 110 L 74 135 L 94 148 L 116 136 L 142 148 L 159 138 L 160 119 L 163 137 L 164 119 L 165 138 L 184 150 L 184 174 L 206 188 L 181 175 L 182 152 L 164 140 L 141 152 L 114 140 L 139 152 L 139 174 L 113 185 L 141 173 L 154 185 L 141 177 L 118 190 L 97 178 L 82 185 L 99 177 L 96 152 L 117 143 L 94 152 L 74 139 L 72 110 L 52 99 L 30 113 L 50 102 L 72 116 L 72 138 L 94 152 L 94 174 L 81 185 L 96 178 L 119 190 L 140 177 L 155 185 L 141 173 L 141 152 L 163 140 L 182 152 L 182 174 L 170 184 L 184 177 L 204 189 L 207 213 L 226 221 L 206 211 L 206 185 L 184 173 L 184 149 L 165 137 L 165 108 L 162 137 L 159 118 L 159 137 L 141 148 L 119 136 L 95 148 L 74 135 L 75 109 L 52 96 " stroke="black" stroke-width="1" fill="none"/>
<path d="M 182 176 L 182 177 L 181 178 L 180 178 L 177 181 L 176 181 L 174 183 L 173 183 L 172 184 L 171 184 L 170 183 L 172 181 L 173 181 L 175 179 L 176 179 L 179 176 L 180 176 L 181 175 " stroke="black" stroke-width="1" fill="none"/>
<path d="M 140 151 L 141 152 L 141 173 L 140 174 L 139 173 L 139 152 " stroke="black" stroke-width="1" fill="none"/>
<path d="M 95 151 L 96 152 L 96 174 L 95 175 L 94 174 L 94 152 " stroke="black" stroke-width="1" fill="none"/>
<path d="M 161 108 L 164 108 L 167 111 L 167 114 L 164 117 L 162 117 L 161 116 L 160 116 L 159 115 L 159 110 " stroke="black" stroke-width="1" fill="none"/>
<path d="M 162 111 L 161 112 L 161 113 L 162 114 L 164 114 L 164 111 " stroke="black" stroke-width="1" fill="none"/>
<path d="M 161 112 L 162 111 L 163 111 L 164 112 L 164 113 L 163 114 L 162 114 L 161 113 " stroke="black" stroke-width="1" fill="none"/>
</svg>