<svg xmlns="http://www.w3.org/2000/svg" width="300" height="300" viewBox="0 0 300 300">
<path d="M 277 217 L 276 217 L 275 216 L 274 217 L 274 218 L 273 219 L 273 221 L 272 222 L 272 223 L 271 224 L 271 225 L 270 226 L 270 227 L 268 230 L 268 232 L 266 235 L 252 235 L 251 234 L 246 234 L 246 235 L 245 236 L 247 236 L 248 237 L 255 237 L 256 238 L 268 238 L 269 237 L 269 236 L 270 235 L 270 234 L 272 231 L 272 229 L 273 228 L 273 227 L 274 226 L 274 224 L 275 223 L 275 222 L 277 219 " stroke="black" stroke-width="1" fill="none"/>
<path d="M 277 218 L 277 219 L 276 220 L 276 221 L 275 222 L 275 223 L 274 224 L 274 226 L 272 228 L 272 230 L 271 231 L 271 232 L 270 233 L 270 234 L 269 235 L 269 236 L 267 238 L 256 238 L 255 237 L 248 237 L 246 235 L 247 234 L 251 234 L 252 235 L 267 235 L 267 234 L 268 233 L 268 231 L 269 230 L 269 229 L 270 228 L 270 227 L 271 226 L 271 225 L 272 224 L 272 223 L 273 222 L 273 220 L 274 219 L 274 218 L 275 217 L 276 217 " stroke="black" stroke-width="1" fill="none"/>
<path d="M 276 207 L 276 213 L 278 215 L 282 215 L 284 213 L 284 208 L 282 206 L 278 206 L 277 207 " stroke="black" stroke-width="1" fill="none"/>
<path d="M 278 206 L 281 206 L 284 209 L 284 212 L 281 215 L 278 215 L 276 213 L 276 208 " stroke="black" stroke-width="1" fill="none"/>
<path d="M 279 209 L 278 210 L 278 211 L 279 212 L 281 212 L 281 209 " stroke="black" stroke-width="1" fill="none"/>
<path d="M 278 210 L 279 209 L 280 209 L 281 210 L 281 211 L 280 212 L 279 212 L 278 211 " stroke="black" stroke-width="1" fill="none"/>
<path d="M 208 171 L 208 189 L 209 190 L 209 191 L 210 191 L 211 192 L 214 193 L 216 195 L 217 195 L 218 196 L 221 197 L 223 199 L 224 199 L 226 201 L 227 201 L 229 203 L 230 203 L 231 204 L 233 204 L 234 203 L 235 203 L 236 202 L 235 203 L 233 203 L 232 204 L 231 203 L 230 203 L 228 201 L 227 201 L 222 197 L 221 197 L 220 196 L 217 195 L 215 193 L 214 193 L 213 192 L 210 191 L 208 189 " stroke="black" stroke-width="1" fill="none"/>
<path d="M 179 115 L 179 122 L 181 122 L 182 121 L 183 122 L 185 122 L 186 121 L 186 115 L 184 115 L 185 115 L 186 116 L 186 120 L 184 122 L 183 121 L 183 120 L 182 120 L 181 119 L 182 120 L 182 121 L 181 122 L 180 122 L 179 121 L 179 116 L 180 115 L 181 115 L 182 116 L 182 117 L 183 117 L 182 116 L 182 115 " stroke="black" stroke-width="1" fill="none"/>
<path d="M 182 107 L 181 108 L 181 110 L 182 111 L 184 111 L 185 110 L 185 108 L 184 107 " stroke="black" stroke-width="1" fill="none"/>
<path d="M 181 109 L 183 107 L 185 109 L 183 111 " stroke="black" stroke-width="1" fill="none"/>
<path d="M 49 107 L 48 107 L 47 108 L 45 108 L 43 110 L 41 110 L 40 111 L 39 111 L 37 113 L 36 113 L 35 114 L 34 114 L 32 116 L 31 116 L 30 117 L 31 118 L 31 119 L 33 119 L 34 118 L 35 118 L 37 116 L 38 116 L 39 115 L 40 115 L 42 113 L 43 113 L 44 112 L 45 112 L 46 111 L 47 111 L 48 110 L 49 110 L 50 109 L 49 108 " stroke="black" stroke-width="1" fill="none"/>
<path d="M 49 108 L 49 109 L 48 110 L 47 110 L 46 111 L 45 111 L 44 112 L 43 112 L 42 113 L 41 113 L 39 115 L 38 115 L 37 116 L 36 116 L 34 118 L 33 118 L 32 119 L 31 118 L 31 117 L 32 116 L 33 116 L 35 114 L 36 114 L 37 113 L 38 113 L 40 111 L 41 111 L 42 110 L 43 110 L 45 108 L 47 108 L 48 107 " stroke="black" stroke-width="1" fill="none"/>
<path d="M 102 107 L 106 105 L 132 121 L 132 146 L 106 162 L 102 160 L 107 162 L 128 150 L 132 146 L 137 149 L 139 146 L 157 156 L 140 146 L 136 148 L 134 146 L 134 121 L 136 119 L 140 121 L 157 111 L 139 121 L 137 118 L 132 121 L 128 117 L 107 105 " stroke="black" stroke-width="1" fill="none"/>
<path d="M 133 120 L 134 121 L 134 146 L 133 147 L 132 146 L 132 121 " stroke="black" stroke-width="1" fill="none"/>
<path d="M 53 100 L 53 107 L 54 107 L 55 108 L 59 108 L 61 106 L 61 101 L 59 99 L 55 99 L 54 100 " stroke="black" stroke-width="1" fill="none"/>
<path d="M 55 99 L 58 99 L 61 102 L 61 105 L 58 108 L 55 108 L 53 106 L 53 101 " stroke="black" stroke-width="1" fill="none"/>
<path d="M 56 102 L 55 103 L 55 104 L 56 105 L 58 105 L 58 102 " stroke="black" stroke-width="1" fill="none"/>
<path d="M 55 103 L 56 102 L 57 102 L 58 103 L 58 104 L 57 105 L 56 105 L 55 104 " stroke="black" stroke-width="1" fill="none"/>
<path d="M 64 108 L 79 120 L 79 150 L 104 165 L 132 150 L 156 164 L 182 150 L 205 162 L 206 192 L 231 208 L 237 238 L 236 205 L 257 193 L 273 203 L 259 190 L 258 161 L 233 146 L 233 118 L 210 104 L 189 114 L 209 107 L 229 119 L 229 148 L 207 160 L 184 146 L 178 124 L 182 146 L 154 159 L 184 146 L 210 160 L 233 146 L 256 160 L 260 191 L 234 206 L 237 227 L 231 207 L 206 191 L 206 165 L 212 188 L 209 164 L 231 150 L 256 164 L 257 189 L 234 199 L 256 191 L 255 162 L 230 150 L 207 164 L 181 150 L 157 164 L 131 150 L 105 165 L 81 151 L 80 119 L 82 149 L 105 157 L 81 147 L 81 120 L 105 110 L 79 120 L 64 109 L 82 116 L 105 102 L 107 89 L 108 103 L 131 117 L 157 103 L 177 114 L 156 103 L 132 117 L 110 104 L 110 70 L 102 104 L 81 116 " stroke="black" stroke-width="1" fill="none"/>
<path d="M 238 229 L 240 229 L 243 232 L 243 235 L 240 238 L 237 238 L 235 236 L 235 231 L 236 230 L 237 230 " stroke="black" stroke-width="1" fill="none"/>
<path d="M 238 232 L 237 233 L 237 234 L 238 235 L 240 235 L 240 232 " stroke="black" stroke-width="1" fill="none"/>
<path d="M 237 233 L 238 232 L 239 232 L 240 233 L 240 234 L 239 235 L 238 235 L 237 234 " stroke="black" stroke-width="1" fill="none"/>
<path d="M 258 193 L 259 192 L 261 192 L 272 203 L 272 204 L 271 205 L 267 201 L 266 201 " stroke="black" stroke-width="1" fill="none"/>
<path d="M 183 125 L 184 126 L 184 146 L 183 147 L 182 146 L 182 126 " stroke="black" stroke-width="1" fill="none"/>
<path d="M 179 125 L 180 126 L 180 142 L 179 143 L 178 142 L 178 126 " stroke="black" stroke-width="1" fill="none"/>
<path d="M 190 114 L 194 111 L 199 109 L 201 107 L 207 104 L 209 104 L 213 107 L 216 108 L 218 110 L 223 112 L 225 114 L 231 117 L 233 119 L 233 146 L 232 147 L 231 146 L 231 121 L 230 119 L 224 116 L 222 114 L 217 112 L 210 107 L 206 107 L 202 110 L 197 112 L 195 114 L 191 116 " stroke="black" stroke-width="1" fill="none"/>
<path d="M 107 81 L 108 82 L 108 88 L 107 89 L 106 88 L 106 82 " stroke="black" stroke-width="1" fill="none"/>
<path d="M 106 70 L 109 70 L 112 73 L 112 76 L 109 79 L 106 79 L 104 77 L 104 72 " stroke="black" stroke-width="1" fill="none"/>
<path d="M 107 73 L 106 74 L 106 75 L 107 76 L 109 76 L 109 73 " stroke="black" stroke-width="1" fill="none"/>
<path d="M 106 74 L 107 73 L 108 73 L 109 74 L 109 75 L 108 76 L 107 76 L 106 75 " stroke="black" stroke-width="1" fill="none"/>
<path d="M 83 60 L 83 61 L 82 62 L 83 63 L 84 63 L 86 65 L 87 65 L 88 66 L 89 66 L 91 68 L 92 68 L 93 69 L 94 69 L 96 71 L 97 71 L 98 72 L 100 72 L 100 71 L 101 70 L 100 69 L 99 69 L 97 67 L 96 67 L 95 66 L 94 66 L 92 64 L 91 64 L 90 63 L 89 63 L 87 61 L 86 61 L 85 60 " stroke="black" stroke-width="1" fill="none"/>
<path d="M 83 61 L 84 60 L 85 61 L 86 61 L 88 63 L 89 63 L 90 64 L 91 64 L 93 66 L 94 66 L 95 67 L 96 67 L 98 69 L 99 69 L 100 70 L 100 71 L 99 72 L 98 71 L 97 71 L 96 70 L 95 70 L 93 68 L 92 68 L 90 66 L 89 66 L 88 65 L 87 65 L 85 63 L 84 63 L 83 62 " stroke="black" stroke-width="1" fill="none"/>
</svg>