<svg xmlns="http://www.w3.org/2000/svg" width="300" height="300" viewBox="0 0 300 300">
<path d="M 287 230 L 286 231 L 285 231 L 285 232 L 283 234 L 282 233 L 282 231 L 279 231 L 279 240 L 282 240 L 282 237 L 283 236 L 285 238 L 285 241 L 286 240 L 287 241 " stroke="black" stroke-width="1" fill="none"/>
<path d="M 286 231 L 287 232 L 287 239 L 286 240 L 285 239 L 285 238 L 284 237 L 284 234 L 285 233 L 285 232 " stroke="black" stroke-width="1" fill="none"/>
<path d="M 280 231 L 281 231 L 282 232 L 282 239 L 281 240 L 280 240 L 279 239 L 279 232 " stroke="black" stroke-width="1" fill="none"/>
<path d="M 283 224 L 283 228 L 285 228 L 285 224 " stroke="black" stroke-width="1" fill="none"/>
<path d="M 284 224 L 285 225 L 285 227 L 284 228 L 283 227 L 283 225 " stroke="black" stroke-width="1" fill="none"/>
<path d="M 281 211 L 279 213 L 279 220 L 281 222 L 286 222 L 288 220 L 288 213 L 286 211 " stroke="black" stroke-width="1" fill="none"/>
<path d="M 282 211 L 285 211 L 288 214 L 288 219 L 285 222 L 282 222 L 279 219 L 279 214 " stroke="black" stroke-width="1" fill="none"/>
<path d="M 282 214 L 282 219 L 285 219 L 285 214 " stroke="black" stroke-width="1" fill="none"/>
<path d="M 283 214 L 284 214 L 285 215 L 285 218 L 284 219 L 283 219 L 282 218 L 282 215 " stroke="black" stroke-width="1" fill="none"/>
<path d="M 207 199 L 208 199 L 210 201 L 211 201 L 212 202 L 213 202 L 215 204 L 216 204 L 217 205 L 218 205 L 220 207 L 221 207 L 222 208 L 223 208 L 225 210 L 226 210 L 227 211 L 227 213 L 227 212 L 228 211 L 227 210 L 226 210 L 224 208 L 223 208 L 222 207 L 221 207 L 219 205 L 218 205 L 217 204 L 216 204 L 214 202 L 213 202 L 212 201 L 211 201 L 209 199 " stroke="black" stroke-width="1" fill="none"/>
<path d="M 252 173 L 251 173 L 251 198 L 252 197 L 253 197 L 253 174 " stroke="black" stroke-width="1" fill="none"/>
<path d="M 252 173 L 253 174 L 253 196 L 252 197 L 251 196 L 251 174 " stroke="black" stroke-width="1" fill="none"/>
<path d="M 143 163 L 141 165 L 141 172 L 143 174 L 148 174 L 150 172 L 150 165 L 148 163 " stroke="black" stroke-width="1" fill="none"/>
<path d="M 144 163 L 147 163 L 150 166 L 150 171 L 147 174 L 144 174 L 141 171 L 141 166 " stroke="black" stroke-width="1" fill="none"/>
<path d="M 144 166 L 144 171 L 147 171 L 147 166 " stroke="black" stroke-width="1" fill="none"/>
<path d="M 145 166 L 146 166 L 147 167 L 147 170 L 146 171 L 145 171 L 144 170 L 144 167 " stroke="black" stroke-width="1" fill="none"/>
<path d="M 30 163 L 28 165 L 28 172 L 30 174 L 35 174 L 37 172 L 37 165 L 35 163 " stroke="black" stroke-width="1" fill="none"/>
<path d="M 31 163 L 34 163 L 37 166 L 37 171 L 34 174 L 31 174 L 28 171 L 28 166 " stroke="black" stroke-width="1" fill="none"/>
<path d="M 31 166 L 31 171 L 34 171 L 34 166 " stroke="black" stroke-width="1" fill="none"/>
<path d="M 32 166 L 33 166 L 34 167 L 34 170 L 33 171 L 32 171 L 31 170 L 31 167 " stroke="black" stroke-width="1" fill="none"/>
<path d="M 19 154 L 18 155 L 17 154 L 17 156 L 15 158 L 14 157 L 14 155 L 11 155 L 11 164 L 14 164 L 14 161 L 15 160 L 17 162 L 17 165 L 18 164 L 19 165 " stroke="black" stroke-width="1" fill="none"/>
<path d="M 18 155 L 19 156 L 19 163 L 18 164 L 17 163 L 17 162 L 16 161 L 16 158 L 17 157 L 17 156 " stroke="black" stroke-width="1" fill="none"/>
<path d="M 12 155 L 13 155 L 14 156 L 14 163 L 13 164 L 12 164 L 11 163 L 11 156 " stroke="black" stroke-width="1" fill="none"/>
<path d="M 112 152 L 110 152 L 108 154 L 107 154 L 106 155 L 105 155 L 103 157 L 102 157 L 101 158 L 100 158 L 98 160 L 97 160 L 96 161 L 95 161 L 93 163 L 92 163 L 91 164 L 92 164 L 93 163 L 94 163 L 96 161 L 97 161 L 98 160 L 99 160 L 101 158 L 102 158 L 103 157 L 104 157 L 106 155 L 107 155 L 108 154 L 109 154 L 111 152 L 112 153 L 112 154 " stroke="black" stroke-width="1" fill="none"/>
<path d="M 65 125 L 64 126 L 64 149 L 65 149 L 66 150 L 66 125 " stroke="black" stroke-width="1" fill="none"/>
<path d="M 65 125 L 66 126 L 66 148 L 65 149 L 64 148 L 64 126 " stroke="black" stroke-width="1" fill="none"/>
<path d="M 198 99 L 196 101 L 196 108 L 198 110 L 203 110 L 205 108 L 205 101 L 203 99 " stroke="black" stroke-width="1" fill="none"/>
<path d="M 199 99 L 202 99 L 205 102 L 205 107 L 202 110 L 199 110 L 196 107 L 196 102 " stroke="black" stroke-width="1" fill="none"/>
<path d="M 199 102 L 199 107 L 202 107 L 202 102 " stroke="black" stroke-width="1" fill="none"/>
<path d="M 200 102 L 201 102 L 202 103 L 202 106 L 201 107 L 200 107 L 199 106 L 199 103 " stroke="black" stroke-width="1" fill="none"/>
<path d="M 204 79 L 203 80 L 202 79 L 202 81 L 200 83 L 199 82 L 199 80 L 196 80 L 196 89 L 199 89 L 199 86 L 200 85 L 202 87 L 202 89 L 203 89 L 204 90 " stroke="black" stroke-width="1" fill="none"/>
<path d="M 203 80 L 204 81 L 204 88 L 203 89 L 202 88 L 202 87 L 201 86 L 201 83 L 202 82 L 202 81 " stroke="black" stroke-width="1" fill="none"/>
<path d="M 197 80 L 198 80 L 199 81 L 199 88 L 198 89 L 197 89 L 196 88 L 196 81 " stroke="black" stroke-width="1" fill="none"/>
<path d="M 41 164 L 61 156 L 92 172 L 119 156 L 137 166 L 119 152 L 119 124 L 147 108 L 172 124 L 172 152 L 154 165 L 174 155 L 199 172 L 174 155 L 155 164 L 172 153 L 172 123 L 148 108 L 113 120 L 114 155 L 136 166 L 120 156 L 91 172 L 62 156 L 42 165 L 62 152 L 94 167 L 62 152 L 62 123 L 91 107 L 112 124 L 92 107 L 63 121 L 60 152 L 60 121 L 89 103 L 117 120 L 147 105 L 174 122 L 174 152 L 202 168 L 203 202 L 227 216 L 255 200 L 275 212 L 255 204 L 226 218 L 200 202 L 200 174 L 201 204 L 227 219 L 256 204 L 276 211 L 257 200 L 257 169 L 231 153 L 204 167 L 228 153 L 254 167 L 257 200 L 254 170 L 227 156 L 207 172 L 237 160 L 255 172 L 255 200 L 230 216 L 205 203 L 202 167 L 174 151 L 174 122 L 193 110 L 174 122 L 144 105 L 118 120 L 91 103 L 91 79 L 89 103 L 60 120 L 60 152 " stroke="black" stroke-width="1" fill="none"/>
<path d="M 118 123 L 119 124 L 119 152 L 118 153 L 117 152 L 117 124 " stroke="black" stroke-width="1" fill="none"/>
<path d="M 182 117 L 180 119 L 178 119 L 177 120 L 176 120 L 175 119 L 175 118 L 176 117 L 178 117 L 180 115 " stroke="black" stroke-width="1" fill="none"/>
<path d="M 193 111 L 193 112 L 190 115 L 188 115 L 187 116 L 185 116 L 184 117 L 182 117 L 180 115 L 181 114 L 182 114 L 185 111 L 187 111 L 188 112 L 188 113 L 188 112 L 187 111 L 187 110 L 188 109 L 191 109 " stroke="black" stroke-width="1" fill="none"/>
<path d="M 90 79 L 91 80 L 91 103 L 90 104 L 89 103 L 89 80 " stroke="black" stroke-width="1" fill="none"/>
<path d="M 87 66 L 85 68 L 85 75 L 87 77 L 92 77 L 94 75 L 94 68 L 92 66 " stroke="black" stroke-width="1" fill="none"/>
<path d="M 88 66 L 91 66 L 94 69 L 94 74 L 91 77 L 88 77 L 85 74 L 85 69 " stroke="black" stroke-width="1" fill="none"/>
<path d="M 88 69 L 88 74 L 91 74 L 91 69 " stroke="black" stroke-width="1" fill="none"/>
<path d="M 89 69 L 90 69 L 91 70 L 91 73 L 90 74 L 89 74 L 88 73 L 88 70 " stroke="black" stroke-width="1" fill="none"/>
<path d="M 76 56 L 75 57 L 74 56 L 74 58 L 72 60 L 71 59 L 71 57 L 68 57 L 68 66 L 71 66 L 71 63 L 72 62 L 74 64 L 74 67 L 75 66 L 76 67 " stroke="black" stroke-width="1" fill="none"/>
<path d="M 75 57 L 76 58 L 76 65 L 75 66 L 74 65 L 74 64 L 73 63 L 73 60 L 74 59 L 74 58 " stroke="black" stroke-width="1" fill="none"/>
<path d="M 69 57 L 70 57 L 71 58 L 71 65 L 70 66 L 69 66 L 68 65 L 68 58 " stroke="black" stroke-width="1" fill="none"/>
</svg>