<svg xmlns="http://www.w3.org/2000/svg" width="300" height="300" viewBox="0 0 300 300">
<path d="M 63 248 L 65 248 L 70 244 L 73 243 L 78 239 L 79 239 L 83 236 L 88 234 L 90 232 L 92 232 L 93 233 L 96 234 L 98 236 L 105 239 L 110 243 L 113 244 L 118 248 L 120 248 L 119 248 L 114 244 L 111 243 L 106 239 L 99 236 L 97 234 L 96 234 L 93 232 L 89 232 L 87 234 L 82 236 L 80 238 L 77 239 L 72 243 L 69 244 L 67 246 L 66 246 L 64 248 " stroke="black" stroke-width="1" fill="none"/>
<path d="M 256 185 L 255 186 L 254 185 L 254 187 L 252 189 L 251 188 L 251 186 L 248 186 L 248 195 L 251 195 L 251 192 L 252 191 L 254 193 L 254 196 L 255 195 L 256 196 " stroke="black" stroke-width="1" fill="none"/>
<path d="M 255 186 L 256 187 L 256 194 L 255 195 L 254 194 L 254 193 L 253 192 L 253 189 L 254 188 L 254 187 " stroke="black" stroke-width="1" fill="none"/>
<path d="M 249 186 L 250 186 L 251 187 L 251 194 L 250 195 L 249 195 L 248 194 L 248 187 " stroke="black" stroke-width="1" fill="none"/>
<path d="M 233 174 L 231 176 L 231 183 L 233 185 L 238 185 L 240 183 L 240 176 L 238 174 " stroke="black" stroke-width="1" fill="none"/>
<path d="M 234 174 L 237 174 L 240 177 L 240 182 L 237 185 L 234 185 L 231 182 L 231 177 " stroke="black" stroke-width="1" fill="none"/>
<path d="M 234 177 L 234 182 L 237 182 L 237 177 " stroke="black" stroke-width="1" fill="none"/>
<path d="M 235 177 L 236 177 L 237 178 L 237 181 L 236 182 L 235 182 L 234 181 L 234 178 " stroke="black" stroke-width="1" fill="none"/>
<path d="M 34 129 L 61 145 L 65 145 L 77 137 L 82 136 L 66 147 L 65 171 L 64 148 L 62 148 L 61 171 L 60 147 L 33 131 L 60 148 L 60 173 L 58 175 L 58 182 L 60 184 L 65 184 L 67 182 L 67 175 L 65 173 L 66 148 L 82 138 L 82 135 L 62 145 " stroke="black" stroke-width="1" fill="none"/>
<path d="M 61 173 L 64 173 L 67 176 L 67 181 L 64 184 L 61 184 L 58 181 L 58 176 " stroke="black" stroke-width="1" fill="none"/>
<path d="M 61 176 L 61 181 L 64 181 L 64 176 " stroke="black" stroke-width="1" fill="none"/>
<path d="M 62 176 L 63 176 L 64 177 L 64 180 L 63 181 L 62 181 L 61 180 L 61 177 " stroke="black" stroke-width="1" fill="none"/>
<path d="M 63 148 L 64 149 L 64 171 L 65 171 L 66 172 L 65 173 L 61 173 L 60 172 L 61 171 L 62 171 L 62 149 " stroke="black" stroke-width="1" fill="none"/>
<path d="M 88 123 L 86 125 L 86 132 L 88 134 L 93 134 L 95 132 L 95 125 L 93 123 " stroke="black" stroke-width="1" fill="none"/>
<path d="M 89 123 L 92 123 L 95 126 L 95 131 L 92 134 L 89 134 L 86 131 L 86 126 " stroke="black" stroke-width="1" fill="none"/>
<path d="M 89 126 L 89 131 L 92 131 L 92 126 " stroke="black" stroke-width="1" fill="none"/>
<path d="M 90 126 L 91 126 L 92 127 L 92 130 L 91 131 L 90 131 L 89 130 L 89 127 " stroke="black" stroke-width="1" fill="none"/>
<path d="M 237 52 L 235 77 L 205 95 L 181 80 L 182 42 L 173 42 L 175 80 L 148 96 L 148 128 L 121 145 L 98 135 L 119 148 L 119 178 L 88 197 L 88 229 L 62 246 L 88 230 L 90 196 L 92 229 L 91 197 L 118 180 L 120 148 L 121 180 L 94 197 L 94 230 L 121 246 L 94 229 L 94 197 L 121 181 L 121 149 L 149 132 L 175 148 L 175 184 L 182 182 L 181 148 L 206 132 L 235 150 L 237 172 L 237 150 L 267 132 L 267 95 L 237 77 " stroke="black" stroke-width="1" fill="none"/>
<path d="M 176 173 L 179 173 L 182 176 L 182 181 L 179 184 L 176 184 L 173 181 L 173 176 " stroke="black" stroke-width="1" fill="none"/>
<path d="M 176 176 L 176 181 L 179 181 L 179 176 " stroke="black" stroke-width="1" fill="none"/>
<path d="M 177 176 L 178 176 L 179 177 L 179 180 L 178 181 L 177 181 L 176 180 L 176 177 " stroke="black" stroke-width="1" fill="none"/>
<path d="M 236 149 L 237 150 L 237 171 L 236 172 L 235 171 L 235 150 " stroke="black" stroke-width="1" fill="none"/>
<path d="M 178 148 L 179 149 L 179 171 L 180 171 L 181 172 L 180 173 L 176 173 L 175 172 L 176 171 L 177 171 L 177 149 " stroke="black" stroke-width="1" fill="none"/>
<path d="M 98 136 L 101 133 L 102 133 L 104 135 L 105 135 L 107 137 L 108 137 L 110 139 L 111 139 L 113 141 L 114 141 L 115 142 L 116 142 L 118 144 L 119 144 L 122 147 L 121 148 L 120 148 L 118 146 L 117 146 L 116 145 L 115 145 L 114 144 L 113 144 L 111 142 L 110 142 L 109 141 L 107 141 L 106 140 L 104 140 L 103 139 L 101 139 " stroke="black" stroke-width="1" fill="none"/>
<path d="M 206 98 L 207 99 L 207 128 L 206 129 L 205 128 L 205 99 " stroke="black" stroke-width="1" fill="none"/>
<path d="M 177 82 L 179 82 L 182 85 L 185 86 L 195 93 L 200 95 L 205 99 L 205 128 L 199 133 L 196 134 L 191 138 L 181 143 L 179 145 L 177 145 L 171 141 L 164 138 L 159 134 L 153 131 L 150 128 L 150 99 L 155 95 L 160 93 L 162 91 L 165 90 " stroke="black" stroke-width="1" fill="none"/>
<path d="M 153 101 L 152 102 L 152 125 L 153 125 L 154 126 L 154 101 " stroke="black" stroke-width="1" fill="none"/>
<path d="M 153 101 L 154 102 L 154 124 L 153 125 L 152 124 L 152 102 " stroke="black" stroke-width="1" fill="none"/>
<path d="M 121 146 L 148 128 L 176 145 L 205 128 L 235 141 L 207 128 L 207 99 L 213 94 L 205 99 L 179 82 L 151 97 L 148 128 L 148 97 L 175 80 L 176 53 L 177 79 L 180 53 L 181 80 L 204 95 L 237 77 L 267 96 L 264 134 L 235 150 L 205 132 L 181 147 L 180 171 L 179 148 L 176 171 L 175 147 L 150 132 " stroke="black" stroke-width="1" fill="none"/>
<path d="M 262 101 L 261 101 L 261 127 L 262 126 L 263 126 L 263 102 " stroke="black" stroke-width="1" fill="none"/>
<path d="M 262 101 L 263 102 L 263 125 L 262 126 L 261 125 L 261 102 " stroke="black" stroke-width="1" fill="none"/>
<path d="M 234 84 L 234 86 L 232 88 L 231 88 L 230 89 L 229 89 L 227 91 L 226 91 L 224 93 L 223 93 L 222 94 L 221 94 L 219 96 L 218 96 L 217 97 L 216 97 L 214 99 L 213 99 L 215 99 L 217 97 L 218 97 L 219 96 L 220 96 L 222 94 L 223 94 L 224 93 L 225 93 L 227 91 L 228 91 L 230 89 L 231 89 L 232 88 L 233 88 L 235 86 L 234 85 " stroke="black" stroke-width="1" fill="none"/>
<path d="M 235 81 L 230 84 L 235 81 L 237 81 L 265 98 L 265 129 L 262 132 L 237 146 L 235 146 L 230 143 L 235 146 L 238 146 L 264 131 L 265 129 L 265 98 L 264 96 L 259 94 L 257 92 L 250 89 L 241 83 " stroke="black" stroke-width="1" fill="none"/>
<path d="M 236 52 L 237 53 L 237 77 L 236 78 L 235 77 L 235 53 " stroke="black" stroke-width="1" fill="none"/>
<path d="M 176 51 L 180 51 L 181 52 L 180 53 L 179 53 L 179 78 L 178 79 L 177 78 L 177 53 L 176 53 L 175 52 " stroke="black" stroke-width="1" fill="none"/>
<path d="M 176 40 L 179 40 L 182 43 L 182 48 L 179 51 L 176 51 L 173 48 L 173 43 " stroke="black" stroke-width="1" fill="none"/>
<path d="M 176 43 L 176 48 L 179 48 L 179 43 " stroke="black" stroke-width="1" fill="none"/>
<path d="M 177 43 L 178 43 L 179 44 L 179 47 L 178 48 L 177 48 L 176 47 L 176 44 " stroke="black" stroke-width="1" fill="none"/>
<path d="M 233 39 L 231 41 L 231 48 L 233 50 L 238 50 L 240 48 L 240 41 L 238 39 " stroke="black" stroke-width="1" fill="none"/>
<path d="M 234 39 L 237 39 L 240 42 L 240 47 L 237 50 L 234 50 L 231 47 L 231 42 " stroke="black" stroke-width="1" fill="none"/>
<path d="M 234 42 L 234 47 L 237 47 L 237 42 " stroke="black" stroke-width="1" fill="none"/>
<path d="M 235 42 L 236 42 L 237 43 L 237 46 L 236 47 L 235 47 L 234 46 L 234 43 " stroke="black" stroke-width="1" fill="none"/>
<path d="M 256 29 L 255 30 L 254 29 L 254 31 L 252 33 L 251 32 L 251 30 L 248 30 L 248 39 L 251 39 L 251 36 L 252 35 L 254 37 L 254 40 L 255 39 L 256 40 " stroke="black" stroke-width="1" fill="none"/>
<path d="M 255 30 L 256 31 L 256 38 L 255 39 L 254 38 L 254 37 L 253 36 L 253 33 L 254 32 L 254 31 " stroke="black" stroke-width="1" fill="none"/>
<path d="M 249 30 L 250 30 L 251 31 L 251 38 L 250 39 L 249 39 L 248 38 L 248 31 " stroke="black" stroke-width="1" fill="none"/>
</svg>