<svg xmlns="http://www.w3.org/2000/svg" width="300" height="300" viewBox="0 0 300 300">
<path d="M 265 206 L 263 208 L 263 215 L 265 217 L 270 217 L 272 215 L 272 208 L 270 206 " stroke="black" stroke-width="1" fill="none"/>
<path d="M 266 206 L 269 206 L 272 209 L 272 214 L 269 217 L 266 217 L 263 214 L 263 209 " stroke="black" stroke-width="1" fill="none"/>
<path d="M 266 209 L 266 214 L 269 214 L 269 209 " stroke="black" stroke-width="1" fill="none"/>
<path d="M 267 209 L 268 209 L 269 210 L 269 213 L 268 214 L 267 214 L 266 213 L 266 210 " stroke="black" stroke-width="1" fill="none"/>
<path d="M 287 197 L 286 198 L 285 197 L 285 199 L 283 201 L 282 200 L 282 198 L 279 198 L 279 207 L 282 207 L 282 204 L 283 203 L 285 205 L 285 208 L 286 207 L 287 208 " stroke="black" stroke-width="1" fill="none"/>
<path d="M 286 198 L 287 199 L 287 206 L 286 207 L 285 206 L 285 205 L 284 204 L 284 201 L 285 200 L 285 199 " stroke="black" stroke-width="1" fill="none"/>
<path d="M 280 198 L 281 198 L 282 199 L 282 206 L 281 207 L 280 207 L 279 206 L 279 199 " stroke="black" stroke-width="1" fill="none"/>
<path d="M 29 162 L 27 164 L 27 171 L 29 173 L 34 173 L 36 171 L 36 164 L 34 162 " stroke="black" stroke-width="1" fill="none"/>
<path d="M 30 162 L 33 162 L 36 165 L 36 170 L 33 173 L 30 173 L 27 170 L 27 165 " stroke="black" stroke-width="1" fill="none"/>
<path d="M 30 165 L 30 170 L 33 170 L 33 165 " stroke="black" stroke-width="1" fill="none"/>
<path d="M 31 165 L 32 165 L 33 166 L 33 169 L 32 170 L 31 170 L 30 169 L 30 166 " stroke="black" stroke-width="1" fill="none"/>
<path d="M 135 161 L 133 163 L 133 170 L 135 172 L 140 172 L 142 170 L 142 163 L 140 161 " stroke="black" stroke-width="1" fill="none"/>
<path d="M 136 161 L 139 161 L 142 164 L 142 169 L 139 172 L 136 172 L 133 169 L 133 164 " stroke="black" stroke-width="1" fill="none"/>
<path d="M 136 164 L 136 169 L 139 169 L 139 164 " stroke="black" stroke-width="1" fill="none"/>
<path d="M 137 164 L 138 164 L 139 165 L 139 168 L 138 169 L 137 169 L 136 168 L 136 165 " stroke="black" stroke-width="1" fill="none"/>
<path d="M 19 153 L 18 154 L 17 153 L 17 155 L 15 157 L 14 156 L 14 154 L 11 154 L 11 163 L 14 163 L 14 160 L 15 159 L 17 161 L 17 164 L 18 163 L 19 164 " stroke="black" stroke-width="1" fill="none"/>
<path d="M 18 154 L 19 155 L 19 162 L 18 163 L 17 162 L 17 161 L 16 160 L 16 157 L 17 156 L 17 155 " stroke="black" stroke-width="1" fill="none"/>
<path d="M 12 154 L 13 154 L 14 155 L 14 162 L 13 163 L 12 163 L 11 162 L 11 155 " stroke="black" stroke-width="1" fill="none"/>
<path d="M 160 127 L 159 127 L 159 150 L 160 149 L 161 149 L 161 128 " stroke="black" stroke-width="1" fill="none"/>
<path d="M 160 127 L 161 128 L 161 148 L 160 149 L 159 148 L 159 128 " stroke="black" stroke-width="1" fill="none"/>
<path d="M 40 163 L 59 156 L 87 170 L 112 155 L 129 164 L 113 151 L 113 125 L 139 110 L 163 125 L 163 151 L 147 164 L 164 155 L 187 168 L 191 201 L 214 214 L 242 200 L 260 207 L 243 196 L 243 167 L 214 152 L 189 166 L 165 151 L 165 122 L 141 108 L 140 71 L 133 73 L 135 108 L 113 121 L 86 105 L 85 83 L 84 105 L 57 122 L 57 152 " stroke="black" stroke-width="1" fill="none"/>
<path d="M 147 162 L 165 151 L 177 160 L 192 166 L 217 152 L 243 168 L 243 196 L 240 168 L 215 155 L 212 157 L 216 155 L 241 170 L 241 196 L 219 210 L 213 210 L 218 211 L 241 196 L 259 208 L 241 200 L 215 214 L 189 198 L 190 169 L 192 198 L 195 200 L 193 198 L 197 196 L 215 207 L 198 196 L 191 196 L 191 170 L 196 166 L 189 170 L 165 155 L 148 164 " stroke="black" stroke-width="1" fill="none"/>
<path d="M 238 172 L 237 172 L 237 195 L 238 194 L 239 194 L 239 173 " stroke="black" stroke-width="1" fill="none"/>
<path d="M 238 172 L 239 173 L 239 193 L 238 194 L 237 193 L 237 173 " stroke="black" stroke-width="1" fill="none"/>
<path d="M 215 160 L 214 160 L 213 161 L 212 161 L 210 163 L 209 163 L 208 164 L 207 164 L 206 165 L 205 165 L 203 167 L 202 167 L 200 169 L 199 169 L 197 171 L 196 170 L 196 169 L 198 167 L 199 167 L 200 166 L 199 167 L 198 167 L 196 169 L 196 171 L 198 171 L 200 169 L 201 169 L 203 167 L 204 167 L 206 165 L 207 165 L 208 164 L 209 164 L 210 163 L 211 163 L 213 161 L 214 161 " stroke="black" stroke-width="1" fill="none"/>
<path d="M 112 124 L 113 125 L 113 151 L 112 152 L 111 151 L 111 125 " stroke="black" stroke-width="1" fill="none"/>
<path d="M 85 91 L 86 92 L 86 105 L 85 106 L 84 105 L 84 92 " stroke="black" stroke-width="1" fill="none"/>
<path d="M 165 123 L 164 152 L 162 123 L 137 110 L 113 125 L 107 121 L 109 123 L 105 125 L 87 112 L 100 123 L 111 125 L 111 151 L 107 155 L 113 151 L 129 163 L 111 155 L 86 170 L 60 156 L 41 164 L 59 152 L 87 167 L 59 152 L 59 125 L 85 109 L 100 117 L 84 109 L 60 123 L 58 153 L 57 123 L 84 105 L 114 121 L 135 108 L 136 84 L 137 107 L 140 84 L 141 108 " stroke="black" stroke-width="1" fill="none"/>
<path d="M 106 151 L 104 151 L 102 153 L 101 153 L 99 155 L 98 155 L 96 157 L 95 157 L 93 159 L 92 159 L 91 160 L 90 160 L 88 162 L 87 162 L 86 163 L 87 164 L 87 163 L 88 162 L 89 162 L 91 160 L 92 160 L 93 159 L 94 159 L 96 157 L 97 157 L 99 155 L 100 155 L 102 153 L 103 153 L 105 151 " stroke="black" stroke-width="1" fill="none"/>
<path d="M 62 127 L 61 128 L 61 149 L 62 149 L 63 150 L 63 127 " stroke="black" stroke-width="1" fill="none"/>
<path d="M 62 127 L 63 128 L 63 148 L 62 149 L 61 148 L 61 128 " stroke="black" stroke-width="1" fill="none"/>
<path d="M 86 83 L 87 84 L 87 90 L 86 91 L 85 91 L 84 90 L 84 85 " stroke="black" stroke-width="1" fill="none"/>
<path d="M 136 82 L 140 82 L 141 83 L 140 84 L 139 84 L 139 106 L 138 107 L 137 106 L 137 84 L 136 84 L 135 83 " stroke="black" stroke-width="1" fill="none"/>
<path d="M 136 71 L 139 71 L 142 74 L 142 79 L 139 82 L 136 82 L 133 79 L 133 74 " stroke="black" stroke-width="1" fill="none"/>
<path d="M 136 74 L 136 79 L 139 79 L 139 74 " stroke="black" stroke-width="1" fill="none"/>
<path d="M 137 74 L 138 74 L 139 75 L 139 78 L 138 79 L 137 79 L 136 78 L 136 75 " stroke="black" stroke-width="1" fill="none"/>
<path d="M 83 70 L 81 72 L 81 79 L 83 81 L 88 81 L 90 79 L 90 72 L 88 70 " stroke="black" stroke-width="1" fill="none"/>
<path d="M 84 70 L 87 70 L 90 73 L 90 78 L 87 81 L 84 81 L 81 78 L 81 73 " stroke="black" stroke-width="1" fill="none"/>
<path d="M 84 73 L 84 78 L 87 78 L 87 73 " stroke="black" stroke-width="1" fill="none"/>
<path d="M 85 73 L 86 73 L 87 74 L 87 77 L 86 78 L 85 78 L 84 77 L 84 74 " stroke="black" stroke-width="1" fill="none"/>
<path d="M 73 61 L 72 62 L 71 61 L 71 63 L 69 65 L 68 64 L 68 62 L 65 62 L 65 71 L 68 71 L 68 68 L 69 67 L 71 69 L 71 72 L 72 71 L 73 72 " stroke="black" stroke-width="1" fill="none"/>
<path d="M 72 62 L 73 63 L 73 70 L 72 71 L 71 70 L 71 69 L 70 68 L 70 65 L 71 64 L 71 63 " stroke="black" stroke-width="1" fill="none"/>
<path d="M 66 62 L 67 62 L 68 63 L 68 70 L 67 71 L 66 71 L 65 70 L 65 63 " stroke="black" stroke-width="1" fill="none"/>
</svg>