<svg xmlns="http://www.w3.org/2000/svg" width="300" height="300" viewBox="0 0 300 300">
<path d="M 139 279 L 139 288 L 140 287 L 141 288 L 141 286 L 142 285 L 143 285 L 144 286 L 144 287 L 146 287 L 146 280 L 144 280 L 143 281 L 142 281 L 141 280 L 141 279 L 140 280 " stroke="black" stroke-width="1" fill="none"/>
<path d="M 139 281 L 140 280 L 141 281 L 144 281 L 145 280 L 146 281 L 146 286 L 145 287 L 144 286 L 144 285 L 143 284 L 143 283 L 143 284 L 142 285 L 141 285 L 141 286 L 140 287 L 139 286 " stroke="black" stroke-width="1" fill="none"/>
<path d="M 162 273 L 160 271 L 160 272 L 162 274 L 162 277 L 159 280 L 156 280 L 155 279 L 157 277 L 159 277 L 159 274 L 157 274 L 156 275 L 157 276 L 157 277 L 155 279 L 153 277 L 154 276 L 154 274 L 156 272 L 155 272 L 154 273 L 154 276 L 153 277 L 152 277 L 151 278 L 150 278 L 149 279 L 150 280 L 150 281 L 152 281 L 154 279 L 155 279 L 156 280 L 160 280 L 162 278 " stroke="black" stroke-width="1" fill="none"/>
<path d="M 153 277 L 154 278 L 154 279 L 153 280 L 152 280 L 151 281 L 150 280 L 150 279 L 151 278 L 152 278 " stroke="black" stroke-width="1" fill="none"/>
<path d="M 156 275 L 157 274 L 158 274 L 159 275 L 159 276 L 158 277 " stroke="black" stroke-width="1" fill="none"/>
<path d="M 197 247 L 197 254 L 198 254 L 199 255 L 203 255 L 205 253 L 205 248 L 203 246 L 199 246 L 198 247 " stroke="black" stroke-width="1" fill="none"/>
<path d="M 199 246 L 202 246 L 205 249 L 205 252 L 202 255 L 199 255 L 197 253 L 197 248 " stroke="black" stroke-width="1" fill="none"/>
<path d="M 200 249 L 199 250 L 199 251 L 200 252 L 202 252 L 202 249 " stroke="black" stroke-width="1" fill="none"/>
<path d="M 199 250 L 200 249 L 201 249 L 202 250 L 202 251 L 201 252 L 200 252 L 199 251 " stroke="black" stroke-width="1" fill="none"/>
<path d="M 110 247 L 110 254 L 111 254 L 112 255 L 116 255 L 118 253 L 118 248 L 116 246 L 112 246 L 111 247 " stroke="black" stroke-width="1" fill="none"/>
<path d="M 112 246 L 115 246 L 118 249 L 118 252 L 115 255 L 112 255 L 110 253 L 110 248 " stroke="black" stroke-width="1" fill="none"/>
<path d="M 113 249 L 112 250 L 112 251 L 113 252 L 115 252 L 115 249 " stroke="black" stroke-width="1" fill="none"/>
<path d="M 112 250 L 113 249 L 114 249 L 115 250 L 115 251 L 114 252 L 113 252 L 112 251 " stroke="black" stroke-width="1" fill="none"/>
<path d="M 210 238 L 210 247 L 211 246 L 212 247 L 212 245 L 213 244 L 214 244 L 215 245 L 215 246 L 217 246 L 217 239 L 215 239 L 214 240 L 213 240 L 212 239 L 212 238 L 211 239 " stroke="black" stroke-width="1" fill="none"/>
<path d="M 210 240 L 211 239 L 212 240 L 215 240 L 216 239 L 217 240 L 217 245 L 216 246 L 215 245 L 215 244 L 214 243 L 214 242 L 214 243 L 213 244 L 212 244 L 212 245 L 211 246 L 210 245 " stroke="black" stroke-width="1" fill="none"/>
<path d="M 96 238 L 96 247 L 97 246 L 98 247 L 98 245 L 99 244 L 100 244 L 101 245 L 101 246 L 103 246 L 103 239 L 101 239 L 100 240 L 99 240 L 98 239 L 98 238 L 97 239 " stroke="black" stroke-width="1" fill="none"/>
<path d="M 96 240 L 97 239 L 98 240 L 101 240 L 102 239 L 103 240 L 103 245 L 102 246 L 101 245 L 101 244 L 100 243 L 100 242 L 100 243 L 99 244 L 98 244 L 98 245 L 97 246 L 96 245 " stroke="black" stroke-width="1" fill="none"/>
<path d="M 154 196 L 154 203 L 155 203 L 156 204 L 160 204 L 162 202 L 162 197 L 160 195 L 156 195 L 155 196 " stroke="black" stroke-width="1" fill="none"/>
<path d="M 156 195 L 159 195 L 162 198 L 162 201 L 159 204 L 156 204 L 154 202 L 154 197 " stroke="black" stroke-width="1" fill="none"/>
<path d="M 157 198 L 156 199 L 156 200 L 157 201 L 159 201 L 159 198 " stroke="black" stroke-width="1" fill="none"/>
<path d="M 156 199 L 157 198 L 158 198 L 159 199 L 159 200 L 158 201 L 157 201 L 156 200 " stroke="black" stroke-width="1" fill="none"/>
<path d="M 110 171 L 111 201 L 113 181 L 115 199 L 135 212 L 150 204 L 136 214 L 136 236 L 156 249 L 154 251 L 135 239 L 123 247 L 120 245 L 134 236 L 134 215 L 111 203 L 134 216 L 134 236 L 120 243 L 121 247 L 135 239 L 155 252 L 154 269 L 159 269 L 157 254 L 178 240 L 193 246 L 180 236 L 180 214 L 193 207 L 192 202 L 178 211 L 165 204 L 178 215 L 178 236 L 157 250 L 136 236 L 136 215 L 150 203 L 135 212 L 116 199 L 114 181 L 111 180 L 118 177 L 118 172 " stroke="black" stroke-width="1" fill="none"/>
<path d="M 156 254 L 158 256 L 158 263 L 159 264 L 159 268 L 158 269 L 155 269 L 154 268 L 154 260 L 156 258 L 155 258 L 154 257 L 154 256 " stroke="black" stroke-width="1" fill="none"/>
<path d="M 181 240 L 182 239 L 183 239 L 185 241 L 187 241 L 188 242 L 189 242 L 190 243 L 192 243 L 193 244 L 193 245 L 192 246 L 188 246 L 187 245 L 188 244 L 187 245 L 186 245 L 184 243 L 183 243 L 181 241 " stroke="black" stroke-width="1" fill="none"/>
<path d="M 178 239 L 178 240 L 177 241 L 176 241 L 174 243 L 173 243 L 172 244 L 171 244 L 169 246 L 168 246 L 167 247 L 166 247 L 165 248 L 164 248 L 162 250 L 161 250 L 160 251 L 159 251 L 158 252 L 158 253 L 157 254 L 156 254 L 155 253 L 155 252 L 154 251 L 156 249 L 157 250 L 159 248 L 161 248 L 163 246 L 164 246 L 165 245 L 166 245 L 167 244 L 168 244 L 170 242 L 171 242 L 173 240 L 174 240 L 175 239 L 176 239 L 177 238 " stroke="black" stroke-width="1" fill="none"/>
<path d="M 177 238 L 178 237 L 180 237 L 182 239 L 180 241 " stroke="black" stroke-width="1" fill="none"/>
<path d="M 179 214 L 180 215 L 180 236 L 179 237 L 178 236 L 178 215 " stroke="black" stroke-width="1" fill="none"/>
<path d="M 165 205 L 166 204 L 167 205 L 168 205 L 170 207 L 171 207 L 172 208 L 173 208 L 175 210 L 177 210 L 178 211 L 178 212 L 177 213 L 176 213 L 175 212 L 174 212 L 172 210 L 171 210 L 170 209 L 169 209 L 168 208 L 167 208 L 165 206 " stroke="black" stroke-width="1" fill="none"/>
<path d="M 194 205 L 191 208 L 189 208 L 188 209 L 186 209 L 185 210 L 184 210 L 182 212 L 181 212 L 179 214 L 178 214 L 177 213 L 181 209 L 182 209 L 186 205 L 187 205 L 190 202 L 191 202 " stroke="black" stroke-width="1" fill="none"/>
<path d="M 112 170 L 115 170 L 118 173 L 118 176 L 115 179 L 112 179 L 110 177 L 110 172 " stroke="black" stroke-width="1" fill="none"/>
<path d="M 113 173 L 112 174 L 112 175 L 113 176 L 115 176 L 115 173 " stroke="black" stroke-width="1" fill="none"/>
<path d="M 112 174 L 113 173 L 114 173 L 115 174 L 115 175 L 114 176 L 113 176 L 112 175 " stroke="black" stroke-width="1" fill="none"/>
<path d="M 96 162 L 96 171 L 97 170 L 98 171 L 98 169 L 99 168 L 100 168 L 101 169 L 101 170 L 103 170 L 103 163 L 101 163 L 100 164 L 99 164 L 98 163 L 98 162 L 97 163 " stroke="black" stroke-width="1" fill="none"/>
<path d="M 96 164 L 97 163 L 98 164 L 101 164 L 102 163 L 103 164 L 103 169 L 102 170 L 101 169 L 101 168 L 100 167 L 100 166 L 100 167 L 99 168 L 98 168 L 98 169 L 97 170 L 96 169 " stroke="black" stroke-width="1" fill="none"/>
<path d="M 218 140 L 217 140 L 217 160 L 218 159 L 219 159 L 219 141 " stroke="black" stroke-width="1" fill="none"/>
<path d="M 218 140 L 219 141 L 219 158 L 218 159 L 217 158 L 217 141 " stroke="black" stroke-width="1" fill="none"/>
<path d="M 139 128 L 139 137 L 140 136 L 141 137 L 141 135 L 142 134 L 143 134 L 144 135 L 144 136 L 146 136 L 146 129 L 144 129 L 143 130 L 142 130 L 141 129 L 141 128 L 140 129 " stroke="black" stroke-width="1" fill="none"/>
<path d="M 139 130 L 140 129 L 141 130 L 144 130 L 145 129 L 146 130 L 146 135 L 145 136 L 144 135 L 144 134 L 143 133 L 143 132 L 143 133 L 142 134 L 141 134 L 141 135 L 140 136 L 139 135 " stroke="black" stroke-width="1" fill="none"/>
<path d="M 243 115 L 243 120 L 242 121 L 241 121 L 241 128 L 242 128 L 243 129 L 247 129 L 249 127 L 249 122 L 247 120 L 244 120 L 243 119 L 244 118 L 245 118 L 245 115 " stroke="black" stroke-width="1" fill="none"/>
<path d="M 243 120 L 246 120 L 249 123 L 249 126 L 246 129 L 243 129 L 241 127 L 241 122 " stroke="black" stroke-width="1" fill="none"/>
<path d="M 244 123 L 243 124 L 243 125 L 244 126 L 246 126 L 246 123 " stroke="black" stroke-width="1" fill="none"/>
<path d="M 243 124 L 244 123 L 245 123 L 246 124 L 246 125 L 245 126 L 244 126 L 243 125 " stroke="black" stroke-width="1" fill="none"/>
<path d="M 240 104 L 240 113 L 241 112 L 242 112 L 242 111 L 243 110 L 244 110 L 245 111 L 245 112 L 247 112 L 247 105 L 245 105 L 244 106 L 243 106 L 242 105 L 242 104 L 241 105 " stroke="black" stroke-width="1" fill="none"/>
<path d="M 240 106 L 241 105 L 242 106 L 245 106 L 246 105 L 247 106 L 247 111 L 246 112 L 245 111 L 245 110 L 244 109 L 244 108 L 244 109 L 243 110 L 242 110 L 242 111 L 241 112 L 240 111 " stroke="black" stroke-width="1" fill="none"/>
<path d="M 156 101 L 156 124 L 158 124 L 158 101 " stroke="black" stroke-width="1" fill="none"/>
<path d="M 157 101 L 158 102 L 158 123 L 157 124 L 156 123 L 156 102 " stroke="black" stroke-width="1" fill="none"/>
<path d="M 166 87 L 166 95 L 167 95 L 168 96 L 168 94 L 169 93 L 170 93 L 171 94 L 171 95 L 173 95 L 173 88 L 171 88 L 170 89 L 169 89 L 168 88 L 168 87 L 167 88 " stroke="black" stroke-width="1" fill="none"/>
<path d="M 166 89 L 167 88 L 168 89 L 171 89 L 172 88 L 173 89 L 173 94 L 172 95 L 171 94 L 171 93 L 170 92 L 170 91 L 170 92 L 169 93 L 168 93 L 168 94 L 167 95 L 166 94 " stroke="black" stroke-width="1" fill="none"/>
<path d="M 96 84 L 97 84 L 99 86 L 100 86 L 101 87 L 102 87 L 104 89 L 105 89 L 106 90 L 107 90 L 108 91 L 109 91 L 110 92 L 111 92 L 112 93 L 112 94 L 111 95 L 110 94 L 109 94 L 108 93 L 107 93 L 106 92 L 105 92 L 104 91 L 105 92 L 104 93 L 105 92 L 106 92 L 107 93 L 108 93 L 109 94 L 110 94 L 111 95 L 112 95 L 112 94 L 113 93 L 112 92 L 111 92 L 110 91 L 109 91 L 108 90 L 107 90 L 106 89 L 105 89 L 103 87 L 102 87 L 101 86 L 100 86 L 98 84 " stroke="black" stroke-width="1" fill="none"/>
<path d="M 130 64 L 130 84 L 131 83 L 132 83 L 132 65 L 131 65 " stroke="black" stroke-width="1" fill="none"/>
<path d="M 131 65 L 132 66 L 132 82 L 131 83 L 130 82 L 130 66 " stroke="black" stroke-width="1" fill="none"/>
<path d="M 52 52 L 52 61 L 53 60 L 54 61 L 54 59 L 55 58 L 56 58 L 57 59 L 57 60 L 59 60 L 59 53 L 57 53 L 56 54 L 55 54 L 54 53 L 54 52 L 53 53 " stroke="black" stroke-width="1" fill="none"/>
<path d="M 52 54 L 53 53 L 54 54 L 57 54 L 58 53 L 59 54 L 59 59 L 58 60 L 57 59 L 57 58 L 56 57 L 56 56 L 56 57 L 55 58 L 54 58 L 54 59 L 53 60 L 52 59 " stroke="black" stroke-width="1" fill="none"/>
<path d="M 66 45 L 66 52 L 67 52 L 68 53 L 72 53 L 74 51 L 74 46 L 72 44 L 68 44 L 67 45 " stroke="black" stroke-width="1" fill="none"/>
<path d="M 68 44 L 71 44 L 74 47 L 74 50 L 71 53 L 68 53 L 66 51 L 66 46 " stroke="black" stroke-width="1" fill="none"/>
<path d="M 69 47 L 68 48 L 68 49 L 69 50 L 71 50 L 71 47 " stroke="black" stroke-width="1" fill="none"/>
<path d="M 68 48 L 69 47 L 70 47 L 71 48 L 71 49 L 70 50 L 69 50 L 68 49 " stroke="black" stroke-width="1" fill="none"/>
<path d="M 112 19 L 110 49 L 91 60 L 76 54 L 90 64 L 91 89 L 111 101 L 138 90 L 154 100 L 149 128 L 154 125 L 154 100 L 133 89 L 112 101 L 90 87 L 90 64 L 95 88 L 92 64 L 113 55 L 90 64 L 77 53 L 92 60 L 114 47 L 136 62 L 136 85 L 133 62 L 111 51 L 134 64 L 134 85 L 110 97 L 136 85 L 160 100 L 160 125 L 177 135 L 199 124 L 220 135 L 237 129 L 221 139 L 199 127 L 183 140 L 199 127 L 221 139 L 214 166 L 199 173 L 184 160 L 202 173 L 220 163 L 223 139 L 223 163 L 201 177 L 178 163 L 183 136 L 150 130 L 178 139 L 178 164 L 199 177 L 203 204 L 201 177 L 223 164 L 223 139 L 238 130 L 221 135 L 198 124 L 178 135 L 162 126 L 164 97 L 136 85 L 136 61 L 114 47 L 118 21 " stroke="black" stroke-width="1" fill="none"/>
<path d="M 199 195 L 202 195 L 205 198 L 205 201 L 202 204 L 199 204 L 197 202 L 197 197 " stroke="black" stroke-width="1" fill="none"/>
<path d="M 200 198 L 199 199 L 199 200 L 200 201 L 202 201 L 202 198 " stroke="black" stroke-width="1" fill="none"/>
<path d="M 199 199 L 200 198 L 201 198 L 202 199 L 202 200 L 201 201 L 200 201 L 199 200 " stroke="black" stroke-width="1" fill="none"/>
<path d="M 200 176 L 201 177 L 201 192 L 200 193 L 199 192 L 199 177 " stroke="black" stroke-width="1" fill="none"/>
<path d="M 162 95 L 163 96 L 163 97 L 160 100 L 158 98 L 159 97 L 160 97 " stroke="black" stroke-width="1" fill="none"/>
<path d="M 113 30 L 114 31 L 114 47 L 113 48 L 112 47 L 112 31 " stroke="black" stroke-width="1" fill="none"/>
<path d="M 112 19 L 115 19 L 118 22 L 118 25 L 115 28 L 112 28 L 110 26 L 110 21 " stroke="black" stroke-width="1" fill="none"/>
<path d="M 113 22 L 112 23 L 112 24 L 113 25 L 115 25 L 115 22 " stroke="black" stroke-width="1" fill="none"/>
<path d="M 112 23 L 113 22 L 114 22 L 115 23 L 115 24 L 114 25 L 113 25 L 112 24 " stroke="black" stroke-width="1" fill="none"/>
<path d="M 123 11 L 123 20 L 124 19 L 125 20 L 125 18 L 126 17 L 127 17 L 128 18 L 128 19 L 130 19 L 130 12 L 128 12 L 127 13 L 126 13 L 125 12 L 125 11 L 124 12 " stroke="black" stroke-width="1" fill="none"/>
<path d="M 123 13 L 124 12 L 125 13 L 128 13 L 129 12 L 130 13 L 130 18 L 129 19 L 128 18 L 128 17 L 127 16 L 127 15 L 127 16 L 126 17 L 125 17 L 125 18 L 124 19 L 123 18 " stroke="black" stroke-width="1" fill="none"/>
</svg>