<svg xmlns="http://www.w3.org/2000/svg" width="300" height="300" viewBox="0 0 300 300">
<path d="M 192 279 L 192 288 L 193 287 L 194 288 L 194 286 L 195 285 L 196 285 L 197 286 L 197 287 L 199 287 L 199 280 L 197 280 L 196 281 L 195 281 L 194 280 L 194 279 L 193 280 " stroke="black" stroke-width="1" fill="none"/>
<path d="M 192 281 L 193 280 L 194 281 L 197 281 L 198 280 L 199 281 L 199 286 L 198 287 L 197 286 L 197 285 L 196 284 L 196 283 L 196 284 L 195 285 L 194 285 L 194 286 L 193 287 L 192 286 " stroke="black" stroke-width="1" fill="none"/>
<path d="M 236 202 L 236 211 L 237 210 L 238 211 L 238 209 L 239 208 L 240 208 L 241 209 L 241 210 L 243 210 L 243 203 L 241 203 L 240 204 L 239 204 L 238 203 L 238 202 L 237 203 " stroke="black" stroke-width="1" fill="none"/>
<path d="M 236 204 L 237 203 L 238 204 L 241 204 L 242 203 L 243 204 L 243 209 L 242 210 L 241 209 L 241 208 L 240 207 L 240 206 L 240 207 L 239 208 L 238 208 L 238 209 L 237 210 L 236 209 " stroke="black" stroke-width="1" fill="none"/>
<path d="M 223 195 L 223 202 L 224 202 L 225 203 L 229 203 L 231 201 L 231 196 L 229 194 L 225 194 L 224 195 " stroke="black" stroke-width="1" fill="none"/>
<path d="M 225 194 L 228 194 L 231 197 L 231 200 L 228 203 L 225 203 L 223 201 L 223 196 " stroke="black" stroke-width="1" fill="none"/>
<path d="M 226 197 L 225 198 L 225 199 L 226 200 L 228 200 L 228 197 " stroke="black" stroke-width="1" fill="none"/>
<path d="M 225 198 L 226 197 L 227 197 L 228 198 L 228 199 L 227 200 L 226 200 L 225 199 " stroke="black" stroke-width="1" fill="none"/>
<path d="M 159 166 L 159 168 L 158 169 L 157 169 L 156 170 L 155 170 L 154 171 L 153 171 L 152 172 L 151 172 L 149 174 L 148 174 L 145 177 L 144 177 L 146 177 L 149 174 L 150 174 L 152 172 L 153 172 L 154 171 L 155 171 L 156 170 L 157 170 L 158 169 L 159 169 L 160 168 L 159 167 " stroke="black" stroke-width="1" fill="none"/>
<path d="M 78 159 L 80 159 L 81 160 L 82 160 L 84 162 L 85 162 L 86 163 L 87 163 L 89 165 L 90 165 L 91 166 L 92 166 L 94 168 L 94 170 L 94 169 L 95 168 L 93 166 L 92 166 L 91 165 L 90 165 L 88 163 L 87 163 L 86 162 L 85 162 L 83 160 L 82 160 L 81 159 " stroke="black" stroke-width="1" fill="none"/>
<path d="M 201 158 L 201 165 L 202 165 L 203 166 L 207 166 L 209 164 L 209 159 L 207 157 L 203 157 L 202 158 " stroke="black" stroke-width="1" fill="none"/>
<path d="M 203 157 L 206 157 L 209 160 L 209 163 L 206 166 L 203 166 L 201 164 L 201 159 " stroke="black" stroke-width="1" fill="none"/>
<path d="M 204 160 L 203 161 L 203 162 L 204 163 L 206 163 L 206 160 " stroke="black" stroke-width="1" fill="none"/>
<path d="M 203 161 L 204 160 L 205 160 L 206 161 L 206 162 L 205 163 L 204 163 L 203 162 " stroke="black" stroke-width="1" fill="none"/>
<path d="M 112 139 L 112 159 L 113 158 L 114 158 L 114 140 L 113 140 " stroke="black" stroke-width="1" fill="none"/>
<path d="M 113 140 L 114 141 L 114 157 L 113 158 L 112 157 L 112 141 " stroke="black" stroke-width="1" fill="none"/>
<path d="M 245 133 L 245 140 L 246 140 L 247 141 L 251 141 L 253 139 L 253 134 L 251 132 L 247 132 L 246 133 " stroke="black" stroke-width="1" fill="none"/>
<path d="M 247 132 L 250 132 L 253 135 L 253 138 L 250 141 L 247 141 L 245 139 L 245 134 " stroke="black" stroke-width="1" fill="none"/>
<path d="M 248 135 L 247 136 L 247 137 L 248 138 L 250 138 L 250 135 " stroke="black" stroke-width="1" fill="none"/>
<path d="M 247 136 L 248 135 L 249 135 L 250 136 L 250 137 L 249 138 L 248 138 L 247 137 " stroke="black" stroke-width="1" fill="none"/>
<path d="M 94 128 L 94 130 L 92 132 L 91 132 L 90 133 L 89 133 L 87 135 L 86 135 L 85 136 L 84 136 L 82 138 L 81 138 L 80 139 L 79 139 L 81 139 L 82 138 L 83 138 L 85 136 L 86 136 L 87 135 L 88 135 L 90 133 L 91 133 L 92 132 L 93 132 L 95 130 L 94 129 " stroke="black" stroke-width="1" fill="none"/>
<path d="M 34 127 L 34 136 L 35 135 L 36 136 L 36 134 L 37 133 L 38 133 L 39 134 L 39 135 L 41 135 L 41 128 L 39 128 L 38 129 L 37 129 L 36 128 L 36 127 L 35 128 " stroke="black" stroke-width="1" fill="none"/>
<path d="M 34 129 L 35 128 L 36 129 L 39 129 L 40 128 L 41 129 L 41 134 L 40 135 L 39 134 L 39 133 L 38 132 L 38 131 L 38 132 L 37 133 L 36 133 L 36 134 L 35 135 L 34 134 " stroke="black" stroke-width="1" fill="none"/>
<path d="M 258 125 L 258 134 L 259 133 L 260 134 L 260 132 L 261 131 L 262 131 L 263 132 L 263 133 L 265 133 L 265 126 L 263 126 L 262 127 L 261 127 L 260 126 L 260 125 L 259 126 " stroke="black" stroke-width="1" fill="none"/>
<path d="M 258 127 L 259 126 L 260 127 L 263 127 L 264 126 L 265 127 L 265 132 L 264 133 L 263 132 L 263 131 L 262 130 L 262 129 L 262 130 L 261 131 L 260 131 L 260 132 L 259 133 L 258 132 " stroke="black" stroke-width="1" fill="none"/>
<path d="M 49 120 L 49 127 L 50 127 L 51 128 L 55 128 L 57 126 L 57 121 L 55 119 L 51 119 L 50 120 " stroke="black" stroke-width="1" fill="none"/>
<path d="M 51 119 L 54 119 L 57 122 L 57 125 L 54 128 L 51 128 L 49 126 L 49 121 " stroke="black" stroke-width="1" fill="none"/>
<path d="M 52 122 L 51 123 L 51 124 L 52 125 L 54 125 L 54 122 " stroke="black" stroke-width="1" fill="none"/>
<path d="M 51 123 L 52 122 L 53 122 L 54 123 L 54 124 L 53 125 L 52 125 L 51 124 " stroke="black" stroke-width="1" fill="none"/>
<path d="M 136 96 L 136 103 L 137 103 L 138 104 L 142 104 L 144 102 L 144 97 L 142 95 L 138 95 L 137 96 " stroke="black" stroke-width="1" fill="none"/>
<path d="M 138 95 L 141 95 L 144 98 L 144 101 L 141 104 L 138 104 L 136 102 L 136 97 " stroke="black" stroke-width="1" fill="none"/>
<path d="M 139 98 L 138 99 L 138 100 L 139 101 L 141 101 L 141 98 " stroke="black" stroke-width="1" fill="none"/>
<path d="M 138 99 L 139 98 L 140 98 L 141 99 L 141 100 L 140 101 L 139 101 L 138 100 " stroke="black" stroke-width="1" fill="none"/>
<path d="M 49 95 L 49 102 L 50 102 L 51 103 L 55 103 L 57 101 L 57 96 L 55 94 L 51 94 L 50 95 " stroke="black" stroke-width="1" fill="none"/>
<path d="M 51 94 L 54 94 L 57 97 L 57 100 L 54 103 L 51 103 L 49 101 L 49 96 " stroke="black" stroke-width="1" fill="none"/>
<path d="M 52 97 L 51 98 L 51 99 L 52 100 L 54 100 L 54 97 " stroke="black" stroke-width="1" fill="none"/>
<path d="M 51 98 L 52 97 L 53 97 L 54 98 L 54 99 L 53 100 L 52 100 L 51 99 " stroke="black" stroke-width="1" fill="none"/>
<path d="M 34 86 L 34 95 L 35 94 L 36 95 L 36 93 L 37 92 L 38 92 L 39 93 L 39 94 L 41 94 L 41 87 L 39 87 L 38 88 L 37 88 L 36 87 L 36 86 L 35 87 " stroke="black" stroke-width="1" fill="none"/>
<path d="M 34 88 L 35 87 L 36 88 L 39 88 L 40 87 L 41 88 L 41 93 L 40 94 L 39 93 L 39 92 L 38 91 L 38 90 L 38 91 L 37 92 L 36 92 L 36 93 L 35 94 L 34 93 " stroke="black" stroke-width="1" fill="none"/>
<path d="M 158 64 L 157 64 L 157 84 L 158 83 L 159 83 L 159 65 " stroke="black" stroke-width="1" fill="none"/>
<path d="M 158 64 L 159 65 L 159 82 L 158 83 L 157 82 L 157 65 " stroke="black" stroke-width="1" fill="none"/>
<path d="M 94 19 L 94 47 L 72 60 L 72 84 L 60 92 L 92 99 L 94 122 L 60 131 L 78 167 L 134 173 L 137 203 L 144 172 L 115 164 L 90 173 L 72 162 L 73 138 L 74 160 L 88 169 L 74 160 L 78 135 L 60 129 L 74 135 L 96 122 L 118 137 L 117 161 L 115 137 L 92 127 L 116 139 L 116 160 L 93 172 L 116 160 L 137 172 L 159 161 L 178 171 L 197 163 L 183 172 L 197 169 L 183 177 L 182 198 L 180 174 L 158 164 L 181 176 L 181 197 L 161 210 L 145 205 L 159 214 L 159 239 L 181 253 L 185 280 L 183 253 L 206 239 L 206 214 L 220 204 L 204 210 L 183 197 L 183 178 L 198 169 L 183 173 L 197 162 L 179 171 L 158 161 L 139 172 L 120 162 L 118 136 L 96 122 L 96 101 L 117 88 L 132 97 L 118 84 L 118 63 L 140 50 L 161 63 L 161 85 L 147 96 L 163 89 L 181 100 L 183 127 L 203 138 L 226 127 L 242 132 L 228 123 L 228 99 L 203 86 L 183 98 L 163 85 L 163 60 L 142 47 L 142 18 L 140 46 L 136 28 L 136 48 L 118 59 L 96 47 " stroke="black" stroke-width="1" fill="none"/>
<path d="M 181 271 L 184 271 L 187 274 L 187 277 L 184 280 L 181 280 L 179 278 L 179 273 " stroke="black" stroke-width="1" fill="none"/>
<path d="M 182 274 L 181 275 L 181 276 L 182 277 L 184 277 L 184 274 " stroke="black" stroke-width="1" fill="none"/>
<path d="M 181 275 L 182 274 L 183 274 L 184 275 L 184 276 L 183 277 L 182 277 L 181 276 " stroke="black" stroke-width="1" fill="none"/>
<path d="M 182 252 L 183 253 L 183 268 L 182 269 L 181 268 L 181 253 " stroke="black" stroke-width="1" fill="none"/>
<path d="M 218 202 L 219 204 L 206 214 L 193 207 L 193 209 L 195 208 L 204 214 L 204 236 L 200 240 L 204 236 L 204 214 L 206 214 L 206 238 L 183 253 L 159 238 L 159 214 L 161 214 L 162 238 L 184 249 L 161 236 L 161 214 L 182 201 L 186 203 L 181 201 L 161 214 L 146 205 L 147 203 L 158 210 L 162 210 L 183 197 L 193 205 L 206 210 " stroke="black" stroke-width="1" fill="none"/>
<path d="M 199 236 L 198 236 L 197 237 L 195 237 L 194 238 L 193 238 L 192 239 L 191 239 L 190 240 L 189 240 L 186 243 L 185 243 L 183 245 L 184 246 L 184 245 L 186 243 L 187 243 L 190 240 L 191 240 L 192 239 L 193 239 L 194 238 L 195 238 L 196 237 L 197 237 L 198 236 L 199 237 L 199 238 L 198 239 L 197 239 L 196 240 L 195 240 L 194 241 L 193 241 L 192 242 L 191 242 L 189 244 L 190 245 L 189 246 L 190 245 L 191 245 L 192 244 L 193 244 L 194 243 L 193 244 L 192 244 L 191 245 L 190 245 L 189 244 L 191 242 L 192 242 L 193 241 L 194 241 L 195 240 L 196 240 L 197 239 L 198 239 L 199 238 " stroke="black" stroke-width="1" fill="none"/>
<path d="M 164 215 L 163 216 L 163 234 L 164 234 L 165 235 L 165 215 " stroke="black" stroke-width="1" fill="none"/>
<path d="M 164 215 L 165 216 L 165 233 L 164 234 L 163 233 L 163 216 " stroke="black" stroke-width="1" fill="none"/>
<path d="M 183 204 L 183 205 L 182 206 L 183 207 L 184 207 L 185 208 L 186 208 L 187 209 L 188 209 L 189 210 L 190 210 L 192 212 L 193 212 L 194 213 L 195 213 L 197 215 L 200 215 L 198 215 L 196 213 L 195 213 L 194 212 L 193 212 L 191 210 L 190 210 L 189 209 L 188 209 L 187 208 L 186 208 L 185 207 L 184 207 L 183 206 L 183 205 L 184 204 L 185 205 L 186 205 L 187 206 L 188 206 L 189 207 L 190 207 L 191 208 L 190 207 L 191 206 L 190 207 L 189 207 L 188 206 L 187 206 L 186 205 L 185 205 L 184 204 " stroke="black" stroke-width="1" fill="none"/>
<path d="M 137 194 L 140 194 L 143 197 L 143 200 L 140 203 L 137 203 L 135 201 L 135 196 " stroke="black" stroke-width="1" fill="none"/>
<path d="M 138 197 L 137 198 L 137 199 L 138 200 L 140 200 L 140 197 " stroke="black" stroke-width="1" fill="none"/>
<path d="M 137 198 L 138 197 L 139 197 L 140 198 L 140 199 L 139 200 L 138 200 L 137 199 " stroke="black" stroke-width="1" fill="none"/>
<path d="M 138 175 L 139 176 L 139 191 L 138 192 L 137 191 L 137 176 " stroke="black" stroke-width="1" fill="none"/>
<path d="M 95 100 L 96 101 L 96 122 L 95 123 L 94 122 L 94 101 " stroke="black" stroke-width="1" fill="none"/>
<path d="M 147 94 L 163 85 L 184 98 L 206 86 L 228 100 L 228 123 L 226 123 L 225 100 L 209 90 L 203 89 L 226 102 L 226 123 L 206 135 L 202 134 L 207 135 L 226 123 L 241 133 L 225 127 L 204 138 L 182 125 L 183 101 L 184 123 L 198 132 L 184 123 L 184 102 L 188 98 L 184 102 L 164 89 L 148 96 " stroke="black" stroke-width="1" fill="none"/>
<path d="M 188 122 L 190 122 L 191 123 L 192 123 L 194 125 L 195 125 L 196 126 L 197 126 L 199 128 L 200 128 L 201 129 L 202 129 L 204 131 L 204 133 L 204 132 L 205 131 L 203 129 L 202 129 L 201 128 L 200 128 L 198 126 L 197 126 L 196 125 L 195 125 L 193 123 L 192 123 L 191 122 " stroke="black" stroke-width="1" fill="none"/>
<path d="M 222 102 L 222 122 L 223 121 L 224 121 L 224 103 L 223 103 " stroke="black" stroke-width="1" fill="none"/>
<path d="M 223 103 L 224 104 L 224 120 L 223 121 L 222 120 L 222 104 " stroke="black" stroke-width="1" fill="none"/>
<path d="M 204 91 L 204 93 L 202 95 L 201 95 L 200 96 L 199 96 L 197 98 L 196 98 L 195 99 L 194 99 L 192 101 L 191 101 L 190 102 L 189 102 L 191 102 L 192 101 L 193 101 L 195 99 L 196 99 L 197 98 L 198 98 L 200 96 L 201 96 L 202 95 L 203 95 L 205 93 L 204 92 " stroke="black" stroke-width="1" fill="none"/>
<path d="M 117 62 L 118 63 L 118 84 L 117 85 L 116 84 L 116 63 " stroke="black" stroke-width="1" fill="none"/>
<path d="M 95 30 L 96 31 L 96 47 L 95 48 L 94 47 L 94 31 " stroke="black" stroke-width="1" fill="none"/>
<path d="M 163 61 L 162 86 L 160 61 L 138 50 L 118 63 L 93 51 L 116 63 L 116 85 L 96 97 L 92 96 L 97 97 L 118 84 L 132 96 L 118 88 L 96 101 L 74 88 L 60 94 L 72 84 L 78 88 L 74 84 L 74 63 L 88 54 L 74 63 L 73 85 L 74 59 L 94 47 L 119 59 L 136 48 L 137 29 L 138 47 L 141 29 L 142 48 " stroke="black" stroke-width="1" fill="none"/>
<path d="M 79 84 L 80 84 L 81 85 L 82 85 L 84 87 L 85 87 L 86 88 L 87 88 L 89 90 L 90 90 L 91 91 L 92 91 L 94 93 L 94 95 L 94 94 L 95 93 L 93 91 L 92 91 L 91 90 L 90 90 L 88 88 L 87 88 L 86 87 L 85 87 L 83 85 L 82 85 L 81 84 " stroke="black" stroke-width="1" fill="none"/>
<path d="M 113 64 L 112 64 L 112 84 L 113 83 L 114 83 L 114 65 " stroke="black" stroke-width="1" fill="none"/>
<path d="M 113 64 L 114 65 L 114 82 L 113 83 L 112 82 L 112 65 " stroke="black" stroke-width="1" fill="none"/>
<path d="M 94 53 L 94 55 L 92 57 L 91 57 L 90 58 L 89 58 L 87 60 L 86 60 L 85 61 L 84 61 L 82 63 L 81 63 L 80 64 L 78 64 L 81 64 L 82 63 L 83 63 L 85 61 L 86 61 L 87 60 L 88 60 L 90 58 L 91 58 L 92 57 L 93 57 L 95 55 L 94 54 " stroke="black" stroke-width="1" fill="none"/>
<path d="M 94 19 L 97 19 L 100 22 L 100 25 L 97 28 L 94 28 L 92 26 L 92 21 " stroke="black" stroke-width="1" fill="none"/>
<path d="M 95 22 L 94 23 L 94 24 L 95 25 L 97 25 L 97 22 " stroke="black" stroke-width="1" fill="none"/>
<path d="M 94 23 L 95 22 L 96 22 L 97 23 L 97 24 L 96 25 L 95 25 L 94 24 " stroke="black" stroke-width="1" fill="none"/>
<path d="M 138 18 L 141 18 L 144 21 L 144 24 L 141 27 L 139 27 L 138 26 L 137 26 L 136 25 L 136 20 " stroke="black" stroke-width="1" fill="none"/>
<path d="M 139 21 L 138 22 L 138 23 L 139 24 L 141 24 L 141 21 " stroke="black" stroke-width="1" fill="none"/>
<path d="M 138 22 L 139 21 L 140 21 L 141 22 L 141 23 L 140 24 L 139 24 L 138 23 " stroke="black" stroke-width="1" fill="none"/>
<path d="M 78 11 L 78 20 L 79 19 L 80 20 L 80 18 L 81 17 L 82 17 L 83 18 L 83 19 L 85 19 L 85 12 L 83 12 L 82 13 L 81 13 L 80 12 L 80 11 L 79 12 " stroke="black" stroke-width="1" fill="none"/>
<path d="M 78 13 L 79 12 L 80 13 L 83 13 L 84 12 L 85 13 L 85 18 L 84 19 L 83 18 L 83 17 L 82 16 L 82 15 L 82 16 L 81 17 L 80 17 L 80 18 L 79 19 L 78 18 " stroke="black" stroke-width="1" fill="none"/>
</svg>