<svg xmlns="http://www.w3.org/2000/svg" width="300" height="300" viewBox="0 0 300 300">
<path d="M 88 279 L 88 288 L 89 287 L 90 288 L 90 286 L 91 285 L 92 285 L 93 286 L 93 287 L 95 287 L 95 280 L 93 280 L 92 281 L 91 281 L 90 280 L 90 279 L 89 280 " stroke="black" stroke-width="1" fill="none"/>
<path d="M 88 281 L 89 280 L 90 281 L 93 281 L 94 280 L 95 281 L 95 286 L 94 287 L 93 286 L 93 285 L 92 284 L 92 283 L 92 284 L 91 285 L 90 285 L 90 286 L 89 287 L 88 286 " stroke="black" stroke-width="1" fill="none"/>
<path d="M 107 273 L 106 274 L 106 275 L 107 276 L 109 276 L 109 273 " stroke="black" stroke-width="1" fill="none"/>
<path d="M 106 274 L 107 273 L 108 273 L 109 274 L 109 275 L 108 276 L 107 276 L 106 275 " stroke="black" stroke-width="1" fill="none"/>
<path d="M 112 272 L 110 270 L 110 271 L 112 273 L 112 276 L 109 279 L 106 279 L 104 277 L 104 273 L 106 271 L 105 271 L 104 272 L 104 278 L 105 278 L 106 279 L 110 279 L 112 277 " stroke="black" stroke-width="1" fill="none"/>
<path d="M 154 259 L 154 268 L 155 267 L 156 268 L 156 266 L 157 265 L 158 265 L 159 266 L 159 267 L 161 267 L 161 260 L 159 260 L 158 261 L 157 261 L 156 260 L 155 260 " stroke="black" stroke-width="1" fill="none"/>
<path d="M 154 261 L 155 260 L 156 261 L 159 261 L 160 260 L 161 261 L 161 266 L 160 267 L 159 266 L 159 265 L 158 264 L 158 263 L 158 264 L 157 265 L 156 265 L 156 266 L 155 267 L 154 266 " stroke="black" stroke-width="1" fill="none"/>
<path d="M 53 259 L 53 268 L 54 267 L 55 268 L 55 266 L 56 265 L 57 265 L 58 266 L 58 267 L 60 267 L 60 260 L 58 260 L 57 261 L 56 261 L 55 260 L 54 260 " stroke="black" stroke-width="1" fill="none"/>
<path d="M 53 261 L 54 260 L 55 261 L 58 261 L 59 260 L 60 261 L 60 266 L 59 267 L 58 266 L 58 265 L 57 264 L 57 263 L 57 264 L 56 265 L 55 265 L 55 266 L 54 267 L 53 266 " stroke="black" stroke-width="1" fill="none"/>
<path d="M 161 241 L 157 241 L 156 242 L 155 242 L 155 249 L 156 250 L 156 251 L 157 252 L 157 257 L 159 257 L 159 252 L 157 252 L 156 251 L 157 250 L 161 250 L 163 248 L 163 243 " stroke="black" stroke-width="1" fill="none"/>
<path d="M 158 252 L 159 253 L 159 256 L 158 257 L 157 256 L 157 253 " stroke="black" stroke-width="1" fill="none"/>
<path d="M 157 241 L 160 241 L 163 244 L 163 247 L 160 250 L 157 250 L 155 248 L 155 243 " stroke="black" stroke-width="1" fill="none"/>
<path d="M 158 244 L 157 245 L 157 246 L 158 247 L 160 247 L 160 244 " stroke="black" stroke-width="1" fill="none"/>
<path d="M 157 245 L 158 244 L 159 244 L 160 245 L 160 246 L 159 247 L 158 247 L 157 246 " stroke="black" stroke-width="1" fill="none"/>
<path d="M 60 241 L 56 241 L 55 242 L 54 242 L 54 249 L 55 250 L 55 251 L 56 252 L 56 257 L 58 257 L 58 252 L 56 252 L 55 251 L 56 250 L 60 250 L 62 248 L 62 243 " stroke="black" stroke-width="1" fill="none"/>
<path d="M 57 252 L 58 253 L 58 256 L 57 257 L 56 256 L 56 253 " stroke="black" stroke-width="1" fill="none"/>
<path d="M 56 241 L 59 241 L 62 244 L 62 247 L 59 250 L 56 250 L 54 248 L 54 243 " stroke="black" stroke-width="1" fill="none"/>
<path d="M 57 244 L 56 245 L 56 246 L 57 247 L 59 247 L 59 244 " stroke="black" stroke-width="1" fill="none"/>
<path d="M 56 245 L 57 244 L 58 244 L 59 245 L 59 246 L 58 247 L 57 247 L 56 246 " stroke="black" stroke-width="1" fill="none"/>
<path d="M 78 232 L 77 232 L 76 233 L 74 233 L 73 234 L 71 234 L 70 235 L 69 235 L 68 236 L 66 236 L 65 237 L 63 237 L 63 240 L 64 241 L 64 242 L 65 243 L 66 243 L 67 242 L 69 242 L 70 241 L 70 240 L 71 239 L 72 239 L 73 238 L 74 238 L 77 235 L 79 235 L 79 234 L 78 233 " stroke="black" stroke-width="1" fill="none"/>
<path d="M 79 234 L 78 235 L 76 235 L 74 237 L 73 236 L 74 237 L 73 238 L 72 238 L 71 239 L 70 239 L 69 238 L 70 239 L 70 240 L 68 242 L 67 242 L 66 243 L 64 241 L 64 240 L 63 239 L 63 238 L 64 237 L 66 237 L 67 236 L 69 236 L 70 235 L 71 235 L 72 234 L 73 234 L 74 233 L 76 233 L 77 232 " stroke="black" stroke-width="1" fill="none"/>
<path d="M 280 215 L 280 224 L 281 223 L 282 224 L 282 222 L 283 221 L 284 221 L 285 222 L 285 223 L 287 223 L 287 216 L 285 216 L 284 217 L 283 217 L 282 216 L 281 216 " stroke="black" stroke-width="1" fill="none"/>
<path d="M 280 217 L 281 216 L 282 217 L 285 217 L 286 216 L 287 217 L 287 222 L 286 223 L 285 222 L 285 221 L 284 220 L 284 219 L 284 220 L 283 221 L 282 221 L 282 222 L 281 223 L 280 222 " stroke="black" stroke-width="1" fill="none"/>
<path d="M 287 197 L 283 197 L 282 198 L 281 198 L 281 205 L 282 206 L 282 207 L 283 208 L 283 213 L 285 213 L 285 208 L 283 208 L 282 207 L 283 206 L 287 206 L 289 204 L 289 199 " stroke="black" stroke-width="1" fill="none"/>
<path d="M 284 208 L 285 209 L 285 212 L 284 213 L 283 212 L 283 209 " stroke="black" stroke-width="1" fill="none"/>
<path d="M 283 197 L 286 197 L 289 200 L 289 203 L 286 206 L 283 206 L 281 204 L 281 199 " stroke="black" stroke-width="1" fill="none"/>
<path d="M 284 200 L 283 201 L 283 202 L 284 203 L 286 203 L 286 200 " stroke="black" stroke-width="1" fill="none"/>
<path d="M 283 201 L 284 200 L 285 200 L 286 201 L 286 202 L 285 203 L 284 203 L 283 202 " stroke="black" stroke-width="1" fill="none"/>
<path d="M 29 198 L 29 205 L 30 205 L 31 206 L 35 206 L 37 204 L 37 199 L 35 197 L 31 197 L 30 198 " stroke="black" stroke-width="1" fill="none"/>
<path d="M 31 197 L 34 197 L 37 200 L 37 203 L 34 206 L 31 206 L 29 204 L 29 199 " stroke="black" stroke-width="1" fill="none"/>
<path d="M 32 200 L 31 201 L 31 202 L 32 203 L 34 203 L 34 200 " stroke="black" stroke-width="1" fill="none"/>
<path d="M 31 201 L 32 200 L 33 200 L 34 201 L 34 202 L 33 203 L 32 203 L 31 202 " stroke="black" stroke-width="1" fill="none"/>
<path d="M 12 188 L 12 197 L 13 196 L 14 197 L 14 195 L 15 194 L 16 194 L 17 195 L 17 196 L 19 196 L 19 189 L 17 189 L 16 190 L 15 190 L 14 189 L 14 188 L 13 189 " stroke="black" stroke-width="1" fill="none"/>
<path d="M 12 190 L 13 189 L 14 190 L 17 190 L 18 189 L 19 190 L 19 195 L 18 196 L 17 195 L 17 194 L 16 193 L 16 192 L 16 193 L 15 194 L 14 194 L 14 195 L 13 196 L 12 195 " stroke="black" stroke-width="1" fill="none"/>
<path d="M 39 196 L 41 198 L 56 190 L 81 204 L 81 232 L 105 247 L 104 268 L 109 268 L 108 247 L 133 233 L 148 243 L 152 242 L 148 242 L 150 237 L 134 230 L 134 203 L 151 194 L 150 189 L 132 200 L 115 191 L 115 194 L 132 204 L 132 229 L 105 246 L 81 232 L 82 203 L 84 231 L 105 243 L 83 229 L 83 204 L 100 194 L 100 191 L 81 200 L 57 185 " stroke="black" stroke-width="1" fill="none"/>
<path d="M 107 244 L 109 246 L 108 247 L 108 252 L 109 253 L 108 254 L 108 257 L 109 258 L 109 267 L 108 268 L 105 268 L 104 267 L 104 258 L 105 257 L 105 246 " stroke="black" stroke-width="1" fill="none"/>
<path d="M 136 235 L 138 233 L 139 234 L 140 234 L 141 235 L 144 235 L 145 236 L 146 236 L 147 237 L 146 238 L 147 237 L 149 237 L 150 238 L 150 239 L 149 240 L 149 241 L 148 242 L 147 241 L 146 241 L 143 238 L 141 238 L 140 237 L 139 237 L 138 236 L 137 236 " stroke="black" stroke-width="1" fill="none"/>
<path d="M 133 233 L 135 231 L 136 232 L 137 232 L 138 233 L 136 235 L 135 234 L 134 234 " stroke="black" stroke-width="1" fill="none"/>
<path d="M 133 203 L 134 204 L 134 230 L 135 231 L 133 233 L 132 233 L 131 234 L 129 234 L 127 236 L 126 236 L 125 237 L 124 237 L 123 238 L 120 239 L 118 241 L 115 242 L 113 244 L 112 244 L 109 246 L 108 245 L 108 244 L 109 243 L 112 242 L 114 240 L 117 239 L 119 237 L 120 237 L 121 236 L 124 235 L 126 233 L 127 233 L 132 230 L 132 204 " stroke="black" stroke-width="1" fill="none"/>
<path d="M 115 192 L 116 191 L 117 192 L 118 192 L 119 193 L 120 193 L 122 195 L 123 195 L 124 196 L 125 196 L 126 197 L 127 197 L 129 199 L 131 199 L 132 200 L 132 201 L 131 202 L 130 202 L 129 201 L 128 201 L 127 200 L 126 200 L 124 198 L 123 198 L 122 197 L 121 197 L 120 196 L 119 196 L 117 194 L 116 194 L 115 193 " stroke="black" stroke-width="1" fill="none"/>
<path d="M 152 192 L 149 195 L 148 195 L 147 196 L 145 196 L 144 197 L 142 197 L 141 198 L 140 198 L 138 200 L 137 200 L 136 201 L 135 201 L 133 203 L 132 203 L 131 202 L 134 199 L 135 199 L 138 196 L 139 196 L 142 193 L 143 193 L 145 191 L 146 191 L 148 189 L 149 189 " stroke="black" stroke-width="1" fill="none"/>
<path d="M 40 197 L 41 195 L 44 194 L 46 192 L 49 191 L 51 189 L 53 188 L 55 188 L 58 185 L 59 185 L 62 188 L 63 188 L 69 193 L 72 194 L 80 200 L 83 200 L 84 199 L 86 199 L 88 197 L 93 195 L 95 193 L 99 191 L 100 192 L 100 193 L 96 196 L 91 198 L 89 200 L 83 203 L 81 203 L 75 200 L 73 198 L 57 190 L 54 190 L 50 193 L 47 194 L 45 196 L 41 198 " stroke="black" stroke-width="1" fill="none"/>
<path d="M 104 183 L 104 190 L 105 190 L 106 191 L 110 191 L 112 189 L 112 184 L 110 182 L 106 182 L 105 183 " stroke="black" stroke-width="1" fill="none"/>
<path d="M 106 182 L 109 182 L 112 185 L 112 188 L 109 191 L 106 191 L 104 189 L 104 184 " stroke="black" stroke-width="1" fill="none"/>
<path d="M 107 185 L 106 186 L 106 187 L 107 188 L 109 188 L 109 185 " stroke="black" stroke-width="1" fill="none"/>
<path d="M 106 186 L 107 185 L 108 185 L 109 186 L 109 187 L 108 188 L 107 188 L 106 187 " stroke="black" stroke-width="1" fill="none"/>
<path d="M 212 162 L 211 163 L 211 183 L 212 183 L 213 184 L 213 162 " stroke="black" stroke-width="1" fill="none"/>
<path d="M 212 162 L 213 163 L 213 182 L 212 183 L 211 182 L 211 163 " stroke="black" stroke-width="1" fill="none"/>
<path d="M 104 154 L 104 161 L 105 161 L 106 162 L 110 162 L 112 160 L 112 155 L 110 153 L 106 153 L 105 154 " stroke="black" stroke-width="1" fill="none"/>
<path d="M 106 153 L 109 153 L 112 156 L 112 159 L 109 162 L 106 162 L 104 160 L 104 155 " stroke="black" stroke-width="1" fill="none"/>
<path d="M 107 156 L 106 157 L 106 158 L 107 159 L 109 159 L 109 156 " stroke="black" stroke-width="1" fill="none"/>
<path d="M 106 157 L 107 156 L 108 156 L 109 157 L 109 158 L 108 159 L 107 159 L 106 158 " stroke="black" stroke-width="1" fill="none"/>
<path d="M 235 148 L 235 149 L 234 150 L 236 152 L 237 152 L 239 154 L 240 154 L 242 156 L 243 156 L 244 157 L 245 157 L 247 159 L 248 159 L 249 160 L 250 160 L 251 161 L 254 161 L 252 161 L 251 160 L 250 160 L 249 159 L 248 159 L 246 157 L 245 157 L 244 156 L 243 156 L 241 154 L 240 154 L 238 152 L 237 152 L 235 150 " stroke="black" stroke-width="1" fill="none"/>
<path d="M 177 141 L 175 141 L 173 143 L 172 143 L 170 145 L 169 145 L 167 147 L 166 147 L 164 149 L 163 149 L 162 150 L 161 150 L 159 152 L 160 153 L 160 152 L 162 150 L 163 150 L 164 149 L 165 149 L 167 147 L 168 147 L 170 145 L 171 145 L 173 143 L 174 143 L 176 141 L 177 142 L 177 143 L 175 145 L 174 145 L 173 146 L 174 145 L 175 145 L 177 143 " stroke="black" stroke-width="1" fill="none"/>
<path d="M 78 111 L 78 118 L 79 118 L 80 119 L 84 119 L 86 117 L 86 112 L 84 110 L 80 110 L 79 111 " stroke="black" stroke-width="1" fill="none"/>
<path d="M 80 110 L 83 110 L 86 113 L 86 116 L 83 119 L 80 119 L 78 117 L 78 112 " stroke="black" stroke-width="1" fill="none"/>
<path d="M 81 113 L 80 114 L 80 115 L 81 116 L 83 116 L 83 113 " stroke="black" stroke-width="1" fill="none"/>
<path d="M 80 114 L 81 113 L 82 113 L 83 114 L 83 115 L 82 116 L 81 116 L 80 115 " stroke="black" stroke-width="1" fill="none"/>
<path d="M 61 101 L 61 110 L 62 109 L 63 110 L 63 108 L 64 107 L 65 107 L 66 108 L 66 109 L 68 109 L 68 102 L 66 102 L 65 103 L 64 103 L 63 102 L 63 101 L 62 102 " stroke="black" stroke-width="1" fill="none"/>
<path d="M 61 103 L 62 102 L 63 103 L 66 103 L 67 102 L 68 103 L 68 108 L 67 109 L 66 108 L 66 107 L 65 106 L 65 105 L 65 106 L 64 107 L 63 107 L 63 108 L 62 109 L 61 108 " stroke="black" stroke-width="1" fill="none"/>
<path d="M 129 21 L 131 52 L 105 68 L 105 98 L 88 109 L 107 102 L 132 117 L 132 140 L 115 157 L 134 146 L 155 158 L 161 191 L 159 160 L 184 146 L 207 160 L 207 188 L 236 203 L 259 189 L 277 199 L 260 185 L 259 156 L 236 143 L 209 156 L 186 144 L 186 110 L 177 146 L 184 142 L 210 156 L 237 144 L 260 158 L 260 185 L 258 160 L 244 151 L 258 160 L 258 185 L 234 195 L 260 185 L 277 198 L 258 189 L 233 203 L 207 187 L 208 159 L 211 188 L 232 200 L 247 193 L 233 200 L 209 185 L 209 160 L 235 146 L 209 160 L 185 146 L 159 160 L 134 146 L 115 156 L 132 145 L 133 116 L 135 144 L 161 155 L 134 142 L 134 117 L 157 102 L 177 110 L 159 98 L 159 69 L 133 52 L 130 30 L 137 22 " stroke="black" stroke-width="1" fill="none"/>
<path d="M 157 182 L 160 182 L 163 185 L 163 188 L 160 191 L 157 191 L 155 189 L 155 184 " stroke="black" stroke-width="1" fill="none"/>
<path d="M 158 185 L 157 186 L 157 187 L 158 188 L 160 188 L 160 185 " stroke="black" stroke-width="1" fill="none"/>
<path d="M 157 186 L 158 185 L 159 185 L 160 186 L 160 187 L 159 188 L 158 188 L 157 187 " stroke="black" stroke-width="1" fill="none"/>
<path d="M 158 159 L 159 160 L 159 179 L 158 180 L 157 179 L 157 160 " stroke="black" stroke-width="1" fill="none"/>
<path d="M 183 121 L 184 122 L 184 142 L 183 143 L 182 142 L 182 122 " stroke="black" stroke-width="1" fill="none"/>
<path d="M 182 110 L 185 110 L 188 113 L 188 116 L 185 119 L 182 119 L 180 117 L 180 112 " stroke="black" stroke-width="1" fill="none"/>
<path d="M 183 113 L 182 114 L 182 115 L 183 116 L 185 116 L 185 113 " stroke="black" stroke-width="1" fill="none"/>
<path d="M 182 114 L 183 113 L 184 113 L 185 114 L 185 115 L 184 116 L 183 116 L 182 115 " stroke="black" stroke-width="1" fill="none"/>
<path d="M 89 109 L 104 100 L 105 98 L 106 99 L 107 98 L 110 101 L 113 98 L 130 107 L 131 109 L 130 110 L 121 105 L 122 106 L 121 107 L 123 106 L 124 107 L 123 108 L 125 107 L 126 110 L 125 109 L 127 108 L 130 110 L 128 111 L 131 113 L 134 113 L 144 106 L 156 100 L 157 98 L 158 99 L 159 98 L 160 100 L 174 108 L 176 111 L 175 112 L 160 102 L 154 103 L 132 117 L 128 113 L 108 102 L 104 102 L 90 111 " stroke="black" stroke-width="1" fill="none"/>
<path d="M 131 52 L 159 70 L 158 99 L 156 70 L 133 56 L 128 58 L 132 56 L 157 72 L 157 98 L 133 113 L 129 111 L 131 110 L 131 107 L 114 98 L 112 98 L 110 101 L 107 98 L 107 71 L 112 67 L 107 71 L 107 98 L 105 98 L 105 69 L 129 55 " stroke="black" stroke-width="1" fill="none"/>
<path d="M 154 73 L 153 73 L 153 96 L 154 95 L 155 95 L 155 74 " stroke="black" stroke-width="1" fill="none"/>
<path d="M 154 73 L 155 74 L 155 94 L 154 95 L 153 94 L 153 74 " stroke="black" stroke-width="1" fill="none"/>
<path d="M 131 61 L 130 61 L 129 62 L 128 62 L 126 64 L 125 64 L 124 65 L 123 65 L 122 66 L 121 66 L 119 68 L 118 68 L 116 70 L 115 70 L 113 72 L 112 71 L 112 70 L 114 68 L 115 68 L 116 67 L 115 68 L 114 68 L 112 70 L 112 72 L 114 72 L 116 70 L 117 70 L 119 68 L 120 68 L 122 66 L 123 66 L 124 65 L 125 65 L 126 64 L 127 64 L 129 62 L 130 62 " stroke="black" stroke-width="1" fill="none"/>
<path d="M 132 31 L 133 32 L 133 52 L 132 53 L 131 52 L 131 32 " stroke="black" stroke-width="1" fill="none"/>
<path d="M 131 20 L 134 20 L 137 23 L 137 26 L 134 29 L 131 29 L 129 27 L 129 22 " stroke="black" stroke-width="1" fill="none"/>
<path d="M 132 23 L 131 24 L 131 25 L 132 26 L 134 26 L 134 23 " stroke="black" stroke-width="1" fill="none"/>
<path d="M 131 24 L 132 23 L 133 23 L 134 24 L 134 25 L 133 26 L 132 26 L 131 25 " stroke="black" stroke-width="1" fill="none"/>
<path d="M 126 20 L 125 19 L 124 20 L 123 20 L 123 22 L 126 22 " stroke="black" stroke-width="1" fill="none"/>
<path d="M 113 11 L 113 20 L 114 19 L 115 20 L 115 18 L 116 17 L 117 17 L 118 18 L 118 19 L 120 19 L 120 12 L 118 12 L 117 13 L 116 13 L 115 12 L 115 11 L 114 12 " stroke="black" stroke-width="1" fill="none"/>
<path d="M 113 13 L 114 12 L 115 13 L 118 13 L 119 12 L 120 13 L 120 18 L 119 19 L 118 18 L 118 17 L 117 16 L 117 15 L 117 16 L 116 17 L 115 17 L 115 18 L 114 19 L 113 18 " stroke="black" stroke-width="1" fill="none"/>
</svg>