<svg xmlns="http://www.w3.org/2000/svg" width="300" height="300" viewBox="0 0 300 300">
<path d="M 67 279 L 67 288 L 68 287 L 69 288 L 69 286 L 70 285 L 71 285 L 72 286 L 72 287 L 74 287 L 74 280 L 72 280 L 71 281 L 70 281 L 69 280 L 69 279 L 68 280 " stroke="black" stroke-width="1" fill="none"/>
<path d="M 67 281 L 68 280 L 69 281 L 72 281 L 73 280 L 74 281 L 74 286 L 73 287 L 72 286 L 72 285 L 71 284 L 71 283 L 71 284 L 70 285 L 69 285 L 69 286 L 68 287 L 67 286 " stroke="black" stroke-width="1" fill="none"/>
<path d="M 133 259 L 133 268 L 134 267 L 135 268 L 135 266 L 136 265 L 137 265 L 138 266 L 138 267 L 140 267 L 140 260 L 138 260 L 137 261 L 136 261 L 135 260 L 134 260 " stroke="black" stroke-width="1" fill="none"/>
<path d="M 133 261 L 134 260 L 135 261 L 138 261 L 139 260 L 140 261 L 140 266 L 139 267 L 138 266 L 138 265 L 137 264 L 137 263 L 137 264 L 136 265 L 135 265 L 135 266 L 134 267 L 133 266 " stroke="black" stroke-width="1" fill="none"/>
<path d="M 85 251 L 85 254 L 84 255 L 85 256 L 85 262 L 84 263 L 84 266 L 83 267 L 84 268 L 83 269 L 85 271 L 84 272 L 84 278 L 85 278 L 86 279 L 90 279 L 92 277 L 92 272 L 90 270 L 90 268 L 88 266 L 89 265 L 89 264 L 88 263 L 88 265 L 87 266 L 85 266 L 84 265 L 84 264 L 85 263 L 86 263 L 85 262 L 85 258 L 86 257 L 87 258 L 87 259 L 88 260 L 88 261 L 88 259 L 87 258 L 87 251 " stroke="black" stroke-width="1" fill="none"/>
<path d="M 84 266 L 88 266 L 90 268 L 90 269 L 89 270 L 88 270 L 89 270 L 92 273 L 92 276 L 89 279 L 86 279 L 84 277 L 84 273 L 86 271 L 85 271 L 84 270 L 85 269 L 86 269 L 85 269 L 83 267 " stroke="black" stroke-width="1" fill="none"/>
<path d="M 87 273 L 86 274 L 86 275 L 87 276 L 89 276 L 89 273 " stroke="black" stroke-width="1" fill="none"/>
<path d="M 86 274 L 87 273 L 88 273 L 89 274 L 89 275 L 88 276 L 87 276 L 86 275 " stroke="black" stroke-width="1" fill="none"/>
<path d="M 84 255 L 85 254 L 86 254 L 87 255 L 87 256 L 86 257 " stroke="black" stroke-width="1" fill="none"/>
<path d="M 140 241 L 136 241 L 135 242 L 134 242 L 134 249 L 135 250 L 135 251 L 136 252 L 136 257 L 138 257 L 138 252 L 136 252 L 135 251 L 136 250 L 140 250 L 142 248 L 142 243 " stroke="black" stroke-width="1" fill="none"/>
<path d="M 137 252 L 138 253 L 138 256 L 137 257 L 136 256 L 136 253 " stroke="black" stroke-width="1" fill="none"/>
<path d="M 136 241 L 139 241 L 142 244 L 142 247 L 139 250 L 136 250 L 134 248 L 134 243 " stroke="black" stroke-width="1" fill="none"/>
<path d="M 137 244 L 136 245 L 136 246 L 137 247 L 139 247 L 139 244 " stroke="black" stroke-width="1" fill="none"/>
<path d="M 136 245 L 137 244 L 138 244 L 139 245 L 139 246 L 138 247 L 137 247 L 136 246 " stroke="black" stroke-width="1" fill="none"/>
<path d="M 33 242 L 33 249 L 34 249 L 35 250 L 39 250 L 41 248 L 41 243 L 39 241 L 35 241 L 34 242 " stroke="black" stroke-width="1" fill="none"/>
<path d="M 35 241 L 38 241 L 41 244 L 41 247 L 38 250 L 35 250 L 33 248 L 33 243 " stroke="black" stroke-width="1" fill="none"/>
<path d="M 36 244 L 35 245 L 35 246 L 36 247 L 38 247 L 38 244 " stroke="black" stroke-width="1" fill="none"/>
<path d="M 35 245 L 36 244 L 37 244 L 38 245 L 38 246 L 37 247 L 36 247 L 35 246 " stroke="black" stroke-width="1" fill="none"/>
<path d="M 28 240 L 28 241 L 27 242 L 28 243 L 30 243 L 30 240 " stroke="black" stroke-width="1" fill="none"/>
<path d="M 42 240 L 44 243 L 46 243 L 47 242 L 48 242 L 51 239 L 52 239 L 54 237 L 55 237 L 57 235 L 58 235 L 60 233 L 61 233 L 62 232 L 63 233 L 63 234 L 64 234 L 66 236 L 67 236 L 72 240 L 73 240 L 74 241 L 77 242 L 79 244 L 80 244 L 81 245 L 84 246 L 85 247 L 85 249 L 85 246 L 84 246 L 83 245 L 80 244 L 78 242 L 77 242 L 76 241 L 73 240 L 71 238 L 70 238 L 68 236 L 67 236 L 62 232 L 61 233 L 59 233 L 57 235 L 56 235 L 54 237 L 53 237 L 51 239 L 50 239 L 46 243 L 45 243 " stroke="black" stroke-width="1" fill="none"/>
<path d="M 17 232 L 17 241 L 18 240 L 19 241 L 19 239 L 20 238 L 21 238 L 22 239 L 22 240 L 24 240 L 24 233 L 22 233 L 21 234 L 20 234 L 19 233 L 19 232 L 18 233 " stroke="black" stroke-width="1" fill="none"/>
<path d="M 17 234 L 18 233 L 19 234 L 22 234 L 23 233 L 24 234 L 24 239 L 23 240 L 22 239 L 22 238 L 21 237 L 21 236 L 21 237 L 20 238 L 19 238 L 19 239 L 18 240 L 17 239 " stroke="black" stroke-width="1" fill="none"/>
<path d="M 261 198 L 261 205 L 262 205 L 263 206 L 267 206 L 269 204 L 269 199 L 267 197 L 263 197 L 262 198 " stroke="black" stroke-width="1" fill="none"/>
<path d="M 263 197 L 266 197 L 269 200 L 269 203 L 266 206 L 263 206 L 261 204 L 261 199 " stroke="black" stroke-width="1" fill="none"/>
<path d="M 264 200 L 263 201 L 263 202 L 264 203 L 266 203 L 266 200 " stroke="black" stroke-width="1" fill="none"/>
<path d="M 263 201 L 264 200 L 265 200 L 266 201 L 266 202 L 265 203 L 264 203 L 263 202 " stroke="black" stroke-width="1" fill="none"/>
<path d="M 275 188 L 275 197 L 276 196 L 277 197 L 277 195 L 278 194 L 279 194 L 280 195 L 280 196 L 282 196 L 282 189 L 280 189 L 279 190 L 278 190 L 277 189 L 277 188 L 276 189 " stroke="black" stroke-width="1" fill="none"/>
<path d="M 275 190 L 276 189 L 277 190 L 280 190 L 281 189 L 282 190 L 282 195 L 281 196 L 280 195 L 280 194 L 279 193 L 279 192 L 279 193 L 278 194 L 277 194 L 277 195 L 276 196 L 275 195 " stroke="black" stroke-width="1" fill="none"/>
<path d="M 35 186 L 36 190 L 61 204 L 61 228 L 42 238 L 61 229 L 62 204 L 63 230 L 89 244 L 110 231 L 112 203 L 114 231 L 87 249 L 114 231 L 130 240 L 127 242 L 114 234 L 124 241 L 130 240 L 113 230 L 113 204 L 130 194 L 129 189 L 112 200 L 95 191 L 96 195 L 111 204 L 111 229 L 86 244 L 63 229 L 63 204 L 81 192 L 60 203 L 80 190 L 60 203 L 58 198 " stroke="black" stroke-width="1" fill="none"/>
<path d="M 131 192 L 128 195 L 127 195 L 126 196 L 124 196 L 123 197 L 121 197 L 119 199 L 118 199 L 115 202 L 114 202 L 113 203 L 111 203 L 110 202 L 109 202 L 108 201 L 107 201 L 106 200 L 105 200 L 103 198 L 102 198 L 101 197 L 100 197 L 99 196 L 98 196 L 95 193 L 95 192 L 96 191 L 98 193 L 99 193 L 101 195 L 102 195 L 103 196 L 104 196 L 105 197 L 106 197 L 108 199 L 110 199 L 112 201 L 115 198 L 116 198 L 119 195 L 120 195 L 122 193 L 123 193 L 126 190 L 127 190 L 128 189 " stroke="black" stroke-width="1" fill="none"/>
<path d="M 35 187 L 37 185 L 38 186 L 39 186 L 41 188 L 42 188 L 45 191 L 46 191 L 47 192 L 48 192 L 51 195 L 52 195 L 53 196 L 54 196 L 56 198 L 57 198 L 58 199 L 57 200 L 55 200 L 54 199 L 53 199 L 51 197 L 50 197 L 47 194 L 44 194 L 43 193 L 43 192 L 42 193 L 41 192 L 40 192 L 39 191 L 38 191 L 35 188 " stroke="black" stroke-width="1" fill="none"/>
<path d="M 84 183 L 84 190 L 85 190 L 86 191 L 90 191 L 92 189 L 92 184 L 90 182 L 86 182 L 85 183 " stroke="black" stroke-width="1" fill="none"/>
<path d="M 86 182 L 89 182 L 92 185 L 92 188 L 89 191 L 86 191 L 84 189 L 84 184 " stroke="black" stroke-width="1" fill="none"/>
<path d="M 87 185 L 86 186 L 86 187 L 87 188 L 89 188 L 89 185 " stroke="black" stroke-width="1" fill="none"/>
<path d="M 86 186 L 87 185 L 88 185 L 89 186 L 89 187 L 88 188 L 87 188 L 86 187 " stroke="black" stroke-width="1" fill="none"/>
<path d="M 192 162 L 191 163 L 191 183 L 192 183 L 193 184 L 193 162 " stroke="black" stroke-width="1" fill="none"/>
<path d="M 192 162 L 193 163 L 193 182 L 192 183 L 191 182 L 191 163 " stroke="black" stroke-width="1" fill="none"/>
<path d="M 84 154 L 84 161 L 85 161 L 86 162 L 90 162 L 92 160 L 92 155 L 90 153 L 86 153 L 85 154 " stroke="black" stroke-width="1" fill="none"/>
<path d="M 86 153 L 89 153 L 92 156 L 92 159 L 89 162 L 86 162 L 84 160 L 84 155 " stroke="black" stroke-width="1" fill="none"/>
<path d="M 87 156 L 86 157 L 86 158 L 87 159 L 89 159 L 89 156 " stroke="black" stroke-width="1" fill="none"/>
<path d="M 86 157 L 87 156 L 88 156 L 89 157 L 89 158 L 88 159 L 87 159 L 86 158 " stroke="black" stroke-width="1" fill="none"/>
<path d="M 214 150 L 216 152 L 217 152 L 219 154 L 220 154 L 222 156 L 223 156 L 224 157 L 225 157 L 227 159 L 228 159 L 229 160 L 230 160 L 231 161 L 234 161 L 232 161 L 231 160 L 230 160 L 229 159 L 228 159 L 226 157 L 225 157 L 224 156 L 223 156 L 221 154 L 220 154 L 218 152 L 217 152 L 215 150 L 215 149 " stroke="black" stroke-width="1" fill="none"/>
<path d="M 94 155 L 113 146 L 134 158 L 134 190 L 140 191 L 142 184 L 135 181 L 138 160 L 164 146 L 187 160 L 187 188 L 209 202 L 238 189 L 258 197 L 239 185 L 239 157 L 211 143 L 187 156 L 166 144 L 161 120 L 168 117 L 166 110 L 160 111 L 162 142 L 157 146 L 164 142 L 186 156 L 212 143 L 239 158 L 239 185 L 237 160 L 222 150 L 237 160 L 237 185 L 214 195 L 239 185 L 257 198 L 237 189 L 212 203 L 187 187 L 188 159 L 190 187 L 211 200 L 218 198 L 212 200 L 189 185 L 189 160 L 215 146 L 189 160 L 165 146 L 138 160 L 113 146 " stroke="black" stroke-width="1" fill="none"/>
<path d="M 136 182 L 139 182 L 142 185 L 142 188 L 139 191 L 136 191 L 134 189 L 134 184 " stroke="black" stroke-width="1" fill="none"/>
<path d="M 137 185 L 136 186 L 136 187 L 137 188 L 139 188 L 139 185 " stroke="black" stroke-width="1" fill="none"/>
<path d="M 136 186 L 137 185 L 138 185 L 139 186 L 139 187 L 138 188 L 137 188 L 136 187 " stroke="black" stroke-width="1" fill="none"/>
<path d="M 137 159 L 138 160 L 138 179 L 137 180 L 136 179 L 136 160 " stroke="black" stroke-width="1" fill="none"/>
<path d="M 163 121 L 164 122 L 164 142 L 163 143 L 162 142 L 162 122 " stroke="black" stroke-width="1" fill="none"/>
<path d="M 162 110 L 165 110 L 168 113 L 168 116 L 165 119 L 162 119 L 160 117 L 160 112 " stroke="black" stroke-width="1" fill="none"/>
<path d="M 163 113 L 162 114 L 162 115 L 163 116 L 165 116 L 165 113 " stroke="black" stroke-width="1" fill="none"/>
<path d="M 162 114 L 163 113 L 164 113 L 165 114 L 165 115 L 164 116 L 163 116 L 162 115 " stroke="black" stroke-width="1" fill="none"/>
<path d="M 58 111 L 58 118 L 59 118 L 60 119 L 64 119 L 66 117 L 66 112 L 64 110 L 60 110 L 59 111 " stroke="black" stroke-width="1" fill="none"/>
<path d="M 60 110 L 63 110 L 66 113 L 66 116 L 63 119 L 60 119 L 58 117 L 58 112 " stroke="black" stroke-width="1" fill="none"/>
<path d="M 61 113 L 60 114 L 60 115 L 61 116 L 63 116 L 63 113 " stroke="black" stroke-width="1" fill="none"/>
<path d="M 60 114 L 61 113 L 62 113 L 63 114 L 63 115 L 62 116 L 61 116 L 60 115 " stroke="black" stroke-width="1" fill="none"/>
<path d="M 41 101 L 41 110 L 42 109 L 43 110 L 43 108 L 44 107 L 45 107 L 46 108 L 46 109 L 48 109 L 48 102 L 46 102 L 45 103 L 44 103 L 43 102 L 43 101 L 42 102 " stroke="black" stroke-width="1" fill="none"/>
<path d="M 41 103 L 42 102 L 43 103 L 46 103 L 47 102 L 48 103 L 48 108 L 47 109 L 46 108 L 46 107 L 45 106 L 45 105 L 45 106 L 44 107 L 43 107 L 43 108 L 42 109 L 41 108 " stroke="black" stroke-width="1" fill="none"/>
<path d="M 109 21 L 111 52 L 84 68 L 85 98 L 68 109 L 71 111 L 87 102 L 111 117 L 111 140 L 96 148 L 95 152 L 102 148 L 96 151 L 97 148 L 111 141 L 112 116 L 114 144 L 139 156 L 140 151 L 156 141 L 153 146 L 157 141 L 139 151 L 139 155 L 136 156 L 113 142 L 113 117 L 136 102 L 154 112 L 157 110 L 138 98 L 139 69 L 113 52 L 113 31 L 110 30 L 117 27 L 117 22 " stroke="black" stroke-width="1" fill="none"/>
<path d="M 69 109 L 85 98 L 84 69 L 113 52 L 139 70 L 139 97 L 136 98 L 136 70 L 111 56 L 108 58 L 112 56 L 137 72 L 137 91 L 134 100 L 112 113 L 108 111 L 113 113 L 138 98 L 156 111 L 139 102 L 135 102 L 113 117 L 88 102 L 84 102 L 70 111 " stroke="black" stroke-width="1" fill="none"/>
<path d="M 134 73 L 133 73 L 133 86 L 132 87 L 132 96 L 133 95 L 134 95 L 134 91 L 135 90 L 135 74 " stroke="black" stroke-width="1" fill="none"/>
<path d="M 134 73 L 135 74 L 135 90 L 134 91 L 134 94 L 133 95 L 132 94 L 132 87 L 133 86 L 133 74 " stroke="black" stroke-width="1" fill="none"/>
<path d="M 99 63 L 87 69 L 86 71 L 86 87 L 87 88 L 87 99 L 90 101 L 92 100 L 93 98 L 97 100 L 99 102 L 111 108 L 107 105 L 100 102 L 98 100 L 94 98 L 92 98 L 92 99 L 90 101 L 87 98 L 87 88 L 86 87 L 86 71 L 89 68 L 95 65 L 97 66 L 96 67 L 97 66 L 96 65 L 97 64 L 99 65 L 98 64 " stroke="black" stroke-width="1" fill="none"/>
<path d="M 111 61 L 110 61 L 109 62 L 108 62 L 106 64 L 105 64 L 104 65 L 103 65 L 102 66 L 101 66 L 99 68 L 98 68 L 97 69 L 96 69 L 95 70 L 94 70 L 92 72 L 91 72 L 93 72 L 95 70 L 96 70 L 97 69 L 98 69 L 100 67 L 101 67 L 102 66 L 103 66 L 104 65 L 105 65 L 106 64 L 107 64 L 109 62 L 110 62 " stroke="black" stroke-width="1" fill="none"/>
<path d="M 112 31 L 113 32 L 113 52 L 112 53 L 111 52 L 111 32 " stroke="black" stroke-width="1" fill="none"/>
<path d="M 111 20 L 114 20 L 117 23 L 117 26 L 114 29 L 111 29 L 109 27 L 109 22 " stroke="black" stroke-width="1" fill="none"/>
<path d="M 112 23 L 111 24 L 111 25 L 112 26 L 114 26 L 114 23 " stroke="black" stroke-width="1" fill="none"/>
<path d="M 111 24 L 112 23 L 113 23 L 114 24 L 114 25 L 113 26 L 112 26 L 111 25 " stroke="black" stroke-width="1" fill="none"/>
<path d="M 92 11 L 92 20 L 93 19 L 94 20 L 94 18 L 95 17 L 96 17 L 97 18 L 97 19 L 99 19 L 99 12 L 97 12 L 96 13 L 95 13 L 94 12 L 94 11 L 93 12 " stroke="black" stroke-width="1" fill="none"/>
<path d="M 92 13 L 93 12 L 94 13 L 97 13 L 98 12 L 99 13 L 99 18 L 98 19 L 97 18 L 97 17 L 96 16 L 96 15 L 96 16 L 95 17 L 94 17 L 94 18 L 93 19 L 92 18 " stroke="black" stroke-width="1" fill="none"/>
</svg>