<svg xmlns="http://www.w3.org/2000/svg" width="300" height="300" viewBox="0 0 300 300">
<path d="M 208 259 L 206 261 L 206 268 L 208 270 L 213 270 L 215 268 L 215 261 L 213 259 " stroke="black" stroke-width="1" fill="none"/>
<path d="M 209 259 L 212 259 L 215 262 L 215 267 L 212 270 L 209 270 L 206 267 L 206 262 " stroke="black" stroke-width="1" fill="none"/>
<path d="M 209 262 L 209 267 L 212 267 L 212 262 " stroke="black" stroke-width="1" fill="none"/>
<path d="M 210 262 L 211 262 L 212 263 L 212 266 L 211 267 L 210 267 L 209 266 L 209 263 " stroke="black" stroke-width="1" fill="none"/>
<path d="M 133 233 L 132 234 L 131 233 L 131 235 L 129 237 L 128 236 L 128 234 L 125 234 L 125 243 L 128 243 L 128 240 L 129 239 L 131 241 L 131 244 L 132 243 L 133 244 " stroke="black" stroke-width="1" fill="none"/>
<path d="M 132 234 L 133 235 L 133 242 L 132 243 L 131 242 L 131 241 L 130 240 L 130 237 L 131 236 L 131 235 " stroke="black" stroke-width="1" fill="none"/>
<path d="M 126 234 L 127 234 L 128 235 L 128 242 L 127 243 L 126 243 L 125 242 L 125 235 " stroke="black" stroke-width="1" fill="none"/>
<path d="M 246 222 L 244 224 L 244 231 L 246 233 L 251 233 L 253 231 L 253 224 L 251 222 " stroke="black" stroke-width="1" fill="none"/>
<path d="M 247 222 L 250 222 L 253 225 L 253 230 L 250 233 L 247 233 L 244 230 L 244 225 " stroke="black" stroke-width="1" fill="none"/>
<path d="M 247 225 L 247 230 L 250 230 L 250 225 " stroke="black" stroke-width="1" fill="none"/>
<path d="M 248 225 L 249 225 L 250 226 L 250 229 L 249 230 L 248 230 L 247 229 L 247 226 " stroke="black" stroke-width="1" fill="none"/>
<path d="M 141 220 L 139 222 L 139 229 L 141 231 L 146 231 L 148 229 L 148 222 L 146 220 " stroke="black" stroke-width="1" fill="none"/>
<path d="M 142 220 L 145 220 L 148 223 L 148 228 L 145 231 L 142 231 L 139 228 L 139 223 " stroke="black" stroke-width="1" fill="none"/>
<path d="M 142 223 L 142 228 L 145 228 L 145 223 " stroke="black" stroke-width="1" fill="none"/>
<path d="M 143 223 L 144 223 L 145 224 L 145 227 L 144 228 L 143 228 L 142 227 L 142 224 " stroke="black" stroke-width="1" fill="none"/>
<path d="M 175 175 L 196 188 L 205 185 L 200 190 L 199 220 L 197 222 L 193 220 L 194 190 L 172 177 L 194 190 L 193 220 L 172 235 L 155 228 L 152 232 L 172 240 L 180 267 L 203 267 L 203 265 L 184 265 L 181 262 L 174 239 L 196 222 L 218 239 L 213 255 L 215 258 L 220 242 L 241 235 L 236 232 L 241 230 L 238 228 L 219 235 L 201 222 L 200 190 L 206 186 L 205 184 L 196 188 " stroke="black" stroke-width="1" fill="none"/>
<path d="M 152 230 L 154 228 L 155 228 L 169 235 L 172 235 L 174 237 L 174 239 L 175 240 L 175 242 L 176 243 L 176 245 L 177 246 L 177 248 L 179 252 L 179 255 L 181 259 L 181 262 L 183 265 L 201 265 L 202 266 L 201 267 L 181 267 L 179 265 L 179 262 L 177 258 L 176 251 L 174 248 L 174 246 L 172 242 L 172 239 L 162 234 L 157 234 L 156 233 L 154 233 L 152 231 " stroke="black" stroke-width="1" fill="none"/>
<path d="M 197 222 L 199 220 L 200 222 L 201 222 L 218 235 L 220 235 L 223 233 L 225 233 L 226 232 L 228 232 L 238 228 L 240 229 L 238 231 L 234 232 L 236 232 L 237 233 L 236 234 L 234 234 L 233 235 L 230 235 L 228 234 L 230 235 L 229 236 L 225 235 L 229 236 L 230 235 L 233 235 L 237 233 L 239 233 L 240 234 L 238 236 L 235 236 L 231 238 L 228 238 L 224 240 L 221 240 L 220 241 L 219 248 L 216 254 L 216 256 L 214 257 L 213 255 L 217 245 L 218 238 " stroke="black" stroke-width="1" fill="none"/>
<path d="M 195 222 L 194 223 L 193 223 L 191 225 L 190 225 L 188 227 L 187 227 L 185 229 L 184 229 L 181 232 L 180 232 L 177 235 L 176 235 L 174 237 L 173 236 L 173 235 L 175 233 L 176 233 L 179 230 L 180 230 L 183 227 L 184 227 L 186 225 L 187 225 L 189 223 L 190 223 L 193 220 " stroke="black" stroke-width="1" fill="none"/>
<path d="M 216 174 L 215 175 L 214 174 L 214 176 L 212 178 L 211 177 L 211 175 L 208 175 L 208 184 L 211 184 L 211 181 L 212 180 L 214 182 L 214 185 L 215 184 L 216 185 " stroke="black" stroke-width="1" fill="none"/>
<path d="M 215 175 L 216 176 L 216 183 L 215 184 L 214 183 L 214 182 L 213 181 L 213 178 L 214 177 L 214 176 " stroke="black" stroke-width="1" fill="none"/>
<path d="M 209 175 L 210 175 L 211 176 L 211 183 L 210 184 L 209 184 L 208 183 L 208 176 " stroke="black" stroke-width="1" fill="none"/>
<path d="M 54 86 L 53 87 L 52 86 L 52 88 L 50 90 L 49 89 L 49 87 L 46 87 L 46 96 L 49 96 L 49 93 L 50 92 L 52 94 L 52 97 L 53 96 L 54 97 " stroke="black" stroke-width="1" fill="none"/>
<path d="M 53 87 L 54 88 L 54 95 L 53 96 L 52 95 L 52 94 L 51 93 L 51 90 L 52 89 L 52 88 " stroke="black" stroke-width="1" fill="none"/>
<path d="M 47 87 L 48 87 L 49 88 L 49 95 L 48 96 L 47 96 L 46 95 L 46 88 " stroke="black" stroke-width="1" fill="none"/>
<path d="M 64 77 L 62 79 L 62 86 L 64 88 L 69 88 L 71 86 L 71 79 L 69 77 " stroke="black" stroke-width="1" fill="none"/>
<path d="M 65 77 L 68 77 L 71 80 L 71 85 L 68 88 L 65 88 L 62 85 L 62 80 " stroke="black" stroke-width="1" fill="none"/>
<path d="M 65 80 L 65 85 L 68 85 L 68 80 " stroke="black" stroke-width="1" fill="none"/>
<path d="M 66 80 L 67 80 L 68 81 L 68 84 L 67 85 L 66 85 L 65 84 L 65 81 " stroke="black" stroke-width="1" fill="none"/>
<path d="M 148 66 L 147 67 L 146 66 L 146 68 L 144 70 L 143 69 L 143 67 L 140 67 L 140 76 L 143 76 L 143 73 L 144 72 L 146 74 L 146 77 L 147 76 L 148 77 L 148 78 L 147 79 L 142 79 L 142 82 L 143 83 L 143 85 L 143 83 L 144 82 L 143 82 L 142 81 L 142 80 L 143 79 L 147 79 L 148 78 " stroke="black" stroke-width="1" fill="none"/>
<path d="M 147 67 L 148 68 L 148 75 L 147 76 L 146 75 L 146 74 L 145 73 L 145 70 L 146 69 L 146 68 " stroke="black" stroke-width="1" fill="none"/>
<path d="M 141 67 L 142 67 L 143 68 L 143 75 L 142 76 L 141 76 L 140 75 L 140 68 " stroke="black" stroke-width="1" fill="none"/>
<path d="M 74 89 L 92 101 L 92 130 L 117 145 L 142 132 L 141 155 L 147 158 L 146 129 L 169 142 L 169 145 L 148 132 L 170 147 L 170 175 L 173 174 L 172 147 L 196 132 L 221 147 L 226 144 L 222 147 L 198 132 L 203 128 L 226 142 L 200 126 L 200 97 L 169 82 L 146 97 L 146 84 L 142 89 L 144 96 L 120 82 L 135 59 L 130 57 L 120 76 L 115 75 L 106 59 L 116 40 L 114 37 L 103 60 L 117 83 L 94 97 L 78 86 " stroke="black" stroke-width="1" fill="none"/>
<path d="M 171 146 L 172 147 L 172 152 L 173 153 L 173 173 L 171 175 L 170 175 L 168 173 L 168 163 L 169 162 L 169 149 L 170 148 L 170 147 " stroke="black" stroke-width="1" fill="none"/>
<path d="M 169 145 L 171 143 L 173 145 L 173 146 L 172 147 L 171 146 L 170 147 L 169 146 " stroke="black" stroke-width="1" fill="none"/>
<path d="M 145 100 L 146 101 L 146 129 L 145 130 L 146 131 L 145 132 L 146 133 L 146 146 L 147 147 L 147 157 L 146 158 L 143 158 L 142 157 L 141 154 L 142 153 L 142 137 L 143 136 L 143 131 L 142 130 L 144 127 L 144 101 " stroke="black" stroke-width="1" fill="none"/>
<path d="M 92 101 L 93 100 L 94 101 L 94 127 L 95 129 L 100 131 L 102 133 L 107 135 L 109 137 L 112 138 L 114 140 L 118 142 L 120 142 L 124 140 L 126 138 L 129 137 L 131 135 L 136 133 L 140 130 L 142 130 L 143 131 L 141 133 L 132 137 L 130 139 L 127 140 L 120 145 L 118 145 L 116 143 L 113 142 L 106 137 L 99 134 L 92 129 " stroke="black" stroke-width="1" fill="none"/>
<path d="M 143 88 L 145 88 L 146 89 L 145 90 L 145 93 L 144 94 L 143 93 L 143 90 L 142 89 " stroke="black" stroke-width="1" fill="none"/>
<path d="M 118 86 L 120 86 L 124 89 L 131 92 L 133 94 L 141 98 L 144 101 L 144 126 L 143 128 L 141 130 L 137 131 L 135 133 L 130 135 L 128 137 L 125 138 L 123 140 L 119 142 L 115 140 L 113 138 L 110 137 L 108 135 L 103 133 L 101 131 L 96 129 L 94 127 L 94 101 L 97 98 L 100 97 L 102 95 L 114 89 " stroke="black" stroke-width="1" fill="none"/>
<path d="M 171 85 L 186 92 L 188 94 L 193 96 L 198 100 L 198 127 L 195 130 L 188 133 L 186 135 L 181 137 L 179 139 L 174 141 L 172 143 L 170 143 L 165 139 L 162 138 L 157 134 L 154 133 L 152 131 L 146 128 L 146 101 L 149 98 L 152 97 L 154 95 L 157 94 L 162 90 L 165 89 L 167 87 " stroke="black" stroke-width="1" fill="none"/>
<path d="M 126 66 L 128 68 L 128 70 L 126 72 L 126 73 L 123 76 L 123 77 L 122 78 L 122 79 L 120 81 L 119 81 L 118 80 L 119 79 L 119 78 L 120 77 L 120 76 L 123 73 L 123 72 L 124 71 L 124 69 L 125 68 L 125 67 " stroke="black" stroke-width="1" fill="none"/>
<path d="M 132 57 L 135 60 L 131 64 L 131 65 L 130 66 L 130 67 L 129 68 L 128 68 L 126 66 L 127 65 L 127 63 L 128 62 L 128 61 L 130 59 L 130 58 L 131 57 " stroke="black" stroke-width="1" fill="none"/>
<path d="M 74 90 L 77 86 L 94 97 L 117 83 L 103 59 L 115 38 L 106 60 L 119 82 L 145 97 L 170 82 L 188 90 L 200 98 L 201 128 L 198 132 L 174 145 L 172 144 L 198 128 L 197 98 L 173 85 L 166 87 L 146 101 L 121 86 L 115 87 L 94 101 " stroke="black" stroke-width="1" fill="none"/>
<path d="M 116 25 L 114 27 L 114 34 L 116 36 L 121 36 L 123 34 L 123 27 L 121 25 " stroke="black" stroke-width="1" fill="none"/>
<path d="M 117 25 L 120 25 L 123 28 L 123 33 L 120 36 L 117 36 L 114 33 L 114 28 " stroke="black" stroke-width="1" fill="none"/>
<path d="M 117 28 L 117 33 L 120 33 L 120 28 " stroke="black" stroke-width="1" fill="none"/>
<path d="M 118 28 L 119 28 L 120 29 L 120 32 L 119 33 L 118 33 L 117 32 L 117 29 " stroke="black" stroke-width="1" fill="none"/>
<path d="M 113 9 L 112 10 L 111 9 L 111 11 L 109 13 L 108 12 L 108 10 L 105 10 L 105 19 L 108 19 L 108 16 L 109 15 L 111 17 L 111 20 L 112 19 L 113 19 " stroke="black" stroke-width="1" fill="none"/>
<path d="M 112 10 L 113 11 L 113 18 L 112 19 L 111 18 L 111 17 L 110 16 L 110 13 L 111 12 L 111 11 " stroke="black" stroke-width="1" fill="none"/>
<path d="M 106 10 L 107 10 L 108 11 L 108 18 L 107 19 L 106 19 L 105 18 L 105 11 " stroke="black" stroke-width="1" fill="none"/>
</svg>