<svg xmlns="http://www.w3.org/2000/svg" width="300" height="300" viewBox="0 0 300 300">
<path d="M 142 241 L 141 241 L 139 243 L 138 243 L 136 245 L 135 245 L 134 246 L 133 246 L 131 248 L 130 248 L 129 249 L 128 249 L 127 250 L 126 250 L 124 252 L 123 252 L 122 253 L 120 253 L 123 253 L 124 252 L 125 252 L 127 250 L 128 250 L 129 249 L 130 249 L 131 248 L 132 248 L 134 246 L 135 246 L 136 245 L 137 245 L 139 243 L 140 243 " stroke="black" stroke-width="1" fill="none"/>
<path d="M 142 239 L 139 239 L 137 241 L 136 241 L 134 243 L 133 243 L 132 244 L 131 244 L 129 246 L 128 246 L 127 247 L 126 247 L 125 248 L 124 248 L 122 250 L 121 250 L 120 251 L 121 251 L 122 250 L 123 250 L 125 248 L 126 248 L 127 247 L 128 247 L 129 246 L 130 246 L 132 244 L 133 244 L 135 242 L 136 242 L 137 241 L 138 241 L 140 239 " stroke="black" stroke-width="1" fill="none"/>
<path d="M 147 228 L 145 230 L 145 237 L 147 239 L 152 239 L 154 237 L 154 230 L 152 228 " stroke="black" stroke-width="1" fill="none"/>
<path d="M 148 228 L 151 228 L 154 231 L 154 236 L 151 239 L 148 239 L 145 236 L 145 231 " stroke="black" stroke-width="1" fill="none"/>
<path d="M 148 231 L 148 236 L 151 236 L 151 231 " stroke="black" stroke-width="1" fill="none"/>
<path d="M 149 231 L 150 231 L 151 232 L 151 235 L 150 236 L 149 236 L 148 235 L 148 232 " stroke="black" stroke-width="1" fill="none"/>
<path d="M 205 195 L 203 197 L 203 204 L 205 206 L 210 206 L 212 204 L 212 197 L 210 195 " stroke="black" stroke-width="1" fill="none"/>
<path d="M 206 195 L 209 195 L 212 198 L 212 203 L 209 206 L 206 206 L 203 203 L 203 198 " stroke="black" stroke-width="1" fill="none"/>
<path d="M 206 198 L 206 203 L 209 203 L 209 198 " stroke="black" stroke-width="1" fill="none"/>
<path d="M 207 198 L 208 198 L 209 199 L 209 202 L 208 203 L 207 203 L 206 202 L 206 199 " stroke="black" stroke-width="1" fill="none"/>
<path d="M 238 184 L 235 184 L 234 185 L 233 185 L 231 187 L 230 187 L 229 188 L 226 189 L 224 191 L 223 191 L 222 192 L 221 192 L 220 193 L 217 194 L 216 195 L 217 196 L 217 197 L 218 197 L 219 196 L 221 196 L 223 194 L 225 194 L 226 193 L 227 193 L 229 191 L 230 191 L 231 190 L 234 189 L 236 187 L 237 187 L 238 186 L 237 186 L 236 187 L 235 187 L 233 189 L 232 189 L 231 190 L 228 191 L 226 193 L 223 194 L 221 196 L 219 196 L 218 197 L 217 196 L 217 195 L 218 194 L 219 194 L 220 193 L 221 193 L 222 192 L 225 191 L 227 189 L 228 189 L 229 188 L 232 187 L 234 185 L 235 185 L 236 184 " stroke="black" stroke-width="1" fill="none"/>
<path d="M 83 139 L 82 139 L 81 140 L 79 140 L 77 142 L 75 142 L 74 143 L 73 143 L 71 145 L 70 145 L 69 146 L 66 147 L 64 149 L 63 149 L 62 150 L 63 150 L 64 149 L 65 149 L 67 147 L 68 147 L 69 146 L 72 145 L 74 143 L 77 142 L 79 140 L 81 140 L 82 139 L 83 140 L 83 141 L 82 142 L 81 142 L 80 143 L 79 143 L 78 144 L 75 145 L 73 147 L 72 147 L 71 148 L 68 149 L 66 151 L 65 151 L 64 152 L 62 152 L 65 152 L 66 151 L 67 151 L 69 149 L 70 149 L 71 148 L 74 147 L 76 145 L 77 145 L 78 144 L 79 144 L 80 143 L 83 142 L 84 141 L 83 140 " stroke="black" stroke-width="1" fill="none"/>
<path d="M 89 128 L 87 130 L 87 137 L 89 139 L 94 139 L 96 137 L 96 130 L 94 128 " stroke="black" stroke-width="1" fill="none"/>
<path d="M 90 128 L 93 128 L 96 131 L 96 136 L 93 139 L 90 139 L 87 136 L 87 131 " stroke="black" stroke-width="1" fill="none"/>
<path d="M 90 131 L 90 136 L 93 136 L 93 131 " stroke="black" stroke-width="1" fill="none"/>
<path d="M 91 131 L 92 131 L 93 132 L 93 135 L 92 136 L 91 136 L 90 135 L 90 132 " stroke="black" stroke-width="1" fill="none"/>
<path d="M 200 88 L 199 89 L 198 88 L 198 90 L 196 92 L 195 91 L 195 89 L 192 89 L 192 98 L 195 98 L 195 95 L 196 94 L 198 96 L 198 99 L 199 98 L 200 99 " stroke="black" stroke-width="1" fill="none"/>
<path d="M 199 89 L 200 90 L 200 97 L 199 98 L 198 97 L 198 96 L 197 95 L 197 92 L 198 91 L 198 90 " stroke="black" stroke-width="1" fill="none"/>
<path d="M 193 89 L 194 89 L 195 90 L 195 97 L 194 98 L 193 98 L 192 97 L 192 90 " stroke="black" stroke-width="1" fill="none"/>
<path d="M 135 84 L 134 85 L 133 84 L 133 86 L 131 88 L 130 87 L 130 85 L 127 85 L 127 94 L 130 94 L 130 91 L 131 90 L 133 92 L 133 95 L 134 94 L 135 95 " stroke="black" stroke-width="1" fill="none"/>
<path d="M 134 85 L 135 86 L 135 93 L 134 94 L 133 93 L 133 92 L 132 91 L 132 88 L 133 87 L 133 86 " stroke="black" stroke-width="1" fill="none"/>
<path d="M 128 85 L 129 85 L 130 86 L 130 93 L 129 94 L 128 94 L 127 93 L 127 86 " stroke="black" stroke-width="1" fill="none"/>
<path d="M 180 50 L 178 81 L 148 98 L 140 96 L 149 103 L 149 133 L 122 149 L 103 139 L 100 141 L 120 153 L 120 186 L 149 204 L 149 226 L 151 204 L 178 187 L 197 197 L 200 195 L 180 183 L 180 150 L 151 133 L 151 105 L 180 87 L 189 91 L 177 83 L 179 50 L 180 83 L 189 89 L 180 82 " stroke="black" stroke-width="1" fill="none"/>
<path d="M 150 203 L 151 204 L 151 225 L 150 226 L 149 225 L 149 204 " stroke="black" stroke-width="1" fill="none"/>
<path d="M 152 141 L 153 140 L 154 141 L 155 141 L 156 142 L 157 142 L 158 143 L 159 143 L 160 144 L 159 145 L 157 145 L 156 144 L 155 144 L 154 143 L 153 143 L 152 142 " stroke="black" stroke-width="1" fill="none"/>
<path d="M 101 140 L 123 149 L 151 133 L 180 151 L 179 184 L 178 153 L 175 150 L 178 153 L 178 183 L 175 186 L 180 183 L 199 196 L 177 187 L 149 204 L 120 185 L 120 153 L 123 185 L 151 200 L 156 197 L 149 200 L 122 183 L 122 153 L 149 137 L 154 139 L 151 140 L 152 143 L 171 153 L 173 151 L 172 153 L 160 146 L 152 137 L 122 153 " stroke="black" stroke-width="1" fill="none"/>
<path d="M 173 183 L 171 183 L 169 185 L 168 185 L 167 186 L 166 186 L 164 188 L 163 188 L 162 189 L 161 189 L 160 190 L 159 190 L 158 191 L 157 191 L 155 193 L 154 193 L 153 194 L 152 194 L 151 195 L 152 195 L 153 194 L 154 194 L 155 193 L 156 193 L 158 191 L 159 191 L 160 190 L 161 190 L 162 189 L 163 189 L 164 188 L 165 188 L 167 186 L 168 186 L 169 185 L 170 185 L 172 183 L 173 184 L 173 185 " stroke="black" stroke-width="1" fill="none"/>
<path d="M 125 155 L 124 156 L 124 180 L 125 180 L 126 181 L 126 155 " stroke="black" stroke-width="1" fill="none"/>
<path d="M 125 155 L 126 156 L 126 179 L 125 180 L 124 179 L 124 156 " stroke="black" stroke-width="1" fill="none"/>
<path d="M 177 83 L 180 87 L 176 90 L 171 92 L 169 94 L 166 95 L 164 97 L 159 99 L 155 102 L 153 101 L 157 98 L 153 101 L 151 100 L 153 98 L 151 99 L 151 102 L 152 103 L 151 104 L 151 133 L 150 134 L 149 133 L 149 103 L 147 100 L 145 100 L 140 96 L 142 95 L 147 98 L 149 98 L 155 95 L 157 93 L 166 89 L 168 87 L 173 85 L 175 83 " stroke="black" stroke-width="1" fill="none"/>
</svg>