<svg xmlns="http://www.w3.org/2000/svg" width="300" height="300" viewBox="0 0 300 300">
<path d="M 226 155 L 225 156 L 224 155 L 224 158 L 223 159 L 221 157 L 221 156 L 219 156 L 218 157 L 218 165 L 221 165 L 221 164 L 222 163 L 223 164 L 223 165 L 226 165 " stroke="black" stroke-width="1" fill="none"/>
<path d="M 220 156 L 221 157 L 221 158 L 222 159 L 221 160 L 222 159 L 223 159 L 224 158 L 224 157 L 225 156 L 226 157 L 226 164 L 225 165 L 224 165 L 223 164 L 223 163 L 222 162 L 223 161 L 222 162 L 222 163 L 220 165 L 219 165 L 218 164 L 218 158 " stroke="black" stroke-width="1" fill="none"/>
<path d="M 200 144 L 200 146 L 214 160 L 215 160 L 215 157 L 202 144 " stroke="black" stroke-width="1" fill="none"/>
<path d="M 200 145 L 201 144 L 202 144 L 215 157 L 215 159 L 214 160 L 212 158 L 212 157 " stroke="black" stroke-width="1" fill="none"/>
<path d="M 144 119 L 143 120 L 142 120 L 142 122 L 141 123 L 139 121 L 139 120 L 137 120 L 136 121 L 136 129 L 139 129 L 139 128 L 140 127 L 141 128 L 141 129 L 144 129 " stroke="black" stroke-width="1" fill="none"/>
<path d="M 138 120 L 139 121 L 139 122 L 140 123 L 139 124 L 140 123 L 141 123 L 142 122 L 142 121 L 143 120 L 144 121 L 144 128 L 143 129 L 142 129 L 141 128 L 141 127 L 140 126 L 141 125 L 140 126 L 140 127 L 138 129 L 137 129 L 136 128 L 136 122 " stroke="black" stroke-width="1" fill="none"/>
<path d="M 142 111 L 140 111 L 140 117 L 141 118 L 142 117 " stroke="black" stroke-width="1" fill="none"/>
<path d="M 141 111 L 142 112 L 142 117 L 141 118 L 140 117 L 140 112 " stroke="black" stroke-width="1" fill="none"/>
<path d="M 144 98 L 143 99 L 142 98 L 142 100 L 140 102 L 139 101 L 139 99 L 136 99 L 136 108 L 139 108 L 139 105 L 140 104 L 142 106 L 142 108 L 143 108 L 144 109 " stroke="black" stroke-width="1" fill="none"/>
<path d="M 143 99 L 144 100 L 144 107 L 143 108 L 142 107 L 142 106 L 141 105 L 141 102 L 142 101 L 142 100 " stroke="black" stroke-width="1" fill="none"/>
<path d="M 137 99 L 138 99 L 139 100 L 139 107 L 138 108 L 137 108 L 136 107 L 136 100 " stroke="black" stroke-width="1" fill="none"/>
<path d="M 243 98 L 213 104 L 192 87 L 208 108 L 196 137 L 171 143 L 149 131 L 165 146 L 155 175 L 124 172 L 116 146 L 133 130 L 114 143 L 80 136 L 57 161 L 67 196 L 103 203 L 125 177 L 156 177 L 178 203 L 214 196 L 223 168 L 211 194 L 196 192 L 183 196 L 207 192 L 185 200 L 174 194 L 159 172 L 169 151 L 164 173 L 170 154 L 166 150 L 171 145 L 199 139 L 210 149 L 202 138 L 215 154 L 202 137 L 210 109 " stroke="black" stroke-width="1" fill="none"/>
<path d="M 189 197 L 190 196 L 193 196 L 194 197 L 193 198 L 190 198 " stroke="black" stroke-width="1" fill="none"/>
<path d="M 193 196 L 194 195 L 198 195 L 199 196 L 198 197 L 194 197 " stroke="black" stroke-width="1" fill="none"/>
<path d="M 198 195 L 199 194 L 204 194 L 205 195 L 204 196 L 199 196 " stroke="black" stroke-width="1" fill="none"/>
<path d="M 223 169 L 221 176 L 218 182 L 218 185 L 217 186 L 215 194 L 211 197 L 207 197 L 206 198 L 202 198 L 201 199 L 196 199 L 195 200 L 192 200 L 187 202 L 183 202 L 182 203 L 179 203 L 172 196 L 172 195 L 157 178 L 159 177 L 179 200 L 185 200 L 186 199 L 189 199 L 194 197 L 198 197 L 199 196 L 204 196 L 205 195 L 212 194 L 219 171 L 222 168 " stroke="black" stroke-width="1" fill="none"/>
<path d="M 162 165 L 163 166 L 163 168 L 162 169 L 161 168 L 161 166 " stroke="black" stroke-width="1" fill="none"/>
<path d="M 163 162 L 164 163 L 164 165 L 163 166 L 162 165 L 162 163 " stroke="black" stroke-width="1" fill="none"/>
<path d="M 166 152 L 167 153 L 167 156 L 166 157 L 166 159 L 165 160 L 165 162 L 164 163 L 163 162 L 163 159 L 164 158 L 164 156 L 165 155 L 165 153 " stroke="black" stroke-width="1" fill="none"/>
<path d="M 95 143 L 96 142 L 99 142 L 100 143 L 99 144 L 96 144 " stroke="black" stroke-width="1" fill="none"/>
<path d="M 91 142 L 92 141 L 95 141 L 96 142 L 95 143 L 92 143 " stroke="black" stroke-width="1" fill="none"/>
<path d="M 242 99 L 211 107 L 200 139 L 168 146 L 157 178 L 124 178 L 113 146 L 81 139 L 60 161 L 60 166 L 82 139 L 108 148 L 85 141 L 86 144 L 113 147 L 122 173 L 119 180 L 124 178 L 102 203 L 66 194 L 57 162 L 81 136 L 115 143 L 132 130 L 116 145 L 125 175 L 156 175 L 165 145 L 150 131 L 166 143 L 199 136 L 211 103 " stroke="black" stroke-width="1" fill="none"/>
<path d="M 119 176 L 119 177 L 118 178 L 117 177 L 117 176 L 110 183 L 110 184 L 101 193 L 101 195 L 101 194 L 110 185 L 110 184 L 117 177 L 118 178 L 119 177 " stroke="black" stroke-width="1" fill="none"/>
<path d="M 61 168 L 69 194 L 102 200 L 117 183 L 106 196 L 101 200 L 70 194 L 64 180 L 65 176 L 69 188 L 72 190 L 72 187 L 65 166 L 64 165 L 63 166 L 66 169 L 72 187 L 71 189 L 68 185 L 63 168 L 62 171 " stroke="black" stroke-width="1" fill="none"/>
<path d="M 64 173 L 65 174 L 65 176 L 64 177 L 63 176 L 63 174 " stroke="black" stroke-width="1" fill="none"/>
<path d="M 63 170 L 64 171 L 64 173 L 63 174 L 62 173 L 62 171 " stroke="black" stroke-width="1" fill="none"/>
<path d="M 192 87 L 194 89 L 195 88 L 196 89 L 196 88 L 197 87 L 198 88 L 198 89 L 201 92 L 200 93 L 201 92 L 211 102 L 211 103 L 209 105 L 209 106 L 208 107 L 198 97 L 198 94 L 197 95 L 192 90 L 191 90 L 190 89 " stroke="black" stroke-width="1" fill="none"/>
<path d="M 185 75 L 183 77 L 183 84 L 185 86 L 189 86 L 190 85 L 191 85 L 192 84 L 192 77 L 190 75 " stroke="black" stroke-width="1" fill="none"/>
<path d="M 186 75 L 189 75 L 192 78 L 192 83 L 189 86 L 186 86 L 183 83 L 183 78 " stroke="black" stroke-width="1" fill="none"/>
<path d="M 186 78 L 186 83 L 189 83 L 189 78 " stroke="black" stroke-width="1" fill="none"/>
<path d="M 187 78 L 188 78 L 189 79 L 189 82 L 188 83 L 187 83 L 186 82 L 186 79 " stroke="black" stroke-width="1" fill="none"/>
</svg>