<svg xmlns="http://www.w3.org/2000/svg" width="300" height="300" viewBox="0 0 300 300">
<path d="M 97 267 L 96 268 L 95 267 L 95 269 L 93 271 L 92 270 L 92 268 L 89 268 L 89 277 L 92 277 L 92 274 L 93 273 L 95 275 L 95 278 L 96 277 L 97 278 " stroke="black" stroke-width="1" fill="none"/>
<path d="M 96 268 L 97 269 L 97 276 L 96 277 L 95 276 L 95 275 L 94 274 L 94 271 L 95 270 L 95 269 " stroke="black" stroke-width="1" fill="none"/>
<path d="M 90 268 L 91 268 L 92 269 L 92 276 L 91 277 L 90 277 L 89 276 L 89 269 " stroke="black" stroke-width="1" fill="none"/>
<path d="M 107 258 L 105 260 L 105 267 L 107 269 L 112 269 L 114 267 L 114 260 L 112 258 " stroke="black" stroke-width="1" fill="none"/>
<path d="M 108 258 L 111 258 L 114 261 L 114 266 L 111 269 L 108 269 L 105 266 L 105 261 " stroke="black" stroke-width="1" fill="none"/>
<path d="M 108 261 L 108 266 L 111 266 L 111 261 " stroke="black" stroke-width="1" fill="none"/>
<path d="M 109 261 L 110 261 L 111 262 L 111 265 L 110 266 L 109 266 L 108 265 L 108 262 " stroke="black" stroke-width="1" fill="none"/>
<path d="M 133 192 L 132 192 L 132 215 L 133 214 L 134 214 L 134 193 " stroke="black" stroke-width="1" fill="none"/>
<path d="M 133 192 L 134 193 L 134 213 L 133 214 L 132 213 L 132 193 " stroke="black" stroke-width="1" fill="none"/>
<path d="M 44 176 L 43 177 L 42 176 L 42 178 L 40 180 L 39 179 L 39 177 L 36 177 L 36 186 L 39 186 L 39 183 L 40 182 L 42 184 L 42 187 L 43 186 L 44 187 " stroke="black" stroke-width="1" fill="none"/>
<path d="M 43 177 L 44 178 L 44 185 L 43 186 L 42 185 L 42 184 L 41 183 L 41 180 L 42 179 L 42 178 " stroke="black" stroke-width="1" fill="none"/>
<path d="M 37 177 L 38 177 L 39 178 L 39 185 L 38 186 L 37 186 L 36 185 L 36 178 " stroke="black" stroke-width="1" fill="none"/>
<path d="M 54 166 L 52 168 L 52 175 L 54 177 L 59 177 L 61 175 L 61 168 L 59 166 " stroke="black" stroke-width="1" fill="none"/>
<path d="M 55 166 L 58 166 L 61 169 L 61 174 L 58 177 L 55 177 L 52 174 L 52 169 " stroke="black" stroke-width="1" fill="none"/>
<path d="M 55 169 L 55 174 L 58 174 L 58 169 " stroke="black" stroke-width="1" fill="none"/>
<path d="M 56 169 L 57 169 L 58 170 L 58 173 L 57 174 L 56 174 L 55 173 L 55 170 " stroke="black" stroke-width="1" fill="none"/>
<path d="M 81 120 L 79 122 L 79 129 L 81 131 L 86 131 L 88 129 L 88 122 L 86 120 " stroke="black" stroke-width="1" fill="none"/>
<path d="M 82 120 L 85 120 L 88 123 L 88 128 L 85 131 L 82 131 L 79 128 L 79 123 " stroke="black" stroke-width="1" fill="none"/>
<path d="M 82 123 L 82 128 L 85 128 L 85 123 " stroke="black" stroke-width="1" fill="none"/>
<path d="M 83 123 L 84 123 L 85 124 L 85 127 L 84 128 L 83 128 L 82 127 L 82 124 " stroke="black" stroke-width="1" fill="none"/>
<path d="M 136 97 L 136 126 L 138 126 L 138 97 " stroke="black" stroke-width="1" fill="none"/>
<path d="M 137 97 L 138 98 L 138 125 L 137 126 L 136 125 L 136 98 " stroke="black" stroke-width="1" fill="none"/>
<path d="M 123 80 L 122 81 L 121 80 L 121 82 L 119 84 L 118 83 L 118 81 L 115 81 L 115 90 L 118 90 L 118 87 L 119 86 L 121 88 L 121 91 L 122 90 L 123 91 " stroke="black" stroke-width="1" fill="none"/>
<path d="M 122 81 L 123 82 L 123 89 L 122 90 L 121 89 L 121 88 L 120 87 L 120 84 L 121 83 L 121 82 " stroke="black" stroke-width="1" fill="none"/>
<path d="M 116 81 L 117 81 L 118 82 L 118 89 L 117 90 L 116 90 L 115 89 L 115 82 " stroke="black" stroke-width="1" fill="none"/>
<path d="M 169 79 L 169 81 L 169 80 L 170 79 L 171 80 L 172 80 L 173 81 L 174 81 L 175 82 L 176 82 L 177 83 L 178 83 L 179 84 L 180 84 L 182 86 L 183 86 L 185 88 L 186 88 L 188 90 L 188 91 L 189 90 L 187 88 L 186 88 L 184 86 L 183 86 L 181 84 L 180 84 L 179 83 L 178 83 L 177 82 L 176 82 L 175 81 L 174 81 L 173 80 L 171 80 L 170 79 " stroke="black" stroke-width="1" fill="none"/>
<path d="M 212 54 L 211 54 L 211 77 L 212 76 L 213 76 L 213 55 " stroke="black" stroke-width="1" fill="none"/>
<path d="M 212 54 L 213 55 L 213 75 L 212 76 L 211 75 L 211 55 " stroke="black" stroke-width="1" fill="none"/>
<path d="M 189 42 L 188 42 L 187 43 L 186 43 L 184 45 L 183 45 L 182 46 L 181 46 L 180 47 L 179 47 L 177 49 L 176 49 L 175 50 L 174 50 L 173 51 L 172 51 L 170 53 L 169 53 L 171 53 L 173 51 L 174 51 L 175 50 L 176 50 L 178 48 L 179 48 L 180 47 L 181 47 L 182 46 L 183 46 L 184 45 L 185 45 L 187 43 L 188 43 " stroke="black" stroke-width="1" fill="none"/>
<path d="M 234 39 L 215 48 L 188 34 L 162 49 L 162 79 L 127 91 L 134 126 L 111 140 L 93 131 L 111 140 L 134 127 L 127 92 L 167 82 L 164 52 L 177 44 L 163 80 L 164 48 L 189 34 L 214 48 L 234 40 L 215 52 L 186 39 L 215 52 L 215 79 L 187 93 L 214 81 L 216 51 L 217 81 L 191 97 L 165 83 L 141 95 L 145 132 L 112 142 L 110 172 L 109 141 L 90 132 L 109 146 L 109 171 L 85 186 L 65 179 L 83 190 L 83 220 L 109 236 L 109 256 L 111 236 L 136 221 L 161 235 L 189 222 L 215 238 L 217 266 L 217 236 L 244 220 L 218 234 L 216 265 L 215 233 L 189 222 L 162 235 L 135 221 L 109 236 L 83 219 L 84 189 L 86 219 L 109 228 L 85 217 L 85 190 L 109 180 L 85 190 L 66 179 L 86 186 L 111 171 L 138 188 L 137 218 L 135 188 L 106 177 L 136 190 L 136 217 L 108 232 L 136 217 L 161 232 L 192 216 L 217 232 L 244 218 L 217 232 L 191 216 L 162 232 L 138 217 L 138 187 L 111 171 L 113 142 L 136 129 L 156 141 L 140 127 L 140 97 L 163 83 L 188 97 L 215 84 L 217 52 " stroke="black" stroke-width="1" fill="none"/>
<path d="M 110 235 L 111 236 L 111 255 L 110 256 L 109 255 L 109 236 " stroke="black" stroke-width="1" fill="none"/>
<path d="M 155 131 L 156 132 L 156 139 L 155 140 L 154 139 L 154 138 L 153 137 L 153 134 L 154 133 L 154 132 " stroke="black" stroke-width="1" fill="none"/>
<path d="M 149 131 L 150 131 L 151 132 L 151 139 L 150 140 L 149 140 L 148 139 L 148 132 " stroke="black" stroke-width="1" fill="none"/>
<path d="M 240 28 L 238 30 L 238 37 L 240 39 L 245 39 L 247 37 L 247 30 L 245 28 " stroke="black" stroke-width="1" fill="none"/>
<path d="M 241 28 L 244 28 L 247 31 L 247 36 L 244 39 L 241 39 L 238 36 L 238 31 " stroke="black" stroke-width="1" fill="none"/>
<path d="M 241 31 L 241 36 L 244 36 L 244 31 " stroke="black" stroke-width="1" fill="none"/>
<path d="M 242 31 L 243 31 L 244 32 L 244 35 L 243 36 L 242 36 L 241 35 L 241 32 " stroke="black" stroke-width="1" fill="none"/>
<path d="M 246 9 L 245 10 L 244 9 L 244 11 L 242 13 L 241 12 L 241 10 L 238 10 L 238 19 L 241 19 L 241 16 L 242 15 L 244 17 L 244 19 L 245 19 L 246 20 " stroke="black" stroke-width="1" fill="none"/>
<path d="M 245 10 L 246 11 L 246 18 L 245 19 L 244 18 L 244 17 L 243 16 L 243 13 L 244 12 L 244 11 " stroke="black" stroke-width="1" fill="none"/>
<path d="M 239 10 L 240 10 L 241 11 L 241 18 L 240 19 L 239 19 L 238 18 L 238 11 " stroke="black" stroke-width="1" fill="none"/>
</svg>