<svg xmlns="http://www.w3.org/2000/svg" width="300" height="300" viewBox="0 0 300 300">
<path d="M 109 230 L 109 239 L 110 238 L 111 239 L 111 237 L 112 236 L 113 236 L 114 237 L 114 238 L 116 238 L 116 231 L 114 231 L 113 232 L 112 232 L 111 231 L 111 230 L 110 231 " stroke="black" stroke-width="1" fill="none"/>
<path d="M 109 232 L 110 231 L 111 232 L 114 232 L 115 231 L 116 232 L 116 237 L 115 238 L 114 237 L 114 236 L 113 235 L 113 234 L 113 235 L 112 236 L 111 236 L 111 237 L 110 238 L 109 237 " stroke="black" stroke-width="1" fill="none"/>
<path d="M 220 216 L 221 217 L 222 217 L 223 218 L 224 218 L 225 219 L 228 219 L 229 220 L 231 220 L 232 221 L 235 221 L 236 222 L 239 222 L 238 221 L 239 220 L 238 220 L 237 219 L 235 219 L 234 218 L 232 218 L 231 217 L 229 217 L 228 216 L 226 216 L 225 215 L 223 215 L 222 214 L 221 214 L 221 215 " stroke="black" stroke-width="1" fill="none"/>
<path d="M 221 215 L 222 214 L 223 215 L 225 215 L 226 216 L 228 216 L 229 217 L 231 217 L 232 218 L 234 218 L 235 219 L 236 219 L 238 221 L 237 222 L 236 222 L 235 221 L 232 221 L 231 220 L 229 220 L 228 219 L 226 219 L 225 218 L 224 218 L 223 217 L 222 217 L 221 216 " stroke="black" stroke-width="1" fill="none"/>
<path d="M 213 207 L 212 208 L 211 208 L 210 209 L 210 215 L 211 215 L 212 216 L 216 216 L 218 214 L 218 209 L 216 207 " stroke="black" stroke-width="1" fill="none"/>
<path d="M 213 207 L 215 207 L 218 210 L 218 213 L 215 216 L 212 216 L 210 214 L 210 210 " stroke="black" stroke-width="1" fill="none"/>
<path d="M 213 210 L 212 211 L 212 212 L 213 213 L 215 213 L 215 210 " stroke="black" stroke-width="1" fill="none"/>
<path d="M 212 211 L 213 210 L 214 210 L 215 211 L 215 212 L 214 213 L 213 213 L 212 212 " stroke="black" stroke-width="1" fill="none"/>
<path d="M 50 196 L 50 203 L 51 203 L 52 204 L 56 204 L 58 202 L 58 197 L 56 195 L 52 195 L 51 196 " stroke="black" stroke-width="1" fill="none"/>
<path d="M 52 195 L 55 195 L 58 198 L 58 201 L 55 204 L 52 204 L 50 202 L 50 197 " stroke="black" stroke-width="1" fill="none"/>
<path d="M 53 198 L 52 199 L 52 200 L 53 201 L 55 201 L 55 198 " stroke="black" stroke-width="1" fill="none"/>
<path d="M 52 199 L 53 198 L 54 198 L 55 199 L 55 200 L 54 201 L 53 201 L 52 200 " stroke="black" stroke-width="1" fill="none"/>
<path d="M 30 186 L 30 187 L 29 188 L 30 189 L 31 189 L 33 191 L 34 191 L 35 192 L 36 192 L 38 194 L 39 194 L 40 195 L 42 195 L 43 196 L 44 196 L 45 197 L 46 197 L 46 196 L 47 195 L 46 194 L 45 194 L 44 193 L 43 193 L 42 192 L 41 192 L 39 190 L 38 190 L 37 189 L 36 189 L 34 187 L 33 187 L 32 186 " stroke="black" stroke-width="1" fill="none"/>
<path d="M 30 187 L 31 186 L 32 187 L 33 187 L 35 189 L 36 189 L 37 190 L 38 190 L 40 192 L 41 192 L 42 193 L 43 193 L 44 194 L 45 194 L 46 195 L 46 196 L 45 197 L 44 196 L 43 196 L 42 195 L 41 195 L 40 194 L 39 194 L 37 192 L 36 192 L 35 191 L 34 191 L 32 189 L 31 189 L 30 188 " stroke="black" stroke-width="1" fill="none"/>
<path d="M 249 173 L 249 180 L 250 180 L 251 181 L 255 181 L 257 179 L 257 174 L 255 172 L 251 172 L 250 173 " stroke="black" stroke-width="1" fill="none"/>
<path d="M 251 172 L 254 172 L 257 175 L 257 178 L 254 181 L 251 181 L 249 179 L 249 174 " stroke="black" stroke-width="1" fill="none"/>
<path d="M 252 175 L 251 176 L 251 177 L 252 178 L 254 178 L 254 175 " stroke="black" stroke-width="1" fill="none"/>
<path d="M 251 176 L 252 175 L 253 175 L 254 176 L 254 177 L 253 178 L 252 178 L 251 177 " stroke="black" stroke-width="1" fill="none"/>
<path d="M 273 158 L 270 158 L 260 168 L 260 170 L 262 170 L 264 168 L 265 168 L 273 160 L 272 160 L 262 170 L 261 170 L 260 169 L 271 158 " stroke="black" stroke-width="1" fill="none"/>
<path d="M 149 140 L 149 142 L 153 143 L 151 145 L 148 144 L 148 145 L 164 149 L 176 155 L 181 179 L 205 188 L 207 191 L 210 206 L 212 205 L 209 188 L 227 171 L 237 173 L 245 176 L 246 174 L 228 167 L 223 144 L 220 141 L 199 134 L 195 134 L 177 151 L 153 143 L 152 139 L 151 142 " stroke="black" stroke-width="1" fill="none"/>
<path d="M 182 167 L 183 168 L 183 171 L 182 172 L 181 171 L 181 168 " stroke="black" stroke-width="1" fill="none"/>
<path d="M 153 143 L 177 151 L 179 153 L 178 154 L 179 155 L 179 161 L 179 157 L 181 155 L 182 156 L 186 170 L 185 174 L 183 171 L 182 164 L 181 171 L 183 177 L 195 182 L 207 185 L 209 187 L 210 196 L 212 201 L 211 205 L 209 203 L 206 188 L 185 181 L 180 177 L 176 154 L 164 149 L 153 146 L 152 145 " stroke="black" stroke-width="1" fill="none"/>
<path d="M 203 140 L 204 139 L 207 139 L 208 140 L 210 140 L 211 141 L 213 141 L 214 142 L 215 142 L 216 143 L 215 144 L 213 144 L 212 143 L 210 143 L 209 142 L 207 142 L 206 141 L 204 141 " stroke="black" stroke-width="1" fill="none"/>
<path d="M 199 140 L 200 139 L 201 140 L 203 140 L 204 141 L 206 141 L 207 142 L 209 142 L 210 143 L 212 143 L 213 144 L 215 144 L 216 145 L 216 146 L 215 147 L 214 147 L 213 146 L 211 146 L 210 145 L 209 145 L 208 144 L 206 144 L 205 143 L 203 143 L 202 142 L 200 142 L 199 141 " stroke="black" stroke-width="1" fill="none"/>
<path d="M 200 139 L 201 138 L 203 138 L 204 139 L 203 140 L 201 140 " stroke="black" stroke-width="1" fill="none"/>
<path d="M 196 137 L 201 138 L 199 139 L 198 141 L 199 142 L 202 142 L 214 147 L 217 147 L 215 144 L 218 143 L 221 147 L 225 168 L 218 176 L 225 169 L 226 171 L 209 187 L 208 185 L 215 178 L 210 183 L 207 180 L 221 168 L 219 168 L 207 180 L 209 183 L 207 185 L 195 182 L 182 175 L 183 171 L 184 174 L 186 175 L 186 170 L 182 155 L 180 156 L 178 154 " stroke="black" stroke-width="1" fill="none"/>
<path d="M 178 151 L 196 134 L 199 134 L 200 135 L 220 141 L 223 144 L 224 152 L 225 153 L 228 168 L 244 173 L 245 175 L 243 176 L 237 173 L 227 171 L 225 169 L 225 165 L 224 164 L 224 160 L 223 159 L 220 144 L 216 143 L 213 141 L 211 141 L 207 139 L 204 139 L 200 137 L 196 137 L 179 153 " stroke="black" stroke-width="1" fill="none"/>
<path d="M 147 72 L 147 79 L 148 79 L 149 80 L 153 80 L 155 78 L 155 73 L 153 71 L 149 71 L 148 72 " stroke="black" stroke-width="1" fill="none"/>
<path d="M 149 71 L 152 71 L 155 74 L 155 77 L 152 80 L 149 80 L 147 78 L 147 73 " stroke="black" stroke-width="1" fill="none"/>
<path d="M 150 74 L 149 75 L 149 76 L 150 77 L 152 77 L 152 74 " stroke="black" stroke-width="1" fill="none"/>
<path d="M 149 75 L 150 74 L 151 74 L 152 75 L 152 76 L 151 77 L 150 77 L 149 76 " stroke="black" stroke-width="1" fill="none"/>
<path d="M 114 67 L 126 79 L 116 72 L 123 81 L 143 78 L 126 82 L 122 106 L 123 84 L 108 71 L 123 85 L 121 105 L 98 117 L 98 145 L 75 160 L 75 185 L 60 195 L 76 189 L 96 200 L 98 231 L 104 229 L 104 224 L 97 221 L 100 202 L 123 188 L 123 160 L 100 145 L 101 123 L 122 109 L 147 121 L 148 130 L 146 117 L 162 100 L 154 82 L 165 99 L 149 118 L 165 100 L 155 81 L 153 84 L 162 98 L 145 117 L 123 106 L 126 83 L 144 77 L 127 79 " stroke="black" stroke-width="1" fill="none"/>
<path d="M 98 222 L 101 222 L 104 225 L 104 228 L 101 231 L 98 231 L 96 229 L 96 224 " stroke="black" stroke-width="1" fill="none"/>
<path d="M 99 225 L 98 226 L 98 227 L 99 228 L 101 228 L 101 225 " stroke="black" stroke-width="1" fill="none"/>
<path d="M 98 226 L 99 225 L 100 225 L 101 226 L 101 227 L 100 228 L 99 228 L 98 227 " stroke="black" stroke-width="1" fill="none"/>
<path d="M 99 201 L 100 202 L 100 219 L 99 220 L 98 219 L 98 202 " stroke="black" stroke-width="1" fill="none"/>
<path d="M 123 161 L 123 187 L 100 202 L 77 189 L 61 196 L 75 185 L 81 189 L 82 185 L 97 194 L 96 197 L 86 192 L 97 198 L 120 187 L 120 161 L 100 149 L 91 153 L 99 149 L 121 163 L 121 185 L 100 198 L 91 189 L 77 185 L 77 163 L 91 159 L 98 154 L 97 152 L 95 156 L 82 163 L 81 159 L 78 161 L 77 185 L 75 185 L 75 161 L 98 145 " stroke="black" stroke-width="1" fill="none"/>
<path d="M 118 164 L 117 164 L 117 184 L 118 183 L 119 183 L 119 165 " stroke="black" stroke-width="1" fill="none"/>
<path d="M 118 164 L 119 165 L 119 182 L 118 183 L 117 182 L 117 165 " stroke="black" stroke-width="1" fill="none"/>
<path d="M 148 123 L 149 124 L 149 126 L 148 127 L 147 127 L 146 126 L 146 125 " stroke="black" stroke-width="1" fill="none"/>
<path d="M 99 123 L 100 124 L 100 145 L 99 146 L 98 145 L 98 124 " stroke="black" stroke-width="1" fill="none"/>
<path d="M 97 119 L 100 116 L 101 116 L 102 115 L 104 115 L 105 114 L 106 114 L 107 113 L 112 111 L 114 109 L 115 109 L 120 106 L 123 106 L 125 108 L 126 108 L 127 109 L 129 109 L 130 110 L 131 110 L 132 111 L 133 111 L 134 112 L 135 112 L 142 116 L 144 116 L 145 117 L 146 117 L 148 120 L 147 121 L 146 121 L 144 119 L 143 119 L 136 115 L 134 115 L 129 112 L 127 112 L 122 109 L 119 109 L 117 111 L 116 111 L 114 113 L 113 113 L 110 116 L 109 116 L 106 119 L 105 119 L 102 122 L 101 122 L 101 123 L 100 124 " stroke="black" stroke-width="1" fill="none"/>
<path d="M 102 60 L 102 67 L 103 67 L 104 68 L 108 68 L 110 66 L 110 61 L 108 59 L 104 59 L 103 60 " stroke="black" stroke-width="1" fill="none"/>
<path d="M 104 59 L 107 59 L 110 62 L 110 65 L 107 68 L 104 68 L 102 66 L 102 61 " stroke="black" stroke-width="1" fill="none"/>
<path d="M 105 62 L 104 63 L 104 64 L 105 65 L 107 65 L 107 62 " stroke="black" stroke-width="1" fill="none"/>
<path d="M 104 63 L 105 62 L 106 62 L 107 63 L 107 64 L 106 65 L 105 65 L 104 64 " stroke="black" stroke-width="1" fill="none"/>
</svg>