<svg xmlns="http://www.w3.org/2000/svg" width="300" height="300" viewBox="0 0 300 300">
<path d="M 95 200 L 95 208 L 96 207 L 97 208 L 97 206 L 98 205 L 99 205 L 100 206 L 100 207 L 102 207 L 102 200 L 100 200 L 99 201 L 98 201 L 97 200 " stroke="black" stroke-width="1" fill="none"/>
<path d="M 95 201 L 96 200 L 97 201 L 100 201 L 101 200 L 102 201 L 102 206 L 101 207 L 100 206 L 100 205 L 99 204 L 99 203 L 99 204 L 98 205 L 97 205 L 97 206 L 96 207 L 95 206 " stroke="black" stroke-width="1" fill="none"/>
<path d="M 163 190 L 161 192 L 161 198 L 162 198 L 163 199 L 167 199 L 169 197 L 169 192 L 167 190 " stroke="black" stroke-width="1" fill="none"/>
<path d="M 163 190 L 166 190 L 169 193 L 169 196 L 166 199 L 163 199 L 161 197 L 161 193 L 162 192 L 162 191 " stroke="black" stroke-width="1" fill="none"/>
<path d="M 164 193 L 163 194 L 163 195 L 164 196 L 166 196 L 166 193 " stroke="black" stroke-width="1" fill="none"/>
<path d="M 163 194 L 164 193 L 165 193 L 166 194 L 166 195 L 165 196 L 164 196 L 163 195 " stroke="black" stroke-width="1" fill="none"/>
<path d="M 280 183 L 280 192 L 281 191 L 282 192 L 282 190 L 283 189 L 284 189 L 285 190 L 285 191 L 287 191 L 287 184 L 285 184 L 284 185 L 283 185 L 282 184 L 282 183 L 281 184 " stroke="black" stroke-width="1" fill="none"/>
<path d="M 280 185 L 281 184 L 282 185 L 285 185 L 286 184 L 287 185 L 287 190 L 286 191 L 285 190 L 285 189 L 284 188 L 284 187 L 284 188 L 283 189 L 282 189 L 282 190 L 281 191 L 280 190 " stroke="black" stroke-width="1" fill="none"/>
<path d="M 268 176 L 268 183 L 269 183 L 270 184 L 274 184 L 276 182 L 276 177 L 274 175 L 270 175 L 269 176 " stroke="black" stroke-width="1" fill="none"/>
<path d="M 270 175 L 273 175 L 276 178 L 276 181 L 273 184 L 270 184 L 268 182 L 268 177 " stroke="black" stroke-width="1" fill="none"/>
<path d="M 271 178 L 270 179 L 270 180 L 271 181 L 273 181 L 273 178 " stroke="black" stroke-width="1" fill="none"/>
<path d="M 270 179 L 271 178 L 272 178 L 273 179 L 273 180 L 272 181 L 271 181 L 270 180 " stroke="black" stroke-width="1" fill="none"/>
<path d="M 181 162 L 182 182 L 172 188 L 172 191 L 186 184 L 204 195 L 208 195 L 228 183 L 246 194 L 247 212 L 249 211 L 250 194 L 248 194 L 248 198 L 248 195 L 250 195 L 248 206 L 246 204 L 246 193 L 229 183 L 225 184 L 207 195 L 187 184 L 184 184 L 173 191 L 172 189 L 182 182 L 181 171 L 183 171 L 183 175 L 183 163 " stroke="black" stroke-width="1" fill="none"/>
<path d="M 248 206 L 249 207 L 249 210 L 248 211 L 247 210 L 247 207 " stroke="black" stroke-width="1" fill="none"/>
<path d="M 182 163 L 183 164 L 183 169 L 182 170 L 181 169 L 181 164 " stroke="black" stroke-width="1" fill="none"/>
<path d="M 122 161 L 122 170 L 123 169 L 124 170 L 124 168 L 125 167 L 126 167 L 127 168 L 127 169 L 129 169 L 129 162 L 127 162 L 126 163 L 125 163 L 124 162 L 124 161 L 123 162 " stroke="black" stroke-width="1" fill="none"/>
<path d="M 122 163 L 123 162 L 124 163 L 127 163 L 128 162 L 129 163 L 129 168 L 128 169 L 127 168 L 127 167 L 126 166 L 126 165 L 126 166 L 125 167 L 124 167 L 124 168 L 123 169 L 122 168 " stroke="black" stroke-width="1" fill="none"/>
<path d="M 124 155 L 122 155 L 121 156 L 120 156 L 120 158 L 124 158 " stroke="black" stroke-width="1" fill="none"/>
<path d="M 120 157 L 122 155 L 123 155 L 124 156 L 124 157 L 123 158 L 121 158 " stroke="black" stroke-width="1" fill="none"/>
<path d="M 181 153 L 181 160 L 187 162 L 185 163 L 185 175 L 186 170 L 188 172 L 188 182 L 205 192 L 210 191 L 227 180 L 247 191 L 251 191 L 263 183 L 264 185 L 261 188 L 252 193 L 253 205 L 251 205 L 251 201 L 251 211 L 253 212 L 247 215 L 247 221 L 253 222 L 255 220 L 255 215 L 253 213 L 252 194 L 265 185 L 264 183 L 248 191 L 230 180 L 226 180 L 206 192 L 188 181 L 187 161 L 189 159 L 189 154 L 187 152 " stroke="black" stroke-width="1" fill="none"/>
<path d="M 250 213 L 252 213 L 255 216 L 255 219 L 252 222 L 249 222 L 247 220 L 247 216 " stroke="black" stroke-width="1" fill="none"/>
<path d="M 250 216 L 249 217 L 249 218 L 250 219 L 252 219 L 252 216 " stroke="black" stroke-width="1" fill="none"/>
<path d="M 249 217 L 250 216 L 251 216 L 252 217 L 252 218 L 251 219 L 250 219 L 249 218 " stroke="black" stroke-width="1" fill="none"/>
<path d="M 252 206 L 253 207 L 253 210 L 252 211 L 251 210 L 251 207 " stroke="black" stroke-width="1" fill="none"/>
<path d="M 186 163 L 187 164 L 187 169 L 186 170 L 185 169 L 185 164 " stroke="black" stroke-width="1" fill="none"/>
<path d="M 183 152 L 186 152 L 189 155 L 189 158 L 186 161 L 184 161 L 183 160 L 182 160 L 181 159 L 181 154 " stroke="black" stroke-width="1" fill="none"/>
<path d="M 184 155 L 183 156 L 183 157 L 184 158 L 186 158 L 186 155 " stroke="black" stroke-width="1" fill="none"/>
<path d="M 183 156 L 184 155 L 185 155 L 186 156 L 186 157 L 185 158 L 184 158 L 183 157 " stroke="black" stroke-width="1" fill="none"/>
<path d="M 31 147 L 33 149 L 34 149 L 35 150 L 36 150 L 38 152 L 39 152 L 40 153 L 41 153 L 43 155 L 44 155 L 45 156 L 46 156 L 47 157 L 48 157 L 51 159 L 53 159 L 54 158 L 55 158 L 57 156 L 58 156 L 59 155 L 60 155 L 62 153 L 63 153 L 67 149 L 68 149 L 69 148 L 68 148 L 67 149 L 66 149 L 62 153 L 61 153 L 59 155 L 58 155 L 56 157 L 55 157 L 53 159 L 52 159 L 51 158 L 50 158 L 49 157 L 48 157 L 47 156 L 46 156 L 45 155 L 44 155 L 42 153 L 41 153 L 40 152 L 39 152 L 37 150 L 36 150 L 35 149 L 34 149 L 32 147 " stroke="black" stroke-width="1" fill="none"/>
<path d="M 29 147 L 28 149 L 29 152 L 33 153 L 38 156 L 40 156 L 48 160 L 51 163 L 52 184 L 54 188 L 75 199 L 80 198 L 93 189 L 94 187 L 85 194 L 76 199 L 55 188 L 52 184 L 51 162 L 40 156 L 31 153 L 28 150 " stroke="black" stroke-width="1" fill="none"/>
<path d="M 87 137 L 86 138 L 86 139 L 87 140 L 89 140 L 89 137 " stroke="black" stroke-width="1" fill="none"/>
<path d="M 86 138 L 87 137 L 88 137 L 89 138 L 89 139 L 88 140 L 87 140 L 86 139 " stroke="black" stroke-width="1" fill="none"/>
<path d="M 51 132 L 51 141 L 52 140 L 53 141 L 53 139 L 54 138 L 55 138 L 56 139 L 56 141 L 57 140 L 58 140 L 58 133 L 56 133 L 55 134 L 54 134 L 53 133 L 53 132 L 52 133 " stroke="black" stroke-width="1" fill="none"/>
<path d="M 51 134 L 52 133 L 53 134 L 56 134 L 57 133 L 58 134 L 58 139 L 57 140 L 56 139 L 56 138 L 55 137 L 55 136 L 55 137 L 54 138 L 53 138 L 53 139 L 52 140 L 51 139 " stroke="black" stroke-width="1" fill="none"/>
<path d="M 121 118 L 121 125 L 123 125 L 124 126 L 127 126 L 129 124 L 129 119 L 127 117 L 123 117 L 122 118 " stroke="black" stroke-width="1" fill="none"/>
<path d="M 123 117 L 126 117 L 129 120 L 129 123 L 126 126 L 124 126 L 123 125 L 122 125 L 121 124 L 121 119 " stroke="black" stroke-width="1" fill="none"/>
<path d="M 124 120 L 123 121 L 123 122 L 124 123 L 126 123 L 126 120 " stroke="black" stroke-width="1" fill="none"/>
<path d="M 123 121 L 124 120 L 125 120 L 126 121 L 126 122 L 125 123 L 124 123 L 123 122 " stroke="black" stroke-width="1" fill="none"/>
<path d="M 90 111 L 90 118 L 92 118 L 93 119 L 96 119 L 98 117 L 98 112 L 96 110 L 92 110 L 91 111 " stroke="black" stroke-width="1" fill="none"/>
<path d="M 92 110 L 95 110 L 98 113 L 98 116 L 95 119 L 93 119 L 92 118 L 91 118 L 90 117 L 90 112 " stroke="black" stroke-width="1" fill="none"/>
<path d="M 93 113 L 92 114 L 92 115 L 93 116 L 95 116 L 95 113 " stroke="black" stroke-width="1" fill="none"/>
<path d="M 92 114 L 93 113 L 94 113 L 95 114 L 95 115 L 94 116 L 93 116 L 92 115 " stroke="black" stroke-width="1" fill="none"/>
<path d="M 85 104 L 104 104 L 85 104 L 70 121 L 74 145 L 62 144 L 63 138 L 71 143 L 60 141 L 72 148 L 53 163 L 55 185 L 78 196 L 96 184 L 99 197 L 100 184 L 122 194 L 140 183 L 121 197 L 102 187 L 118 197 L 116 221 L 123 221 L 119 197 L 141 185 L 158 191 L 143 181 L 139 163 L 146 160 L 144 153 L 138 154 L 141 181 L 120 194 L 99 182 L 99 157 L 115 149 L 135 153 L 120 145 L 123 128 L 117 144 L 96 155 L 90 120 L 84 142 L 89 134 L 92 143 L 87 145 L 95 159 L 97 182 L 77 196 L 55 184 L 56 160 L 73 147 L 90 155 L 73 147 L 88 152 L 73 144 L 70 126 " stroke="black" stroke-width="1" fill="none"/>
<path d="M 116 219 L 117 218 L 121 218 L 122 219 L 122 220 L 121 221 L 118 221 " stroke="black" stroke-width="1" fill="none"/>
<path d="M 117 216 L 118 215 L 121 215 L 122 216 L 122 217 L 121 218 L 118 218 L 117 217 " stroke="black" stroke-width="1" fill="none"/>
<path d="M 119 203 L 120 204 L 120 207 L 121 208 L 121 214 L 120 215 L 119 215 L 118 214 L 118 204 " stroke="black" stroke-width="1" fill="none"/>
<path d="M 98 189 L 99 189 L 100 190 L 100 192 L 101 193 L 101 195 L 99 197 L 97 197 L 96 196 L 96 191 " stroke="black" stroke-width="1" fill="none"/>
<path d="M 97 183 L 99 183 L 100 184 L 99 185 L 100 186 L 100 187 L 98 189 L 96 187 L 96 186 L 97 185 L 96 184 " stroke="black" stroke-width="1" fill="none"/>
<path d="M 140 183 L 141 182 L 143 182 L 144 183 L 145 183 L 146 184 L 147 184 L 149 186 L 152 186 L 153 187 L 154 187 L 155 188 L 156 188 L 158 190 L 155 193 L 154 193 L 151 190 L 150 190 L 148 188 L 147 188 L 146 187 L 145 187 L 143 185 L 142 185 " stroke="black" stroke-width="1" fill="none"/>
<path d="M 141 170 L 143 172 L 143 181 L 142 182 L 140 180 L 140 171 " stroke="black" stroke-width="1" fill="none"/>
<path d="M 141 164 L 142 165 L 142 169 L 141 170 L 140 169 L 140 165 " stroke="black" stroke-width="1" fill="none"/>
<path d="M 96 158 L 98 160 L 98 171 L 99 172 L 99 182 L 98 183 L 97 182 L 97 181 L 96 180 L 96 169 L 95 168 L 95 159 " stroke="black" stroke-width="1" fill="none"/>
<path d="M 140 153 L 143 153 L 146 156 L 146 159 L 143 162 L 140 162 L 138 160 L 138 155 " stroke="black" stroke-width="1" fill="none"/>
<path d="M 141 156 L 140 157 L 140 158 L 141 159 L 143 159 L 143 156 " stroke="black" stroke-width="1" fill="none"/>
<path d="M 140 157 L 141 156 L 142 156 L 143 157 L 143 158 L 142 159 L 141 159 L 140 158 " stroke="black" stroke-width="1" fill="none"/>
<path d="M 120 148 L 121 147 L 123 147 L 124 148 L 125 148 L 126 149 L 127 149 L 128 150 L 129 150 L 130 151 L 131 151 L 132 152 L 133 152 L 134 153 L 134 154 L 133 155 L 132 154 L 131 154 L 130 153 L 129 153 L 128 152 L 127 152 L 126 151 L 125 151 L 124 150 L 123 150 L 122 149 L 121 149 " stroke="black" stroke-width="1" fill="none"/>
<path d="M 117 147 L 117 148 L 116 149 L 114 149 L 112 151 L 111 151 L 110 152 L 109 152 L 108 153 L 107 153 L 106 154 L 105 154 L 104 155 L 103 155 L 102 156 L 100 156 L 99 157 L 98 157 L 97 156 L 99 154 L 100 154 L 101 153 L 102 153 L 103 152 L 105 152 L 106 151 L 107 151 L 108 150 L 109 150 L 110 149 L 111 149 L 113 147 L 114 147 L 115 146 L 116 146 " stroke="black" stroke-width="1" fill="none"/>
<path d="M 90 144 L 92 144 L 93 145 L 93 148 L 94 149 L 93 150 L 94 151 L 94 152 L 95 153 L 95 154 L 96 155 L 96 156 L 97 156 L 98 157 L 97 158 L 95 158 L 92 155 L 92 153 L 90 151 L 90 150 L 88 148 L 88 146 " stroke="black" stroke-width="1" fill="none"/>
<path d="M 122 128 L 123 129 L 123 132 L 122 133 L 122 137 L 121 138 L 121 141 L 120 142 L 120 144 L 119 145 L 121 147 L 119 149 L 118 149 L 117 148 L 117 147 L 116 146 L 117 145 L 117 143 L 118 142 L 118 139 L 119 138 L 119 135 L 120 134 L 120 130 " stroke="black" stroke-width="1" fill="none"/>
<path d="M 91 121 L 92 122 L 92 126 L 91 127 L 91 130 L 89 132 L 88 131 L 88 128 L 89 127 L 89 123 " stroke="black" stroke-width="1" fill="none"/>
<path d="M 115 78 L 111 78 L 108 97 L 105 102 L 82 102 L 68 119 L 67 125 L 71 141 L 67 125 L 68 120 L 83 102 L 106 102 L 108 97 L 110 80 L 112 78 L 114 78 L 116 82 L 109 103 L 102 110 L 102 107 L 100 108 L 101 110 L 103 110 L 109 103 L 118 114 L 117 115 L 109 106 L 111 110 L 116 115 L 118 115 L 117 111 L 109 103 L 116 82 " stroke="black" stroke-width="1" fill="none"/>
</svg>