<svg xmlns="http://www.w3.org/2000/svg" width="300" height="300" viewBox="0 0 300 300">
<path d="M 104 261 L 103 262 L 102 261 L 102 263 L 100 265 L 99 264 L 99 262 L 96 262 L 96 271 L 99 271 L 99 268 L 100 267 L 102 269 L 102 272 L 103 271 L 104 272 " stroke="black" stroke-width="1" fill="none"/>
<path d="M 103 262 L 104 263 L 104 270 L 103 271 L 102 270 L 102 269 L 101 268 L 101 265 L 102 264 L 102 263 " stroke="black" stroke-width="1" fill="none"/>
<path d="M 97 262 L 98 262 L 99 263 L 99 270 L 98 271 L 97 271 L 96 270 L 96 263 " stroke="black" stroke-width="1" fill="none"/>
<path d="M 117 254 L 117 259 L 120 259 L 120 254 " stroke="black" stroke-width="1" fill="none"/>
<path d="M 118 254 L 119 254 L 120 255 L 120 258 L 119 259 L 118 259 L 117 258 L 117 255 " stroke="black" stroke-width="1" fill="none"/>
<path d="M 116 251 L 114 253 L 114 260 L 116 262 L 121 262 L 123 260 L 123 253 L 122 252 L 120 252 L 121 252 L 123 254 L 123 259 L 120 262 L 117 262 L 114 259 L 114 254 L 116 252 L 117 252 " stroke="black" stroke-width="1" fill="none"/>
<path d="M 179 238 L 178 239 L 177 239 L 177 240 L 175 242 L 174 241 L 174 239 L 171 239 L 171 248 L 174 248 L 174 245 L 175 244 L 177 246 L 177 249 L 178 248 L 179 249 " stroke="black" stroke-width="1" fill="none"/>
<path d="M 178 239 L 179 240 L 179 247 L 178 248 L 177 247 L 177 246 L 176 245 L 176 242 L 177 241 L 177 240 " stroke="black" stroke-width="1" fill="none"/>
<path d="M 172 239 L 173 239 L 174 240 L 174 247 L 173 248 L 172 248 L 171 247 L 171 240 " stroke="black" stroke-width="1" fill="none"/>
<path d="M 65 238 L 64 239 L 63 239 L 63 240 L 61 242 L 60 241 L 60 239 L 57 239 L 57 248 L 60 248 L 60 245 L 61 244 L 63 246 L 63 249 L 64 248 L 65 249 " stroke="black" stroke-width="1" fill="none"/>
<path d="M 64 239 L 65 240 L 65 247 L 64 248 L 63 247 L 63 246 L 62 245 L 62 242 L 63 241 L 63 240 " stroke="black" stroke-width="1" fill="none"/>
<path d="M 58 239 L 59 239 L 60 240 L 60 247 L 59 248 L 58 248 L 57 247 L 57 240 " stroke="black" stroke-width="1" fill="none"/>
<path d="M 175 231 L 175 236 L 177 236 L 177 231 " stroke="black" stroke-width="1" fill="none"/>
<path d="M 176 231 L 177 232 L 177 235 L 176 236 L 175 235 L 175 232 " stroke="black" stroke-width="1" fill="none"/>
<path d="M 61 231 L 61 236 L 63 236 L 63 231 " stroke="black" stroke-width="1" fill="none"/>
<path d="M 62 231 L 63 232 L 63 235 L 62 236 L 61 235 L 61 232 " stroke="black" stroke-width="1" fill="none"/>
<path d="M 173 218 L 171 220 L 171 227 L 173 229 L 178 229 L 180 227 L 180 220 L 178 218 " stroke="black" stroke-width="1" fill="none"/>
<path d="M 174 218 L 177 218 L 180 221 L 180 226 L 177 229 L 174 229 L 171 226 L 171 221 " stroke="black" stroke-width="1" fill="none"/>
<path d="M 174 221 L 174 226 L 177 226 L 177 221 " stroke="black" stroke-width="1" fill="none"/>
<path d="M 175 221 L 176 221 L 177 222 L 177 225 L 176 226 L 175 226 L 174 225 L 174 222 " stroke="black" stroke-width="1" fill="none"/>
<path d="M 59 218 L 57 220 L 57 227 L 59 229 L 64 229 L 66 227 L 66 220 L 64 218 " stroke="black" stroke-width="1" fill="none"/>
<path d="M 60 218 L 63 218 L 66 221 L 66 226 L 63 229 L 60 229 L 57 226 L 57 221 " stroke="black" stroke-width="1" fill="none"/>
<path d="M 60 221 L 60 226 L 63 226 L 63 221 " stroke="black" stroke-width="1" fill="none"/>
<path d="M 61 221 L 62 221 L 63 222 L 63 225 L 62 226 L 61 226 L 60 225 L 60 222 " stroke="black" stroke-width="1" fill="none"/>
<path d="M 31 169 L 29 171 L 29 178 L 31 180 L 36 180 L 38 178 L 38 171 L 36 169 " stroke="black" stroke-width="1" fill="none"/>
<path d="M 32 169 L 35 169 L 38 172 L 38 177 L 35 180 L 32 180 L 29 177 L 29 172 " stroke="black" stroke-width="1" fill="none"/>
<path d="M 32 172 L 32 177 L 35 177 L 35 172 " stroke="black" stroke-width="1" fill="none"/>
<path d="M 33 172 L 34 172 L 35 173 L 35 176 L 34 177 L 33 177 L 32 176 L 32 173 " stroke="black" stroke-width="1" fill="none"/>
<path d="M 19 159 L 18 160 L 17 159 L 17 161 L 15 163 L 14 162 L 14 160 L 11 160 L 11 169 L 14 169 L 14 166 L 15 165 L 17 167 L 17 170 L 18 169 L 19 170 " stroke="black" stroke-width="1" fill="none"/>
<path d="M 18 160 L 19 161 L 19 168 L 18 169 L 17 168 L 17 167 L 16 166 L 16 163 L 17 162 L 17 161 " stroke="black" stroke-width="1" fill="none"/>
<path d="M 12 160 L 13 160 L 14 161 L 14 168 L 13 169 L 12 169 L 11 168 L 11 161 " stroke="black" stroke-width="1" fill="none"/>
<path d="M 42 169 L 45 171 L 61 162 L 90 178 L 90 207 L 70 216 L 71 223 L 90 210 L 117 226 L 116 249 L 121 249 L 119 228 L 147 210 L 166 223 L 167 216 L 148 207 L 148 177 L 167 167 L 166 162 L 146 174 L 128 164 L 128 167 L 146 178 L 146 207 L 119 224 L 92 207 L 92 178 L 110 167 L 110 164 L 91 174 L 62 157 " stroke="black" stroke-width="1" fill="none"/>
<path d="M 118 236 L 120 238 L 120 241 L 121 242 L 121 248 L 120 249 L 117 249 L 116 248 L 116 238 " stroke="black" stroke-width="1" fill="none"/>
<path d="M 119 230 L 120 231 L 120 235 L 119 236 L 117 236 L 116 235 L 116 233 " stroke="black" stroke-width="1" fill="none"/>
<path d="M 148 209 L 149 208 L 150 208 L 151 209 L 152 209 L 153 210 L 154 210 L 156 212 L 158 212 L 160 214 L 161 214 L 162 215 L 164 215 L 165 216 L 166 216 L 167 217 L 167 218 L 166 219 L 165 219 L 165 220 L 164 221 L 163 220 L 162 220 L 159 217 L 160 216 L 159 217 L 158 216 L 157 216 L 155 214 L 154 214 L 152 212 L 151 212 L 150 211 L 149 211 L 148 210 " stroke="black" stroke-width="1" fill="none"/>
<path d="M 90 209 L 90 210 L 89 211 L 87 211 L 86 212 L 85 212 L 83 214 L 82 214 L 79 217 L 78 217 L 75 220 L 74 220 L 73 221 L 72 220 L 72 219 L 71 219 L 70 218 L 70 217 L 71 216 L 72 216 L 73 215 L 74 215 L 76 213 L 78 213 L 79 212 L 81 212 L 83 210 L 84 210 L 85 209 L 86 209 L 87 208 L 89 208 " stroke="black" stroke-width="1" fill="none"/>
<path d="M 149 208 L 146 211 L 145 211 L 143 213 L 142 213 L 141 214 L 140 214 L 139 215 L 138 215 L 136 217 L 135 217 L 134 218 L 133 218 L 132 219 L 131 219 L 129 221 L 128 221 L 127 222 L 126 222 L 125 223 L 124 223 L 122 225 L 121 225 L 120 226 L 120 227 L 119 228 L 119 230 L 118 231 L 117 230 L 117 226 L 116 225 L 118 223 L 119 224 L 120 223 L 121 223 L 123 221 L 124 221 L 125 220 L 126 220 L 127 219 L 128 219 L 130 217 L 131 217 L 132 216 L 133 216 L 134 215 L 135 215 L 137 213 L 138 213 L 139 212 L 140 212 L 141 211 L 142 211 L 144 209 L 145 209 L 145 208 L 146 207 L 148 207 " stroke="black" stroke-width="1" fill="none"/>
<path d="M 147 177 L 148 178 L 148 206 L 147 207 L 146 206 L 146 178 " stroke="black" stroke-width="1" fill="none"/>
<path d="M 91 177 L 92 178 L 92 207 L 93 208 L 93 209 L 94 209 L 96 211 L 101 213 L 103 215 L 108 217 L 110 219 L 117 222 L 118 223 L 116 225 L 114 223 L 109 221 L 107 219 L 106 219 L 105 218 L 102 217 L 100 215 L 95 213 L 89 208 L 90 207 L 90 178 " stroke="black" stroke-width="1" fill="none"/>
<path d="M 128 165 L 129 164 L 130 165 L 131 165 L 132 166 L 133 166 L 135 168 L 136 168 L 138 170 L 139 170 L 140 171 L 141 171 L 142 172 L 143 172 L 144 173 L 145 173 L 146 174 L 146 175 L 145 176 L 144 176 L 142 174 L 141 174 L 140 173 L 139 173 L 138 172 L 137 172 L 135 170 L 134 170 L 133 169 L 132 169 L 130 167 L 129 167 L 128 166 " stroke="black" stroke-width="1" fill="none"/>
<path d="M 168 165 L 165 168 L 163 168 L 162 169 L 160 169 L 159 170 L 157 170 L 155 172 L 154 172 L 152 174 L 151 174 L 150 175 L 149 175 L 147 177 L 146 177 L 145 176 L 149 172 L 150 172 L 152 170 L 153 170 L 156 167 L 157 167 L 158 166 L 159 166 L 161 164 L 162 164 L 164 162 L 165 162 " stroke="black" stroke-width="1" fill="none"/>
<path d="M 43 170 L 44 168 L 48 167 L 58 160 L 60 160 L 63 157 L 64 157 L 78 167 L 81 168 L 83 170 L 86 171 L 90 174 L 93 174 L 95 172 L 100 170 L 102 168 L 109 164 L 110 165 L 109 167 L 103 170 L 101 172 L 96 174 L 94 176 L 93 176 L 92 178 L 88 175 L 81 172 L 79 170 L 69 165 L 67 165 L 62 162 L 59 162 L 57 164 L 54 165 L 52 167 L 45 171 " stroke="black" stroke-width="1" fill="none"/>
<path d="M 173 152 L 171 154 L 171 161 L 173 163 L 178 163 L 180 161 L 180 154 L 178 152 " stroke="black" stroke-width="1" fill="none"/>
<path d="M 174 152 L 177 152 L 180 155 L 180 160 L 177 163 L 174 163 L 171 160 L 171 155 " stroke="black" stroke-width="1" fill="none"/>
<path d="M 174 155 L 174 160 L 177 160 L 177 155 " stroke="black" stroke-width="1" fill="none"/>
<path d="M 175 155 L 176 155 L 177 156 L 177 159 L 176 160 L 175 160 L 174 159 L 174 156 " stroke="black" stroke-width="1" fill="none"/>
<path d="M 116 152 L 114 154 L 114 161 L 116 163 L 121 163 L 123 161 L 123 154 L 121 152 " stroke="black" stroke-width="1" fill="none"/>
<path d="M 117 152 L 120 152 L 123 155 L 123 160 L 120 163 L 117 163 L 114 160 L 114 155 " stroke="black" stroke-width="1" fill="none"/>
<path d="M 117 155 L 117 160 L 120 160 L 120 155 " stroke="black" stroke-width="1" fill="none"/>
<path d="M 118 155 L 119 155 L 120 156 L 120 159 L 119 160 L 118 160 L 117 159 L 117 156 " stroke="black" stroke-width="1" fill="none"/>
<path d="M 275 151 L 273 153 L 273 160 L 275 162 L 280 162 L 281 163 L 280 164 L 279 164 L 279 167 L 280 168 L 280 169 L 281 168 L 282 169 L 282 170 L 281 171 L 279 171 L 279 180 L 282 180 L 282 177 L 283 176 L 285 178 L 285 181 L 286 180 L 287 181 L 287 170 L 286 171 L 285 170 L 285 172 L 283 174 L 282 173 L 282 165 L 280 162 L 282 160 L 282 153 L 280 151 " stroke="black" stroke-width="1" fill="none"/>
<path d="M 286 171 L 287 172 L 287 179 L 286 180 L 285 179 L 285 178 L 284 177 L 284 174 L 285 173 L 285 172 " stroke="black" stroke-width="1" fill="none"/>
<path d="M 280 171 L 281 171 L 282 172 L 282 179 L 281 180 L 280 180 L 279 179 L 279 172 " stroke="black" stroke-width="1" fill="none"/>
<path d="M 279 165 L 280 164 L 282 166 L 282 167 L 281 168 L 279 166 " stroke="black" stroke-width="1" fill="none"/>
<path d="M 276 151 L 279 151 L 282 154 L 282 159 L 279 162 L 276 162 L 273 159 L 273 154 " stroke="black" stroke-width="1" fill="none"/>
<path d="M 276 154 L 276 159 L 279 159 L 279 154 " stroke="black" stroke-width="1" fill="none"/>
<path d="M 277 154 L 278 154 L 279 155 L 279 158 L 278 159 L 277 159 L 276 158 L 276 155 " stroke="black" stroke-width="1" fill="none"/>
<path d="M 210 131 L 209 132 L 208 131 L 208 133 L 206 135 L 205 134 L 205 132 L 202 132 L 202 141 L 205 141 L 205 138 L 206 137 L 208 139 L 208 142 L 209 141 L 210 142 " stroke="black" stroke-width="1" fill="none"/>
<path d="M 209 132 L 210 133 L 210 140 L 209 141 L 208 140 L 208 139 L 207 138 L 207 135 L 208 134 L 208 133 " stroke="black" stroke-width="1" fill="none"/>
<path d="M 203 132 L 204 132 L 205 133 L 205 140 L 204 141 L 203 141 L 202 140 L 202 133 " stroke="black" stroke-width="1" fill="none"/>
<path d="M 144 103 L 142 105 L 142 112 L 144 114 L 149 114 L 151 112 L 151 105 L 149 103 " stroke="black" stroke-width="1" fill="none"/>
<path d="M 145 103 L 148 103 L 151 106 L 151 111 L 148 114 L 145 114 L 142 111 L 142 106 " stroke="black" stroke-width="1" fill="none"/>
<path d="M 145 106 L 145 111 L 148 111 L 148 106 " stroke="black" stroke-width="1" fill="none"/>
<path d="M 146 106 L 147 106 L 148 107 L 148 110 L 147 111 L 146 111 L 145 110 L 145 107 " stroke="black" stroke-width="1" fill="none"/>
<path d="M 174 66 L 174 68 L 173 69 L 172 69 L 170 71 L 169 71 L 168 72 L 167 72 L 165 74 L 164 74 L 163 75 L 162 75 L 161 76 L 160 76 L 159 77 L 158 77 L 157 78 L 156 78 L 155 79 L 153 79 L 155 79 L 156 78 L 158 78 L 159 77 L 160 77 L 161 76 L 162 76 L 163 75 L 164 75 L 165 74 L 166 74 L 168 72 L 169 72 L 170 71 L 171 71 L 173 69 L 174 69 L 175 68 L 174 67 " stroke="black" stroke-width="1" fill="none"/>
<path d="M 244 43 L 240 43 L 242 51 L 238 51 L 238 63 L 204 76 L 201 74 L 205 67 L 206 73 L 209 58 L 205 55 L 201 74 L 174 60 L 146 76 L 146 101 L 148 79 L 153 75 L 148 79 L 147 101 L 146 77 L 175 60 L 203 76 L 178 63 L 157 73 L 177 63 L 203 79 L 201 110 L 176 125 L 155 116 L 174 128 L 177 144 L 173 144 L 173 150 L 178 150 L 176 129 L 201 113 L 202 130 L 208 129 L 202 127 L 207 125 L 205 115 L 210 113 L 234 122 L 245 152 L 270 157 L 247 149 L 237 123 L 256 95 L 237 67 L 237 55 " stroke="black" stroke-width="1" fill="none"/>
<path d="M 175 144 L 177 146 L 176 147 L 177 147 L 178 148 L 178 149 L 177 150 L 174 150 L 173 149 L 173 148 L 174 147 L 173 146 " stroke="black" stroke-width="1" fill="none"/>
<path d="M 175 131 L 176 132 L 176 134 L 175 135 L 174 134 L 174 132 " stroke="black" stroke-width="1" fill="none"/>
<path d="M 204 118 L 205 118 L 206 119 L 206 120 L 205 121 L 206 122 L 205 123 L 206 123 L 207 124 L 207 125 L 206 126 L 204 126 L 203 125 L 203 119 " stroke="black" stroke-width="1" fill="none"/>
<path d="M 203 116 L 204 115 L 206 117 L 205 118 L 204 118 L 203 117 " stroke="black" stroke-width="1" fill="none"/>
<path d="M 206 110 L 205 111 L 206 112 L 205 113 L 204 113 L 203 112 L 202 113 L 195 116 L 193 118 L 190 119 L 185 123 L 182 124 L 180 126 L 179 126 L 177 128 L 176 128 L 176 129 L 177 130 L 176 131 L 175 131 L 174 130 L 174 128 L 173 127 L 173 126 L 172 126 L 170 124 L 167 123 L 162 119 L 161 119 L 156 116 L 156 115 L 157 114 L 158 115 L 160 115 L 162 117 L 163 117 L 168 121 L 171 122 L 173 124 L 174 124 L 175 125 L 177 125 L 181 122 L 184 121 L 189 117 L 192 116 L 194 114 L 199 112 L 201 110 L 202 110 L 203 109 L 205 109 " stroke="black" stroke-width="1" fill="none"/>
<path d="M 204 78 L 205 79 L 205 108 L 204 109 L 203 108 L 203 79 " stroke="black" stroke-width="1" fill="none"/>
<path d="M 203 76 L 237 65 L 256 94 L 237 119 L 241 136 L 247 150 L 267 154 L 268 157 L 247 153 L 243 148 L 234 121 L 205 111 L 210 110 L 232 118 L 237 116 L 237 113 L 235 115 L 234 113 L 247 94 L 234 112 L 236 116 L 234 118 L 205 108 L 205 79 L 232 69 L 237 72 L 253 94 L 248 101 L 253 94 L 236 70 L 232 69 L 206 78 " stroke="black" stroke-width="1" fill="none"/>
<path d="M 207 55 L 209 57 L 208 58 L 207 58 L 208 59 L 207 60 L 208 61 L 207 62 L 206 62 L 207 62 L 208 63 L 207 64 L 206 64 L 206 65 L 207 66 L 206 67 L 204 67 L 203 66 L 204 65 L 204 57 L 206 55 " stroke="black" stroke-width="1" fill="none"/>
<path d="M 239 48 L 240 47 L 240 46 L 241 45 L 242 46 L 243 46 L 244 47 L 243 48 L 242 48 L 242 49 L 241 50 " stroke="black" stroke-width="1" fill="none"/>
<path d="M 240 44 L 241 43 L 243 43 L 244 44 L 244 45 L 243 46 L 242 46 " stroke="black" stroke-width="1" fill="none"/>
<path d="M 210 43 L 209 44 L 208 43 L 208 45 L 206 47 L 205 46 L 205 44 L 202 44 L 202 53 L 204 53 L 205 52 L 205 50 L 206 49 L 208 51 L 208 53 L 209 53 L 210 54 " stroke="black" stroke-width="1" fill="none"/>
<path d="M 209 44 L 210 45 L 210 52 L 209 53 L 208 52 L 208 51 L 207 50 L 207 47 L 208 46 L 208 45 " stroke="black" stroke-width="1" fill="none"/>
<path d="M 203 44 L 204 44 L 205 45 L 205 52 L 204 53 L 203 53 L 202 52 L 202 45 " stroke="black" stroke-width="1" fill="none"/>
<path d="M 243 29 L 241 31 L 241 38 L 242 39 L 243 39 L 244 40 L 248 40 L 250 38 L 250 31 L 248 29 " stroke="black" stroke-width="1" fill="none"/>
<path d="M 244 29 L 247 29 L 250 32 L 250 37 L 247 40 L 244 40 L 241 37 L 241 32 " stroke="black" stroke-width="1" fill="none"/>
<path d="M 244 32 L 244 37 L 247 37 L 247 32 " stroke="black" stroke-width="1" fill="none"/>
<path d="M 245 32 L 246 32 L 247 33 L 247 36 L 246 37 L 245 37 L 244 36 L 244 33 " stroke="black" stroke-width="1" fill="none"/>
<path d="M 268 25 L 267 26 L 266 25 L 266 27 L 264 29 L 263 28 L 263 26 L 260 26 L 260 35 L 263 35 L 263 32 L 264 31 L 266 33 L 266 36 L 267 35 L 268 36 " stroke="black" stroke-width="1" fill="none"/>
<path d="M 267 26 L 268 27 L 268 34 L 267 35 L 266 34 L 266 33 L 265 32 L 265 29 L 266 28 L 266 27 " stroke="black" stroke-width="1" fill="none"/>
<path d="M 261 26 L 262 26 L 263 27 L 263 34 L 262 35 L 261 35 L 260 34 L 260 27 " stroke="black" stroke-width="1" fill="none"/>
</svg>