<svg xmlns="http://www.w3.org/2000/svg" width="300" height="300" viewBox="0 0 300 300">
<path d="M 18 207 L 18 214 L 24 216 L 34 236 L 41 236 L 42 235 L 47 235 L 48 236 L 46 238 L 33 239 L 31 237 L 29 231 L 25 224 L 25 222 L 23 220 L 22 217 L 22 219 L 25 223 L 32 239 L 39 239 L 40 238 L 46 238 L 47 237 L 56 237 L 55 236 L 56 235 L 42 235 L 41 236 L 35 236 L 32 233 L 30 226 L 24 216 L 26 213 L 26 208 L 24 206 L 20 206 " stroke="black" stroke-width="1" fill="none"/>
<path d="M 48 236 L 49 235 L 54 235 L 55 236 L 54 237 L 49 237 " stroke="black" stroke-width="1" fill="none"/>
<path d="M 20 206 L 23 206 L 26 209 L 26 212 L 23 215 L 20 215 L 18 213 L 18 208 " stroke="black" stroke-width="1" fill="none"/>
<path d="M 21 209 L 20 210 L 20 211 L 21 212 L 23 212 L 23 209 " stroke="black" stroke-width="1" fill="none"/>
<path d="M 20 210 L 21 209 L 22 209 L 23 210 L 23 211 L 22 212 L 21 212 L 20 211 " stroke="black" stroke-width="1" fill="none"/>
<path d="M 140 129 L 140 136 L 141 136 L 142 137 L 146 137 L 148 135 L 148 130 L 146 128 L 142 128 L 141 129 " stroke="black" stroke-width="1" fill="none"/>
<path d="M 142 128 L 145 128 L 148 131 L 148 134 L 145 137 L 142 137 L 140 135 L 140 130 " stroke="black" stroke-width="1" fill="none"/>
<path d="M 143 131 L 142 132 L 142 133 L 143 134 L 145 134 L 145 131 " stroke="black" stroke-width="1" fill="none"/>
<path d="M 142 132 L 143 131 L 144 131 L 145 132 L 145 133 L 144 134 L 143 134 L 142 133 " stroke="black" stroke-width="1" fill="none"/>
<path d="M 111 122 L 109 122 L 108 123 L 106 123 L 105 124 L 104 124 L 102 126 L 101 126 L 99 128 L 98 128 L 96 130 L 95 130 L 93 132 L 94 133 L 94 134 L 96 134 L 98 132 L 99 132 L 101 130 L 102 130 L 104 128 L 105 128 L 107 126 L 108 126 L 109 125 L 111 125 L 112 124 L 111 123 " stroke="black" stroke-width="1" fill="none"/>
<path d="M 111 123 L 111 124 L 110 125 L 108 125 L 107 126 L 106 126 L 104 128 L 103 128 L 101 130 L 100 130 L 98 132 L 97 132 L 95 134 L 94 133 L 94 132 L 96 130 L 97 130 L 99 128 L 100 128 L 102 126 L 103 126 L 105 124 L 106 124 L 107 123 L 108 123 L 109 122 L 110 122 " stroke="black" stroke-width="1" fill="none"/>
<path d="M 114 114 L 114 121 L 116 121 L 117 120 L 118 121 L 120 121 L 121 120 L 121 114 L 119 114 L 120 114 L 121 115 L 121 119 L 119 121 L 118 120 L 118 119 L 117 119 L 116 118 L 117 119 L 117 120 L 116 121 L 115 121 L 114 120 L 114 115 L 115 114 L 116 114 L 117 115 L 117 116 L 118 116 L 117 115 L 117 114 " stroke="black" stroke-width="1" fill="none"/>
<path d="M 252 107 L 252 108 L 251 109 L 252 110 L 253 110 L 254 111 L 255 111 L 257 113 L 258 113 L 259 114 L 260 114 L 262 116 L 263 116 L 264 117 L 265 117 L 267 119 L 270 119 L 268 119 L 266 117 L 265 117 L 264 116 L 263 116 L 261 114 L 260 114 L 259 113 L 258 113 L 256 111 L 255 111 L 254 110 L 253 110 L 252 109 L 252 108 L 253 107 L 254 108 L 255 108 L 256 109 L 257 109 L 259 111 L 260 111 L 261 112 L 262 112 L 264 114 L 265 114 L 266 115 L 267 115 L 269 117 L 270 117 L 268 115 L 267 115 L 266 114 L 265 114 L 263 112 L 262 112 L 261 111 L 260 111 L 258 109 L 256 109 L 255 108 L 254 108 L 253 107 " stroke="black" stroke-width="1" fill="none"/>
<path d="M 241 99 L 241 106 L 242 106 L 243 107 L 247 107 L 249 105 L 249 100 L 247 98 L 243 98 L 242 99 " stroke="black" stroke-width="1" fill="none"/>
<path d="M 243 98 L 246 98 L 249 101 L 249 104 L 246 107 L 243 107 L 241 105 L 241 100 " stroke="black" stroke-width="1" fill="none"/>
<path d="M 244 101 L 243 102 L 243 103 L 244 104 L 246 104 L 246 101 " stroke="black" stroke-width="1" fill="none"/>
<path d="M 243 102 L 244 101 L 245 101 L 246 102 L 246 103 L 245 104 L 244 104 L 243 103 " stroke="black" stroke-width="1" fill="none"/>
<path d="M 237 106 L 219 116 L 196 103 L 191 80 L 198 72 L 192 70 L 192 101 L 167 116 L 141 103 L 124 114 L 144 106 L 165 118 L 165 147 L 142 159 L 123 148 L 137 140 L 134 133 L 93 159 L 70 145 L 72 118 L 93 106 L 111 115 L 92 103 L 68 117 L 68 145 L 42 160 L 42 190 L 27 203 L 44 193 L 65 206 L 65 229 L 59 231 L 59 238 L 65 239 L 69 208 L 95 192 L 97 161 L 119 149 L 145 162 L 168 149 L 195 163 L 220 148 L 220 120 " stroke="black" stroke-width="1" fill="none"/>
<path d="M 61 230 L 64 230 L 67 233 L 67 236 L 64 239 L 61 239 L 59 237 L 59 232 " stroke="black" stroke-width="1" fill="none"/>
<path d="M 62 233 L 61 234 L 61 235 L 62 236 L 64 236 L 64 233 " stroke="black" stroke-width="1" fill="none"/>
<path d="M 61 234 L 62 233 L 63 233 L 64 234 L 64 235 L 63 236 L 62 236 L 61 235 " stroke="black" stroke-width="1" fill="none"/>
<path d="M 41 191 L 43 193 L 42 194 L 41 194 L 33 202 L 32 202 L 29 205 L 28 204 L 28 203 L 31 200 L 32 200 " stroke="black" stroke-width="1" fill="none"/>
<path d="M 135 133 L 136 135 L 132 140 L 135 138 L 135 141 L 121 150 L 111 152 L 95 163 L 71 149 L 64 151 L 66 152 L 63 154 L 70 149 L 93 163 L 93 189 L 69 204 L 55 197 L 66 204 L 92 191 L 93 163 L 95 163 L 95 191 L 69 207 L 64 228 L 66 206 L 41 191 L 42 161 L 68 145 L 90 158 L 96 159 " stroke="black" stroke-width="1" fill="none"/>
<path d="M 90 165 L 89 165 L 89 188 L 90 187 L 91 187 L 91 166 " stroke="black" stroke-width="1" fill="none"/>
<path d="M 90 165 L 91 166 L 91 186 L 90 187 L 89 186 L 89 166 " stroke="black" stroke-width="1" fill="none"/>
<path d="M 68 154 L 67 154 L 66 155 L 65 155 L 63 157 L 62 157 L 61 158 L 60 158 L 59 159 L 58 159 L 57 160 L 56 160 L 54 162 L 53 162 L 52 163 L 51 163 L 50 164 L 48 164 L 51 164 L 52 163 L 53 163 L 54 162 L 55 162 L 57 160 L 58 160 L 59 159 L 60 159 L 61 158 L 62 158 L 63 157 L 64 157 L 66 155 L 67 155 " stroke="black" stroke-width="1" fill="none"/>
<path d="M 62 152 L 45 161 L 44 163 L 44 189 L 45 191 L 48 193 L 46 191 L 48 189 L 50 189 L 54 191 L 56 193 L 66 198 L 67 200 L 66 201 L 60 197 L 55 195 L 54 194 L 60 197 L 62 199 L 67 201 L 68 199 L 57 193 L 55 191 L 51 189 L 48 189 L 46 191 L 44 189 L 44 163 L 47 160 " stroke="black" stroke-width="1" fill="none"/>
<path d="M 168 119 L 169 120 L 169 145 L 168 146 L 167 145 L 167 120 " stroke="black" stroke-width="1" fill="none"/>
<path d="M 111 113 L 110 115 L 106 112 L 103 111 L 101 109 L 98 108 L 96 106 L 92 106 L 88 109 L 79 113 L 77 115 L 71 118 L 70 120 L 70 145 L 69 146 L 68 145 L 68 118 L 70 116 L 71 116 L 78 111 L 85 108 L 87 106 L 93 103 L 95 103 L 97 104 L 99 106 L 102 107 L 104 109 L 107 110 " stroke="black" stroke-width="1" fill="none"/>
<path d="M 237 107 L 220 120 L 214 116 L 216 118 L 212 120 L 194 110 L 211 120 L 218 120 L 218 145 L 211 145 L 194 155 L 212 145 L 216 147 L 214 149 L 217 147 L 220 120 L 220 147 L 194 163 L 169 149 L 144 162 L 121 150 L 123 148 L 145 159 L 167 145 L 191 160 L 198 158 L 199 155 L 192 160 L 169 145 L 169 120 L 193 105 L 199 110 L 197 106 L 192 105 L 169 120 L 145 106 L 125 115 L 142 103 L 166 116 L 192 101 L 218 116 " stroke="black" stroke-width="1" fill="none"/>
<path d="M 172 122 L 171 123 L 171 143 L 172 143 L 173 144 L 173 122 " stroke="black" stroke-width="1" fill="none"/>
<path d="M 172 122 L 173 123 L 173 142 L 172 143 L 171 142 L 171 123 " stroke="black" stroke-width="1" fill="none"/>
<path d="M 193 81 L 194 82 L 194 101 L 193 102 L 192 101 L 192 82 " stroke="black" stroke-width="1" fill="none"/>
<path d="M 192 70 L 195 70 L 198 73 L 198 76 L 195 79 L 192 79 L 190 77 L 190 72 " stroke="black" stroke-width="1" fill="none"/>
<path d="M 193 73 L 192 74 L 192 75 L 193 76 L 195 76 L 195 73 " stroke="black" stroke-width="1" fill="none"/>
<path d="M 192 74 L 193 73 L 194 73 L 195 74 L 195 75 L 194 76 L 193 76 L 192 75 " stroke="black" stroke-width="1" fill="none"/>
<path d="M 219 59 L 216 59 L 215 60 L 214 60 L 213 61 L 212 61 L 211 62 L 210 62 L 208 64 L 207 64 L 206 65 L 205 65 L 203 67 L 202 67 L 200 69 L 201 70 L 201 71 L 203 71 L 206 68 L 207 68 L 208 67 L 209 67 L 210 66 L 211 66 L 212 65 L 213 65 L 215 63 L 216 63 L 219 61 L 218 61 L 217 62 L 216 62 L 215 63 L 214 63 L 212 65 L 211 65 L 210 66 L 209 66 L 208 67 L 207 67 L 205 69 L 204 69 L 202 71 L 201 70 L 201 69 L 204 66 L 205 66 L 206 65 L 207 65 L 208 64 L 209 64 L 211 62 L 212 62 L 213 61 L 214 61 L 217 59 " stroke="black" stroke-width="1" fill="none"/>
</svg>