<svg xmlns="http://www.w3.org/2000/svg" width="300" height="300" viewBox="0 0 300 300">
<path d="M 118 280 L 118 287 L 119 287 L 120 288 L 120 285 L 121 284 L 122 284 L 123 285 L 123 287 L 125 287 L 125 280 L 123 280 L 121 282 L 120 281 L 120 279 L 119 280 " stroke="black" stroke-width="1" fill="none"/>
<path d="M 124 280 L 125 281 L 125 286 L 124 287 L 123 286 L 123 284 L 122 283 L 122 282 " stroke="black" stroke-width="1" fill="none"/>
<path d="M 119 280 L 120 281 L 120 282 L 121 282 L 122 283 L 121 284 L 120 284 L 120 286 L 119 287 L 118 286 L 118 281 " stroke="black" stroke-width="1" fill="none"/>
<path d="M 133 275 L 131 277 L 131 278 L 133 280 L 134 279 L 134 276 " stroke="black" stroke-width="1" fill="none"/>
<path d="M 133 275 L 134 276 L 134 279 L 133 280 L 131 278 L 131 277 " stroke="black" stroke-width="1" fill="none"/>
<path d="M 135 273 L 134 273 L 137 276 L 137 279 L 134 282 L 131 282 L 129 280 L 129 276 L 131 274 L 130 274 L 129 275 L 129 280 L 131 282 L 135 282 L 137 280 L 137 275 " stroke="black" stroke-width="1" fill="none"/>
<path d="M 160 267 L 160 274 L 161 274 L 162 275 L 162 272 L 163 271 L 164 271 L 165 272 L 165 274 L 167 274 L 167 267 L 165 267 L 163 269 L 162 268 L 162 266 L 161 267 " stroke="black" stroke-width="1" fill="none"/>
<path d="M 166 267 L 167 268 L 167 273 L 166 274 L 165 273 L 165 271 L 164 270 L 164 269 " stroke="black" stroke-width="1" fill="none"/>
<path d="M 161 267 L 162 268 L 162 269 L 163 269 L 164 270 L 163 271 L 162 271 L 162 273 L 161 274 L 160 273 L 160 268 " stroke="black" stroke-width="1" fill="none"/>
<path d="M 96 267 L 96 274 L 97 274 L 98 275 L 98 272 L 99 271 L 100 271 L 101 272 L 101 274 L 103 274 L 103 267 L 101 267 L 99 269 L 98 268 L 98 266 L 97 267 " stroke="black" stroke-width="1" fill="none"/>
<path d="M 102 267 L 103 268 L 103 273 L 102 274 L 101 273 L 101 271 L 100 270 L 100 269 " stroke="black" stroke-width="1" fill="none"/>
<path d="M 97 267 L 98 268 L 98 269 L 99 269 L 100 270 L 99 271 L 98 271 L 98 273 L 97 274 L 96 273 L 96 268 " stroke="black" stroke-width="1" fill="none"/>
<path d="M 163 255 L 161 257 L 161 262 L 163 264 L 167 264 L 169 262 L 169 257 L 167 255 " stroke="black" stroke-width="1" fill="none"/>
<path d="M 163 255 L 166 255 L 169 258 L 169 261 L 166 264 L 163 264 L 161 262 L 161 258 L 162 257 L 162 256 " stroke="black" stroke-width="1" fill="none"/>
<path d="M 165 257 L 163 259 L 163 260 L 165 262 L 166 261 L 166 258 " stroke="black" stroke-width="1" fill="none"/>
<path d="M 165 257 L 166 258 L 166 261 L 165 262 L 163 260 L 163 259 " stroke="black" stroke-width="1" fill="none"/>
<path d="M 99 255 L 97 257 L 97 262 L 99 264 L 103 264 L 105 262 L 105 257 L 103 255 " stroke="black" stroke-width="1" fill="none"/>
<path d="M 99 255 L 102 255 L 105 258 L 105 261 L 102 264 L 99 264 L 97 262 L 97 258 L 98 257 L 98 256 " stroke="black" stroke-width="1" fill="none"/>
<path d="M 101 257 L 99 259 L 99 260 L 101 262 L 102 261 L 102 258 " stroke="black" stroke-width="1" fill="none"/>
<path d="M 101 257 L 102 258 L 102 261 L 101 262 L 99 260 L 99 259 " stroke="black" stroke-width="1" fill="none"/>
<path d="M 151 251 L 152 251 L 153 252 L 155 252 L 156 253 L 155 254 L 154 254 L 153 255 L 151 253 L 150 253 L 152 255 L 153 255 L 155 257 L 157 257 L 158 256 L 158 253 L 157 253 L 156 252 L 154 252 L 153 251 " stroke="black" stroke-width="1" fill="none"/>
<path d="M 157 253 L 158 254 L 158 255 L 156 257 L 154 255 L 156 253 " stroke="black" stroke-width="1" fill="none"/>
<path d="M 83 227 L 81 229 L 81 234 L 83 236 L 87 236 L 89 234 L 89 229 L 87 227 " stroke="black" stroke-width="1" fill="none"/>
<path d="M 83 227 L 86 227 L 89 230 L 89 233 L 86 236 L 83 236 L 81 234 L 81 230 L 82 229 L 82 228 " stroke="black" stroke-width="1" fill="none"/>
<path d="M 85 229 L 83 231 L 83 232 L 85 234 L 86 233 L 86 230 " stroke="black" stroke-width="1" fill="none"/>
<path d="M 85 229 L 86 230 L 86 233 L 85 234 L 83 232 L 83 231 " stroke="black" stroke-width="1" fill="none"/>
<path d="M 96 224 L 94 224 L 93 225 L 92 225 L 91 226 L 92 226 L 93 225 L 94 225 L 95 224 " stroke="black" stroke-width="1" fill="none"/>
<path d="M 70 222 L 70 229 L 71 229 L 72 230 L 72 227 L 73 226 L 74 226 L 75 227 L 75 229 L 77 229 L 77 222 L 75 222 L 73 224 L 72 223 L 72 221 L 71 222 " stroke="black" stroke-width="1" fill="none"/>
<path d="M 76 222 L 77 223 L 77 228 L 76 229 L 75 228 L 75 226 L 74 225 L 74 224 " stroke="black" stroke-width="1" fill="none"/>
<path d="M 71 222 L 72 223 L 72 224 L 73 224 L 74 225 L 73 226 L 72 226 L 72 228 L 71 229 L 70 228 L 70 223 " stroke="black" stroke-width="1" fill="none"/>
<path d="M 100 220 L 98 223 L 98 225 L 92 228 L 94 228 L 97 226 L 100 226 L 113 232 L 115 234 L 115 248 L 113 250 L 106 252 L 106 255 L 108 257 L 110 257 L 112 255 L 111 254 L 115 251 L 118 254 L 130 260 L 129 271 L 134 271 L 134 268 L 132 265 L 133 263 L 132 262 L 139 257 L 146 254 L 149 251 L 149 233 L 153 230 L 157 230 L 158 229 L 157 225 L 154 224 L 148 230 L 142 227 L 140 227 L 145 229 L 147 231 L 145 232 L 139 229 L 147 234 L 147 249 L 145 251 L 135 256 L 132 259 L 129 256 L 119 251 L 117 249 L 117 234 L 119 232 L 124 230 L 125 227 L 122 227 L 116 231 L 111 228 L 105 222 L 102 220 " stroke="black" stroke-width="1" fill="none"/>
<path d="M 129 266 L 130 265 L 132 265 L 133 266 L 133 267 L 134 268 L 134 270 L 133 271 L 130 271 L 129 270 " stroke="black" stroke-width="1" fill="none"/>
<path d="M 148 252 L 147 253 L 146 253 L 145 254 L 144 254 L 143 255 L 142 255 L 141 256 L 140 256 L 138 258 L 137 258 L 136 259 L 135 259 L 132 262 L 133 263 L 131 265 L 130 264 L 130 259 L 131 258 L 132 259 L 134 257 L 135 257 L 136 256 L 137 256 L 139 254 L 140 254 L 141 253 L 142 253 L 143 252 L 144 252 L 145 251 L 147 251 " stroke="black" stroke-width="1" fill="none"/>
<path d="M 111 251 L 112 252 L 112 253 L 111 254 L 110 253 L 111 254 L 111 255 L 109 257 L 106 254 L 106 253 L 107 252 L 108 252 L 109 251 " stroke="black" stroke-width="1" fill="none"/>
<path d="M 111 251 L 112 250 L 113 250 L 114 249 L 115 250 L 115 251 L 114 252 L 112 252 " stroke="black" stroke-width="1" fill="none"/>
<path d="M 148 233 L 149 234 L 149 251 L 148 252 L 146 250 L 147 249 L 147 234 " stroke="black" stroke-width="1" fill="none"/>
<path d="M 157 226 L 157 227 L 158 228 L 156 230 L 152 230 L 150 232 L 149 232 L 148 233 L 147 233 L 146 232 L 148 230 L 149 230 L 155 224 " stroke="black" stroke-width="1" fill="none"/>
<path d="M 101 220 L 103 222 L 104 222 L 110 228 L 111 228 L 112 229 L 113 229 L 115 231 L 116 231 L 117 230 L 118 230 L 119 229 L 120 229 L 123 227 L 124 227 L 125 228 L 123 230 L 122 230 L 121 231 L 120 231 L 117 233 L 117 250 L 118 251 L 119 251 L 120 252 L 121 252 L 122 253 L 123 253 L 124 254 L 125 254 L 127 256 L 128 256 L 129 257 L 130 257 L 131 258 L 130 259 L 128 259 L 127 258 L 126 258 L 124 256 L 123 256 L 122 255 L 121 255 L 120 254 L 119 254 L 118 253 L 117 253 L 115 251 L 115 233 L 114 233 L 113 232 L 112 232 L 111 231 L 110 231 L 109 230 L 108 230 L 105 228 L 103 228 L 102 227 L 101 227 L 100 226 L 99 226 L 98 225 L 98 224 L 99 223 L 99 222 " stroke="black" stroke-width="1" fill="none"/>
<path d="M 131 218 L 129 220 L 129 225 L 131 227 L 135 227 L 137 225 L 137 220 L 135 218 " stroke="black" stroke-width="1" fill="none"/>
<path d="M 131 218 L 134 218 L 137 221 L 137 224 L 134 227 L 131 227 L 129 225 L 129 221 L 130 220 L 130 219 " stroke="black" stroke-width="1" fill="none"/>
<path d="M 133 220 L 131 222 L 131 223 L 133 225 L 134 224 L 134 221 " stroke="black" stroke-width="1" fill="none"/>
<path d="M 133 220 L 134 221 L 134 224 L 133 225 L 131 223 L 131 222 " stroke="black" stroke-width="1" fill="none"/>
<path d="M 195 199 L 193 201 L 193 206 L 195 208 L 199 208 L 201 206 L 201 201 L 199 199 " stroke="black" stroke-width="1" fill="none"/>
<path d="M 195 199 L 198 199 L 201 202 L 201 205 L 198 208 L 195 208 L 193 206 L 193 202 L 194 201 L 194 200 " stroke="black" stroke-width="1" fill="none"/>
<path d="M 197 201 L 195 203 L 195 204 L 197 206 L 198 205 L 198 202 " stroke="black" stroke-width="1" fill="none"/>
<path d="M 197 201 L 198 202 L 198 205 L 197 206 L 195 204 L 195 203 " stroke="black" stroke-width="1" fill="none"/>
<path d="M 212 194 L 210 194 L 208 196 L 207 196 L 205 198 L 204 198 L 203 199 L 204 200 L 204 201 L 206 201 L 208 199 L 209 199 L 211 197 L 212 197 L 213 196 L 212 195 " stroke="black" stroke-width="1" fill="none"/>
<path d="M 211 194 L 212 195 L 212 196 L 210 198 L 209 198 L 208 199 L 207 199 L 205 201 L 204 200 L 204 199 L 206 197 L 207 197 L 208 196 L 209 196 " stroke="black" stroke-width="1" fill="none"/>
<path d="M 208 129 L 206 131 L 206 136 L 208 138 L 212 138 L 214 136 L 214 131 L 212 129 " stroke="black" stroke-width="1" fill="none"/>
<path d="M 208 129 L 211 129 L 214 132 L 214 135 L 211 138 L 208 138 L 206 136 L 206 132 L 207 131 L 207 130 " stroke="black" stroke-width="1" fill="none"/>
<path d="M 210 131 L 208 133 L 208 134 L 210 136 L 211 135 L 211 132 " stroke="black" stroke-width="1" fill="none"/>
<path d="M 210 131 L 211 132 L 211 135 L 210 136 L 208 134 L 208 133 " stroke="black" stroke-width="1" fill="none"/>
<path d="M 216 43 L 215 44 L 214 43 L 214 45 L 213 46 L 213 49 L 212 50 L 212 53 L 211 54 L 211 55 L 211 54 L 212 53 L 212 50 L 213 49 L 213 46 L 215 44 L 216 45 L 216 47 L 215 48 L 215 51 L 214 52 L 214 54 L 213 55 L 213 56 L 212 57 L 210 57 L 208 59 L 208 64 L 210 66 L 214 66 L 216 64 L 216 59 L 213 56 L 213 55 L 214 54 L 214 52 L 215 51 L 215 48 L 216 47 " stroke="black" stroke-width="1" fill="none"/>
<path d="M 210 57 L 213 57 L 216 60 L 216 63 L 213 66 L 210 66 L 208 64 L 208 60 L 209 59 L 209 58 " stroke="black" stroke-width="1" fill="none"/>
<path d="M 212 59 L 210 61 L 210 62 L 212 64 L 213 63 L 213 60 " stroke="black" stroke-width="1" fill="none"/>
<path d="M 212 59 L 213 60 L 213 63 L 212 64 L 210 62 L 210 61 " stroke="black" stroke-width="1" fill="none"/>
<path d="M 186 32 L 180 34 L 182 41 L 179 53 L 161 60 L 157 80 L 171 92 L 166 111 L 181 123 L 179 138 L 170 144 L 162 145 L 163 166 L 147 176 L 147 196 L 163 206 L 161 220 L 163 227 L 169 225 L 169 220 L 163 217 L 165 206 L 180 196 L 189 201 L 181 193 L 181 176 L 165 166 L 165 152 L 180 141 L 194 148 L 196 158 L 200 159 L 198 167 L 200 169 L 206 167 L 206 162 L 200 159 L 202 158 L 200 146 L 204 139 L 200 145 L 201 158 L 198 148 L 196 148 L 197 158 L 194 147 L 175 141 L 179 139 L 182 122 L 181 139 L 194 145 L 198 145 L 202 139 L 197 145 L 181 138 L 183 123 L 199 120 L 206 127 L 201 117 L 182 120 L 170 107 L 173 93 L 191 86 L 194 69 L 205 65 L 205 63 L 193 65 L 181 54 L 183 49 L 181 42 L 188 39 " stroke="black" stroke-width="1" fill="none"/>
<path d="M 164 218 L 166 218 L 169 221 L 169 224 L 166 227 L 163 227 L 161 225 L 161 221 " stroke="black" stroke-width="1" fill="none"/>
<path d="M 165 220 L 163 222 L 163 223 L 165 225 L 166 224 L 166 221 " stroke="black" stroke-width="1" fill="none"/>
<path d="M 165 220 L 166 221 L 166 224 L 165 225 L 163 223 L 163 222 " stroke="black" stroke-width="1" fill="none"/>
<path d="M 164 205 L 165 206 L 165 215 L 164 216 L 163 215 L 163 206 " stroke="black" stroke-width="1" fill="none"/>
<path d="M 147 177 L 150 174 L 153 173 L 155 171 L 156 171 L 163 167 L 165 167 L 166 168 L 167 168 L 168 169 L 173 171 L 175 173 L 178 174 L 181 177 L 181 193 L 180 194 L 179 193 L 179 178 L 177 176 L 179 179 L 179 194 L 177 196 L 179 194 L 181 194 L 183 196 L 186 197 L 189 200 L 188 201 L 187 201 L 185 199 L 182 198 L 180 196 L 178 198 L 175 199 L 173 201 L 172 201 L 165 205 L 163 205 L 162 204 L 161 204 L 160 203 L 155 201 L 153 199 L 150 198 L 147 195 " stroke="black" stroke-width="1" fill="none"/>
<path d="M 175 197 " stroke="black" stroke-width="1" fill="none"/>
<path d="M 176 194 L 175 195 L 174 195 L 173 196 L 172 196 L 171 197 L 170 197 L 169 198 L 170 197 L 171 197 L 172 196 L 173 196 L 174 195 L 175 195 " stroke="black" stroke-width="1" fill="none"/>
<path d="M 152 179 L 151 180 L 151 192 L 152 193 L 153 193 L 153 179 " stroke="black" stroke-width="1" fill="none"/>
<path d="M 152 179 L 153 180 L 153 192 L 152 193 L 151 192 L 151 180 " stroke="black" stroke-width="1" fill="none"/>
<path d="M 175 175 " stroke="black" stroke-width="1" fill="none"/>
<path d="M 169 174 L 170 175 L 171 175 L 172 176 L 173 176 L 174 177 L 175 177 L 176 178 L 175 177 L 174 177 L 173 176 L 172 176 L 171 175 L 170 175 " stroke="black" stroke-width="1" fill="none"/>
<path d="M 164 169 L 163 170 L 156 173 L 154 175 L 151 176 L 149 178 L 149 194 L 151 196 L 154 197 L 156 199 L 157 199 L 164 203 L 173 198 L 172 199 L 167 201 L 166 200 L 167 199 L 166 200 L 165 200 L 164 199 L 166 197 L 167 197 L 169 195 L 176 192 L 174 192 L 173 193 L 170 194 L 168 196 L 167 196 L 165 198 L 164 198 L 161 201 L 160 200 L 155 198 L 149 193 L 149 179 L 152 176 L 153 176 L 155 174 L 156 174 L 161 171 L 164 174 L 165 174 L 170 178 L 171 178 L 174 180 L 176 180 L 175 180 L 174 179 L 169 177 L 167 175 L 166 175 L 164 173 L 165 172 L 166 172 L 167 173 L 166 172 L 167 171 L 168 171 L 173 174 " stroke="black" stroke-width="1" fill="none"/>
<path d="M 161 201 L 163 199 L 164 200 L 166 200 L 167 201 L 166 202 L 165 202 L 164 203 L 163 202 L 162 202 " stroke="black" stroke-width="1" fill="none"/>
<path d="M 161 171 L 162 170 L 163 170 L 164 169 L 165 170 L 166 170 L 167 171 L 166 172 L 164 172 L 163 173 " stroke="black" stroke-width="1" fill="none"/>
<path d="M 201 160 L 203 160 L 206 163 L 206 166 L 203 169 L 200 169 L 198 167 L 198 163 " stroke="black" stroke-width="1" fill="none"/>
<path d="M 202 162 L 200 164 L 200 165 L 202 167 L 203 166 L 203 163 " stroke="black" stroke-width="1" fill="none"/>
<path d="M 202 162 L 203 163 L 203 166 L 202 167 L 200 165 L 200 164 " stroke="black" stroke-width="1" fill="none"/>
<path d="M 199 154 L 200 155 L 200 157 L 199 158 L 198 157 L 198 155 " stroke="black" stroke-width="1" fill="none"/>
<path d="M 197 148 L 199 150 L 199 154 L 198 155 L 197 154 L 197 151 L 196 150 L 196 149 " stroke="black" stroke-width="1" fill="none"/>
<path d="M 170 144 L 171 143 L 173 145 L 172 146 L 171 146 L 170 145 " stroke="black" stroke-width="1" fill="none"/>
<path d="M 169 143 L 170 144 L 170 145 L 171 146 L 168 149 L 167 149 L 165 147 L 166 148 L 166 150 L 165 151 L 165 166 L 164 167 L 163 166 L 163 148 L 162 147 L 162 146 L 163 145 L 165 145 L 166 144 L 168 144 " stroke="black" stroke-width="1" fill="none"/>
<path d="M 167 146 " stroke="black" stroke-width="1" fill="none"/>
<path d="M 171 143 L 173 141 L 175 141 L 176 142 L 175 143 L 174 143 L 173 144 L 172 144 " stroke="black" stroke-width="1" fill="none"/>
<path d="M 166 110 L 169 107 L 173 111 L 173 112 L 180 119 L 181 119 L 182 120 L 184 120 L 185 119 L 192 119 L 193 118 L 196 118 L 197 117 L 200 117 L 203 120 L 203 121 L 204 122 L 204 123 L 206 125 L 206 126 L 205 127 L 202 124 L 202 123 L 201 122 L 201 121 L 200 120 L 195 120 L 194 121 L 189 121 L 188 122 L 181 122 L 180 121 L 179 121 L 173 115 L 172 115 L 169 112 L 168 112 " stroke="black" stroke-width="1" fill="none"/>
<path d="M 182 43 L 183 44 L 183 49 L 181 54 L 182 55 L 180 57 L 165 61 L 162 64 L 159 78 L 171 89 L 176 89 L 189 84 L 190 73 L 192 68 L 191 67 L 192 68 L 190 73 L 189 83 L 185 86 L 172 89 L 159 78 L 162 67 L 163 68 L 162 78 L 163 77 L 164 78 L 166 63 L 164 66 L 165 64 L 166 65 L 165 74 L 163 77 L 162 76 L 163 73 L 162 64 L 165 61 L 177 57 L 181 58 L 180 57 L 182 56 L 192 65 L 196 65 L 200 63 L 204 64 L 194 68 L 192 75 L 192 82 L 190 86 L 173 92 L 171 103 L 169 107 L 168 102 L 171 92 L 157 79 L 157 76 L 161 61 L 166 58 L 178 55 " stroke="black" stroke-width="1" fill="none"/>
<path d="M 187 81 L 184 81 L 183 82 L 181 82 L 180 83 L 177 83 L 176 84 L 174 84 L 173 85 L 172 85 L 173 86 L 173 87 L 174 87 L 175 86 L 177 86 L 178 85 L 181 85 L 182 84 L 184 84 L 185 83 L 186 83 L 186 82 " stroke="black" stroke-width="1" fill="none"/>
<path d="M 173 86 L 174 85 L 175 86 L 174 87 " stroke="black" stroke-width="1" fill="none"/>
<path d="M 186 82 L 184 84 L 182 84 L 181 85 L 178 85 L 177 86 L 175 86 L 174 85 L 175 84 L 176 84 L 177 83 L 180 83 L 181 82 L 183 82 L 184 81 L 185 81 " stroke="black" stroke-width="1" fill="none"/>
<path d="M 188 66 " stroke="black" stroke-width="1" fill="none"/>
<path d="M 186 62 L 188 64 " stroke="black" stroke-width="1" fill="none"/>
<path d="M 181 60 L 184 63 " stroke="black" stroke-width="1" fill="none"/>
<path d="M 179 59 L 179 60 L 178 61 L 181 64 L 182 64 L 186 68 L 187 68 L 188 69 L 189 69 L 189 68 L 187 68 L 184 65 L 183 65 L 179 61 " stroke="black" stroke-width="1" fill="none"/>
<path d="M 182 32 L 185 32 L 188 35 L 188 38 L 185 41 L 183 41 L 182 40 L 181 40 L 180 39 L 180 35 L 181 34 L 181 33 " stroke="black" stroke-width="1" fill="none"/>
<path d="M 184 34 L 182 36 L 182 37 L 184 39 L 185 38 L 185 35 " stroke="black" stroke-width="1" fill="none"/>
<path d="M 184 34 L 185 35 L 185 38 L 184 39 L 182 37 L 182 36 " stroke="black" stroke-width="1" fill="none"/>
<path d="M 169 26 L 172 29 L 173 29 L 175 31 L 176 31 L 175 31 L 170 26 " stroke="black" stroke-width="1" fill="none"/>
<path d="M 170 24 L 171 24 L 176 29 L 177 29 L 174 26 L 173 26 L 171 24 " stroke="black" stroke-width="1" fill="none"/>
</svg>