<svg xmlns="http://www.w3.org/2000/svg" width="300" height="300" viewBox="0 0 300 300">
<path d="M 67 269 L 67 276 L 68 276 L 69 277 L 69 274 L 70 273 L 71 273 L 72 274 L 72 276 L 74 276 L 74 269 L 72 269 L 70 271 L 69 270 L 69 268 L 68 269 " stroke="black" stroke-width="1" fill="none"/>
<path d="M 73 269 L 74 270 L 74 275 L 73 276 L 72 275 L 72 273 L 71 272 L 71 271 " stroke="black" stroke-width="1" fill="none"/>
<path d="M 68 269 L 69 270 L 69 271 L 70 271 L 71 272 L 70 273 L 69 273 L 69 275 L 68 276 L 67 275 L 67 270 " stroke="black" stroke-width="1" fill="none"/>
<path d="M 75 263 L 74 264 L 74 266 L 75 266 L 76 267 L 77 266 L 77 264 L 76 264 " stroke="black" stroke-width="1" fill="none"/>
<path d="M 74 265 L 75 264 L 76 264 L 77 265 L 76 266 L 75 266 " stroke="black" stroke-width="1" fill="none"/>
<path d="M 78 253 L 76 255 L 76 260 L 77 261 L 78 261 L 79 262 L 82 262 L 84 260 L 84 255 L 82 253 " stroke="black" stroke-width="1" fill="none"/>
<path d="M 78 253 L 81 253 L 84 256 L 84 259 L 81 262 L 79 262 L 78 261 L 77 261 L 76 260 L 76 256 L 77 255 L 77 254 " stroke="black" stroke-width="1" fill="none"/>
<path d="M 80 255 L 78 257 L 78 258 L 80 260 L 81 259 L 81 256 " stroke="black" stroke-width="1" fill="none"/>
<path d="M 80 255 L 81 256 L 81 259 L 80 260 L 78 258 L 78 257 " stroke="black" stroke-width="1" fill="none"/>
<path d="M 100 216 L 100 223 L 101 223 L 102 224 L 102 221 L 103 220 L 104 220 L 105 221 L 105 223 L 107 223 L 107 216 L 105 216 L 103 218 L 102 217 L 102 216 " stroke="black" stroke-width="1" fill="none"/>
<path d="M 106 216 L 107 217 L 107 222 L 106 223 L 105 222 L 105 220 L 104 219 L 104 218 " stroke="black" stroke-width="1" fill="none"/>
<path d="M 101 216 L 102 217 L 102 218 L 103 218 L 104 219 L 103 220 L 102 220 L 102 222 L 101 223 L 100 222 L 100 217 " stroke="black" stroke-width="1" fill="none"/>
<path d="M 100 212 L 101 211 L 100 212 L 100 213 L 107 213 L 107 211 L 106 211 L 107 212 L 106 213 L 101 213 " stroke="black" stroke-width="1" fill="none"/>
<path d="M 103 208 L 102 208 L 102 209 " stroke="black" stroke-width="1" fill="none"/>
<path d="M 105 207 L 105 209 " stroke="black" stroke-width="1" fill="none"/>
<path d="M 29 206 L 27 208 L 27 213 L 29 215 L 33 215 L 35 213 L 35 208 L 33 206 " stroke="black" stroke-width="1" fill="none"/>
<path d="M 29 206 L 32 206 L 35 209 L 35 212 L 32 215 L 29 215 L 27 213 L 27 209 L 28 208 L 28 207 " stroke="black" stroke-width="1" fill="none"/>
<path d="M 31 208 L 29 210 L 29 211 L 31 213 L 32 212 L 32 209 " stroke="black" stroke-width="1" fill="none"/>
<path d="M 31 208 L 32 209 L 32 212 L 31 213 L 29 211 L 29 210 " stroke="black" stroke-width="1" fill="none"/>
<path d="M 104 198 L 104 202 L 103 203 L 102 203 L 102 205 L 104 205 " stroke="black" stroke-width="1" fill="none"/>
<path d="M 102 204 L 103 203 L 104 204 L 103 205 " stroke="black" stroke-width="1" fill="none"/>
<path d="M 12 198 L 12 205 L 13 205 L 14 206 L 14 203 L 15 202 L 16 202 L 17 203 L 17 205 L 19 205 L 19 198 L 17 198 L 15 200 L 14 199 L 14 197 L 13 198 " stroke="black" stroke-width="1" fill="none"/>
<path d="M 18 198 L 19 199 L 19 204 L 18 205 L 17 204 L 17 202 L 16 201 L 16 200 " stroke="black" stroke-width="1" fill="none"/>
<path d="M 13 198 L 14 199 L 14 200 L 15 200 L 16 201 L 15 202 L 14 202 L 14 204 L 13 205 L 12 204 L 12 199 " stroke="black" stroke-width="1" fill="none"/>
<path d="M 187 179 L 186 179 L 187 180 L 186 181 L 181 181 L 180 180 L 180 181 L 187 181 " stroke="black" stroke-width="1" fill="none"/>
<path d="M 153 177 L 153 197 L 148 201 L 147 201 L 146 202 L 145 202 L 143 204 L 142 204 L 141 205 L 140 205 L 139 206 L 138 206 L 136 208 L 135 208 L 134 209 L 133 209 L 131 211 L 129 211 L 128 212 L 127 211 L 125 211 L 123 209 L 122 209 L 121 208 L 120 208 L 118 206 L 117 206 L 116 205 L 115 205 L 114 204 L 113 204 L 111 202 L 110 202 L 109 201 L 108 201 L 106 199 L 109 202 L 110 202 L 111 203 L 112 203 L 113 204 L 114 204 L 116 206 L 117 206 L 118 207 L 119 207 L 121 209 L 122 209 L 123 210 L 124 210 L 127 212 L 129 212 L 130 211 L 131 211 L 132 210 L 133 210 L 134 209 L 135 209 L 137 207 L 138 207 L 139 206 L 140 206 L 142 204 L 143 204 L 144 203 L 145 203 L 146 202 L 147 202 L 149 200 L 150 200 L 153 198 " stroke="black" stroke-width="1" fill="none"/>
<path d="M 185 176 L 184 175 L 182 175 L 181 176 L 180 176 L 180 178 L 182 178 L 181 178 L 180 177 L 182 175 L 183 175 L 184 176 L 184 177 " stroke="black" stroke-width="1" fill="none"/>
<path d="M 183 172 L 182 171 L 181 171 L 180 172 L 179 172 L 179 174 L 180 174 L 179 173 L 181 171 L 182 172 L 182 173 " stroke="black" stroke-width="1" fill="none"/>
<path d="M 181 168 L 180 167 L 179 167 L 178 168 L 178 170 L 179 170 " stroke="black" stroke-width="1" fill="none"/>
<path d="M 178 168 L 179 167 L 180 168 L 180 169 L 179 170 L 178 169 " stroke="black" stroke-width="1" fill="none"/>
<path d="M 176 164 L 176 165 L 177 166 L 176 165 " stroke="black" stroke-width="1" fill="none"/>
<path d="M 178 163 L 179 164 L 179 165 L 179 164 " stroke="black" stroke-width="1" fill="none"/>
<path d="M 175 160 L 175 162 " stroke="black" stroke-width="1" fill="none"/>
<path d="M 140 150 L 139 151 L 138 151 L 140 151 " stroke="black" stroke-width="1" fill="none"/>
<path d="M 30 144 L 30 150 L 28 152 L 28 157 L 30 159 L 34 159 L 36 157 L 36 152 L 34 150 L 31 150 L 30 149 L 31 148 L 32 148 L 32 144 " stroke="black" stroke-width="1" fill="none"/>
<path d="M 31 150 L 33 150 L 36 153 L 36 156 L 33 159 L 30 159 L 28 157 L 28 153 " stroke="black" stroke-width="1" fill="none"/>
<path d="M 32 152 L 30 154 L 30 155 L 32 157 L 33 156 L 33 153 " stroke="black" stroke-width="1" fill="none"/>
<path d="M 32 152 L 33 153 L 33 156 L 32 157 L 30 155 L 30 154 " stroke="black" stroke-width="1" fill="none"/>
<path d="M 31 144 L 32 145 L 32 147 L 31 148 L 30 147 L 30 145 " stroke="black" stroke-width="1" fill="none"/>
<path d="M 104 141 L 100 144 L 104 169 L 80 156 L 55 169 L 55 196 L 80 212 L 94 232 L 90 236 L 77 212 L 54 198 L 39 208 L 36 204 L 53 196 L 53 168 L 79 153 L 101 166 L 80 153 L 54 167 L 42 158 L 39 159 L 39 162 L 46 165 L 39 161 L 42 159 L 52 166 L 49 167 L 53 167 L 53 195 L 36 205 L 40 208 L 54 198 L 77 213 L 64 234 L 74 252 L 76 250 L 67 234 L 79 216 L 89 236 L 93 235 L 94 231 L 80 213 L 102 200 L 82 212 L 80 210 L 103 196 L 126 209 L 151 196 L 151 170 L 128 157 L 106 169 " stroke="black" stroke-width="1" fill="none"/>
<path d="M 77 213 L 79 215 L 79 216 L 78 217 L 77 217 L 77 218 L 76 219 L 76 220 L 74 222 L 74 223 L 73 224 L 73 225 L 71 227 L 71 228 L 70 229 L 70 230 L 68 232 L 68 233 L 67 234 L 67 237 L 69 239 L 69 240 L 70 241 L 70 242 L 72 244 L 72 245 L 73 246 L 73 247 L 76 250 L 75 251 L 74 251 L 71 248 L 71 247 L 70 246 L 70 245 L 68 243 L 68 242 L 67 241 L 67 240 L 65 238 L 65 236 L 64 235 L 65 234 L 65 233 L 66 232 L 66 231 L 67 230 L 67 229 L 69 227 L 69 226 L 71 224 L 71 223 L 72 222 L 72 221 L 74 219 L 74 218 L 75 217 L 75 216 L 76 215 L 76 214 " stroke="black" stroke-width="1" fill="none"/>
<path d="M 104 169 L 105 170 L 105 195 L 104 196 L 103 195 L 103 170 " stroke="black" stroke-width="1" fill="none"/>
<path d="M 40 159 L 41 158 L 42 159 L 41 160 " stroke="black" stroke-width="1" fill="none"/>
<path d="M 128 157 L 130 159 L 131 159 L 132 160 L 133 160 L 134 161 L 135 161 L 136 162 L 137 162 L 138 163 L 139 163 L 140 164 L 143 165 L 145 167 L 148 168 L 151 171 L 151 195 L 148 198 L 145 199 L 143 201 L 140 202 L 138 204 L 137 204 L 136 205 L 133 206 L 131 208 L 130 208 L 129 209 L 127 209 L 126 208 L 125 208 L 123 206 L 122 206 L 121 205 L 118 204 L 116 202 L 115 202 L 114 201 L 113 201 L 111 199 L 108 198 L 105 195 L 105 170 L 106 169 L 108 169 L 109 168 L 110 168 L 111 167 L 112 167 L 113 166 L 116 165 L 118 163 L 119 163 L 120 162 L 123 161 " stroke="black" stroke-width="1" fill="none"/>
<path d="M 78 156 L 80 156 L 82 158 L 85 159 L 87 161 L 90 162 L 92 164 L 95 165 L 97 167 L 98 167 L 99 168 L 100 168 L 103 170 L 103 195 L 100 198 L 99 198 L 97 200 L 94 201 L 89 205 L 88 205 L 87 206 L 84 207 L 79 211 L 77 209 L 76 209 L 75 208 L 74 208 L 73 207 L 70 206 L 68 204 L 65 203 L 63 201 L 62 201 L 60 199 L 59 199 L 55 195 L 55 170 L 58 167 L 59 167 L 60 166 L 61 166 L 62 165 L 63 165 L 64 164 L 67 163 L 69 161 L 70 161 L 71 160 L 74 159 L 76 157 L 77 157 " stroke="black" stroke-width="1" fill="none"/>
<path d="M 103 141 L 104 141 L 106 143 L 106 157 L 105 158 L 105 166 L 104 167 L 103 166 L 103 164 L 102 163 L 102 154 L 101 153 L 101 145 L 100 144 " stroke="black" stroke-width="1" fill="none"/>
<path d="M 144 140 L 144 147 L 145 147 L 146 148 L 146 145 L 147 144 L 148 144 L 149 145 L 149 147 L 151 147 L 151 140 L 149 140 L 147 142 L 146 141 L 146 139 L 145 140 " stroke="black" stroke-width="1" fill="none"/>
<path d="M 150 140 L 151 141 L 151 146 L 150 147 L 149 146 L 149 144 L 148 143 L 148 142 " stroke="black" stroke-width="1" fill="none"/>
<path d="M 145 140 L 146 141 L 146 142 L 147 142 L 148 143 L 147 144 L 146 144 L 146 146 L 145 147 L 144 146 L 144 141 " stroke="black" stroke-width="1" fill="none"/>
<path d="M 27 134 L 27 141 L 29 141 L 29 139 L 30 138 L 31 138 L 32 139 L 32 141 L 34 141 L 34 134 L 32 134 L 30 136 L 29 135 L 29 133 L 28 134 " stroke="black" stroke-width="1" fill="none"/>
<path d="M 33 134 L 34 135 L 34 140 L 33 141 L 32 140 L 32 138 L 31 137 L 31 136 " stroke="black" stroke-width="1" fill="none"/>
<path d="M 28 134 L 29 135 L 29 136 L 30 136 L 31 137 L 30 138 L 29 138 L 29 140 L 28 141 L 27 140 L 27 135 " stroke="black" stroke-width="1" fill="none"/>
<path d="M 280 132 L 280 139 L 281 139 L 282 140 L 282 137 L 283 136 L 284 136 L 285 137 L 285 139 L 287 139 L 287 132 L 285 132 L 283 134 L 282 133 L 282 131 L 281 132 " stroke="black" stroke-width="1" fill="none"/>
<path d="M 286 132 L 287 133 L 287 138 L 286 139 L 285 138 L 285 136 L 284 135 L 284 134 " stroke="black" stroke-width="1" fill="none"/>
<path d="M 281 132 L 282 133 L 282 134 L 283 134 L 284 135 L 283 136 L 282 136 L 282 138 L 281 139 L 280 138 L 280 133 " stroke="black" stroke-width="1" fill="none"/>
<path d="M 168 126 " stroke="black" stroke-width="1" fill="none"/>
<path d="M 160 124 L 161 125 L 162 125 L 163 126 L 164 126 L 165 127 L 166 127 L 167 128 L 168 128 L 169 129 L 168 128 L 167 128 L 166 127 L 165 127 L 164 126 L 163 126 L 162 125 L 161 125 " stroke="black" stroke-width="1" fill="none"/>
<path d="M 269 123 L 267 125 L 267 130 L 269 132 L 273 132 L 275 130 L 275 125 L 273 123 " stroke="black" stroke-width="1" fill="none"/>
<path d="M 269 123 L 272 123 L 275 126 L 275 129 L 272 132 L 269 132 L 267 130 L 267 126 L 268 125 L 268 124 " stroke="black" stroke-width="1" fill="none"/>
<path d="M 271 125 L 269 127 L 269 128 L 271 130 L 272 129 L 272 126 " stroke="black" stroke-width="1" fill="none"/>
<path d="M 271 125 L 272 126 L 272 129 L 271 130 L 269 128 L 269 127 " stroke="black" stroke-width="1" fill="none"/>
<path d="M 159 121 L 160 122 L 161 122 L 162 123 L 163 123 L 164 124 L 165 124 L 166 125 L 165 124 L 164 124 L 163 123 L 162 123 L 161 122 L 160 122 " stroke="black" stroke-width="1" fill="none"/>
<path d="M 153 120 L 153 121 L 152 122 L 153 123 L 154 123 L 156 125 L 157 125 L 158 126 L 159 126 L 161 128 L 162 128 L 163 129 L 164 129 L 165 130 L 166 130 L 167 131 L 169 131 L 168 131 L 167 130 L 166 130 L 165 129 L 164 129 L 163 128 L 162 128 L 161 127 L 160 127 L 158 125 L 157 125 L 156 124 L 155 124 L 153 122 L 154 121 L 155 121 L 156 122 L 157 122 L 158 123 L 157 122 L 156 122 L 155 121 L 154 121 " stroke="black" stroke-width="1" fill="none"/>
<path d="M 175 100 L 175 107 L 176 107 L 177 108 L 177 105 L 178 104 L 179 104 L 180 105 L 180 107 L 182 107 L 182 100 L 180 100 L 178 102 L 177 101 L 177 99 L 176 100 " stroke="black" stroke-width="1" fill="none"/>
<path d="M 181 100 L 182 101 L 182 106 L 181 107 L 180 106 L 180 104 L 179 103 L 179 102 " stroke="black" stroke-width="1" fill="none"/>
<path d="M 176 100 L 177 101 L 177 102 L 178 102 L 179 103 L 178 104 L 177 104 L 177 106 L 176 107 L 175 106 L 175 101 " stroke="black" stroke-width="1" fill="none"/>
<path d="M 249 84 L 224 67 L 199 84 L 174 70 L 173 75 L 197 87 L 198 111 L 188 105 L 184 110 L 199 116 L 176 130 L 170 127 L 174 131 L 174 154 L 152 168 L 129 155 L 137 147 L 142 148 L 129 151 L 129 131 L 151 118 L 157 120 L 150 118 L 129 130 L 129 155 L 127 129 L 151 115 L 175 128 L 195 116 L 175 128 L 153 115 L 127 128 L 127 154 L 107 166 L 129 155 L 152 168 L 173 156 L 153 170 L 170 188 L 166 191 L 154 175 L 167 191 L 170 187 L 153 170 L 174 157 L 198 171 L 224 157 L 225 130 L 243 143 L 244 162 L 248 149 L 244 170 L 250 172 L 249 142 L 264 133 L 249 142 L 249 155 L 247 143 L 225 130 L 247 140 L 263 131 L 248 139 L 226 128 L 249 115 " stroke="black" stroke-width="1" fill="none"/>
<path d="M 247 163 L 249 163 L 252 166 L 252 169 L 249 172 L 246 172 L 244 170 L 244 166 " stroke="black" stroke-width="1" fill="none"/>
<path d="M 248 165 L 246 167 L 246 168 L 248 170 L 249 169 L 249 166 " stroke="black" stroke-width="1" fill="none"/>
<path d="M 248 165 L 249 166 L 249 169 L 248 170 L 246 168 L 246 167 " stroke="black" stroke-width="1" fill="none"/>
<path d="M 176 157 L 177 156 L 178 157 L 177 158 " stroke="black" stroke-width="1" fill="none"/>
<path d="M 249 155 L 250 156 L 250 160 L 249 161 L 248 160 L 248 156 " stroke="black" stroke-width="1" fill="none"/>
<path d="M 245 155 L 246 156 L 246 160 L 245 161 L 244 160 L 244 156 " stroke="black" stroke-width="1" fill="none"/>
<path d="M 173 156 L 174 155 L 175 155 L 176 156 L 175 157 L 174 157 " stroke="black" stroke-width="1" fill="none"/>
<path d="M 129 153 L 131 151 L 133 153 L 132 154 L 130 154 " stroke="black" stroke-width="1" fill="none"/>
<path d="M 244 143 L 246 143 L 247 144 L 247 148 L 246 149 L 245 148 L 245 145 L 245 148 L 246 149 L 246 154 L 245 155 L 244 154 L 244 151 L 243 150 L 243 144 " stroke="black" stroke-width="1" fill="none"/>
<path d="M 175 130 L 176 131 L 176 154 L 175 155 L 174 154 L 174 131 " stroke="black" stroke-width="1" fill="none"/>
<path d="M 226 129 L 225 130 L 224 130 L 224 156 L 222 158 L 221 158 L 219 160 L 216 161 L 214 163 L 213 163 L 212 164 L 209 165 L 207 167 L 206 167 L 205 168 L 204 168 L 202 170 L 200 170 L 199 171 L 198 170 L 196 170 L 194 168 L 191 167 L 189 165 L 188 165 L 187 164 L 184 163 L 182 161 L 179 160 L 177 158 L 178 157 L 179 157 L 180 158 L 183 159 L 185 161 L 186 161 L 187 162 L 190 163 L 192 165 L 195 166 L 197 168 L 201 168 L 203 166 L 206 165 L 208 163 L 209 163 L 210 162 L 213 161 L 215 159 L 218 158 L 220 156 L 221 156 L 222 155 L 222 129 L 224 127 " stroke="black" stroke-width="1" fill="none"/>
<path d="M 199 116 L 201 118 L 202 118 L 203 119 L 204 119 L 205 120 L 206 120 L 207 121 L 208 121 L 209 122 L 210 122 L 211 123 L 214 124 L 216 126 L 219 127 L 222 130 L 222 154 L 219 157 L 216 158 L 214 160 L 211 161 L 209 163 L 208 163 L 207 164 L 204 165 L 202 167 L 201 167 L 200 168 L 198 168 L 197 167 L 196 167 L 194 165 L 193 165 L 192 164 L 189 163 L 187 161 L 184 160 L 182 158 L 181 158 L 180 157 L 179 157 L 176 155 L 176 131 L 179 128 L 182 127 L 184 125 L 187 124 L 189 122 L 190 122 L 191 121 L 194 120 " stroke="black" stroke-width="1" fill="none"/>
<path d="M 199 115 L 200 114 L 201 115 L 202 115 L 203 116 L 204 116 L 205 117 L 206 117 L 207 118 L 208 118 L 209 119 L 210 119 L 211 120 L 212 120 L 213 121 L 214 121 L 216 123 L 217 123 L 218 124 L 219 124 L 221 126 L 222 126 L 223 127 L 223 128 L 222 129 L 221 128 L 220 128 L 218 126 L 217 126 L 216 125 L 215 125 L 213 123 L 212 123 L 211 122 L 210 122 L 209 121 L 208 121 L 207 120 L 206 120 L 205 119 L 204 119 L 203 118 L 202 118 L 201 117 L 200 117 L 199 116 " stroke="black" stroke-width="1" fill="none"/>
<path d="M 184 108 L 187 105 L 188 106 L 189 106 L 192 109 L 192 110 L 191 111 L 188 111 L 187 110 L 185 110 L 184 109 " stroke="black" stroke-width="1" fill="none"/>
<path d="M 222 73 L 224 73 L 225 74 L 226 74 L 227 75 L 228 75 L 229 76 L 232 77 L 234 79 L 235 79 L 236 80 L 239 81 L 241 83 L 244 84 L 247 87 L 247 112 L 244 115 L 241 116 L 239 118 L 238 118 L 237 119 L 234 120 L 232 122 L 231 122 L 230 123 L 229 123 L 228 124 L 225 125 L 225 126 L 224 127 L 223 127 L 218 123 L 217 123 L 216 122 L 213 121 L 211 119 L 210 119 L 209 118 L 208 118 L 207 117 L 206 117 L 205 116 L 202 115 L 200 113 L 200 91 L 199 90 L 199 87 L 200 86 L 203 85 L 205 83 L 208 82 L 213 78 L 214 78 L 215 77 L 218 76 L 220 74 L 221 74 " stroke="black" stroke-width="1" fill="none"/>
<path d="M 222 70 L 224 70 L 230 73 L 232 75 L 244 81 L 249 85 L 249 114 L 244 118 L 241 119 L 239 121 L 232 124 L 230 126 L 226 128 L 224 127 L 226 125 L 238 119 L 240 117 L 243 116 L 247 113 L 247 86 L 243 83 L 240 82 L 238 80 L 229 76 L 225 73 L 221 73 L 219 75 L 216 76 L 214 78 L 211 79 L 204 84 L 200 86 L 199 85 L 200 83 L 203 82 L 205 80 L 208 79 L 210 77 L 213 76 L 215 74 L 218 73 " stroke="black" stroke-width="1" fill="none"/>
<path d="M 175 70 L 176 70 L 178 72 L 179 72 L 181 74 L 182 74 L 184 76 L 185 76 L 187 78 L 188 78 L 189 79 L 190 79 L 192 81 L 193 81 L 194 82 L 195 82 L 196 83 L 197 83 L 199 85 L 199 90 L 200 91 L 200 114 L 199 115 L 198 115 L 197 114 L 195 114 L 193 112 L 192 112 L 191 111 L 193 109 L 196 112 L 198 112 L 198 96 L 197 95 L 197 86 L 196 85 L 195 85 L 194 84 L 193 84 L 192 83 L 191 83 L 190 82 L 189 82 L 188 81 L 187 81 L 186 80 L 185 80 L 184 79 L 183 79 L 182 78 L 181 78 L 178 76 L 176 76 L 175 75 L 174 75 L 173 74 L 173 73 " stroke="black" stroke-width="1" fill="none"/>
<path d="M 222 69 L 223 68 L 224 69 L 223 70 " stroke="black" stroke-width="1" fill="none"/>
<path d="M 221 64 L 221 65 " stroke="black" stroke-width="1" fill="none"/>
<path d="M 224 55 L 224 61 L 223 62 L 222 61 L 222 56 L 221 57 L 222 58 L 222 62 L 224 62 " stroke="black" stroke-width="1" fill="none"/>
<path d="M 221 52 L 221 53 L 222 52 L 223 52 L 224 53 L 224 52 " stroke="black" stroke-width="1" fill="none"/>
<path d="M 225 48 L 224 48 L 225 49 L 224 50 L 223 50 L 225 50 " stroke="black" stroke-width="1" fill="none"/>
<path d="M 222 48 L 221 48 L 221 49 " stroke="black" stroke-width="1" fill="none"/>
<path d="M 220 43 L 220 46 L 222 46 L 221 46 L 220 45 L 220 44 L 221 43 L 224 43 L 225 44 L 225 45 L 225 43 " stroke="black" stroke-width="1" fill="none"/>
</svg>