<svg xmlns="http://www.w3.org/2000/svg" width="300" height="300" viewBox="0 0 300 300">
<path d="M 67 280 L 67 287 L 68 287 L 69 288 L 69 285 L 70 284 L 71 284 L 72 285 L 72 287 L 74 287 L 74 280 L 72 280 L 70 282 L 69 281 L 69 279 L 68 280 " stroke="black" stroke-width="1" fill="none"/>
<path d="M 73 280 L 74 281 L 74 286 L 73 287 L 72 286 L 72 284 L 71 283 L 71 282 " stroke="black" stroke-width="1" fill="none"/>
<path d="M 68 280 L 69 281 L 69 282 L 70 282 L 71 283 L 70 284 L 69 284 L 69 286 L 68 287 L 67 286 L 67 281 " stroke="black" stroke-width="1" fill="none"/>
<path d="M 78 278 L 78 280 L 79 281 L 80 280 L 81 280 L 81 278 " stroke="black" stroke-width="1" fill="none"/>
<path d="M 78 280 L 78 279 L 79 278 L 80 278 L 81 279 L 79 281 " stroke="black" stroke-width="1" fill="none"/>
<path d="M 88 272 L 86 274 L 86 275 L 88 277 L 89 276 L 89 273 " stroke="black" stroke-width="1" fill="none"/>
<path d="M 88 272 L 89 273 L 89 276 L 88 277 L 86 275 L 86 274 " stroke="black" stroke-width="1" fill="none"/>
<path d="M 83 268 L 83 269 L 88 269 L 92 273 L 92 276 L 89 279 L 86 279 L 84 277 L 84 273 L 86 271 L 85 271 L 84 272 L 84 277 L 86 279 L 90 279 L 92 277 L 92 272 L 90 270 L 89 270 L 88 269 L 84 269 " stroke="black" stroke-width="1" fill="none"/>
<path d="M 89 267 L 90 268 " stroke="black" stroke-width="1" fill="none"/>
<path d="M 88 263 L 87 264 L 88 265 L 89 264 " stroke="black" stroke-width="1" fill="none"/>
<path d="M 85 263 L 84 263 L 84 265 L 84 264 " stroke="black" stroke-width="1" fill="none"/>
<path d="M 133 260 L 133 267 L 134 267 L 135 268 L 135 265 L 136 264 L 137 264 L 138 265 L 138 267 L 140 267 L 140 260 L 138 260 L 136 262 L 135 261 L 135 260 " stroke="black" stroke-width="1" fill="none"/>
<path d="M 139 260 L 140 261 L 140 266 L 139 267 L 138 266 L 138 264 L 137 263 L 137 262 " stroke="black" stroke-width="1" fill="none"/>
<path d="M 134 260 L 135 261 L 135 262 L 136 262 L 137 263 L 136 264 L 135 264 L 135 266 L 134 267 L 133 266 L 133 261 " stroke="black" stroke-width="1" fill="none"/>
<path d="M 88 259 L 87 259 L 86 260 L 85 260 L 85 261 L 87 259 L 88 260 L 88 261 " stroke="black" stroke-width="1" fill="none"/>
<path d="M 85 256 L 85 258 L 85 257 L 86 256 L 87 257 L 87 256 " stroke="black" stroke-width="1" fill="none"/>
<path d="M 140 241 L 136 241 L 134 243 L 134 248 L 136 250 L 136 257 L 138 257 L 138 252 L 137 252 L 136 251 L 137 250 L 140 250 L 142 248 L 142 243 " stroke="black" stroke-width="1" fill="none"/>
<path d="M 137 252 L 138 253 L 138 256 L 137 257 L 136 256 L 136 253 " stroke="black" stroke-width="1" fill="none"/>
<path d="M 136 241 L 139 241 L 142 244 L 142 247 L 139 250 L 137 250 L 136 249 L 135 249 L 134 248 L 134 244 L 135 243 L 135 242 " stroke="black" stroke-width="1" fill="none"/>
<path d="M 138 243 L 136 245 L 136 246 L 138 248 L 139 247 L 139 244 " stroke="black" stroke-width="1" fill="none"/>
<path d="M 138 243 L 139 244 L 139 247 L 138 248 L 136 246 L 136 245 " stroke="black" stroke-width="1" fill="none"/>
<path d="M 35 241 L 33 243 L 33 248 L 35 250 L 39 250 L 41 248 L 41 243 L 39 241 " stroke="black" stroke-width="1" fill="none"/>
<path d="M 35 241 L 38 241 L 41 244 L 41 247 L 38 250 L 35 250 L 33 248 L 33 244 L 34 243 L 34 242 " stroke="black" stroke-width="1" fill="none"/>
<path d="M 37 243 L 35 245 L 35 246 L 37 248 L 38 247 L 38 244 " stroke="black" stroke-width="1" fill="none"/>
<path d="M 37 243 L 38 244 L 38 247 L 37 248 L 35 246 L 35 245 " stroke="black" stroke-width="1" fill="none"/>
<path d="M 28 240 L 28 243 L 30 243 L 30 240 " stroke="black" stroke-width="1" fill="none"/>
<path d="M 28 241 L 29 240 L 30 241 L 30 242 L 29 243 L 28 242 " stroke="black" stroke-width="1" fill="none"/>
<path d="M 17 233 L 17 240 L 18 240 L 19 241 L 19 238 L 20 237 L 21 237 L 22 238 L 22 240 L 24 240 L 24 233 L 22 233 L 20 235 L 19 234 L 19 232 L 18 233 " stroke="black" stroke-width="1" fill="none"/>
<path d="M 23 233 L 24 234 L 24 239 L 23 240 L 22 239 L 22 237 L 21 236 L 21 235 " stroke="black" stroke-width="1" fill="none"/>
<path d="M 18 233 L 19 234 L 19 235 L 20 235 L 21 236 L 20 237 L 19 237 L 19 239 L 18 240 L 17 239 L 17 234 " stroke="black" stroke-width="1" fill="none"/>
<path d="M 263 197 L 261 199 L 261 204 L 263 206 L 267 206 L 269 204 L 269 199 L 267 197 " stroke="black" stroke-width="1" fill="none"/>
<path d="M 263 197 L 266 197 L 269 200 L 269 203 L 266 206 L 263 206 L 261 204 L 261 200 L 262 199 L 262 198 " stroke="black" stroke-width="1" fill="none"/>
<path d="M 265 199 L 263 201 L 263 202 L 265 204 L 266 203 L 266 200 " stroke="black" stroke-width="1" fill="none"/>
<path d="M 265 199 L 266 200 L 266 203 L 265 204 L 263 202 L 263 201 " stroke="black" stroke-width="1" fill="none"/>
<path d="M 200 193 L 201 194 L 202 194 L 203 195 L 202 194 L 201 194 " stroke="black" stroke-width="1" fill="none"/>
<path d="M 195 190 L 196 191 L 197 191 L 198 192 L 197 191 L 196 191 " stroke="black" stroke-width="1" fill="none"/>
<path d="M 275 189 L 275 196 L 276 196 L 277 197 L 277 194 L 278 193 L 279 193 L 280 194 L 280 196 L 282 196 L 282 189 L 280 189 L 278 191 L 277 190 L 277 188 L 276 189 " stroke="black" stroke-width="1" fill="none"/>
<path d="M 281 189 L 282 190 L 282 195 L 281 196 L 280 195 L 280 193 L 279 192 L 279 191 " stroke="black" stroke-width="1" fill="none"/>
<path d="M 276 189 L 277 190 L 277 191 L 278 191 L 279 192 L 278 193 L 277 193 L 277 195 L 276 196 L 275 195 L 275 190 " stroke="black" stroke-width="1" fill="none"/>
<path d="M 194 187 L 195 188 L 196 188 L 197 189 L 196 188 L 195 188 " stroke="black" stroke-width="1" fill="none"/>
<path d="M 194 185 L 195 185 L 196 186 L 197 186 L 199 188 L 200 188 L 201 189 L 202 189 L 203 190 L 204 190 L 206 192 L 207 192 L 208 193 L 209 193 L 211 195 L 212 195 L 211 194 L 210 194 L 208 192 L 207 192 L 206 191 L 205 191 L 203 189 L 202 189 L 201 188 L 200 188 L 199 187 L 198 187 L 196 185 " stroke="black" stroke-width="1" fill="none"/>
<path d="M 35 186 L 35 190 L 61 201 L 58 202 L 61 204 L 61 229 L 42 238 L 44 243 L 62 232 L 83 245 L 87 254 L 89 246 L 114 231 L 124 236 L 122 239 L 114 234 L 121 239 L 129 241 L 127 237 L 113 230 L 113 204 L 131 194 L 129 189 L 112 200 L 95 191 L 112 201 L 128 189 L 131 193 L 113 203 L 94 193 L 111 204 L 111 229 L 88 244 L 63 229 L 63 204 L 81 192 L 63 203 L 63 230 L 85 244 L 111 230 L 113 204 L 113 231 L 86 249 L 62 232 L 45 243 L 42 239 L 61 230 L 61 202 L 81 190 L 61 201 L 38 185 " stroke="black" stroke-width="1" fill="none"/>
<path d="M 85 252 L 86 251 L 87 252 L 87 253 L 86 254 L 85 253 " stroke="black" stroke-width="1" fill="none"/>
<path d="M 85 250 L 86 249 L 87 250 L 86 251 " stroke="black" stroke-width="1" fill="none"/>
<path d="M 123 239 L 124 238 L 125 238 L 126 237 L 127 238 L 127 239 L 128 238 L 129 239 L 129 240 L 127 242 L 126 241 L 125 241 " stroke="black" stroke-width="1" fill="none"/>
<path d="M 123 237 L 124 236 L 125 236 L 126 237 L 125 238 L 124 238 " stroke="black" stroke-width="1" fill="none"/>
<path d="M 52 198 L 54 196 L 55 197 L 56 197 L 58 199 L 57 200 L 55 200 L 54 199 L 53 199 " stroke="black" stroke-width="1" fill="none"/>
<path d="M 43 192 L 44 191 L 46 191 L 47 192 L 48 192 L 51 195 L 52 195 L 53 196 L 53 197 L 52 198 L 51 197 L 50 197 L 47 194 L 46 195 L 45 194 L 44 194 L 43 193 " stroke="black" stroke-width="1" fill="none"/>
<path d="M 42 191 L 42 190 L 43 189 L 44 189 L 45 190 L 43 192 " stroke="black" stroke-width="1" fill="none"/>
<path d="M 37 185 L 38 186 L 39 186 L 41 188 L 42 188 L 43 189 L 42 190 L 42 191 L 41 192 L 40 191 L 38 191 L 37 190 L 36 190 L 35 189 L 35 187 " stroke="black" stroke-width="1" fill="none"/>
<path d="M 138 184 L 136 186 L 136 187 L 138 189 L 139 188 L 139 185 " stroke="black" stroke-width="1" fill="none"/>
<path d="M 138 184 L 139 185 L 139 188 L 138 189 L 136 187 L 136 186 " stroke="black" stroke-width="1" fill="none"/>
<path d="M 140 182 L 139 182 L 142 185 L 142 188 L 139 191 L 136 191 L 134 189 L 134 185 L 136 183 L 135 183 L 134 184 L 134 189 L 136 191 L 140 191 L 142 189 L 142 184 " stroke="black" stroke-width="1" fill="none"/>
<path d="M 86 182 L 84 184 L 84 189 L 86 191 L 90 191 L 92 189 L 92 184 L 90 182 " stroke="black" stroke-width="1" fill="none"/>
<path d="M 86 182 L 89 182 L 92 185 L 92 188 L 89 191 L 86 191 L 84 189 L 84 185 L 85 184 L 85 183 " stroke="black" stroke-width="1" fill="none"/>
<path d="M 88 184 L 86 186 L 86 187 L 88 189 L 89 188 L 89 185 " stroke="black" stroke-width="1" fill="none"/>
<path d="M 88 184 L 89 185 L 89 188 L 88 189 L 86 187 L 86 186 " stroke="black" stroke-width="1" fill="none"/>
<path d="M 233 162 L 233 184 L 235 184 L 235 162 " stroke="black" stroke-width="1" fill="none"/>
<path d="M 234 162 L 235 163 L 235 183 L 234 184 L 233 183 L 233 163 " stroke="black" stroke-width="1" fill="none"/>
<path d="M 186 157 " stroke="black" stroke-width="1" fill="none"/>
<path d="M 86 153 L 84 155 L 84 160 L 86 162 L 90 162 L 92 160 L 92 155 L 90 153 " stroke="black" stroke-width="1" fill="none"/>
<path d="M 86 153 L 89 153 L 92 156 L 92 159 L 89 162 L 86 162 L 84 160 L 84 156 L 85 155 L 85 154 " stroke="black" stroke-width="1" fill="none"/>
<path d="M 88 155 L 86 157 L 86 158 L 88 160 L 89 159 L 89 156 " stroke="black" stroke-width="1" fill="none"/>
<path d="M 88 155 L 89 156 L 89 159 L 88 160 L 86 158 L 86 157 " stroke="black" stroke-width="1" fill="none"/>
<path d="M 205 152 L 203 154 L 202 154 L 201 155 L 200 155 L 199 156 L 198 156 L 196 158 L 195 158 L 194 159 L 193 159 L 194 159 L 195 158 L 196 158 L 198 156 L 199 156 L 200 155 L 201 155 L 202 154 L 203 154 " stroke="black" stroke-width="1" fill="none"/>
<path d="M 203 151 L 202 152 L 201 152 L 200 153 L 199 153 L 198 154 L 197 154 L 195 156 L 194 156 L 193 157 L 192 157 L 191 158 L 190 158 L 189 159 L 189 186 L 191 188 L 192 188 L 193 189 L 189 185 L 189 160 L 192 157 L 193 157 L 194 156 L 195 156 L 197 154 L 198 154 L 199 153 L 200 153 L 201 152 L 202 152 " stroke="black" stroke-width="1" fill="none"/>
<path d="M 208 150 L 207 151 " stroke="black" stroke-width="1" fill="none"/>
<path d="M 206 149 L 205 150 " stroke="black" stroke-width="1" fill="none"/>
<path d="M 208 148 " stroke="black" stroke-width="1" fill="none"/>
<path d="M 106 148 L 105 149 L 104 149 L 103 150 L 104 149 L 105 149 " stroke="black" stroke-width="1" fill="none"/>
<path d="M 108 147 " stroke="black" stroke-width="1" fill="none"/>
<path d="M 104 147 " stroke="black" stroke-width="1" fill="none"/>
<path d="M 194 161 L 196 161 L 212 150 L 211 149 L 212 146 L 222 150 L 234 157 L 237 160 L 237 185 L 233 189 L 214 200 L 210 199 L 209 198 L 211 197 L 199 190 L 208 195 L 210 197 L 209 198 L 205 196 L 211 200 L 217 199 L 237 186 L 239 186 L 251 194 L 258 197 L 245 190 L 239 185 L 239 160 L 242 157 L 258 149 L 239 159 L 237 159 L 217 147 L 211 146 L 210 147 L 211 150 L 208 153 " stroke="black" stroke-width="1" fill="none"/>
<path d="M 238 159 L 239 160 L 239 185 L 238 186 L 237 185 L 237 160 " stroke="black" stroke-width="1" fill="none"/>
<path d="M 263 132 L 263 139 L 261 141 L 261 146 L 263 148 L 267 148 L 269 146 L 269 141 L 267 139 L 264 139 L 263 138 L 264 137 L 265 137 L 265 132 " stroke="black" stroke-width="1" fill="none"/>
<path d="M 264 139 L 266 139 L 269 142 L 269 145 L 266 148 L 263 148 L 261 146 L 261 142 " stroke="black" stroke-width="1" fill="none"/>
<path d="M 265 141 L 263 143 L 263 144 L 265 146 L 266 145 L 266 142 " stroke="black" stroke-width="1" fill="none"/>
<path d="M 265 141 L 266 142 L 266 145 L 265 146 L 263 144 L 263 143 " stroke="black" stroke-width="1" fill="none"/>
<path d="M 263 136 L 264 135 L 265 136 L 264 137 " stroke="black" stroke-width="1" fill="none"/>
<path d="M 263 133 L 264 132 L 265 133 L 265 134 L 264 135 L 263 134 " stroke="black" stroke-width="1" fill="none"/>
<path d="M 260 122 L 260 129 L 262 129 L 262 127 L 263 126 L 264 126 L 265 127 L 265 129 L 267 129 L 267 122 L 265 122 L 263 124 L 262 123 L 262 121 L 261 122 " stroke="black" stroke-width="1" fill="none"/>
<path d="M 266 122 L 267 123 L 267 128 L 266 129 L 265 128 L 265 126 L 264 125 L 264 124 " stroke="black" stroke-width="1" fill="none"/>
<path d="M 261 122 L 262 123 L 262 124 L 263 124 L 264 125 L 263 126 L 262 126 L 262 128 L 261 129 L 260 128 L 260 123 " stroke="black" stroke-width="1" fill="none"/>
<path d="M 60 110 L 58 112 L 58 117 L 60 119 L 64 119 L 66 117 L 66 112 L 64 110 " stroke="black" stroke-width="1" fill="none"/>
<path d="M 60 110 L 63 110 L 66 113 L 66 116 L 63 119 L 60 119 L 58 117 L 58 113 L 59 112 L 59 111 " stroke="black" stroke-width="1" fill="none"/>
<path d="M 62 112 L 60 114 L 60 115 L 62 117 L 63 116 L 63 113 " stroke="black" stroke-width="1" fill="none"/>
<path d="M 62 112 L 63 113 L 63 116 L 62 117 L 60 115 L 60 114 " stroke="black" stroke-width="1" fill="none"/>
<path d="M 104 109 " stroke="black" stroke-width="1" fill="none"/>
<path d="M 51 109 L 52 110 L 51 111 L 52 111 L 53 112 L 55 112 L 55 110 L 54 109 " stroke="black" stroke-width="1" fill="none"/>
<path d="M 52 110 L 53 109 L 55 111 L 54 112 L 53 112 L 52 111 " stroke="black" stroke-width="1" fill="none"/>
<path d="M 106 108 " stroke="black" stroke-width="1" fill="none"/>
<path d="M 101 107 " stroke="black" stroke-width="1" fill="none"/>
<path d="M 103 106 L 104 107 " stroke="black" stroke-width="1" fill="none"/>
<path d="M 99 106 " stroke="black" stroke-width="1" fill="none"/>
<path d="M 101 105 " stroke="black" stroke-width="1" fill="none"/>
<path d="M 97 105 " stroke="black" stroke-width="1" fill="none"/>
<path d="M 99 104 " stroke="black" stroke-width="1" fill="none"/>
<path d="M 97 103 " stroke="black" stroke-width="1" fill="none"/>
<path d="M 94 103 L 95 104 " stroke="black" stroke-width="1" fill="none"/>
<path d="M 92 102 " stroke="black" stroke-width="1" fill="none"/>
<path d="M 94 101 " stroke="black" stroke-width="1" fill="none"/>
<path d="M 69 111 L 86 101 L 111 117 L 111 140 L 94 150 L 108 142 L 111 143 L 106 146 L 111 145 L 112 116 L 113 143 L 137 157 L 162 143 L 164 129 L 164 144 L 138 159 L 138 180 L 133 178 L 136 159 L 114 146 L 96 157 L 102 148 L 94 152 L 97 157 L 114 146 L 135 158 L 134 180 L 139 180 L 138 160 L 164 145 L 187 160 L 187 188 L 214 203 L 238 188 L 257 199 L 238 188 L 210 202 L 187 187 L 187 159 L 180 156 L 184 153 L 188 157 L 213 143 L 238 157 L 257 147 L 238 157 L 212 143 L 188 156 L 164 145 L 162 120 L 168 117 L 168 112 L 162 110 L 162 142 L 137 157 L 113 142 L 113 117 L 137 101 L 157 112 L 137 101 L 113 116 L 86 101 " stroke="black" stroke-width="1" fill="none"/>
<path d="M 182 152 L 183 153 L 180 156 L 178 154 L 180 152 " stroke="black" stroke-width="1" fill="none"/>
<path d="M 169 147 L 170 146 L 172 148 L 173 148 L 176 151 L 177 150 L 178 151 L 179 151 L 180 152 L 178 154 L 177 154 L 176 153 L 175 153 L 172 150 L 171 150 L 169 148 " stroke="black" stroke-width="1" fill="none"/>
<path d="M 163 121 L 164 122 L 164 127 L 163 128 L 162 127 L 162 122 " stroke="black" stroke-width="1" fill="none"/>
<path d="M 162 110 L 165 110 L 168 113 L 168 116 L 165 119 L 163 119 L 162 118 L 161 118 L 160 117 L 160 113 L 161 112 L 161 111 " stroke="black" stroke-width="1" fill="none"/>
<path d="M 164 112 L 162 114 L 162 115 L 164 117 L 165 116 L 165 113 " stroke="black" stroke-width="1" fill="none"/>
<path d="M 164 112 L 165 113 L 165 116 L 164 117 L 162 115 L 162 114 " stroke="black" stroke-width="1" fill="none"/>
<path d="M 41 102 L 41 109 L 42 109 L 43 110 L 43 107 L 44 106 L 45 106 L 46 107 L 46 109 L 48 109 L 48 102 L 46 102 L 44 104 L 43 103 L 43 101 L 42 102 " stroke="black" stroke-width="1" fill="none"/>
<path d="M 47 102 L 48 103 L 48 108 L 47 109 L 46 108 L 46 106 L 45 105 L 45 104 " stroke="black" stroke-width="1" fill="none"/>
<path d="M 42 102 L 43 103 L 43 104 L 44 104 L 45 105 L 44 106 L 43 106 L 43 108 L 42 109 L 41 108 L 41 103 " stroke="black" stroke-width="1" fill="none"/>
<path d="M 92 100 " stroke="black" stroke-width="1" fill="none"/>
<path d="M 92 98 L 93 98 L 94 99 L 95 99 L 97 101 L 98 101 L 99 102 L 100 102 L 101 103 L 102 103 L 103 104 L 104 104 L 106 106 L 107 106 L 108 107 L 109 107 L 110 108 L 111 108 L 110 107 L 109 107 L 108 106 L 107 106 L 106 105 L 105 105 L 103 103 L 102 103 L 101 102 L 100 102 L 99 101 L 98 101 L 97 100 L 96 100 L 94 98 " stroke="black" stroke-width="1" fill="none"/>
<path d="M 135 73 L 133 73 L 133 88 L 132 89 L 132 96 L 133 95 L 134 96 L 134 91 L 135 90 " stroke="black" stroke-width="1" fill="none"/>
<path d="M 134 73 L 135 74 L 135 90 L 134 91 L 134 94 L 133 95 L 132 94 L 132 89 L 133 88 L 133 74 " stroke="black" stroke-width="1" fill="none"/>
<path d="M 92 69 L 91 70 " stroke="black" stroke-width="1" fill="none"/>
<path d="M 94 68 " stroke="black" stroke-width="1" fill="none"/>
<path d="M 101 64 " stroke="black" stroke-width="1" fill="none"/>
<path d="M 104 62 L 103 63 " stroke="black" stroke-width="1" fill="none"/>
<path d="M 101 62 " stroke="black" stroke-width="1" fill="none"/>
<path d="M 111 61 L 110 61 L 109 62 L 108 62 L 107 63 L 106 63 L 104 65 L 103 65 L 102 66 L 101 66 L 100 67 L 99 67 L 97 69 L 96 69 L 94 71 L 93 71 L 92 72 L 90 72 L 93 72 L 95 70 L 96 70 L 98 68 L 99 68 L 100 67 L 101 67 L 102 66 L 103 66 L 105 64 L 106 64 L 107 63 L 108 63 L 109 62 L 110 62 " stroke="black" stroke-width="1" fill="none"/>
<path d="M 106 61 " stroke="black" stroke-width="1" fill="none"/>
<path d="M 104 60 " stroke="black" stroke-width="1" fill="none"/>
<path d="M 111 20 L 109 22 L 111 29 L 111 52 L 84 68 L 85 98 L 68 109 L 85 99 L 90 101 L 87 98 L 86 71 L 95 65 L 96 67 L 99 63 L 86 70 L 86 99 L 84 95 L 84 69 L 113 53 L 139 70 L 139 95 L 137 99 L 137 71 L 112 55 L 106 59 L 110 59 L 108 58 L 112 55 L 137 72 L 136 98 L 112 114 L 108 111 L 110 110 L 106 110 L 112 114 L 136 99 L 157 110 L 138 98 L 139 69 L 113 52 L 113 31 L 111 30 L 117 27 L 117 22 " stroke="black" stroke-width="1" fill="none"/>
<path d="M 112 39 L 113 40 L 113 52 L 112 53 L 111 52 L 111 40 " stroke="black" stroke-width="1" fill="none"/>
<path d="M 112 31 L 113 32 L 113 38 L 112 39 L 111 38 L 111 32 " stroke="black" stroke-width="1" fill="none"/>
<path d="M 111 20 L 114 20 L 117 23 L 117 26 L 114 29 L 112 29 L 111 28 L 110 28 L 109 27 L 109 23 L 110 22 L 110 21 " stroke="black" stroke-width="1" fill="none"/>
<path d="M 113 22 L 111 24 L 111 25 L 113 27 L 114 26 L 114 23 " stroke="black" stroke-width="1" fill="none"/>
<path d="M 113 22 L 114 23 L 114 26 L 113 27 L 111 25 L 111 24 " stroke="black" stroke-width="1" fill="none"/>
<path d="M 104 19 L 103 20 L 103 22 L 106 22 L 106 20 L 105 20 " stroke="black" stroke-width="1" fill="none"/>
<path d="M 103 20 L 104 19 L 106 21 L 105 22 L 104 22 L 103 21 " stroke="black" stroke-width="1" fill="none"/>
<path d="M 92 12 L 92 19 L 93 19 L 94 20 L 94 17 L 95 16 L 96 16 L 97 17 L 97 19 L 99 19 L 99 12 L 97 12 L 95 14 L 94 13 L 94 11 L 93 12 " stroke="black" stroke-width="1" fill="none"/>
<path d="M 98 12 L 99 13 L 99 18 L 98 19 L 97 18 L 97 16 L 96 15 L 96 14 " stroke="black" stroke-width="1" fill="none"/>
<path d="M 93 12 L 94 13 L 94 14 L 95 14 L 96 15 L 95 16 L 94 16 L 94 18 L 93 19 L 92 18 L 92 13 " stroke="black" stroke-width="1" fill="none"/>
</svg>