<svg xmlns="http://www.w3.org/2000/svg" width="300" height="300" viewBox="0 0 300 300">
<path d="M 101 209 L 101 215 " stroke="black" stroke-width="1" fill="none"/>
<path d="M 88 205 L 88 207 L 87 208 L 88 209 L 88 211 L 89 212 L 92 212 L 94 210 L 95 211 L 95 215 L 97 215 L 97 214 L 98 213 L 99 214 L 99 215 L 99 213 L 98 213 L 97 212 L 98 211 L 99 211 L 99 209 L 99 210 L 98 211 L 97 210 L 97 209 L 96 208 L 95 208 L 94 207 L 94 205 L 92 205 L 91 206 L 90 205 " stroke="black" stroke-width="1" fill="none"/>
<path d="M 95 208 L 97 210 L 97 214 L 96 215 L 95 214 L 95 211 L 94 210 L 94 209 " stroke="black" stroke-width="1" fill="none"/>
<path d="M 91 206 L 92 207 L 92 209 L 91 210 L 90 209 L 90 207 " stroke="black" stroke-width="1" fill="none"/>
<path d="M 87 208 L 88 207 L 88 206 L 89 205 L 90 205 L 91 206 L 90 207 L 90 209 L 91 210 L 92 209 L 92 207 L 91 206 L 92 205 L 93 205 L 94 206 L 94 207 L 95 208 L 94 209 L 94 210 L 92 212 L 90 212 L 88 210 L 88 209 " stroke="black" stroke-width="1" fill="none"/>
<path d="M 179 195 L 179 198 L 184 198 L 184 195 L 183 195 L 184 196 L 184 197 L 183 198 L 180 198 L 179 197 L 179 196 L 180 195 " stroke="black" stroke-width="1" fill="none"/>
<path d="M 32 194 " stroke="black" stroke-width="1" fill="none"/>
<path d="M 29 193 L 29 194 L 30 195 L 30 194 " stroke="black" stroke-width="1" fill="none"/>
<path d="M 180 191 L 180 193 L 180 192 L 181 191 L 183 193 L 183 192 L 182 192 L 181 191 " stroke="black" stroke-width="1" fill="none"/>
<path d="M 67 191 L 66 192 L 66 194 L 65 195 L 66 196 L 66 198 L 67 199 L 71 199 L 72 198 L 72 196 L 73 195 L 72 194 L 72 192 L 71 191 " stroke="black" stroke-width="1" fill="none"/>
<path d="M 68 191 L 70 191 L 72 193 L 72 194 L 73 195 L 72 196 L 72 197 L 70 199 L 68 199 L 66 197 L 66 196 L 65 195 L 66 194 L 66 193 " stroke="black" stroke-width="1" fill="none"/>
<path d="M 69 193 L 68 194 L 68 196 L 69 197 L 70 196 L 70 194 " stroke="black" stroke-width="1" fill="none"/>
<path d="M 69 193 L 70 194 L 70 196 L 69 197 L 68 196 L 68 194 " stroke="black" stroke-width="1" fill="none"/>
<path d="M 28 191 " stroke="black" stroke-width="1" fill="none"/>
<path d="M 183 188 L 183 190 " stroke="black" stroke-width="1" fill="none"/>
<path d="M 181 188 L 181 189 " stroke="black" stroke-width="1" fill="none"/>
<path d="M 124 188 L 124 194 " stroke="black" stroke-width="1" fill="none"/>
<path d="M 122 188 L 122 189 L 121 190 L 120 189 L 120 188 L 118 188 L 118 192 L 117 193 L 115 191 L 112 191 L 111 192 L 111 194 L 110 195 L 111 196 L 111 198 L 112 199 L 116 199 L 117 198 L 117 196 L 118 195 L 119 195 L 120 194 L 120 193 L 121 192 L 122 193 L 122 194 L 122 192 L 121 192 L 120 191 L 121 190 L 122 190 " stroke="black" stroke-width="1" fill="none"/>
<path d="M 113 191 L 115 191 L 117 193 L 117 194 L 118 195 L 117 196 L 117 197 L 115 199 L 113 199 L 111 197 L 111 196 L 110 195 L 111 194 L 111 193 " stroke="black" stroke-width="1" fill="none"/>
<path d="M 114 193 L 113 194 L 113 196 L 114 197 L 115 196 L 115 194 " stroke="black" stroke-width="1" fill="none"/>
<path d="M 114 193 L 115 194 L 115 196 L 114 197 L 113 196 L 113 194 " stroke="black" stroke-width="1" fill="none"/>
<path d="M 119 188 L 120 189 L 120 193 L 118 195 L 117 194 L 117 193 L 118 192 L 118 189 " stroke="black" stroke-width="1" fill="none"/>
<path d="M 13 188 L 13 194 L 15 194 L 15 193 L 16 192 L 17 193 L 17 195 L 19 195 L 20 196 L 20 198 L 21 199 L 25 199 L 26 198 L 26 196 L 27 195 L 26 194 L 26 192 L 25 191 L 21 191 L 20 192 L 19 191 L 19 188 L 19 191 L 20 192 L 20 194 L 19 195 L 18 195 L 17 194 L 17 192 L 16 192 L 15 191 L 16 190 L 17 190 L 17 188 L 17 189 L 16 190 L 15 189 L 15 188 " stroke="black" stroke-width="1" fill="none"/>
<path d="M 22 191 L 24 191 L 26 193 L 26 194 L 27 195 L 26 196 L 26 197 L 24 199 L 22 199 L 20 197 L 20 196 L 19 195 L 20 194 L 20 193 " stroke="black" stroke-width="1" fill="none"/>
<path d="M 23 193 L 22 194 L 22 196 L 23 197 L 24 196 L 24 194 " stroke="black" stroke-width="1" fill="none"/>
<path d="M 23 193 L 24 194 L 24 196 L 23 197 L 22 196 L 22 194 " stroke="black" stroke-width="1" fill="none"/>
<path d="M 14 188 L 15 189 L 15 193 L 14 194 L 13 193 L 13 189 " stroke="black" stroke-width="1" fill="none"/>
<path d="M 23 167 L 22 168 L 22 170 L 23 171 L 24 170 L 24 168 " stroke="black" stroke-width="1" fill="none"/>
<path d="M 23 167 L 24 168 L 24 170 L 23 171 L 22 170 L 22 168 " stroke="black" stroke-width="1" fill="none"/>
<path d="M 207 165 L 207 171 " stroke="black" stroke-width="1" fill="none"/>
<path d="M 201 165 L 201 171 L 203 171 L 203 170 L 204 169 L 205 170 L 205 171 L 205 169 L 204 169 L 203 168 L 204 167 L 205 167 L 205 165 L 205 166 L 204 167 L 203 166 L 203 165 " stroke="black" stroke-width="1" fill="none"/>
<path d="M 202 165 L 203 166 L 203 170 L 202 171 L 201 170 L 201 166 " stroke="black" stroke-width="1" fill="none"/>
<path d="M 89 165 L 88 166 L 88 168 L 87 169 L 88 170 L 88 172 L 89 173 L 93 173 L 94 172 L 94 170 L 95 169 L 94 168 L 94 166 L 93 165 " stroke="black" stroke-width="1" fill="none"/>
<path d="M 90 165 L 92 165 L 94 167 L 94 168 L 95 169 L 94 170 L 94 171 L 92 173 L 90 173 L 88 171 L 88 170 L 87 169 L 88 168 L 88 167 " stroke="black" stroke-width="1" fill="none"/>
<path d="M 91 167 L 90 168 L 90 170 L 91 171 L 92 170 L 92 168 " stroke="black" stroke-width="1" fill="none"/>
<path d="M 91 167 L 92 168 L 92 170 L 91 171 L 90 170 L 90 168 " stroke="black" stroke-width="1" fill="none"/>
<path d="M 196 164 L 195 165 " stroke="black" stroke-width="1" fill="none"/>
<path d="M 44 163 L 43 170 L 35 174 L 32 171 L 30 171 L 28 174 L 28 176 L 31 176 L 33 178 L 33 188 L 28 189 L 31 192 L 34 191 L 44 197 L 43 200 L 45 199 L 47 200 L 46 202 L 43 202 L 48 203 L 44 204 L 43 207 L 40 208 L 39 211 L 38 209 L 36 209 L 36 215 L 38 215 L 39 213 L 40 215 L 40 213 L 38 212 L 40 211 L 41 208 L 43 209 L 42 215 L 43 211 L 44 212 L 49 211 L 50 208 L 47 202 L 47 199 L 44 198 L 57 191 L 59 194 L 63 192 L 63 190 L 58 187 L 58 180 L 61 175 L 59 171 L 55 171 L 53 175 L 56 180 L 56 188 L 46 195 L 35 188 L 35 177 L 46 171 L 50 173 L 46 171 L 35 177 L 35 189 L 46 195 L 56 189 L 57 190 L 56 192 L 45 197 L 34 191 L 32 192 L 30 191 L 31 189 L 33 189 L 33 177 L 28 175 L 31 171 L 34 175 L 44 170 L 45 168 L 51 171 L 46 168 L 46 164 L 45 166 " stroke="black" stroke-width="1" fill="none"/>
<path d="M 37 209 L 38 210 L 38 214 L 37 215 L 36 214 L 36 210 " stroke="black" stroke-width="1" fill="none"/>
<path d="M 45 204 L 47 204 L 49 206 L 49 207 L 50 208 L 49 209 L 49 210 L 47 212 L 45 212 L 43 210 L 43 209 L 42 208 L 43 207 L 43 206 " stroke="black" stroke-width="1" fill="none"/>
<path d="M 46 206 L 45 207 L 45 209 L 46 210 L 47 209 L 47 207 " stroke="black" stroke-width="1" fill="none"/>
<path d="M 46 206 L 47 207 L 47 209 L 46 210 L 45 209 L 45 207 " stroke="black" stroke-width="1" fill="none"/>
<path d="M 57 181 L 58 182 L 58 188 L 59 189 L 61 189 L 63 191 L 60 194 L 58 192 L 58 191 L 56 189 L 56 182 " stroke="black" stroke-width="1" fill="none"/>
<path d="M 56 180 L 57 179 L 58 180 L 57 181 " stroke="black" stroke-width="1" fill="none"/>
<path d="M 56 171 L 58 171 L 60 173 L 60 174 L 61 175 L 60 176 L 60 177 L 58 179 L 56 179 L 54 177 L 54 176 L 53 175 L 54 174 L 54 173 " stroke="black" stroke-width="1" fill="none"/>
<path d="M 57 173 L 56 174 L 56 176 L 57 177 L 58 176 L 58 174 " stroke="black" stroke-width="1" fill="none"/>
<path d="M 57 173 L 58 174 L 58 176 L 57 177 L 56 176 L 56 174 " stroke="black" stroke-width="1" fill="none"/>
<path d="M 44 167 L 45 166 L 46 167 L 45 168 " stroke="black" stroke-width="1" fill="none"/>
<path d="M 44 160 L 44 161 L 45 160 L 46 160 L 47 161 L 46 162 L 47 162 L 47 160 " stroke="black" stroke-width="1" fill="none"/>
<path d="M 176 158 L 174 160 L 173 160 L 171 162 L 170 162 L 169 163 L 169 179 L 170 180 L 171 180 L 173 182 L 174 182 L 176 184 L 177 184 L 178 185 L 181 185 L 179 185 L 178 184 L 177 184 L 176 183 L 175 183 L 173 181 L 172 181 L 169 178 L 169 164 L 172 161 L 173 161 L 175 159 L 176 159 L 177 158 L 178 158 " stroke="black" stroke-width="1" fill="none"/>
<path d="M 20 158 L 20 168 L 19 169 L 20 170 L 20 172 L 21 173 L 25 173 L 26 172 L 26 170 L 27 169 L 26 168 L 26 166 L 25 165 L 26 164 L 26 158 L 26 164 L 25 165 L 25 166 L 26 167 L 26 168 L 27 169 L 26 170 L 26 171 L 24 173 L 22 173 L 20 171 L 20 170 L 19 169 L 20 168 L 20 167 L 22 165 L 23 165 L 22 164 L 22 163 L 23 162 L 24 163 L 24 162 L 23 162 L 22 161 L 23 160 L 24 160 L 24 158 L 24 159 L 23 160 L 22 159 L 22 158 " stroke="black" stroke-width="1" fill="none"/>
<path d="M 21 158 L 22 159 L 22 165 L 21 166 L 20 165 L 20 159 " stroke="black" stroke-width="1" fill="none"/>
<path d="M 43 155 L 43 158 L 48 158 L 48 155 " stroke="black" stroke-width="1" fill="none"/>
<path d="M 43 156 L 44 155 L 47 155 L 48 156 L 48 157 L 47 158 L 44 158 L 43 157 " stroke="black" stroke-width="1" fill="none"/>
<path d="M 158 152 L 157 153 L 157 155 L 156 156 L 157 157 L 157 159 L 158 160 L 162 160 L 163 159 L 163 157 L 164 156 L 163 155 L 163 153 L 162 152 " stroke="black" stroke-width="1" fill="none"/>
<path d="M 159 152 L 161 152 L 163 154 L 163 155 L 164 156 L 163 157 L 163 158 L 161 160 L 159 160 L 157 158 L 157 157 L 156 156 L 157 155 L 157 154 " stroke="black" stroke-width="1" fill="none"/>
<path d="M 160 154 L 159 155 L 159 157 L 160 158 L 161 157 L 161 155 " stroke="black" stroke-width="1" fill="none"/>
<path d="M 160 154 L 161 155 L 161 157 L 160 158 L 159 157 L 159 155 " stroke="black" stroke-width="1" fill="none"/>
<path d="M 135 152 L 134 153 L 134 155 L 133 156 L 134 157 L 134 159 L 135 160 L 139 160 L 140 159 L 140 157 L 141 156 L 140 155 L 140 153 L 139 152 " stroke="black" stroke-width="1" fill="none"/>
<path d="M 136 152 L 138 152 L 140 154 L 140 155 L 141 156 L 140 157 L 140 158 L 138 160 L 136 160 L 134 158 L 134 157 L 133 156 L 134 155 L 134 154 " stroke="black" stroke-width="1" fill="none"/>
<path d="M 137 154 L 136 155 L 136 157 L 137 158 L 138 157 L 138 155 " stroke="black" stroke-width="1" fill="none"/>
<path d="M 137 154 L 138 155 L 138 157 L 137 158 L 136 157 L 136 155 " stroke="black" stroke-width="1" fill="none"/>
<path d="M 131 154 L 129 154 L 128 153 L 127 153 L 126 152 L 123 152 L 122 153 L 120 151 L 119 152 L 117 152 L 116 153 L 111 153 L 111 155 L 113 157 L 113 164 L 111 166 L 111 168 L 110 169 L 111 170 L 111 172 L 112 173 L 116 173 L 117 172 L 117 170 L 118 169 L 117 168 L 117 166 L 115 164 L 115 159 L 117 157 L 118 157 L 122 153 L 123 153 L 124 152 L 126 152 L 128 154 " stroke="black" stroke-width="1" fill="none"/>
<path d="M 113 165 L 115 165 L 117 167 L 117 168 L 118 169 L 117 170 L 117 171 L 115 173 L 113 173 L 111 171 L 111 170 L 110 169 L 111 168 L 111 167 " stroke="black" stroke-width="1" fill="none"/>
<path d="M 114 167 L 113 168 L 113 170 L 114 171 L 115 170 L 115 168 " stroke="black" stroke-width="1" fill="none"/>
<path d="M 114 167 L 115 168 L 115 170 L 114 171 L 113 170 L 113 168 " stroke="black" stroke-width="1" fill="none"/>
<path d="M 113 164 L 114 163 L 115 164 L 114 165 " stroke="black" stroke-width="1" fill="none"/>
<path d="M 120 151 L 121 152 L 121 153 L 117 157 L 116 157 L 115 158 L 115 162 L 114 163 L 113 162 L 113 157 L 112 156 L 112 155 L 111 154 L 112 153 L 113 153 L 114 154 L 115 153 L 116 153 L 117 152 L 118 153 " stroke="black" stroke-width="1" fill="none"/>
<path d="M 235 150 L 235 151 " stroke="black" stroke-width="1" fill="none"/>
<path d="M 79 149 L 79 155 " stroke="black" stroke-width="1" fill="none"/>
<path d="M 73 149 L 72 154 L 70 152 L 67 152 L 65 156 L 68 161 L 67 173 L 73 174 L 79 178 L 79 187 L 74 188 L 74 191 L 76 193 L 78 193 L 80 191 L 89 197 L 88 202 L 93 202 L 92 198 L 93 196 L 95 196 L 102 192 L 105 193 L 107 191 L 107 188 L 105 189 L 104 188 L 104 178 L 106 176 L 108 176 L 108 174 L 106 171 L 104 171 L 101 174 L 97 173 L 98 174 L 97 175 L 102 177 L 102 188 L 91 195 L 81 188 L 81 178 L 85 175 L 81 177 L 81 189 L 91 195 L 89 197 L 86 194 L 80 191 L 78 191 L 77 193 L 74 189 L 79 188 L 79 177 L 67 172 L 68 163 L 69 162 L 70 163 L 70 168 L 77 174 L 80 175 L 84 173 L 82 173 L 80 175 L 70 167 L 70 161 L 72 159 L 72 157 L 76 153 L 77 155 L 77 153 L 75 152 L 77 151 L 77 149 L 76 151 L 75 149 " stroke="black" stroke-width="1" fill="none"/>
<path d="M 103 177 L 104 178 L 104 189 L 105 189 L 106 188 L 107 189 L 107 190 L 104 193 L 103 192 L 101 192 L 100 193 L 99 193 L 98 194 L 97 194 L 96 195 L 95 195 L 94 196 L 93 196 L 92 197 L 92 198 L 93 199 L 93 201 L 92 202 L 89 202 L 88 201 L 88 200 L 89 199 L 89 198 L 90 197 L 90 196 L 92 194 L 93 194 L 94 193 L 95 193 L 96 192 L 97 192 L 98 191 L 99 191 L 100 190 L 102 190 L 101 189 L 102 188 L 102 178 " stroke="black" stroke-width="1" fill="none"/>
<path d="M 108 175 L 107 176 L 106 176 L 105 177 L 103 177 L 102 176 L 99 176 L 98 175 L 98 174 L 99 173 L 100 173 L 101 174 L 102 174 L 105 171 L 107 173 L 107 174 " stroke="black" stroke-width="1" fill="none"/>
<path d="M 68 161 L 69 160 L 70 161 L 69 162 " stroke="black" stroke-width="1" fill="none"/>
<path d="M 68 152 L 70 152 L 72 154 L 72 155 L 73 156 L 72 157 L 72 158 L 70 160 L 68 160 L 66 158 L 66 157 L 65 156 L 66 155 L 66 154 " stroke="black" stroke-width="1" fill="none"/>
<path d="M 69 154 L 68 155 L 68 157 L 69 158 L 70 157 L 70 155 " stroke="black" stroke-width="1" fill="none"/>
<path d="M 69 154 L 70 155 L 70 157 L 69 158 L 68 157 L 68 155 " stroke="black" stroke-width="1" fill="none"/>
<path d="M 74 149 L 75 150 L 75 154 L 73 156 L 72 155 L 72 154 L 73 153 L 73 150 " stroke="black" stroke-width="1" fill="none"/>
<path d="M 236 145 L 235 145 L 235 148 L 235 146 " stroke="black" stroke-width="1" fill="none"/>
<path d="M 275 140 L 274 141 L 274 143 L 273 144 L 274 145 L 274 147 L 273 148 L 273 155 L 275 155 L 275 154 L 276 153 L 277 154 L 277 155 L 277 153 L 276 153 L 275 152 L 276 151 L 277 151 L 277 150 L 276 151 L 273 148 L 274 147 L 275 147 L 276 148 L 278 148 L 279 149 L 279 155 L 279 148 L 280 147 L 280 145 L 281 144 L 280 143 L 280 141 L 279 140 " stroke="black" stroke-width="1" fill="none"/>
<path d="M 274 149 L 275 150 L 275 154 L 274 155 L 273 154 L 273 150 " stroke="black" stroke-width="1" fill="none"/>
<path d="M 276 140 L 278 140 L 280 142 L 280 143 L 281 144 L 280 145 L 280 146 L 278 148 L 276 148 L 274 146 L 274 145 L 273 144 L 274 143 L 274 142 " stroke="black" stroke-width="1" fill="none"/>
<path d="M 277 142 L 276 143 L 276 145 L 277 146 L 278 145 L 278 143 " stroke="black" stroke-width="1" fill="none"/>
<path d="M 277 142 L 278 143 L 278 145 L 277 146 L 276 145 L 276 143 " stroke="black" stroke-width="1" fill="none"/>
<path d="M 204 135 L 203 135 L 201 137 L 202 138 L 202 136 L 203 135 L 204 136 L 204 137 " stroke="black" stroke-width="1" fill="none"/>
<path d="M 199 133 L 200 134 L 201 134 L 200 133 " stroke="black" stroke-width="1" fill="none"/>
<path d="M 199 131 L 202 131 L 203 132 L 203 133 L 203 131 " stroke="black" stroke-width="1" fill="none"/>
<path d="M 119 134 L 119 136 L 122 137 L 124 139 L 124 149 L 122 150 L 126 149 L 130 152 L 131 152 L 126 148 L 126 139 L 128 137 L 136 133 L 138 133 L 142 136 L 146 137 L 147 138 L 147 149 L 143 152 L 144 154 L 145 154 L 147 152 L 148 152 L 149 154 L 151 154 L 153 152 L 154 152 L 154 149 L 150 149 L 149 148 L 149 138 L 150 137 L 154 136 L 154 134 L 152 132 L 150 132 L 147 135 L 146 135 L 144 133 L 139 131 L 137 129 L 137 128 L 138 131 L 140 131 L 147 136 L 145 137 L 138 133 L 135 133 L 126 138 L 124 138 L 123 137 L 121 137 L 119 135 L 122 132 L 125 136 L 135 131 L 135 128 L 135 130 L 134 131 L 126 135 L 125 135 L 123 133 L 123 132 L 121 132 " stroke="black" stroke-width="1" fill="none"/>
<path d="M 125 138 L 126 139 L 126 148 L 125 149 L 124 148 L 124 139 " stroke="black" stroke-width="1" fill="none"/>
<path d="M 151 132 L 154 135 L 152 137 L 149 137 L 149 149 L 153 149 L 154 150 L 154 151 L 153 152 L 152 152 L 150 154 L 149 153 L 149 152 L 147 152 L 145 154 L 144 153 L 144 152 L 147 149 L 147 136 " stroke="black" stroke-width="1" fill="none"/>
<path d="M 158 126 L 157 127 L 157 129 L 156 130 L 157 131 L 157 133 L 158 134 L 162 134 L 163 133 L 163 131 L 164 130 L 163 129 L 163 127 L 162 126 " stroke="black" stroke-width="1" fill="none"/>
<path d="M 159 126 L 161 126 L 163 128 L 163 129 L 164 130 L 163 131 L 163 132 L 161 134 L 159 134 L 157 132 L 157 131 L 156 130 L 157 129 L 157 128 " stroke="black" stroke-width="1" fill="none"/>
<path d="M 160 128 L 159 129 L 159 131 L 160 132 L 161 131 L 161 129 " stroke="black" stroke-width="1" fill="none"/>
<path d="M 160 128 L 161 129 L 161 131 L 160 132 L 159 131 L 159 129 " stroke="black" stroke-width="1" fill="none"/>
<path d="M 112 126 L 111 127 L 111 129 L 110 130 L 111 131 L 111 133 L 112 134 L 116 134 L 117 133 L 117 131 L 118 130 L 117 129 L 117 127 L 116 126 " stroke="black" stroke-width="1" fill="none"/>
<path d="M 113 126 L 115 126 L 117 128 L 117 129 L 118 130 L 117 131 L 117 132 L 115 134 L 113 134 L 111 132 L 111 131 L 110 130 L 111 129 L 111 128 " stroke="black" stroke-width="1" fill="none"/>
<path d="M 114 128 L 113 129 L 113 131 L 114 132 L 115 131 L 115 129 " stroke="black" stroke-width="1" fill="none"/>
<path d="M 114 128 L 115 129 L 115 131 L 114 132 L 113 131 L 113 129 " stroke="black" stroke-width="1" fill="none"/>
<path d="M 135 123 L 135 126 L 135 124 L 136 123 L 137 123 L 138 124 L 138 126 L 138 123 " stroke="black" stroke-width="1" fill="none"/>
<path d="M 163 118 L 163 124 " stroke="black" stroke-width="1" fill="none"/>
<path d="M 157 118 L 157 124 L 159 124 L 159 123 L 160 122 L 161 123 L 161 124 L 161 122 L 160 122 L 159 121 L 160 120 L 161 120 L 161 118 L 161 119 L 160 120 L 159 119 L 159 118 " stroke="black" stroke-width="1" fill="none"/>
<path d="M 158 118 L 159 119 L 159 123 L 158 124 L 157 123 L 157 119 " stroke="black" stroke-width="1" fill="none"/>
<path d="M 117 118 L 117 124 " stroke="black" stroke-width="1" fill="none"/>
<path d="M 111 118 L 111 124 L 113 124 L 113 123 L 114 122 L 115 123 L 115 124 L 115 122 L 114 122 L 113 121 L 114 120 L 115 120 L 115 118 L 115 119 L 114 120 L 113 119 L 113 118 " stroke="black" stroke-width="1" fill="none"/>
<path d="M 112 118 L 113 119 L 113 123 L 112 124 L 111 123 L 111 119 " stroke="black" stroke-width="1" fill="none"/>
<path d="M 287 117 L 287 123 " stroke="black" stroke-width="1" fill="none"/>
<path d="M 275 112 L 274 113 L 274 115 L 273 116 L 274 117 L 274 119 L 275 120 L 278 120 L 280 118 L 281 119 L 281 123 L 283 123 L 283 122 L 284 121 L 285 122 L 285 123 L 285 121 L 284 121 L 283 120 L 284 119 L 285 119 L 285 117 L 285 118 L 284 119 L 283 118 L 283 117 L 282 116 L 281 116 L 280 115 L 280 113 L 279 112 " stroke="black" stroke-width="1" fill="none"/>
<path d="M 281 116 L 283 118 L 283 122 L 282 123 L 281 122 L 281 119 L 280 118 L 280 117 " stroke="black" stroke-width="1" fill="none"/>
<path d="M 276 112 L 278 112 L 280 114 L 280 115 L 281 116 L 280 117 L 280 118 L 278 120 L 276 120 L 274 118 L 274 117 L 273 116 L 274 115 L 274 114 " stroke="black" stroke-width="1" fill="none"/>
<path d="M 277 114 L 276 115 L 276 117 L 277 118 L 278 117 L 278 115 " stroke="black" stroke-width="1" fill="none"/>
<path d="M 277 114 L 278 115 L 278 117 L 277 118 L 276 117 L 276 115 " stroke="black" stroke-width="1" fill="none"/>
<path d="M 244 110 L 244 114 " stroke="black" stroke-width="1" fill="none"/>
<path d="M 147 109 L 147 115 " stroke="black" stroke-width="1" fill="none"/>
<path d="M 145 109 L 145 110 L 144 111 L 143 110 L 143 109 L 141 109 L 141 113 L 140 114 L 138 112 L 135 112 L 134 113 L 134 115 L 133 116 L 134 117 L 134 119 L 135 120 L 139 120 L 140 119 L 140 117 L 141 116 L 142 116 L 143 115 L 143 114 L 144 113 L 145 114 L 145 115 L 145 113 L 144 113 L 143 112 L 144 111 L 145 111 " stroke="black" stroke-width="1" fill="none"/>
<path d="M 136 112 L 138 112 L 140 114 L 140 115 L 141 116 L 140 117 L 140 118 L 138 120 L 136 120 L 134 118 L 134 117 L 133 116 L 134 115 L 134 114 " stroke="black" stroke-width="1" fill="none"/>
<path d="M 137 114 L 136 115 L 136 117 L 137 118 L 138 117 L 138 115 " stroke="black" stroke-width="1" fill="none"/>
<path d="M 137 114 L 138 115 L 138 117 L 137 118 L 136 117 L 136 115 " stroke="black" stroke-width="1" fill="none"/>
<path d="M 142 109 L 143 110 L 143 114 L 141 116 L 140 115 L 140 114 L 141 113 L 141 110 " stroke="black" stroke-width="1" fill="none"/>
<path d="M 258 98 L 256 98 L 258 106 L 255 112 L 258 107 L 257 98 L 261 106 L 255 115 L 247 103 L 244 107 L 251 115 L 243 121 L 241 119 L 244 116 L 240 115 L 242 107 L 241 110 L 238 108 L 238 120 L 231 116 L 216 122 L 215 132 L 211 125 L 207 127 L 217 138 L 207 145 L 203 141 L 207 142 L 213 138 L 207 142 L 205 139 L 201 142 L 193 138 L 184 143 L 182 157 L 168 151 L 173 148 L 181 153 L 183 141 L 194 135 L 200 139 L 193 135 L 181 142 L 181 152 L 179 153 L 174 148 L 174 133 L 169 132 L 167 136 L 169 140 L 168 152 L 182 158 L 171 165 L 171 177 L 180 183 L 192 178 L 193 163 L 197 161 L 199 164 L 195 168 L 195 176 L 205 181 L 206 184 L 204 186 L 194 179 L 183 186 L 194 179 L 205 186 L 206 181 L 195 175 L 195 169 L 201 161 L 206 158 L 219 164 L 230 158 L 230 148 L 237 140 L 239 141 L 239 151 L 243 150 L 242 139 L 252 146 L 265 139 L 269 141 L 270 137 L 266 135 L 267 125 L 271 123 L 270 119 L 267 118 L 264 122 L 255 115 L 261 107 " stroke="black" stroke-width="1" fill="none"/>
<path d="M 216 161 L 217 160 L 218 161 L 217 162 " stroke="black" stroke-width="1" fill="none"/>
<path d="M 182 158 L 184 160 L 185 160 L 186 161 L 187 161 L 188 162 L 189 162 L 191 164 L 192 164 L 193 165 L 193 176 L 191 178 L 190 178 L 189 179 L 188 179 L 186 181 L 185 181 L 183 183 L 181 183 L 180 182 L 179 182 L 178 181 L 177 181 L 176 180 L 175 180 L 171 176 L 171 166 L 175 162 L 176 162 L 177 161 L 178 161 L 179 160 L 180 160 " stroke="black" stroke-width="1" fill="none"/>
<path d="M 182 157 L 183 156 L 184 157 L 185 157 L 186 158 L 187 158 L 188 159 L 189 159 L 191 161 L 192 161 L 193 162 L 193 163 L 192 164 L 191 163 L 190 163 L 188 161 L 187 161 L 186 160 L 185 160 L 184 159 L 183 159 L 182 158 " stroke="black" stroke-width="1" fill="none"/>
<path d="M 206 145 L 207 146 L 207 155 L 206 156 L 205 155 L 205 146 " stroke="black" stroke-width="1" fill="none"/>
<path d="M 173 142 L 174 143 L 174 147 L 173 148 L 172 147 L 172 143 " stroke="black" stroke-width="1" fill="none"/>
<path d="M 171 142 L 172 143 L 172 147 L 171 148 L 170 147 L 170 143 " stroke="black" stroke-width="1" fill="none"/>
<path d="M 169 142 L 170 143 L 170 147 L 171 148 L 171 149 L 170 150 L 169 150 L 168 149 L 168 143 " stroke="black" stroke-width="1" fill="none"/>
<path d="M 240 140 L 242 142 L 242 145 L 243 146 L 243 149 L 241 151 L 239 151 L 238 150 L 238 143 L 239 142 L 239 141 " stroke="black" stroke-width="1" fill="none"/>
<path d="M 168 141 L 169 140 L 173 140 L 174 141 L 173 142 L 169 142 " stroke="black" stroke-width="1" fill="none"/>
<path d="M 238 138 L 239 139 L 238 140 L 237 140 L 236 141 L 235 141 L 232 144 L 232 145 L 231 146 L 230 145 L 230 144 L 230 145 L 231 146 L 230 147 L 230 157 L 228 159 L 227 159 L 226 160 L 225 160 L 224 161 L 223 161 L 222 162 L 221 162 L 220 163 L 219 163 L 218 164 L 217 164 L 216 163 L 218 161 L 219 161 L 220 160 L 221 160 L 222 159 L 223 159 L 224 158 L 225 158 L 226 157 L 227 157 L 228 156 L 228 143 L 229 142 L 231 142 L 234 139 L 235 139 L 236 138 " stroke="black" stroke-width="1" fill="none"/>
<path d="M 228 145 L 228 155 L 226 157 L 225 157 L 224 158 L 223 158 L 222 159 L 221 159 L 219 161 L 218 161 L 217 160 L 219 158 L 218 157 L 217 157 L 216 156 L 215 156 L 213 154 L 212 154 L 211 153 L 210 153 L 211 153 L 214 156 L 215 156 L 218 158 L 218 159 L 217 160 L 216 159 L 217 160 L 216 161 L 217 162 L 216 163 L 215 163 L 214 162 L 213 162 L 212 161 L 211 161 L 210 160 L 209 160 L 206 158 L 205 159 L 204 159 L 203 160 L 202 160 L 201 161 L 200 161 L 200 162 L 199 163 L 197 161 L 199 159 L 200 159 L 201 158 L 202 158 L 205 156 L 207 156 L 208 157 L 209 157 L 212 159 L 211 158 L 210 158 L 207 155 L 207 146 L 211 142 L 212 142 L 214 140 L 215 140 L 217 138 L 219 140 L 220 140 L 221 141 L 222 141 L 223 142 L 224 142 L 226 144 L 227 144 " stroke="black" stroke-width="1" fill="none"/>
<path d="M 214 160 " stroke="black" stroke-width="1" fill="none"/>
<path d="M 214 158 " stroke="black" stroke-width="1" fill="none"/>
<path d="M 210 155 L 211 156 " stroke="black" stroke-width="1" fill="none"/>
<path d="M 193 138 L 195 138 L 197 140 L 198 140 L 200 142 L 202 142 L 204 144 L 204 145 L 205 146 L 205 155 L 203 157 L 202 157 L 201 158 L 200 158 L 198 160 L 197 160 L 195 162 L 193 162 L 191 160 L 190 160 L 188 158 L 187 158 L 186 157 L 185 157 L 183 155 L 183 145 L 185 143 L 186 143 L 187 142 L 188 142 L 190 140 L 191 140 " stroke="black" stroke-width="1" fill="none"/>
<path d="M 267 137 L 269 137 L 270 138 L 270 139 L 268 141 L 267 141 L 265 139 " stroke="black" stroke-width="1" fill="none"/>
<path d="M 241 138 L 242 137 L 243 137 L 244 138 L 245 138 L 247 140 L 248 140 L 250 142 L 251 142 L 252 143 L 254 143 L 255 142 L 256 142 L 258 140 L 259 140 L 260 139 L 261 139 L 262 138 L 263 138 L 264 137 L 265 138 L 265 139 L 264 140 L 263 140 L 262 141 L 261 141 L 260 142 L 259 142 L 257 144 L 256 144 L 255 145 L 254 145 L 253 146 L 252 145 L 251 145 L 250 144 L 249 144 L 247 142 L 246 142 L 244 140 L 243 140 " stroke="black" stroke-width="1" fill="none"/>
<path d="M 170 132 L 172 132 L 174 134 L 174 135 L 175 136 L 174 137 L 174 138 L 172 140 L 170 140 L 168 138 L 168 137 L 167 136 L 168 135 L 168 134 " stroke="black" stroke-width="1" fill="none"/>
<path d="M 171 134 L 170 135 L 170 137 L 171 138 L 172 137 L 172 135 " stroke="black" stroke-width="1" fill="none"/>
<path d="M 171 134 L 172 135 L 172 137 L 171 138 L 170 137 L 170 135 " stroke="black" stroke-width="1" fill="none"/>
<path d="M 241 125 L 242 126 L 242 137 L 241 138 L 241 139 L 240 140 L 238 138 L 240 136 L 240 126 " stroke="black" stroke-width="1" fill="none"/>
<path d="M 207 128 L 210 125 L 212 127 L 212 128 L 213 129 L 213 130 L 218 135 L 218 136 L 219 137 L 220 137 L 221 138 L 222 138 L 223 139 L 224 139 L 226 141 L 227 141 L 228 142 L 228 143 L 227 144 L 226 143 L 225 143 L 223 141 L 222 141 L 221 140 L 220 140 L 219 139 L 218 139 " stroke="black" stroke-width="1" fill="none"/>
<path d="M 266 124 L 267 125 L 267 128 L 266 129 L 266 136 L 267 137 L 266 138 L 265 138 L 264 137 L 264 127 L 265 126 L 265 125 " stroke="black" stroke-width="1" fill="none"/>
<path d="M 239 120 L 240 119 L 241 120 L 241 121 L 240 122 L 239 121 " stroke="black" stroke-width="1" fill="none"/>
<path d="M 228 119 L 230 119 L 231 120 L 232 120 L 233 121 L 234 121 L 235 122 L 236 122 L 240 126 L 240 135 L 237 138 L 235 138 L 233 140 L 232 140 L 230 142 L 228 142 L 226 140 L 225 140 L 223 138 L 222 138 L 221 137 L 220 137 L 218 135 L 218 125 L 220 123 L 221 123 L 222 122 L 223 122 L 224 121 L 225 121 L 226 120 L 227 120 " stroke="black" stroke-width="1" fill="none"/>
<path d="M 237 117 L 238 116 L 243 116 L 244 117 L 243 118 L 242 118 L 241 119 L 239 119 " stroke="black" stroke-width="1" fill="none"/>
<path d="M 268 118 L 270 120 L 270 121 L 271 122 L 270 123 L 269 123 L 268 124 L 264 124 L 265 125 L 265 126 L 264 127 L 264 136 L 262 138 L 261 138 L 260 139 L 259 139 L 257 141 L 256 141 L 254 143 L 252 143 L 250 141 L 249 141 L 247 139 L 246 139 L 244 137 L 243 137 L 242 136 L 242 126 L 246 122 L 247 122 L 249 120 L 250 120 L 253 117 L 256 120 L 257 120 L 259 122 L 260 122 L 261 123 L 262 123 L 261 122 L 260 122 L 259 121 L 258 121 L 256 119 L 255 119 L 253 117 L 255 115 L 256 116 L 256 117 L 257 117 L 259 119 L 260 119 L 261 120 L 262 120 L 264 122 L 265 122 L 265 121 " stroke="black" stroke-width="1" fill="none"/>
<path d="M 253 117 L 251 119 L 250 119 L 248 121 L 247 121 L 245 123 L 244 123 L 242 125 L 240 125 L 237 122 L 236 122 L 235 121 L 234 121 L 233 120 L 232 120 L 231 119 L 227 119 L 226 120 L 225 120 L 224 121 L 223 121 L 222 122 L 221 122 L 220 123 L 219 123 L 218 124 L 218 133 L 217 134 L 215 132 L 216 131 L 216 123 L 218 121 L 219 121 L 220 120 L 221 120 L 222 119 L 223 119 L 224 118 L 225 118 L 226 117 L 227 117 L 228 116 L 230 116 L 231 117 L 232 117 L 233 118 L 234 118 L 235 119 L 236 119 L 237 120 L 238 120 L 240 122 L 241 122 L 241 121 L 242 120 L 243 121 L 244 121 L 246 119 L 247 119 L 249 117 L 250 117 L 250 116 L 251 115 " stroke="black" stroke-width="1" fill="none"/>
<path d="M 239 108 L 240 109 L 240 115 L 239 116 L 238 116 L 237 115 L 238 114 L 238 109 " stroke="black" stroke-width="1" fill="none"/>
<path d="M 248 103 L 249 104 L 249 105 L 250 106 L 250 107 L 251 108 L 251 110 L 252 111 L 252 112 L 253 113 L 253 114 L 254 114 L 255 115 L 253 117 L 251 115 L 251 114 L 248 111 L 248 110 L 244 106 L 246 104 L 247 104 " stroke="black" stroke-width="1" fill="none"/>
<path d="M 260 83 L 260 89 " stroke="black" stroke-width="1" fill="none"/>
<path d="M 258 83 L 258 84 L 257 85 L 256 84 L 256 83 L 254 83 L 254 87 L 252 89 L 251 89 L 250 90 L 250 92 L 249 93 L 250 94 L 250 96 L 251 97 L 254 97 L 255 96 L 256 96 L 256 94 L 257 93 L 256 92 L 256 88 L 257 87 L 258 88 L 258 89 L 258 87 L 257 87 L 256 86 L 257 85 L 258 85 " stroke="black" stroke-width="1" fill="none"/>
<path d="M 255 83 L 256 84 L 256 89 L 255 90 L 256 91 L 256 92 L 257 93 L 256 94 L 256 95 L 254 97 L 252 97 L 250 95 L 250 94 L 249 93 L 250 92 L 250 91 L 252 89 L 253 89 L 253 88 L 254 87 L 254 84 " stroke="black" stroke-width="1" fill="none"/>
<path d="M 253 91 L 252 92 L 252 94 L 253 95 L 254 94 L 254 92 " stroke="black" stroke-width="1" fill="none"/>
<path d="M 253 91 L 254 92 L 254 94 L 253 95 L 252 94 L 252 92 " stroke="black" stroke-width="1" fill="none"/>
</svg>