<svg xmlns="http://www.w3.org/2000/svg" width="300" height="300" viewBox="0 0 300 300">
<path d="M 76 235 L 76 242 L 77 242 L 78 243 L 78 240 L 79 239 L 80 239 L 81 240 L 81 242 L 83 242 L 83 235 L 81 235 L 79 237 L 78 236 L 78 235 " stroke="black" stroke-width="1" fill="none"/>
<path d="M 82 235 L 83 236 L 83 241 L 82 242 L 81 241 L 81 239 L 80 238 L 80 237 " stroke="black" stroke-width="1" fill="none"/>
<path d="M 77 235 L 78 236 L 78 237 L 79 237 L 80 238 L 79 239 L 78 239 L 78 241 L 77 242 L 76 241 L 76 236 " stroke="black" stroke-width="1" fill="none"/>
<path d="M 77 228 L 78 229 L 78 230 L 82 230 L 82 227 L 82 229 L 81 230 L 79 230 L 78 229 L 79 228 L 78 227 " stroke="black" stroke-width="1" fill="none"/>
<path d="M 15 226 L 13 228 L 13 233 L 15 235 L 19 235 L 21 233 L 21 228 L 19 226 " stroke="black" stroke-width="1" fill="none"/>
<path d="M 15 226 L 18 226 L 21 229 L 21 232 L 18 235 L 15 235 L 13 233 L 13 229 L 14 228 L 14 227 " stroke="black" stroke-width="1" fill="none"/>
<path d="M 17 228 L 15 230 L 15 231 L 17 233 L 18 232 L 18 229 " stroke="black" stroke-width="1" fill="none"/>
<path d="M 17 228 L 18 229 L 18 232 L 17 233 L 15 231 L 15 230 " stroke="black" stroke-width="1" fill="none"/>
<path d="M 78 225 L 81 225 " stroke="black" stroke-width="1" fill="none"/>
<path d="M 30 224 " stroke="black" stroke-width="1" fill="none"/>
<path d="M 76 190 L 75 190 L 70 186 L 69 186 L 60 181 L 58 181 L 57 182 L 46 187 L 44 189 L 37 192 L 36 193 L 36 198 L 35 199 L 35 216 L 33 218 L 31 218 L 30 219 L 25 221 L 24 222 L 24 224 L 26 224 L 31 221 L 32 221 L 33 222 L 32 223 L 33 222 L 32 221 L 33 220 L 34 220 L 35 221 L 35 219 L 26 224 L 25 224 L 24 223 L 26 221 L 35 217 L 35 199 L 36 198 L 36 194 L 38 192 L 39 192 L 43 189 L 52 185 L 54 183 L 55 183 L 56 182 L 58 182 L 59 181 L 60 182 L 62 182 L 66 185 L 71 187 L 76 191 " stroke="black" stroke-width="1" fill="none"/>
<path d="M 80 139 L 80 143 L 78 145 L 78 150 L 80 152 L 84 152 L 85 151 L 85 150 L 86 149 L 86 145 L 84 143 L 81 143 L 80 142 L 81 141 L 82 141 L 82 139 " stroke="black" stroke-width="1" fill="none"/>
<path d="M 81 143 L 83 143 L 86 146 L 86 149 L 83 152 L 80 152 L 78 150 L 78 146 " stroke="black" stroke-width="1" fill="none"/>
<path d="M 82 145 L 80 147 L 80 148 L 82 150 L 83 149 L 83 146 " stroke="black" stroke-width="1" fill="none"/>
<path d="M 82 145 L 83 146 L 83 149 L 82 150 L 80 148 L 80 147 " stroke="black" stroke-width="1" fill="none"/>
<path d="M 80 140 L 81 139 L 82 140 L 81 141 " stroke="black" stroke-width="1" fill="none"/>
<path d="M 77 129 L 77 136 L 79 136 L 79 134 L 80 133 L 81 133 L 82 134 L 82 136 L 84 136 L 84 129 L 82 129 L 80 131 L 79 130 L 79 128 L 78 129 " stroke="black" stroke-width="1" fill="none"/>
<path d="M 83 129 L 84 130 L 84 135 L 83 136 L 82 135 L 82 133 L 81 132 L 81 131 " stroke="black" stroke-width="1" fill="none"/>
<path d="M 78 129 L 79 130 L 79 131 L 80 131 L 81 132 L 80 133 L 79 133 L 79 135 L 78 136 L 77 135 L 77 130 " stroke="black" stroke-width="1" fill="none"/>
<path d="M 235 90 L 229 96 " stroke="black" stroke-width="1" fill="none"/>
<path d="M 216 85 L 216 88 L 217 89 L 217 90 L 219 92 L 220 92 L 221 93 L 221 95 L 221 93 L 222 92 L 223 93 L 223 94 L 223 92 L 222 92 L 221 93 L 217 89 L 217 88 L 216 87 L 216 86 L 217 85 L 218 85 " stroke="black" stroke-width="1" fill="none"/>
<path d="M 185 81 L 183 83 L 183 88 L 185 90 L 188 90 L 189 89 L 190 89 L 191 88 L 191 83 L 189 81 " stroke="black" stroke-width="1" fill="none"/>
<path d="M 185 81 L 188 81 L 191 84 L 191 87 L 188 90 L 185 90 L 183 88 L 183 84 L 184 83 L 184 82 " stroke="black" stroke-width="1" fill="none"/>
<path d="M 187 83 L 185 85 L 185 86 L 187 88 L 188 87 L 188 84 " stroke="black" stroke-width="1" fill="none"/>
<path d="M 187 83 L 188 84 L 188 87 L 187 88 L 185 86 L 185 85 " stroke="black" stroke-width="1" fill="none"/>
<path d="M 271 100 L 248 103 L 245 78 L 239 80 L 244 88 L 244 103 L 226 96 L 235 88 L 225 96 L 203 102 L 192 90 L 190 94 L 195 93 L 200 104 L 192 125 L 172 129 L 158 110 L 154 112 L 170 131 L 161 152 L 142 158 L 121 147 L 102 158 L 89 149 L 87 154 L 101 161 L 101 182 L 83 192 L 101 185 L 82 195 L 80 170 L 80 195 L 61 184 L 38 195 L 38 220 L 58 231 L 77 220 L 58 235 L 39 222 L 24 230 L 38 222 L 56 233 L 46 252 L 56 233 L 48 253 L 58 235 L 69 253 L 60 233 L 71 253 L 62 231 L 82 221 L 102 232 L 123 220 L 124 199 L 134 214 L 138 213 L 124 196 L 141 185 L 149 205 L 152 200 L 146 185 L 167 189 L 179 172 L 165 152 L 171 135 L 196 126 L 204 104 L 226 99 L 244 105 L 241 129 L 249 106 " stroke="black" stroke-width="1" fill="none"/>
<path d="M 81 220 L 82 219 L 83 220 L 82 221 " stroke="black" stroke-width="1" fill="none"/>
<path d="M 77 220 L 78 219 L 80 219 L 81 220 L 80 221 L 78 221 " stroke="black" stroke-width="1" fill="none"/>
<path d="M 130 202 L 132 204 L 131 205 L 132 204 L 134 206 L 134 207 L 135 208 L 136 208 L 138 210 L 138 212 L 136 214 L 135 214 L 134 213 L 134 212 L 132 210 L 132 209 L 131 208 L 132 207 L 131 208 L 128 205 L 128 204 " stroke="black" stroke-width="1" fill="none"/>
<path d="M 126 200 L 127 199 L 130 202 L 129 203 L 128 203 L 126 201 " stroke="black" stroke-width="1" fill="none"/>
<path d="M 123 197 L 124 196 L 127 199 L 126 200 L 125 200 L 123 198 " stroke="black" stroke-width="1" fill="none"/>
<path d="M 80 195 L 81 196 L 81 218 L 80 219 L 79 218 L 79 196 " stroke="black" stroke-width="1" fill="none"/>
<path d="M 102 184 L 104 186 L 105 186 L 107 188 L 108 188 L 109 189 L 110 189 L 112 191 L 113 191 L 114 192 L 115 192 L 117 194 L 118 194 L 121 197 L 121 217 L 118 220 L 117 220 L 115 222 L 114 222 L 113 223 L 112 223 L 111 224 L 110 224 L 108 226 L 107 226 L 106 227 L 105 227 L 102 229 L 100 229 L 99 228 L 98 228 L 96 226 L 95 226 L 94 225 L 93 225 L 91 223 L 90 223 L 89 222 L 88 222 L 87 221 L 86 221 L 85 220 L 84 220 L 81 218 L 81 196 L 82 195 L 83 195 L 84 194 L 85 194 L 86 193 L 87 193 L 88 192 L 89 192 L 90 191 L 91 191 L 92 190 L 93 190 L 95 188 L 96 188 L 97 187 L 98 187 L 99 186 L 100 186 " stroke="black" stroke-width="1" fill="none"/>
<path d="M 60 184 L 61 185 L 62 185 L 63 186 L 64 186 L 65 187 L 66 187 L 68 189 L 69 189 L 70 190 L 71 190 L 74 193 L 75 193 L 76 194 L 77 194 L 79 196 L 79 218 L 77 220 L 75 220 L 73 222 L 72 222 L 70 224 L 69 224 L 68 225 L 67 225 L 65 227 L 64 227 L 63 228 L 62 228 L 61 229 L 60 229 L 58 231 L 56 229 L 55 229 L 54 228 L 53 228 L 52 227 L 51 227 L 49 225 L 48 225 L 47 224 L 46 224 L 44 222 L 43 222 L 41 220 L 39 220 L 37 218 L 37 203 L 38 202 L 38 196 L 41 193 L 42 193 L 43 192 L 44 192 L 45 191 L 46 191 L 47 190 L 48 190 L 49 189 L 50 189 L 52 187 L 53 187 L 54 186 L 55 186 L 58 184 " stroke="black" stroke-width="1" fill="none"/>
<path d="M 141 184 L 141 185 L 140 186 L 139 186 L 138 187 L 137 187 L 135 189 L 134 189 L 133 190 L 132 190 L 130 192 L 129 192 L 128 193 L 127 193 L 125 195 L 123 195 L 122 194 L 124 192 L 125 192 L 126 191 L 127 191 L 129 189 L 130 189 L 131 188 L 132 188 L 134 186 L 135 186 L 136 185 L 137 185 L 138 184 L 139 184 L 140 183 " stroke="black" stroke-width="1" fill="none"/>
<path d="M 105 178 L 108 175 L 109 175 L 110 174 L 112 176 L 112 177 L 113 178 L 111 180 L 107 180 " stroke="black" stroke-width="1" fill="none"/>
<path d="M 81 170 L 83 172 L 83 180 L 82 181 L 82 189 L 81 190 L 81 192 L 80 193 L 79 192 L 79 187 L 78 186 L 78 175 L 77 174 L 77 173 L 80 170 " stroke="black" stroke-width="1" fill="none"/>
<path d="M 142 160 L 143 161 L 143 182 L 144 183 L 144 184 L 145 185 L 145 188 L 146 189 L 146 190 L 147 191 L 147 192 L 148 193 L 148 194 L 149 195 L 149 196 L 150 197 L 150 198 L 151 199 L 151 200 L 152 201 L 152 203 L 151 204 L 150 204 L 149 205 L 148 205 L 146 203 L 146 202 L 145 201 L 145 197 L 144 196 L 144 192 L 143 191 L 143 188 L 142 187 L 142 185 L 141 184 L 141 161 " stroke="black" stroke-width="1" fill="none"/>
<path d="M 147 162 L 149 160 L 151 160 L 152 159 L 155 159 L 156 160 L 155 161 L 153 161 L 152 162 L 150 162 L 149 163 L 148 163 " stroke="black" stroke-width="1" fill="none"/>
<path d="M 162 157 L 162 158 L 161 159 L 159 159 L 158 160 L 156 160 L 155 159 L 156 158 L 157 158 L 158 157 L 160 157 L 161 156 " stroke="black" stroke-width="1" fill="none"/>
<path d="M 151 158 L 152 157 L 154 157 L 155 156 L 157 156 L 158 157 L 157 158 L 156 158 L 155 159 L 152 159 " stroke="black" stroke-width="1" fill="none"/>
<path d="M 157 156 L 158 155 L 160 155 L 161 156 L 160 157 L 158 157 " stroke="black" stroke-width="1" fill="none"/>
<path d="M 145 159 L 147 159 L 148 158 L 151 158 L 152 159 L 151 160 L 149 160 L 148 161 L 147 161 L 147 162 L 146 163 L 149 163 L 150 162 L 152 162 L 153 161 L 155 161 L 156 160 L 158 160 L 159 159 L 161 159 L 162 158 L 163 158 L 162 157 L 162 156 L 161 156 L 160 155 L 161 154 L 163 154 L 166 157 L 166 158 L 169 161 L 169 162 L 171 164 L 171 165 L 175 169 L 175 170 L 176 171 L 176 172 L 173 175 L 173 176 L 171 178 L 171 179 L 168 182 L 168 183 L 163 188 L 161 188 L 160 187 L 158 187 L 157 186 L 156 186 L 155 185 L 152 185 L 151 184 L 149 184 L 148 183 L 145 183 L 143 181 L 143 161 " stroke="black" stroke-width="1" fill="none"/>
<path d="M 170 127 L 172 129 L 170 131 L 168 129 " stroke="black" stroke-width="1" fill="none"/>
<path d="M 166 126 L 167 125 L 168 125 L 170 127 L 169 128 L 168 128 " stroke="black" stroke-width="1" fill="none"/>
<path d="M 166 122 L 168 124 L 166 126 L 164 124 " stroke="black" stroke-width="1" fill="none"/>
<path d="M 159 113 L 160 114 L 160 115 L 161 115 L 162 116 L 162 117 L 164 119 L 164 120 L 166 122 L 165 123 L 164 123 L 162 121 L 161 121 L 160 120 L 160 119 L 159 118 L 158 118 L 156 116 " stroke="black" stroke-width="1" fill="none"/>
<path d="M 157 110 L 158 111 L 158 112 L 159 113 L 156 116 L 154 114 L 154 113 " stroke="black" stroke-width="1" fill="none"/>
<path d="M 246 106 L 247 107 L 247 110 L 246 111 L 246 113 L 245 114 L 245 116 L 244 117 L 244 119 L 243 120 L 243 123 L 242 124 L 242 126 L 240 128 L 239 127 L 239 126 L 240 125 L 240 122 L 241 121 L 241 119 L 242 118 L 242 115 L 243 114 L 243 112 L 244 111 L 244 109 L 245 108 L 245 107 " stroke="black" stroke-width="1" fill="none"/>
<path d="M 270 101 L 268 103 L 263 103 L 262 104 L 257 104 L 256 105 L 251 105 L 250 106 L 249 106 L 248 105 L 248 104 L 249 103 L 254 103 L 255 102 L 259 102 L 260 101 L 265 101 L 266 100 L 269 100 " stroke="black" stroke-width="1" fill="none"/>
<path d="M 198 100 L 199 99 L 202 102 L 200 104 L 199 103 L 199 102 L 198 101 " stroke="black" stroke-width="1" fill="none"/>
<path d="M 196 99 L 197 98 L 198 98 L 199 99 L 198 100 L 197 100 " stroke="black" stroke-width="1" fill="none"/>
<path d="M 193 90 L 194 91 L 194 92 L 195 93 L 194 94 L 194 95 L 193 96 L 190 93 " stroke="black" stroke-width="1" fill="none"/>
<path d="M 245 91 L 247 107 L 226 99 L 202 105 L 195 126 L 172 132 L 165 152 L 179 171 L 164 191 L 144 184 L 164 188 L 176 170 L 164 154 L 141 160 L 121 150 L 104 159 L 103 177 L 103 161 L 123 150 L 139 159 L 141 182 L 122 194 L 106 184 L 124 196 L 123 219 L 101 232 L 82 221 L 103 229 L 121 218 L 121 196 L 102 184 L 113 177 L 109 174 L 104 179 L 107 180 L 101 183 L 101 160 L 87 153 L 90 149 L 101 158 L 122 147 L 142 158 L 162 152 L 172 129 L 194 124 L 202 102 L 226 96 L 245 103 L 242 90 " stroke="black" stroke-width="1" fill="none"/>
<path d="M 115 169 L 115 176 L 116 176 L 117 177 L 117 174 L 118 173 L 119 173 L 120 174 L 120 176 L 122 176 L 122 169 L 120 169 L 118 171 L 117 170 L 117 168 L 116 169 " stroke="black" stroke-width="1" fill="none"/>
<path d="M 121 169 L 122 170 L 122 175 L 121 176 L 120 175 L 120 173 L 119 172 L 119 171 " stroke="black" stroke-width="1" fill="none"/>
<path d="M 116 169 L 117 170 L 117 171 L 118 171 L 119 172 L 118 173 L 117 173 L 117 175 L 116 176 L 115 175 L 115 170 " stroke="black" stroke-width="1" fill="none"/>
<path d="M 241 78 L 244 78 L 247 81 L 247 84 L 244 87 L 241 87 L 239 85 L 239 81 L 240 80 L 240 79 " stroke="black" stroke-width="1" fill="none"/>
<path d="M 243 80 L 241 82 L 241 83 L 243 85 L 244 84 L 244 81 " stroke="black" stroke-width="1" fill="none"/>
<path d="M 243 80 L 244 81 L 244 84 L 243 85 L 241 83 L 241 82 " stroke="black" stroke-width="1" fill="none"/>
<path d="M 212 76 L 212 83 L 213 83 L 214 84 L 214 81 L 215 80 L 216 80 L 217 81 L 217 83 L 218 83 L 219 82 L 220 83 L 220 84 L 221 85 L 220 86 L 221 86 L 222 87 L 221 88 L 222 89 L 222 90 L 222 89 L 221 88 L 222 87 L 221 86 L 221 84 L 219 82 L 219 76 L 217 76 L 215 78 L 214 77 L 214 75 L 213 76 " stroke="black" stroke-width="1" fill="none"/>
<path d="M 218 76 L 219 77 L 219 82 L 218 83 L 217 82 L 217 80 L 216 79 L 216 78 " stroke="black" stroke-width="1" fill="none"/>
<path d="M 213 76 L 214 77 L 214 78 L 215 78 L 216 79 L 215 80 L 214 80 L 214 82 L 213 83 L 212 82 L 212 77 " stroke="black" stroke-width="1" fill="none"/>
<path d="M 215 54 L 213 56 L 213 61 L 215 63 L 219 63 L 221 61 L 221 56 L 219 54 " stroke="black" stroke-width="1" fill="none"/>
<path d="M 215 54 L 218 54 L 221 57 L 221 60 L 218 63 L 215 63 L 213 61 L 213 57 L 214 56 L 214 55 " stroke="black" stroke-width="1" fill="none"/>
<path d="M 217 56 L 215 58 L 215 59 L 217 61 L 218 60 L 218 57 " stroke="black" stroke-width="1" fill="none"/>
<path d="M 217 56 L 218 57 L 218 60 L 217 61 L 215 59 L 215 58 " stroke="black" stroke-width="1" fill="none"/>
<path d="M 177 46 L 177 47 L 180 50 L 180 51 L 188 59 L 188 60 L 192 64 L 191 65 L 191 67 L 190 68 L 190 71 L 189 72 L 189 74 L 188 75 L 188 77 L 187 78 L 187 79 L 189 79 L 190 78 L 190 77 L 191 76 L 191 73 L 192 72 L 192 70 L 193 69 L 193 67 L 194 66 L 197 66 L 198 65 L 203 65 L 204 64 L 207 64 L 208 63 L 210 63 L 209 62 L 210 61 L 207 61 L 206 60 L 207 59 L 210 59 L 209 58 L 210 57 L 206 57 L 205 58 L 201 58 L 200 59 L 195 59 L 194 60 L 193 60 L 184 51 L 184 50 L 179 45 L 178 46 " stroke="black" stroke-width="1" fill="none"/>
<path d="M 194 63 L 195 62 L 196 62 L 197 63 L 196 64 L 195 64 " stroke="black" stroke-width="1" fill="none"/>
<path d="M 209 62 L 207 64 L 204 64 L 203 65 L 198 65 L 197 66 L 193 66 L 193 69 L 192 70 L 192 72 L 191 73 L 191 75 L 190 76 L 190 78 L 189 79 L 188 79 L 187 78 L 188 77 L 188 75 L 189 74 L 189 72 L 190 71 L 190 68 L 191 67 L 191 65 L 192 64 L 196 64 L 197 63 L 201 63 L 202 62 L 206 62 L 207 61 L 208 61 " stroke="black" stroke-width="1" fill="none"/>
<path d="M 196 62 L 197 61 L 201 61 L 202 62 L 201 63 L 197 63 " stroke="black" stroke-width="1" fill="none"/>
<path d="M 201 61 L 202 60 L 206 60 L 207 61 L 206 62 L 202 62 " stroke="black" stroke-width="1" fill="none"/>
<path d="M 177 47 L 178 46 L 179 46 L 187 54 L 187 55 L 192 60 L 194 60 L 195 59 L 200 59 L 201 58 L 205 58 L 206 57 L 208 57 L 209 58 L 208 59 L 207 59 L 206 60 L 202 60 L 201 61 L 197 61 L 196 62 L 194 62 L 194 63 L 193 64 L 192 64 L 191 63 L 191 62 L 185 56 L 185 55 " stroke="black" stroke-width="1" fill="none"/>
</svg>