<svg xmlns="http://www.w3.org/2000/svg" width="300" height="300" viewBox="0 0 300 300">
<path d="M 270 221 L 268 223 L 268 228 L 270 230 L 274 230 L 276 228 L 276 223 L 274 221 " stroke="black" stroke-width="1" fill="none"/>
<path d="M 270 221 L 273 221 L 276 224 L 276 227 L 273 230 L 270 230 L 268 228 L 268 224 L 269 223 L 269 222 " stroke="black" stroke-width="1" fill="none"/>
<path d="M 272 223 L 270 225 L 270 226 L 272 228 L 273 227 L 273 224 " stroke="black" stroke-width="1" fill="none"/>
<path d="M 272 223 L 273 224 L 273 227 L 272 228 L 270 226 L 270 225 " stroke="black" stroke-width="1" fill="none"/>
<path d="M 221 221 " stroke="black" stroke-width="1" fill="none"/>
<path d="M 214 217 " stroke="black" stroke-width="1" fill="none"/>
<path d="M 216 216 L 217 217 L 216 218 L 217 217 L 218 217 L 219 218 L 218 219 L 219 220 L 218 219 L 219 218 L 220 218 L 221 219 L 222 219 L 223 220 L 224 220 L 225 221 L 226 221 L 225 221 L 224 220 L 223 220 L 222 219 L 221 219 L 220 218 L 219 218 L 218 217 L 217 217 " stroke="black" stroke-width="1" fill="none"/>
<path d="M 214 215 " stroke="black" stroke-width="1" fill="none"/>
<path d="M 212 214 " stroke="black" stroke-width="1" fill="none"/>
<path d="M 280 214 L 280 221 L 281 221 L 282 222 L 282 219 L 283 218 L 284 218 L 285 219 L 285 221 L 287 221 L 287 214 L 285 214 L 283 216 L 282 215 L 282 213 L 281 214 " stroke="black" stroke-width="1" fill="none"/>
<path d="M 286 214 L 287 215 L 287 220 L 286 221 L 285 220 L 285 218 L 284 217 L 284 216 " stroke="black" stroke-width="1" fill="none"/>
<path d="M 281 214 L 282 215 L 282 216 L 283 216 L 284 217 L 283 218 L 282 218 L 282 220 L 281 221 L 280 220 L 280 215 " stroke="black" stroke-width="1" fill="none"/>
<path d="M 69 200 L 69 207 L 70 207 L 71 208 L 71 205 L 72 204 L 73 204 L 74 205 L 74 207 L 76 207 L 76 200 L 74 200 L 72 202 L 71 201 L 71 200 " stroke="black" stroke-width="1" fill="none"/>
<path d="M 75 200 L 76 201 L 76 206 L 75 207 L 74 206 L 74 204 L 73 203 L 73 202 " stroke="black" stroke-width="1" fill="none"/>
<path d="M 70 200 L 71 201 L 71 202 L 72 202 L 73 203 L 72 204 L 71 204 L 71 206 L 70 207 L 69 206 L 69 201 " stroke="black" stroke-width="1" fill="none"/>
<path d="M 244 191 L 244 210 L 246 210 L 246 191 " stroke="black" stroke-width="1" fill="none"/>
<path d="M 245 191 L 246 192 L 246 209 L 245 210 L 244 209 L 244 192 " stroke="black" stroke-width="1" fill="none"/>
<path d="M 211 188 L 210 189 " stroke="black" stroke-width="1" fill="none"/>
<path d="M 213 187 " stroke="black" stroke-width="1" fill="none"/>
<path d="M 209 187 " stroke="black" stroke-width="1" fill="none"/>
<path d="M 216 185 L 215 186 " stroke="black" stroke-width="1" fill="none"/>
<path d="M 214 184 L 213 185 L 212 185 L 211 186 L 212 185 L 213 185 " stroke="black" stroke-width="1" fill="none"/>
<path d="M 111 184 " stroke="black" stroke-width="1" fill="none"/>
<path d="M 76 184 L 72 184 L 70 186 L 70 191 L 72 193 L 72 197 L 74 197 L 74 195 L 73 195 L 72 194 L 73 193 L 76 193 L 78 191 L 78 186 " stroke="black" stroke-width="1" fill="none"/>
<path d="M 72 196 L 73 195 L 74 196 L 73 197 " stroke="black" stroke-width="1" fill="none"/>
<path d="M 72 184 L 75 184 L 78 187 L 78 190 L 75 193 L 73 193 L 72 192 L 71 192 L 70 191 L 70 187 L 71 186 L 71 185 " stroke="black" stroke-width="1" fill="none"/>
<path d="M 74 186 L 72 188 L 72 189 L 74 191 L 75 190 L 75 187 " stroke="black" stroke-width="1" fill="none"/>
<path d="M 74 186 L 75 187 L 75 190 L 74 191 L 72 189 L 72 188 " stroke="black" stroke-width="1" fill="none"/>
<path d="M 216 183 " stroke="black" stroke-width="1" fill="none"/>
<path d="M 161 183 L 159 185 L 159 190 L 161 192 L 165 192 L 167 190 L 167 185 L 165 183 " stroke="black" stroke-width="1" fill="none"/>
<path d="M 161 183 L 164 183 L 167 186 L 167 189 L 164 192 L 161 192 L 159 190 L 159 186 L 160 185 L 160 184 " stroke="black" stroke-width="1" fill="none"/>
<path d="M 163 185 L 161 187 L 161 188 L 163 190 L 164 189 L 164 186 " stroke="black" stroke-width="1" fill="none"/>
<path d="M 163 185 L 164 186 L 164 189 L 163 190 L 161 188 L 161 187 " stroke="black" stroke-width="1" fill="none"/>
<path d="M 227 182 L 226 182 L 225 183 L 224 183 L 223 184 L 222 184 L 221 185 L 220 185 L 219 186 L 218 186 L 216 188 L 215 188 L 214 189 L 213 189 L 211 191 L 210 191 L 212 191 L 214 189 L 215 189 L 217 187 L 218 187 L 219 186 L 220 186 L 221 185 L 222 185 L 223 184 L 224 184 L 225 183 L 226 183 " stroke="black" stroke-width="1" fill="none"/>
<path d="M 106 181 " stroke="black" stroke-width="1" fill="none"/>
<path d="M 226 180 L 225 180 L 224 181 L 223 181 L 222 182 L 221 182 L 220 183 L 219 183 L 218 182 L 219 181 L 218 182 L 219 183 L 218 184 L 219 183 L 220 183 L 221 182 L 222 182 L 223 181 L 224 181 L 225 180 " stroke="black" stroke-width="1" fill="none"/>
<path d="M 221 180 " stroke="black" stroke-width="1" fill="none"/>
<path d="M 108 180 L 109 181 L 108 182 L 109 183 L 108 182 L 109 181 L 110 181 L 111 182 L 112 182 L 113 183 L 114 183 L 115 184 L 116 184 L 115 184 L 114 183 L 113 183 L 112 182 L 111 182 L 110 181 L 109 181 " stroke="black" stroke-width="1" fill="none"/>
<path d="M 105 178 L 106 179 " stroke="black" stroke-width="1" fill="none"/>
<path d="M 101 178 L 102 179 L 103 179 L 104 180 L 103 179 L 102 179 " stroke="black" stroke-width="1" fill="none"/>
<path d="M 103 177 " stroke="black" stroke-width="1" fill="none"/>
<path d="M 155 185 L 150 183 L 148 181 L 145 180 L 140 176 L 135 180 L 132 181 L 130 183 L 127 184 L 125 186 L 124 186 L 123 187 L 122 187 L 120 189 L 118 189 L 117 190 L 116 189 L 111 187 L 106 183 L 101 181 L 99 179 L 98 179 L 95 177 L 94 178 L 91 179 L 89 181 L 84 183 L 82 185 L 80 185 L 82 185 L 83 184 L 86 183 L 88 181 L 93 179 L 95 177 L 97 179 L 98 179 L 99 180 L 102 181 L 104 183 L 107 184 L 112 188 L 113 188 L 116 190 L 118 190 L 119 189 L 124 187 L 126 185 L 129 184 L 131 182 L 134 181 L 136 179 L 137 179 L 140 176 L 143 179 L 144 179 L 146 181 L 149 182 L 151 184 L 152 184 L 153 185 " stroke="black" stroke-width="1" fill="none"/>
<path d="M 208 185 L 227 174 L 250 188 L 250 211 L 249 212 L 248 211 L 248 189 L 228 177 L 226 177 L 223 179 L 226 177 L 228 177 L 238 184 L 245 187 L 248 190 L 248 211 L 245 214 L 238 217 L 228 224 L 224 223 L 223 222 L 226 224 L 228 224 L 248 212 L 254 214 L 265 221 L 260 217 L 253 214 L 250 211 L 250 187 L 242 183 L 228 174 L 222 176 " stroke="black" stroke-width="1" fill="none"/>
<path d="M 100 173 L 100 175 L 101 176 L 100 175 L 100 174 L 101 173 L 103 175 L 104 175 L 105 176 L 106 176 L 108 178 L 109 178 L 110 179 L 111 179 L 112 180 L 113 180 L 114 181 L 115 181 L 116 182 L 117 182 L 116 181 L 115 181 L 114 180 L 113 180 L 112 179 L 111 179 L 110 178 L 109 178 L 108 177 L 107 177 L 105 175 L 104 175 L 102 173 " stroke="black" stroke-width="1" fill="none"/>
<path d="M 137 153 L 135 153 L 135 173 L 136 173 L 137 172 " stroke="black" stroke-width="1" fill="none"/>
<path d="M 136 153 L 137 154 L 137 172 L 136 173 L 135 172 L 135 154 " stroke="black" stroke-width="1" fill="none"/>
<path d="M 100 150 " stroke="black" stroke-width="1" fill="none"/>
<path d="M 100 148 " stroke="black" stroke-width="1" fill="none"/>
<path d="M 109 145 L 108 146 L 107 146 L 106 147 L 105 147 L 104 148 L 103 148 L 102 147 L 103 146 L 102 147 L 103 148 L 102 149 L 103 148 L 104 148 L 105 147 L 106 147 L 107 146 L 108 146 " stroke="black" stroke-width="1" fill="none"/>
<path d="M 110 142 L 109 143 L 108 143 L 107 144 L 106 144 L 105 145 L 106 144 L 107 144 L 108 143 L 109 143 " stroke="black" stroke-width="1" fill="none"/>
<path d="M 116 141 L 115 142 L 114 142 L 113 143 L 112 143 L 111 144 L 112 143 L 113 143 L 114 142 L 115 142 L 116 143 L 114 145 L 113 145 L 112 146 L 111 146 L 109 148 L 108 148 L 107 149 L 106 149 L 105 150 L 104 150 L 103 151 L 102 151 L 101 152 L 100 152 L 102 152 L 103 151 L 104 151 L 105 150 L 106 150 L 107 149 L 108 149 L 110 147 L 111 147 L 112 146 L 113 146 L 115 144 L 116 144 L 117 143 L 116 142 " stroke="black" stroke-width="1" fill="none"/>
<path d="M 68 110 L 69 111 " stroke="black" stroke-width="1" fill="none"/>
<path d="M 66 109 " stroke="black" stroke-width="1" fill="none"/>
<path d="M 63 107 L 64 108 " stroke="black" stroke-width="1" fill="none"/>
<path d="M 65 106 L 66 107 L 67 107 L 68 108 L 67 107 L 66 107 " stroke="black" stroke-width="1" fill="none"/>
<path d="M 61 106 " stroke="black" stroke-width="1" fill="none"/>
<path d="M 63 105 " stroke="black" stroke-width="1" fill="none"/>
<path d="M 59 105 " stroke="black" stroke-width="1" fill="none"/>
<path d="M 61 104 " stroke="black" stroke-width="1" fill="none"/>
<path d="M 59 103 " stroke="black" stroke-width="1" fill="none"/>
<path d="M 54 102 " stroke="black" stroke-width="1" fill="none"/>
<path d="M 29 113 L 32 113 L 37 109 L 40 108 L 49 102 L 70 114 L 72 116 L 72 138 L 85 145 L 94 152 L 94 174 L 91 177 L 84 180 L 80 183 L 94 175 L 96 175 L 99 177 L 96 174 L 96 152 L 98 149 L 96 151 L 94 151 L 72 137 L 72 115 L 71 114 L 72 113 L 72 110 L 70 109 L 72 111 L 71 112 L 72 113 L 70 114 L 56 105 L 50 102 L 48 102 L 33 112 " stroke="black" stroke-width="1" fill="none"/>
<path d="M 95 151 L 96 152 L 96 174 L 95 175 L 94 174 L 94 152 " stroke="black" stroke-width="1" fill="none"/>
<path d="M 52 99 L 52 101 L 53 100 L 54 100 L 53 100 " stroke="black" stroke-width="1" fill="none"/>
<path d="M 50 73 L 50 98 L 29 111 L 50 99 L 51 73 L 52 97 L 75 110 L 74 136 L 95 149 L 117 136 L 140 149 L 159 138 L 161 125 L 161 139 L 141 151 L 119 139 L 112 141 L 118 139 L 139 152 L 139 173 L 120 186 L 114 186 L 119 187 L 139 174 L 156 183 L 141 173 L 141 152 L 162 139 L 182 152 L 182 174 L 169 184 L 183 176 L 201 189 L 205 215 L 226 227 L 249 214 L 264 223 L 249 214 L 227 227 L 204 213 L 205 190 L 206 212 L 227 219 L 206 211 L 206 184 L 184 173 L 184 149 L 165 137 L 165 108 L 159 110 L 163 118 L 163 136 L 159 118 L 159 137 L 140 149 L 118 136 L 95 149 L 74 135 L 75 109 L 52 96 " stroke="black" stroke-width="1" fill="none"/>
<path d="M 140 151 L 141 152 L 141 173 L 140 174 L 139 173 L 139 152 " stroke="black" stroke-width="1" fill="none"/>
<path d="M 161 138 L 162 137 L 163 138 L 162 139 " stroke="black" stroke-width="1" fill="none"/>
<path d="M 164 124 L 165 125 L 165 138 L 169 141 L 170 141 L 171 142 L 176 144 L 178 146 L 181 147 L 184 150 L 184 174 L 201 183 L 203 183 L 204 184 L 205 184 L 206 185 L 206 188 L 204 191 L 198 186 L 197 186 L 194 183 L 193 183 L 190 180 L 187 179 L 183 176 L 174 183 L 173 183 L 172 184 L 171 184 L 170 183 L 182 174 L 182 151 L 178 148 L 175 147 L 173 145 L 168 143 L 163 139 L 163 125 " stroke="black" stroke-width="1" fill="none"/>
<path d="M 164 119 L 165 120 L 165 123 L 164 124 L 163 123 L 163 120 " stroke="black" stroke-width="1" fill="none"/>
<path d="M 160 119 L 161 120 L 161 123 L 160 124 L 159 123 L 159 120 " stroke="black" stroke-width="1" fill="none"/>
<path d="M 161 108 L 164 108 L 167 111 L 167 114 L 164 117 L 162 117 L 161 116 L 160 116 L 159 115 L 159 111 L 160 110 L 160 109 " stroke="black" stroke-width="1" fill="none"/>
<path d="M 163 110 L 161 112 L 161 113 L 163 115 L 164 114 L 164 111 " stroke="black" stroke-width="1" fill="none"/>
<path d="M 163 110 L 164 111 L 164 114 L 163 115 L 161 113 L 161 112 " stroke="black" stroke-width="1" fill="none"/>
</svg>