<svg xmlns="http://www.w3.org/2000/svg" width="300" height="300" viewBox="0 0 300 300">
<path d="M 154 225 L 153 226 L 152 225 L 152 228 L 151 229 L 150 229 L 149 228 L 149 226 L 146 226 L 146 235 L 149 235 L 149 232 L 150 231 L 151 231 L 152 232 L 152 236 L 153 235 L 154 236 " stroke="black" stroke-width="1" fill="none"/>
<path d="M 149 230 L 150 229 L 151 229 L 152 230 L 151 231 L 150 231 " stroke="black" stroke-width="1" fill="none"/>
<path d="M 153 226 L 154 227 L 154 234 L 153 235 L 152 234 L 152 232 L 151 231 L 152 230 L 151 229 L 152 228 L 152 227 " stroke="black" stroke-width="1" fill="none"/>
<path d="M 147 226 L 148 226 L 149 227 L 149 234 L 148 235 L 147 235 L 146 234 L 146 227 " stroke="black" stroke-width="1" fill="none"/>
<path d="M 145 218 L 145 220 L 146 221 L 146 222 L 147 223 L 147 224 L 147 222 L 146 221 L 146 220 L 145 219 " stroke="black" stroke-width="1" fill="none"/>
<path d="M 147 217 L 147 218 L 148 219 L 148 220 L 149 221 L 149 223 L 149 221 L 148 220 L 148 218 " stroke="black" stroke-width="1" fill="none"/>
<path d="M 90 214 " stroke="black" stroke-width="1" fill="none"/>
<path d="M 93 212 L 92 213 " stroke="black" stroke-width="1" fill="none"/>
<path d="M 91 211 L 90 212 " stroke="black" stroke-width="1" fill="none"/>
<path d="M 96 210 L 95 211 " stroke="black" stroke-width="1" fill="none"/>
<path d="M 93 210 " stroke="black" stroke-width="1" fill="none"/>
<path d="M 98 209 " stroke="black" stroke-width="1" fill="none"/>
<path d="M 96 208 " stroke="black" stroke-width="1" fill="none"/>
<path d="M 98 207 " stroke="black" stroke-width="1" fill="none"/>
<path d="M 148 205 L 147 206 L 146 205 L 146 209 L 145 210 L 144 209 L 144 208 L 143 207 L 143 206 L 141 206 L 141 207 L 140 208 L 140 215 L 142 215 L 142 212 L 142 214 L 141 215 L 140 214 L 140 208 L 142 206 L 143 207 L 143 208 L 145 210 L 146 209 L 146 207 L 147 206 L 148 207 L 148 214 L 147 215 L 146 215 L 145 214 L 145 213 L 144 212 L 144 213 L 145 214 L 145 215 L 148 215 " stroke="black" stroke-width="1" fill="none"/>
<path d="M 105 205 L 104 206 L 103 206 L 102 207 L 101 207 L 100 208 L 101 207 L 102 207 L 103 206 L 104 206 " stroke="black" stroke-width="1" fill="none"/>
<path d="M 101 205 " stroke="black" stroke-width="1" fill="none"/>
<path d="M 103 204 " stroke="black" stroke-width="1" fill="none"/>
<path d="M 106 202 L 105 203 " stroke="black" stroke-width="1" fill="none"/>
<path d="M 107 200 L 104 200 L 102 202 L 101 202 L 99 204 L 98 204 L 97 205 L 96 205 L 94 207 L 93 207 L 92 208 L 91 208 L 89 210 L 88 210 L 87 211 L 86 211 L 85 212 L 86 212 L 87 211 L 88 211 L 90 209 L 91 209 L 92 208 L 93 208 L 95 206 L 96 206 L 97 205 L 98 205 L 100 203 L 101 203 L 102 202 L 103 202 L 105 200 " stroke="black" stroke-width="1" fill="none"/>
<path d="M 159 180 " stroke="black" stroke-width="1" fill="none"/>
<path d="M 156 179 L 157 180 " stroke="black" stroke-width="1" fill="none"/>
<path d="M 155 175 L 156 176 " stroke="black" stroke-width="1" fill="none"/>
<path d="M 152 174 L 153 175 " stroke="black" stroke-width="1" fill="none"/>
<path d="M 58 172 L 58 198 L 60 198 L 60 172 " stroke="black" stroke-width="1" fill="none"/>
<path d="M 59 172 L 60 173 L 60 197 L 59 198 L 58 197 L 58 173 " stroke="black" stroke-width="1" fill="none"/>
<path d="M 152 171 L 153 172 " stroke="black" stroke-width="1" fill="none"/>
<path d="M 150 171 " stroke="black" stroke-width="1" fill="none"/>
<path d="M 150 168 L 151 169 " stroke="black" stroke-width="1" fill="none"/>
<path d="M 147 167 L 148 168 " stroke="black" stroke-width="1" fill="none"/>
<path d="M 105 167 L 106 168 " stroke="black" stroke-width="1" fill="none"/>
<path d="M 103 166 " stroke="black" stroke-width="1" fill="none"/>
<path d="M 101 165 " stroke="black" stroke-width="1" fill="none"/>
<path d="M 98 163 " stroke="black" stroke-width="1" fill="none"/>
<path d="M 100 162 L 101 163 L 102 163 L 103 164 L 104 164 L 105 165 L 104 164 L 103 164 L 102 163 L 101 163 " stroke="black" stroke-width="1" fill="none"/>
<path d="M 96 162 " stroke="black" stroke-width="1" fill="none"/>
<path d="M 98 161 " stroke="black" stroke-width="1" fill="none"/>
<path d="M 93 160 " stroke="black" stroke-width="1" fill="none"/>
<path d="M 95 159 L 96 160 " stroke="black" stroke-width="1" fill="none"/>
<path d="M 90 158 L 91 159 " stroke="black" stroke-width="1" fill="none"/>
<path d="M 85 158 L 86 159 L 87 159 L 88 160 L 89 160 L 91 162 L 92 162 L 93 163 L 94 163 L 96 165 L 97 165 L 98 166 L 99 166 L 101 168 L 102 168 L 104 170 L 107 170 L 105 170 L 103 168 L 102 168 L 101 167 L 100 167 L 98 165 L 97 165 L 96 164 L 95 164 L 93 162 L 92 162 L 91 161 L 90 161 L 88 159 L 87 159 L 86 158 " stroke="black" stroke-width="1" fill="none"/>
<path d="M 207 158 L 206 158 L 205 157 L 205 160 L 204 161 L 203 161 L 202 160 L 202 158 L 199 158 L 199 167 L 202 167 L 202 164 L 203 163 L 204 163 L 205 164 L 205 168 L 206 167 L 207 168 " stroke="black" stroke-width="1" fill="none"/>
<path d="M 202 162 L 203 161 L 204 161 L 205 162 L 204 163 L 203 163 " stroke="black" stroke-width="1" fill="none"/>
<path d="M 206 158 L 207 159 L 207 166 L 206 167 L 205 166 L 205 164 L 204 163 L 205 162 L 204 161 L 205 160 L 205 159 " stroke="black" stroke-width="1" fill="none"/>
<path d="M 200 158 L 201 158 L 202 159 L 202 166 L 201 167 L 200 167 L 199 166 L 199 159 " stroke="black" stroke-width="1" fill="none"/>
<path d="M 92 157 L 93 158 " stroke="black" stroke-width="1" fill="none"/>
<path d="M 90 156 " stroke="black" stroke-width="1" fill="none"/>
<path d="M 83 153 L 85 153 L 88 155 L 87 156 L 85 156 L 87 156 L 88 157 L 87 156 L 88 155 L 85 153 L 83 153 L 79 155 L 77 157 L 74 158 L 72 160 L 67 162 L 65 164 L 60 166 L 56 169 L 56 201 L 60 204 L 65 206 L 67 208 L 77 213 L 79 215 L 83 217 L 85 217 L 88 215 L 87 214 L 88 213 L 87 214 L 85 214 L 87 214 L 88 215 L 85 217 L 83 217 L 79 214 L 76 213 L 74 211 L 71 210 L 69 208 L 59 203 L 56 200 L 56 170 L 59 167 L 69 162 L 71 160 L 74 159 L 76 157 L 79 156 " stroke="black" stroke-width="1" fill="none"/>
<path d="M 209 150 L 207 150 L 207 151 L 206 152 L 206 155 L 206 152 L 208 150 L 209 151 L 209 152 L 208 153 L 208 155 L 208 153 L 209 152 " stroke="black" stroke-width="1" fill="none"/>
<path d="M 213 137 L 212 138 L 211 137 L 211 141 L 210 142 L 209 141 L 209 140 L 208 139 L 208 138 L 206 138 L 206 139 L 205 140 L 205 147 L 207 147 L 207 144 L 207 146 L 206 147 L 205 146 L 205 140 L 207 138 L 208 139 L 208 140 L 210 142 L 211 141 L 211 139 L 212 138 L 213 139 L 213 146 L 212 147 L 211 147 L 210 146 L 210 145 L 209 144 L 209 145 L 210 146 L 210 147 L 213 147 " stroke="black" stroke-width="1" fill="none"/>
<path d="M 244 136 L 241 136 L 240 137 L 237 137 L 236 138 L 233 138 L 232 139 L 229 139 L 228 140 L 224 140 L 223 141 L 220 141 L 219 142 L 217 142 L 218 143 L 217 144 L 221 144 L 222 143 L 225 143 L 226 142 L 229 142 L 230 141 L 233 141 L 234 140 L 237 140 L 238 139 L 241 139 L 242 138 L 244 138 L 243 137 " stroke="black" stroke-width="1" fill="none"/>
<path d="M 243 137 L 241 139 L 238 139 L 237 140 L 234 140 L 233 141 L 230 141 L 229 142 L 226 142 L 225 143 L 222 143 L 221 144 L 219 144 L 218 143 L 220 141 L 223 141 L 224 140 L 228 140 L 229 139 L 232 139 L 233 138 L 236 138 L 237 137 L 240 137 L 241 136 L 242 136 " stroke="black" stroke-width="1" fill="none"/>
<path d="M 187 77 L 197 87 L 198 86 L 196 86 " stroke="black" stroke-width="1" fill="none"/>
<path d="M 228 73 L 227 74 L 227 75 L 226 76 L 226 81 L 227 82 L 227 83 L 228 84 L 233 84 L 235 82 L 235 75 L 233 73 " stroke="black" stroke-width="1" fill="none"/>
<path d="M 229 73 L 232 73 L 235 76 L 235 81 L 232 84 L 229 84 L 227 82 L 227 81 L 226 80 L 226 77 L 227 76 L 227 75 " stroke="black" stroke-width="1" fill="none"/>
<path d="M 230 75 L 229 76 L 229 77 L 228 78 L 228 79 L 229 80 L 229 81 L 230 82 L 231 81 L 232 81 L 233 80 L 233 77 L 232 76 L 231 76 " stroke="black" stroke-width="1" fill="none"/>
<path d="M 230 76 L 232 76 L 233 77 L 233 80 L 232 81 L 230 81 L 228 79 L 228 78 " stroke="black" stroke-width="1" fill="none"/>
<path d="M 223 81 L 201 85 L 185 67 L 189 74 L 200 85 L 222 82 L 217 85 L 198 89 L 189 120 L 203 133 L 200 136 L 187 120 L 156 127 L 146 158 L 165 185 L 151 203 L 162 184 L 154 180 L 143 165 L 146 165 L 143 164 L 157 184 L 160 182 L 162 185 L 150 203 L 152 204 L 165 186 L 164 182 L 146 158 L 155 129 L 159 126 L 187 121 L 197 134 L 201 136 L 203 132 L 189 119 L 198 90 L 201 87 L 223 83 " stroke="black" stroke-width="1" fill="none"/>
<path d="M 183 67 L 183 69 L 185 71 L 185 72 L 187 74 L 185 72 L 185 71 L 183 69 " stroke="black" stroke-width="1" fill="none"/>
<path d="M 236 66 L 235 67 L 234 67 L 234 68 L 233 69 L 233 71 L 234 71 L 235 72 L 235 70 L 236 69 " stroke="black" stroke-width="1" fill="none"/>
<path d="M 235 67 L 236 68 L 236 69 L 234 71 L 233 70 L 233 69 " stroke="black" stroke-width="1" fill="none"/>
<path d="M 178 55 L 172 56 L 172 65 L 179 67 L 177 69 L 196 90 L 188 116 L 185 119 L 154 125 L 142 158 L 113 167 L 83 150 L 55 166 L 55 204 L 83 220 L 113 203 L 138 211 L 114 200 L 114 170 L 141 160 L 149 166 L 145 160 L 114 169 L 107 166 L 112 170 L 112 200 L 107 204 L 114 201 L 136 208 L 136 211 L 113 203 L 84 220 L 54 202 L 54 168 L 84 150 L 113 167 L 143 158 L 155 125 L 187 118 L 196 89 L 177 69 L 183 72 L 178 66 " stroke="black" stroke-width="1" fill="none"/>
<path d="M 113 169 L 114 170 L 114 200 L 113 201 L 112 200 L 112 170 " stroke="black" stroke-width="1" fill="none"/>
<path d="M 174 55 L 177 55 L 180 58 L 180 63 L 177 66 L 174 66 L 172 64 L 172 63 L 171 62 L 171 59 L 172 58 L 172 57 " stroke="black" stroke-width="1" fill="none"/>
<path d="M 175 57 L 174 58 L 174 59 L 173 60 L 173 61 L 174 62 L 174 63 L 175 64 L 176 63 L 177 63 L 178 62 L 178 59 L 177 58 L 176 58 " stroke="black" stroke-width="1" fill="none"/>
<path d="M 175 58 L 177 58 L 178 59 L 178 62 L 177 63 L 175 63 L 173 61 L 173 60 " stroke="black" stroke-width="1" fill="none"/>
<path d="M 240 54 L 239 55 L 238 54 L 238 57 L 237 58 L 236 58 L 235 57 L 235 55 L 232 55 L 232 64 L 235 64 L 235 61 L 236 60 L 237 60 L 238 61 L 238 65 L 239 64 L 240 65 " stroke="black" stroke-width="1" fill="none"/>
<path d="M 235 59 L 236 58 L 237 58 L 238 59 L 237 60 L 236 60 " stroke="black" stroke-width="1" fill="none"/>
<path d="M 239 55 L 240 56 L 240 63 L 239 64 L 238 63 L 238 61 L 237 60 L 238 59 L 237 58 L 238 57 L 238 56 " stroke="black" stroke-width="1" fill="none"/>
<path d="M 233 55 L 234 55 L 235 56 L 235 63 L 234 64 L 233 64 L 232 63 L 232 56 " stroke="black" stroke-width="1" fill="none"/>
</svg>