<svg xmlns="http://www.w3.org/2000/svg" width="300" height="300" viewBox="0 0 300 300">
<path d="M 171 276 L 171 283 L 172 283 L 173 284 L 173 281 L 174 280 L 175 280 L 176 281 L 176 283 L 178 283 L 178 276 L 176 276 L 174 278 L 173 277 L 173 275 L 172 276 " stroke="black" stroke-width="1" fill="none"/>
<path d="M 177 276 L 178 277 L 178 282 L 177 283 L 176 282 L 176 280 L 175 279 L 175 278 " stroke="black" stroke-width="1" fill="none"/>
<path d="M 172 276 L 173 277 L 173 278 L 174 278 L 175 279 L 174 280 L 173 280 L 173 282 L 172 283 L 171 282 L 171 277 " stroke="black" stroke-width="1" fill="none"/>
<path d="M 190 269 L 188 271 L 188 272 L 190 274 L 191 273 L 191 270 " stroke="black" stroke-width="1" fill="none"/>
<path d="M 190 269 L 191 270 L 191 273 L 190 274 L 188 272 L 188 271 " stroke="black" stroke-width="1" fill="none"/>
<path d="M 192 267 L 191 267 L 194 270 L 194 273 L 191 276 L 188 276 L 186 274 L 186 270 L 188 268 L 187 268 L 186 269 L 186 274 L 188 276 L 192 276 L 194 274 L 194 269 " stroke="black" stroke-width="1" fill="none"/>
<path d="M 230 258 L 230 265 L 231 265 L 232 266 L 232 263 L 233 262 L 234 262 L 235 263 L 235 265 L 237 265 L 237 258 L 235 258 L 233 260 L 232 259 L 232 258 " stroke="black" stroke-width="1" fill="none"/>
<path d="M 236 258 L 237 259 L 237 264 L 236 265 L 235 264 L 235 262 L 234 261 L 234 260 " stroke="black" stroke-width="1" fill="none"/>
<path d="M 231 258 L 232 259 L 232 260 L 233 260 L 234 261 L 233 262 L 232 262 L 232 264 L 231 265 L 230 264 L 230 259 " stroke="black" stroke-width="1" fill="none"/>
<path d="M 140 258 L 140 265 L 141 265 L 142 266 L 142 263 L 143 262 L 144 262 L 145 263 L 145 265 L 147 265 L 147 258 L 145 258 L 143 260 L 142 259 L 142 258 " stroke="black" stroke-width="1" fill="none"/>
<path d="M 146 258 L 147 259 L 147 264 L 146 265 L 145 264 L 145 262 L 144 261 L 144 260 " stroke="black" stroke-width="1" fill="none"/>
<path d="M 141 258 L 142 259 L 142 260 L 143 260 L 144 261 L 143 262 L 142 262 L 142 264 L 141 265 L 140 264 L 140 259 " stroke="black" stroke-width="1" fill="none"/>
<path d="M 237 241 L 233 241 L 231 243 L 231 248 L 233 250 L 233 255 L 235 255 L 235 252 L 234 252 L 233 251 L 234 250 L 237 250 L 239 248 L 239 243 " stroke="black" stroke-width="1" fill="none"/>
<path d="M 233 253 L 234 252 L 235 253 L 235 254 L 234 255 L 233 254 " stroke="black" stroke-width="1" fill="none"/>
<path d="M 233 241 L 236 241 L 239 244 L 239 247 L 236 250 L 234 250 L 233 249 L 232 249 L 231 248 L 231 244 L 232 243 L 232 242 " stroke="black" stroke-width="1" fill="none"/>
<path d="M 235 243 L 233 245 L 233 246 L 235 248 L 236 247 L 236 244 " stroke="black" stroke-width="1" fill="none"/>
<path d="M 235 243 L 236 244 L 236 247 L 235 248 L 233 246 L 233 245 " stroke="black" stroke-width="1" fill="none"/>
<path d="M 147 241 L 143 241 L 141 243 L 141 248 L 143 250 L 143 255 L 145 255 L 145 252 L 144 252 L 143 251 L 144 250 L 147 250 L 149 248 L 149 243 " stroke="black" stroke-width="1" fill="none"/>
<path d="M 143 253 L 144 252 L 145 253 L 145 254 L 144 255 L 143 254 " stroke="black" stroke-width="1" fill="none"/>
<path d="M 143 241 L 146 241 L 149 244 L 149 247 L 146 250 L 144 250 L 143 249 L 142 249 L 141 248 L 141 244 L 142 243 L 142 242 " stroke="black" stroke-width="1" fill="none"/>
<path d="M 145 243 L 143 245 L 143 246 L 145 248 L 146 247 L 146 244 " stroke="black" stroke-width="1" fill="none"/>
<path d="M 145 243 L 146 244 L 146 247 L 145 248 L 143 246 L 143 245 " stroke="black" stroke-width="1" fill="none"/>
<path d="M 151 237 L 151 240 L 152 241 L 152 242 L 155 242 L 153 242 L 152 241 L 152 240 L 151 239 L 151 238 L 152 237 " stroke="black" stroke-width="1" fill="none"/>
<path d="M 163 232 L 162 232 L 160 234 L 158 234 L 156 236 L 154 236 L 154 237 L 155 238 L 155 239 L 154 240 L 155 239 L 156 240 L 157 240 L 158 239 L 158 238 L 159 237 L 160 237 L 161 236 L 162 236 L 163 235 L 164 235 L 164 234 L 162 236 L 160 236 L 156 240 L 155 239 L 155 238 L 154 237 L 155 236 L 156 236 L 157 235 L 158 235 L 159 234 L 161 234 " stroke="black" stroke-width="1" fill="none"/>
<path d="M 120 202 L 118 204 L 118 209 L 120 211 L 124 211 L 126 209 L 126 204 L 124 202 " stroke="black" stroke-width="1" fill="none"/>
<path d="M 120 202 L 123 202 L 126 205 L 126 208 L 123 211 L 120 211 L 118 209 L 118 205 L 119 204 L 119 203 " stroke="black" stroke-width="1" fill="none"/>
<path d="M 122 204 L 120 206 L 120 207 L 122 209 L 123 208 L 123 205 " stroke="black" stroke-width="1" fill="none"/>
<path d="M 122 204 L 123 205 L 123 208 L 122 209 L 120 207 L 120 206 " stroke="black" stroke-width="1" fill="none"/>
<path d="M 197 199 L 196 199 L 211 208 L 211 231 L 209 233 L 195 240 L 189 245 L 183 240 L 169 233 L 167 231 L 167 208 L 178 202 L 180 200 L 182 200 L 183 199 L 176 202 L 169 207 L 167 207 L 167 232 L 179 238 L 189 245 L 199 238 L 211 232 L 211 207 L 204 204 " stroke="black" stroke-width="1" fill="none"/>
<path d="M 226 195 L 222 196 L 212 204 L 209 204 L 202 199 L 196 197 L 198 197 L 211 205 L 225 195 L 228 198 L 213 206 L 213 232 L 220 236 L 224 236 L 226 238 L 224 241 L 212 234 L 192 245 L 188 250 L 186 245 L 166 234 L 179 241 L 187 247 L 187 255 L 185 263 L 186 265 L 191 265 L 189 248 L 199 241 L 213 234 L 226 244 L 228 242 L 229 238 L 228 238 L 229 240 L 226 243 L 224 243 L 223 242 L 225 241 L 226 237 L 221 236 L 213 231 L 213 207 L 218 203 L 227 200 L 228 197 " stroke="black" stroke-width="1" fill="none"/>
<path d="M 188 254 L 190 256 L 190 259 L 191 260 L 191 264 L 190 265 L 187 265 L 185 263 L 186 262 L 186 256 " stroke="black" stroke-width="1" fill="none"/>
<path d="M 188 250 L 189 251 L 189 253 L 188 254 L 187 253 L 187 251 " stroke="black" stroke-width="1" fill="none"/>
<path d="M 128 201 L 142 194 L 143 195 L 141 197 L 132 201 L 130 203 L 128 203 L 130 203 L 143 196 L 162 205 L 165 208 L 165 232 L 165 207 L 159 204 L 157 202 L 149 198 L 145 197 L 142 194 L 143 192 L 145 191 L 148 194 L 166 205 L 182 197 L 180 197 L 178 199 L 171 202 L 167 205 L 161 201 L 158 200 L 149 194 L 146 191 L 143 191 L 143 192 L 140 195 L 138 195 " stroke="black" stroke-width="1" fill="none"/>
<path d="M 233 189 L 231 191 L 231 196 L 233 198 L 237 198 L 239 196 L 239 191 L 237 189 " stroke="black" stroke-width="1" fill="none"/>
<path d="M 233 189 L 236 189 L 239 192 L 239 195 L 236 198 L 233 198 L 231 196 L 231 192 L 232 191 L 232 190 " stroke="black" stroke-width="1" fill="none"/>
<path d="M 235 191 L 233 193 L 233 194 L 235 196 L 236 195 L 236 192 " stroke="black" stroke-width="1" fill="none"/>
<path d="M 235 191 L 236 192 L 236 195 L 235 196 L 233 194 L 233 193 " stroke="black" stroke-width="1" fill="none"/>
<path d="M 188 189 L 186 191 L 186 196 L 188 198 L 192 198 L 194 196 L 194 191 L 192 189 " stroke="black" stroke-width="1" fill="none"/>
<path d="M 188 189 L 191 189 L 194 192 L 194 195 L 191 198 L 188 198 L 186 196 L 186 192 L 187 191 L 187 190 " stroke="black" stroke-width="1" fill="none"/>
<path d="M 190 191 L 188 193 L 188 194 L 190 196 L 191 195 L 191 192 " stroke="black" stroke-width="1" fill="none"/>
<path d="M 190 191 L 191 192 L 191 195 L 190 196 L 188 194 L 188 193 " stroke="black" stroke-width="1" fill="none"/>
<path d="M 231 183 L 231 186 L 236 186 L 236 183 L 235 183 L 236 184 L 236 185 L 235 186 L 232 186 L 231 185 L 231 184 L 232 183 " stroke="black" stroke-width="1" fill="none"/>
<path d="M 232 180 L 232 181 L 233 180 L 234 180 L 235 181 L 235 180 " stroke="black" stroke-width="1" fill="none"/>
<path d="M 103 164 L 101 162 L 97 162 L 95 164 L 95 169 L 99 172 L 99 192 L 98 193 L 97 192 L 97 173 L 95 172 L 95 193 L 75 206 L 69 201 L 54 193 L 51 193 L 29 206 L 29 234 L 46 244 L 54 247 L 76 234 L 76 209 L 79 206 L 98 195 L 114 204 L 99 195 L 99 180 L 100 179 L 101 180 L 101 194 L 115 202 L 101 193 L 101 173 L 99 172 L 103 169 " stroke="black" stroke-width="1" fill="none"/>
<path d="M 97 194 L 98 193 L 99 194 L 98 195 " stroke="black" stroke-width="1" fill="none"/>
<path d="M 97 180 L 97 195 L 92 199 L 85 202 L 76 208 L 74 208 L 72 206 L 74 209 L 74 231 L 71 234 L 74 232 L 74 209 L 75 208 L 76 209 L 76 233 L 74 235 L 53 247 L 36 238 L 29 233 L 29 207 L 32 204 L 38 201 L 40 199 L 53 193 L 65 199 L 75 206 L 95 194 L 95 180 L 96 179 " stroke="black" stroke-width="1" fill="none"/>
<path d="M 56 243 " stroke="black" stroke-width="1" fill="none"/>
<path d="M 59 241 " stroke="black" stroke-width="1" fill="none"/>
<path d="M 62 239 L 61 240 " stroke="black" stroke-width="1" fill="none"/>
<path d="M 59 239 " stroke="black" stroke-width="1" fill="none"/>
<path d="M 64 238 " stroke="black" stroke-width="1" fill="none"/>
<path d="M 62 237 " stroke="black" stroke-width="1" fill="none"/>
<path d="M 69 235 L 68 236 L 67 236 L 66 237 L 67 236 L 68 236 " stroke="black" stroke-width="1" fill="none"/>
<path d="M 65 235 L 64 236 " stroke="black" stroke-width="1" fill="none"/>
<path d="M 67 234 " stroke="black" stroke-width="1" fill="none"/>
<path d="M 70 230 L 68 230 L 66 232 L 65 232 L 63 234 L 62 234 L 60 236 L 59 236 L 58 237 L 57 237 L 55 239 L 54 239 L 53 240 L 54 241 L 54 242 L 55 241 L 56 241 L 55 241 L 54 240 L 55 239 L 56 239 L 58 237 L 59 237 L 61 235 L 62 235 L 64 233 L 65 233 L 66 232 L 67 232 L 69 230 L 70 231 L 70 232 L 69 233 L 70 232 " stroke="black" stroke-width="1" fill="none"/>
<path d="M 33 210 L 33 230 L 35 230 L 35 210 " stroke="black" stroke-width="1" fill="none"/>
<path d="M 34 210 L 35 211 L 35 229 L 34 230 L 33 229 L 33 211 " stroke="black" stroke-width="1" fill="none"/>
<path d="M 70 207 " stroke="black" stroke-width="1" fill="none"/>
<path d="M 70 205 " stroke="black" stroke-width="1" fill="none"/>
<path d="M 61 202 L 62 203 L 63 203 L 64 204 L 65 204 L 66 205 L 67 205 L 68 206 L 67 205 L 68 204 L 67 203 L 68 204 L 67 205 L 66 205 L 65 204 L 64 204 L 63 203 L 62 203 " stroke="black" stroke-width="1" fill="none"/>
<path d="M 60 199 L 61 200 L 62 200 L 63 201 L 64 201 L 65 202 L 64 201 L 63 201 L 62 200 L 61 200 " stroke="black" stroke-width="1" fill="none"/>
<path d="M 54 198 L 54 199 L 53 200 L 54 201 L 55 201 L 57 203 L 58 203 L 59 204 L 60 204 L 62 206 L 63 206 L 64 207 L 65 207 L 66 208 L 67 208 L 68 209 L 70 209 L 69 209 L 68 208 L 67 208 L 66 207 L 65 207 L 64 206 L 63 206 L 62 205 L 61 205 L 59 203 L 58 203 L 57 202 L 56 202 L 54 200 L 55 199 L 56 199 L 57 200 L 58 200 L 59 201 L 58 200 L 57 200 L 56 199 L 55 199 " stroke="black" stroke-width="1" fill="none"/>
<path d="M 51 196 L 50 197 L 49 197 L 48 198 L 47 198 L 46 199 L 45 199 L 44 200 L 41 201 L 39 203 L 38 203 L 36 205 L 33 206 L 31 208 L 31 232 L 32 233 L 35 234 L 37 236 L 38 236 L 39 237 L 40 237 L 41 238 L 44 239 L 46 241 L 49 242 L 51 244 L 54 244 L 52 244 L 51 243 L 50 243 L 48 241 L 47 241 L 46 240 L 43 239 L 41 237 L 40 237 L 39 236 L 38 236 L 37 235 L 34 234 L 31 231 L 31 209 L 34 206 L 35 206 L 40 202 L 41 202 L 42 201 L 43 201 L 44 200 L 45 200 L 46 199 L 47 199 L 48 198 L 49 198 L 52 196 L 55 196 L 58 198 L 55 196 " stroke="black" stroke-width="1" fill="none"/>
<path d="M 100 173 L 101 174 L 101 178 L 100 179 L 99 178 L 99 174 " stroke="black" stroke-width="1" fill="none"/>
<path d="M 96 173 L 97 174 L 97 178 L 96 179 L 95 178 L 95 174 " stroke="black" stroke-width="1" fill="none"/>
<path d="M 97 162 L 100 162 L 103 165 L 103 168 L 100 171 L 98 171 L 97 170 L 96 170 L 95 169 L 95 165 L 96 164 L 96 163 " stroke="black" stroke-width="1" fill="none"/>
<path d="M 99 164 L 97 166 L 97 167 L 99 169 L 100 168 L 100 165 " stroke="black" stroke-width="1" fill="none"/>
<path d="M 99 164 L 100 165 L 100 168 L 99 169 L 97 167 L 97 166 " stroke="black" stroke-width="1" fill="none"/>
<path d="M 274 149 L 272 151 L 272 156 L 274 158 L 278 158 L 280 156 L 280 151 L 278 149 " stroke="black" stroke-width="1" fill="none"/>
<path d="M 274 149 L 277 149 L 280 152 L 280 155 L 277 158 L 274 158 L 272 156 L 272 152 L 273 151 L 273 150 " stroke="black" stroke-width="1" fill="none"/>
<path d="M 276 151 L 274 153 L 274 154 L 276 156 L 277 155 L 277 152 " stroke="black" stroke-width="1" fill="none"/>
<path d="M 276 151 L 277 152 L 277 155 L 276 156 L 274 154 L 274 153 " stroke="black" stroke-width="1" fill="none"/>
<path d="M 276 137 L 276 144 L 277 144 L 278 145 L 278 142 L 279 141 L 280 141 L 281 142 L 281 144 L 283 144 L 283 137 L 281 137 L 279 139 L 278 138 L 278 136 L 277 137 " stroke="black" stroke-width="1" fill="none"/>
<path d="M 282 137 L 283 138 L 283 143 L 282 144 L 281 143 L 281 141 L 280 140 L 280 139 " stroke="black" stroke-width="1" fill="none"/>
<path d="M 277 137 L 278 138 L 278 139 L 279 139 L 280 140 L 279 141 L 278 141 L 278 143 L 277 144 L 276 143 L 276 138 " stroke="black" stroke-width="1" fill="none"/>
<path d="M 274 136 L 272 136 L 272 137 L 271 138 L 271 140 L 271 138 L 272 137 L 273 138 L 273 140 L 273 138 L 274 137 " stroke="black" stroke-width="1" fill="none"/>
<path d="M 272 137 L 273 136 L 274 137 L 273 138 " stroke="black" stroke-width="1" fill="none"/>
<path d="M 267 136 L 267 137 L 265 139 L 264 138 L 264 137 L 265 136 L 264 137 L 264 138 L 265 139 L 266 139 L 266 138 L 267 137 " stroke="black" stroke-width="1" fill="none"/>
<path d="M 196 127 L 196 134 L 197 134 L 198 135 L 198 132 L 199 131 L 200 131 L 201 132 L 201 134 L 203 134 L 203 127 L 201 127 L 199 129 L 198 128 L 198 126 L 197 127 " stroke="black" stroke-width="1" fill="none"/>
<path d="M 202 127 L 203 128 L 203 133 L 202 134 L 201 133 L 201 131 L 200 130 L 200 129 " stroke="black" stroke-width="1" fill="none"/>
<path d="M 197 127 L 198 128 L 198 129 L 199 129 L 200 130 L 199 131 L 198 131 L 198 133 L 197 134 L 196 133 L 196 128 " stroke="black" stroke-width="1" fill="none"/>
<path d="M 171 120 L 169 122 L 169 127 L 171 129 L 175 129 L 177 127 L 177 122 L 175 120 " stroke="black" stroke-width="1" fill="none"/>
<path d="M 171 120 L 174 120 L 177 123 L 177 126 L 174 129 L 171 129 L 169 127 L 169 123 L 170 122 L 170 121 " stroke="black" stroke-width="1" fill="none"/>
<path d="M 173 122 L 171 124 L 171 125 L 173 127 L 174 126 L 174 123 " stroke="black" stroke-width="1" fill="none"/>
<path d="M 173 122 L 174 123 L 174 126 L 173 127 L 171 125 L 171 124 " stroke="black" stroke-width="1" fill="none"/>
<path d="M 182 110 L 181 111 L 181 112 L 180 113 L 180 114 L 179 115 L 180 114 L 180 113 L 181 112 L 181 111 " stroke="black" stroke-width="1" fill="none"/>
<path d="M 181 108 L 180 109 " stroke="black" stroke-width="1" fill="none"/>
<path d="M 182 106 " stroke="black" stroke-width="1" fill="none"/>
<path d="M 211 97 L 209 99 L 209 104 L 211 106 L 215 106 L 217 104 L 217 99 L 215 97 " stroke="black" stroke-width="1" fill="none"/>
<path d="M 211 97 L 214 97 L 217 100 L 217 103 L 214 106 L 211 106 L 209 104 L 209 100 L 210 99 L 210 98 " stroke="black" stroke-width="1" fill="none"/>
<path d="M 213 99 L 211 101 L 211 102 L 213 104 L 214 103 L 214 100 " stroke="black" stroke-width="1" fill="none"/>
<path d="M 213 99 L 214 100 L 214 103 L 213 104 L 211 102 L 211 101 " stroke="black" stroke-width="1" fill="none"/>
<path d="M 221 85 L 219 89 L 233 99 L 226 109 L 219 106 L 225 111 L 217 120 L 206 124 L 210 123 L 212 125 L 210 127 L 205 126 L 210 128 L 216 123 L 212 125 L 212 122 L 218 121 L 218 147 L 233 167 L 233 173 L 234 171 L 235 174 L 232 177 L 235 177 L 234 169 L 256 175 L 260 181 L 264 200 L 267 201 L 269 196 L 260 175 L 272 160 L 268 161 L 264 167 L 270 160 L 272 161 L 262 172 L 261 170 L 260 175 L 269 197 L 266 201 L 257 175 L 265 145 L 262 136 L 257 133 L 259 113 L 260 133 L 261 124 L 268 131 L 264 134 L 268 131 L 262 123 L 270 130 L 262 167 L 268 144 L 270 148 L 267 143 L 270 129 L 260 120 L 260 113 L 258 112 L 264 109 L 264 104 L 262 102 L 256 104 L 257 118 L 241 104 L 251 106 L 253 104 L 237 99 " stroke="black" stroke-width="1" fill="none"/>
<path d="M 232 176 L 233 175 L 234 175 L 235 176 L 234 177 L 233 177 " stroke="black" stroke-width="1" fill="none"/>
<path d="M 235 168 L 236 167 L 239 167 L 240 168 L 242 168 L 243 169 L 246 169 L 247 170 L 249 170 L 250 171 L 252 171 L 253 172 L 255 172 L 256 173 L 257 173 L 258 174 L 257 175 L 254 175 L 253 174 L 251 174 L 250 173 L 248 173 L 247 172 L 245 172 L 244 171 L 242 171 L 241 170 L 239 170 L 238 169 L 236 169 " stroke="black" stroke-width="1" fill="none"/>
<path d="M 258 134 L 260 136 L 260 137 L 262 139 L 262 140 L 265 143 L 265 145 L 264 146 L 264 149 L 263 150 L 263 154 L 262 155 L 262 158 L 261 159 L 261 163 L 260 164 L 260 167 L 259 168 L 259 172 L 258 173 L 256 173 L 255 172 L 253 172 L 252 171 L 250 171 L 249 170 L 247 170 L 246 169 L 243 169 L 242 168 L 240 168 L 239 167 L 237 167 L 235 165 L 235 143 L 237 141 L 239 141 L 240 140 L 242 140 L 243 139 L 246 139 L 247 138 L 249 138 L 250 137 L 252 137 L 253 136 L 255 136 L 256 135 L 257 135 " stroke="black" stroke-width="1" fill="none"/>
<path d="M 221 125 L 222 126 L 222 127 L 224 129 L 224 130 L 227 133 L 227 134 L 229 136 L 229 137 L 232 140 L 232 141 L 233 142 L 233 161 L 232 162 L 231 161 L 231 160 L 229 158 L 229 157 L 227 155 L 227 154 L 224 151 L 224 150 L 222 148 L 222 147 L 220 145 L 220 126 " stroke="black" stroke-width="1" fill="none"/>
<path d="M 260 123 L 261 122 L 262 123 L 261 124 " stroke="black" stroke-width="1" fill="none"/>
<path d="M 231 116 L 232 115 L 235 115 L 236 116 L 235 117 L 232 117 " stroke="black" stroke-width="1" fill="none"/>
<path d="M 226 111 L 227 112 L 224 115 L 224 116 L 220 120 L 220 121 L 221 122 L 220 123 L 220 146 L 219 147 L 218 146 L 218 119 L 222 115 L 222 114 L 225 111 " stroke="black" stroke-width="1" fill="none"/>
<path d="M 227 111 L 228 110 L 229 111 L 230 111 L 232 113 L 233 113 L 234 114 L 233 115 L 231 115 L 229 113 L 228 113 L 227 112 " stroke="black" stroke-width="1" fill="none"/>
<path d="M 258 102 L 261 102 L 264 105 L 264 108 L 261 111 L 259 111 L 258 110 L 257 110 L 256 109 L 256 105 L 257 104 L 257 103 " stroke="black" stroke-width="1" fill="none"/>
<path d="M 260 104 L 258 106 L 258 107 L 260 109 L 261 108 L 261 105 " stroke="black" stroke-width="1" fill="none"/>
<path d="M 260 104 L 261 105 L 261 108 L 260 109 L 258 107 L 258 106 " stroke="black" stroke-width="1" fill="none"/>
<path d="M 240 103 L 241 102 L 242 103 L 241 104 " stroke="black" stroke-width="1" fill="none"/>
<path d="M 235 101 L 238 105 L 258 122 L 258 131 L 256 133 L 238 139 L 234 139 L 235 140 L 254 133 L 257 133 L 258 134 L 255 136 L 235 142 L 235 166 L 236 167 L 234 169 L 233 166 L 228 161 L 219 147 L 220 146 L 223 149 L 225 153 L 233 163 L 233 141 L 220 124 L 221 122 L 225 126 L 231 135 L 227 128 L 220 120 L 223 118 L 227 112 L 231 115 L 231 118 L 232 117 L 236 117 L 236 115 L 231 111 L 228 110 " stroke="black" stroke-width="1" fill="none"/>
<path d="M 234 136 L 234 137 L 235 137 L 235 136 " stroke="black" stroke-width="1" fill="none"/>
<path d="M 235 127 L 235 133 L 234 134 L 233 133 L 233 128 L 233 134 L 235 134 " stroke="black" stroke-width="1" fill="none"/>
<path d="M 232 124 L 232 126 L 233 126 L 232 125 L 233 124 L 234 124 L 235 125 L 235 124 " stroke="black" stroke-width="1" fill="none"/>
<path d="M 232 120 L 232 121 L 233 120 L 235 122 L 236 121 L 235 120 L 234 121 L 233 120 " stroke="black" stroke-width="1" fill="none"/>
<path d="M 226 93 L 228 91 L 236 99 L 239 99 L 240 100 L 242 100 L 243 101 L 246 101 L 249 103 L 251 103 L 252 104 L 252 105 L 251 106 L 250 105 L 248 105 L 247 104 L 245 104 L 244 103 L 242 103 L 241 102 L 239 102 L 243 106 L 244 106 L 252 114 L 253 114 L 258 119 L 257 120 L 256 120 L 252 116 L 251 116 L 243 108 L 242 108 L 237 103 L 237 102 L 236 101 L 234 101 L 233 102 L 232 105 L 230 107 L 230 108 L 227 111 L 225 111 L 223 109 L 222 109 L 220 107 L 221 106 L 224 107 L 226 109 L 228 107 L 229 104 L 233 99 L 228 94 L 227 94 " stroke="black" stroke-width="1" fill="none"/>
<path d="M 222 85 L 228 91 L 226 93 L 225 92 L 224 92 L 222 90 L 221 90 L 219 88 " stroke="black" stroke-width="1" fill="none"/>
<path d="M 174 74 " stroke="black" stroke-width="1" fill="none"/>
<path d="M 172 74 " stroke="black" stroke-width="1" fill="none"/>
<path d="M 146 73 L 147 74 " stroke="black" stroke-width="1" fill="none"/>
<path d="M 218 72 L 216 72 L 216 74 L 217 74 L 218 75 L 217 76 L 214 76 L 212 78 L 212 83 L 214 85 L 217 85 L 218 84 L 219 84 L 219 83 L 220 82 L 220 78 L 218 76 " stroke="black" stroke-width="1" fill="none"/>
<path d="M 214 76 L 217 76 L 220 79 L 220 82 L 217 85 L 214 85 L 212 83 L 212 79 L 213 78 L 213 77 " stroke="black" stroke-width="1" fill="none"/>
<path d="M 216 78 L 214 80 L 214 81 L 216 83 L 217 82 L 217 79 " stroke="black" stroke-width="1" fill="none"/>
<path d="M 216 78 L 217 79 L 217 82 L 216 83 L 214 81 L 214 80 " stroke="black" stroke-width="1" fill="none"/>
<path d="M 216 73 L 217 72 L 218 73 L 217 74 " stroke="black" stroke-width="1" fill="none"/>
<path d="M 145 71 " stroke="black" stroke-width="1" fill="none"/>
<path d="M 142 70 L 143 71 L 143 72 L 144 73 L 143 72 L 143 71 " stroke="black" stroke-width="1" fill="none"/>
<path d="M 143 68 L 144 69 " stroke="black" stroke-width="1" fill="none"/>
<path d="M 141 68 " stroke="black" stroke-width="1" fill="none"/>
<path d="M 142 66 " stroke="black" stroke-width="1" fill="none"/>
<path d="M 140 66 " stroke="black" stroke-width="1" fill="none"/>
<path d="M 177 65 L 176 66 L 176 67 L 175 68 L 175 69 L 174 70 L 174 71 L 173 72 L 174 71 L 175 72 L 176 71 L 175 72 L 174 71 L 174 70 L 175 69 L 175 68 L 176 67 L 176 66 " stroke="black" stroke-width="1" fill="none"/>
<path d="M 178 63 " stroke="black" stroke-width="1" fill="none"/>
<path d="M 140 63 " stroke="black" stroke-width="1" fill="none"/>
<path d="M 138 63 " stroke="black" stroke-width="1" fill="none"/>
<path d="M 214 62 L 214 69 L 216 69 L 216 67 L 217 66 L 218 66 L 219 67 L 219 69 L 221 69 L 221 62 L 219 62 L 217 64 L 216 63 L 216 61 L 215 62 " stroke="black" stroke-width="1" fill="none"/>
<path d="M 220 62 L 221 63 L 221 68 L 220 69 L 219 68 L 219 66 L 218 65 L 218 64 " stroke="black" stroke-width="1" fill="none"/>
<path d="M 215 62 L 216 63 L 216 64 L 217 64 L 218 65 L 217 66 L 216 66 L 216 68 L 215 69 L 214 68 L 214 63 " stroke="black" stroke-width="1" fill="none"/>
<path d="M 137 61 " stroke="black" stroke-width="1" fill="none"/>
<path d="M 149 37 L 149 39 L 169 39 L 169 37 " stroke="black" stroke-width="1" fill="none"/>
<path d="M 149 38 L 150 37 L 168 37 L 169 38 L 168 39 L 150 39 " stroke="black" stroke-width="1" fill="none"/>
<path d="M 147 35 L 143 41 L 141 46 L 139 48 L 138 51 L 135 55 L 135 58 L 136 59 L 137 58 L 138 59 L 139 58 L 149 74 L 149 72 L 143 64 L 139 57 L 138 58 L 136 58 L 135 57 L 135 55 L 142 45 L 145 38 L 148 35 L 170 35 L 173 38 L 177 44 L 178 47 L 180 49 L 183 55 L 183 58 L 182 59 L 181 58 L 180 59 L 179 57 L 175 64 L 173 66 L 170 72 L 170 74 L 174 65 L 179 58 L 180 59 L 179 61 L 180 60 L 181 62 L 177 69 L 183 58 L 183 54 L 180 50 L 178 45 L 174 40 L 173 37 L 171 35 " stroke="black" stroke-width="1" fill="none"/>
<path d="M 180 59 L 181 58 L 182 59 L 182 60 L 181 61 L 180 60 " stroke="black" stroke-width="1" fill="none"/>
<path d="M 145 33 L 132 57 L 145 80 L 170 80 L 183 100 L 173 118 L 183 101 L 171 80 L 173 76 L 170 78 L 148 78 L 145 75 L 147 78 L 171 79 L 146 80 L 132 56 L 146 33 L 172 33 L 185 53 L 186 57 L 173 79 L 186 101 L 200 102 L 184 103 L 183 108 L 186 103 L 187 106 L 179 118 L 176 117 L 179 111 L 175 118 L 179 119 L 189 103 L 206 103 L 206 101 L 187 101 L 173 79 L 186 58 L 174 34 " stroke="black" stroke-width="1" fill="none"/>
<path d="M 200 102 L 201 101 L 205 101 L 206 102 L 205 103 L 201 103 " stroke="black" stroke-width="1" fill="none"/>
</svg>