<svg xmlns="http://www.w3.org/2000/svg" width="300" height="300" viewBox="0 0 300 300">
<path d="M 277 217 L 276 217 L 275 216 L 275 217 L 274 218 L 274 219 L 273 220 L 273 221 L 272 222 L 272 223 L 271 224 L 271 226 L 270 227 L 270 228 L 269 229 L 269 230 L 268 231 L 268 232 L 267 233 L 267 234 L 265 236 L 263 236 L 262 235 L 251 235 L 250 234 L 245 234 L 246 235 L 245 236 L 248 236 L 249 237 L 257 237 L 258 238 L 268 238 L 268 237 L 269 236 L 269 235 L 270 234 L 270 233 L 271 232 L 271 231 L 272 230 L 272 229 L 273 228 L 273 227 L 274 226 L 274 224 L 275 223 L 275 222 L 276 221 L 276 220 L 277 219 " stroke="black" stroke-width="1" fill="none"/>
<path d="M 277 218 L 276 219 L 276 221 L 275 222 L 275 223 L 274 224 L 274 225 L 273 226 L 273 227 L 272 228 L 272 230 L 271 231 L 271 232 L 270 233 L 270 234 L 269 235 L 269 236 L 267 238 L 258 238 L 257 237 L 249 237 L 248 236 L 247 236 L 246 235 L 247 234 L 250 234 L 251 235 L 262 235 L 263 236 L 266 236 L 267 235 L 267 234 L 268 233 L 268 231 L 269 230 L 269 229 L 270 228 L 270 227 L 271 226 L 271 225 L 272 224 L 272 223 L 273 222 L 273 220 L 274 219 L 274 218 L 275 217 L 276 217 " stroke="black" stroke-width="1" fill="none"/>
<path d="M 278 206 L 276 208 L 276 213 L 277 214 L 278 214 L 279 215 L 282 215 L 284 213 L 284 208 L 282 206 " stroke="black" stroke-width="1" fill="none"/>
<path d="M 278 206 L 281 206 L 284 209 L 284 212 L 281 215 L 279 215 L 278 214 L 277 214 L 276 213 L 276 209 L 277 208 L 277 207 " stroke="black" stroke-width="1" fill="none"/>
<path d="M 280 208 L 278 210 L 278 211 L 280 213 L 281 212 L 281 209 " stroke="black" stroke-width="1" fill="none"/>
<path d="M 280 208 L 281 209 L 281 212 L 280 213 L 278 211 L 278 210 " stroke="black" stroke-width="1" fill="none"/>
<path d="M 240 200 " stroke="black" stroke-width="1" fill="none"/>
<path d="M 238 199 " stroke="black" stroke-width="1" fill="none"/>
<path d="M 243 198 " stroke="black" stroke-width="1" fill="none"/>
<path d="M 245 197 " stroke="black" stroke-width="1" fill="none"/>
<path d="M 241 197 L 240 198 " stroke="black" stroke-width="1" fill="none"/>
<path d="M 247 196 " stroke="black" stroke-width="1" fill="none"/>
<path d="M 243 196 " stroke="black" stroke-width="1" fill="none"/>
<path d="M 245 195 " stroke="black" stroke-width="1" fill="none"/>
<path d="M 250 194 L 249 195 " stroke="black" stroke-width="1" fill="none"/>
<path d="M 247 194 " stroke="black" stroke-width="1" fill="none"/>
<path d="M 252 193 " stroke="black" stroke-width="1" fill="none"/>
<path d="M 250 192 " stroke="black" stroke-width="1" fill="none"/>
<path d="M 252 191 " stroke="black" stroke-width="1" fill="none"/>
<path d="M 252 189 L 250 189 L 248 191 L 247 191 L 246 192 L 245 192 L 244 193 L 243 193 L 242 194 L 241 194 L 239 196 L 238 196 L 237 197 L 236 197 L 235 198 L 234 198 L 233 199 L 234 199 L 235 198 L 236 198 L 237 197 L 238 197 L 240 195 L 241 195 L 242 194 L 243 194 L 244 193 L 245 193 L 246 192 L 247 192 L 249 190 L 250 190 L 251 189 " stroke="black" stroke-width="1" fill="none"/>
<path d="M 208 170 L 208 190 L 209 191 L 210 191 L 211 192 L 212 192 L 213 193 L 214 193 L 216 195 L 217 195 L 218 196 L 219 196 L 220 197 L 221 197 L 223 199 L 224 199 L 226 201 L 227 201 L 229 203 L 230 203 L 231 204 L 233 204 L 234 203 L 235 203 L 236 202 L 237 202 L 238 201 L 237 202 L 236 202 L 235 201 L 236 200 L 235 201 L 234 201 L 235 201 L 236 202 L 235 203 L 234 203 L 233 204 L 231 204 L 229 202 L 228 202 L 226 200 L 225 200 L 223 198 L 222 198 L 220 196 L 219 196 L 218 195 L 217 195 L 216 194 L 215 194 L 214 193 L 213 193 L 212 192 L 211 192 L 208 189 " stroke="black" stroke-width="1" fill="none"/>
<path d="M 212 165 L 211 165 L 212 166 L 212 187 L 211 188 L 210 187 L 210 167 L 210 188 L 212 188 " stroke="black" stroke-width="1" fill="none"/>
<path d="M 255 162 L 255 163 L 256 164 L 256 171 L 257 172 L 257 189 L 254 192 L 255 191 L 256 191 L 257 190 L 257 172 L 256 171 L 256 163 " stroke="black" stroke-width="1" fill="none"/>
<path d="M 252 162 " stroke="black" stroke-width="1" fill="none"/>
<path d="M 250 161 " stroke="black" stroke-width="1" fill="none"/>
<path d="M 252 160 " stroke="black" stroke-width="1" fill="none"/>
<path d="M 250 159 " stroke="black" stroke-width="1" fill="none"/>
<path d="M 247 159 " stroke="black" stroke-width="1" fill="none"/>
<path d="M 245 158 " stroke="black" stroke-width="1" fill="none"/>
<path d="M 98 158 " stroke="black" stroke-width="1" fill="none"/>
<path d="M 243 157 " stroke="black" stroke-width="1" fill="none"/>
<path d="M 150 157 " stroke="black" stroke-width="1" fill="none"/>
<path d="M 100 157 " stroke="black" stroke-width="1" fill="none"/>
<path d="M 245 156 " stroke="black" stroke-width="1" fill="none"/>
<path d="M 241 156 " stroke="black" stroke-width="1" fill="none"/>
<path d="M 152 156 " stroke="black" stroke-width="1" fill="none"/>
<path d="M 95 156 " stroke="black" stroke-width="1" fill="none"/>
<path d="M 243 155 " stroke="black" stroke-width="1" fill="none"/>
<path d="M 147 155 " stroke="black" stroke-width="1" fill="none"/>
<path d="M 97 155 L 98 156 " stroke="black" stroke-width="1" fill="none"/>
<path d="M 93 155 " stroke="black" stroke-width="1" fill="none"/>
<path d="M 241 154 " stroke="black" stroke-width="1" fill="none"/>
<path d="M 238 154 " stroke="black" stroke-width="1" fill="none"/>
<path d="M 149 154 L 150 155 " stroke="black" stroke-width="1" fill="none"/>
<path d="M 145 154 " stroke="black" stroke-width="1" fill="none"/>
<path d="M 95 154 " stroke="black" stroke-width="1" fill="none"/>
<path d="M 91 154 " stroke="black" stroke-width="1" fill="none"/>
<path d="M 236 153 " stroke="black" stroke-width="1" fill="none"/>
<path d="M 147 153 " stroke="black" stroke-width="1" fill="none"/>
<path d="M 93 153 " stroke="black" stroke-width="1" fill="none"/>
<path d="M 145 152 " stroke="black" stroke-width="1" fill="none"/>
<path d="M 91 152 " stroke="black" stroke-width="1" fill="none"/>
<path d="M 88 152 L 89 153 " stroke="black" stroke-width="1" fill="none"/>
<path d="M 143 151 " stroke="black" stroke-width="1" fill="none"/>
<path d="M 140 151 " stroke="black" stroke-width="1" fill="none"/>
<path d="M 86 151 " stroke="black" stroke-width="1" fill="none"/>
<path d="M 138 150 " stroke="black" stroke-width="1" fill="none"/>
<path d="M 88 150 " stroke="black" stroke-width="1" fill="none"/>
<path d="M 140 149 " stroke="black" stroke-width="1" fill="none"/>
<path d="M 86 149 " stroke="black" stroke-width="1" fill="none"/>
<path d="M 138 148 " stroke="black" stroke-width="1" fill="none"/>
<path d="M 86 147 L 87 147 L 88 148 L 89 148 L 91 150 L 92 150 L 93 151 L 94 151 L 95 152 L 96 152 L 97 153 L 98 153 L 100 155 L 101 155 L 102 156 L 103 156 L 104 157 L 105 157 L 104 156 L 103 156 L 102 155 L 101 155 L 100 154 L 99 154 L 97 152 L 96 152 L 95 151 L 94 151 L 93 150 L 92 150 L 91 149 L 90 149 L 88 147 " stroke="black" stroke-width="1" fill="none"/>
<path d="M 138 146 L 139 146 L 140 147 L 141 147 L 143 149 L 144 149 L 145 150 L 146 150 L 147 151 L 148 151 L 149 152 L 150 152 L 152 154 L 153 154 L 154 155 L 155 155 L 156 156 L 157 156 L 156 155 L 155 155 L 154 154 L 153 154 L 152 153 L 151 153 L 149 151 L 148 151 L 147 150 L 146 150 L 145 149 L 144 149 L 143 148 L 142 148 L 140 146 " stroke="black" stroke-width="1" fill="none"/>
<path d="M 138 119 " stroke="black" stroke-width="1" fill="none"/>
<path d="M 140 118 " stroke="black" stroke-width="1" fill="none"/>
<path d="M 86 118 " stroke="black" stroke-width="1" fill="none"/>
<path d="M 138 117 " stroke="black" stroke-width="1" fill="none"/>
<path d="M 88 117 " stroke="black" stroke-width="1" fill="none"/>
<path d="M 143 116 " stroke="black" stroke-width="1" fill="none"/>
<path d="M 140 116 " stroke="black" stroke-width="1" fill="none"/>
<path d="M 86 116 " stroke="black" stroke-width="1" fill="none"/>
<path d="M 179 115 L 179 122 L 181 122 L 181 121 L 182 120 L 183 121 L 183 122 L 185 122 L 186 121 L 186 115 " stroke="black" stroke-width="1" fill="none"/>
<path d="M 182 116 L 183 115 L 184 116 L 183 117 " stroke="black" stroke-width="1" fill="none"/>
<path d="M 179 116 L 180 115 L 181 115 L 182 116 L 182 117 L 183 117 L 185 115 L 186 116 L 186 121 L 185 122 L 184 122 L 183 121 L 183 120 L 182 120 L 180 122 L 179 121 " stroke="black" stroke-width="1" fill="none"/>
<path d="M 145 115 " stroke="black" stroke-width="1" fill="none"/>
<path d="M 91 115 " stroke="black" stroke-width="1" fill="none"/>
<path d="M 147 114 " stroke="black" stroke-width="1" fill="none"/>
<path d="M 93 114 " stroke="black" stroke-width="1" fill="none"/>
<path d="M 89 114 L 88 115 " stroke="black" stroke-width="1" fill="none"/>
<path d="M 145 113 " stroke="black" stroke-width="1" fill="none"/>
<path d="M 95 113 " stroke="black" stroke-width="1" fill="none"/>
<path d="M 91 113 " stroke="black" stroke-width="1" fill="none"/>
<path d="M 150 112 L 149 113 " stroke="black" stroke-width="1" fill="none"/>
<path d="M 147 112 " stroke="black" stroke-width="1" fill="none"/>
<path d="M 93 112 " stroke="black" stroke-width="1" fill="none"/>
<path d="M 157 111 L 156 111 L 155 112 L 154 112 L 153 113 L 152 113 L 150 115 L 149 115 L 148 116 L 147 116 L 146 117 L 145 117 L 144 118 L 143 118 L 141 120 L 140 120 L 139 121 L 138 121 L 140 121 L 142 119 L 143 119 L 144 118 L 145 118 L 146 117 L 147 117 L 148 116 L 149 116 L 151 114 L 152 114 L 153 113 L 154 113 L 155 112 L 156 112 " stroke="black" stroke-width="1" fill="none"/>
<path d="M 152 111 " stroke="black" stroke-width="1" fill="none"/>
<path d="M 98 111 L 97 112 " stroke="black" stroke-width="1" fill="none"/>
<path d="M 95 111 " stroke="black" stroke-width="1" fill="none"/>
<path d="M 150 110 " stroke="black" stroke-width="1" fill="none"/>
<path d="M 105 110 L 104 110 L 103 111 L 102 111 L 101 112 L 100 112 L 98 114 L 97 114 L 96 115 L 95 115 L 94 116 L 93 116 L 92 117 L 91 117 L 89 119 L 88 119 L 87 120 L 86 120 L 88 120 L 90 118 L 91 118 L 92 117 L 93 117 L 94 116 L 95 116 L 96 115 L 97 115 L 99 113 L 100 113 L 101 112 L 102 112 L 103 111 L 104 111 " stroke="black" stroke-width="1" fill="none"/>
<path d="M 100 110 " stroke="black" stroke-width="1" fill="none"/>
<path d="M 98 109 " stroke="black" stroke-width="1" fill="none"/>
<path d="M 50 109 L 49 109 L 48 110 L 47 110 L 46 111 L 45 111 L 44 112 L 43 112 L 42 113 L 41 113 L 39 115 L 38 115 L 37 116 L 36 116 L 34 118 L 33 118 L 32 119 L 31 119 L 33 119 L 35 117 L 36 117 L 37 116 L 38 116 L 40 114 L 41 114 L 42 113 L 43 113 L 45 111 L 47 111 L 48 110 L 49 110 " stroke="black" stroke-width="1" fill="none"/>
<path d="M 182 107 L 181 108 L 182 109 L 181 110 L 182 111 L 184 111 L 185 110 L 185 108 L 184 107 " stroke="black" stroke-width="1" fill="none"/>
<path d="M 182 110 L 182 108 L 183 107 L 185 109 L 183 111 " stroke="black" stroke-width="1" fill="none"/>
<path d="M 49 107 L 47 107 L 46 108 L 45 108 L 43 110 L 42 110 L 41 111 L 40 111 L 39 112 L 38 112 L 37 113 L 36 113 L 34 115 L 33 115 L 32 116 L 31 116 L 30 117 L 31 117 L 32 116 L 33 116 L 35 114 L 36 114 L 37 113 L 38 113 L 40 111 L 41 111 L 42 110 L 43 110 L 44 109 L 45 109 L 46 108 L 47 108 L 48 107 " stroke="black" stroke-width="1" fill="none"/>
<path d="M 273 203 L 259 190 L 258 161 L 233 146 L 233 118 L 209 104 L 189 114 L 209 107 L 228 118 L 228 149 L 208 161 L 184 146 L 184 125 L 178 124 L 178 144 L 181 125 L 182 146 L 159 161 L 152 158 L 159 161 L 184 147 L 208 161 L 233 147 L 256 160 L 259 192 L 233 207 L 237 227 L 231 207 L 206 191 L 207 164 L 234 150 L 234 155 L 252 164 L 232 149 L 209 163 L 183 149 L 158 164 L 133 149 L 106 165 L 79 149 L 80 119 L 84 150 L 84 117 L 79 119 L 63 110 L 79 120 L 79 150 L 105 165 L 133 149 L 157 164 L 183 149 L 204 161 L 206 192 L 231 207 L 237 238 L 243 236 L 243 231 L 236 228 L 234 206 L 257 193 L 272 205 L 259 192 " stroke="black" stroke-width="1" fill="none"/>
<path d="M 238 229 L 240 229 L 243 232 L 243 235 L 240 238 L 237 238 L 235 236 L 235 232 " stroke="black" stroke-width="1" fill="none"/>
<path d="M 239 231 L 237 233 L 237 234 L 239 236 L 240 235 L 240 232 " stroke="black" stroke-width="1" fill="none"/>
<path d="M 239 231 L 240 232 L 240 235 L 239 236 L 237 234 L 237 233 " stroke="black" stroke-width="1" fill="none"/>
<path d="M 183 125 L 184 126 L 184 146 L 183 147 L 182 146 L 182 126 " stroke="black" stroke-width="1" fill="none"/>
<path d="M 179 125 L 180 126 L 180 143 L 179 144 L 178 143 L 178 126 " stroke="black" stroke-width="1" fill="none"/>
<path d="M 190 114 L 192 112 L 193 112 L 194 111 L 195 111 L 196 110 L 199 109 L 201 107 L 202 107 L 205 105 L 207 105 L 208 104 L 209 105 L 211 105 L 213 107 L 216 108 L 218 110 L 219 110 L 220 111 L 223 112 L 225 114 L 226 114 L 227 115 L 228 115 L 230 117 L 231 117 L 233 119 L 233 146 L 232 147 L 231 146 L 231 120 L 230 119 L 229 119 L 227 117 L 224 116 L 222 114 L 221 114 L 220 113 L 217 112 L 215 110 L 212 109 L 210 107 L 206 107 L 205 108 L 204 108 L 202 110 L 201 110 L 200 111 L 199 111 L 198 112 L 195 113 L 193 115 L 192 115 L 191 116 L 190 115 " stroke="black" stroke-width="1" fill="none"/>
<path d="M 106 104 L 104 106 L 100 108 L 101 107 L 103 108 L 102 109 L 104 108 L 102 107 L 106 104 L 109 107 L 112 108 L 119 113 L 129 118 L 132 121 L 132 146 L 129 149 L 119 154 L 117 156 L 114 157 L 107 162 L 105 162 L 102 160 L 104 159 L 102 158 L 103 159 L 102 160 L 100 159 L 105 162 L 107 162 L 111 160 L 113 158 L 116 157 L 118 155 L 121 154 L 123 152 L 128 150 L 130 148 L 132 147 L 134 147 L 135 148 L 134 146 L 134 121 L 135 119 L 134 120 L 132 120 L 130 119 L 128 117 L 123 115 L 121 113 L 118 112 L 116 110 L 113 109 " stroke="black" stroke-width="1" fill="none"/>
<path d="M 133 120 L 134 121 L 134 146 L 133 147 L 132 146 L 132 121 " stroke="black" stroke-width="1" fill="none"/>
<path d="M 55 99 L 53 101 L 53 106 L 55 108 L 59 108 L 61 106 L 61 101 L 59 99 " stroke="black" stroke-width="1" fill="none"/>
<path d="M 55 99 L 58 99 L 61 102 L 61 105 L 58 108 L 55 108 L 53 106 L 53 102 L 54 101 L 54 100 " stroke="black" stroke-width="1" fill="none"/>
<path d="M 57 101 L 55 103 L 55 104 L 57 106 L 58 105 L 58 102 " stroke="black" stroke-width="1" fill="none"/>
<path d="M 57 101 L 58 102 L 58 105 L 57 106 L 55 104 L 55 103 " stroke="black" stroke-width="1" fill="none"/>
<path d="M 64 108 L 80 117 L 95 109 L 105 102 L 107 102 L 133 118 L 158 103 L 174 112 L 176 115 L 175 116 L 159 106 L 152 109 L 154 108 L 155 109 L 154 110 L 156 109 L 154 108 L 159 106 L 174 116 L 176 116 L 177 114 L 163 105 L 157 103 L 133 118 L 107 102 L 108 81 L 106 80 L 110 79 L 112 77 L 112 72 L 110 70 L 106 70 L 104 72 L 104 77 L 106 79 L 106 93 L 105 94 L 105 101 L 102 104 L 80 117 L 75 113 " stroke="black" stroke-width="1" fill="none"/>
<path d="M 107 89 L 108 90 L 108 98 L 107 99 L 107 101 L 106 102 L 105 101 L 105 94 L 106 93 L 106 90 " stroke="black" stroke-width="1" fill="none"/>
<path d="M 107 81 L 108 82 L 108 88 L 107 89 L 106 88 L 106 82 " stroke="black" stroke-width="1" fill="none"/>
<path d="M 106 70 L 109 70 L 112 73 L 112 76 L 109 79 L 107 79 L 106 78 L 105 78 L 104 77 L 104 73 L 105 72 L 105 71 " stroke="black" stroke-width="1" fill="none"/>
<path d="M 108 72 L 106 74 L 106 75 L 108 77 L 109 76 L 109 73 " stroke="black" stroke-width="1" fill="none"/>
<path d="M 108 72 L 109 73 L 109 76 L 108 77 L 106 75 L 106 74 " stroke="black" stroke-width="1" fill="none"/>
<path d="M 82 62 L 83 63 L 84 63 L 85 64 L 86 64 L 88 66 L 89 66 L 90 67 L 91 67 L 93 69 L 94 69 L 95 70 L 96 70 L 98 72 L 100 72 L 99 72 L 98 71 L 97 71 L 95 69 L 94 69 L 93 68 L 92 68 L 90 66 L 89 66 L 88 65 L 87 65 L 85 63 L 84 63 L 83 62 " stroke="black" stroke-width="1" fill="none"/>
<path d="M 83 60 L 84 60 L 85 61 L 86 61 L 88 63 L 89 63 L 90 64 L 91 64 L 93 66 L 94 66 L 95 67 L 96 67 L 97 68 L 98 68 L 100 70 L 101 70 L 100 69 L 99 69 L 98 68 L 97 68 L 95 66 L 94 66 L 93 65 L 92 65 L 90 63 L 89 63 L 88 62 L 87 62 L 85 60 " stroke="black" stroke-width="1" fill="none"/>
</svg>