<svg xmlns="http://www.w3.org/2000/svg" width="300" height="300" viewBox="0 0 300 300">
<path d="M 151 201 " stroke="black" stroke-width="1" fill="none"/>
<path d="M 97 201 L 96 202 L 96 203 L 95 204 L 95 209 L 96 210 L 96 211 L 97 212 L 102 212 L 104 210 L 104 203 L 102 201 " stroke="black" stroke-width="1" fill="none"/>
<path d="M 98 201 L 101 201 L 104 204 L 104 209 L 101 212 L 98 212 L 96 210 L 96 209 L 95 208 L 95 205 L 96 204 L 96 203 " stroke="black" stroke-width="1" fill="none"/>
<path d="M 99 203 L 98 204 L 98 205 L 97 206 L 97 207 L 98 208 L 98 209 L 99 210 L 100 209 L 101 209 L 102 208 L 102 205 L 101 204 L 100 204 " stroke="black" stroke-width="1" fill="none"/>
<path d="M 99 204 L 101 204 L 102 205 L 102 208 L 101 209 L 99 209 L 97 207 L 97 206 " stroke="black" stroke-width="1" fill="none"/>
<path d="M 149 200 " stroke="black" stroke-width="1" fill="none"/>
<path d="M 52 200 L 51 201 L 50 201 L 51 201 " stroke="black" stroke-width="1" fill="none"/>
<path d="M 38 200 L 37 201 L 37 202 L 36 203 L 36 208 L 37 209 L 37 210 L 38 211 L 43 211 L 45 209 L 45 202 L 43 200 " stroke="black" stroke-width="1" fill="none"/>
<path d="M 39 200 L 42 200 L 45 203 L 45 208 L 42 211 L 39 211 L 37 209 L 37 208 L 36 207 L 36 204 L 37 203 L 37 202 " stroke="black" stroke-width="1" fill="none"/>
<path d="M 40 202 L 39 203 L 39 204 L 38 205 L 38 206 L 39 207 L 39 208 L 40 209 L 41 208 L 42 208 L 43 207 L 43 204 L 42 203 L 41 203 " stroke="black" stroke-width="1" fill="none"/>
<path d="M 40 203 L 42 203 L 43 204 L 43 207 L 42 208 L 40 208 L 38 206 L 38 205 " stroke="black" stroke-width="1" fill="none"/>
<path d="M 151 199 " stroke="black" stroke-width="1" fill="none"/>
<path d="M 149 198 " stroke="black" stroke-width="1" fill="none"/>
<path d="M 146 198 " stroke="black" stroke-width="1" fill="none"/>
<path d="M 144 197 " stroke="black" stroke-width="1" fill="none"/>
<path d="M 61 197 L 60 198 L 59 198 L 57 200 L 56 200 L 55 201 L 54 201 L 52 203 L 50 203 L 49 204 L 50 204 L 51 203 L 52 203 L 54 201 L 55 201 L 56 200 L 57 200 L 59 198 L 60 198 " stroke="black" stroke-width="1" fill="none"/>
<path d="M 57 197 L 56 198 L 55 198 L 54 199 L 55 198 L 56 198 " stroke="black" stroke-width="1" fill="none"/>
<path d="M 146 196 " stroke="black" stroke-width="1" fill="none"/>
<path d="M 144 195 " stroke="black" stroke-width="1" fill="none"/>
<path d="M 141 195 L 142 196 " stroke="black" stroke-width="1" fill="none"/>
<path d="M 139 194 " stroke="black" stroke-width="1" fill="none"/>
<path d="M 66 194 L 65 195 L 64 195 L 63 196 L 64 195 L 65 195 " stroke="black" stroke-width="1" fill="none"/>
<path d="M 62 194 L 61 195 L 60 195 L 59 196 L 60 195 L 61 195 " stroke="black" stroke-width="1" fill="none"/>
<path d="M 216 193 L 215 194 L 215 195 L 214 196 L 214 201 L 215 202 L 215 203 L 216 204 L 221 204 L 223 202 L 223 195 L 221 193 " stroke="black" stroke-width="1" fill="none"/>
<path d="M 217 193 L 220 193 L 223 196 L 223 201 L 220 204 L 217 204 L 215 202 L 215 201 L 214 200 L 214 197 L 215 196 L 215 195 " stroke="black" stroke-width="1" fill="none"/>
<path d="M 218 195 L 217 196 L 217 197 L 216 198 L 216 199 L 217 200 L 217 201 L 218 202 L 219 201 L 220 201 L 221 200 L 221 197 L 220 196 L 219 196 " stroke="black" stroke-width="1" fill="none"/>
<path d="M 218 196 L 220 196 L 221 197 L 221 200 L 220 201 L 218 201 L 216 199 L 216 198 " stroke="black" stroke-width="1" fill="none"/>
<path d="M 141 193 " stroke="black" stroke-width="1" fill="none"/>
<path d="M 137 193 " stroke="black" stroke-width="1" fill="none"/>
<path d="M 92 204 L 90 204 L 88 202 L 87 202 L 85 200 L 84 200 L 83 199 L 82 199 L 81 198 L 80 198 L 79 197 L 78 197 L 76 195 L 75 195 L 74 194 L 73 194 L 72 193 L 71 193 L 69 195 L 68 195 L 66 197 L 65 197 L 64 198 L 63 198 L 61 200 L 60 200 L 58 202 L 57 202 L 56 203 L 55 203 L 53 205 L 52 205 L 51 206 L 49 206 L 52 206 L 54 204 L 55 204 L 56 203 L 57 203 L 59 201 L 60 201 L 62 199 L 63 199 L 64 198 L 65 198 L 67 196 L 68 196 L 71 193 L 72 193 L 74 195 L 75 195 L 76 196 L 77 196 L 78 197 L 79 197 L 80 198 L 81 198 L 83 200 L 84 200 L 85 201 L 86 201 L 88 203 L 89 203 L 90 204 " stroke="black" stroke-width="1" fill="none"/>
<path d="M 64 193 " stroke="black" stroke-width="1" fill="none"/>
<path d="M 139 192 " stroke="black" stroke-width="1" fill="none"/>
<path d="M 136 190 L 137 191 " stroke="black" stroke-width="1" fill="none"/>
<path d="M 232 167 L 234 169 L 234 170 L 235 171 L 235 172 L 236 173 L 235 174 L 235 175 L 233 177 L 233 178 L 230 181 L 230 182 L 228 184 L 228 185 L 225 188 L 225 189 L 224 190 L 224 191 L 224 190 L 227 187 L 227 186 L 229 184 L 229 183 L 232 180 L 232 179 L 234 177 L 234 176 L 236 174 L 236 172 L 234 170 L 234 169 " stroke="black" stroke-width="1" fill="none"/>
<path d="M 228 165 L 230 167 " stroke="black" stroke-width="1" fill="none"/>
<path d="M 229 163 L 230 164 " stroke="black" stroke-width="1" fill="none"/>
<path d="M 226 162 L 227 163 " stroke="black" stroke-width="1" fill="none"/>
<path d="M 182 161 L 182 186 L 184 186 L 184 161 " stroke="black" stroke-width="1" fill="none"/>
<path d="M 183 161 L 184 162 L 184 185 L 183 186 L 182 185 L 182 162 " stroke="black" stroke-width="1" fill="none"/>
<path d="M 226 159 L 227 160 " stroke="black" stroke-width="1" fill="none"/>
<path d="M 223 158 L 224 159 " stroke="black" stroke-width="1" fill="none"/>
<path d="M 137 156 L 136 157 " stroke="black" stroke-width="1" fill="none"/>
<path d="M 223 155 L 225 157 " stroke="black" stroke-width="1" fill="none"/>
<path d="M 139 155 " stroke="black" stroke-width="1" fill="none"/>
<path d="M 78 155 L 77 156 " stroke="black" stroke-width="1" fill="none"/>
<path d="M 141 154 " stroke="black" stroke-width="1" fill="none"/>
<path d="M 137 154 " stroke="black" stroke-width="1" fill="none"/>
<path d="M 80 154 " stroke="black" stroke-width="1" fill="none"/>
<path d="M 76 154 L 75 155 L 74 155 L 73 156 L 72 156 L 71 157 L 71 190 L 72 191 L 73 191 L 74 192 L 75 192 L 76 193 L 77 193 L 79 195 L 80 195 L 81 196 L 82 196 L 83 197 L 84 197 L 85 198 L 86 198 L 88 200 L 89 200 L 91 202 L 92 202 L 91 201 L 90 201 L 88 199 L 87 199 L 85 197 L 84 197 L 83 196 L 82 196 L 81 195 L 80 195 L 79 194 L 78 194 L 77 193 L 76 193 L 75 192 L 74 192 L 71 189 L 71 158 L 74 155 L 75 155 " stroke="black" stroke-width="1" fill="none"/>
<path d="M 219 153 L 221 155 " stroke="black" stroke-width="1" fill="none"/>
<path d="M 217 153 L 217 154 L 218 155 L 218 156 L 222 160 L 222 161 L 225 164 L 225 165 L 227 167 L 227 168 L 230 171 L 230 172 L 231 173 L 232 172 L 233 172 L 232 171 L 232 170 L 231 169 L 232 170 L 232 171 L 231 172 L 229 170 L 229 169 L 226 166 L 226 165 L 224 163 L 224 162 L 221 159 L 221 158 L 217 154 " stroke="black" stroke-width="1" fill="none"/>
<path d="M 139 153 " stroke="black" stroke-width="1" fill="none"/>
<path d="M 82 153 " stroke="black" stroke-width="1" fill="none"/>
<path d="M 144 152 " stroke="black" stroke-width="1" fill="none"/>
<path d="M 146 151 " stroke="black" stroke-width="1" fill="none"/>
<path d="M 142 151 L 141 152 " stroke="black" stroke-width="1" fill="none"/>
<path d="M 85 151 " stroke="black" stroke-width="1" fill="none"/>
<path d="M 144 150 " stroke="black" stroke-width="1" fill="none"/>
<path d="M 87 150 " stroke="black" stroke-width="1" fill="none"/>
<path d="M 83 150 L 82 151 L 81 151 L 80 152 L 79 152 L 78 153 L 79 152 L 80 152 L 81 151 L 82 151 " stroke="black" stroke-width="1" fill="none"/>
<path d="M 149 149 " stroke="black" stroke-width="1" fill="none"/>
<path d="M 146 149 " stroke="black" stroke-width="1" fill="none"/>
<path d="M 85 149 " stroke="black" stroke-width="1" fill="none"/>
<path d="M 151 148 " stroke="black" stroke-width="1" fill="none"/>
<path d="M 87 148 " stroke="black" stroke-width="1" fill="none"/>
<path d="M 149 147 " stroke="black" stroke-width="1" fill="none"/>
<path d="M 92 147 L 91 148 L 90 148 L 89 149 L 90 148 L 91 148 " stroke="black" stroke-width="1" fill="none"/>
<path d="M 151 146 " stroke="black" stroke-width="1" fill="none"/>
<path d="M 99 146 L 98 146 L 97 147 L 96 147 L 95 148 L 94 148 L 92 150 L 91 150 L 90 151 L 89 151 L 88 152 L 87 152 L 86 153 L 85 153 L 83 155 L 82 155 L 81 156 L 80 156 L 78 158 L 76 158 L 79 158 L 81 156 L 82 156 L 84 154 L 85 154 L 86 153 L 87 153 L 88 152 L 89 152 L 91 150 L 92 150 L 93 149 L 94 149 L 95 148 L 96 148 L 97 147 L 98 147 " stroke="black" stroke-width="1" fill="none"/>
<path d="M 94 146 " stroke="black" stroke-width="1" fill="none"/>
<path d="M 90 146 " stroke="black" stroke-width="1" fill="none"/>
<path d="M 92 145 " stroke="black" stroke-width="1" fill="none"/>
<path d="M 222 153 L 219 149 L 215 149 L 186 158 L 159 141 L 154 144 L 156 145 L 154 146 L 155 148 L 135 159 L 156 148 L 155 146 L 157 145 L 155 144 L 159 141 L 186 159 L 186 188 L 160 205 L 155 203 L 157 202 L 155 201 L 156 199 L 135 188 L 155 199 L 154 201 L 156 202 L 154 203 L 158 205 L 186 189 L 210 197 L 204 197 L 187 191 L 159 208 L 130 191 L 108 204 L 130 191 L 158 208 L 187 191 L 211 198 L 211 196 L 188 188 L 188 159 L 218 149 " stroke="black" stroke-width="1" fill="none"/>
<path d="M 187 158 L 188 159 L 188 188 L 187 189 L 186 188 L 186 159 " stroke="black" stroke-width="1" fill="none"/>
<path d="M 95 143 L 94 144 L 96 143 L 97 144 L 96 145 L 97 144 L 99 144 L 97 144 L 96 143 L 99 141 L 101 141 L 105 144 L 108 145 L 110 147 L 113 148 L 115 150 L 118 151 L 120 153 L 123 154 L 129 159 L 129 188 L 126 191 L 120 194 L 118 196 L 115 197 L 108 202 L 109 202 L 117 196 L 120 195 L 122 193 L 125 192 L 129 189 L 131 189 L 135 192 L 131 188 L 131 159 L 135 155 L 133 157 L 131 158 L 129 158 L 125 155 L 122 154 L 120 152 L 117 151 L 115 149 L 112 148 L 110 146 L 107 145 L 105 143 L 101 141 L 99 141 " stroke="black" stroke-width="1" fill="none"/>
<path d="M 130 158 L 131 159 L 131 188 L 130 189 L 129 188 L 129 159 " stroke="black" stroke-width="1" fill="none"/>
<path d="M 239 172 L 220 146 L 187 156 L 164 142 L 160 138 L 160 112 L 163 109 L 163 102 L 156 100 L 154 108 L 160 112 L 158 113 L 158 138 L 130 156 L 101 138 L 95 140 L 69 155 L 69 187 L 49 199 L 66 189 L 69 190 L 66 192 L 69 192 L 68 193 L 69 156 L 100 138 L 130 156 L 158 139 L 187 156 L 219 146 L 239 173 L 226 192 " stroke="black" stroke-width="1" fill="none"/>
<path d="M 159 123 L 160 124 L 160 138 L 159 139 L 158 138 L 158 124 " stroke="black" stroke-width="1" fill="none"/>
<path d="M 159 113 L 160 114 L 160 122 L 159 123 L 158 122 L 158 114 " stroke="black" stroke-width="1" fill="none"/>
<path d="M 157 100 L 160 100 L 163 103 L 163 108 L 160 111 L 157 111 L 155 109 L 155 108 L 154 107 L 154 104 L 155 103 L 155 102 " stroke="black" stroke-width="1" fill="none"/>
<path d="M 158 102 L 157 103 L 157 104 L 156 105 L 156 106 L 157 107 L 157 108 L 158 109 L 159 108 L 160 108 L 161 107 L 161 104 L 160 103 L 159 103 " stroke="black" stroke-width="1" fill="none"/>
<path d="M 158 103 L 160 103 L 161 104 L 161 107 L 160 108 L 158 108 L 156 106 L 156 105 " stroke="black" stroke-width="1" fill="none"/>
<path d="M 188 92 L 187 92 L 186 93 L 185 93 L 183 95 L 182 95 L 181 96 L 180 96 L 179 97 L 178 97 L 176 99 L 175 99 L 174 100 L 173 100 L 171 102 L 170 102 L 169 103 L 168 103 L 170 103 L 172 101 L 173 101 L 174 100 L 175 100 L 177 98 L 178 98 L 179 97 L 180 97 L 182 95 L 183 95 L 184 94 L 185 94 L 186 93 L 187 93 " stroke="black" stroke-width="1" fill="none"/>
<path d="M 187 90 L 185 90 L 183 92 L 182 92 L 181 93 L 180 93 L 178 95 L 177 95 L 176 96 L 175 96 L 174 97 L 173 97 L 171 99 L 170 99 L 169 100 L 168 100 L 167 101 L 168 101 L 170 99 L 171 99 L 172 98 L 173 98 L 174 97 L 175 97 L 177 95 L 178 95 L 179 94 L 180 94 L 181 93 L 182 93 L 184 91 L 185 91 L 186 90 " stroke="black" stroke-width="1" fill="none"/>
</svg>