<svg xmlns="http://www.w3.org/2000/svg" width="300" height="300" viewBox="0 0 300 300">
<path d="M 232 267 L 230 269 L 230 275 L 231 275 L 232 276 L 232 273 L 233 272 L 234 272 L 235 273 L 235 275 L 237 275 L 237 268 L 235 268 L 233 270 L 232 269 " stroke="black" stroke-width="1" fill="none"/>
<path d="M 236 268 L 237 269 L 237 274 L 236 275 L 235 274 L 235 272 L 234 271 L 234 270 " stroke="black" stroke-width="1" fill="none"/>
<path d="M 231 268 L 232 269 L 232 270 L 233 270 L 234 271 L 233 272 L 232 272 L 232 274 L 231 275 L 230 274 L 230 269 " stroke="black" stroke-width="1" fill="none"/>
<path d="M 225 263 L 223 265 L 223 266 L 225 268 L 226 267 L 226 264 " stroke="black" stroke-width="1" fill="none"/>
<path d="M 225 263 L 226 264 L 226 267 L 225 268 L 223 266 L 223 265 " stroke="black" stroke-width="1" fill="none"/>
<path d="M 227 261 L 226 261 L 229 264 L 229 267 L 226 270 L 223 270 L 221 268 L 221 264 L 223 262 L 222 262 L 221 263 L 221 268 L 223 270 L 227 270 L 228 269 L 228 268 L 229 267 L 229 263 " stroke="black" stroke-width="1" fill="none"/>
<path d="M 187 255 L 187 262 L 188 262 L 189 263 L 189 260 L 190 259 L 191 259 L 192 260 L 192 262 L 194 262 L 194 255 L 192 255 L 190 257 L 189 256 L 189 254 L 188 255 " stroke="black" stroke-width="1" fill="none"/>
<path d="M 193 255 L 194 256 L 194 261 L 193 262 L 192 261 L 192 259 L 191 258 L 191 257 " stroke="black" stroke-width="1" fill="none"/>
<path d="M 188 255 L 189 256 L 189 257 L 190 257 L 191 258 L 190 259 L 189 259 L 189 261 L 188 262 L 187 261 L 187 256 " stroke="black" stroke-width="1" fill="none"/>
<path d="M 256 242 L 254 244 L 254 249 L 256 251 L 260 251 L 262 249 L 262 246 L 261 245 L 261 243 L 260 242 " stroke="black" stroke-width="1" fill="none"/>
<path d="M 256 242 L 259 242 L 261 244 L 261 245 L 262 246 L 262 248 L 259 251 L 256 251 L 254 249 L 254 245 L 255 244 L 255 243 " stroke="black" stroke-width="1" fill="none"/>
<path d="M 258 244 L 256 246 L 256 247 L 258 249 L 259 248 L 259 245 " stroke="black" stroke-width="1" fill="none"/>
<path d="M 258 244 L 259 245 L 259 248 L 258 249 L 256 247 L 256 246 " stroke="black" stroke-width="1" fill="none"/>
<path d="M 190 242 L 188 244 L 188 249 L 190 251 L 194 251 L 196 249 L 196 245 L 195 244 L 195 243 L 194 242 " stroke="black" stroke-width="1" fill="none"/>
<path d="M 190 242 L 193 242 L 196 245 L 196 248 L 193 251 L 190 251 L 188 249 L 188 245 L 189 244 L 189 243 " stroke="black" stroke-width="1" fill="none"/>
<path d="M 192 244 L 190 246 L 190 247 L 192 249 L 193 248 L 193 245 " stroke="black" stroke-width="1" fill="none"/>
<path d="M 192 244 L 193 245 L 193 248 L 192 249 L 190 247 L 190 246 " stroke="black" stroke-width="1" fill="none"/>
<path d="M 263 238 L 263 243 L 263 239 L 264 238 L 265 239 L 265 240 L 266 240 L 267 241 L 266 242 L 265 242 L 265 244 L 264 245 L 265 246 L 265 243 L 266 242 L 267 242 L 268 243 L 268 245 L 270 245 L 270 238 L 268 238 L 266 240 L 265 239 L 265 237 L 264 238 " stroke="black" stroke-width="1" fill="none"/>
<path d="M 269 238 L 270 239 L 270 244 L 269 245 L 268 244 L 268 242 L 267 241 L 267 240 " stroke="black" stroke-width="1" fill="none"/>
<path d="M 39 227 L 39 234 L 40 234 L 41 235 L 41 232 L 42 231 L 43 231 L 44 232 L 44 234 L 46 234 L 46 227 L 44 227 L 42 229 L 41 228 L 41 226 L 40 227 " stroke="black" stroke-width="1" fill="none"/>
<path d="M 45 227 L 46 228 L 46 233 L 45 234 L 44 233 L 44 231 L 43 230 L 43 229 " stroke="black" stroke-width="1" fill="none"/>
<path d="M 40 227 L 41 228 L 41 229 L 42 229 L 43 230 L 42 231 L 41 231 L 41 233 L 40 234 L 39 233 L 39 228 " stroke="black" stroke-width="1" fill="none"/>
<path d="M 42 214 L 40 216 L 40 221 L 42 223 L 46 223 L 48 221 L 48 216 L 46 214 " stroke="black" stroke-width="1" fill="none"/>
<path d="M 42 214 L 45 214 L 48 217 L 48 220 L 45 223 L 42 223 L 40 221 L 40 217 L 41 216 L 41 215 " stroke="black" stroke-width="1" fill="none"/>
<path d="M 44 216 L 42 218 L 42 219 L 44 221 L 45 220 L 45 217 " stroke="black" stroke-width="1" fill="none"/>
<path d="M 44 216 L 45 217 L 45 220 L 44 221 L 42 219 L 42 218 " stroke="black" stroke-width="1" fill="none"/>
<path d="M 84 213 " stroke="black" stroke-width="1" fill="none"/>
<path d="M 87 211 " stroke="black" stroke-width="1" fill="none"/>
<path d="M 85 210 L 84 211 " stroke="black" stroke-width="1" fill="none"/>
<path d="M 88 208 L 87 209 " stroke="black" stroke-width="1" fill="none"/>
<path d="M 257 207 L 254 207 L 240 217 L 238 215 L 232 213 L 233 216 L 240 220 L 240 237 L 224 246 L 222 244 L 215 241 L 209 236 L 209 221 L 216 216 L 217 213 L 211 215 L 207 219 L 204 217 L 205 215 L 207 216 L 202 212 L 197 213 L 197 216 L 200 215 L 207 219 L 207 235 L 205 237 L 197 239 L 198 244 L 201 245 L 207 239 L 216 245 L 222 247 L 223 249 L 221 254 L 221 259 L 226 259 L 225 248 L 238 242 L 240 240 L 242 240 L 247 245 L 250 245 L 251 241 L 251 243 L 248 245 L 244 241 L 245 240 L 249 241 L 249 240 L 246 239 L 242 240 L 241 239 L 242 238 L 242 219 L 248 215 L 258 212 " stroke="black" stroke-width="1" fill="none"/>
<path d="M 243 240 L 244 239 L 245 240 L 244 241 " stroke="black" stroke-width="1" fill="none"/>
<path d="M 197 214 L 198 213 L 199 213 L 200 212 L 201 212 L 204 215 L 204 216 L 203 217 L 202 216 L 201 216 L 200 215 L 199 215 L 198 216 L 197 215 " stroke="black" stroke-width="1" fill="none"/>
<path d="M 258 209 L 258 211 L 257 212 L 242 218 L 242 238 L 239 241 L 236 242 L 234 244 L 230 246 L 228 246 L 225 248 L 225 253 L 226 254 L 226 258 L 225 259 L 222 259 L 221 258 L 221 254 L 223 249 L 222 247 L 215 244 L 208 239 L 205 239 L 200 245 L 197 241 L 198 239 L 200 238 L 203 238 L 207 236 L 207 219 L 210 216 L 213 215 L 215 213 L 217 214 L 214 217 L 211 218 L 209 220 L 209 237 L 211 239 L 224 246 L 227 244 L 229 244 L 233 242 L 240 237 L 240 219 L 235 217 L 232 214 L 234 213 L 240 217 L 246 214 L 255 207 " stroke="black" stroke-width="1" fill="none"/>
<path d="M 192 206 L 190 208 L 190 209 L 192 211 L 193 210 L 193 207 " stroke="black" stroke-width="1" fill="none"/>
<path d="M 192 206 L 193 207 L 193 210 L 192 211 L 190 209 L 190 208 " stroke="black" stroke-width="1" fill="none"/>
<path d="M 89 206 L 87 206 L 86 207 L 85 207 L 83 209 L 82 209 L 81 210 L 80 210 L 79 211 L 78 211 L 77 212 L 76 212 L 75 213 L 76 213 L 77 212 L 78 212 L 79 211 L 80 211 L 81 210 L 82 210 L 84 208 L 85 208 L 87 206 " stroke="black" stroke-width="1" fill="none"/>
<path d="M 223 204 L 221 206 L 221 211 L 223 213 L 227 213 L 229 211 L 229 206 L 227 204 " stroke="black" stroke-width="1" fill="none"/>
<path d="M 223 204 L 226 204 L 229 207 L 229 210 L 226 213 L 223 213 L 221 211 L 221 207 L 222 206 L 222 205 " stroke="black" stroke-width="1" fill="none"/>
<path d="M 225 206 L 223 208 L 223 209 L 225 211 L 226 210 L 226 207 " stroke="black" stroke-width="1" fill="none"/>
<path d="M 225 206 L 226 207 L 226 210 L 225 211 L 223 209 L 223 208 " stroke="black" stroke-width="1" fill="none"/>
<path d="M 194 204 L 193 204 L 196 207 L 196 210 L 193 213 L 190 213 L 188 211 L 188 207 L 190 205 L 189 205 L 188 206 L 188 211 L 190 213 L 194 213 L 196 211 L 196 206 " stroke="black" stroke-width="1" fill="none"/>
<path d="M 121 198 L 121 205 L 122 205 L 123 206 L 123 203 L 124 202 L 125 202 L 126 203 L 126 205 L 128 205 L 128 198 L 126 198 L 124 200 L 123 199 L 123 198 " stroke="black" stroke-width="1" fill="none"/>
<path d="M 127 198 L 128 199 L 128 204 L 127 205 L 126 204 L 126 202 L 125 201 L 125 200 " stroke="black" stroke-width="1" fill="none"/>
<path d="M 122 198 L 123 199 L 123 200 L 124 200 L 125 201 L 124 202 L 123 202 L 123 204 L 122 205 L 121 204 L 121 199 " stroke="black" stroke-width="1" fill="none"/>
<path d="M 63 192 L 62 193 L 62 206 L 63 207 L 64 207 L 64 192 " stroke="black" stroke-width="1" fill="none"/>
<path d="M 63 192 L 64 193 L 64 206 L 63 207 L 62 206 L 62 193 " stroke="black" stroke-width="1" fill="none"/>
<path d="M 86 190 " stroke="black" stroke-width="1" fill="none"/>
<path d="M 121 189 " stroke="black" stroke-width="1" fill="none"/>
<path d="M 86 188 " stroke="black" stroke-width="1" fill="none"/>
<path d="M 121 187 " stroke="black" stroke-width="1" fill="none"/>
<path d="M 118 187 " stroke="black" stroke-width="1" fill="none"/>
<path d="M 75 187 L 76 188 L 77 188 L 78 189 L 79 189 L 80 190 L 81 190 L 82 191 L 83 191 L 84 192 L 85 192 L 86 193 L 88 193 L 87 193 L 86 192 L 85 192 L 84 191 L 83 191 L 82 190 L 81 190 L 80 189 L 79 189 L 78 188 L 77 188 L 76 187 " stroke="black" stroke-width="1" fill="none"/>
<path d="M 116 186 " stroke="black" stroke-width="1" fill="none"/>
<path d="M 36 186 L 35 187 L 34 187 L 33 188 L 32 188 L 31 189 L 30 189 L 29 190 L 28 190 L 27 191 L 26 191 L 28 191 L 29 190 L 30 190 L 31 189 L 32 189 L 33 188 L 34 188 " stroke="black" stroke-width="1" fill="none"/>
<path d="M 223 185 L 221 187 L 221 192 L 223 194 L 227 194 L 229 192 L 229 188 L 228 187 L 228 186 L 227 185 " stroke="black" stroke-width="1" fill="none"/>
<path d="M 223 185 L 226 185 L 229 188 L 229 191 L 226 194 L 223 194 L 221 192 L 221 188 L 222 187 L 222 186 " stroke="black" stroke-width="1" fill="none"/>
<path d="M 225 187 L 223 189 L 223 190 L 225 192 L 226 191 L 226 188 " stroke="black" stroke-width="1" fill="none"/>
<path d="M 225 187 L 226 188 L 226 191 L 225 192 L 223 190 L 223 189 " stroke="black" stroke-width="1" fill="none"/>
<path d="M 157 185 L 155 187 L 155 192 L 157 194 L 161 194 L 163 192 L 163 187 L 161 185 " stroke="black" stroke-width="1" fill="none"/>
<path d="M 157 185 L 160 185 L 163 188 L 163 191 L 160 194 L 157 194 L 155 192 L 155 188 L 156 187 L 156 186 " stroke="black" stroke-width="1" fill="none"/>
<path d="M 159 187 L 157 189 L 157 190 L 159 192 L 160 191 L 160 188 " stroke="black" stroke-width="1" fill="none"/>
<path d="M 159 187 L 160 188 L 160 191 L 159 192 L 157 190 L 157 189 " stroke="black" stroke-width="1" fill="none"/>
<path d="M 118 185 " stroke="black" stroke-width="1" fill="none"/>
<path d="M 116 184 " stroke="black" stroke-width="1" fill="none"/>
<path d="M 113 184 " stroke="black" stroke-width="1" fill="none"/>
<path d="M 36 184 L 35 184 L 34 185 L 32 185 L 31 186 L 30 186 L 29 187 L 28 187 L 27 188 L 26 188 L 25 189 L 26 189 L 27 188 L 28 188 L 29 187 L 30 187 L 31 186 L 32 186 L 33 185 L 34 185 L 35 184 " stroke="black" stroke-width="1" fill="none"/>
<path d="M 84 187 L 83 188 L 82 188 L 81 187 L 82 186 L 81 185 L 82 186 L 81 187 L 78 186 L 77 185 L 78 184 L 79 184 L 78 184 L 77 183 L 74 183 L 72 185 L 71 185 L 60 191 L 58 191 L 57 190 L 50 187 L 51 188 L 56 190 L 58 192 L 58 207 L 55 210 L 54 210 L 50 213 L 51 213 L 53 211 L 56 210 L 58 208 L 60 208 L 62 210 L 63 210 L 67 213 L 72 215 L 74 217 L 77 217 L 78 216 L 79 216 L 78 216 L 77 215 L 80 213 L 81 213 L 82 214 L 81 215 L 82 214 L 81 213 L 82 212 L 81 213 L 76 215 L 77 215 L 78 216 L 77 217 L 75 217 L 74 216 L 71 215 L 69 213 L 66 212 L 60 207 L 60 192 L 62 190 L 69 187 L 71 185 L 72 185 L 75 183 L 77 183 L 78 184 L 77 185 L 76 185 L 77 185 L 84 189 L 83 188 " stroke="black" stroke-width="1" fill="none"/>
<path d="M 59 191 L 60 192 L 60 207 L 59 208 L 58 207 L 58 192 " stroke="black" stroke-width="1" fill="none"/>
<path d="M 113 182 " stroke="black" stroke-width="1" fill="none"/>
<path d="M 230 180 L 230 186 L 232 188 L 232 185 L 233 184 L 234 184 L 235 185 L 235 187 L 237 187 L 237 180 L 235 180 L 233 182 L 232 181 L 232 179 L 231 180 " stroke="black" stroke-width="1" fill="none"/>
<path d="M 236 180 L 237 181 L 237 186 L 236 187 L 235 186 L 235 184 L 234 183 L 234 182 " stroke="black" stroke-width="1" fill="none"/>
<path d="M 231 180 L 232 181 L 232 182 L 233 182 L 234 183 L 233 184 L 232 184 L 232 186 L 231 187 L 230 186 L 230 181 " stroke="black" stroke-width="1" fill="none"/>
<path d="M 42 176 L 40 178 L 40 183 L 42 185 L 46 185 L 48 183 L 48 178 L 46 176 " stroke="black" stroke-width="1" fill="none"/>
<path d="M 42 176 L 45 176 L 48 179 L 48 182 L 45 185 L 42 185 L 40 183 L 40 179 L 41 178 L 41 177 " stroke="black" stroke-width="1" fill="none"/>
<path d="M 44 178 L 42 180 L 42 181 L 44 183 L 45 182 L 45 179 " stroke="black" stroke-width="1" fill="none"/>
<path d="M 44 178 L 45 179 L 45 182 L 44 183 L 42 181 L 42 180 " stroke="black" stroke-width="1" fill="none"/>
<path d="M 105 165 L 105 172 L 107 172 L 107 170 L 108 169 L 109 169 L 110 170 L 110 172 L 112 172 L 112 165 L 110 165 L 108 167 L 107 166 L 107 164 L 106 165 " stroke="black" stroke-width="1" fill="none"/>
<path d="M 111 165 L 112 166 L 112 171 L 111 172 L 110 171 L 110 169 L 109 168 L 109 167 " stroke="black" stroke-width="1" fill="none"/>
<path d="M 106 165 L 107 166 L 107 167 L 108 167 L 109 168 L 108 169 L 107 169 L 107 171 L 106 172 L 105 171 L 105 166 " stroke="black" stroke-width="1" fill="none"/>
<path d="M 147 159 L 145 157 L 139 159 L 139 164 L 143 167 L 143 179 L 141 179 L 141 168 L 139 167 L 139 180 L 127 188 L 112 179 L 108 174 L 108 179 L 92 189 L 77 180 L 59 189 L 51 185 L 59 189 L 76 180 L 92 189 L 106 182 L 109 175 L 111 179 L 110 182 L 112 179 L 127 188 L 139 181 L 139 169 L 141 169 L 141 182 L 127 190 L 125 195 L 123 192 L 124 189 L 122 192 L 108 183 L 93 191 L 88 189 L 88 191 L 91 192 L 91 207 L 89 210 L 91 208 L 92 191 L 93 209 L 76 220 L 59 210 L 51 215 L 59 210 L 75 220 L 81 218 L 93 210 L 93 192 L 108 183 L 122 192 L 124 196 L 129 189 L 141 183 L 151 187 L 151 185 L 145 181 L 145 168 L 143 167 L 147 164 " stroke="black" stroke-width="1" fill="none"/>
<path d="M 141 181 L 142 180 L 143 181 L 143 182 L 142 183 L 141 182 " stroke="black" stroke-width="1" fill="none"/>
<path d="M 144 168 L 145 169 L 145 181 L 147 183 L 148 183 L 151 186 L 150 187 L 149 187 L 147 185 L 146 185 L 143 182 L 143 169 " stroke="black" stroke-width="1" fill="none"/>
<path d="M 141 157 L 144 157 L 147 160 L 147 163 L 144 166 L 142 166 L 141 165 L 140 165 L 139 164 L 139 160 L 140 159 L 140 158 " stroke="black" stroke-width="1" fill="none"/>
<path d="M 143 159 L 141 161 L 141 162 L 143 164 L 144 163 L 144 160 " stroke="black" stroke-width="1" fill="none"/>
<path d="M 143 159 L 144 160 L 144 163 L 143 164 L 141 162 L 141 161 " stroke="black" stroke-width="1" fill="none"/>
<path d="M 190 147 L 188 149 L 188 154 L 190 156 L 194 156 L 196 154 L 196 149 L 194 147 " stroke="black" stroke-width="1" fill="none"/>
<path d="M 190 147 L 193 147 L 196 150 L 196 153 L 193 156 L 190 156 L 188 154 L 188 150 L 189 149 L 189 148 " stroke="black" stroke-width="1" fill="none"/>
<path d="M 192 149 L 190 151 L 190 152 L 192 154 L 193 153 L 193 150 " stroke="black" stroke-width="1" fill="none"/>
<path d="M 192 149 L 193 150 L 193 153 L 192 154 L 190 152 L 190 151 " stroke="black" stroke-width="1" fill="none"/>
<path d="M 157 128 L 155 130 L 157 137 L 157 155 L 174 163 L 174 179 L 164 182 L 164 185 L 169 186 L 173 180 L 173 182 L 190 191 L 188 202 L 193 202 L 192 191 L 207 183 L 192 191 L 193 201 L 189 202 L 188 197 L 190 191 L 174 181 L 174 162 L 158 155 L 157 150 L 159 148 L 174 160 L 182 156 L 184 157 L 176 163 L 176 180 L 191 189 L 207 181 L 207 162 L 199 157 L 201 156 L 208 159 L 209 180 L 213 183 L 217 183 L 214 187 L 209 183 L 216 189 L 217 187 L 214 187 L 217 182 L 209 180 L 209 162 L 213 159 L 217 159 L 218 156 L 214 154 L 208 159 L 199 156 L 200 159 L 207 163 L 207 179 L 191 189 L 176 179 L 176 164 L 183 159 L 184 156 L 175 160 L 159 148 L 159 139 L 157 138 L 163 135 L 163 130 " stroke="black" stroke-width="1" fill="none"/>
<path d="M 212 182 L 213 181 L 214 182 L 213 183 " stroke="black" stroke-width="1" fill="none"/>
<path d="M 171 181 L 171 182 L 170 183 L 170 184 L 168 186 L 167 186 L 166 185 L 165 185 L 164 184 L 164 183 L 165 182 L 167 182 L 168 183 L 167 182 L 168 181 L 169 181 L 170 180 " stroke="black" stroke-width="1" fill="none"/>
<path d="M 218 157 L 216 159 L 212 159 L 210 161 L 209 160 L 209 159 L 213 155 L 214 155 L 215 154 " stroke="black" stroke-width="1" fill="none"/>
<path d="M 158 142 L 159 143 L 159 148 L 158 149 L 157 148 L 157 143 " stroke="black" stroke-width="1" fill="none"/>
<path d="M 157 140 L 158 139 L 159 140 L 159 141 L 158 142 L 157 141 " stroke="black" stroke-width="1" fill="none"/>
<path d="M 157 128 L 160 128 L 163 131 L 163 134 L 160 137 L 158 137 L 157 136 L 156 136 L 155 135 L 155 131 L 156 130 L 156 129 " stroke="black" stroke-width="1" fill="none"/>
<path d="M 159 130 L 157 132 L 157 133 L 159 135 L 160 134 L 160 131 " stroke="black" stroke-width="1" fill="none"/>
<path d="M 159 130 L 160 131 L 160 134 L 159 135 L 157 133 L 157 132 " stroke="black" stroke-width="1" fill="none"/>
<path d="M 124 128 L 122 130 L 122 135 L 124 137 L 128 137 L 130 135 L 130 130 L 128 128 " stroke="black" stroke-width="1" fill="none"/>
<path d="M 124 128 L 127 128 L 130 131 L 130 134 L 127 137 L 124 137 L 122 135 L 122 131 L 123 130 L 123 129 " stroke="black" stroke-width="1" fill="none"/>
<path d="M 126 130 L 124 132 L 124 133 L 126 135 L 127 134 L 127 131 " stroke="black" stroke-width="1" fill="none"/>
<path d="M 126 130 L 127 131 L 127 134 L 126 135 L 124 133 L 124 132 " stroke="black" stroke-width="1" fill="none"/>
<path d="M 99 99 L 99 102 L 100 102 L 101 101 L 102 102 L 103 102 L 104 103 L 106 103 L 107 102 L 108 102 L 107 101 L 106 101 L 103 98 L 100 98 " stroke="black" stroke-width="1" fill="none"/>
<path d="M 99 100 L 101 98 L 102 98 L 105 101 L 106 101 L 107 102 L 106 103 L 104 103 L 103 102 L 102 102 L 101 101 L 100 102 L 99 101 " stroke="black" stroke-width="1" fill="none"/>
<path d="M 78 97 L 78 104 L 79 104 L 80 105 L 80 102 L 81 101 L 82 101 L 83 102 L 83 104 L 85 104 L 85 97 L 83 97 L 81 99 L 80 98 L 80 96 L 79 97 " stroke="black" stroke-width="1" fill="none"/>
<path d="M 84 97 L 85 98 L 85 103 L 84 104 L 83 103 L 83 101 L 82 100 L 82 99 " stroke="black" stroke-width="1" fill="none"/>
<path d="M 79 97 L 80 98 L 80 99 L 81 99 L 82 100 L 81 101 L 80 101 L 80 103 L 79 104 L 78 103 L 78 98 " stroke="black" stroke-width="1" fill="none"/>
<path d="M 108 104 L 108 125 L 115 129 L 118 129 L 117 126 L 110 122 L 110 107 L 119 100 L 126 97 L 141 106 L 141 122 L 132 127 L 132 129 L 135 129 L 142 125 L 150 132 L 151 131 L 150 125 L 149 125 L 150 127 L 148 130 L 145 127 L 147 124 L 143 122 L 143 105 L 147 102 L 152 101 L 152 99 L 150 97 L 146 98 L 140 103 L 127 95 L 126 92 L 126 95 L 140 103 L 137 104 L 130 99 L 124 97 L 112 104 L 110 106 L 110 123 L 116 126 L 118 128 L 117 129 L 108 124 L 108 105 L 111 102 L 124 95 L 124 92 L 123 95 " stroke="black" stroke-width="1" fill="none"/>
<path d="M 150 128 L 151 129 L 151 130 L 150 131 L 149 131 L 148 130 " stroke="black" stroke-width="1" fill="none"/>
<path d="M 141 125 L 139 127 L 137 127 L 136 128 L 135 128 L 134 129 L 133 129 L 132 128 L 134 126 L 135 126 L 136 125 L 138 125 L 139 124 L 140 124 " stroke="black" stroke-width="1" fill="none"/>
<path d="M 140 124 L 142 122 L 143 123 L 144 123 L 145 124 L 146 124 L 147 125 L 145 127 L 144 126 L 143 126 L 142 125 L 141 125 " stroke="black" stroke-width="1" fill="none"/>
<path d="M 142 102 L 143 103 L 143 121 L 142 122 L 141 121 L 141 105 L 140 105 L 139 104 L 140 103 L 141 103 " stroke="black" stroke-width="1" fill="none"/>
<path d="M 152 100 L 150 102 L 146 102 L 144 104 L 143 103 L 143 102 L 147 98 L 148 98 L 149 97 " stroke="black" stroke-width="1" fill="none"/>
<path d="M 157 90 L 155 92 L 155 97 L 157 99 L 161 99 L 163 97 L 163 92 L 161 90 " stroke="black" stroke-width="1" fill="none"/>
<path d="M 157 90 L 160 90 L 163 93 L 163 96 L 160 99 L 157 99 L 155 97 L 155 93 L 156 92 L 156 91 " stroke="black" stroke-width="1" fill="none"/>
<path d="M 159 92 L 157 94 L 157 95 L 159 97 L 160 96 L 160 93 " stroke="black" stroke-width="1" fill="none"/>
<path d="M 159 92 L 160 93 L 160 96 L 159 97 L 157 95 L 157 94 " stroke="black" stroke-width="1" fill="none"/>
<path d="M 91 90 L 89 92 L 89 97 L 91 99 L 95 99 L 97 97 L 97 92 L 95 90 " stroke="black" stroke-width="1" fill="none"/>
<path d="M 91 90 L 94 90 L 97 93 L 97 96 L 94 99 L 91 99 L 89 97 L 89 93 L 90 92 L 90 91 " stroke="black" stroke-width="1" fill="none"/>
<path d="M 93 92 L 91 94 L 91 95 L 93 97 L 94 96 L 94 93 " stroke="black" stroke-width="1" fill="none"/>
<path d="M 93 92 L 94 93 L 94 96 L 93 97 L 91 95 L 91 94 " stroke="black" stroke-width="1" fill="none"/>
<path d="M 123 88 L 123 90 L 126 90 L 126 88 " stroke="black" stroke-width="1" fill="none"/>
<path d="M 123 89 L 124 88 L 125 88 L 126 89 L 125 90 L 124 90 " stroke="black" stroke-width="1" fill="none"/>
<path d="M 122 85 L 123 86 L 124 85 " stroke="black" stroke-width="1" fill="none"/>
<path d="M 122 83 L 126 83 L 127 84 L 127 85 L 126 86 L 127 86 L 127 83 " stroke="black" stroke-width="1" fill="none"/>
<path d="M 154 79 L 154 86 L 155 86 L 156 87 L 156 84 L 157 83 L 158 83 L 159 84 L 159 86 L 161 86 L 161 79 L 159 79 L 157 81 L 156 80 L 156 78 L 155 79 " stroke="black" stroke-width="1" fill="none"/>
<path d="M 160 79 L 161 80 L 161 85 L 160 86 L 159 85 L 159 83 L 158 82 L 158 81 " stroke="black" stroke-width="1" fill="none"/>
<path d="M 155 79 L 156 80 L 156 81 L 157 81 L 158 82 L 157 83 L 156 83 L 156 85 L 155 86 L 154 85 L 154 80 " stroke="black" stroke-width="1" fill="none"/>
<path d="M 124 71 L 122 73 L 122 78 L 124 80 L 128 80 L 130 78 L 130 73 L 128 71 " stroke="black" stroke-width="1" fill="none"/>
<path d="M 124 71 L 127 71 L 130 74 L 130 77 L 127 80 L 124 80 L 122 78 L 122 74 L 123 73 L 123 72 " stroke="black" stroke-width="1" fill="none"/>
<path d="M 126 73 L 124 75 L 124 76 L 126 78 L 127 77 L 127 74 " stroke="black" stroke-width="1" fill="none"/>
<path d="M 126 73 L 127 74 L 127 77 L 126 78 L 124 76 L 124 75 " stroke="black" stroke-width="1" fill="none"/>
<path d="M 282 67 L 280 69 L 280 75 L 281 75 L 282 76 L 282 73 L 283 72 L 284 72 L 285 73 L 285 75 L 287 75 L 287 68 L 285 68 L 283 70 L 282 69 " stroke="black" stroke-width="1" fill="none"/>
<path d="M 286 68 L 287 69 L 287 74 L 286 75 L 285 74 L 285 72 L 284 71 L 284 70 " stroke="black" stroke-width="1" fill="none"/>
<path d="M 281 68 L 282 69 L 282 70 L 283 70 L 284 71 L 283 72 L 282 72 L 282 74 L 281 75 L 280 74 L 280 69 " stroke="black" stroke-width="1" fill="none"/>
<path d="M 111 66 L 111 73 L 112 73 L 113 74 L 113 71 L 114 70 L 115 70 L 116 71 L 116 73 L 118 73 L 118 66 L 116 66 L 114 68 L 113 67 L 113 65 L 112 66 " stroke="black" stroke-width="1" fill="none"/>
<path d="M 117 66 L 118 67 L 118 72 L 117 73 L 116 72 L 116 70 L 115 69 L 115 68 " stroke="black" stroke-width="1" fill="none"/>
<path d="M 112 66 L 113 67 L 113 68 L 114 68 L 115 69 L 114 70 L 113 70 L 113 72 L 112 73 L 111 72 L 111 67 " stroke="black" stroke-width="1" fill="none"/>
<path d="M 273 61 L 271 63 L 271 68 L 273 70 L 277 70 L 278 69 L 278 68 L 279 67 L 279 63 L 277 61 " stroke="black" stroke-width="1" fill="none"/>
<path d="M 273 61 L 276 61 L 279 64 L 279 67 L 276 70 L 273 70 L 271 68 L 271 64 L 272 63 L 272 62 " stroke="black" stroke-width="1" fill="none"/>
<path d="M 275 63 L 273 65 L 273 66 L 275 68 L 276 67 L 276 64 " stroke="black" stroke-width="1" fill="none"/>
<path d="M 275 63 L 276 64 L 276 67 L 275 68 L 273 66 L 273 65 " stroke="black" stroke-width="1" fill="none"/>
<path d="M 244 42 L 240 42 L 238 44 L 238 49 L 240 51 L 240 64 L 234 69 L 223 75 L 223 96 L 234 102 L 240 107 L 240 122 L 238 124 L 223 132 L 223 147 L 221 149 L 221 154 L 223 156 L 227 156 L 229 154 L 229 149 L 227 147 L 224 147 L 223 146 L 225 145 L 225 135 L 228 132 L 242 125 L 242 107 L 245 104 L 258 96 L 258 78 L 261 75 L 267 72 L 267 70 L 264 70 L 257 75 L 242 64 L 242 53 L 240 52 L 241 51 L 244 51 L 246 49 L 246 44 " stroke="black" stroke-width="1" fill="none"/>
<path d="M 224 147 L 226 147 L 229 150 L 229 153 L 226 156 L 223 156 L 221 154 L 221 150 " stroke="black" stroke-width="1" fill="none"/>
<path d="M 225 149 L 223 151 L 223 152 L 225 154 L 226 153 L 226 150 " stroke="black" stroke-width="1" fill="none"/>
<path d="M 225 149 L 226 150 L 226 153 L 225 154 L 223 152 L 223 151 " stroke="black" stroke-width="1" fill="none"/>
<path d="M 241 106 L 242 107 L 242 124 L 240 126 L 239 126 L 238 127 L 237 127 L 236 128 L 235 128 L 234 129 L 233 129 L 232 130 L 231 130 L 229 132 L 228 132 L 227 133 L 226 133 L 225 134 L 225 144 L 224 145 L 223 144 L 223 133 L 225 131 L 226 131 L 228 129 L 229 129 L 230 128 L 231 128 L 232 127 L 233 127 L 234 126 L 235 126 L 236 125 L 237 125 L 238 124 L 239 124 L 240 123 L 240 107 " stroke="black" stroke-width="1" fill="none"/>
<path d="M 266 70 L 267 71 L 265 73 L 264 73 L 262 75 L 261 75 L 258 77 L 256 77 L 254 75 L 256 77 L 256 93 L 254 96 L 256 94 L 256 78 L 257 77 L 258 78 L 258 95 L 255 98 L 252 99 L 250 101 L 249 101 L 247 103 L 244 104 L 242 106 L 240 106 L 238 104 L 235 103 L 233 101 L 228 99 L 223 95 L 223 76 L 228 72 L 233 70 L 235 68 L 238 67 L 240 65 L 242 65 L 244 67 L 247 68 L 249 70 L 250 70 L 252 72 L 255 73 L 257 75 L 258 74 L 259 74 L 261 72 " stroke="black" stroke-width="1" fill="none"/>
<path d="M 252 97 " stroke="black" stroke-width="1" fill="none"/>
<path d="M 228 78 L 227 79 L 227 92 L 228 93 L 229 93 L 229 78 " stroke="black" stroke-width="1" fill="none"/>
<path d="M 228 78 L 229 79 L 229 92 L 228 93 L 227 92 L 227 79 " stroke="black" stroke-width="1" fill="none"/>
<path d="M 252 74 " stroke="black" stroke-width="1" fill="none"/>
<path d="M 241 67 L 243 69 L 241 70 L 240 72 L 247 77 L 251 79 L 253 79 L 243 74 L 241 72 L 242 70 L 247 74 L 253 77 L 244 72 L 242 70 L 243 69 L 246 70 L 250 73 L 241 67 L 239 69 L 236 70 L 234 72 L 225 77 L 225 94 L 234 99 L 236 101 L 239 102 L 241 104 L 250 98 L 246 101 L 243 102 L 242 101 L 244 99 L 253 94 L 247 97 L 242 101 L 241 99 L 246 95 L 253 92 L 251 92 L 240 99 L 241 101 L 243 102 L 241 104 L 238 101 L 228 96 L 225 93 L 225 78 L 228 75 L 238 70 " stroke="black" stroke-width="1" fill="none"/>
<path d="M 241 56 L 242 57 L 242 64 L 241 65 L 240 64 L 240 57 " stroke="black" stroke-width="1" fill="none"/>
<path d="M 240 54 L 241 53 L 242 54 L 242 55 L 241 56 L 240 55 " stroke="black" stroke-width="1" fill="none"/>
<path d="M 240 42 L 243 42 L 246 45 L 246 48 L 243 51 L 241 51 L 240 50 L 239 50 L 238 49 L 238 45 L 239 44 L 239 43 " stroke="black" stroke-width="1" fill="none"/>
<path d="M 242 44 L 240 46 L 240 47 L 242 49 L 243 48 L 243 45 " stroke="black" stroke-width="1" fill="none"/>
<path d="M 242 44 L 243 45 L 243 48 L 242 49 L 240 47 L 240 46 " stroke="black" stroke-width="1" fill="none"/>
<path d="M 224 37 L 225 37 L 226 38 L 227 38 L 228 39 L 229 39 L 231 41 L 232 41 L 234 43 L 233 44 L 232 44 L 231 43 L 230 43 L 229 42 L 228 42 L 226 40 L 225 40 L 224 39 L 223 39 L 224 40 L 225 40 L 226 41 L 227 41 L 228 42 L 229 42 L 230 43 L 231 43 L 232 44 L 234 44 L 234 42 L 233 41 L 232 41 L 231 40 L 230 40 L 229 39 L 228 39 L 226 37 " stroke="black" stroke-width="1" fill="none"/>
</svg>