<svg xmlns="http://www.w3.org/2000/svg" width="300" height="300" viewBox="0 0 300 300">
<path d="M 225 224 " stroke="black" stroke-width="1" fill="none"/>
<path d="M 227 223 L 228 224 L 227 225 L 228 226 L 229 226 L 230 227 L 229 226 L 228 226 L 227 225 L 228 224 L 229 224 L 228 224 " stroke="black" stroke-width="1" fill="none"/>
<path d="M 223 223 " stroke="black" stroke-width="1" fill="none"/>
<path d="M 225 222 " stroke="black" stroke-width="1" fill="none"/>
<path d="M 223 221 " stroke="black" stroke-width="1" fill="none"/>
<path d="M 220 221 L 221 222 " stroke="black" stroke-width="1" fill="none"/>
<path d="M 218 220 " stroke="black" stroke-width="1" fill="none"/>
<path d="M 220 219 " stroke="black" stroke-width="1" fill="none"/>
<path d="M 216 219 " stroke="black" stroke-width="1" fill="none"/>
<path d="M 218 218 " stroke="black" stroke-width="1" fill="none"/>
<path d="M 215 216 L 216 217 " stroke="black" stroke-width="1" fill="none"/>
<path d="M 214 214 L 216 214 L 218 216 L 219 216 L 220 217 L 221 217 L 223 219 L 224 219 L 225 220 L 226 220 L 227 221 L 228 221 L 229 222 L 230 222 L 231 223 L 232 223 L 233 224 L 234 224 L 235 225 L 236 225 L 235 224 L 234 224 L 233 223 L 232 223 L 231 222 L 230 222 L 229 221 L 228 221 L 227 220 L 226 220 L 225 219 L 224 219 L 223 218 L 222 218 L 220 216 L 219 216 L 217 214 " stroke="black" stroke-width="1" fill="none"/>
<path d="M 261 186 L 261 212 L 263 212 L 263 186 " stroke="black" stroke-width="1" fill="none"/>
<path d="M 262 186 L 263 187 L 263 211 L 262 212 L 261 211 L 261 187 " stroke="black" stroke-width="1" fill="none"/>
<path d="M 215 182 " stroke="black" stroke-width="1" fill="none"/>
<path d="M 218 178 " stroke="black" stroke-width="1" fill="none"/>
<path d="M 85 178 " stroke="black" stroke-width="1" fill="none"/>
<path d="M 83 177 " stroke="black" stroke-width="1" fill="none"/>
<path d="M 23 177 L 23 179 L 26 179 L 26 177 " stroke="black" stroke-width="1" fill="none"/>
<path d="M 23 178 L 24 177 L 25 177 L 26 178 L 25 179 L 24 179 " stroke="black" stroke-width="1" fill="none"/>
<path d="M 226 176 L 225 177 L 224 177 L 223 178 L 222 178 L 221 179 L 220 179 L 219 180 L 218 180 L 217 181 L 218 180 L 219 180 L 220 179 L 221 179 L 222 178 L 223 178 L 224 177 L 225 177 " stroke="black" stroke-width="1" fill="none"/>
<path d="M 85 176 " stroke="black" stroke-width="1" fill="none"/>
<path d="M 31 176 L 30 177 L 30 178 L 29 179 L 29 184 L 30 185 L 30 186 L 31 187 L 36 187 L 38 185 L 38 178 L 36 176 " stroke="black" stroke-width="1" fill="none"/>
<path d="M 32 176 L 35 176 L 38 179 L 38 184 L 35 187 L 32 187 L 30 185 L 30 184 L 29 183 L 29 180 L 30 179 L 30 178 " stroke="black" stroke-width="1" fill="none"/>
<path d="M 33 178 L 32 179 L 32 180 L 31 181 L 31 182 L 32 183 L 32 184 L 33 185 L 34 184 L 35 184 L 36 183 L 36 180 L 35 179 L 34 179 " stroke="black" stroke-width="1" fill="none"/>
<path d="M 33 179 L 35 179 L 36 180 L 36 183 L 35 184 L 33 184 L 31 182 L 31 181 " stroke="black" stroke-width="1" fill="none"/>
<path d="M 148 175 L 147 176 L 147 177 L 146 178 L 146 183 L 147 184 L 147 185 L 148 186 L 153 186 L 155 184 L 155 177 L 153 175 " stroke="black" stroke-width="1" fill="none"/>
<path d="M 149 175 L 152 175 L 155 178 L 155 183 L 152 186 L 149 186 L 147 184 L 147 183 L 146 182 L 146 179 L 147 178 L 147 177 " stroke="black" stroke-width="1" fill="none"/>
<path d="M 150 177 L 149 178 L 149 179 L 148 180 L 148 181 L 149 182 L 149 183 L 150 184 L 151 183 L 152 183 L 153 182 L 153 179 L 152 178 L 151 178 " stroke="black" stroke-width="1" fill="none"/>
<path d="M 150 178 L 152 178 L 153 179 L 153 182 L 152 183 L 150 183 L 148 181 L 148 180 " stroke="black" stroke-width="1" fill="none"/>
<path d="M 83 175 " stroke="black" stroke-width="1" fill="none"/>
<path d="M 80 175 " stroke="black" stroke-width="1" fill="none"/>
<path d="M 78 174 " stroke="black" stroke-width="1" fill="none"/>
<path d="M 236 173 L 235 173 L 233 175 L 232 175 L 231 176 L 230 176 L 228 178 L 227 178 L 226 179 L 225 179 L 224 180 L 223 180 L 222 181 L 221 181 L 220 182 L 219 182 L 218 183 L 217 183 L 216 184 L 215 184 L 217 184 L 218 183 L 219 183 L 220 182 L 221 182 L 222 181 L 223 181 L 224 180 L 225 180 L 227 178 L 228 178 L 229 177 L 230 177 L 232 175 L 233 175 L 234 174 L 235 174 " stroke="black" stroke-width="1" fill="none"/>
<path d="M 231 173 L 230 174 L 229 174 L 228 175 L 229 174 L 230 174 " stroke="black" stroke-width="1" fill="none"/>
<path d="M 80 173 " stroke="black" stroke-width="1" fill="none"/>
<path d="M 76 173 " stroke="black" stroke-width="1" fill="none"/>
<path d="M 78 172 " stroke="black" stroke-width="1" fill="none"/>
<path d="M 74 172 " stroke="black" stroke-width="1" fill="none"/>
<path d="M 76 171 " stroke="black" stroke-width="1" fill="none"/>
<path d="M 74 170 " stroke="black" stroke-width="1" fill="none"/>
<path d="M 71 170 " stroke="black" stroke-width="1" fill="none"/>
<path d="M 69 169 " stroke="black" stroke-width="1" fill="none"/>
<path d="M 235 168 L 233 170 L 228 172 L 226 174 L 220 177 L 232 170 L 234 171 L 233 172 L 234 171 L 236 171 L 234 171 L 233 170 L 236 168 L 238 168 L 248 173 L 250 175 L 257 178 L 259 180 L 262 181 L 265 184 L 265 214 L 262 217 L 259 218 L 257 220 L 250 223 L 248 225 L 238 230 L 234 229 L 233 228 L 235 227 L 231 225 L 234 227 L 232 228 L 233 228 L 235 230 L 239 230 L 243 228 L 245 226 L 261 218 L 265 215 L 265 183 L 261 180 L 256 178 L 254 176 L 245 172 L 243 170 L 239 168 " stroke="black" stroke-width="1" fill="none"/>
<path d="M 71 168 " stroke="black" stroke-width="1" fill="none"/>
<path d="M 142 178 L 139 177 L 137 175 L 130 172 L 128 170 L 122 167 L 120 169 L 114 172 L 106 178 L 103 179 L 101 181 L 93 185 L 92 184 L 90 184 L 88 182 L 82 179 L 80 177 L 73 174 L 71 172 L 63 168 L 57 171 L 55 173 L 48 176 L 46 178 L 43 179 L 45 179 L 47 177 L 61 170 L 63 168 L 65 170 L 74 174 L 76 176 L 81 178 L 88 183 L 92 185 L 94 185 L 98 183 L 100 181 L 103 180 L 105 178 L 108 177 L 113 173 L 116 172 L 122 167 L 124 169 L 133 173 L 140 178 " stroke="black" stroke-width="1" fill="none"/>
<path d="M 69 167 " stroke="black" stroke-width="1" fill="none"/>
<path d="M 19 166 L 18 167 L 17 166 L 17 169 L 16 170 L 15 170 L 14 169 L 14 167 L 11 167 L 11 176 L 14 176 L 14 173 L 15 172 L 16 172 L 17 173 L 17 177 L 18 176 L 19 177 " stroke="black" stroke-width="1" fill="none"/>
<path d="M 14 171 L 15 170 L 16 170 L 17 171 L 16 172 L 15 172 " stroke="black" stroke-width="1" fill="none"/>
<path d="M 18 167 L 19 168 L 19 175 L 18 176 L 17 175 L 17 173 L 16 172 L 17 171 L 16 170 L 17 169 L 17 168 " stroke="black" stroke-width="1" fill="none"/>
<path d="M 12 167 L 13 167 L 14 168 L 14 175 L 13 176 L 12 176 L 11 175 L 11 168 " stroke="black" stroke-width="1" fill="none"/>
<path d="M 117 137 L 117 162 L 119 162 L 119 137 " stroke="black" stroke-width="1" fill="none"/>
<path d="M 118 137 L 119 138 L 119 161 L 118 162 L 117 161 L 117 138 " stroke="black" stroke-width="1" fill="none"/>
<path d="M 74 129 L 73 130 L 72 130 L 71 131 L 70 131 L 69 132 L 70 131 L 71 131 L 72 130 L 73 130 " stroke="black" stroke-width="1" fill="none"/>
<path d="M 70 129 " stroke="black" stroke-width="1" fill="none"/>
<path d="M 75 126 L 74 127 L 73 127 L 72 128 L 73 127 L 74 127 " stroke="black" stroke-width="1" fill="none"/>
<path d="M 81 125 L 80 126 L 79 126 L 78 127 L 77 127 L 76 128 L 77 127 L 78 127 L 79 126 L 80 126 " stroke="black" stroke-width="1" fill="none"/>
<path d="M 86 122 L 85 123 L 84 123 L 83 124 L 84 123 L 85 123 " stroke="black" stroke-width="1" fill="none"/>
<path d="M 82 122 L 81 123 L 80 123 L 79 124 L 78 124 L 77 125 L 78 124 L 79 124 L 80 123 L 81 123 " stroke="black" stroke-width="1" fill="none"/>
<path d="M 84 121 " stroke="black" stroke-width="1" fill="none"/>
<path d="M 91 120 L 90 120 L 89 121 L 88 121 L 89 121 L 90 122 L 89 123 L 88 123 L 86 125 L 85 125 L 83 127 L 82 127 L 81 128 L 80 128 L 79 129 L 78 129 L 77 130 L 76 130 L 74 132 L 73 132 L 72 133 L 71 133 L 70 134 L 68 134 L 71 134 L 73 132 L 74 132 L 75 131 L 76 131 L 77 130 L 78 130 L 79 129 L 80 129 L 82 127 L 83 127 L 84 126 L 85 126 L 87 124 L 88 124 L 89 123 L 90 123 L 91 122 L 90 122 L 89 121 L 90 120 " stroke="black" stroke-width="1" fill="none"/>
<path d="M 42 177 L 67 168 L 64 134 L 68 130 L 62 165 L 65 129 L 94 114 L 122 132 L 148 116 L 149 99 L 150 117 L 123 134 L 93 116 L 86 120 L 93 116 L 121 135 L 117 168 L 92 182 L 68 165 L 92 182 L 121 165 L 143 176 L 123 164 L 123 135 L 151 117 L 179 135 L 179 164 L 159 176 L 181 165 L 209 181 L 240 166 L 267 182 L 267 216 L 234 232 L 208 216 L 208 184 L 214 218 L 210 184 L 216 179 L 208 183 L 180 167 L 160 178 L 180 167 L 205 181 L 208 217 L 236 233 L 267 217 L 266 180 L 236 165 L 209 181 L 181 164 L 181 132 L 154 115 L 153 76 L 146 79 L 148 115 L 122 132 L 94 113 L 97 77 L 90 75 L 92 113 L 62 131 L 62 165 " stroke="black" stroke-width="1" fill="none"/>
<path d="M 122 134 L 123 135 L 123 164 L 122 165 L 121 164 L 121 135 " stroke="black" stroke-width="1" fill="none"/>
<path d="M 150 116 L 151 115 L 152 116 L 151 117 " stroke="black" stroke-width="1" fill="none"/>
<path d="M 153 99 L 154 100 L 154 116 L 156 118 L 157 118 L 158 119 L 161 120 L 163 122 L 164 122 L 165 123 L 168 124 L 170 126 L 171 126 L 172 127 L 173 127 L 175 129 L 178 130 L 181 133 L 181 164 L 180 165 L 179 164 L 179 134 L 178 133 L 177 133 L 175 131 L 172 130 L 170 128 L 167 127 L 165 125 L 162 124 L 160 122 L 159 122 L 158 121 L 155 120 L 152 117 L 152 100 " stroke="black" stroke-width="1" fill="none"/>
<path d="M 93 97 L 94 98 L 94 113 L 93 114 L 92 113 L 92 98 " stroke="black" stroke-width="1" fill="none"/>
<path d="M 153 89 L 154 90 L 154 98 L 153 99 L 152 98 L 152 90 " stroke="black" stroke-width="1" fill="none"/>
<path d="M 149 89 L 150 90 L 150 98 L 149 99 L 148 98 L 148 90 " stroke="black" stroke-width="1" fill="none"/>
<path d="M 93 88 L 94 89 L 94 96 L 93 97 L 92 96 L 92 89 " stroke="black" stroke-width="1" fill="none"/>
<path d="M 153 87 L 154 88 L 153 89 L 152 89 L 152 114 L 151 115 L 150 114 L 150 88 L 151 87 " stroke="black" stroke-width="1" fill="none"/>
<path d="M 148 88 L 149 87 L 150 88 L 149 89 " stroke="black" stroke-width="1" fill="none"/>
<path d="M 149 76 L 152 76 L 155 79 L 155 84 L 152 87 L 149 87 L 147 85 L 147 84 L 146 83 L 146 80 L 147 79 L 147 78 " stroke="black" stroke-width="1" fill="none"/>
<path d="M 150 78 L 149 79 L 149 80 L 148 81 L 148 82 L 149 83 L 149 84 L 150 85 L 151 84 L 152 84 L 153 83 L 153 80 L 152 79 L 151 79 " stroke="black" stroke-width="1" fill="none"/>
<path d="M 150 79 L 152 79 L 153 80 L 153 83 L 152 84 L 150 84 L 148 82 L 148 81 " stroke="black" stroke-width="1" fill="none"/>
<path d="M 91 75 L 94 75 L 97 78 L 97 83 L 94 86 L 91 86 L 89 84 L 89 83 L 88 82 L 88 79 L 89 78 L 89 77 " stroke="black" stroke-width="1" fill="none"/>
<path d="M 92 77 L 91 78 L 91 79 L 90 80 L 90 81 L 91 82 L 91 83 L 92 84 L 93 83 L 94 83 L 95 82 L 95 79 L 94 78 L 93 78 " stroke="black" stroke-width="1" fill="none"/>
<path d="M 92 78 L 94 78 L 95 79 L 95 82 L 94 83 L 92 83 L 90 81 L 90 80 " stroke="black" stroke-width="1" fill="none"/>
<path d="M 64 66 L 65 67 L 66 67 L 67 68 L 68 68 L 69 69 L 70 69 L 72 71 L 73 71 L 74 72 L 75 72 L 77 74 L 78 74 L 79 75 L 80 75 L 82 77 L 84 77 L 83 77 L 82 76 L 81 76 L 79 74 L 78 74 L 77 73 L 76 73 L 74 71 L 73 71 L 72 70 L 71 70 L 70 69 L 69 69 L 67 67 L 66 67 L 65 66 " stroke="black" stroke-width="1" fill="none"/>
<path d="M 65 64 L 66 64 L 67 65 L 68 65 L 70 67 L 71 67 L 72 68 L 73 68 L 74 69 L 75 69 L 77 71 L 78 71 L 79 72 L 80 72 L 81 73 L 82 73 L 84 75 L 85 75 L 84 74 L 83 74 L 82 73 L 81 73 L 79 71 L 78 71 L 77 70 L 76 70 L 75 69 L 74 69 L 72 67 L 71 67 L 70 66 L 69 66 L 67 64 " stroke="black" stroke-width="1" fill="none"/>
</svg>