<svg xmlns="http://www.w3.org/2000/svg" width="300" height="300" viewBox="0 0 300 300">
<path d="M 287 230 L 286 231 L 285 231 L 285 233 L 284 234 L 283 234 L 282 233 L 282 231 L 279 231 L 279 240 L 282 240 L 282 237 L 283 236 L 284 236 L 285 237 L 285 241 L 286 240 L 287 241 " stroke="black" stroke-width="1" fill="none"/>
<path d="M 282 235 L 283 234 L 284 234 L 285 235 L 284 236 L 283 236 " stroke="black" stroke-width="1" fill="none"/>
<path d="M 286 231 L 287 232 L 287 239 L 286 240 L 285 239 L 285 237 L 284 236 L 285 235 L 284 234 L 285 233 L 285 232 " stroke="black" stroke-width="1" fill="none"/>
<path d="M 280 231 L 281 231 L 282 232 L 282 239 L 281 240 L 280 240 L 279 239 L 279 232 " stroke="black" stroke-width="1" fill="none"/>
<path d="M 281 211 L 280 212 L 280 213 L 279 214 L 279 219 L 280 220 L 280 221 L 281 222 L 284 222 L 285 223 L 284 224 L 283 224 L 283 228 L 285 228 L 285 223 L 288 220 L 288 213 L 286 211 " stroke="black" stroke-width="1" fill="none"/>
<path d="M 284 224 L 285 225 L 285 227 L 284 228 L 283 227 L 283 225 " stroke="black" stroke-width="1" fill="none"/>
<path d="M 282 211 L 285 211 L 288 214 L 288 219 L 285 222 L 282 222 L 280 220 L 280 219 L 279 218 L 279 215 L 280 214 L 280 213 " stroke="black" stroke-width="1" fill="none"/>
<path d="M 283 213 L 282 214 L 282 215 L 281 216 L 281 217 L 282 218 L 282 219 L 283 220 L 284 219 L 285 219 L 286 218 L 286 215 L 285 214 L 284 214 " stroke="black" stroke-width="1" fill="none"/>
<path d="M 283 214 L 285 214 L 286 215 L 286 218 L 285 219 L 283 219 L 281 217 L 281 216 " stroke="black" stroke-width="1" fill="none"/>
<path d="M 220 209 L 221 210 L 222 210 L 223 211 L 222 210 L 221 210 " stroke="black" stroke-width="1" fill="none"/>
<path d="M 206 201 L 207 201 L 209 203 L 210 203 L 211 204 L 212 204 L 214 206 L 215 206 L 216 207 L 217 207 L 218 208 L 217 207 L 216 207 L 215 206 L 214 206 L 212 204 L 211 204 L 210 203 L 209 203 L 207 201 " stroke="black" stroke-width="1" fill="none"/>
<path d="M 206 199 L 208 199 L 209 200 L 210 200 L 212 202 L 213 202 L 214 203 L 215 203 L 217 205 L 218 205 L 219 206 L 220 206 L 222 208 L 223 208 L 224 209 L 225 209 L 227 211 L 228 211 L 227 210 L 226 210 L 225 209 L 224 209 L 222 207 L 221 207 L 220 206 L 219 206 L 217 204 L 216 204 L 215 203 L 214 203 L 212 201 L 211 201 L 209 199 " stroke="black" stroke-width="1" fill="none"/>
<path d="M 251 173 L 251 198 L 253 198 L 253 173 " stroke="black" stroke-width="1" fill="none"/>
<path d="M 252 173 L 253 174 L 253 197 L 252 198 L 251 197 L 251 174 " stroke="black" stroke-width="1" fill="none"/>
<path d="M 208 169 L 207 170 " stroke="black" stroke-width="1" fill="none"/>
<path d="M 210 168 " stroke="black" stroke-width="1" fill="none"/>
<path d="M 212 167 " stroke="black" stroke-width="1" fill="none"/>
<path d="M 208 167 " stroke="black" stroke-width="1" fill="none"/>
<path d="M 210 166 " stroke="black" stroke-width="1" fill="none"/>
<path d="M 96 166 " stroke="black" stroke-width="1" fill="none"/>
<path d="M 215 165 " stroke="black" stroke-width="1" fill="none"/>
<path d="M 217 164 " stroke="black" stroke-width="1" fill="none"/>
<path d="M 213 164 L 212 165 " stroke="black" stroke-width="1" fill="none"/>
<path d="M 99 164 L 98 165 " stroke="black" stroke-width="1" fill="none"/>
<path d="M 215 163 " stroke="black" stroke-width="1" fill="none"/>
<path d="M 143 163 L 142 164 L 142 165 L 141 166 L 141 171 L 142 172 L 142 173 L 143 174 L 148 174 L 150 172 L 150 165 L 148 163 " stroke="black" stroke-width="1" fill="none"/>
<path d="M 144 163 L 147 163 L 150 166 L 150 171 L 147 174 L 144 174 L 142 172 L 142 171 L 141 170 L 141 167 L 142 166 L 142 165 " stroke="black" stroke-width="1" fill="none"/>
<path d="M 145 165 L 144 166 L 144 167 L 143 168 L 143 169 L 144 170 L 144 171 L 145 172 L 146 171 L 147 171 L 148 170 L 148 167 L 147 166 L 146 166 " stroke="black" stroke-width="1" fill="none"/>
<path d="M 145 166 L 147 166 L 148 167 L 148 170 L 147 171 L 145 171 L 143 169 L 143 168 " stroke="black" stroke-width="1" fill="none"/>
<path d="M 97 163 L 96 164 " stroke="black" stroke-width="1" fill="none"/>
<path d="M 30 163 L 29 164 L 29 165 L 28 166 L 28 171 L 29 172 L 29 173 L 30 174 L 35 174 L 37 172 L 37 165 L 35 163 " stroke="black" stroke-width="1" fill="none"/>
<path d="M 31 163 L 34 163 L 37 166 L 37 171 L 34 174 L 31 174 L 29 172 L 29 171 L 28 170 L 28 167 L 29 166 L 29 165 " stroke="black" stroke-width="1" fill="none"/>
<path d="M 32 165 L 31 166 L 31 167 L 30 168 L 30 169 L 31 170 L 31 171 L 32 172 L 33 171 L 34 171 L 35 170 L 35 167 L 34 166 L 33 166 " stroke="black" stroke-width="1" fill="none"/>
<path d="M 32 166 L 34 166 L 35 167 L 35 170 L 34 171 L 32 171 L 30 169 L 30 168 " stroke="black" stroke-width="1" fill="none"/>
<path d="M 217 162 " stroke="black" stroke-width="1" fill="none"/>
<path d="M 102 162 L 101 163 " stroke="black" stroke-width="1" fill="none"/>
<path d="M 99 162 " stroke="black" stroke-width="1" fill="none"/>
<path d="M 228 161 L 227 161 L 226 162 L 225 162 L 224 163 L 223 163 L 222 164 L 221 164 L 220 165 L 219 165 L 218 166 L 217 166 L 216 167 L 215 167 L 213 169 L 212 169 L 211 170 L 210 170 L 208 172 L 206 172 L 209 172 L 211 170 L 212 170 L 214 168 L 215 168 L 216 167 L 217 167 L 218 166 L 219 166 L 220 165 L 221 165 L 222 164 L 223 164 L 224 163 L 225 163 L 226 162 L 227 162 " stroke="black" stroke-width="1" fill="none"/>
<path d="M 104 161 " stroke="black" stroke-width="1" fill="none"/>
<path d="M 102 160 " stroke="black" stroke-width="1" fill="none"/>
<path d="M 222 159 L 221 160 L 220 160 L 219 161 L 220 162 L 219 163 L 220 162 L 221 162 L 220 162 L 219 161 L 220 160 L 221 160 " stroke="black" stroke-width="1" fill="none"/>
<path d="M 107 159 L 106 160 " stroke="black" stroke-width="1" fill="none"/>
<path d="M 104 159 " stroke="black" stroke-width="1" fill="none"/>
<path d="M 109 158 " stroke="black" stroke-width="1" fill="none"/>
<path d="M 111 157 " stroke="black" stroke-width="1" fill="none"/>
<path d="M 107 157 " stroke="black" stroke-width="1" fill="none"/>
<path d="M 109 156 " stroke="black" stroke-width="1" fill="none"/>
<path d="M 42 166 L 44 166 L 46 164 L 49 163 L 51 161 L 54 160 L 61 155 L 64 158 L 70 161 L 75 165 L 89 172 L 91 172 L 93 171 L 95 169 L 98 168 L 106 162 L 111 160 L 118 155 L 120 157 L 123 158 L 125 160 L 128 161 L 135 166 L 137 166 L 134 165 L 132 163 L 129 162 L 127 160 L 122 158 L 118 155 L 114 158 L 109 160 L 107 162 L 104 163 L 99 167 L 96 168 L 94 170 L 90 172 L 74 164 L 72 162 L 66 159 L 61 155 L 57 158 L 47 163 L 45 165 " stroke="black" stroke-width="1" fill="none"/>
<path d="M 112 154 L 111 155 " stroke="black" stroke-width="1" fill="none"/>
<path d="M 19 154 L 18 155 L 17 154 L 17 157 L 16 158 L 15 158 L 14 157 L 14 155 L 11 155 L 11 164 L 14 164 L 14 161 L 15 160 L 16 160 L 17 161 L 17 165 L 18 164 L 19 165 " stroke="black" stroke-width="1" fill="none"/>
<path d="M 14 159 L 15 158 L 16 158 L 17 159 L 16 160 L 15 160 " stroke="black" stroke-width="1" fill="none"/>
<path d="M 18 155 L 19 156 L 19 163 L 18 164 L 17 163 L 17 161 L 16 160 L 17 159 L 16 158 L 17 157 L 17 156 " stroke="black" stroke-width="1" fill="none"/>
<path d="M 12 155 L 13 155 L 14 156 L 14 163 L 13 164 L 12 164 L 11 163 L 11 156 " stroke="black" stroke-width="1" fill="none"/>
<path d="M 113 152 L 110 152 L 108 154 L 107 154 L 105 156 L 104 156 L 103 157 L 102 157 L 100 159 L 99 159 L 98 160 L 97 160 L 95 162 L 94 162 L 93 163 L 92 163 L 91 164 L 92 164 L 93 163 L 94 163 L 96 161 L 97 161 L 98 160 L 99 160 L 101 158 L 102 158 L 103 157 L 104 157 L 106 155 L 107 155 L 108 154 L 109 154 L 111 152 " stroke="black" stroke-width="1" fill="none"/>
<path d="M 64 125 L 64 150 L 66 150 L 66 125 " stroke="black" stroke-width="1" fill="none"/>
<path d="M 65 125 L 66 126 L 66 149 L 65 150 L 64 149 L 64 126 " stroke="black" stroke-width="1" fill="none"/>
<path d="M 111 121 L 112 122 " stroke="black" stroke-width="1" fill="none"/>
<path d="M 106 118 L 107 119 L 108 119 L 109 120 L 108 119 L 107 119 " stroke="black" stroke-width="1" fill="none"/>
<path d="M 101 115 L 102 116 L 103 116 L 104 117 L 103 116 L 102 116 " stroke="black" stroke-width="1" fill="none"/>
<path d="M 96 112 L 97 113 L 98 113 L 99 114 L 98 113 L 97 113 " stroke="black" stroke-width="1" fill="none"/>
<path d="M 91 112 L 92 113 L 93 113 L 94 114 L 95 114 L 97 116 L 98 116 L 99 117 L 100 117 L 102 119 L 103 119 L 104 120 L 105 120 L 107 122 L 108 122 L 110 124 L 113 124 L 111 124 L 109 122 L 108 122 L 107 121 L 106 121 L 105 120 L 104 120 L 102 118 L 101 118 L 100 117 L 99 117 L 97 115 L 96 115 L 95 114 L 94 114 L 92 112 " stroke="black" stroke-width="1" fill="none"/>
<path d="M 200 92 L 200 97 L 201 97 L 202 98 L 201 99 L 198 99 L 197 100 L 197 101 L 196 102 L 196 107 L 197 108 L 197 109 L 198 110 L 203 110 L 205 108 L 205 101 L 202 98 L 202 92 " stroke="black" stroke-width="1" fill="none"/>
<path d="M 199 99 L 202 99 L 205 102 L 205 107 L 202 110 L 199 110 L 197 108 L 197 107 L 196 106 L 196 103 L 197 102 L 197 101 " stroke="black" stroke-width="1" fill="none"/>
<path d="M 200 101 L 199 102 L 199 103 L 198 104 L 198 105 L 199 106 L 199 107 L 200 108 L 201 107 L 202 107 L 203 106 L 203 103 L 202 102 L 201 102 " stroke="black" stroke-width="1" fill="none"/>
<path d="M 200 102 L 202 102 L 203 103 L 203 106 L 202 107 L 200 107 L 198 105 L 198 104 " stroke="black" stroke-width="1" fill="none"/>
<path d="M 201 92 L 202 93 L 202 96 L 201 97 L 200 96 L 200 93 " stroke="black" stroke-width="1" fill="none"/>
<path d="M 204 79 L 203 80 L 202 79 L 202 82 L 201 83 L 200 83 L 199 82 L 199 80 L 196 80 L 196 89 L 199 89 L 199 86 L 200 85 L 201 85 L 202 86 L 202 89 L 203 89 L 204 90 " stroke="black" stroke-width="1" fill="none"/>
<path d="M 199 84 L 200 83 L 201 83 L 202 84 L 201 85 L 200 85 " stroke="black" stroke-width="1" fill="none"/>
<path d="M 203 80 L 204 81 L 204 88 L 203 89 L 202 88 L 202 86 L 201 85 L 202 84 L 201 83 L 202 82 L 202 81 " stroke="black" stroke-width="1" fill="none"/>
<path d="M 197 80 L 198 80 L 199 81 L 199 88 L 198 89 L 197 89 L 196 88 L 196 81 " stroke="black" stroke-width="1" fill="none"/>
<path d="M 41 164 L 62 153 L 88 169 L 94 167 L 62 152 L 62 123 L 90 106 L 108 117 L 90 106 L 63 121 L 61 153 L 60 121 L 91 104 L 118 121 L 146 105 L 174 122 L 174 153 L 202 170 L 175 155 L 155 164 L 172 153 L 172 123 L 148 108 L 119 123 L 110 118 L 117 124 L 113 156 L 119 153 L 138 164 L 119 152 L 119 124 L 147 108 L 172 123 L 172 152 L 154 165 L 174 155 L 198 171 L 201 204 L 228 219 L 256 203 L 276 213 L 257 200 L 257 169 L 230 153 L 204 167 L 229 153 L 254 167 L 257 200 L 255 171 L 227 156 L 223 161 L 230 156 L 255 172 L 255 200 L 230 216 L 205 203 L 206 168 L 174 152 L 174 122 L 193 110 L 174 122 L 145 105 L 118 121 L 91 103 L 92 66 L 85 69 L 91 78 L 89 103 L 60 120 L 60 152 " stroke="black" stroke-width="1" fill="none"/>
<path d="M 200 172 L 201 171 L 202 172 L 202 201 L 206 204 L 211 206 L 213 208 L 218 210 L 220 212 L 225 214 L 227 216 L 231 216 L 233 214 L 238 212 L 240 210 L 243 209 L 245 207 L 248 206 L 255 201 L 257 201 L 261 204 L 266 206 L 268 208 L 272 210 L 274 210 L 275 212 L 274 213 L 273 212 L 271 212 L 267 210 L 265 208 L 260 206 L 256 203 L 254 205 L 251 206 L 249 208 L 246 209 L 239 214 L 234 216 L 232 218 L 230 218 L 229 219 L 228 218 L 226 218 L 224 216 L 219 214 L 217 212 L 205 206 L 200 202 " stroke="black" stroke-width="1" fill="none"/>
<path d="M 118 123 L 119 124 L 119 152 L 118 153 L 117 152 L 117 124 " stroke="black" stroke-width="1" fill="none"/>
<path d="M 182 117 L 181 118 L 180 118 L 179 119 L 177 119 L 176 120 L 175 119 L 175 118 L 176 117 L 178 117 L 180 115 " stroke="black" stroke-width="1" fill="none"/>
<path d="M 193 111 L 193 113 L 192 114 L 191 114 L 190 115 L 188 115 L 187 116 L 185 116 L 184 117 L 182 117 L 181 116 L 181 115 L 185 111 L 187 111 L 188 112 L 188 113 L 189 113 L 190 112 L 190 111 L 190 112 L 189 113 L 187 111 L 187 110 L 188 109 L 191 109 " stroke="black" stroke-width="1" fill="none"/>
<path d="M 186 113 " stroke="black" stroke-width="1" fill="none"/>
<path d="M 90 88 L 91 89 L 91 103 L 90 104 L 89 103 L 89 89 " stroke="black" stroke-width="1" fill="none"/>
<path d="M 90 79 L 91 80 L 91 87 L 90 88 L 89 87 L 89 80 " stroke="black" stroke-width="1" fill="none"/>
<path d="M 88 66 L 91 66 L 94 69 L 94 74 L 91 77 L 88 77 L 86 75 L 86 74 L 85 73 L 85 70 L 86 69 L 86 68 " stroke="black" stroke-width="1" fill="none"/>
<path d="M 89 68 L 88 69 L 88 70 L 87 71 L 87 72 L 88 73 L 88 74 L 89 75 L 90 74 L 91 74 L 92 73 L 92 70 L 91 69 L 90 69 " stroke="black" stroke-width="1" fill="none"/>
<path d="M 89 69 L 91 69 L 92 70 L 92 73 L 91 74 L 89 74 L 87 72 L 87 71 " stroke="black" stroke-width="1" fill="none"/>
<path d="M 76 56 L 75 57 L 74 56 L 74 59 L 73 60 L 72 60 L 71 59 L 71 57 L 68 57 L 68 66 L 71 66 L 71 63 L 72 62 L 73 62 L 74 63 L 74 67 L 75 66 L 76 67 " stroke="black" stroke-width="1" fill="none"/>
<path d="M 71 61 L 72 60 L 73 60 L 74 61 L 73 62 L 72 62 " stroke="black" stroke-width="1" fill="none"/>
<path d="M 75 57 L 76 58 L 76 65 L 75 66 L 74 65 L 74 63 L 73 62 L 74 61 L 73 60 L 74 59 L 74 58 " stroke="black" stroke-width="1" fill="none"/>
<path d="M 69 57 L 70 57 L 71 58 L 71 65 L 70 66 L 69 66 L 68 65 L 68 58 " stroke="black" stroke-width="1" fill="none"/>
</svg>