<svg xmlns="http://www.w3.org/2000/svg" width="300" height="300" viewBox="0 0 300 300">
<path d="M 256 185 L 255 186 L 254 185 L 254 188 L 253 189 L 252 189 L 251 188 L 251 186 L 248 186 L 248 195 L 251 195 L 251 192 L 252 191 L 253 191 L 254 192 L 254 196 L 255 195 L 256 196 " stroke="black" stroke-width="1" fill="none"/>
<path d="M 251 190 L 252 189 L 253 189 L 254 190 L 253 191 L 252 191 " stroke="black" stroke-width="1" fill="none"/>
<path d="M 255 186 L 256 187 L 256 194 L 255 195 L 254 194 L 254 192 L 253 191 L 254 190 L 253 189 L 254 188 L 254 187 " stroke="black" stroke-width="1" fill="none"/>
<path d="M 249 186 L 250 186 L 251 187 L 251 194 L 250 195 L 249 195 L 248 194 L 248 187 " stroke="black" stroke-width="1" fill="none"/>
<path d="M 34 129 L 62 146 L 62 164 L 61 165 L 60 164 L 60 147 L 33 131 L 48 141 L 57 145 L 60 148 L 60 173 L 58 176 L 58 181 L 60 184 L 65 184 L 67 182 L 67 175 L 65 173 L 66 172 L 66 148 L 72 143 L 83 137 L 66 147 L 66 164 L 65 165 L 64 164 L 64 146 L 67 143 L 82 135 L 80 135 L 62 146 L 61 144 L 52 140 " stroke="black" stroke-width="1" fill="none"/>
<path d="M 61 173 L 64 173 L 67 176 L 67 181 L 64 184 L 61 184 L 59 182 L 59 181 L 58 180 L 58 177 L 59 176 L 59 175 " stroke="black" stroke-width="1" fill="none"/>
<path d="M 62 175 L 61 176 L 61 177 L 60 178 L 60 179 L 61 180 L 61 181 L 62 182 L 63 181 L 64 181 L 65 180 L 65 177 L 64 176 L 63 176 " stroke="black" stroke-width="1" fill="none"/>
<path d="M 62 176 L 64 176 L 65 177 L 65 180 L 64 181 L 62 181 L 60 179 L 60 178 " stroke="black" stroke-width="1" fill="none"/>
<path d="M 60 172 L 61 171 L 62 172 L 61 173 " stroke="black" stroke-width="1" fill="none"/>
<path d="M 65 165 L 66 166 L 66 170 L 65 171 L 64 170 L 64 166 " stroke="black" stroke-width="1" fill="none"/>
<path d="M 61 165 L 62 166 L 62 170 L 61 171 L 60 170 L 60 166 " stroke="black" stroke-width="1" fill="none"/>
<path d="M 63 148 L 64 149 L 64 171 L 65 171 L 66 172 L 65 173 L 63 173 L 62 172 L 62 149 " stroke="black" stroke-width="1" fill="none"/>
<path d="M 62 147 L 63 146 L 64 147 L 63 148 " stroke="black" stroke-width="1" fill="none"/>
<path d="M 88 123 L 87 124 L 87 125 L 86 126 L 86 131 L 87 132 L 87 133 L 88 134 L 93 134 L 95 132 L 95 125 L 93 123 " stroke="black" stroke-width="1" fill="none"/>
<path d="M 89 123 L 92 123 L 95 126 L 95 131 L 92 134 L 89 134 L 87 132 L 87 131 L 86 130 L 86 127 L 87 126 L 87 125 " stroke="black" stroke-width="1" fill="none"/>
<path d="M 90 125 L 89 126 L 89 127 L 88 128 L 88 129 L 89 130 L 89 131 L 90 132 L 91 131 L 92 131 L 93 130 L 93 127 L 92 126 L 91 126 " stroke="black" stroke-width="1" fill="none"/>
<path d="M 90 126 L 92 126 L 93 127 L 93 130 L 92 131 L 90 131 L 88 129 L 88 128 " stroke="black" stroke-width="1" fill="none"/>
<path d="M 238 39 L 231 42 L 237 51 L 235 77 L 206 96 L 181 80 L 182 42 L 174 41 L 175 80 L 148 96 L 148 128 L 121 145 L 103 133 L 98 135 L 119 148 L 119 178 L 88 197 L 88 229 L 62 246 L 88 230 L 89 196 L 90 231 L 63 248 L 91 231 L 120 248 L 92 231 L 92 196 L 119 179 L 119 147 L 99 138 L 101 133 L 122 145 L 150 129 L 177 146 L 176 165 L 175 147 L 149 131 L 121 147 L 121 180 L 94 197 L 94 230 L 120 246 L 94 229 L 94 197 L 121 181 L 121 148 L 149 131 L 175 148 L 175 184 L 182 182 L 181 148 L 206 131 L 235 150 L 237 173 L 231 182 L 240 183 L 237 150 L 267 132 L 267 95 L 237 77 " stroke="black" stroke-width="1" fill="none"/>
<path d="M 90 230 L 91 229 L 92 230 L 91 231 " stroke="black" stroke-width="1" fill="none"/>
<path d="M 91 198 L 92 199 L 92 228 L 91 229 L 90 228 L 90 199 " stroke="black" stroke-width="1" fill="none"/>
<path d="M 234 174 L 237 174 L 240 177 L 240 182 L 237 185 L 234 185 L 232 183 L 232 182 L 231 181 L 231 178 L 232 177 L 232 176 " stroke="black" stroke-width="1" fill="none"/>
<path d="M 235 176 L 234 177 L 234 178 L 233 179 L 233 180 L 234 181 L 234 182 L 235 183 L 236 182 L 237 182 L 238 181 L 238 178 L 237 177 L 236 177 " stroke="black" stroke-width="1" fill="none"/>
<path d="M 235 177 L 237 177 L 238 178 L 238 181 L 237 182 L 235 182 L 233 180 L 233 179 " stroke="black" stroke-width="1" fill="none"/>
<path d="M 176 173 L 179 173 L 182 176 L 182 181 L 179 184 L 176 184 L 174 182 L 174 181 L 173 180 L 173 177 L 174 176 L 174 175 " stroke="black" stroke-width="1" fill="none"/>
<path d="M 177 175 L 176 176 L 176 177 L 175 178 L 175 179 L 176 180 L 176 181 L 177 182 L 178 181 L 179 181 L 180 180 L 180 177 L 179 176 L 178 176 " stroke="black" stroke-width="1" fill="none"/>
<path d="M 177 176 L 179 176 L 180 177 L 180 180 L 179 181 L 177 181 L 175 179 L 175 178 " stroke="black" stroke-width="1" fill="none"/>
<path d="M 175 172 L 176 171 L 177 172 L 176 173 " stroke="black" stroke-width="1" fill="none"/>
<path d="M 236 166 L 237 167 L 237 171 L 236 172 L 235 171 L 235 167 " stroke="black" stroke-width="1" fill="none"/>
<path d="M 180 165 L 181 166 L 181 170 L 180 171 L 179 170 L 179 166 " stroke="black" stroke-width="1" fill="none"/>
<path d="M 176 165 L 177 166 L 177 170 L 176 171 L 175 170 L 175 166 " stroke="black" stroke-width="1" fill="none"/>
<path d="M 236 149 L 237 150 L 237 165 L 236 166 L 235 165 L 235 150 " stroke="black" stroke-width="1" fill="none"/>
<path d="M 178 148 L 179 149 L 179 171 L 180 171 L 181 172 L 180 173 L 178 173 L 177 172 L 177 149 " stroke="black" stroke-width="1" fill="none"/>
<path d="M 177 147 L 178 146 L 179 147 L 178 148 " stroke="black" stroke-width="1" fill="none"/>
<path d="M 206 98 L 207 99 L 207 128 L 206 129 L 205 128 L 205 99 " stroke="black" stroke-width="1" fill="none"/>
<path d="M 177 82 L 179 82 L 181 84 L 182 84 L 184 86 L 187 87 L 192 91 L 193 91 L 194 92 L 197 93 L 199 95 L 202 96 L 205 99 L 205 128 L 201 132 L 198 133 L 196 135 L 195 135 L 190 139 L 185 141 L 183 143 L 180 144 L 178 146 L 177 146 L 176 145 L 176 144 L 175 144 L 174 143 L 167 140 L 165 138 L 162 137 L 157 133 L 154 132 L 150 128 L 150 99 L 153 96 L 154 96 L 155 95 L 156 95 L 158 93 L 163 91 L 165 89 L 168 88 L 170 86 L 173 85 L 175 83 L 176 83 " stroke="black" stroke-width="1" fill="none"/>
<path d="M 152 101 L 152 126 L 154 126 L 154 101 " stroke="black" stroke-width="1" fill="none"/>
<path d="M 153 101 L 154 102 L 154 125 L 153 126 L 152 125 L 152 102 " stroke="black" stroke-width="1" fill="none"/>
<path d="M 177 80 L 178 79 L 179 80 L 179 81 L 178 82 L 177 81 " stroke="black" stroke-width="1" fill="none"/>
<path d="M 179 64 L 180 63 L 181 64 L 181 80 L 184 83 L 206 96 L 235 78 L 239 79 L 251 87 L 265 94 L 267 96 L 267 131 L 264 134 L 237 149 L 233 148 L 206 131 L 181 147 L 181 164 L 180 165 L 179 164 L 179 146 L 205 129 L 211 132 L 207 128 L 207 99 L 213 94 L 205 98 L 183 85 L 179 81 " stroke="black" stroke-width="1" fill="none"/>
<path d="M 228 142 " stroke="black" stroke-width="1" fill="none"/>
<path d="M 230 141 " stroke="black" stroke-width="1" fill="none"/>
<path d="M 226 141 " stroke="black" stroke-width="1" fill="none"/>
<path d="M 223 139 " stroke="black" stroke-width="1" fill="none"/>
<path d="M 225 138 L 226 139 L 227 139 L 228 140 L 227 139 L 226 139 " stroke="black" stroke-width="1" fill="none"/>
<path d="M 221 138 " stroke="black" stroke-width="1" fill="none"/>
<path d="M 223 137 " stroke="black" stroke-width="1" fill="none"/>
<path d="M 221 136 " stroke="black" stroke-width="1" fill="none"/>
<path d="M 218 136 " stroke="black" stroke-width="1" fill="none"/>
<path d="M 216 135 " stroke="black" stroke-width="1" fill="none"/>
<path d="M 218 134 " stroke="black" stroke-width="1" fill="none"/>
<path d="M 216 133 " stroke="black" stroke-width="1" fill="none"/>
<path d="M 213 133 " stroke="black" stroke-width="1" fill="none"/>
<path d="M 213 131 " stroke="black" stroke-width="1" fill="none"/>
<path d="M 212 129 L 214 129 L 216 131 L 217 131 L 218 132 L 219 132 L 221 134 L 222 134 L 223 135 L 224 135 L 225 136 L 226 136 L 227 137 L 228 137 L 230 139 L 231 139 L 232 140 L 233 140 L 234 141 L 235 141 L 234 140 L 233 140 L 232 139 L 231 139 L 230 138 L 229 138 L 228 137 L 227 137 L 225 135 L 224 135 L 223 134 L 222 134 L 221 133 L 220 133 L 218 131 L 217 131 L 215 129 " stroke="black" stroke-width="1" fill="none"/>
<path d="M 261 101 L 261 127 L 263 127 L 263 101 " stroke="black" stroke-width="1" fill="none"/>
<path d="M 262 101 L 263 102 L 263 126 L 262 127 L 261 126 L 261 102 " stroke="black" stroke-width="1" fill="none"/>
<path d="M 214 96 L 213 97 " stroke="black" stroke-width="1" fill="none"/>
<path d="M 219 93 L 218 94 L 217 94 L 216 95 L 217 94 L 218 94 " stroke="black" stroke-width="1" fill="none"/>
<path d="M 218 91 L 217 92 L 216 92 L 215 93 L 216 92 L 217 92 " stroke="black" stroke-width="1" fill="none"/>
<path d="M 227 88 L 226 89 L 225 89 L 223 91 L 222 91 L 221 92 L 222 91 L 223 91 L 225 89 L 226 89 " stroke="black" stroke-width="1" fill="none"/>
<path d="M 223 88 L 222 89 L 221 89 L 220 90 L 221 89 L 222 89 " stroke="black" stroke-width="1" fill="none"/>
<path d="M 228 85 L 227 86 L 226 86 L 225 87 L 226 86 L 227 86 " stroke="black" stroke-width="1" fill="none"/>
<path d="M 236 80 L 230 84 L 231 83 L 233 84 L 229 87 L 233 84 L 234 85 L 232 88 L 216 98 L 212 99 L 215 99 L 220 95 L 235 86 L 234 84 L 232 83 L 236 80 L 251 90 L 262 95 L 265 98 L 265 129 L 259 134 L 238 145 L 236 147 L 232 144 L 235 143 L 232 142 L 233 143 L 232 144 L 230 143 L 236 147 L 251 139 L 265 130 L 265 97 L 257 92 L 248 88 " stroke="black" stroke-width="1" fill="none"/>
<path d="M 176 63 L 177 64 L 177 81 L 174 84 L 173 84 L 171 86 L 168 87 L 166 89 L 165 89 L 164 90 L 161 91 L 159 93 L 158 93 L 157 94 L 154 95 L 152 97 L 151 97 L 150 98 L 150 128 L 149 129 L 148 128 L 148 97 L 153 93 L 154 93 L 155 92 L 158 91 L 160 89 L 163 88 L 165 86 L 168 85 L 170 83 L 173 82 L 175 80 L 175 64 " stroke="black" stroke-width="1" fill="none"/>
<path d="M 236 62 L 237 63 L 237 77 L 236 78 L 235 77 L 235 63 " stroke="black" stroke-width="1" fill="none"/>
<path d="M 180 53 L 181 54 L 181 62 L 180 63 L 179 62 L 179 54 " stroke="black" stroke-width="1" fill="none"/>
<path d="M 176 53 L 177 54 L 177 62 L 176 63 L 175 62 L 175 54 " stroke="black" stroke-width="1" fill="none"/>
<path d="M 236 52 L 237 53 L 237 61 L 236 62 L 235 61 L 235 53 " stroke="black" stroke-width="1" fill="none"/>
<path d="M 180 51 L 181 52 L 180 53 L 179 53 L 179 78 L 178 79 L 177 78 L 177 52 L 178 51 " stroke="black" stroke-width="1" fill="none"/>
<path d="M 175 52 L 176 51 L 177 52 L 176 53 " stroke="black" stroke-width="1" fill="none"/>
<path d="M 176 40 L 179 40 L 182 43 L 182 48 L 179 51 L 176 51 L 174 49 L 174 48 L 173 47 L 173 44 L 174 43 L 174 42 " stroke="black" stroke-width="1" fill="none"/>
<path d="M 177 42 L 176 43 L 176 44 L 175 45 L 175 46 L 176 47 L 176 48 L 177 49 L 178 48 L 179 48 L 180 47 L 180 44 L 179 43 L 178 43 " stroke="black" stroke-width="1" fill="none"/>
<path d="M 177 43 L 179 43 L 180 44 L 180 47 L 179 48 L 177 48 L 175 46 L 175 45 " stroke="black" stroke-width="1" fill="none"/>
<path d="M 234 39 L 237 39 L 240 42 L 240 47 L 237 50 L 234 50 L 232 48 L 232 47 L 231 46 L 231 43 L 232 42 L 232 41 " stroke="black" stroke-width="1" fill="none"/>
<path d="M 235 41 L 234 42 L 234 43 L 233 44 L 233 45 L 234 46 L 234 47 L 235 48 L 236 47 L 237 47 L 238 46 L 238 43 L 237 42 L 236 42 " stroke="black" stroke-width="1" fill="none"/>
<path d="M 235 42 L 237 42 L 238 43 L 238 46 L 237 47 L 235 47 L 233 45 L 233 44 " stroke="black" stroke-width="1" fill="none"/>
<path d="M 256 29 L 255 30 L 254 29 L 254 32 L 253 33 L 252 33 L 251 32 L 251 30 L 248 30 L 248 39 L 251 39 L 251 36 L 252 35 L 253 35 L 254 36 L 254 40 L 255 39 L 256 40 " stroke="black" stroke-width="1" fill="none"/>
<path d="M 251 34 L 252 33 L 253 33 L 254 34 L 253 35 L 252 35 " stroke="black" stroke-width="1" fill="none"/>
<path d="M 255 30 L 256 31 L 256 38 L 255 39 L 254 38 L 254 36 L 253 35 L 254 34 L 253 33 L 254 32 L 254 31 " stroke="black" stroke-width="1" fill="none"/>
<path d="M 249 30 L 250 30 L 251 31 L 251 38 L 250 39 L 249 39 L 248 38 L 248 31 " stroke="black" stroke-width="1" fill="none"/>
</svg>