<svg xmlns="http://www.w3.org/2000/svg" width="300" height="300" viewBox="0 0 300 300">
<path d="M 81 278 L 81 285 L 82 285 L 83 286 L 83 283 L 84 282 L 85 282 L 86 283 L 86 285 L 88 285 L 88 278 L 86 278 L 84 280 L 83 279 L 83 277 L 82 278 " stroke="black" stroke-width="1" fill="none"/>
<path d="M 87 278 L 88 279 L 88 284 L 87 285 L 86 284 L 86 282 L 85 281 L 85 280 " stroke="black" stroke-width="1" fill="none"/>
<path d="M 82 278 L 83 279 L 83 280 L 84 280 L 85 281 L 84 282 L 83 282 L 83 284 L 82 285 L 81 284 L 81 279 " stroke="black" stroke-width="1" fill="none"/>
<path d="M 100 271 L 98 273 L 98 274 L 100 276 L 101 275 L 101 272 " stroke="black" stroke-width="1" fill="none"/>
<path d="M 100 271 L 101 272 L 101 275 L 100 276 L 98 274 L 98 273 " stroke="black" stroke-width="1" fill="none"/>
<path d="M 102 269 L 101 269 L 104 272 L 104 275 L 101 278 L 98 278 L 96 276 L 96 272 L 98 270 L 97 270 L 96 271 L 96 276 L 98 278 L 102 278 L 104 276 L 104 271 " stroke="black" stroke-width="1" fill="none"/>
<path d="M 141 260 L 141 267 L 142 267 L 143 268 L 143 265 L 144 264 L 145 264 L 146 265 L 146 267 L 148 267 L 148 260 L 146 260 L 144 262 L 143 261 L 143 260 " stroke="black" stroke-width="1" fill="none"/>
<path d="M 147 260 L 148 261 L 148 266 L 147 267 L 146 266 L 146 264 L 145 263 L 145 262 " stroke="black" stroke-width="1" fill="none"/>
<path d="M 142 260 L 143 261 L 143 262 L 144 262 L 145 263 L 144 264 L 143 264 L 143 266 L 142 267 L 141 266 L 141 261 " stroke="black" stroke-width="1" fill="none"/>
<path d="M 49 260 L 49 267 L 50 267 L 51 268 L 51 265 L 52 264 L 53 264 L 54 265 L 54 267 L 56 267 L 56 260 L 54 260 L 52 262 L 51 261 L 51 260 " stroke="black" stroke-width="1" fill="none"/>
<path d="M 55 260 L 56 261 L 56 266 L 55 267 L 54 266 L 54 264 L 53 263 L 53 262 " stroke="black" stroke-width="1" fill="none"/>
<path d="M 50 260 L 51 261 L 51 262 L 52 262 L 53 263 L 52 264 L 51 264 L 51 266 L 50 267 L 49 266 L 49 261 " stroke="black" stroke-width="1" fill="none"/>
<path d="M 148 243 L 144 243 L 142 245 L 142 250 L 144 252 L 144 257 L 146 257 L 146 254 L 145 254 L 144 253 L 145 252 L 148 252 L 150 250 L 150 245 " stroke="black" stroke-width="1" fill="none"/>
<path d="M 144 255 L 145 254 L 146 255 L 146 256 L 145 257 L 144 256 " stroke="black" stroke-width="1" fill="none"/>
<path d="M 144 243 L 147 243 L 150 246 L 150 249 L 147 252 L 145 252 L 144 251 L 143 251 L 142 250 L 142 246 L 143 245 L 143 244 " stroke="black" stroke-width="1" fill="none"/>
<path d="M 146 245 L 144 247 L 144 248 L 146 250 L 147 249 L 147 246 " stroke="black" stroke-width="1" fill="none"/>
<path d="M 146 245 L 147 246 L 147 249 L 146 250 L 144 248 L 144 247 " stroke="black" stroke-width="1" fill="none"/>
<path d="M 56 243 L 52 243 L 50 245 L 50 250 L 52 252 L 52 257 L 54 257 L 54 254 L 53 254 L 52 253 L 53 252 L 56 252 L 58 250 L 58 245 " stroke="black" stroke-width="1" fill="none"/>
<path d="M 52 255 L 53 254 L 54 255 L 54 256 L 53 257 L 52 256 " stroke="black" stroke-width="1" fill="none"/>
<path d="M 52 243 L 55 243 L 58 246 L 58 249 L 55 252 L 53 252 L 52 251 L 51 251 L 50 250 L 50 246 L 51 245 L 51 244 " stroke="black" stroke-width="1" fill="none"/>
<path d="M 54 245 L 52 247 L 52 248 L 54 250 L 55 249 L 55 246 " stroke="black" stroke-width="1" fill="none"/>
<path d="M 54 245 L 55 246 L 55 249 L 54 250 L 52 248 L 52 247 " stroke="black" stroke-width="1" fill="none"/>
<path d="M 71 238 L 70 239 L 69 239 L 68 240 L 69 240 " stroke="black" stroke-width="1" fill="none"/>
<path d="M 64 238 L 63 238 L 61 240 L 60 240 L 60 242 L 61 242 L 62 243 L 63 243 L 64 244 L 63 245 L 61 245 L 60 244 L 60 245 L 61 246 L 62 245 L 63 245 L 65 243 L 66 243 L 67 242 L 66 241 L 66 240 " stroke="black" stroke-width="1" fill="none"/>
<path d="M 60 241 L 62 239 L 63 239 L 64 240 L 65 239 L 66 240 L 66 242 L 65 243 L 63 243 L 62 242 L 61 242 " stroke="black" stroke-width="1" fill="none"/>
<path d="M 63 239 L 64 238 L 65 239 L 64 240 " stroke="black" stroke-width="1" fill="none"/>
<path d="M 70 236 L 69 236 L 68 237 L 66 237 L 67 238 L 69 236 " stroke="black" stroke-width="1" fill="none"/>
<path d="M 29 203 L 27 205 L 27 210 L 29 212 L 33 212 L 35 210 L 35 205 L 33 203 " stroke="black" stroke-width="1" fill="none"/>
<path d="M 29 203 L 32 203 L 35 206 L 35 209 L 32 212 L 29 212 L 27 210 L 27 206 L 28 205 L 28 204 " stroke="black" stroke-width="1" fill="none"/>
<path d="M 31 205 L 29 207 L 29 208 L 31 210 L 32 209 L 32 206 " stroke="black" stroke-width="1" fill="none"/>
<path d="M 31 205 L 32 206 L 32 209 L 31 210 L 29 208 L 29 207 " stroke="black" stroke-width="1" fill="none"/>
<path d="M 38 204 L 40 204 L 42 202 L 44 202 L 46 200 L 47 200 L 48 199 L 49 199 L 51 197 L 53 197 L 54 198 L 55 198 L 56 199 L 57 199 L 60 201 L 62 201 L 63 202 L 64 202 L 65 203 L 66 203 L 67 204 L 68 204 L 69 205 L 70 205 L 71 206 L 72 206 L 75 209 L 75 233 L 74 234 L 72 234 L 72 235 L 75 233 L 75 208 L 74 207 L 73 207 L 72 206 L 71 206 L 70 205 L 69 205 L 68 204 L 67 204 L 66 203 L 65 203 L 64 202 L 63 202 L 62 201 L 61 201 L 60 200 L 59 200 L 56 198 L 54 198 L 53 197 L 51 197 L 50 198 L 49 198 L 47 200 L 46 200 L 45 201 L 44 201 L 43 202 L 42 202 L 41 203 L 40 203 L 39 204 " stroke="black" stroke-width="1" fill="none"/>
<path d="M 137 196 L 133 197 L 121 206 L 111 199 L 107 198 L 121 206 L 120 208 L 106 200 L 121 209 L 121 232 L 100 246 L 98 246 L 77 232 L 77 209 L 93 200 L 77 208 L 77 233 L 94 243 L 98 247 L 97 248 L 76 235 L 73 237 L 76 235 L 98 249 L 95 265 L 96 267 L 101 267 L 100 249 L 122 235 L 129 239 L 135 245 L 139 244 L 139 240 L 131 240 L 131 237 L 123 232 L 123 209 L 129 204 L 138 201 L 139 198 " stroke="black" stroke-width="1" fill="none"/>
<path d="M 99 246 L 101 248 L 100 249 L 100 257 L 101 258 L 101 266 L 100 267 L 97 267 L 95 265 L 96 264 L 96 258 L 97 257 L 97 250 L 98 249 L 97 248 " stroke="black" stroke-width="1" fill="none"/>
<path d="M 133 240 L 134 239 L 135 240 L 136 239 L 137 240 L 138 240 L 139 241 L 139 243 L 137 245 L 136 245 L 133 242 " stroke="black" stroke-width="1" fill="none"/>
<path d="M 131 240 L 132 239 L 133 240 L 133 241 L 132 242 L 131 241 " stroke="black" stroke-width="1" fill="none"/>
<path d="M 126 236 L 127 235 L 128 236 L 129 236 L 130 237 L 130 238 L 129 239 L 128 238 L 127 238 L 126 237 " stroke="black" stroke-width="1" fill="none"/>
<path d="M 136 196 L 139 199 L 137 201 L 136 201 L 135 202 L 133 202 L 132 203 L 130 203 L 129 204 L 128 204 L 126 206 L 125 206 L 123 208 L 123 233 L 124 233 L 126 235 L 126 236 L 125 237 L 122 235 L 117 239 L 114 240 L 112 242 L 109 243 L 107 245 L 106 245 L 105 246 L 104 246 L 102 248 L 101 248 L 100 247 L 100 246 L 101 245 L 102 245 L 103 244 L 106 243 L 108 241 L 111 240 L 113 238 L 114 238 L 116 236 L 119 235 L 121 233 L 121 207 L 124 204 L 125 204 L 127 202 L 128 202 L 131 199 L 132 199 L 134 197 L 135 197 " stroke="black" stroke-width="1" fill="none"/>
<path d="M 12 196 L 12 203 L 13 203 L 14 204 L 14 201 L 15 200 L 16 200 L 17 201 L 17 203 L 19 203 L 19 196 L 17 196 L 15 198 L 14 197 L 14 195 L 13 196 " stroke="black" stroke-width="1" fill="none"/>
<path d="M 18 196 L 19 197 L 19 202 L 18 203 L 17 202 L 17 200 L 16 199 L 16 198 " stroke="black" stroke-width="1" fill="none"/>
<path d="M 13 196 L 14 197 L 14 198 L 15 198 L 16 199 L 15 200 L 14 200 L 14 202 L 13 203 L 12 202 L 12 197 " stroke="black" stroke-width="1" fill="none"/>
<path d="M 37 202 L 38 202 L 39 201 L 40 201 L 41 200 L 42 200 L 43 199 L 44 199 L 45 198 L 46 198 L 48 196 L 49 196 L 50 195 L 51 195 L 54 192 L 55 192 L 58 195 L 59 195 L 61 197 L 62 197 L 64 199 L 65 199 L 67 201 L 68 201 L 69 202 L 70 202 L 72 204 L 73 204 L 74 205 L 75 205 L 76 206 L 77 206 L 78 205 L 79 205 L 80 204 L 81 204 L 82 203 L 83 203 L 85 201 L 86 201 L 87 200 L 88 200 L 89 199 L 90 199 L 91 198 L 92 198 L 90 198 L 88 200 L 87 200 L 86 201 L 85 201 L 84 202 L 83 202 L 82 203 L 81 203 L 79 205 L 78 205 L 77 206 L 76 205 L 75 205 L 74 204 L 73 204 L 71 202 L 70 202 L 69 201 L 68 201 L 66 199 L 65 199 L 63 197 L 62 197 L 60 195 L 59 195 L 56 192 L 53 192 L 49 196 L 48 196 L 47 197 L 46 197 L 45 198 L 44 198 L 43 199 L 42 199 L 40 201 L 38 201 " stroke="black" stroke-width="1" fill="none"/>
<path d="M 98 190 L 96 192 L 96 197 L 98 199 L 102 199 L 104 197 L 104 192 L 102 190 " stroke="black" stroke-width="1" fill="none"/>
<path d="M 98 190 L 101 190 L 104 193 L 104 196 L 101 199 L 98 199 L 96 197 L 96 193 L 97 192 L 97 191 " stroke="black" stroke-width="1" fill="none"/>
<path d="M 100 192 L 98 194 L 98 195 L 100 197 L 101 196 L 101 193 " stroke="black" stroke-width="1" fill="none"/>
<path d="M 100 192 L 101 193 L 101 196 L 100 197 L 98 195 L 98 194 " stroke="black" stroke-width="1" fill="none"/>
<path d="M 140 164 " stroke="black" stroke-width="1" fill="none"/>
<path d="M 142 163 " stroke="black" stroke-width="1" fill="none"/>
<path d="M 138 163 " stroke="black" stroke-width="1" fill="none"/>
<path d="M 140 162 " stroke="black" stroke-width="1" fill="none"/>
<path d="M 135 161 " stroke="black" stroke-width="1" fill="none"/>
<path d="M 137 160 L 138 161 " stroke="black" stroke-width="1" fill="none"/>
<path d="M 133 160 " stroke="black" stroke-width="1" fill="none"/>
<path d="M 135 159 " stroke="black" stroke-width="1" fill="none"/>
<path d="M 130 158 " stroke="black" stroke-width="1" fill="none"/>
<path d="M 132 157 L 133 158 " stroke="black" stroke-width="1" fill="none"/>
<path d="M 128 157 " stroke="black" stroke-width="1" fill="none"/>
<path d="M 130 156 " stroke="black" stroke-width="1" fill="none"/>
<path d="M 127 152 L 127 154 L 128 155 L 127 154 L 127 153 L 128 152 L 130 154 L 131 154 L 132 155 L 133 155 L 135 157 L 136 157 L 137 158 L 138 158 L 140 160 L 141 160 L 142 161 L 143 161 L 144 162 L 144 164 L 144 163 L 145 162 L 144 161 L 143 161 L 142 160 L 141 160 L 140 159 L 139 159 L 137 157 L 136 157 L 135 156 L 134 156 L 132 154 L 131 154 L 129 152 " stroke="black" stroke-width="1" fill="none"/>
<path d="M 164 130 L 164 151 L 166 151 L 166 130 " stroke="black" stroke-width="1" fill="none"/>
<path d="M 165 130 L 166 131 L 166 150 L 165 151 L 164 150 L 164 131 " stroke="black" stroke-width="1" fill="none"/>
<path d="M 127 127 " stroke="black" stroke-width="1" fill="none"/>
<path d="M 129 126 " stroke="black" stroke-width="1" fill="none"/>
<path d="M 127 125 " stroke="black" stroke-width="1" fill="none"/>
<path d="M 132 124 " stroke="black" stroke-width="1" fill="none"/>
<path d="M 129 124 " stroke="black" stroke-width="1" fill="none"/>
<path d="M 134 123 " stroke="black" stroke-width="1" fill="none"/>
<path d="M 134 121 " stroke="black" stroke-width="1" fill="none"/>
<path d="M 145 120 L 144 120 L 143 121 L 142 121 L 141 122 L 140 122 L 139 123 L 138 123 L 137 124 L 136 124 L 135 125 L 134 125 L 133 126 L 132 126 L 130 128 L 129 128 L 128 129 L 127 129 L 129 129 L 131 127 L 132 127 L 133 126 L 134 126 L 135 125 L 136 125 L 137 124 L 138 124 L 139 123 L 140 123 L 141 122 L 142 122 L 143 121 L 144 121 " stroke="black" stroke-width="1" fill="none"/>
<path d="M 90 116 L 90 118 L 93 118 L 93 116 " stroke="black" stroke-width="1" fill="none"/>
<path d="M 90 117 L 91 116 L 92 116 L 93 117 L 92 118 L 91 118 " stroke="black" stroke-width="1" fill="none"/>
<path d="M 80 117 L 80 124 L 81 124 L 82 125 L 82 122 L 83 121 L 84 121 L 85 122 L 85 124 L 87 124 L 87 117 L 85 117 L 83 119 L 82 118 L 82 116 L 81 117 " stroke="black" stroke-width="1" fill="none"/>
<path d="M 86 117 L 87 118 L 87 123 L 86 124 L 85 123 L 85 121 L 84 120 L 84 119 " stroke="black" stroke-width="1" fill="none"/>
<path d="M 81 117 L 82 118 L 82 119 L 83 119 L 84 120 L 83 121 L 82 121 L 82 123 L 81 124 L 80 123 L 80 118 " stroke="black" stroke-width="1" fill="none"/>
<path d="M 186 118 L 170 128 L 146 114 L 141 117 L 143 118 L 139 120 L 139 118 L 138 121 L 136 120 L 136 122 L 144 118 L 142 117 L 146 114 L 168 129 L 168 152 L 145 167 L 142 165 L 145 167 L 168 153 L 168 129 L 170 129 L 170 154 L 146 169 L 120 154 L 120 132 L 122 128 L 122 153 L 126 156 L 122 152 L 124 127 L 121 128 L 106 119 L 121 129 L 120 155 L 144 170 L 144 190 L 142 192 L 142 197 L 144 199 L 150 197 L 150 192 L 144 189 L 146 188 L 146 170 L 170 155 L 170 129 " stroke="black" stroke-width="1" fill="none"/>
<path d="M 145 190 L 147 190 L 150 193 L 150 196 L 147 199 L 144 199 L 142 197 L 142 193 " stroke="black" stroke-width="1" fill="none"/>
<path d="M 146 192 L 144 194 L 144 195 L 146 197 L 147 196 L 147 193 " stroke="black" stroke-width="1" fill="none"/>
<path d="M 146 192 L 147 193 L 147 196 L 146 197 L 144 195 L 144 194 " stroke="black" stroke-width="1" fill="none"/>
<path d="M 145 182 L 146 183 L 146 187 L 145 188 L 144 187 L 144 183 " stroke="black" stroke-width="1" fill="none"/>
<path d="M 145 169 L 146 170 L 146 181 L 145 182 L 144 181 L 144 170 " stroke="black" stroke-width="1" fill="none"/>
<path d="M 98 108 L 96 110 L 96 115 L 98 117 L 102 117 L 104 115 L 104 110 L 102 108 " stroke="black" stroke-width="1" fill="none"/>
<path d="M 98 108 L 101 108 L 104 111 L 104 114 L 101 117 L 98 117 L 96 115 L 96 111 L 97 110 L 97 109 " stroke="black" stroke-width="1" fill="none"/>
<path d="M 100 110 L 98 112 L 98 113 L 100 115 L 101 114 L 101 111 " stroke="black" stroke-width="1" fill="none"/>
<path d="M 100 110 L 101 111 L 101 114 L 100 115 L 98 113 L 98 112 " stroke="black" stroke-width="1" fill="none"/>
<path d="M 241 84 " stroke="black" stroke-width="1" fill="none"/>
<path d="M 185 84 " stroke="black" stroke-width="1" fill="none"/>
<path d="M 244 82 " stroke="black" stroke-width="1" fill="none"/>
<path d="M 177 82 L 178 83 L 179 83 L 180 84 L 181 84 L 182 85 L 183 85 L 184 86 L 185 86 L 186 87 L 185 86 L 184 86 L 183 85 L 182 85 L 181 84 L 180 84 L 179 83 L 178 83 " stroke="black" stroke-width="1" fill="none"/>
<path d="M 140 82 " stroke="black" stroke-width="1" fill="none"/>
<path d="M 247 80 L 246 81 " stroke="black" stroke-width="1" fill="none"/>
<path d="M 244 80 " stroke="black" stroke-width="1" fill="none"/>
<path d="M 132 80 L 133 81 L 134 81 L 135 82 L 136 82 L 137 83 L 138 83 L 139 84 L 140 84 L 141 85 L 142 85 L 143 86 L 144 86 L 145 87 L 145 85 L 144 86 L 143 86 L 142 85 L 143 84 L 142 83 L 143 84 L 142 85 L 141 85 L 140 84 L 139 84 L 138 83 L 137 83 L 136 82 L 135 82 L 134 81 L 133 81 " stroke="black" stroke-width="1" fill="none"/>
<path d="M 176 79 L 177 80 L 178 80 L 179 81 L 180 81 L 181 82 L 182 82 L 183 83 L 182 82 L 181 82 L 180 81 L 179 81 L 178 80 L 177 80 " stroke="black" stroke-width="1" fill="none"/>
<path d="M 247 78 " stroke="black" stroke-width="1" fill="none"/>
<path d="M 170 78 L 170 79 L 169 80 L 170 81 L 171 81 L 173 83 L 174 83 L 175 84 L 176 84 L 178 86 L 179 86 L 180 87 L 181 87 L 182 88 L 183 88 L 184 89 L 186 89 L 185 89 L 184 88 L 183 88 L 182 87 L 181 87 L 180 86 L 179 86 L 178 85 L 177 85 L 175 83 L 174 83 L 173 82 L 172 82 L 170 80 L 171 79 L 172 79 L 173 80 L 174 80 L 175 81 L 174 80 L 173 80 L 172 79 L 171 79 " stroke="black" stroke-width="1" fill="none"/>
<path d="M 131 77 L 132 78 L 133 78 L 134 79 L 135 79 L 136 80 L 137 80 L 138 81 L 137 80 L 136 80 L 135 79 L 134 79 L 133 78 L 132 78 " stroke="black" stroke-width="1" fill="none"/>
<path d="M 185 116 L 183 116 L 169 126 L 147 111 L 147 88 L 168 76 L 171 76 L 174 78 L 171 76 L 167 76 L 147 87 L 147 111 L 146 112 L 145 111 L 145 89 L 132 83 L 129 80 L 130 79 L 129 78 L 128 80 L 130 82 L 141 88 L 143 88 L 145 90 L 145 111 L 142 114 L 127 122 L 122 126 L 112 119 L 106 117 L 108 117 L 122 126 L 143 113 L 147 112 L 169 126 " stroke="black" stroke-width="1" fill="none"/>
<path d="M 252 75 " stroke="black" stroke-width="1" fill="none"/>
<path d="M 255 71 L 253 71 L 251 73 L 250 73 L 248 75 L 247 75 L 245 77 L 244 77 L 243 78 L 242 78 L 240 80 L 239 80 L 238 81 L 239 82 L 239 83 L 240 82 L 241 82 L 240 82 L 239 81 L 240 80 L 241 80 L 243 78 L 244 78 L 246 76 L 247 76 L 249 74 L 250 74 L 251 73 L 252 73 L 254 71 L 255 72 L 255 73 L 254 74 L 255 73 " stroke="black" stroke-width="1" fill="none"/>
<path d="M 122 68 L 120 70 L 120 75 L 122 77 L 126 77 L 128 75 L 128 70 L 126 68 " stroke="black" stroke-width="1" fill="none"/>
<path d="M 122 68 L 125 68 L 128 71 L 128 74 L 125 77 L 122 77 L 120 75 L 120 71 L 121 70 L 121 69 " stroke="black" stroke-width="1" fill="none"/>
<path d="M 124 70 L 122 72 L 122 73 L 124 75 L 125 74 L 125 71 " stroke="black" stroke-width="1" fill="none"/>
<path d="M 124 70 L 125 71 L 125 74 L 124 75 L 122 73 L 122 72 " stroke="black" stroke-width="1" fill="none"/>
<path d="M 218 50 L 218 71 L 220 71 L 220 50 " stroke="black" stroke-width="1" fill="none"/>
<path d="M 219 50 L 220 51 L 220 70 L 219 71 L 218 70 L 218 51 " stroke="black" stroke-width="1" fill="none"/>
<path d="M 254 47 L 255 48 " stroke="black" stroke-width="1" fill="none"/>
<path d="M 252 46 " stroke="black" stroke-width="1" fill="none"/>
<path d="M 247 43 " stroke="black" stroke-width="1" fill="none"/>
<path d="M 244 41 " stroke="black" stroke-width="1" fill="none"/>
<path d="M 246 40 L 247 41 " stroke="black" stroke-width="1" fill="none"/>
<path d="M 278 39 L 262 48 L 249 42 L 250 45 L 249 44 L 251 43 L 260 49 L 260 72 L 251 78 L 249 77 L 250 76 L 249 79 L 260 73 L 260 49 L 261 48 L 262 49 L 262 74 L 238 88 L 215 75 L 203 81 L 193 88 L 187 85 L 191 89 L 191 108 L 189 110 L 189 115 L 191 117 L 195 117 L 197 115 L 197 110 L 191 107 L 193 106 L 193 89 L 196 86 L 215 75 L 237 88 L 262 75 L 262 49 L 265 46 " stroke="black" stroke-width="1" fill="none"/>
<path d="M 192 108 L 194 108 L 197 111 L 197 114 L 194 117 L 191 117 L 189 115 L 189 111 " stroke="black" stroke-width="1" fill="none"/>
<path d="M 193 110 L 191 112 L 191 113 L 193 115 L 194 114 L 194 111 " stroke="black" stroke-width="1" fill="none"/>
<path d="M 193 110 L 194 111 L 194 114 L 193 115 L 191 113 L 191 112 " stroke="black" stroke-width="1" fill="none"/>
<path d="M 192 101 L 193 102 L 193 105 L 192 106 L 191 105 L 191 102 " stroke="black" stroke-width="1" fill="none"/>
<path d="M 192 88 L 193 89 L 193 100 L 192 101 L 191 100 L 191 89 " stroke="black" stroke-width="1" fill="none"/>
<path d="M 244 39 " stroke="black" stroke-width="1" fill="none"/>
<path d="M 239 38 L 239 39 L 238 40 L 239 41 L 240 41 L 242 43 L 243 43 L 244 44 L 245 44 L 247 46 L 248 46 L 250 48 L 251 48 L 253 50 L 255 50 L 254 50 L 252 48 L 251 48 L 250 47 L 249 47 L 247 45 L 246 45 L 244 43 L 243 43 L 242 42 L 241 42 L 239 40 L 240 39 L 241 39 L 242 40 L 241 39 L 240 39 " stroke="black" stroke-width="1" fill="none"/>
<path d="M 241 37 " stroke="black" stroke-width="1" fill="none"/>
<path d="M 277 37 L 261 46 L 237 33 L 215 45 L 214 72 L 192 86 L 170 73 L 167 73 L 148 84 L 131 75 L 149 84 L 169 73 L 192 86 L 202 79 L 216 73 L 236 85 L 239 85 L 216 72 L 216 49 L 239 36 L 236 36 L 216 48 L 215 73 L 214 47 L 238 33 L 261 46 " stroke="black" stroke-width="1" fill="none"/>
<path d="M 283 24 L 283 29 L 281 31 L 281 36 L 283 38 L 287 38 L 289 36 L 289 31 L 287 29 L 284 29 L 283 28 L 284 27 L 285 27 L 285 24 " stroke="black" stroke-width="1" fill="none"/>
<path d="M 284 29 L 286 29 L 289 32 L 289 35 L 286 38 L 283 38 L 281 36 L 281 32 " stroke="black" stroke-width="1" fill="none"/>
<path d="M 285 31 L 283 33 L 283 34 L 285 36 L 286 35 L 286 32 " stroke="black" stroke-width="1" fill="none"/>
<path d="M 285 31 L 286 32 L 286 35 L 285 36 L 283 34 L 283 33 " stroke="black" stroke-width="1" fill="none"/>
<path d="M 283 25 L 284 24 L 285 25 L 285 26 L 284 27 L 283 26 " stroke="black" stroke-width="1" fill="none"/>
<path d="M 280 14 L 280 21 L 282 21 L 282 19 L 283 18 L 284 18 L 285 19 L 285 21 L 287 21 L 287 14 L 285 14 L 283 16 L 282 15 L 282 13 L 281 14 " stroke="black" stroke-width="1" fill="none"/>
<path d="M 286 14 L 287 15 L 287 20 L 286 21 L 285 20 L 285 18 L 284 17 L 284 16 " stroke="black" stroke-width="1" fill="none"/>
<path d="M 281 14 L 282 15 L 282 16 L 283 16 L 284 17 L 283 18 L 282 18 L 282 20 L 281 21 L 280 20 L 280 15 " stroke="black" stroke-width="1" fill="none"/>
</svg>