<svg xmlns="http://www.w3.org/2000/svg" width="300" height="300" viewBox="0 0 300 300">
<path d="M 245 203 L 243 205 L 243 210 L 245 212 L 249 212 L 251 210 L 251 205 L 249 203 " stroke="black" stroke-width="1" fill="none"/>
<path d="M 245 203 L 248 203 L 251 206 L 251 209 L 248 212 L 245 212 L 243 210 L 243 206 L 244 205 L 244 204 " stroke="black" stroke-width="1" fill="none"/>
<path d="M 247 205 L 245 207 L 245 208 L 247 210 L 248 209 L 248 206 " stroke="black" stroke-width="1" fill="none"/>
<path d="M 247 205 L 248 206 L 248 209 L 247 210 L 245 208 L 245 207 " stroke="black" stroke-width="1" fill="none"/>
<path d="M 210 200 " stroke="black" stroke-width="1" fill="none"/>
<path d="M 213 198 " stroke="black" stroke-width="1" fill="none"/>
<path d="M 215 197 " stroke="black" stroke-width="1" fill="none"/>
<path d="M 211 197 L 210 198 " stroke="black" stroke-width="1" fill="none"/>
<path d="M 213 196 " stroke="black" stroke-width="1" fill="none"/>
<path d="M 270 195 L 269 195 L 268 196 L 267 196 L 265 198 L 264 198 L 263 199 L 262 199 L 260 201 L 259 201 L 258 202 L 257 202 L 255 204 L 253 204 L 255 204 L 256 203 L 257 203 L 258 202 L 259 202 L 261 200 L 262 200 L 263 199 L 264 199 L 266 197 L 267 197 L 268 196 L 269 196 " stroke="black" stroke-width="1" fill="none"/>
<path d="M 269 193 L 267 193 L 265 195 L 264 195 L 263 196 L 262 196 L 260 198 L 259 198 L 258 199 L 257 199 L 255 201 L 254 201 L 253 202 L 254 202 L 256 200 L 257 200 L 258 199 L 259 199 L 261 197 L 262 197 L 263 196 L 264 196 L 266 194 L 267 194 L 268 193 " stroke="black" stroke-width="1" fill="none"/>
<path d="M 216 192 L 214 192 L 212 194 L 211 194 L 209 196 L 208 196 L 207 197 L 206 197 L 205 198 L 204 198 L 203 199 L 202 199 L 201 200 L 200 200 L 199 201 L 200 201 L 201 200 L 202 200 L 203 199 L 204 199 L 205 198 L 206 198 L 207 197 L 208 197 L 210 195 L 211 195 L 212 194 L 213 194 L 215 192 L 216 193 L 216 194 L 215 195 L 216 194 " stroke="black" stroke-width="1" fill="none"/>
<path d="M 178 170 L 178 191 L 180 191 L 180 170 " stroke="black" stroke-width="1" fill="none"/>
<path d="M 179 170 L 180 171 L 180 190 L 179 191 L 178 190 L 178 171 " stroke="black" stroke-width="1" fill="none"/>
<path d="M 215 166 L 216 167 " stroke="black" stroke-width="1" fill="none"/>
<path d="M 213 165 " stroke="black" stroke-width="1" fill="none"/>
<path d="M 215 164 " stroke="black" stroke-width="1" fill="none"/>
<path d="M 213 163 " stroke="black" stroke-width="1" fill="none"/>
<path d="M 210 163 L 211 164 " stroke="black" stroke-width="1" fill="none"/>
<path d="M 126 162 L 124 164 L 124 169 L 126 171 L 130 171 L 132 169 L 132 164 L 130 162 " stroke="black" stroke-width="1" fill="none"/>
<path d="M 126 162 L 129 162 L 132 165 L 132 168 L 129 171 L 126 171 L 124 169 L 124 165 L 125 164 L 125 163 " stroke="black" stroke-width="1" fill="none"/>
<path d="M 128 164 L 126 166 L 126 167 L 128 169 L 129 168 L 129 165 " stroke="black" stroke-width="1" fill="none"/>
<path d="M 128 164 L 129 165 L 129 168 L 128 169 L 126 167 L 126 166 " stroke="black" stroke-width="1" fill="none"/>
<path d="M 86 162 L 85 163 " stroke="black" stroke-width="1" fill="none"/>
<path d="M 30 162 L 28 164 L 28 169 L 30 171 L 34 171 L 36 169 L 36 164 L 34 162 " stroke="black" stroke-width="1" fill="none"/>
<path d="M 30 162 L 33 162 L 36 165 L 36 168 L 33 171 L 30 171 L 28 169 L 28 165 L 29 164 L 29 163 " stroke="black" stroke-width="1" fill="none"/>
<path d="M 32 164 L 30 166 L 30 167 L 32 169 L 33 168 L 33 165 " stroke="black" stroke-width="1" fill="none"/>
<path d="M 32 164 L 33 165 L 33 168 L 32 169 L 30 167 L 30 166 " stroke="black" stroke-width="1" fill="none"/>
<path d="M 22 162 L 22 164 L 23 165 L 25 165 L 25 163 L 24 162 " stroke="black" stroke-width="1" fill="none"/>
<path d="M 22 163 L 23 162 L 24 162 L 25 163 L 25 164 L 24 165 L 23 165 L 22 164 " stroke="black" stroke-width="1" fill="none"/>
<path d="M 210 161 " stroke="black" stroke-width="1" fill="none"/>
<path d="M 199 160 L 200 161 L 201 161 L 202 162 L 203 162 L 204 163 L 205 163 L 206 164 L 207 164 L 208 165 L 209 165 L 211 167 L 212 167 L 214 169 L 216 169 L 215 169 L 213 167 L 212 167 L 211 166 L 210 166 L 208 164 L 207 164 L 206 163 L 205 163 L 204 162 L 203 162 L 202 161 L 201 161 L 200 160 " stroke="black" stroke-width="1" fill="none"/>
<path d="M 89 160 L 88 161 " stroke="black" stroke-width="1" fill="none"/>
<path d="M 86 160 " stroke="black" stroke-width="1" fill="none"/>
<path d="M 91 159 " stroke="black" stroke-width="1" fill="none"/>
<path d="M 93 158 " stroke="black" stroke-width="1" fill="none"/>
<path d="M 89 158 " stroke="black" stroke-width="1" fill="none"/>
<path d="M 91 157 " stroke="black" stroke-width="1" fill="none"/>
<path d="M 96 156 L 95 157 " stroke="black" stroke-width="1" fill="none"/>
<path d="M 93 156 " stroke="black" stroke-width="1" fill="none"/>
<path d="M 98 155 " stroke="black" stroke-width="1" fill="none"/>
<path d="M 135 163 L 151 154 L 171 166 L 174 169 L 174 195 L 197 209 L 205 206 L 222 195 L 239 205 L 222 195 L 198 209 L 174 194 L 175 168 L 176 193 L 196 206 L 200 206 L 203 204 L 201 203 L 204 201 L 206 202 L 205 203 L 206 200 L 208 201 L 208 199 L 200 203 L 202 204 L 197 206 L 176 192 L 176 169 L 197 155 L 202 157 L 200 158 L 208 162 L 208 160 L 206 161 L 205 158 L 205 160 L 201 158 L 203 157 L 200 155 L 196 155 L 176 168 L 151 154 " stroke="black" stroke-width="1" fill="none"/>
<path d="M 120 164 L 117 163 L 115 161 L 114 161 L 112 159 L 109 158 L 104 154 L 103 155 L 98 157 L 96 159 L 91 161 L 89 163 L 88 163 L 86 165 L 85 165 L 83 167 L 82 167 L 79 169 L 78 168 L 76 168 L 74 166 L 71 165 L 69 163 L 68 163 L 67 162 L 60 159 L 58 157 L 57 157 L 54 155 L 49 159 L 48 159 L 44 162 L 39 164 L 41 164 L 42 163 L 43 163 L 45 161 L 46 161 L 50 158 L 51 158 L 54 155 L 56 157 L 63 160 L 65 162 L 70 164 L 72 166 L 73 166 L 78 169 L 80 169 L 84 166 L 85 166 L 87 164 L 88 164 L 90 162 L 91 162 L 95 159 L 102 156 L 104 154 L 110 159 L 113 160 L 118 164 " stroke="black" stroke-width="1" fill="none"/>
<path d="M 96 154 " stroke="black" stroke-width="1" fill="none"/>
<path d="M 12 155 L 12 162 L 13 162 L 14 163 L 14 160 L 15 159 L 16 159 L 17 160 L 17 162 L 19 162 L 19 155 L 17 155 L 15 157 L 14 156 L 14 154 L 13 155 " stroke="black" stroke-width="1" fill="none"/>
<path d="M 18 155 L 19 156 L 19 161 L 18 162 L 17 161 L 17 159 L 16 158 L 16 157 " stroke="black" stroke-width="1" fill="none"/>
<path d="M 13 155 L 14 156 L 14 157 L 15 157 L 16 158 L 15 159 L 14 159 L 14 161 L 13 162 L 12 161 L 12 156 " stroke="black" stroke-width="1" fill="none"/>
<path d="M 98 153 " stroke="black" stroke-width="1" fill="none"/>
<path d="M 98 151 L 96 151 L 94 153 L 93 153 L 92 154 L 91 154 L 90 155 L 89 155 L 87 157 L 86 157 L 85 158 L 84 158 L 82 160 L 81 160 L 80 161 L 81 161 L 82 162 L 81 163 L 82 162 L 83 162 L 84 161 L 83 162 L 82 162 L 81 161 L 83 159 L 84 159 L 85 158 L 86 158 L 88 156 L 89 156 L 90 155 L 91 155 L 92 154 L 93 154 L 95 152 L 96 152 L 97 151 " stroke="black" stroke-width="1" fill="none"/>
<path d="M 146 129 L 146 150 L 148 150 L 148 129 " stroke="black" stroke-width="1" fill="none"/>
<path d="M 147 129 L 148 130 L 148 149 L 147 150 L 146 149 L 146 130 " stroke="black" stroke-width="1" fill="none"/>
<path d="M 57 129 L 57 150 L 59 150 L 59 129 " stroke="black" stroke-width="1" fill="none"/>
<path d="M 58 129 L 59 130 L 59 149 L 58 150 L 57 149 L 57 130 " stroke="black" stroke-width="1" fill="none"/>
<path d="M 98 126 " stroke="black" stroke-width="1" fill="none"/>
<path d="M 96 125 " stroke="black" stroke-width="1" fill="none"/>
<path d="M 98 124 " stroke="black" stroke-width="1" fill="none"/>
<path d="M 93 123 " stroke="black" stroke-width="1" fill="none"/>
<path d="M 95 122 L 96 123 " stroke="black" stroke-width="1" fill="none"/>
<path d="M 91 122 " stroke="black" stroke-width="1" fill="none"/>
<path d="M 93 121 " stroke="black" stroke-width="1" fill="none"/>
<path d="M 89 121 " stroke="black" stroke-width="1" fill="none"/>
<path d="M 91 120 " stroke="black" stroke-width="1" fill="none"/>
<path d="M 86 119 " stroke="black" stroke-width="1" fill="none"/>
<path d="M 88 118 L 89 119 " stroke="black" stroke-width="1" fill="none"/>
<path d="M 85 116 L 86 117 " stroke="black" stroke-width="1" fill="none"/>
<path d="M 81 116 L 81 117 L 80 118 L 81 119 L 82 119 L 84 121 L 85 121 L 86 122 L 87 122 L 89 124 L 90 124 L 91 125 L 92 125 L 93 126 L 94 126 L 96 128 L 98 128 L 97 128 L 96 127 L 95 127 L 93 125 L 92 125 L 91 124 L 90 124 L 89 123 L 88 123 L 86 121 L 85 121 L 84 120 L 83 120 L 81 118 L 82 117 L 83 117 L 84 118 L 83 117 L 82 117 " stroke="black" stroke-width="1" fill="none"/>
<path d="M 38 162 L 55 153 L 77 166 L 82 165 L 55 152 L 55 127 L 79 112 L 83 115 L 79 112 L 55 126 L 54 153 L 53 125 L 78 110 L 104 125 L 124 112 L 125 97 L 126 113 L 105 127 L 100 125 L 103 128 L 100 154 L 105 152 L 121 162 L 105 151 L 105 128 L 127 113 L 150 128 L 150 151 L 134 161 L 152 152 L 175 166 L 195 153 L 201 153 L 223 167 L 222 193 L 221 168 L 217 165 L 221 169 L 221 192 L 217 196 L 223 193 L 240 203 L 223 192 L 223 166 L 197 152 L 175 166 L 152 151 L 152 125 L 130 111 L 130 80 L 124 82 L 128 90 L 128 110 L 124 90 L 124 111 L 104 125 L 80 109 L 78 89 L 84 86 L 84 81 L 78 79 L 78 109 L 53 124 L 53 152 " stroke="black" stroke-width="1" fill="none"/>
<path d="M 104 127 L 105 128 L 105 151 L 104 152 L 103 151 L 103 128 " stroke="black" stroke-width="1" fill="none"/>
<path d="M 126 112 L 127 111 L 128 112 L 127 113 " stroke="black" stroke-width="1" fill="none"/>
<path d="M 129 97 L 130 98 L 130 112 L 132 114 L 133 114 L 134 115 L 135 115 L 137 117 L 138 117 L 139 118 L 140 118 L 141 119 L 142 119 L 144 121 L 145 121 L 146 122 L 147 122 L 149 124 L 150 124 L 152 126 L 152 151 L 151 152 L 150 151 L 150 127 L 149 126 L 148 126 L 146 124 L 145 124 L 144 123 L 143 123 L 141 121 L 140 121 L 139 120 L 138 120 L 137 119 L 136 119 L 134 117 L 133 117 L 132 116 L 131 116 L 128 113 L 128 98 " stroke="black" stroke-width="1" fill="none"/>
<path d="M 79 97 L 80 98 L 80 109 L 79 110 L 78 109 L 78 98 " stroke="black" stroke-width="1" fill="none"/>
<path d="M 129 91 L 130 92 L 130 96 L 129 97 L 128 96 L 128 92 " stroke="black" stroke-width="1" fill="none"/>
<path d="M 125 91 L 126 92 L 126 96 L 125 97 L 124 96 L 124 92 " stroke="black" stroke-width="1" fill="none"/>
<path d="M 79 90 L 80 91 L 80 96 L 79 97 L 78 96 L 78 91 " stroke="black" stroke-width="1" fill="none"/>
<path d="M 126 80 L 129 80 L 132 83 L 132 86 L 129 89 L 127 89 L 126 88 L 125 88 L 124 87 L 124 83 L 125 82 L 125 81 " stroke="black" stroke-width="1" fill="none"/>
<path d="M 128 82 L 126 84 L 126 85 L 128 87 L 129 86 L 129 83 " stroke="black" stroke-width="1" fill="none"/>
<path d="M 128 82 L 129 83 L 129 86 L 128 87 L 126 85 L 126 84 " stroke="black" stroke-width="1" fill="none"/>
<path d="M 78 79 L 81 79 L 84 82 L 84 85 L 81 88 L 79 88 L 78 87 L 77 87 L 76 86 L 76 82 L 77 81 L 77 80 " stroke="black" stroke-width="1" fill="none"/>
<path d="M 80 81 L 78 83 L 78 84 L 80 86 L 81 85 L 81 82 " stroke="black" stroke-width="1" fill="none"/>
<path d="M 80 81 L 81 82 L 81 85 L 80 86 L 78 84 L 78 83 " stroke="black" stroke-width="1" fill="none"/>
<path d="M 61 71 L 61 78 L 62 78 L 63 79 L 63 76 L 64 75 L 65 75 L 66 76 L 66 78 L 68 78 L 68 71 L 66 71 L 64 73 L 63 72 L 63 70 L 62 71 " stroke="black" stroke-width="1" fill="none"/>
<path d="M 67 71 L 68 72 L 68 77 L 67 78 L 66 77 L 66 75 L 65 74 L 65 73 " stroke="black" stroke-width="1" fill="none"/>
<path d="M 62 71 L 63 72 L 63 73 L 64 73 L 65 74 L 64 75 L 63 75 L 63 77 L 62 78 L 61 77 L 61 72 " stroke="black" stroke-width="1" fill="none"/>
</svg>