<svg xmlns="http://www.w3.org/2000/svg" width="300" height="300" viewBox="0 0 300 300">
<path d="M 211 209 " stroke="black" stroke-width="1" fill="none"/>
<path d="M 209 208 " stroke="black" stroke-width="1" fill="none"/>
<path d="M 211 207 " stroke="black" stroke-width="1" fill="none"/>
<path d="M 265 206 L 264 207 L 264 208 L 263 209 L 263 214 L 264 215 L 264 216 L 265 217 L 270 217 L 272 215 L 272 208 L 270 206 " stroke="black" stroke-width="1" fill="none"/>
<path d="M 266 206 L 269 206 L 272 209 L 272 214 L 269 217 L 266 217 L 264 215 L 264 214 L 263 213 L 263 210 L 264 209 L 264 208 " stroke="black" stroke-width="1" fill="none"/>
<path d="M 267 208 L 266 209 L 266 210 L 265 211 L 265 212 L 266 213 L 266 214 L 267 215 L 268 214 L 269 214 L 270 213 L 270 210 L 269 209 L 268 209 " stroke="black" stroke-width="1" fill="none"/>
<path d="M 267 209 L 269 209 L 270 210 L 270 213 L 269 214 L 267 214 L 265 212 L 265 211 " stroke="black" stroke-width="1" fill="none"/>
<path d="M 208 205 L 209 206 " stroke="black" stroke-width="1" fill="none"/>
<path d="M 202 204 L 203 205 L 204 205 L 205 206 L 206 206 L 207 207 L 206 206 L 205 206 L 204 205 L 203 205 " stroke="black" stroke-width="1" fill="none"/>
<path d="M 201 201 L 202 202 L 203 202 L 204 203 L 205 203 L 206 204 L 205 203 L 204 203 L 203 202 L 202 202 " stroke="black" stroke-width="1" fill="none"/>
<path d="M 197 201 L 198 202 L 199 202 L 200 203 L 199 202 L 198 202 " stroke="black" stroke-width="1" fill="none"/>
<path d="M 196 198 L 197 199 L 198 199 L 199 200 L 198 199 L 197 199 " stroke="black" stroke-width="1" fill="none"/>
<path d="M 287 197 L 286 198 L 285 197 L 285 200 L 284 201 L 283 201 L 282 200 L 282 198 L 279 198 L 279 207 L 282 207 L 282 204 L 283 203 L 284 203 L 285 204 L 285 208 L 286 207 L 287 208 " stroke="black" stroke-width="1" fill="none"/>
<path d="M 282 202 L 283 201 L 284 201 L 285 202 L 284 203 L 283 203 " stroke="black" stroke-width="1" fill="none"/>
<path d="M 286 198 L 287 199 L 287 206 L 286 207 L 285 206 L 285 204 L 284 203 L 285 202 L 284 201 L 285 200 L 285 199 " stroke="black" stroke-width="1" fill="none"/>
<path d="M 280 198 L 281 198 L 282 199 L 282 206 L 281 207 L 280 207 L 279 206 L 279 199 " stroke="black" stroke-width="1" fill="none"/>
<path d="M 237 172 L 237 195 L 239 195 L 239 172 " stroke="black" stroke-width="1" fill="none"/>
<path d="M 238 172 L 239 173 L 239 194 L 238 195 L 237 194 L 237 173 " stroke="black" stroke-width="1" fill="none"/>
<path d="M 200 166 L 199 167 L 198 167 L 196 169 L 195 169 L 196 169 L 198 167 L 199 167 " stroke="black" stroke-width="1" fill="none"/>
<path d="M 90 165 " stroke="black" stroke-width="1" fill="none"/>
<path d="M 203 164 L 202 165 " stroke="black" stroke-width="1" fill="none"/>
<path d="M 92 164 " stroke="black" stroke-width="1" fill="none"/>
<path d="M 205 163 " stroke="black" stroke-width="1" fill="none"/>
<path d="M 201 163 L 200 164 L 199 164 L 198 165 L 199 164 L 200 164 " stroke="black" stroke-width="1" fill="none"/>
<path d="M 203 162 " stroke="black" stroke-width="1" fill="none"/>
<path d="M 92 162 " stroke="black" stroke-width="1" fill="none"/>
<path d="M 29 162 L 28 163 L 28 164 L 27 165 L 27 170 L 28 171 L 28 172 L 29 173 L 34 173 L 36 171 L 36 164 L 34 162 " stroke="black" stroke-width="1" fill="none"/>
<path d="M 30 162 L 33 162 L 36 165 L 36 170 L 33 173 L 30 173 L 28 171 L 28 170 L 27 169 L 27 166 L 28 165 L 28 164 " stroke="black" stroke-width="1" fill="none"/>
<path d="M 31 164 L 30 165 L 30 166 L 29 167 L 29 168 L 30 169 L 30 170 L 31 171 L 32 170 L 33 170 L 34 169 L 34 166 L 33 165 L 32 165 " stroke="black" stroke-width="1" fill="none"/>
<path d="M 31 165 L 33 165 L 34 166 L 34 169 L 33 170 L 31 170 L 29 168 L 29 167 " stroke="black" stroke-width="1" fill="none"/>
<path d="M 208 161 L 207 162 " stroke="black" stroke-width="1" fill="none"/>
<path d="M 205 161 " stroke="black" stroke-width="1" fill="none"/>
<path d="M 135 161 L 134 162 L 134 163 L 133 164 L 133 169 L 134 170 L 134 171 L 135 172 L 140 172 L 142 170 L 142 163 L 140 161 " stroke="black" stroke-width="1" fill="none"/>
<path d="M 136 161 L 139 161 L 142 164 L 142 169 L 139 172 L 136 172 L 134 170 L 134 169 L 133 168 L 133 165 L 134 164 L 134 163 " stroke="black" stroke-width="1" fill="none"/>
<path d="M 137 163 L 136 164 L 136 165 L 135 166 L 135 167 L 136 168 L 136 169 L 137 170 L 138 169 L 139 169 L 140 168 L 140 165 L 139 164 L 138 164 " stroke="black" stroke-width="1" fill="none"/>
<path d="M 137 164 L 139 164 L 140 165 L 140 168 L 139 169 L 137 169 L 135 167 L 135 166 " stroke="black" stroke-width="1" fill="none"/>
<path d="M 97 161 " stroke="black" stroke-width="1" fill="none"/>
<path d="M 94 161 " stroke="black" stroke-width="1" fill="none"/>
<path d="M 215 160 L 214 160 L 213 161 L 212 161 L 211 162 L 210 162 L 208 164 L 207 164 L 206 165 L 205 165 L 203 167 L 202 167 L 200 169 L 199 169 L 197 171 L 195 171 L 197 171 L 198 170 L 199 170 L 201 168 L 202 168 L 204 166 L 205 166 L 206 165 L 207 165 L 209 163 L 210 163 L 211 162 L 212 162 L 213 161 L 214 161 " stroke="black" stroke-width="1" fill="none"/>
<path d="M 210 160 " stroke="black" stroke-width="1" fill="none"/>
<path d="M 99 160 " stroke="black" stroke-width="1" fill="none"/>
<path d="M 208 159 " stroke="black" stroke-width="1" fill="none"/>
<path d="M 97 159 " stroke="black" stroke-width="1" fill="none"/>
<path d="M 102 158 " stroke="black" stroke-width="1" fill="none"/>
<path d="M 100 157 L 99 158 " stroke="black" stroke-width="1" fill="none"/>
<path d="M 105 156 L 104 157 " stroke="black" stroke-width="1" fill="none"/>
<path d="M 103 155 L 102 156 " stroke="black" stroke-width="1" fill="none"/>
<path d="M 147 164 L 151 163 L 164 154 L 177 163 L 186 167 L 189 170 L 189 199 L 215 214 L 229 208 L 242 199 L 255 208 L 259 209 L 242 199 L 219 213 L 216 214 L 192 201 L 189 198 L 189 170 L 190 169 L 191 170 L 191 197 L 195 200 L 191 196 L 191 170 L 196 166 L 189 169 L 164 154 " stroke="black" stroke-width="1" fill="none"/>
<path d="M 129 164 L 124 162 L 122 160 L 119 159 L 117 157 L 114 156 L 112 154 L 110 156 L 107 157 L 105 159 L 102 160 L 100 162 L 95 164 L 93 166 L 92 166 L 88 169 L 86 169 L 85 170 L 84 169 L 82 169 L 81 168 L 78 167 L 76 165 L 69 162 L 67 160 L 62 158 L 58 155 L 56 157 L 53 158 L 51 160 L 48 161 L 46 163 L 41 165 L 43 165 L 44 164 L 45 164 L 47 162 L 48 162 L 52 159 L 55 158 L 58 155 L 60 157 L 61 157 L 65 160 L 70 162 L 72 164 L 73 164 L 84 170 L 86 170 L 87 169 L 92 167 L 94 165 L 99 163 L 101 161 L 104 160 L 106 158 L 109 157 L 112 154 L 115 157 L 118 158 L 120 160 L 123 161 L 125 163 L 126 163 L 127 164 " stroke="black" stroke-width="1" fill="none"/>
<path d="M 106 153 L 105 154 " stroke="black" stroke-width="1" fill="none"/>
<path d="M 19 153 L 18 154 L 17 153 L 17 156 L 16 157 L 15 157 L 14 156 L 14 154 L 11 154 L 11 163 L 14 163 L 14 160 L 15 159 L 16 159 L 17 160 L 17 164 L 18 163 L 19 164 " stroke="black" stroke-width="1" fill="none"/>
<path d="M 14 158 L 15 157 L 16 157 L 17 158 L 16 159 L 15 159 " stroke="black" stroke-width="1" fill="none"/>
<path d="M 18 154 L 19 155 L 19 162 L 18 163 L 17 162 L 17 160 L 16 159 L 17 158 L 16 157 L 17 156 L 17 155 " stroke="black" stroke-width="1" fill="none"/>
<path d="M 12 154 L 13 154 L 14 155 L 14 162 L 13 163 L 12 163 L 11 162 L 11 155 " stroke="black" stroke-width="1" fill="none"/>
<path d="M 159 127 L 159 150 L 161 150 L 161 127 " stroke="black" stroke-width="1" fill="none"/>
<path d="M 160 127 L 161 128 L 161 149 L 160 150 L 159 149 L 159 128 " stroke="black" stroke-width="1" fill="none"/>
<path d="M 61 127 L 61 150 L 63 150 L 63 127 " stroke="black" stroke-width="1" fill="none"/>
<path d="M 62 127 L 63 128 L 63 149 L 62 150 L 61 149 L 61 128 " stroke="black" stroke-width="1" fill="none"/>
<path d="M 103 121 L 104 122 L 105 122 L 106 123 L 105 122 L 104 122 " stroke="black" stroke-width="1" fill="none"/>
<path d="M 102 118 L 103 119 L 104 119 L 105 120 L 104 119 L 103 119 " stroke="black" stroke-width="1" fill="none"/>
<path d="M 96 117 L 97 118 L 98 118 L 99 119 L 100 119 L 101 120 L 100 119 L 99 119 L 98 118 L 97 118 " stroke="black" stroke-width="1" fill="none"/>
<path d="M 91 114 L 92 115 L 93 115 L 94 116 L 93 115 L 92 115 " stroke="black" stroke-width="1" fill="none"/>
<path d="M 86 114 L 87 115 L 88 115 L 89 116 L 90 116 L 92 118 L 93 118 L 94 119 L 95 119 L 97 121 L 98 121 L 99 122 L 100 122 L 101 123 L 102 123 L 104 125 L 106 125 L 105 125 L 104 124 L 103 124 L 101 122 L 100 122 L 99 121 L 98 121 L 97 120 L 96 120 L 95 119 L 94 119 L 92 117 L 91 117 L 90 116 L 89 116 L 87 114 " stroke="black" stroke-width="1" fill="none"/>
<path d="M 40 163 L 59 153 L 87 167 L 107 151 L 86 167 L 59 152 L 59 125 L 85 108 L 100 117 L 85 108 L 60 123 L 58 153 L 57 123 L 84 106 L 112 122 L 135 108 L 136 92 L 137 109 L 113 124 L 107 121 L 111 125 L 111 151 L 107 155 L 113 152 L 130 162 L 113 151 L 113 125 L 139 110 L 163 125 L 163 151 L 146 162 L 165 152 L 190 167 L 216 152 L 243 168 L 243 196 L 241 169 L 217 155 L 210 158 L 217 155 L 241 170 L 241 196 L 217 211 L 196 196 L 214 211 L 241 197 L 260 207 L 243 196 L 242 166 L 215 152 L 190 167 L 165 151 L 165 122 L 141 108 L 140 71 L 133 74 L 135 108 L 112 122 L 86 105 L 90 72 L 83 70 L 81 78 L 87 82 L 84 105 L 57 122 L 57 152 " stroke="black" stroke-width="1" fill="none"/>
<path d="M 112 124 L 113 125 L 113 151 L 112 152 L 111 151 L 111 125 " stroke="black" stroke-width="1" fill="none"/>
<path d="M 137 108 L 138 107 L 139 108 L 139 109 L 138 110 L 137 109 " stroke="black" stroke-width="1" fill="none"/>
<path d="M 140 92 L 141 93 L 141 108 L 143 110 L 144 110 L 146 112 L 147 112 L 148 113 L 149 113 L 151 115 L 152 115 L 153 116 L 154 116 L 155 117 L 156 117 L 157 118 L 158 118 L 160 120 L 161 120 L 162 121 L 163 121 L 165 123 L 165 151 L 164 152 L 163 151 L 163 124 L 162 123 L 161 123 L 160 122 L 159 122 L 158 121 L 157 121 L 155 119 L 154 119 L 153 118 L 152 118 L 151 117 L 150 117 L 148 115 L 147 115 L 146 114 L 145 114 L 143 112 L 142 112 L 139 109 L 139 93 " stroke="black" stroke-width="1" fill="none"/>
<path d="M 85 91 L 86 92 L 86 105 L 85 106 L 84 105 L 84 92 " stroke="black" stroke-width="1" fill="none"/>
<path d="M 140 84 L 141 85 L 141 91 L 140 92 L 139 91 L 139 85 " stroke="black" stroke-width="1" fill="none"/>
<path d="M 136 84 L 137 85 L 137 91 L 136 92 L 135 91 L 135 85 " stroke="black" stroke-width="1" fill="none"/>
<path d="M 86 83 L 87 84 L 87 89 L 85 91 L 84 90 L 84 86 L 85 85 L 85 84 " stroke="black" stroke-width="1" fill="none"/>
<path d="M 140 82 L 141 83 L 140 84 L 139 84 L 139 106 L 138 107 L 137 106 L 137 83 L 138 82 " stroke="black" stroke-width="1" fill="none"/>
<path d="M 135 83 L 136 82 L 137 83 L 136 84 " stroke="black" stroke-width="1" fill="none"/>
<path d="M 136 71 L 139 71 L 142 74 L 142 79 L 139 82 L 136 82 L 134 80 L 134 79 L 133 78 L 133 75 L 134 74 L 134 73 " stroke="black" stroke-width="1" fill="none"/>
<path d="M 137 73 L 136 74 L 136 75 L 135 76 L 135 77 L 136 78 L 136 79 L 137 80 L 138 79 L 139 79 L 140 78 L 140 75 L 139 74 L 138 74 " stroke="black" stroke-width="1" fill="none"/>
<path d="M 137 74 L 139 74 L 140 75 L 140 78 L 139 79 L 137 79 L 135 77 L 135 76 " stroke="black" stroke-width="1" fill="none"/>
<path d="M 84 70 L 87 70 L 90 73 L 90 78 L 87 81 L 84 81 L 82 79 L 82 78 L 81 77 L 81 74 L 82 73 L 82 72 " stroke="black" stroke-width="1" fill="none"/>
<path d="M 85 72 L 84 73 L 84 74 L 83 75 L 83 76 L 84 77 L 84 78 L 85 79 L 86 78 L 87 78 L 88 77 L 88 74 L 87 73 L 86 73 " stroke="black" stroke-width="1" fill="none"/>
<path d="M 85 73 L 87 73 L 88 74 L 88 77 L 87 78 L 85 78 L 83 76 L 83 75 " stroke="black" stroke-width="1" fill="none"/>
<path d="M 73 61 L 72 62 L 71 61 L 71 64 L 70 65 L 69 65 L 68 64 L 68 62 L 65 62 L 65 71 L 68 71 L 68 68 L 69 67 L 70 67 L 71 68 L 71 72 L 72 71 L 73 72 " stroke="black" stroke-width="1" fill="none"/>
<path d="M 68 66 L 69 65 L 70 65 L 71 66 L 70 67 L 69 67 " stroke="black" stroke-width="1" fill="none"/>
<path d="M 72 62 L 73 63 L 73 70 L 72 71 L 71 70 L 71 68 L 70 67 L 71 66 L 70 65 L 71 64 L 71 63 " stroke="black" stroke-width="1" fill="none"/>
<path d="M 66 62 L 67 62 L 68 63 L 68 70 L 67 71 L 66 71 L 65 70 L 65 63 " stroke="black" stroke-width="1" fill="none"/>
</svg>