<svg xmlns="http://www.w3.org/2000/svg" width="300" height="300" viewBox="0 0 300 300">
<path d="M 228 211 L 229 212 L 230 212 L 231 213 L 230 212 L 229 212 " stroke="black" stroke-width="1" fill="none"/>
<path d="M 223 208 L 224 209 L 225 209 L 226 210 L 225 209 L 224 209 " stroke="black" stroke-width="1" fill="none"/>
<path d="M 217 207 L 218 208 L 219 208 L 220 209 L 219 208 L 218 208 " stroke="black" stroke-width="1" fill="none"/>
<path d="M 218 205 L 219 206 L 220 206 L 221 207 L 220 206 L 219 206 " stroke="black" stroke-width="1" fill="none"/>
<path d="M 215 203 L 216 204 " stroke="black" stroke-width="1" fill="none"/>
<path d="M 214 201 L 216 201 L 217 202 L 218 202 L 220 204 L 221 204 L 222 205 L 223 205 L 225 207 L 226 207 L 227 208 L 228 208 L 230 210 L 231 210 L 232 211 L 233 211 L 235 213 L 236 213 L 235 212 L 234 212 L 233 211 L 232 211 L 230 209 L 229 209 L 228 208 L 227 208 L 225 206 L 224 206 L 223 205 L 222 205 L 220 203 L 219 203 L 217 201 " stroke="black" stroke-width="1" fill="none"/>
<path d="M 37 183 L 36 184 L 35 184 L 35 186 L 34 187 L 33 187 L 32 186 L 32 184 L 29 184 L 29 193 L 32 193 L 32 190 L 33 189 L 34 189 L 35 190 L 35 194 L 36 193 L 37 194 " stroke="black" stroke-width="1" fill="none"/>
<path d="M 32 188 L 33 187 L 34 187 L 35 188 L 34 189 L 33 189 " stroke="black" stroke-width="1" fill="none"/>
<path d="M 36 184 L 37 185 L 37 192 L 36 193 L 35 192 L 35 190 L 34 189 L 35 188 L 34 187 L 35 186 L 35 185 " stroke="black" stroke-width="1" fill="none"/>
<path d="M 30 184 L 31 184 L 32 185 L 32 192 L 31 193 L 30 193 L 29 192 L 29 185 " stroke="black" stroke-width="1" fill="none"/>
<path d="M 261 174 L 261 200 L 263 200 L 263 174 " stroke="black" stroke-width="1" fill="none"/>
<path d="M 262 174 L 263 175 L 263 199 L 262 200 L 261 199 L 261 175 " stroke="black" stroke-width="1" fill="none"/>
<path d="M 216 169 L 215 170 " stroke="black" stroke-width="1" fill="none"/>
<path d="M 218 168 " stroke="black" stroke-width="1" fill="none"/>
<path d="M 220 167 " stroke="black" stroke-width="1" fill="none"/>
<path d="M 216 167 " stroke="black" stroke-width="1" fill="none"/>
<path d="M 218 166 " stroke="black" stroke-width="1" fill="none"/>
<path d="M 223 165 " stroke="black" stroke-width="1" fill="none"/>
<path d="M 225 164 " stroke="black" stroke-width="1" fill="none"/>
<path d="M 221 164 L 220 165 " stroke="black" stroke-width="1" fill="none"/>
<path d="M 223 163 " stroke="black" stroke-width="1" fill="none"/>
<path d="M 147 163 L 146 164 L 146 165 L 145 166 L 145 171 L 146 172 L 146 173 L 147 174 L 152 174 L 154 172 L 154 165 L 152 163 " stroke="black" stroke-width="1" fill="none"/>
<path d="M 148 163 L 151 163 L 154 166 L 154 171 L 151 174 L 148 174 L 146 172 L 146 171 L 145 170 L 145 167 L 146 166 L 146 165 " stroke="black" stroke-width="1" fill="none"/>
<path d="M 149 165 L 148 166 L 148 167 L 147 168 L 147 169 L 148 170 L 148 171 L 149 172 L 150 171 L 151 171 L 152 170 L 152 167 L 151 166 L 150 166 " stroke="black" stroke-width="1" fill="none"/>
<path d="M 149 166 L 151 166 L 152 167 L 152 170 L 151 171 L 149 171 L 147 169 L 147 168 " stroke="black" stroke-width="1" fill="none"/>
<path d="M 225 162 " stroke="black" stroke-width="1" fill="none"/>
<path d="M 31 162 L 30 163 L 30 164 L 29 165 L 29 170 L 30 171 L 30 172 L 31 173 L 34 173 L 35 174 L 34 175 L 33 175 L 33 181 L 35 181 L 35 174 L 38 171 L 38 164 L 36 162 " stroke="black" stroke-width="1" fill="none"/>
<path d="M 34 175 L 35 176 L 35 180 L 34 181 L 33 180 L 33 176 " stroke="black" stroke-width="1" fill="none"/>
<path d="M 32 162 L 35 162 L 38 165 L 38 170 L 35 173 L 32 173 L 30 171 L 30 170 L 29 169 L 29 166 L 30 165 L 30 164 " stroke="black" stroke-width="1" fill="none"/>
<path d="M 33 164 L 32 165 L 32 166 L 31 167 L 31 168 L 32 169 L 32 170 L 33 171 L 34 170 L 35 170 L 36 169 L 36 166 L 35 165 L 34 165 " stroke="black" stroke-width="1" fill="none"/>
<path d="M 33 165 L 35 165 L 36 166 L 36 169 L 35 170 L 33 170 L 31 168 L 31 167 " stroke="black" stroke-width="1" fill="none"/>
<path d="M 236 161 L 235 161 L 234 162 L 233 162 L 232 163 L 231 163 L 230 164 L 229 164 L 228 165 L 227 165 L 226 166 L 225 166 L 224 167 L 223 167 L 221 169 L 220 169 L 219 170 L 218 170 L 216 172 L 214 172 L 217 172 L 219 170 L 220 170 L 222 168 L 223 168 L 224 167 L 225 167 L 226 166 L 227 166 L 228 165 L 229 165 L 230 164 L 231 164 L 232 163 L 233 163 L 234 162 L 235 162 " stroke="black" stroke-width="1" fill="none"/>
<path d="M 79 161 " stroke="black" stroke-width="1" fill="none"/>
<path d="M 81 160 L 82 161 L 81 162 L 82 163 L 83 163 L 84 164 L 83 163 L 82 163 L 81 162 L 82 161 L 83 161 L 82 161 " stroke="black" stroke-width="1" fill="none"/>
<path d="M 77 160 " stroke="black" stroke-width="1" fill="none"/>
<path d="M 230 159 L 229 160 L 228 160 L 227 161 L 228 162 L 227 163 L 228 162 L 229 162 L 228 162 L 227 161 L 228 160 L 229 160 " stroke="black" stroke-width="1" fill="none"/>
<path d="M 79 159 " stroke="black" stroke-width="1" fill="none"/>
<path d="M 77 158 " stroke="black" stroke-width="1" fill="none"/>
<path d="M 74 158 L 75 159 " stroke="black" stroke-width="1" fill="none"/>
<path d="M 72 157 " stroke="black" stroke-width="1" fill="none"/>
<path d="M 235 156 L 233 158 L 232 158 L 234 159 L 231 161 L 235 159 L 233 158 L 234 157 L 238 156 L 248 161 L 250 163 L 257 166 L 259 168 L 262 169 L 265 172 L 265 201 L 261 205 L 258 206 L 253 210 L 238 218 L 236 218 L 233 216 L 234 215 L 236 215 L 234 215 L 233 214 L 234 215 L 232 216 L 222 210 L 226 212 L 228 214 L 233 216 L 235 218 L 239 218 L 243 216 L 245 214 L 252 211 L 265 202 L 265 171 L 261 168 L 256 166 L 254 164 L 245 160 L 243 158 L 239 156 " stroke="black" stroke-width="1" fill="none"/>
<path d="M 74 156 " stroke="black" stroke-width="1" fill="none"/>
<path d="M 70 156 " stroke="black" stroke-width="1" fill="none"/>
<path d="M 72 155 " stroke="black" stroke-width="1" fill="none"/>
<path d="M 43 165 L 45 165 L 47 163 L 61 156 L 63 154 L 65 156 L 75 161 L 77 163 L 82 165 L 84 167 L 90 170 L 92 170 L 106 163 L 108 161 L 113 159 L 120 154 L 122 156 L 128 159 L 130 161 L 135 163 L 139 166 L 141 166 L 132 162 L 130 160 L 127 159 L 120 154 L 116 157 L 111 159 L 109 161 L 91 170 L 90 169 L 88 169 L 86 167 L 81 165 L 79 163 L 74 161 L 72 159 L 67 157 L 63 154 L 57 157 L 55 159 L 48 162 L 46 164 " stroke="black" stroke-width="1" fill="none"/>
<path d="M 69 153 L 70 154 " stroke="black" stroke-width="1" fill="none"/>
<path d="M 68 151 L 70 151 L 72 153 L 73 153 L 74 154 L 75 154 L 77 156 L 78 156 L 79 157 L 80 157 L 81 158 L 82 158 L 83 159 L 84 159 L 85 160 L 86 160 L 87 161 L 88 161 L 89 162 L 90 162 L 89 161 L 88 161 L 87 160 L 86 160 L 85 159 L 84 159 L 83 158 L 82 158 L 81 157 L 80 157 L 79 156 L 78 156 L 77 155 L 76 155 L 74 153 L 73 153 L 71 151 " stroke="black" stroke-width="1" fill="none"/>
<path d="M 175 123 L 175 149 L 177 149 L 177 123 " stroke="black" stroke-width="1" fill="none"/>
<path d="M 176 123 L 177 124 L 177 148 L 176 149 L 175 148 L 175 124 " stroke="black" stroke-width="1" fill="none"/>
<path d="M 115 123 L 115 149 L 117 149 L 117 123 " stroke="black" stroke-width="1" fill="none"/>
<path d="M 116 123 L 117 124 L 117 148 L 116 149 L 115 148 L 115 124 " stroke="black" stroke-width="1" fill="none"/>
<path d="M 80 113 L 79 114 L 78 114 L 77 115 L 76 115 L 75 116 L 74 116 L 73 115 L 74 114 L 73 115 L 74 116 L 73 117 L 72 117 L 71 116 L 72 117 L 71 118 L 72 117 L 73 117 L 74 116 L 75 116 L 76 115 L 77 115 L 78 114 L 79 114 " stroke="black" stroke-width="1" fill="none"/>
<path d="M 90 110 L 89 110 L 87 112 L 86 112 L 85 113 L 84 113 L 82 115 L 81 115 L 80 116 L 79 116 L 78 117 L 77 117 L 76 118 L 75 118 L 74 119 L 73 119 L 72 120 L 71 120 L 70 121 L 69 120 L 69 119 L 69 121 L 71 121 L 72 120 L 73 120 L 74 119 L 75 119 L 76 118 L 77 118 L 78 117 L 79 117 L 81 115 L 82 115 L 83 114 L 84 114 L 86 112 L 87 112 L 88 111 L 89 111 " stroke="black" stroke-width="1" fill="none"/>
<path d="M 85 110 L 84 111 L 83 111 L 82 112 L 83 111 L 84 111 " stroke="black" stroke-width="1" fill="none"/>
<path d="M 42 109 L 43 110 L 46 111 L 48 113 L 51 114 L 53 116 L 56 117 L 58 119 L 59 119 L 62 122 L 62 151 L 59 154 L 58 154 L 57 155 L 56 155 L 55 156 L 54 156 L 53 157 L 52 157 L 51 158 L 48 159 L 46 161 L 45 161 L 42 163 L 43 163 L 45 161 L 46 161 L 47 160 L 48 160 L 49 159 L 50 159 L 51 158 L 54 157 L 56 155 L 57 155 L 62 152 L 64 152 L 65 153 L 66 153 L 68 155 L 64 151 L 64 122 L 67 119 L 66 119 L 64 121 L 62 121 L 61 120 L 60 120 L 58 118 L 55 117 L 53 115 L 50 114 L 48 112 L 47 112 L 46 111 L 45 111 L 43 109 " stroke="black" stroke-width="1" fill="none"/>
<path d="M 63 121 L 64 122 L 64 151 L 63 152 L 62 151 L 62 122 " stroke="black" stroke-width="1" fill="none"/>
<path d="M 26 107 L 24 107 L 23 108 L 23 110 L 25 110 L 26 109 " stroke="black" stroke-width="1" fill="none"/>
<path d="M 23 108 L 24 107 L 25 107 L 26 108 L 26 109 L 25 110 L 24 110 L 23 109 " stroke="black" stroke-width="1" fill="none"/>
<path d="M 19 106 L 18 107 L 17 106 L 17 109 L 16 110 L 15 110 L 14 109 L 14 107 L 11 107 L 11 116 L 14 116 L 14 113 L 15 112 L 16 112 L 17 113 L 17 117 L 18 116 L 19 117 " stroke="black" stroke-width="1" fill="none"/>
<path d="M 14 111 L 15 110 L 16 110 L 17 111 L 16 112 L 15 112 " stroke="black" stroke-width="1" fill="none"/>
<path d="M 18 107 L 19 108 L 19 115 L 18 116 L 17 115 L 17 113 L 16 112 L 17 111 L 16 110 L 17 109 L 17 108 " stroke="black" stroke-width="1" fill="none"/>
<path d="M 12 107 L 13 107 L 14 108 L 14 115 L 13 116 L 12 116 L 11 115 L 11 108 " stroke="black" stroke-width="1" fill="none"/>
<path d="M 31 96 L 30 97 L 30 98 L 29 99 L 29 104 L 30 105 L 30 106 L 31 107 L 36 107 L 38 105 L 38 98 L 36 96 " stroke="black" stroke-width="1" fill="none"/>
<path d="M 32 96 L 35 96 L 38 99 L 38 104 L 35 107 L 32 107 L 30 105 L 30 104 L 29 103 L 29 100 L 30 99 L 30 98 " stroke="black" stroke-width="1" fill="none"/>
<path d="M 33 98 L 32 99 L 32 100 L 31 101 L 31 102 L 32 103 L 32 104 L 33 105 L 34 104 L 35 104 L 36 103 L 36 100 L 35 99 L 34 99 " stroke="black" stroke-width="1" fill="none"/>
<path d="M 33 99 L 35 99 L 36 100 L 36 103 L 35 104 L 33 104 L 31 102 L 31 101 " stroke="black" stroke-width="1" fill="none"/>
<path d="M 43 107 L 63 119 L 92 102 L 120 119 L 147 102 L 148 84 L 149 103 L 121 121 L 91 104 L 76 113 L 91 104 L 119 122 L 119 151 L 92 167 L 86 165 L 93 167 L 119 152 L 142 164 L 121 151 L 121 122 L 151 103 L 179 121 L 179 151 L 158 164 L 181 152 L 209 169 L 240 154 L 267 170 L 267 203 L 234 220 L 207 203 L 209 171 L 209 202 L 215 206 L 209 201 L 214 168 L 208 171 L 180 154 L 159 166 L 180 154 L 205 169 L 207 204 L 236 221 L 267 204 L 266 168 L 236 153 L 209 169 L 181 151 L 181 118 L 153 101 L 153 74 L 149 100 L 151 62 L 144 65 L 147 102 L 120 119 L 92 101 L 93 63 L 86 66 L 92 75 L 87 104 L 63 119 " stroke="black" stroke-width="1" fill="none"/>
<path d="M 120 121 L 121 122 L 121 151 L 120 152 L 119 151 L 119 122 " stroke="black" stroke-width="1" fill="none"/>
<path d="M 149 102 L 150 101 L 151 102 L 151 103 L 150 104 L 149 103 " stroke="black" stroke-width="1" fill="none"/>
<path d="M 91 85 L 92 86 L 92 101 L 91 102 L 90 101 L 90 86 " stroke="black" stroke-width="1" fill="none"/>
<path d="M 152 84 L 153 85 L 153 102 L 154 103 L 157 104 L 159 106 L 160 106 L 161 107 L 162 107 L 163 108 L 164 108 L 165 109 L 168 110 L 170 112 L 173 113 L 175 115 L 178 116 L 181 119 L 181 151 L 180 152 L 179 151 L 179 120 L 178 119 L 177 119 L 175 117 L 172 116 L 170 114 L 167 113 L 165 111 L 164 111 L 163 110 L 162 110 L 161 109 L 158 108 L 156 106 L 153 105 L 151 103 L 151 85 " stroke="black" stroke-width="1" fill="none"/>
<path d="M 91 76 L 92 77 L 92 84 L 91 85 L 90 84 L 90 77 " stroke="black" stroke-width="1" fill="none"/>
<path d="M 152 75 L 153 76 L 153 83 L 152 84 L 151 83 L 151 76 " stroke="black" stroke-width="1" fill="none"/>
<path d="M 148 75 L 149 76 L 149 83 L 148 84 L 147 83 L 147 76 " stroke="black" stroke-width="1" fill="none"/>
<path d="M 147 74 L 148 73 L 149 74 L 148 75 " stroke="black" stroke-width="1" fill="none"/>
<path d="M 89 63 L 92 63 L 95 66 L 95 71 L 92 74 L 89 74 L 87 72 L 87 71 L 86 70 L 86 67 L 87 66 L 87 65 " stroke="black" stroke-width="1" fill="none"/>
<path d="M 90 65 L 89 66 L 89 67 L 88 68 L 88 69 L 89 70 L 89 71 L 90 72 L 91 71 L 92 71 L 93 70 L 93 67 L 92 66 L 91 66 " stroke="black" stroke-width="1" fill="none"/>
<path d="M 90 66 L 92 66 L 93 67 L 93 70 L 92 71 L 90 71 L 88 69 L 88 68 " stroke="black" stroke-width="1" fill="none"/>
<path d="M 147 62 L 150 62 L 153 65 L 153 70 L 150 73 L 147 73 L 145 71 L 145 70 L 144 69 L 144 66 L 145 65 L 145 64 " stroke="black" stroke-width="1" fill="none"/>
<path d="M 148 64 L 147 65 L 147 66 L 146 67 L 146 68 L 147 69 L 147 70 L 148 71 L 149 70 L 150 70 L 151 69 L 151 66 L 150 65 L 149 65 " stroke="black" stroke-width="1" fill="none"/>
<path d="M 148 65 L 150 65 L 151 66 L 151 69 L 150 70 L 148 70 L 146 68 L 146 67 " stroke="black" stroke-width="1" fill="none"/>
<path d="M 77 52 L 76 53 L 75 52 L 75 55 L 74 56 L 73 56 L 72 55 L 72 53 L 69 53 L 69 62 L 72 62 L 72 59 L 73 58 L 74 58 L 75 59 L 75 63 L 76 62 L 77 63 " stroke="black" stroke-width="1" fill="none"/>
<path d="M 72 57 L 73 56 L 74 56 L 75 57 L 74 58 L 73 58 " stroke="black" stroke-width="1" fill="none"/>
<path d="M 76 53 L 77 54 L 77 61 L 76 62 L 75 61 L 75 59 L 74 58 L 75 57 L 74 56 L 75 55 L 75 54 " stroke="black" stroke-width="1" fill="none"/>
<path d="M 70 53 L 71 53 L 72 54 L 72 61 L 71 62 L 70 62 L 69 61 L 69 54 " stroke="black" stroke-width="1" fill="none"/>
</svg>