<svg xmlns="http://www.w3.org/2000/svg" width="300" height="300" viewBox="0 0 300 300">
<path d="M 192 280 L 192 287 L 193 287 L 194 288 L 194 285 L 195 284 L 196 284 L 197 285 L 197 287 L 199 287 L 199 280 L 197 280 L 195 282 L 194 281 L 194 279 L 193 280 " stroke="black" stroke-width="1" fill="none"/>
<path d="M 198 280 L 199 281 L 199 286 L 198 287 L 197 286 L 197 284 L 196 283 L 196 282 " stroke="black" stroke-width="1" fill="none"/>
<path d="M 193 280 L 194 281 L 194 282 L 195 282 L 196 283 L 195 284 L 194 284 L 194 286 L 193 287 L 192 286 L 192 281 " stroke="black" stroke-width="1" fill="none"/>
<path d="M 187 247 " stroke="black" stroke-width="1" fill="none"/>
<path d="M 189 246 " stroke="black" stroke-width="1" fill="none"/>
<path d="M 187 245 " stroke="black" stroke-width="1" fill="none"/>
<path d="M 196 242 L 195 243 L 194 243 L 193 244 L 192 244 L 191 245 L 192 244 L 193 244 L 194 243 L 195 243 " stroke="black" stroke-width="1" fill="none"/>
<path d="M 198 241 " stroke="black" stroke-width="1" fill="none"/>
<path d="M 199 238 L 198 239 L 197 239 L 196 240 L 195 240 L 194 241 L 193 241 L 192 242 L 191 242 L 189 244 L 191 242 L 192 242 L 193 241 L 194 241 L 195 240 L 196 240 L 197 239 L 198 239 " stroke="black" stroke-width="1" fill="none"/>
<path d="M 163 215 L 163 235 L 165 235 L 165 215 " stroke="black" stroke-width="1" fill="none"/>
<path d="M 164 215 L 165 216 L 165 234 L 164 235 L 163 234 L 163 216 " stroke="black" stroke-width="1" fill="none"/>
<path d="M 198 212 L 199 213 " stroke="black" stroke-width="1" fill="none"/>
<path d="M 196 211 " stroke="black" stroke-width="1" fill="none"/>
<path d="M 182 206 L 183 207 L 184 207 L 185 208 L 186 208 L 187 209 L 188 209 L 189 210 L 190 210 L 191 211 L 192 211 L 194 213 L 195 213 L 197 215 L 199 215 L 198 215 L 196 213 L 195 213 L 194 212 L 193 212 L 191 210 L 190 210 L 189 209 L 188 209 L 187 208 L 186 208 L 185 207 L 184 207 L 183 206 " stroke="black" stroke-width="1" fill="none"/>
<path d="M 188 204 " stroke="black" stroke-width="1" fill="none"/>
<path d="M 183 204 L 184 204 L 185 205 L 186 205 L 187 206 L 188 206 L 189 207 L 190 207 L 191 208 L 190 207 L 191 206 L 190 205 L 191 206 L 190 207 L 189 207 L 188 206 L 187 206 L 186 205 L 185 205 L 184 204 " stroke="black" stroke-width="1" fill="none"/>
<path d="M 236 203 L 236 210 L 237 210 L 238 211 L 238 208 L 239 207 L 240 207 L 241 208 L 241 210 L 243 210 L 243 203 L 241 203 L 239 205 L 238 204 L 238 202 L 237 203 " stroke="black" stroke-width="1" fill="none"/>
<path d="M 242 203 L 243 204 L 243 209 L 242 210 L 241 209 L 241 207 L 240 206 L 240 205 " stroke="black" stroke-width="1" fill="none"/>
<path d="M 237 203 L 238 204 L 238 205 L 239 205 L 240 206 L 239 207 L 238 207 L 238 209 L 237 210 L 236 209 L 236 204 " stroke="black" stroke-width="1" fill="none"/>
<path d="M 145 205 L 159 214 L 159 239 L 181 253 L 181 271 L 179 273 L 179 278 L 185 280 L 187 278 L 187 273 L 181 270 L 183 269 L 183 253 L 206 239 L 206 214 L 220 204 L 206 213 L 193 207 L 194 210 L 193 209 L 195 208 L 204 214 L 204 236 L 200 240 L 204 237 L 204 214 L 206 214 L 206 238 L 183 252 L 159 238 L 159 214 L 161 214 L 161 237 L 182 250 L 185 248 L 184 245 L 199 236 L 185 243 L 182 250 L 161 236 L 161 214 L 182 200 L 186 203 L 182 200 L 161 213 " stroke="black" stroke-width="1" fill="none"/>
<path d="M 182 271 L 184 271 L 187 274 L 187 277 L 184 280 L 181 280 L 179 278 L 179 274 " stroke="black" stroke-width="1" fill="none"/>
<path d="M 183 273 L 181 275 L 181 276 L 183 278 L 184 277 L 184 274 " stroke="black" stroke-width="1" fill="none"/>
<path d="M 183 273 L 184 274 L 184 277 L 183 278 L 181 276 L 181 275 " stroke="black" stroke-width="1" fill="none"/>
<path d="M 182 265 L 183 266 L 183 268 L 182 269 L 181 268 L 181 266 " stroke="black" stroke-width="1" fill="none"/>
<path d="M 182 252 L 183 253 L 183 264 L 182 265 L 181 264 L 181 253 " stroke="black" stroke-width="1" fill="none"/>
<path d="M 225 194 L 223 196 L 223 201 L 225 203 L 229 203 L 231 201 L 231 196 L 229 194 " stroke="black" stroke-width="1" fill="none"/>
<path d="M 225 194 L 228 194 L 231 197 L 231 200 L 228 203 L 225 203 L 223 201 L 223 197 L 224 196 L 224 195 " stroke="black" stroke-width="1" fill="none"/>
<path d="M 227 196 L 225 198 L 225 199 L 227 201 L 228 200 L 228 197 " stroke="black" stroke-width="1" fill="none"/>
<path d="M 227 196 L 228 197 L 228 200 L 227 201 L 225 199 L 225 198 " stroke="black" stroke-width="1" fill="none"/>
<path d="M 146 173 L 144 175 L 143 175 L 144 175 " stroke="black" stroke-width="1" fill="none"/>
<path d="M 148 172 " stroke="black" stroke-width="1" fill="none"/>
<path d="M 151 170 " stroke="black" stroke-width="1" fill="none"/>
<path d="M 153 169 " stroke="black" stroke-width="1" fill="none"/>
<path d="M 149 169 " stroke="black" stroke-width="1" fill="none"/>
<path d="M 160 168 L 159 168 L 158 169 L 157 169 L 156 170 L 155 170 L 154 171 L 153 171 L 152 172 L 151 172 L 149 174 L 148 174 L 145 177 L 144 177 L 145 177 L 146 176 L 147 176 L 149 174 L 150 174 L 152 172 L 153 172 L 154 171 L 155 171 L 156 170 L 157 170 L 158 169 L 159 169 " stroke="black" stroke-width="1" fill="none"/>
<path d="M 155 168 " stroke="black" stroke-width="1" fill="none"/>
<path d="M 151 168 " stroke="black" stroke-width="1" fill="none"/>
<path d="M 153 167 " stroke="black" stroke-width="1" fill="none"/>
<path d="M 198 164 L 197 164 L 195 166 L 194 166 L 193 167 L 192 167 L 191 168 L 190 168 L 189 169 L 188 169 L 186 171 L 185 171 L 184 172 L 183 172 L 182 173 L 183 174 L 183 175 L 184 174 L 185 174 L 186 173 L 187 173 L 189 171 L 190 171 L 191 170 L 192 170 L 193 169 L 194 169 L 196 167 L 198 167 L 196 167 L 195 166 L 196 165 L 197 165 " stroke="black" stroke-width="1" fill="none"/>
<path d="M 196 167 L 194 169 L 193 169 L 192 170 L 191 170 L 190 171 L 189 171 L 187 173 L 186 173 L 185 174 L 183 174 L 182 173 L 183 172 L 184 172 L 185 171 L 186 171 L 188 169 L 189 169 L 190 168 L 191 168 L 192 167 L 193 167 L 194 166 L 195 166 " stroke="black" stroke-width="1" fill="none"/>
<path d="M 145 203 L 147 203 L 160 211 L 181 198 L 183 198 L 193 205 L 205 211 L 219 202 L 216 203 L 205 211 L 203 209 L 192 204 L 183 197 L 183 178 L 198 169 L 183 177 L 183 197 L 182 198 L 181 197 L 181 175 L 162 164 L 158 164 L 155 166 L 157 165 L 158 166 L 157 167 L 159 166 L 157 165 L 158 164 L 161 164 L 178 173 L 181 176 L 181 197 L 178 200 L 160 211 L 151 205 " stroke="black" stroke-width="1" fill="none"/>
<path d="M 78 161 L 79 161 L 80 162 L 81 162 L 83 164 L 84 164 L 85 165 L 86 165 L 87 166 L 86 165 L 85 165 L 84 164 L 83 164 L 81 162 L 80 162 L 79 161 " stroke="black" stroke-width="1" fill="none"/>
<path d="M 79 159 L 80 159 L 81 160 L 82 160 L 84 162 L 85 162 L 86 163 L 87 163 L 89 165 L 90 165 L 91 166 L 92 166 L 94 168 L 93 169 L 92 169 L 91 168 L 90 168 L 89 167 L 90 168 L 91 168 L 92 169 L 93 169 L 94 170 L 94 169 L 95 168 L 94 167 L 93 167 L 91 165 L 90 165 L 89 164 L 88 164 L 86 162 L 85 162 L 84 161 L 83 161 L 81 159 " stroke="black" stroke-width="1" fill="none"/>
<path d="M 203 157 L 201 159 L 201 164 L 203 166 L 207 166 L 209 164 L 209 159 L 207 157 " stroke="black" stroke-width="1" fill="none"/>
<path d="M 203 157 L 206 157 L 209 160 L 209 163 L 206 166 L 203 166 L 201 164 L 201 160 L 202 159 L 202 158 " stroke="black" stroke-width="1" fill="none"/>
<path d="M 205 159 L 203 161 L 203 162 L 205 164 L 206 163 L 206 160 " stroke="black" stroke-width="1" fill="none"/>
<path d="M 205 159 L 206 160 L 206 163 L 205 164 L 203 162 L 203 161 " stroke="black" stroke-width="1" fill="none"/>
<path d="M 112 139 L 112 159 L 114 159 L 114 140 L 113 139 " stroke="black" stroke-width="1" fill="none"/>
<path d="M 113 139 L 114 140 L 114 158 L 113 159 L 112 158 L 112 140 " stroke="black" stroke-width="1" fill="none"/>
<path d="M 82 135 L 81 136 L 80 136 L 79 137 L 80 136 L 81 136 " stroke="black" stroke-width="1" fill="none"/>
<path d="M 247 132 L 245 134 L 245 139 L 247 141 L 251 141 L 253 139 L 253 134 L 251 132 " stroke="black" stroke-width="1" fill="none"/>
<path d="M 247 132 L 250 132 L 253 135 L 253 138 L 250 141 L 247 141 L 245 139 L 245 135 L 246 134 L 246 133 " stroke="black" stroke-width="1" fill="none"/>
<path d="M 249 134 L 247 136 L 247 137 L 249 139 L 250 138 L 250 135 " stroke="black" stroke-width="1" fill="none"/>
<path d="M 249 134 L 250 135 L 250 138 L 249 139 L 247 137 L 247 136 " stroke="black" stroke-width="1" fill="none"/>
<path d="M 87 132 L 86 133 L 85 133 L 84 134 L 85 133 L 86 133 " stroke="black" stroke-width="1" fill="none"/>
<path d="M 60 130 L 72 139 L 72 163 L 94 175 L 96 175 L 117 163 L 131 171 L 137 176 L 137 194 L 135 196 L 135 201 L 137 203 L 141 203 L 143 201 L 143 196 L 141 194 L 137 193 L 139 192 L 139 176 L 147 170 L 143 173 L 137 175 L 117 163 L 95 175 L 92 174 L 72 162 L 72 139 L 73 138 L 74 139 L 74 161 L 88 169 L 77 163 L 74 160 L 74 139 L 78 135 L 74 138 L 72 138 " stroke="black" stroke-width="1" fill="none"/>
<path d="M 138 194 L 140 194 L 143 197 L 143 200 L 140 203 L 137 203 L 135 201 L 135 197 " stroke="black" stroke-width="1" fill="none"/>
<path d="M 139 196 L 137 198 L 137 199 L 139 201 L 140 200 L 140 197 " stroke="black" stroke-width="1" fill="none"/>
<path d="M 139 196 L 140 197 L 140 200 L 139 201 L 137 199 L 137 198 " stroke="black" stroke-width="1" fill="none"/>
<path d="M 138 188 L 139 189 L 139 191 L 138 192 L 137 191 L 137 189 " stroke="black" stroke-width="1" fill="none"/>
<path d="M 138 175 L 139 176 L 139 187 L 138 188 L 137 187 L 137 176 " stroke="black" stroke-width="1" fill="none"/>
<path d="M 88 129 L 87 130 L 86 130 L 85 131 L 84 131 L 82 133 L 81 133 L 80 134 L 81 133 L 82 133 L 84 131 L 85 131 L 86 130 L 87 130 " stroke="black" stroke-width="1" fill="none"/>
<path d="M 94 128 L 93 129 L 92 129 L 91 130 L 90 130 L 89 131 L 90 130 L 91 130 L 92 129 L 93 129 L 94 130 L 92 132 L 91 132 L 90 133 L 89 133 L 87 135 L 86 135 L 85 136 L 84 136 L 82 138 L 81 138 L 80 139 L 79 139 L 81 139 L 83 137 L 84 137 L 85 136 L 86 136 L 88 134 L 89 134 L 90 133 L 91 133 L 93 131 L 94 131 L 95 130 L 94 129 " stroke="black" stroke-width="1" fill="none"/>
<path d="M 34 128 L 34 135 L 35 135 L 36 136 L 36 133 L 37 132 L 38 132 L 39 133 L 39 135 L 41 135 L 41 128 L 39 128 L 37 130 L 36 129 L 36 127 L 35 128 " stroke="black" stroke-width="1" fill="none"/>
<path d="M 40 128 L 41 129 L 41 134 L 40 135 L 39 134 L 39 132 L 38 131 L 38 130 " stroke="black" stroke-width="1" fill="none"/>
<path d="M 35 128 L 36 129 L 36 130 L 37 130 L 38 131 L 37 132 L 36 132 L 36 134 L 35 135 L 34 134 L 34 129 " stroke="black" stroke-width="1" fill="none"/>
<path d="M 258 126 L 258 133 L 259 133 L 260 134 L 260 131 L 261 130 L 262 130 L 263 131 L 263 133 L 265 133 L 265 126 L 263 126 L 261 128 L 260 127 L 260 125 L 259 126 " stroke="black" stroke-width="1" fill="none"/>
<path d="M 264 126 L 265 127 L 265 132 L 264 133 L 263 132 L 263 130 L 262 129 L 262 128 " stroke="black" stroke-width="1" fill="none"/>
<path d="M 259 126 L 260 127 L 260 128 L 261 128 L 262 129 L 261 130 L 260 130 L 260 132 L 259 133 L 258 132 L 258 127 " stroke="black" stroke-width="1" fill="none"/>
<path d="M 188 124 L 189 124 L 190 125 L 191 125 L 193 127 L 194 127 L 195 128 L 196 128 L 197 129 L 196 128 L 195 128 L 194 127 L 193 127 L 191 125 L 190 125 L 189 124 " stroke="black" stroke-width="1" fill="none"/>
<path d="M 189 122 L 190 122 L 191 123 L 192 123 L 194 125 L 195 125 L 196 126 L 197 126 L 199 128 L 200 128 L 201 129 L 202 129 L 204 131 L 203 132 L 202 132 L 201 131 L 200 131 L 199 130 L 200 131 L 201 131 L 202 132 L 203 132 L 204 133 L 204 132 L 205 131 L 204 130 L 203 130 L 201 128 L 200 128 L 199 127 L 198 127 L 196 125 L 195 125 L 194 124 L 193 124 L 191 122 " stroke="black" stroke-width="1" fill="none"/>
<path d="M 51 119 L 49 121 L 49 126 L 51 128 L 55 128 L 57 126 L 57 121 L 55 119 " stroke="black" stroke-width="1" fill="none"/>
<path d="M 51 119 L 54 119 L 57 122 L 57 125 L 54 128 L 51 128 L 49 126 L 49 122 L 50 121 L 50 120 " stroke="black" stroke-width="1" fill="none"/>
<path d="M 53 121 L 51 123 L 51 124 L 53 126 L 54 125 L 54 122 " stroke="black" stroke-width="1" fill="none"/>
<path d="M 53 121 L 54 122 L 54 125 L 53 126 L 51 124 L 51 123 " stroke="black" stroke-width="1" fill="none"/>
<path d="M 222 102 L 222 122 L 224 122 L 224 103 L 223 102 " stroke="black" stroke-width="1" fill="none"/>
<path d="M 223 102 L 224 103 L 224 121 L 223 122 L 222 121 L 222 103 " stroke="black" stroke-width="1" fill="none"/>
<path d="M 192 98 L 191 99 L 190 99 L 189 100 L 190 99 L 191 99 " stroke="black" stroke-width="1" fill="none"/>
<path d="M 197 95 L 196 96 L 195 96 L 194 97 L 195 96 L 196 96 " stroke="black" stroke-width="1" fill="none"/>
<path d="M 138 95 L 136 97 L 136 102 L 138 104 L 142 104 L 144 102 L 144 97 L 142 95 " stroke="black" stroke-width="1" fill="none"/>
<path d="M 138 95 L 141 95 L 144 98 L 144 101 L 141 104 L 138 104 L 136 102 L 136 98 L 137 97 L 137 96 " stroke="black" stroke-width="1" fill="none"/>
<path d="M 140 97 L 138 99 L 138 100 L 140 102 L 141 101 L 141 98 " stroke="black" stroke-width="1" fill="none"/>
<path d="M 140 97 L 141 98 L 141 101 L 140 102 L 138 100 L 138 99 " stroke="black" stroke-width="1" fill="none"/>
<path d="M 51 94 L 49 96 L 49 101 L 51 103 L 55 103 L 57 101 L 57 96 L 55 94 " stroke="black" stroke-width="1" fill="none"/>
<path d="M 51 94 L 54 94 L 57 97 L 57 100 L 54 103 L 51 103 L 49 101 L 49 97 L 50 96 L 50 95 " stroke="black" stroke-width="1" fill="none"/>
<path d="M 53 96 L 51 98 L 51 99 L 53 101 L 54 100 L 54 97 " stroke="black" stroke-width="1" fill="none"/>
<path d="M 53 96 L 54 97 L 54 100 L 53 101 L 51 99 L 51 98 " stroke="black" stroke-width="1" fill="none"/>
<path d="M 198 92 L 197 93 L 196 93 L 195 94 L 194 94 L 192 96 L 191 96 L 190 97 L 191 96 L 192 96 L 194 94 L 195 94 L 196 93 L 197 93 " stroke="black" stroke-width="1" fill="none"/>
<path d="M 204 91 L 203 92 L 202 92 L 201 93 L 200 93 L 199 94 L 200 93 L 201 93 L 202 92 L 203 92 L 204 93 L 202 95 L 201 95 L 200 96 L 199 96 L 197 98 L 196 98 L 195 99 L 194 99 L 192 101 L 191 101 L 190 102 L 189 102 L 191 102 L 193 100 L 194 100 L 195 99 L 196 99 L 198 97 L 199 97 L 200 96 L 201 96 L 203 94 L 204 94 L 205 93 L 204 92 " stroke="black" stroke-width="1" fill="none"/>
<path d="M 84 89 L 85 90 L 86 90 L 87 91 L 86 90 L 85 90 " stroke="black" stroke-width="1" fill="none"/>
<path d="M 80 89 L 81 90 L 82 90 L 84 92 L 85 92 L 86 93 L 87 93 L 88 94 L 87 93 L 86 93 L 85 92 L 84 92 L 82 90 L 81 90 " stroke="black" stroke-width="1" fill="none"/>
<path d="M 146 96 L 148 96 L 162 88 L 174 95 L 182 102 L 182 126 L 204 138 L 206 138 L 218 132 L 227 126 L 236 132 L 242 134 L 240 134 L 227 126 L 208 137 L 205 138 L 202 137 L 182 125 L 182 102 L 183 101 L 184 102 L 184 124 L 198 132 L 187 126 L 184 123 L 184 102 L 188 98 L 184 101 L 182 101 L 173 94 L 162 88 L 148 96 " stroke="black" stroke-width="1" fill="none"/>
<path d="M 60 95 L 73 87 L 94 101 L 94 122 L 73 136 L 60 128 L 73 136 L 96 123 L 118 137 L 117 161 L 116 138 L 95 125 L 90 128 L 95 125 L 116 139 L 116 160 L 93 172 L 90 170 L 97 172 L 116 161 L 138 173 L 160 161 L 178 171 L 197 162 L 179 171 L 159 161 L 138 173 L 118 160 L 118 136 L 96 122 L 96 101 L 117 87 L 132 97 L 117 87 L 96 100 L 73 87 " stroke="black" stroke-width="1" fill="none"/>
<path d="M 95 100 L 96 101 L 96 122 L 95 123 L 94 122 L 94 101 " stroke="black" stroke-width="1" fill="none"/>
<path d="M 79 86 L 80 87 L 81 87 L 82 88 L 81 87 L 80 87 " stroke="black" stroke-width="1" fill="none"/>
<path d="M 34 87 L 34 94 L 35 94 L 36 95 L 36 92 L 37 91 L 38 91 L 39 92 L 39 94 L 41 94 L 41 87 L 39 87 L 37 89 L 36 88 L 36 86 L 35 87 " stroke="black" stroke-width="1" fill="none"/>
<path d="M 40 87 L 41 88 L 41 93 L 40 94 L 39 93 L 39 91 L 38 90 L 38 89 " stroke="black" stroke-width="1" fill="none"/>
<path d="M 35 87 L 36 88 L 36 89 L 37 89 L 38 90 L 37 91 L 36 91 L 36 93 L 35 94 L 34 93 L 34 88 " stroke="black" stroke-width="1" fill="none"/>
<path d="M 79 84 L 80 84 L 81 85 L 82 85 L 84 87 L 85 87 L 86 88 L 87 88 L 89 90 L 90 90 L 91 91 L 92 91 L 94 93 L 93 94 L 92 94 L 91 93 L 90 93 L 89 92 L 90 93 L 91 93 L 92 94 L 93 94 L 94 95 L 94 94 L 95 93 L 94 92 L 93 92 L 91 90 L 90 90 L 89 89 L 88 89 L 86 87 L 85 87 L 84 86 L 83 86 L 81 84 " stroke="black" stroke-width="1" fill="none"/>
<path d="M 157 64 L 157 84 L 159 84 L 159 64 " stroke="black" stroke-width="1" fill="none"/>
<path d="M 158 64 L 159 65 L 159 83 L 158 84 L 157 83 L 157 65 " stroke="black" stroke-width="1" fill="none"/>
<path d="M 114 64 L 112 64 L 112 84 L 113 84 L 114 83 " stroke="black" stroke-width="1" fill="none"/>
<path d="M 113 64 L 114 65 L 114 83 L 113 84 L 112 83 L 112 65 " stroke="black" stroke-width="1" fill="none"/>
<path d="M 87 57 L 86 58 L 85 58 L 84 59 L 83 59 L 81 61 L 80 61 L 79 62 L 78 62 L 79 62 L 80 61 L 81 61 L 83 59 L 84 59 L 85 58 L 86 58 " stroke="black" stroke-width="1" fill="none"/>
<path d="M 94 53 L 93 54 L 92 54 L 91 55 L 90 55 L 89 56 L 90 55 L 91 55 L 92 54 L 93 54 L 94 55 L 92 57 L 91 57 L 90 58 L 89 58 L 87 60 L 86 60 L 85 61 L 84 61 L 82 63 L 81 63 L 80 64 L 79 64 L 81 64 L 83 62 L 84 62 L 85 61 L 86 61 L 88 59 L 89 59 L 90 58 L 91 58 L 93 56 L 94 56 L 95 55 L 94 54 " stroke="black" stroke-width="1" fill="none"/>
<path d="M 92 21 L 94 47 L 72 60 L 72 84 L 60 93 L 72 85 L 78 88 L 74 84 L 74 63 L 88 54 L 74 62 L 73 85 L 74 59 L 96 48 L 117 60 L 136 48 L 137 34 L 138 49 L 118 62 L 95 50 L 90 53 L 95 50 L 116 63 L 116 84 L 95 98 L 91 96 L 95 98 L 116 85 L 133 95 L 118 84 L 118 63 L 140 50 L 161 63 L 161 85 L 146 94 L 163 86 L 184 98 L 208 87 L 228 100 L 228 123 L 226 101 L 203 89 L 200 91 L 206 89 L 226 102 L 226 123 L 206 135 L 200 133 L 207 135 L 226 124 L 242 132 L 228 123 L 228 99 L 204 86 L 182 98 L 163 85 L 163 60 L 142 47 L 142 18 L 136 20 L 140 28 L 140 46 L 136 28 L 136 48 L 117 60 L 96 47 L 94 29 L 100 26 L 100 21 " stroke="black" stroke-width="1" fill="none"/>
<path d="M 117 62 L 118 63 L 118 84 L 117 85 L 116 84 L 116 63 " stroke="black" stroke-width="1" fill="none"/>
<path d="M 138 48 L 139 47 L 140 48 L 140 49 L 139 50 L 138 49 " stroke="black" stroke-width="1" fill="none"/>
<path d="M 95 35 L 96 36 L 96 47 L 95 48 L 94 47 L 94 36 " stroke="black" stroke-width="1" fill="none"/>
<path d="M 141 34 L 142 35 L 142 48 L 143 49 L 144 49 L 146 51 L 147 51 L 148 52 L 149 52 L 150 53 L 151 53 L 152 54 L 153 54 L 155 56 L 156 56 L 157 57 L 158 57 L 160 59 L 161 59 L 163 61 L 163 85 L 162 86 L 161 85 L 161 62 L 160 61 L 159 61 L 157 59 L 156 59 L 155 58 L 154 58 L 152 56 L 151 56 L 150 55 L 149 55 L 148 54 L 147 54 L 146 53 L 145 53 L 143 51 L 142 51 L 140 49 L 140 35 " stroke="black" stroke-width="1" fill="none"/>
<path d="M 95 30 L 96 31 L 96 34 L 95 35 L 94 34 L 94 31 " stroke="black" stroke-width="1" fill="none"/>
<path d="M 141 29 L 142 30 L 142 33 L 141 34 L 140 33 L 140 30 " stroke="black" stroke-width="1" fill="none"/>
<path d="M 137 29 L 138 30 L 138 33 L 137 34 L 136 33 L 136 30 " stroke="black" stroke-width="1" fill="none"/>
<path d="M 94 19 L 97 19 L 100 22 L 100 25 L 97 28 L 95 28 L 94 27 L 93 27 L 92 26 L 92 22 L 93 21 L 93 20 " stroke="black" stroke-width="1" fill="none"/>
<path d="M 96 21 L 94 23 L 94 24 L 96 26 L 97 25 L 97 22 " stroke="black" stroke-width="1" fill="none"/>
<path d="M 96 21 L 97 22 L 97 25 L 96 26 L 94 24 L 94 23 " stroke="black" stroke-width="1" fill="none"/>
<path d="M 138 18 L 141 18 L 144 21 L 144 24 L 141 27 L 139 27 L 138 26 L 137 26 L 136 25 L 136 21 L 137 20 L 137 19 " stroke="black" stroke-width="1" fill="none"/>
<path d="M 140 20 L 138 22 L 138 23 L 140 25 L 141 24 L 141 21 " stroke="black" stroke-width="1" fill="none"/>
<path d="M 140 20 L 141 21 L 141 24 L 140 25 L 138 23 L 138 22 " stroke="black" stroke-width="1" fill="none"/>
<path d="M 78 12 L 78 19 L 79 19 L 80 20 L 80 17 L 81 16 L 82 16 L 83 17 L 83 19 L 85 19 L 85 12 L 83 12 L 81 14 L 80 13 L 80 11 L 79 12 " stroke="black" stroke-width="1" fill="none"/>
<path d="M 84 12 L 85 13 L 85 18 L 84 19 L 83 18 L 83 16 L 82 15 L 82 14 " stroke="black" stroke-width="1" fill="none"/>
<path d="M 79 12 L 80 13 L 80 14 L 81 14 L 82 15 L 81 16 L 80 16 L 80 18 L 79 19 L 78 18 L 78 13 " stroke="black" stroke-width="1" fill="none"/>
</svg>