<svg xmlns="http://www.w3.org/2000/svg" width="300" height="300" viewBox="0 0 300 300">
<path d="M 153 280 L 152 280 L 151 281 L 149 281 L 152 281 " stroke="black" stroke-width="1" fill="none"/>
<path d="M 139 280 L 139 287 L 140 287 L 141 288 L 141 285 L 142 284 L 143 284 L 144 285 L 144 287 L 146 287 L 146 280 L 144 280 L 142 282 L 141 281 L 141 279 L 140 280 " stroke="black" stroke-width="1" fill="none"/>
<path d="M 145 280 L 146 281 L 146 286 L 145 287 L 144 286 L 144 284 L 143 283 L 143 282 " stroke="black" stroke-width="1" fill="none"/>
<path d="M 140 280 L 141 281 L 141 282 L 142 282 L 143 283 L 142 284 L 141 284 L 141 286 L 140 287 L 139 286 L 139 281 " stroke="black" stroke-width="1" fill="none"/>
<path d="M 162 273 L 160 271 L 159 271 L 162 274 L 162 277 L 159 280 L 156 280 L 155 279 L 157 277 L 158 278 L 159 277 L 159 274 L 158 273 L 156 275 L 157 276 L 157 277 L 155 279 L 153 277 L 154 276 L 154 274 L 156 272 L 155 272 L 154 273 L 154 276 L 153 277 L 152 277 L 151 278 L 150 278 L 149 279 L 150 279 L 151 278 L 152 278 L 153 277 L 156 280 L 160 280 L 162 278 " stroke="black" stroke-width="1" fill="none"/>
<path d="M 158 273 L 159 274 L 159 277 L 158 278 L 157 277 L 157 276 L 156 275 " stroke="black" stroke-width="1" fill="none"/>
<path d="M 192 248 L 191 249 L 190 249 L 192 249 " stroke="black" stroke-width="1" fill="none"/>
<path d="M 199 246 L 197 248 L 197 253 L 199 255 L 203 255 L 205 253 L 205 248 L 203 246 " stroke="black" stroke-width="1" fill="none"/>
<path d="M 199 246 L 202 246 L 205 249 L 205 252 L 202 255 L 199 255 L 197 253 L 197 249 L 198 248 L 198 247 " stroke="black" stroke-width="1" fill="none"/>
<path d="M 201 248 L 199 250 L 199 251 L 201 253 L 202 252 L 202 249 " stroke="black" stroke-width="1" fill="none"/>
<path d="M 201 248 L 202 249 L 202 252 L 201 253 L 199 251 L 199 250 " stroke="black" stroke-width="1" fill="none"/>
<path d="M 112 246 L 110 248 L 110 253 L 112 255 L 116 255 L 118 253 L 118 248 L 116 246 " stroke="black" stroke-width="1" fill="none"/>
<path d="M 112 246 L 115 246 L 118 249 L 118 252 L 115 255 L 112 255 L 110 253 L 110 249 L 111 248 L 111 247 " stroke="black" stroke-width="1" fill="none"/>
<path d="M 114 248 L 112 250 L 112 251 L 114 253 L 115 252 L 115 249 " stroke="black" stroke-width="1" fill="none"/>
<path d="M 114 248 L 115 249 L 115 252 L 114 253 L 112 251 L 112 250 " stroke="black" stroke-width="1" fill="none"/>
<path d="M 129 240 L 128 240 L 127 241 L 125 241 L 124 242 L 123 242 L 122 243 L 120 243 L 120 246 L 121 247 L 124 247 L 125 246 L 126 246 L 130 242 L 129 242 L 128 243 L 127 243 L 126 242 L 128 240 " stroke="black" stroke-width="1" fill="none"/>
<path d="M 120 245 L 120 244 L 121 243 L 123 243 L 124 244 L 123 243 L 124 242 L 125 242 L 126 243 L 127 243 L 128 244 L 127 245 L 126 245 L 125 246 L 124 246 L 123 247 L 122 247 " stroke="black" stroke-width="1" fill="none"/>
<path d="M 210 239 L 210 246 L 211 246 L 212 247 L 212 244 L 213 243 L 214 243 L 215 244 L 215 246 L 217 246 L 217 239 L 215 239 L 213 241 L 212 240 L 212 238 L 211 239 " stroke="black" stroke-width="1" fill="none"/>
<path d="M 216 239 L 217 240 L 217 245 L 216 246 L 215 245 L 215 243 L 214 242 L 214 241 " stroke="black" stroke-width="1" fill="none"/>
<path d="M 211 239 L 212 240 L 212 241 L 213 241 L 214 242 L 213 243 L 212 243 L 212 245 L 211 246 L 210 245 L 210 240 " stroke="black" stroke-width="1" fill="none"/>
<path d="M 96 239 L 96 246 L 97 246 L 98 247 L 98 244 L 99 243 L 100 243 L 101 244 L 101 246 L 103 246 L 103 239 L 101 239 L 99 241 L 98 240 L 98 238 L 97 239 " stroke="black" stroke-width="1" fill="none"/>
<path d="M 102 239 L 103 240 L 103 245 L 102 246 L 101 245 L 101 243 L 100 242 L 100 241 " stroke="black" stroke-width="1" fill="none"/>
<path d="M 97 239 L 98 240 L 98 241 L 99 241 L 100 242 L 99 243 L 98 243 L 98 245 L 97 246 L 96 245 L 96 240 " stroke="black" stroke-width="1" fill="none"/>
<path d="M 192 202 L 188 203 L 178 211 L 164 204 L 178 212 L 176 213 L 164 206 L 178 215 L 178 236 L 157 250 L 136 236 L 136 215 L 151 205 L 136 214 L 136 237 L 155 250 L 152 250 L 135 239 L 132 241 L 135 239 L 155 252 L 154 269 L 159 269 L 157 253 L 179 240 L 156 254 L 155 253 L 156 249 L 161 248 L 178 237 L 177 213 L 184 207 L 186 209 L 180 213 L 180 238 L 181 240 L 189 242 L 189 246 L 187 245 L 188 244 L 181 242 L 189 247 L 193 245 L 193 243 L 191 244 L 180 237 L 180 214 L 183 211 L 194 207 " stroke="black" stroke-width="1" fill="none"/>
<path d="M 156 258 L 158 260 L 158 263 L 159 264 L 159 268 L 158 269 L 155 269 L 153 267 L 154 266 L 154 260 " stroke="black" stroke-width="1" fill="none"/>
<path d="M 156 254 L 157 255 L 157 257 L 156 258 L 155 257 L 155 255 " stroke="black" stroke-width="1" fill="none"/>
<path d="M 190 245 L 191 244 L 192 245 L 191 246 " stroke="black" stroke-width="1" fill="none"/>
<path d="M 191 244 L 192 243 L 193 244 L 192 245 " stroke="black" stroke-width="1" fill="none"/>
<path d="M 194 205 L 194 206 L 193 207 L 192 207 L 191 208 L 189 208 L 188 209 L 186 209 L 184 207 L 186 205 L 187 205 L 189 203 L 190 203 L 191 202 " stroke="black" stroke-width="1" fill="none"/>
<path d="M 156 195 L 154 197 L 154 202 L 156 204 L 160 204 L 162 202 L 162 197 L 160 195 " stroke="black" stroke-width="1" fill="none"/>
<path d="M 156 195 L 159 195 L 162 198 L 162 201 L 159 204 L 156 204 L 154 202 L 154 198 L 155 197 L 155 196 " stroke="black" stroke-width="1" fill="none"/>
<path d="M 158 197 L 156 199 L 156 200 L 158 202 L 159 201 L 159 198 " stroke="black" stroke-width="1" fill="none"/>
<path d="M 158 197 L 159 198 L 159 201 L 158 202 L 156 200 L 156 199 " stroke="black" stroke-width="1" fill="none"/>
<path d="M 197 172 " stroke="black" stroke-width="1" fill="none"/>
<path d="M 194 170 L 195 171 " stroke="black" stroke-width="1" fill="none"/>
<path d="M 112 170 L 110 172 L 110 177 L 112 179 L 112 200 L 111 201 L 111 203 L 132 213 L 134 215 L 134 236 L 131 238 L 131 239 L 134 237 L 134 214 L 112 203 L 111 202 L 112 201 L 112 199 L 114 197 L 115 199 L 116 199 L 123 205 L 134 212 L 139 210 L 141 208 L 146 206 L 149 203 L 150 203 L 147 204 L 135 212 L 124 205 L 117 199 L 116 199 L 114 197 L 114 181 L 112 180 L 113 179 L 116 179 L 118 177 L 118 172 L 116 170 " stroke="black" stroke-width="1" fill="none"/>
<path d="M 113 187 L 114 188 L 114 197 L 113 198 L 112 197 L 112 188 " stroke="black" stroke-width="1" fill="none"/>
<path d="M 113 181 L 114 182 L 114 186 L 113 187 L 112 186 L 112 182 " stroke="black" stroke-width="1" fill="none"/>
<path d="M 112 170 L 115 170 L 118 173 L 118 176 L 115 179 L 113 179 L 112 178 L 111 178 L 110 177 L 110 173 L 111 172 L 111 171 " stroke="black" stroke-width="1" fill="none"/>
<path d="M 114 172 L 112 174 L 112 175 L 114 177 L 115 176 L 115 173 " stroke="black" stroke-width="1" fill="none"/>
<path d="M 114 172 L 115 173 L 115 176 L 114 177 L 112 175 L 112 174 " stroke="black" stroke-width="1" fill="none"/>
<path d="M 185 165 L 186 166 L 187 166 L 188 167 L 189 167 L 190 168 L 191 168 L 192 169 L 191 168 L 190 168 L 189 167 L 188 167 L 187 166 L 186 166 " stroke="black" stroke-width="1" fill="none"/>
<path d="M 184 162 L 185 163 L 186 163 L 187 164 L 188 164 L 189 165 L 190 165 L 191 166 L 192 166 L 194 168 L 192 166 L 191 166 L 190 165 L 189 165 L 188 164 L 187 164 L 186 163 L 185 163 " stroke="black" stroke-width="1" fill="none"/>
<path d="M 96 163 L 96 170 L 97 170 L 98 171 L 98 168 L 99 167 L 100 167 L 101 168 L 101 170 L 103 170 L 103 163 L 101 163 L 99 165 L 98 164 L 98 162 L 97 163 " stroke="black" stroke-width="1" fill="none"/>
<path d="M 102 163 L 103 164 L 103 169 L 102 170 L 101 169 L 101 167 L 100 166 L 100 165 " stroke="black" stroke-width="1" fill="none"/>
<path d="M 97 163 L 98 164 L 98 165 L 99 165 L 100 166 L 99 167 L 98 167 L 98 169 L 97 170 L 96 169 L 96 164 " stroke="black" stroke-width="1" fill="none"/>
<path d="M 184 160 L 185 160 L 186 161 L 187 161 L 188 162 L 189 162 L 190 163 L 191 163 L 192 164 L 193 164 L 196 167 L 197 167 L 199 169 L 198 170 L 197 170 L 196 169 L 197 170 L 198 170 L 199 171 L 199 170 L 200 169 L 198 167 L 197 167 L 195 165 L 194 165 L 192 163 L 191 163 L 190 162 L 189 162 L 188 161 L 187 161 L 186 160 " stroke="black" stroke-width="1" fill="none"/>
<path d="M 217 140 L 217 160 L 219 160 L 219 140 " stroke="black" stroke-width="1" fill="none"/>
<path d="M 218 140 L 219 141 L 219 159 L 218 160 L 217 159 L 217 141 " stroke="black" stroke-width="1" fill="none"/>
<path d="M 194 132 L 192 134 L 191 134 L 190 135 L 189 135 L 188 136 L 187 136 L 186 137 L 185 137 L 184 138 L 185 137 L 186 137 L 187 136 L 188 136 L 189 135 L 190 135 L 191 134 L 192 134 " stroke="black" stroke-width="1" fill="none"/>
<path d="M 192 131 L 191 132 L 190 132 L 189 133 L 188 133 L 187 134 L 186 134 L 185 135 L 186 134 L 187 134 L 188 133 L 189 133 L 190 132 L 191 132 " stroke="black" stroke-width="1" fill="none"/>
<path d="M 199 129 L 198 130 L 197 130 L 196 131 L 197 130 L 198 130 L 199 131 L 197 133 L 196 133 L 193 136 L 192 136 L 191 137 L 190 137 L 189 138 L 188 138 L 187 139 L 186 139 L 185 140 L 184 140 L 186 140 L 187 139 L 188 139 L 189 138 L 190 138 L 191 137 L 192 137 L 194 135 L 195 135 L 197 133 L 198 133 L 200 131 L 199 130 " stroke="black" stroke-width="1" fill="none"/>
<path d="M 195 129 L 194 130 " stroke="black" stroke-width="1" fill="none"/>
<path d="M 197 128 " stroke="black" stroke-width="1" fill="none"/>
<path d="M 139 129 L 139 136 L 140 136 L 141 137 L 141 134 L 142 133 L 143 133 L 144 134 L 144 136 L 146 136 L 146 129 L 144 129 L 142 131 L 141 130 L 141 128 L 140 129 " stroke="black" stroke-width="1" fill="none"/>
<path d="M 145 129 L 146 130 L 146 135 L 145 136 L 144 135 L 144 133 L 143 132 L 143 131 " stroke="black" stroke-width="1" fill="none"/>
<path d="M 140 129 L 141 130 L 141 131 L 142 131 L 143 132 L 142 133 L 141 133 L 141 135 L 140 136 L 139 135 L 139 130 " stroke="black" stroke-width="1" fill="none"/>
<path d="M 243 115 L 243 120 L 241 122 L 241 127 L 243 129 L 247 129 L 249 127 L 249 122 L 247 120 L 244 120 L 243 119 L 244 118 L 245 118 L 245 115 " stroke="black" stroke-width="1" fill="none"/>
<path d="M 244 120 L 246 120 L 249 123 L 249 126 L 246 129 L 243 129 L 241 127 L 241 123 " stroke="black" stroke-width="1" fill="none"/>
<path d="M 245 122 L 243 124 L 243 125 L 245 127 L 246 126 L 246 123 " stroke="black" stroke-width="1" fill="none"/>
<path d="M 245 122 L 246 123 L 246 126 L 245 127 L 243 125 L 243 124 " stroke="black" stroke-width="1" fill="none"/>
<path d="M 243 116 L 244 115 L 245 116 L 245 117 L 244 118 L 243 117 " stroke="black" stroke-width="1" fill="none"/>
<path d="M 240 105 L 240 112 L 242 112 L 242 110 L 243 109 L 244 109 L 245 110 L 245 112 L 247 112 L 247 105 L 245 105 L 243 107 L 242 106 L 242 104 L 241 105 " stroke="black" stroke-width="1" fill="none"/>
<path d="M 246 105 L 247 106 L 247 111 L 246 112 L 245 111 L 245 109 L 244 108 L 244 107 " stroke="black" stroke-width="1" fill="none"/>
<path d="M 241 105 L 242 106 L 242 107 L 243 107 L 244 108 L 243 109 L 242 109 L 242 111 L 241 112 L 240 111 L 240 106 " stroke="black" stroke-width="1" fill="none"/>
<path d="M 107 95 " stroke="black" stroke-width="1" fill="none"/>
<path d="M 102 92 " stroke="black" stroke-width="1" fill="none"/>
<path d="M 104 91 L 105 92 L 104 93 L 105 94 L 104 93 L 105 92 L 106 92 L 107 93 L 108 93 L 109 94 L 110 94 L 111 95 L 112 95 L 111 95 L 110 94 L 109 94 L 108 93 L 107 93 L 106 92 L 105 92 " stroke="black" stroke-width="1" fill="none"/>
<path d="M 101 89 L 102 90 " stroke="black" stroke-width="1" fill="none"/>
<path d="M 97 89 L 98 90 L 99 90 L 100 91 L 99 90 L 98 90 " stroke="black" stroke-width="1" fill="none"/>
<path d="M 99 88 " stroke="black" stroke-width="1" fill="none"/>
<path d="M 166 88 L 166 95 L 167 95 L 168 96 L 168 93 L 169 92 L 170 92 L 171 93 L 171 95 L 173 95 L 173 88 L 171 88 L 169 90 L 168 89 L 168 87 L 167 88 " stroke="black" stroke-width="1" fill="none"/>
<path d="M 172 88 L 173 89 L 173 94 L 172 95 L 171 94 L 171 92 L 170 91 L 170 90 " stroke="black" stroke-width="1" fill="none"/>
<path d="M 167 88 L 168 89 L 168 90 L 169 90 L 170 91 L 169 92 L 168 92 L 168 94 L 167 95 L 166 94 L 166 89 " stroke="black" stroke-width="1" fill="none"/>
<path d="M 96 84 L 96 86 L 97 87 L 96 86 L 96 85 L 97 84 L 99 86 L 100 86 L 101 87 L 102 87 L 104 89 L 105 89 L 106 90 L 107 90 L 108 91 L 109 91 L 110 92 L 111 92 L 112 93 L 113 93 L 112 92 L 111 92 L 110 91 L 109 91 L 108 90 L 107 90 L 106 89 L 105 89 L 104 88 L 103 88 L 101 86 L 100 86 L 98 84 " stroke="black" stroke-width="1" fill="none"/>
<path d="M 130 64 L 130 84 L 132 84 L 132 65 L 131 64 " stroke="black" stroke-width="1" fill="none"/>
<path d="M 131 64 L 132 65 L 132 83 L 131 84 L 130 83 L 130 65 " stroke="black" stroke-width="1" fill="none"/>
<path d="M 96 62 " stroke="black" stroke-width="1" fill="none"/>
<path d="M 96 60 " stroke="black" stroke-width="1" fill="none"/>
<path d="M 105 57 L 104 58 L 103 58 L 102 59 L 101 59 L 100 60 L 99 60 L 98 59 L 99 58 L 98 59 L 99 60 L 98 61 L 99 60 L 100 60 L 101 59 L 102 59 L 103 58 L 104 58 " stroke="black" stroke-width="1" fill="none"/>
<path d="M 106 54 L 105 55 L 104 55 L 103 56 L 102 56 L 101 57 L 102 56 L 103 56 L 104 55 L 105 55 " stroke="black" stroke-width="1" fill="none"/>
<path d="M 76 54 L 90 64 L 90 88 L 103 95 L 108 99 L 114 101 L 135 88 L 154 100 L 154 124 L 149 128 L 154 125 L 154 100 L 152 98 L 135 88 L 113 101 L 107 98 L 90 87 L 90 64 L 91 63 L 92 64 L 92 86 L 95 88 L 92 85 L 92 64 L 94 61 L 92 63 L 90 63 " stroke="black" stroke-width="1" fill="none"/>
<path d="M 112 53 L 111 54 L 110 54 L 109 55 L 108 55 L 107 56 L 108 55 L 109 55 L 110 54 L 111 54 L 112 55 L 110 57 L 109 57 L 108 58 L 107 58 L 105 60 L 104 60 L 103 61 L 102 61 L 101 62 L 100 62 L 99 63 L 98 63 L 97 64 L 96 64 L 98 64 L 99 63 L 100 63 L 101 62 L 102 62 L 103 61 L 104 61 L 106 59 L 107 59 L 108 58 L 109 58 L 111 56 L 112 56 L 113 55 L 112 54 " stroke="black" stroke-width="1" fill="none"/>
<path d="M 52 53 L 52 60 L 53 60 L 54 61 L 54 58 L 55 57 L 56 57 L 57 58 L 57 60 L 59 60 L 59 53 L 57 53 L 55 55 L 54 54 L 54 52 L 53 53 " stroke="black" stroke-width="1" fill="none"/>
<path d="M 58 53 L 59 54 L 59 59 L 58 60 L 57 59 L 57 57 L 56 56 L 56 55 " stroke="black" stroke-width="1" fill="none"/>
<path d="M 53 53 L 54 54 L 54 55 L 55 55 L 56 56 L 55 57 L 54 57 L 54 59 L 53 60 L 52 59 L 52 54 " stroke="black" stroke-width="1" fill="none"/>
<path d="M 68 44 L 66 46 L 66 51 L 68 53 L 72 53 L 74 51 L 74 46 L 72 44 " stroke="black" stroke-width="1" fill="none"/>
<path d="M 68 44 L 71 44 L 74 47 L 74 50 L 71 53 L 68 53 L 66 51 L 66 47 L 67 46 L 67 45 " stroke="black" stroke-width="1" fill="none"/>
<path d="M 70 46 L 68 48 L 68 49 L 70 51 L 71 50 L 71 47 " stroke="black" stroke-width="1" fill="none"/>
<path d="M 70 46 L 71 47 L 71 50 L 70 51 L 68 49 L 68 48 " stroke="black" stroke-width="1" fill="none"/>
<path d="M 112 19 L 109 50 L 91 61 L 76 52 L 91 61 L 114 48 L 136 62 L 135 86 L 134 63 L 113 50 L 108 53 L 113 50 L 134 64 L 134 85 L 114 98 L 109 96 L 114 98 L 136 86 L 156 99 L 156 126 L 150 130 L 157 126 L 178 139 L 178 164 L 199 177 L 197 202 L 203 204 L 205 197 L 199 194 L 201 177 L 223 164 L 223 139 L 238 130 L 221 138 L 199 127 L 221 139 L 221 161 L 199 173 L 221 162 L 222 138 L 223 163 L 201 176 L 180 165 L 178 139 L 183 164 L 180 161 L 183 136 L 178 138 L 158 126 L 158 99 L 162 95 L 160 125 L 179 136 L 200 124 L 222 136 L 237 128 L 222 136 L 199 124 L 179 136 L 163 127 L 160 100 L 164 97 L 156 98 L 136 85 L 136 61 L 114 47 L 112 29 L 118 26 L 118 21 " stroke="black" stroke-width="1" fill="none"/>
<path d="M 200 195 L 202 195 L 205 198 L 205 201 L 202 204 L 199 204 L 197 202 L 197 198 " stroke="black" stroke-width="1" fill="none"/>
<path d="M 201 197 L 199 199 L 199 200 L 201 202 L 202 201 L 202 198 " stroke="black" stroke-width="1" fill="none"/>
<path d="M 201 197 L 202 198 L 202 201 L 201 202 L 199 200 L 199 199 " stroke="black" stroke-width="1" fill="none"/>
<path d="M 200 189 L 201 190 L 201 192 L 200 193 L 199 192 L 199 190 " stroke="black" stroke-width="1" fill="none"/>
<path d="M 200 176 L 201 177 L 201 188 L 200 189 L 199 188 L 199 177 " stroke="black" stroke-width="1" fill="none"/>
<path d="M 156 125 L 157 124 L 158 125 L 157 126 " stroke="black" stroke-width="1" fill="none"/>
<path d="M 157 101 L 158 102 L 158 123 L 157 124 L 156 123 L 156 102 " stroke="black" stroke-width="1" fill="none"/>
<path d="M 156 99 L 157 98 L 158 99 L 158 100 L 157 101 L 156 100 " stroke="black" stroke-width="1" fill="none"/>
<path d="M 113 35 L 114 36 L 114 47 L 113 48 L 112 47 L 112 36 " stroke="black" stroke-width="1" fill="none"/>
<path d="M 113 30 L 114 31 L 114 34 L 113 35 L 112 34 L 112 31 " stroke="black" stroke-width="1" fill="none"/>
<path d="M 112 19 L 115 19 L 118 22 L 118 25 L 115 28 L 113 28 L 112 27 L 111 27 L 110 26 L 110 22 L 111 21 L 111 20 " stroke="black" stroke-width="1" fill="none"/>
<path d="M 114 21 L 112 23 L 112 24 L 114 26 L 115 25 L 115 22 " stroke="black" stroke-width="1" fill="none"/>
<path d="M 114 21 L 115 22 L 115 25 L 114 26 L 112 24 L 112 23 " stroke="black" stroke-width="1" fill="none"/>
<path d="M 123 12 L 123 19 L 124 19 L 125 20 L 125 17 L 126 16 L 127 16 L 128 17 L 128 19 L 130 19 L 130 12 L 128 12 L 126 14 L 125 13 L 125 11 L 124 12 " stroke="black" stroke-width="1" fill="none"/>
<path d="M 129 12 L 130 13 L 130 18 L 129 19 L 128 18 L 128 16 L 127 15 L 127 14 " stroke="black" stroke-width="1" fill="none"/>
<path d="M 124 12 L 125 13 L 125 14 L 126 14 L 127 15 L 126 16 L 125 16 L 125 18 L 124 19 L 123 18 L 123 13 " stroke="black" stroke-width="1" fill="none"/>
</svg>