<svg xmlns="http://www.w3.org/2000/svg" width="300" height="300" viewBox="0 0 300 300">
<path d="M 88 280 L 88 287 L 89 287 L 90 288 L 90 285 L 91 284 L 92 284 L 93 285 L 93 287 L 95 287 L 95 280 L 93 280 L 91 282 L 90 281 L 90 279 L 89 280 " stroke="black" stroke-width="1" fill="none"/>
<path d="M 94 280 L 95 281 L 95 286 L 94 287 L 93 286 L 93 284 L 92 283 L 92 282 " stroke="black" stroke-width="1" fill="none"/>
<path d="M 89 280 L 90 281 L 90 282 L 91 282 L 92 283 L 91 284 L 90 284 L 90 286 L 89 287 L 88 286 L 88 281 " stroke="black" stroke-width="1" fill="none"/>
<path d="M 101 278 L 99 278 L 98 279 L 98 281 L 100 281 L 101 280 " stroke="black" stroke-width="1" fill="none"/>
<path d="M 98 279 L 99 278 L 100 278 L 101 279 L 101 280 L 100 281 L 99 281 L 98 280 " stroke="black" stroke-width="1" fill="none"/>
<path d="M 108 272 L 106 274 L 106 275 L 108 277 L 109 276 L 109 273 " stroke="black" stroke-width="1" fill="none"/>
<path d="M 108 272 L 109 273 L 109 276 L 108 277 L 106 275 L 106 274 " stroke="black" stroke-width="1" fill="none"/>
<path d="M 110 270 L 109 270 L 112 273 L 112 276 L 109 279 L 106 279 L 104 277 L 104 273 L 106 271 L 105 271 L 104 272 L 104 277 L 106 279 L 110 279 L 112 277 L 112 272 " stroke="black" stroke-width="1" fill="none"/>
<path d="M 154 260 L 154 267 L 155 267 L 156 268 L 156 265 L 157 264 L 158 264 L 159 265 L 159 267 L 161 267 L 161 260 L 159 260 L 157 262 L 156 261 L 156 260 " stroke="black" stroke-width="1" fill="none"/>
<path d="M 160 260 L 161 261 L 161 266 L 160 267 L 159 266 L 159 264 L 158 263 L 158 262 " stroke="black" stroke-width="1" fill="none"/>
<path d="M 155 260 L 156 261 L 156 262 L 157 262 L 158 263 L 157 264 L 156 264 L 156 266 L 155 267 L 154 266 L 154 261 " stroke="black" stroke-width="1" fill="none"/>
<path d="M 53 260 L 53 267 L 54 267 L 55 268 L 55 265 L 56 264 L 57 264 L 58 265 L 58 267 L 60 267 L 60 260 L 58 260 L 56 262 L 55 261 L 55 260 " stroke="black" stroke-width="1" fill="none"/>
<path d="M 59 260 L 60 261 L 60 266 L 59 267 L 58 266 L 58 264 L 57 263 L 57 262 " stroke="black" stroke-width="1" fill="none"/>
<path d="M 54 260 L 55 261 L 55 262 L 56 262 L 57 263 L 56 264 L 55 264 L 55 266 L 54 267 L 53 266 L 53 261 " stroke="black" stroke-width="1" fill="none"/>
<path d="M 161 241 L 157 241 L 155 243 L 155 248 L 157 250 L 157 257 L 159 257 L 159 252 L 158 252 L 157 251 L 158 250 L 161 250 L 163 248 L 163 243 " stroke="black" stroke-width="1" fill="none"/>
<path d="M 158 252 L 159 253 L 159 256 L 158 257 L 157 256 L 157 253 " stroke="black" stroke-width="1" fill="none"/>
<path d="M 157 241 L 160 241 L 163 244 L 163 247 L 160 250 L 158 250 L 157 249 L 156 249 L 155 248 L 155 244 L 156 243 L 156 242 " stroke="black" stroke-width="1" fill="none"/>
<path d="M 159 243 L 157 245 L 157 246 L 159 248 L 160 247 L 160 244 " stroke="black" stroke-width="1" fill="none"/>
<path d="M 159 243 L 160 244 L 160 247 L 159 248 L 157 246 L 157 245 " stroke="black" stroke-width="1" fill="none"/>
<path d="M 60 241 L 56 241 L 54 243 L 54 248 L 56 250 L 56 257 L 58 257 L 58 252 L 57 252 L 56 251 L 57 250 L 60 250 L 62 248 L 62 243 " stroke="black" stroke-width="1" fill="none"/>
<path d="M 57 252 L 58 253 L 58 256 L 57 257 L 56 256 L 56 253 " stroke="black" stroke-width="1" fill="none"/>
<path d="M 56 241 L 59 241 L 62 244 L 62 247 L 59 250 L 57 250 L 56 249 L 55 249 L 54 248 L 54 244 L 55 243 L 55 242 " stroke="black" stroke-width="1" fill="none"/>
<path d="M 58 243 L 56 245 L 56 246 L 58 248 L 59 247 L 59 244 " stroke="black" stroke-width="1" fill="none"/>
<path d="M 58 243 L 59 244 L 59 247 L 58 248 L 56 246 L 56 245 " stroke="black" stroke-width="1" fill="none"/>
<path d="M 79 233 L 78 232 L 77 232 L 76 233 L 74 233 L 73 234 L 71 234 L 70 235 L 69 235 L 68 236 L 66 236 L 66 237 L 67 236 L 69 236 L 70 237 L 69 238 L 69 239 L 70 240 L 68 242 L 67 242 L 66 243 L 64 241 L 64 240 L 63 239 L 63 238 L 64 237 L 63 237 L 63 240 L 64 241 L 64 242 L 65 243 L 67 243 L 69 241 L 70 241 L 70 240 L 71 239 L 72 239 L 74 237 L 75 237 L 77 235 L 78 235 L 79 234 " stroke="black" stroke-width="1" fill="none"/>
<path d="M 77 232 L 78 233 L 78 234 L 77 235 L 76 235 L 74 237 L 73 236 L 74 237 L 73 238 L 72 238 L 70 240 L 69 239 L 69 238 L 70 237 L 69 236 L 70 235 L 71 235 L 72 234 L 73 234 L 74 233 L 76 233 " stroke="black" stroke-width="1" fill="none"/>
<path d="M 280 216 L 280 223 L 281 223 L 282 224 L 282 221 L 283 220 L 284 220 L 285 221 L 285 223 L 287 223 L 287 216 L 285 216 L 283 218 L 282 217 L 282 216 " stroke="black" stroke-width="1" fill="none"/>
<path d="M 286 216 L 287 217 L 287 222 L 286 223 L 285 222 L 285 220 L 284 219 L 284 218 " stroke="black" stroke-width="1" fill="none"/>
<path d="M 281 216 L 282 217 L 282 218 L 283 218 L 284 219 L 283 220 L 282 220 L 282 222 L 281 223 L 280 222 L 280 217 " stroke="black" stroke-width="1" fill="none"/>
<path d="M 287 197 L 283 197 L 281 199 L 281 204 L 283 206 L 283 213 L 285 213 L 285 208 L 284 208 L 283 207 L 284 206 L 287 206 L 289 204 L 289 199 " stroke="black" stroke-width="1" fill="none"/>
<path d="M 284 208 L 285 209 L 285 212 L 284 213 L 283 212 L 283 209 " stroke="black" stroke-width="1" fill="none"/>
<path d="M 283 197 L 286 197 L 289 200 L 289 203 L 286 206 L 284 206 L 283 205 L 282 205 L 281 204 L 281 200 L 282 199 L 282 198 " stroke="black" stroke-width="1" fill="none"/>
<path d="M 285 199 L 283 201 L 283 202 L 285 204 L 286 203 L 286 200 " stroke="black" stroke-width="1" fill="none"/>
<path d="M 285 199 L 286 200 L 286 203 L 285 204 L 283 202 L 283 201 " stroke="black" stroke-width="1" fill="none"/>
<path d="M 31 197 L 29 199 L 29 204 L 31 206 L 35 206 L 37 204 L 37 199 L 35 197 " stroke="black" stroke-width="1" fill="none"/>
<path d="M 31 197 L 34 197 L 37 200 L 37 203 L 34 206 L 31 206 L 29 204 L 29 200 L 30 199 L 30 198 " stroke="black" stroke-width="1" fill="none"/>
<path d="M 33 199 L 31 201 L 31 202 L 33 204 L 34 203 L 34 200 " stroke="black" stroke-width="1" fill="none"/>
<path d="M 33 199 L 34 200 L 34 203 L 33 204 L 31 202 L 31 201 " stroke="black" stroke-width="1" fill="none"/>
<path d="M 24 196 L 23 197 L 23 199 L 26 199 L 26 197 L 25 197 " stroke="black" stroke-width="1" fill="none"/>
<path d="M 23 197 L 24 196 L 26 198 L 25 199 L 24 199 L 23 198 " stroke="black" stroke-width="1" fill="none"/>
<path d="M 252 190 L 251 191 L 250 191 L 249 192 L 250 191 L 251 191 " stroke="black" stroke-width="1" fill="none"/>
<path d="M 248 190 L 247 191 L 246 191 L 245 192 L 244 192 L 243 193 L 242 193 L 240 195 L 239 195 L 238 196 L 237 196 L 236 197 L 235 197 L 236 197 L 237 196 L 238 196 L 239 195 L 240 195 L 242 193 L 243 193 L 244 192 L 245 192 L 246 191 L 247 191 " stroke="black" stroke-width="1" fill="none"/>
<path d="M 153 240 L 152 238 L 153 240 L 149 243 L 149 237 L 150 239 L 148 242 L 146 239 L 147 236 L 143 236 L 134 230 L 134 203 L 139 199 L 152 194 L 150 189 L 147 189 L 132 200 L 115 191 L 132 201 L 130 202 L 114 193 L 132 204 L 132 229 L 108 244 L 83 229 L 83 204 L 101 193 L 83 203 L 57 190 L 54 190 L 40 198 L 56 190 L 81 204 L 81 232 L 106 247 L 103 265 L 104 268 L 109 268 L 108 247 L 124 237 L 133 233 L 144 240 L 146 239 L 150 244 " stroke="black" stroke-width="1" fill="none"/>
<path d="M 107 244 L 109 246 L 108 247 L 108 256 L 109 257 L 109 267 L 108 268 L 105 268 L 103 266 L 103 265 L 104 264 L 104 257 L 105 256 L 105 248 L 106 247 L 105 246 " stroke="black" stroke-width="1" fill="none"/>
<path d="M 141 236 L 142 235 L 143 236 L 144 235 L 145 236 L 146 236 L 147 237 L 146 238 L 146 239 L 145 240 L 144 239 L 143 239 L 141 237 " stroke="black" stroke-width="1" fill="none"/>
<path d="M 137 234 L 138 233 L 139 234 L 140 234 L 141 235 L 141 236 L 140 237 L 139 236 L 138 236 L 137 235 " stroke="black" stroke-width="1" fill="none"/>
<path d="M 82 203 L 83 204 L 83 230 L 84 231 L 85 231 L 86 232 L 87 232 L 88 233 L 89 233 L 91 235 L 92 235 L 93 236 L 94 236 L 95 237 L 96 237 L 98 239 L 99 239 L 101 241 L 102 241 L 104 243 L 105 243 L 106 244 L 106 245 L 105 246 L 104 245 L 103 245 L 101 243 L 100 243 L 98 241 L 97 241 L 95 239 L 94 239 L 93 238 L 92 238 L 91 237 L 90 237 L 89 236 L 88 236 L 86 234 L 85 234 L 84 233 L 83 233 L 81 231 L 81 204 " stroke="black" stroke-width="1" fill="none"/>
<path d="M 140 195 L 142 197 L 141 198 L 140 198 L 139 199 L 138 199 L 136 201 L 135 201 L 134 202 L 134 231 L 135 231 L 137 233 L 137 234 L 136 235 L 134 233 L 131 233 L 130 234 L 129 234 L 127 236 L 126 236 L 125 237 L 124 237 L 123 238 L 122 238 L 121 239 L 120 239 L 118 241 L 117 241 L 116 242 L 115 242 L 113 244 L 112 244 L 109 246 L 108 245 L 108 244 L 109 243 L 110 243 L 111 242 L 112 242 L 114 240 L 115 240 L 116 239 L 117 239 L 119 237 L 120 237 L 121 236 L 122 236 L 123 235 L 124 235 L 126 233 L 127 233 L 128 232 L 129 232 L 132 230 L 132 203 L 131 202 L 134 199 L 135 199 L 137 197 L 138 197 " stroke="black" stroke-width="1" fill="none"/>
<path d="M 152 192 L 152 193 L 151 194 L 150 194 L 149 195 L 148 195 L 147 196 L 145 196 L 144 197 L 142 197 L 140 195 L 142 193 L 143 193 L 145 191 L 146 191 L 148 189 L 149 189 " stroke="black" stroke-width="1" fill="none"/>
<path d="M 12 189 L 12 196 L 13 196 L 14 197 L 14 194 L 15 193 L 16 193 L 17 194 L 17 196 L 19 196 L 19 189 L 17 189 L 15 191 L 14 190 L 14 188 L 13 189 " stroke="black" stroke-width="1" fill="none"/>
<path d="M 18 189 L 19 190 L 19 195 L 18 196 L 17 195 L 17 193 L 16 192 L 16 191 " stroke="black" stroke-width="1" fill="none"/>
<path d="M 13 189 L 14 190 L 14 191 L 15 191 L 16 192 L 15 193 L 14 193 L 14 195 L 13 196 L 12 195 L 12 190 " stroke="black" stroke-width="1" fill="none"/>
<path d="M 253 187 L 252 188 L 251 188 L 250 189 L 251 188 L 252 188 " stroke="black" stroke-width="1" fill="none"/>
<path d="M 253 185 L 251 185 L 249 187 L 248 187 L 247 188 L 246 188 L 245 189 L 244 189 L 243 190 L 242 190 L 240 192 L 239 192 L 238 193 L 237 193 L 236 194 L 235 194 L 234 195 L 235 195 L 236 194 L 237 194 L 239 192 L 240 192 L 241 191 L 242 191 L 243 190 L 244 190 L 245 189 L 246 189 L 247 188 L 248 188 L 250 186 L 251 186 L 252 185 " stroke="black" stroke-width="1" fill="none"/>
<path d="M 39 196 L 40 196 L 41 195 L 42 195 L 43 194 L 44 194 L 46 192 L 47 192 L 48 191 L 49 191 L 51 189 L 52 189 L 53 188 L 55 188 L 58 185 L 59 186 L 60 186 L 62 188 L 63 188 L 66 191 L 67 191 L 69 193 L 70 193 L 72 195 L 73 195 L 75 197 L 76 197 L 77 198 L 78 198 L 80 200 L 81 200 L 82 201 L 83 200 L 84 200 L 85 199 L 86 199 L 88 197 L 89 197 L 90 196 L 91 196 L 92 195 L 93 195 L 94 194 L 95 194 L 97 192 L 98 192 L 99 191 L 100 191 L 98 191 L 96 193 L 95 193 L 94 194 L 93 194 L 91 196 L 90 196 L 89 197 L 88 197 L 87 198 L 86 198 L 85 199 L 84 199 L 82 201 L 80 199 L 79 199 L 77 197 L 76 197 L 74 195 L 73 195 L 71 193 L 70 193 L 68 191 L 67 191 L 64 188 L 63 188 L 61 186 L 60 186 L 59 185 L 57 185 L 54 188 L 52 188 L 50 190 L 49 190 L 48 191 L 47 191 L 45 193 L 44 193 L 42 195 L 40 195 " stroke="black" stroke-width="1" fill="none"/>
<path d="M 106 182 L 104 184 L 104 189 L 106 191 L 110 191 L 112 189 L 112 184 L 110 182 " stroke="black" stroke-width="1" fill="none"/>
<path d="M 106 182 L 109 182 L 112 185 L 112 188 L 109 191 L 106 191 L 104 189 L 104 185 L 105 184 L 105 183 " stroke="black" stroke-width="1" fill="none"/>
<path d="M 108 184 L 106 186 L 106 187 L 108 189 L 109 188 L 109 185 " stroke="black" stroke-width="1" fill="none"/>
<path d="M 108 184 L 109 185 L 109 188 L 108 189 L 106 187 L 106 186 " stroke="black" stroke-width="1" fill="none"/>
<path d="M 211 162 L 211 184 L 213 184 L 213 162 " stroke="black" stroke-width="1" fill="none"/>
<path d="M 212 162 L 213 163 L 213 183 L 212 184 L 211 183 L 211 163 " stroke="black" stroke-width="1" fill="none"/>
<path d="M 163 154 " stroke="black" stroke-width="1" fill="none"/>
<path d="M 165 153 " stroke="black" stroke-width="1" fill="none"/>
<path d="M 106 153 L 104 155 L 104 160 L 106 162 L 110 162 L 112 160 L 112 155 L 110 153 " stroke="black" stroke-width="1" fill="none"/>
<path d="M 106 153 L 109 153 L 112 156 L 112 159 L 109 162 L 106 162 L 104 160 L 104 156 L 105 155 L 105 154 " stroke="black" stroke-width="1" fill="none"/>
<path d="M 108 155 L 106 157 L 106 158 L 108 160 L 109 159 L 109 156 " stroke="black" stroke-width="1" fill="none"/>
<path d="M 108 155 L 109 156 L 109 159 L 108 160 L 106 158 L 106 157 " stroke="black" stroke-width="1" fill="none"/>
<path d="M 240 151 L 241 152 L 242 152 L 244 154 L 245 154 L 246 155 L 247 155 L 248 156 L 249 156 L 251 158 L 252 158 L 253 159 L 254 159 L 253 159 L 252 158 L 251 158 L 249 156 L 248 156 L 247 155 L 246 155 L 245 154 L 244 154 L 242 152 L 241 152 " stroke="black" stroke-width="1" fill="none"/>
<path d="M 168 151 " stroke="black" stroke-width="1" fill="none"/>
<path d="M 165 151 " stroke="black" stroke-width="1" fill="none"/>
<path d="M 170 150 " stroke="black" stroke-width="1" fill="none"/>
<path d="M 168 149 " stroke="black" stroke-width="1" fill="none"/>
<path d="M 239 148 L 240 149 L 241 149 L 242 150 L 241 149 L 240 149 " stroke="black" stroke-width="1" fill="none"/>
<path d="M 235 148 L 236 149 L 235 150 L 234 150 L 235 151 L 236 151 L 238 153 L 239 153 L 241 155 L 242 155 L 244 157 L 245 157 L 246 158 L 247 158 L 248 159 L 249 159 L 251 161 L 253 161 L 252 161 L 251 160 L 250 160 L 249 159 L 248 159 L 246 157 L 245 157 L 244 156 L 243 156 L 241 154 L 240 154 L 238 152 L 237 152 L 235 150 L 236 149 L 237 149 L 238 150 L 237 149 L 236 149 " stroke="black" stroke-width="1" fill="none"/>
<path d="M 127 148 L 126 149 L 125 149 L 124 150 L 125 149 L 126 149 " stroke="black" stroke-width="1" fill="none"/>
<path d="M 123 148 L 122 149 L 121 149 L 120 150 L 119 150 L 118 151 L 119 150 L 120 150 L 121 149 L 122 149 " stroke="black" stroke-width="1" fill="none"/>
<path d="M 175 147 L 174 148 L 173 148 L 172 149 L 173 148 L 174 148 " stroke="black" stroke-width="1" fill="none"/>
<path d="M 171 147 L 170 148 " stroke="black" stroke-width="1" fill="none"/>
<path d="M 129 147 " stroke="black" stroke-width="1" fill="none"/>
<path d="M 125 147 " stroke="black" stroke-width="1" fill="none"/>
<path d="M 115 157 L 134 146 L 157 160 L 157 182 L 155 189 L 161 191 L 163 184 L 157 181 L 159 180 L 159 160 L 183 145 L 207 160 L 207 188 L 221 197 L 235 203 L 259 188 L 277 199 L 259 188 L 234 203 L 207 187 L 208 159 L 209 186 L 232 200 L 236 200 L 247 193 L 233 200 L 209 185 L 209 160 L 225 150 L 236 146 L 232 146 L 209 159 L 183 145 L 159 159 L 134 146 " stroke="black" stroke-width="1" fill="none"/>
<path d="M 158 182 L 160 182 L 163 185 L 163 188 L 160 191 L 157 191 L 155 189 L 155 185 " stroke="black" stroke-width="1" fill="none"/>
<path d="M 159 184 L 157 186 L 157 187 L 159 189 L 160 188 L 160 185 " stroke="black" stroke-width="1" fill="none"/>
<path d="M 159 184 L 160 185 L 160 188 L 159 189 L 157 187 L 157 186 " stroke="black" stroke-width="1" fill="none"/>
<path d="M 158 174 L 159 175 L 159 179 L 158 180 L 157 179 L 157 175 " stroke="black" stroke-width="1" fill="none"/>
<path d="M 158 159 L 159 160 L 159 173 L 158 174 L 157 173 L 157 160 " stroke="black" stroke-width="1" fill="none"/>
<path d="M 178 143 L 177 143 L 175 145 L 174 145 L 173 146 L 174 145 L 175 145 L 177 143 " stroke="black" stroke-width="1" fill="none"/>
<path d="M 180 112 L 180 117 L 182 119 L 182 142 L 177 146 L 184 143 L 208 157 L 234 143 L 260 158 L 260 185 L 259 186 L 258 185 L 258 159 L 244 151 L 258 160 L 258 185 L 254 189 L 260 186 L 271 194 L 278 197 L 273 195 L 260 185 L 260 157 L 235 143 L 219 150 L 208 157 L 203 153 L 187 145 L 184 142 L 184 121 L 182 120 L 188 117 L 188 112 L 186 110 L 182 110 " stroke="black" stroke-width="1" fill="none"/>
<path d="M 183 128 L 184 129 L 184 142 L 183 143 L 182 142 L 182 129 " stroke="black" stroke-width="1" fill="none"/>
<path d="M 183 121 L 184 122 L 184 127 L 183 128 L 182 127 L 182 122 " stroke="black" stroke-width="1" fill="none"/>
<path d="M 182 110 L 185 110 L 188 113 L 188 116 L 185 119 L 183 119 L 182 118 L 181 118 L 180 117 L 180 113 L 181 112 L 181 111 " stroke="black" stroke-width="1" fill="none"/>
<path d="M 184 112 L 182 114 L 182 115 L 184 117 L 185 116 L 185 113 " stroke="black" stroke-width="1" fill="none"/>
<path d="M 184 112 L 185 113 L 185 116 L 184 117 L 182 115 L 182 114 " stroke="black" stroke-width="1" fill="none"/>
<path d="M 80 110 L 78 112 L 78 117 L 80 119 L 84 119 L 86 117 L 86 112 L 84 110 " stroke="black" stroke-width="1" fill="none"/>
<path d="M 80 110 L 83 110 L 86 113 L 86 116 L 83 119 L 80 119 L 78 117 L 78 113 L 79 112 L 79 111 " stroke="black" stroke-width="1" fill="none"/>
<path d="M 82 112 L 80 114 L 80 115 L 82 117 L 83 116 L 83 113 " stroke="black" stroke-width="1" fill="none"/>
<path d="M 82 112 L 83 113 L 83 116 L 82 117 L 80 115 L 80 114 " stroke="black" stroke-width="1" fill="none"/>
<path d="M 71 109 L 72 110 L 71 111 L 72 111 L 73 112 L 75 112 L 75 110 L 74 109 " stroke="black" stroke-width="1" fill="none"/>
<path d="M 72 110 L 73 109 L 75 111 L 74 112 L 73 112 L 72 111 " stroke="black" stroke-width="1" fill="none"/>
<path d="M 121 107 " stroke="black" stroke-width="1" fill="none"/>
<path d="M 123 106 L 124 107 L 123 108 L 124 109 L 125 109 L 126 110 L 125 109 L 124 109 L 123 108 L 124 107 L 125 107 L 124 107 " stroke="black" stroke-width="1" fill="none"/>
<path d="M 119 106 " stroke="black" stroke-width="1" fill="none"/>
<path d="M 121 105 " stroke="black" stroke-width="1" fill="none"/>
<path d="M 117 105 " stroke="black" stroke-width="1" fill="none"/>
<path d="M 119 104 " stroke="black" stroke-width="1" fill="none"/>
<path d="M 117 103 " stroke="black" stroke-width="1" fill="none"/>
<path d="M 114 103 L 115 104 " stroke="black" stroke-width="1" fill="none"/>
<path d="M 112 102 " stroke="black" stroke-width="1" fill="none"/>
<path d="M 114 101 " stroke="black" stroke-width="1" fill="none"/>
<path d="M 89 111 L 106 101 L 132 117 L 132 140 L 114 151 L 116 152 L 116 154 L 114 155 L 122 151 L 116 154 L 115 151 L 118 148 L 129 142 L 132 143 L 127 146 L 130 144 L 132 145 L 131 146 L 133 116 L 134 144 L 158 157 L 161 155 L 161 151 L 178 141 L 174 142 L 160 151 L 160 155 L 158 157 L 134 143 L 134 117 L 138 113 L 158 101 L 173 111 L 177 112 L 158 101 L 134 116 L 106 101 " stroke="black" stroke-width="1" fill="none"/>
<path d="M 61 102 L 61 109 L 62 109 L 63 110 L 63 107 L 64 106 L 65 106 L 66 107 L 66 109 L 68 109 L 68 102 L 66 102 L 64 104 L 63 103 L 63 101 L 62 102 " stroke="black" stroke-width="1" fill="none"/>
<path d="M 67 102 L 68 103 L 68 108 L 67 109 L 66 108 L 66 106 L 65 105 L 65 104 " stroke="black" stroke-width="1" fill="none"/>
<path d="M 62 102 L 63 103 L 63 104 L 64 104 L 65 105 L 64 106 L 63 106 L 63 108 L 62 109 L 61 108 L 61 103 " stroke="black" stroke-width="1" fill="none"/>
<path d="M 112 100 " stroke="black" stroke-width="1" fill="none"/>
<path d="M 112 98 L 113 98 L 114 99 L 115 99 L 117 101 L 118 101 L 119 102 L 120 102 L 121 103 L 122 103 L 123 104 L 124 104 L 125 105 L 126 105 L 127 106 L 128 106 L 129 107 L 130 107 L 131 108 L 132 108 L 131 107 L 130 107 L 129 106 L 128 106 L 127 105 L 126 105 L 125 104 L 124 104 L 123 103 L 122 103 L 121 102 L 120 102 L 119 101 L 118 101 L 117 100 L 116 100 L 114 98 " stroke="black" stroke-width="1" fill="none"/>
<path d="M 153 73 L 153 96 L 155 96 L 155 73 " stroke="black" stroke-width="1" fill="none"/>
<path d="M 154 73 L 155 74 L 155 95 L 154 96 L 153 95 L 153 74 " stroke="black" stroke-width="1" fill="none"/>
<path d="M 116 67 L 115 68 L 114 68 L 112 70 L 111 70 L 112 70 L 114 68 L 115 68 " stroke="black" stroke-width="1" fill="none"/>
<path d="M 119 65 L 118 66 " stroke="black" stroke-width="1" fill="none"/>
<path d="M 121 64 " stroke="black" stroke-width="1" fill="none"/>
<path d="M 117 64 L 116 65 L 115 65 L 114 66 L 115 65 L 116 65 " stroke="black" stroke-width="1" fill="none"/>
<path d="M 119 63 " stroke="black" stroke-width="1" fill="none"/>
<path d="M 124 62 L 123 63 " stroke="black" stroke-width="1" fill="none"/>
<path d="M 121 62 " stroke="black" stroke-width="1" fill="none"/>
<path d="M 131 61 L 130 61 L 129 62 L 128 62 L 127 63 L 126 63 L 124 65 L 123 65 L 122 66 L 121 66 L 119 68 L 118 68 L 116 70 L 115 70 L 113 72 L 111 72 L 113 72 L 114 71 L 115 71 L 117 69 L 118 69 L 120 67 L 121 67 L 122 66 L 123 66 L 125 64 L 126 64 L 127 63 L 128 63 L 129 62 L 130 62 " stroke="black" stroke-width="1" fill="none"/>
<path d="M 126 61 " stroke="black" stroke-width="1" fill="none"/>
<path d="M 124 60 " stroke="black" stroke-width="1" fill="none"/>
<path d="M 131 20 L 129 22 L 131 29 L 131 52 L 105 68 L 105 98 L 88 109 L 105 99 L 110 101 L 107 98 L 107 71 L 112 67 L 107 70 L 106 99 L 105 69 L 133 53 L 159 70 L 159 98 L 157 98 L 157 71 L 132 55 L 126 59 L 130 59 L 128 58 L 132 55 L 157 72 L 157 98 L 133 114 L 127 108 L 130 110 L 128 111 L 133 114 L 157 99 L 177 110 L 159 98 L 159 69 L 133 52 L 133 31 L 131 30 L 137 27 L 137 22 " stroke="black" stroke-width="1" fill="none"/>
<path d="M 132 39 L 133 40 L 133 52 L 132 53 L 131 52 L 131 40 " stroke="black" stroke-width="1" fill="none"/>
<path d="M 132 31 L 133 32 L 133 38 L 132 39 L 131 38 L 131 32 " stroke="black" stroke-width="1" fill="none"/>
<path d="M 131 20 L 134 20 L 137 23 L 137 26 L 134 29 L 132 29 L 131 28 L 130 28 L 129 27 L 129 23 L 130 22 L 130 21 " stroke="black" stroke-width="1" fill="none"/>
<path d="M 133 22 L 131 24 L 131 25 L 133 27 L 134 26 L 134 23 " stroke="black" stroke-width="1" fill="none"/>
<path d="M 133 22 L 134 23 L 134 26 L 133 27 L 131 25 L 131 24 " stroke="black" stroke-width="1" fill="none"/>
<path d="M 123 20 L 123 22 L 126 22 L 126 20 " stroke="black" stroke-width="1" fill="none"/>
<path d="M 123 21 L 124 20 L 125 20 L 126 21 L 125 22 L 124 22 " stroke="black" stroke-width="1" fill="none"/>
<path d="M 113 12 L 113 19 L 114 19 L 115 20 L 115 17 L 116 16 L 117 16 L 118 17 L 118 19 L 120 19 L 120 12 L 118 12 L 116 14 L 115 13 L 115 11 L 114 12 " stroke="black" stroke-width="1" fill="none"/>
<path d="M 119 12 L 120 13 L 120 18 L 119 19 L 118 18 L 118 16 L 117 15 L 117 14 " stroke="black" stroke-width="1" fill="none"/>
<path d="M 114 12 L 115 13 L 115 14 L 116 14 L 117 15 L 116 16 L 115 16 L 115 18 L 114 19 L 113 18 L 113 13 " stroke="black" stroke-width="1" fill="none"/>
</svg>