<svg xmlns="http://www.w3.org/2000/svg" width="300" height="300" viewBox="0 0 300 300">
<path d="M 208 259 L 207 260 L 207 261 L 206 262 L 206 267 L 207 268 L 207 269 L 208 270 L 213 270 L 215 268 L 215 261 L 213 259 " stroke="black" stroke-width="1" fill="none"/>
<path d="M 209 259 L 212 259 L 215 262 L 215 267 L 212 270 L 209 270 L 207 268 L 207 267 L 206 266 L 206 263 L 207 262 L 207 261 " stroke="black" stroke-width="1" fill="none"/>
<path d="M 210 261 L 209 262 L 209 263 L 208 264 L 208 265 L 209 266 L 209 267 L 210 268 L 211 267 L 212 267 L 213 266 L 213 263 L 212 262 L 211 262 " stroke="black" stroke-width="1" fill="none"/>
<path d="M 210 262 L 212 262 L 213 263 L 213 266 L 212 267 L 210 267 L 208 265 L 208 264 " stroke="black" stroke-width="1" fill="none"/>
<path d="M 133 233 L 132 234 L 131 233 L 131 236 L 130 237 L 129 237 L 128 236 L 128 234 L 125 234 L 125 243 L 128 243 L 128 240 L 129 239 L 130 239 L 131 240 L 131 244 L 132 243 L 133 244 " stroke="black" stroke-width="1" fill="none"/>
<path d="M 128 238 L 129 237 L 130 237 L 131 238 L 130 239 L 129 239 " stroke="black" stroke-width="1" fill="none"/>
<path d="M 132 234 L 133 235 L 133 242 L 132 243 L 131 242 L 131 240 L 130 239 L 131 238 L 130 237 L 131 236 L 131 235 " stroke="black" stroke-width="1" fill="none"/>
<path d="M 126 234 L 127 234 L 128 235 L 128 242 L 127 243 L 126 243 L 125 242 L 125 235 " stroke="black" stroke-width="1" fill="none"/>
<path d="M 246 222 L 245 223 L 245 224 L 244 225 L 244 230 L 245 231 L 245 232 L 246 233 L 251 233 L 253 231 L 253 224 L 251 222 " stroke="black" stroke-width="1" fill="none"/>
<path d="M 247 222 L 250 222 L 253 225 L 253 230 L 250 233 L 247 233 L 245 231 L 245 230 L 244 229 L 244 226 L 245 225 L 245 224 " stroke="black" stroke-width="1" fill="none"/>
<path d="M 248 224 L 247 225 L 247 226 L 246 227 L 246 228 L 247 229 L 247 230 L 248 231 L 249 230 L 250 230 L 251 229 L 251 226 L 250 225 L 249 225 " stroke="black" stroke-width="1" fill="none"/>
<path d="M 248 225 L 250 225 L 251 226 L 251 229 L 250 230 L 248 230 L 246 228 L 246 227 " stroke="black" stroke-width="1" fill="none"/>
<path d="M 141 220 L 140 221 L 140 222 L 139 223 L 139 228 L 140 229 L 140 230 L 141 231 L 146 231 L 148 229 L 148 222 L 146 220 " stroke="black" stroke-width="1" fill="none"/>
<path d="M 142 220 L 145 220 L 148 223 L 148 228 L 145 231 L 142 231 L 140 229 L 140 228 L 139 227 L 139 224 L 140 223 L 140 222 " stroke="black" stroke-width="1" fill="none"/>
<path d="M 143 222 L 142 223 L 142 224 L 141 225 L 141 226 L 142 227 L 142 228 L 143 229 L 144 228 L 145 228 L 146 227 L 146 224 L 145 223 L 144 223 " stroke="black" stroke-width="1" fill="none"/>
<path d="M 143 223 L 145 223 L 146 224 L 146 227 L 145 228 L 143 228 L 141 226 L 141 225 " stroke="black" stroke-width="1" fill="none"/>
<path d="M 216 174 L 215 175 L 214 174 L 214 177 L 213 178 L 212 178 L 211 177 L 211 175 L 208 175 L 208 184 L 211 184 L 211 181 L 212 180 L 213 180 L 214 181 L 214 185 L 215 184 L 216 185 " stroke="black" stroke-width="1" fill="none"/>
<path d="M 211 179 L 212 178 L 213 178 L 214 179 L 213 180 L 212 180 " stroke="black" stroke-width="1" fill="none"/>
<path d="M 215 175 L 216 176 L 216 183 L 215 184 L 214 183 L 214 181 L 213 180 L 214 179 L 213 178 L 214 177 L 214 176 " stroke="black" stroke-width="1" fill="none"/>
<path d="M 209 175 L 210 175 L 211 176 L 211 183 L 210 184 L 209 184 L 208 183 L 208 176 " stroke="black" stroke-width="1" fill="none"/>
<path d="M 223 145 " stroke="black" stroke-width="1" fill="none"/>
<path d="M 218 142 L 219 143 L 220 143 L 221 144 L 220 143 L 219 143 " stroke="black" stroke-width="1" fill="none"/>
<path d="M 220 141 " stroke="black" stroke-width="1" fill="none"/>
<path d="M 216 141 " stroke="black" stroke-width="1" fill="none"/>
<path d="M 215 138 L 216 139 L 217 139 L 218 140 L 217 139 L 216 139 " stroke="black" stroke-width="1" fill="none"/>
<path d="M 210 135 L 211 136 L 212 136 L 213 137 L 212 136 L 211 136 " stroke="black" stroke-width="1" fill="none"/>
<path d="M 206 135 L 207 136 L 208 136 L 210 138 L 211 138 L 212 139 L 213 139 L 214 140 L 213 139 L 212 139 L 211 138 L 210 138 L 208 136 L 207 136 " stroke="black" stroke-width="1" fill="none"/>
<path d="M 203 133 L 204 134 " stroke="black" stroke-width="1" fill="none"/>
<path d="M 205 132 L 206 133 L 207 133 L 208 134 L 207 133 L 206 133 " stroke="black" stroke-width="1" fill="none"/>
<path d="M 200 129 L 200 131 L 201 132 L 200 131 L 201 130 L 202 130 L 203 131 L 202 130 L 201 130 " stroke="black" stroke-width="1" fill="none"/>
<path d="M 54 86 L 53 87 L 52 86 L 52 89 L 51 90 L 50 90 L 49 89 L 49 87 L 46 87 L 46 96 L 49 96 L 49 93 L 50 92 L 51 92 L 52 93 L 52 97 L 53 96 L 54 97 " stroke="black" stroke-width="1" fill="none"/>
<path d="M 49 91 L 50 90 L 51 90 L 52 91 L 51 92 L 50 92 " stroke="black" stroke-width="1" fill="none"/>
<path d="M 53 87 L 54 88 L 54 95 L 53 96 L 52 95 L 52 93 L 51 92 L 52 91 L 51 90 L 52 89 L 52 88 " stroke="black" stroke-width="1" fill="none"/>
<path d="M 47 87 L 48 87 L 49 88 L 49 95 L 48 96 L 47 96 L 46 95 L 46 88 " stroke="black" stroke-width="1" fill="none"/>
<path d="M 143 84 L 143 85 L 144 84 L 145 84 L 146 85 L 146 86 L 146 84 " stroke="black" stroke-width="1" fill="none"/>
<path d="M 64 77 L 63 78 L 63 79 L 62 80 L 62 85 L 63 86 L 63 87 L 64 88 L 69 88 L 71 86 L 71 79 L 69 77 " stroke="black" stroke-width="1" fill="none"/>
<path d="M 65 77 L 68 77 L 71 80 L 71 85 L 68 88 L 65 88 L 63 86 L 63 85 L 62 84 L 62 81 L 63 80 L 63 79 " stroke="black" stroke-width="1" fill="none"/>
<path d="M 66 79 L 65 80 L 65 81 L 64 82 L 64 83 L 65 84 L 65 85 L 66 86 L 67 85 L 68 85 L 69 84 L 69 81 L 68 80 L 67 80 " stroke="black" stroke-width="1" fill="none"/>
<path d="M 66 80 L 68 80 L 69 81 L 69 84 L 68 85 L 66 85 L 64 83 L 64 82 " stroke="black" stroke-width="1" fill="none"/>
<path d="M 148 66 L 147 67 L 146 66 L 146 69 L 145 70 L 144 70 L 143 69 L 143 67 L 140 67 L 140 76 L 143 76 L 143 73 L 144 72 L 145 72 L 146 73 L 146 77 L 147 76 L 148 77 L 148 78 L 147 79 L 142 79 L 142 82 L 144 82 L 145 81 L 146 82 L 147 81 L 145 81 L 144 82 L 143 82 L 142 81 L 142 80 L 143 79 L 147 79 L 148 78 " stroke="black" stroke-width="1" fill="none"/>
<path d="M 143 71 L 144 70 L 145 70 L 146 71 L 145 72 L 144 72 " stroke="black" stroke-width="1" fill="none"/>
<path d="M 147 67 L 148 68 L 148 75 L 147 76 L 146 75 L 146 73 L 145 72 L 146 71 L 145 70 L 146 69 L 146 68 " stroke="black" stroke-width="1" fill="none"/>
<path d="M 141 67 L 142 67 L 143 68 L 143 75 L 142 76 L 141 76 L 140 75 L 140 68 " stroke="black" stroke-width="1" fill="none"/>
<path d="M 114 37 L 103 59 L 117 83 L 94 97 L 78 86 L 74 92 L 92 100 L 92 130 L 114 143 L 142 132 L 141 156 L 147 158 L 146 130 L 170 146 L 167 172 L 194 190 L 193 220 L 172 236 L 152 232 L 172 240 L 181 267 L 203 267 L 181 263 L 178 234 L 197 222 L 219 239 L 215 258 L 222 240 L 241 235 L 229 234 L 241 228 L 218 235 L 199 220 L 205 184 L 196 188 L 175 175 L 196 189 L 195 221 L 174 237 L 182 265 L 196 267 L 181 267 L 172 239 L 152 231 L 172 236 L 193 220 L 194 190 L 171 176 L 172 146 L 197 132 L 224 147 L 198 132 L 172 144 L 198 128 L 198 99 L 173 85 L 146 100 L 119 85 L 94 100 L 94 128 L 118 142 L 141 132 L 119 145 L 92 129 L 92 99 L 74 90 L 94 97 L 118 81 L 146 97 L 172 82 L 200 98 L 200 127 L 226 142 L 200 126 L 200 97 L 170 82 L 146 97 L 145 88 L 142 96 L 120 83 L 133 57 L 117 82 L 103 58 L 115 38 L 106 60 L 117 79 L 106 59 " stroke="black" stroke-width="1" fill="none"/>
<path d="M 197 266 L 198 265 L 202 265 L 203 266 L 202 267 L 198 267 " stroke="black" stroke-width="1" fill="none"/>
<path d="M 226 237 L 227 238 L 226 239 L 224 239 L 223 240 L 221 240 L 220 241 L 220 243 L 219 244 L 219 247 L 218 248 L 218 250 L 217 251 L 217 253 L 216 254 L 216 256 L 215 257 L 214 257 L 213 256 L 214 255 L 214 253 L 215 252 L 215 250 L 216 249 L 216 246 L 217 245 L 217 243 L 218 242 L 218 240 L 220 238 L 222 238 L 221 237 L 222 236 L 223 236 L 224 237 " stroke="black" stroke-width="1" fill="none"/>
<path d="M 226 237 L 227 236 L 229 236 L 230 235 L 233 235 L 234 236 L 233 237 L 231 237 L 230 238 L 227 238 " stroke="black" stroke-width="1" fill="none"/>
<path d="M 233 235 L 234 234 L 236 234 L 237 233 L 239 233 L 240 234 L 238 236 L 234 236 " stroke="black" stroke-width="1" fill="none"/>
<path d="M 230 233 L 229 234 L 228 234 L 229 234 L 230 235 L 229 236 L 227 236 L 226 235 L 225 235 L 226 235 L 227 236 L 226 237 L 224 237 L 223 236 L 222 236 L 221 235 L 222 234 L 223 234 L 224 233 L 226 233 L 227 232 L 229 232 " stroke="black" stroke-width="1" fill="none"/>
<path d="M 240 229 L 238 231 L 236 231 L 235 232 L 233 232 L 232 233 L 230 233 L 229 232 L 230 231 L 231 231 L 232 230 L 234 230 L 235 229 L 237 229 L 238 228 L 239 228 " stroke="black" stroke-width="1" fill="none"/>
<path d="M 196 212 L 197 213 L 197 218 L 196 219 L 195 218 L 195 213 " stroke="black" stroke-width="1" fill="none"/>
<path d="M 197 191 L 198 192 L 198 212 L 197 213 L 196 212 L 196 192 " stroke="black" stroke-width="1" fill="none"/>
<path d="M 196 189 L 197 188 L 198 189 L 198 190 L 197 191 L 196 190 " stroke="black" stroke-width="1" fill="none"/>
<path d="M 204 184 L 205 185 L 205 186 L 203 188 L 202 188 L 200 190 L 200 215 L 199 216 L 199 221 L 200 222 L 201 222 L 204 225 L 205 225 L 208 228 L 209 228 L 212 231 L 213 231 L 216 234 L 217 234 L 218 235 L 221 235 L 222 236 L 219 239 L 218 238 L 218 237 L 217 237 L 216 236 L 215 236 L 212 233 L 211 233 L 208 230 L 207 230 L 204 227 L 203 227 L 200 224 L 199 224 L 197 222 L 197 221 L 196 222 L 195 221 L 195 220 L 196 219 L 197 219 L 197 213 L 198 212 L 198 189 L 201 186 L 202 186 " stroke="black" stroke-width="1" fill="none"/>
<path d="M 171 146 L 172 147 L 172 157 L 173 158 L 173 173 L 171 175 L 170 175 L 167 172 L 168 171 L 168 162 L 169 161 L 169 151 L 170 150 L 170 147 " stroke="black" stroke-width="1" fill="none"/>
<path d="M 169 145 L 171 143 L 173 145 L 172 146 L 170 146 " stroke="black" stroke-width="1" fill="none"/>
<path d="M 147 131 L 148 130 L 149 130 L 150 131 L 151 131 L 153 133 L 154 133 L 155 134 L 156 134 L 158 136 L 159 136 L 161 138 L 162 138 L 163 139 L 164 139 L 166 141 L 167 141 L 168 142 L 169 142 L 170 143 L 170 144 L 169 145 L 168 144 L 167 144 L 166 143 L 165 143 L 163 141 L 162 141 L 161 140 L 160 140 L 158 138 L 157 138 L 155 136 L 154 136 L 153 135 L 152 135 L 150 133 L 149 133 " stroke="black" stroke-width="1" fill="none"/>
<path d="M 140 131 L 141 130 L 142 130 L 143 131 L 142 132 L 141 132 " stroke="black" stroke-width="1" fill="none"/>
<path d="M 146 130 L 147 129 L 148 130 L 147 131 " stroke="black" stroke-width="1" fill="none"/>
<path d="M 145 100 L 146 101 L 146 129 L 145 130 L 145 133 L 146 134 L 146 146 L 147 147 L 147 157 L 146 158 L 143 158 L 141 156 L 141 153 L 142 152 L 142 138 L 143 137 L 143 131 L 142 130 L 144 128 L 144 101 " stroke="black" stroke-width="1" fill="none"/>
<path d="M 170 85 L 172 85 L 173 86 L 174 86 L 175 87 L 176 87 L 177 88 L 178 88 L 179 89 L 180 89 L 181 90 L 182 90 L 183 91 L 184 91 L 185 92 L 186 92 L 187 93 L 190 94 L 192 96 L 195 97 L 198 100 L 198 127 L 195 130 L 192 131 L 190 133 L 189 133 L 188 134 L 185 135 L 183 137 L 182 137 L 181 138 L 178 139 L 176 141 L 175 141 L 172 143 L 170 143 L 168 141 L 165 140 L 163 138 L 160 137 L 155 133 L 152 132 L 150 130 L 149 130 L 146 128 L 146 101 L 149 98 L 150 98 L 152 96 L 155 95 L 157 93 L 158 93 L 160 91 L 163 90 L 165 88 L 168 87 " stroke="black" stroke-width="1" fill="none"/>
<path d="M 119 85 L 121 87 L 122 87 L 123 88 L 124 88 L 125 89 L 128 90 L 130 92 L 133 93 L 135 95 L 138 96 L 140 98 L 142 98 L 144 100 L 144 127 L 141 130 L 140 130 L 139 131 L 138 131 L 137 132 L 136 132 L 135 133 L 132 134 L 130 136 L 127 137 L 125 139 L 122 140 L 120 142 L 118 142 L 116 140 L 113 139 L 111 137 L 108 136 L 106 134 L 105 134 L 104 133 L 103 133 L 102 132 L 101 132 L 100 131 L 97 130 L 94 127 L 94 101 L 97 98 L 98 98 L 100 96 L 103 95 L 105 93 L 108 92 L 110 90 L 111 90 L 112 89 L 113 89 L 114 88 L 117 87 " stroke="black" stroke-width="1" fill="none"/>
<path d="M 126 66 L 128 68 L 128 70 L 125 73 L 125 74 L 123 76 L 123 77 L 122 78 L 122 79 L 121 80 L 120 80 L 119 79 L 120 78 L 120 76 L 123 73 L 123 72 L 124 71 L 124 69 L 125 68 L 125 67 " stroke="black" stroke-width="1" fill="none"/>
<path d="M 132 57 L 135 60 L 132 63 L 131 63 L 130 64 L 130 67 L 129 68 L 128 68 L 126 66 L 127 65 L 127 63 L 128 62 L 128 61 L 130 59 L 130 58 L 131 57 " stroke="black" stroke-width="1" fill="none"/>
<path d="M 116 25 L 115 26 L 115 27 L 114 28 L 114 33 L 115 34 L 115 35 L 116 35 L 117 36 L 121 36 L 123 34 L 123 27 L 121 25 " stroke="black" stroke-width="1" fill="none"/>
<path d="M 117 25 L 120 25 L 123 28 L 123 33 L 120 36 L 117 36 L 115 34 L 115 33 L 114 32 L 114 29 L 115 28 L 115 27 " stroke="black" stroke-width="1" fill="none"/>
<path d="M 118 27 L 117 28 L 117 29 L 116 30 L 116 31 L 117 32 L 117 33 L 118 34 L 119 33 L 120 33 L 121 32 L 121 29 L 120 28 L 119 28 " stroke="black" stroke-width="1" fill="none"/>
<path d="M 118 28 L 120 28 L 121 29 L 121 32 L 120 33 L 118 33 L 116 31 L 116 30 " stroke="black" stroke-width="1" fill="none"/>
<path d="M 114 21 L 115 22 L 115 23 L 114 24 L 113 24 L 112 23 L 112 22 L 112 23 L 113 24 L 114 24 L 115 23 L 115 22 " stroke="black" stroke-width="1" fill="none"/>
<path d="M 113 9 L 112 10 L 111 9 L 111 12 L 110 13 L 109 13 L 108 12 L 108 10 L 105 10 L 105 19 L 108 19 L 108 16 L 109 15 L 110 15 L 111 16 L 111 20 L 112 19 L 113 19 " stroke="black" stroke-width="1" fill="none"/>
<path d="M 108 14 L 109 13 L 110 13 L 111 14 L 110 15 L 109 15 " stroke="black" stroke-width="1" fill="none"/>
<path d="M 112 10 L 113 11 L 113 18 L 112 19 L 111 18 L 111 16 L 110 15 L 111 14 L 110 13 L 111 12 L 111 11 " stroke="black" stroke-width="1" fill="none"/>
<path d="M 106 10 L 107 10 L 108 11 L 108 18 L 107 19 L 106 19 L 105 18 L 105 11 " stroke="black" stroke-width="1" fill="none"/>
</svg>