<svg xmlns="http://www.w3.org/2000/svg" width="300" height="300" viewBox="0 0 300 300">
<path d="M 226 217 L 226 224 L 227 224 L 228 225 L 228 222 L 229 221 L 230 221 L 231 222 L 231 224 L 233 224 L 233 217 L 231 217 L 229 219 L 228 218 L 228 216 L 227 217 " stroke="black" stroke-width="1" fill="none"/>
<path d="M 232 217 L 233 218 L 233 223 L 232 224 L 231 223 L 231 221 L 230 220 L 230 219 " stroke="black" stroke-width="1" fill="none"/>
<path d="M 227 217 L 228 218 L 228 219 L 229 219 L 230 220 L 229 221 L 228 221 L 228 223 L 227 224 L 226 223 L 226 218 " stroke="black" stroke-width="1" fill="none"/>
<path d="M 218 176 L 219 177 L 218 178 L 220 178 L 221 179 L 224 179 L 225 180 L 227 180 L 230 182 L 232 182 L 234 184 L 234 187 L 235 188 L 235 194 L 236 195 L 236 199 L 237 200 L 237 203 L 238 204 L 238 208 L 239 209 L 239 210 L 236 213 L 236 215 L 238 215 L 243 210 L 244 211 L 246 211 L 247 212 L 249 212 L 250 213 L 252 213 L 253 214 L 255 214 L 256 215 L 258 215 L 261 217 L 263 217 L 264 218 L 266 218 L 267 219 L 269 219 L 268 218 L 269 217 L 268 217 L 267 216 L 265 216 L 262 214 L 260 214 L 259 213 L 257 213 L 254 211 L 251 211 L 250 210 L 248 210 L 245 208 L 245 206 L 244 205 L 244 202 L 243 201 L 243 198 L 242 197 L 242 193 L 241 192 L 241 189 L 240 188 L 240 184 L 239 183 L 244 178 L 244 177 L 243 176 L 242 176 L 238 180 L 238 181 L 237 182 L 236 182 L 231 179 L 229 179 L 228 178 L 226 178 L 225 177 L 223 177 L 222 176 " stroke="black" stroke-width="1" fill="none"/>
<path d="M 241 202 L 242 203 L 242 207 L 241 208 L 240 207 L 240 203 " stroke="black" stroke-width="1" fill="none"/>
<path d="M 240 198 L 241 199 L 241 202 L 240 203 L 239 202 L 239 199 " stroke="black" stroke-width="1" fill="none"/>
<path d="M 239 193 L 240 194 L 240 198 L 239 199 L 238 198 L 238 194 " stroke="black" stroke-width="1" fill="none"/>
<path d="M 219 177 L 220 176 L 222 176 L 223 177 L 225 177 L 226 178 L 231 179 L 237 182 L 242 176 L 244 178 L 239 183 L 240 184 L 240 188 L 241 189 L 241 192 L 242 193 L 242 197 L 243 198 L 243 201 L 244 202 L 245 209 L 247 209 L 251 211 L 254 211 L 257 213 L 262 214 L 265 216 L 267 216 L 268 218 L 267 219 L 266 218 L 261 217 L 258 215 L 256 215 L 255 214 L 253 214 L 252 213 L 250 213 L 249 212 L 244 211 L 242 207 L 242 203 L 241 202 L 241 199 L 240 198 L 240 194 L 239 193 L 239 190 L 239 193 L 238 194 L 238 198 L 239 199 L 239 202 L 240 203 L 240 207 L 242 208 L 243 210 L 241 211 L 238 215 L 237 215 L 236 213 L 239 210 L 239 209 L 238 208 L 238 204 L 237 203 L 237 200 L 236 199 L 236 195 L 235 194 L 235 188 L 234 187 L 234 183 L 232 182 L 230 182 L 224 179 L 221 179 " stroke="black" stroke-width="1" fill="none"/>
<path d="M 238 186 L 238 187 L 237 188 L 237 192 L 237 188 L 238 187 " stroke="black" stroke-width="1" fill="none"/>
<path d="M 236 184 L 237 184 " stroke="black" stroke-width="1" fill="none"/>
<path d="M 210 169 L 208 171 L 208 176 L 210 178 L 214 178 L 215 177 L 214 176 L 214 175 L 213 175 L 212 176 L 210 174 L 210 173 L 212 171 L 213 172 L 214 172 L 214 171 L 215 170 L 214 169 " stroke="black" stroke-width="1" fill="none"/>
<path d="M 210 169 L 213 169 L 214 170 L 214 171 L 213 172 L 212 171 L 210 173 L 210 174 L 212 176 L 213 175 L 214 176 L 214 177 L 213 178 L 210 178 L 209 177 L 209 176 L 208 175 L 208 172 L 209 171 L 209 170 " stroke="black" stroke-width="1" fill="none"/>
<path d="M 245 167 L 245 174 L 246 174 L 247 175 L 247 172 L 248 171 L 249 171 L 250 172 L 250 174 L 252 174 L 252 167 L 250 167 L 248 169 L 247 168 L 247 166 L 246 167 " stroke="black" stroke-width="1" fill="none"/>
<path d="M 251 167 L 252 168 L 252 173 L 251 174 L 250 173 L 250 171 L 249 170 L 249 169 " stroke="black" stroke-width="1" fill="none"/>
<path d="M 246 167 L 247 168 L 247 169 L 248 169 L 249 170 L 248 171 L 247 171 L 247 173 L 246 174 L 245 173 L 245 168 " stroke="black" stroke-width="1" fill="none"/>
<path d="M 192 164 L 193 165 L 192 166 L 194 166 L 195 167 L 194 168 L 192 168 L 193 169 L 193 172 L 192 173 L 194 173 L 195 174 L 197 174 L 198 175 L 201 175 L 202 176 L 205 176 L 204 175 L 204 169 L 205 168 L 204 168 L 203 167 L 201 167 L 200 166 L 199 166 L 198 165 L 196 165 L 195 164 " stroke="black" stroke-width="1" fill="none"/>
<path d="M 193 165 L 194 164 L 195 164 L 196 165 L 198 165 L 199 166 L 200 166 L 201 167 L 202 167 L 203 168 L 201 170 L 200 170 L 199 171 L 198 171 L 197 172 L 196 172 L 197 172 L 198 171 L 199 171 L 200 170 L 201 170 L 203 168 L 204 169 L 204 175 L 203 176 L 202 176 L 201 175 L 198 175 L 197 174 L 195 174 L 193 172 L 193 169 L 195 167 L 197 167 L 195 167 " stroke="black" stroke-width="1" fill="none"/>
<path d="M 202 172 L 201 172 L 200 173 L 201 172 " stroke="black" stroke-width="1" fill="none"/>
<path d="M 199 168 L 198 169 L 196 169 L 198 169 " stroke="black" stroke-width="1" fill="none"/>
<path d="M 184 161 L 182 163 L 182 168 L 184 170 L 188 170 L 189 169 L 188 168 L 188 167 L 187 167 L 186 168 L 184 166 L 184 165 L 186 163 L 187 164 L 188 164 L 188 163 L 189 162 L 188 161 " stroke="black" stroke-width="1" fill="none"/>
<path d="M 184 161 L 187 161 L 188 162 L 188 163 L 187 164 L 186 163 L 184 165 L 184 166 L 186 168 L 187 167 L 188 168 L 188 169 L 187 170 L 184 170 L 183 169 L 183 168 L 182 167 L 182 164 L 183 163 L 183 162 " stroke="black" stroke-width="1" fill="none"/>
<path d="M 166 159 L 167 160 L 166 161 L 167 161 L 168 162 L 170 162 L 171 163 L 172 163 L 173 164 L 175 164 L 176 165 L 179 165 L 178 164 L 179 163 L 178 163 L 177 162 L 175 162 L 174 161 L 172 161 L 171 160 L 169 160 L 168 159 " stroke="black" stroke-width="1" fill="none"/>
<path d="M 167 160 L 168 159 L 169 160 L 171 160 L 172 161 L 174 161 L 175 162 L 176 162 L 178 164 L 177 165 L 176 165 L 175 164 L 173 164 L 172 163 L 171 163 L 170 162 L 168 162 L 167 161 " stroke="black" stroke-width="1" fill="none"/>
<path d="M 158 153 L 156 155 L 156 160 L 158 162 L 162 162 L 163 161 L 162 160 L 162 159 L 161 159 L 160 160 L 158 158 L 158 157 L 160 155 L 161 156 L 162 156 L 162 155 L 163 154 L 162 153 " stroke="black" stroke-width="1" fill="none"/>
<path d="M 158 153 L 161 153 L 162 154 L 162 155 L 161 156 L 160 155 L 158 157 L 158 158 L 160 160 L 161 159 L 162 160 L 162 161 L 161 162 L 158 162 L 157 161 L 157 160 L 156 159 L 156 156 L 157 155 L 157 154 " stroke="black" stroke-width="1" fill="none"/>
<path d="M 140 148 L 141 149 L 141 155 L 140 156 L 142 156 L 143 157 L 145 157 L 146 158 L 149 158 L 150 159 L 153 159 L 152 158 L 152 152 L 153 151 L 152 151 L 151 150 L 149 150 L 148 149 L 146 149 L 145 148 " stroke="black" stroke-width="1" fill="none"/>
<path d="M 141 149 L 142 148 L 145 148 L 146 149 L 148 149 L 149 150 L 150 150 L 151 151 L 149 153 L 148 153 L 147 154 L 146 154 L 145 155 L 144 155 L 145 155 L 146 154 L 147 154 L 148 153 L 149 153 L 151 151 L 152 152 L 152 158 L 151 159 L 150 159 L 149 158 L 146 158 L 145 157 L 143 157 L 141 155 " stroke="black" stroke-width="1" fill="none"/>
<path d="M 150 155 L 149 155 L 148 156 L 149 155 " stroke="black" stroke-width="1" fill="none"/>
<path d="M 147 151 L 146 152 L 144 152 L 143 153 L 144 152 L 146 152 " stroke="black" stroke-width="1" fill="none"/>
<path d="M 91 148 L 91 155 L 92 155 L 93 156 L 93 153 L 94 152 L 95 152 L 96 153 L 96 155 L 98 155 L 98 148 L 96 148 L 94 150 L 93 149 L 93 147 L 92 148 " stroke="black" stroke-width="1" fill="none"/>
<path d="M 97 148 L 98 149 L 98 154 L 97 155 L 96 154 L 96 152 L 95 151 L 95 150 " stroke="black" stroke-width="1" fill="none"/>
<path d="M 92 148 L 93 149 L 93 150 L 94 150 L 95 151 L 94 152 L 93 152 L 93 154 L 92 155 L 91 154 L 91 149 " stroke="black" stroke-width="1" fill="none"/>
<path d="M 132 144 L 130 146 L 130 151 L 132 153 L 136 153 L 137 152 L 136 151 L 136 150 L 135 150 L 134 151 L 132 149 L 132 148 L 134 146 L 135 147 L 136 147 L 136 146 L 137 145 L 136 144 " stroke="black" stroke-width="1" fill="none"/>
<path d="M 132 144 L 135 144 L 136 145 L 136 146 L 135 147 L 134 146 L 132 148 L 132 149 L 134 151 L 135 150 L 136 151 L 136 152 L 135 153 L 132 153 L 131 152 L 131 151 L 130 150 L 130 147 L 131 146 L 131 145 " stroke="black" stroke-width="1" fill="none"/>
<path d="M 53 117 L 51 119 L 51 124 L 53 126 L 57 126 L 59 124 L 59 119 L 57 117 " stroke="black" stroke-width="1" fill="none"/>
<path d="M 53 117 L 56 117 L 59 120 L 59 123 L 56 126 L 53 126 L 51 124 L 51 120 L 52 119 L 52 118 " stroke="black" stroke-width="1" fill="none"/>
<path d="M 55 119 L 53 121 L 53 122 L 55 124 L 56 123 L 56 120 " stroke="black" stroke-width="1" fill="none"/>
<path d="M 55 119 L 56 120 L 56 123 L 55 124 L 53 122 L 53 121 " stroke="black" stroke-width="1" fill="none"/>
<path d="M 101 115 L 101 116 L 102 117 L 102 121 L 103 122 L 103 125 L 104 126 L 104 131 L 105 132 L 105 137 L 106 138 L 106 140 L 108 140 L 108 137 L 107 136 L 107 131 L 106 130 L 106 126 L 105 125 L 105 121 L 104 120 L 104 117 L 103 116 L 103 115 " stroke="black" stroke-width="1" fill="none"/>
<path d="M 105 125 L 106 126 L 106 130 L 107 131 L 107 136 L 108 137 L 108 139 L 107 140 L 106 139 L 106 138 L 105 137 L 105 132 L 104 131 L 104 126 " stroke="black" stroke-width="1" fill="none"/>
<path d="M 103 116 L 104 117 L 104 120 L 105 121 L 105 125 L 104 126 L 103 125 L 103 122 L 102 121 L 102 117 " stroke="black" stroke-width="1" fill="none"/>
<path d="M 101 116 L 102 115 L 103 116 L 102 117 " stroke="black" stroke-width="1" fill="none"/>
<path d="M 110 99 L 110 106 L 111 106 L 112 107 L 112 104 L 113 103 L 114 103 L 115 104 L 115 106 L 117 106 L 117 99 L 115 99 L 113 101 L 112 100 L 112 98 L 111 99 " stroke="black" stroke-width="1" fill="none"/>
<path d="M 116 99 L 117 100 L 117 105 L 116 106 L 115 105 L 115 103 L 114 102 L 114 101 " stroke="black" stroke-width="1" fill="none"/>
<path d="M 111 99 L 112 100 L 112 101 L 113 101 L 114 102 L 113 103 L 112 103 L 112 105 L 111 106 L 110 105 L 110 100 " stroke="black" stroke-width="1" fill="none"/>
<path d="M 41 81 L 34 102 L 34 106 L 36 108 L 48 116 L 42 111 L 38 109 L 34 105 L 34 102 L 35 101 L 36 104 L 37 103 L 38 104 L 44 87 L 44 84 L 43 85 L 42 84 L 37 99 L 36 98 L 36 95 L 40 83 L 42 81 L 66 81 L 68 83 L 72 95 L 72 98 L 71 99 L 66 84 L 65 85 L 64 84 L 64 87 L 70 104 L 71 103 L 72 104 L 73 101 L 74 102 L 74 105 L 70 109 L 61 115 L 74 106 L 74 102 L 67 81 " stroke="black" stroke-width="1" fill="none"/>
<path d="M 70 102 L 71 101 L 72 102 L 71 103 " stroke="black" stroke-width="1" fill="none"/>
<path d="M 36 102 L 37 101 L 38 102 L 37 103 " stroke="black" stroke-width="1" fill="none"/>
<path d="M 72 98 L 73 99 L 73 101 L 72 102 L 71 101 L 71 99 " stroke="black" stroke-width="1" fill="none"/>
<path d="M 36 98 L 37 99 L 37 101 L 36 102 L 35 101 L 35 99 " stroke="black" stroke-width="1" fill="none"/>
<path d="M 65 85 L 67 87 L 67 89 L 68 90 L 68 92 L 69 93 L 69 95 L 70 96 L 70 98 L 71 99 L 71 101 L 70 102 L 69 101 L 69 100 L 68 99 L 68 97 L 67 96 L 67 94 L 66 93 L 66 91 L 65 90 L 65 88 L 64 87 L 64 86 " stroke="black" stroke-width="1" fill="none"/>
<path d="M 43 85 L 44 86 L 44 87 L 43 88 L 43 90 L 42 91 L 42 93 L 41 94 L 41 96 L 40 97 L 40 99 L 39 100 L 39 101 L 38 102 L 37 101 L 37 99 L 38 98 L 38 96 L 39 95 L 39 93 L 40 92 L 40 90 L 41 89 L 41 87 " stroke="black" stroke-width="1" fill="none"/>
<path d="M 39 80 L 31 104 L 33 109 L 47 118 L 31 106 L 40 79 L 68 79 L 76 104 L 101 113 L 103 112 L 108 124 L 110 141 L 122 144 L 126 147 L 124 148 L 108 142 L 103 147 L 101 146 L 104 140 L 99 114 L 76 107 L 61 117 L 65 116 L 76 107 L 96 113 L 99 115 L 104 142 L 101 147 L 108 142 L 127 148 L 125 145 L 110 140 L 105 115 L 109 110 L 108 108 L 101 113 L 79 106 L 76 103 L 68 79 " stroke="black" stroke-width="1" fill="none"/>
<path d="M 107 108 L 108 109 L 108 110 L 105 113 L 104 113 L 103 112 " stroke="black" stroke-width="1" fill="none"/>
</svg>