<svg xmlns="http://www.w3.org/2000/svg" width="300" height="300" viewBox="0 0 300 300">
<path d="M 169 267 L 167 269 L 167 274 L 169 276 L 173 276 L 175 274 L 175 269 L 173 267 " stroke="black" stroke-width="1" fill="none"/>
<path d="M 169 267 L 172 267 L 175 270 L 175 273 L 172 276 L 169 276 L 167 274 L 167 270 L 168 269 L 168 268 " stroke="black" stroke-width="1" fill="none"/>
<path d="M 171 269 L 169 271 L 169 272 L 171 274 L 172 273 L 172 270 " stroke="black" stroke-width="1" fill="none"/>
<path d="M 171 269 L 172 270 L 172 273 L 171 274 L 169 272 L 169 271 " stroke="black" stroke-width="1" fill="none"/>
<path d="M 129 267 L 127 269 L 127 274 L 129 276 L 133 276 L 135 274 L 135 269 L 133 267 " stroke="black" stroke-width="1" fill="none"/>
<path d="M 129 267 L 132 267 L 135 270 L 135 273 L 132 276 L 129 276 L 127 274 L 127 270 L 128 269 L 128 268 " stroke="black" stroke-width="1" fill="none"/>
<path d="M 131 269 L 129 271 L 129 272 L 131 274 L 132 273 L 132 270 " stroke="black" stroke-width="1" fill="none"/>
<path d="M 131 269 L 132 270 L 132 273 L 131 274 L 129 272 L 129 271 " stroke="black" stroke-width="1" fill="none"/>
<path d="M 118 266 L 119 267 L 120 267 L 121 268 L 122 268 L 123 269 L 124 269 L 123 268 L 121 268 L 120 267 L 119 267 " stroke="black" stroke-width="1" fill="none"/>
<path d="M 119 264 L 120 265 L 121 265 L 122 266 L 123 266 L 122 266 L 121 265 L 120 265 " stroke="black" stroke-width="1" fill="none"/>
<path d="M 177 266 L 178 266 L 179 267 L 178 268 L 177 268 L 178 269 L 177 270 L 180 270 L 181 269 L 182 269 L 183 268 L 184 268 L 185 267 L 186 267 L 188 265 L 189 265 L 190 264 L 191 264 L 192 263 L 193 263 L 195 265 L 196 265 L 197 266 L 198 266 L 200 268 L 201 268 L 202 269 L 203 269 L 205 271 L 206 271 L 208 273 L 211 273 L 209 273 L 208 272 L 207 272 L 205 270 L 204 270 L 203 269 L 202 269 L 200 267 L 199 267 L 198 266 L 197 266 L 195 264 L 194 264 L 193 263 L 191 263 L 189 265 L 188 265 L 187 266 L 186 266 L 184 268 L 183 268 L 182 269 L 181 269 L 180 270 L 179 270 L 178 269 L 180 267 L 181 267 L 182 266 L 181 267 L 179 267 L 178 266 L 179 265 L 180 265 L 181 264 L 180 265 L 179 265 L 178 266 " stroke="black" stroke-width="1" fill="none"/>
<path d="M 187 263 L 186 264 L 185 264 L 184 265 L 185 264 L 186 264 " stroke="black" stroke-width="1" fill="none"/>
<path d="M 113 263 L 114 264 L 115 264 L 116 265 L 115 264 L 114 264 " stroke="black" stroke-width="1" fill="none"/>
<path d="M 123 271 L 122 271 L 121 270 L 120 270 L 119 269 L 118 269 L 117 268 L 116 268 L 114 266 L 113 266 L 112 265 L 111 265 L 109 263 L 107 263 L 106 264 L 105 264 L 103 266 L 102 266 L 101 267 L 100 267 L 98 269 L 97 269 L 96 270 L 95 270 L 93 272 L 92 272 L 91 273 L 89 273 L 92 273 L 94 271 L 95 271 L 97 269 L 98 269 L 99 268 L 100 268 L 102 266 L 103 266 L 104 265 L 105 265 L 107 263 L 108 263 L 109 264 L 110 264 L 111 265 L 112 265 L 114 267 L 115 267 L 116 268 L 117 268 L 118 269 L 119 269 L 121 271 " stroke="black" stroke-width="1" fill="none"/>
<path d="M 186 261 L 185 262 L 184 262 L 183 263 L 184 262 L 185 262 " stroke="black" stroke-width="1" fill="none"/>
<path d="M 114 261 L 115 262 L 116 262 L 117 263 L 116 262 L 115 262 " stroke="black" stroke-width="1" fill="none"/>
<path d="M 147 234 " stroke="black" stroke-width="1" fill="none"/>
<path d="M 145 233 " stroke="black" stroke-width="1" fill="none"/>
<path d="M 189 232 L 187 234 L 187 239 L 189 241 L 189 256 L 187 258 L 184 259 L 182 261 L 179 262 L 177 264 L 178 263 L 179 263 L 181 261 L 184 260 L 186 258 L 188 258 L 189 259 L 188 260 L 189 261 L 189 262 L 189 259 L 188 258 L 189 257 L 189 249 L 190 248 L 191 249 L 191 259 L 193 261 L 194 261 L 195 262 L 198 263 L 200 265 L 203 266 L 205 268 L 206 268 L 207 269 L 208 269 L 210 271 L 211 271 L 210 270 L 207 269 L 205 267 L 202 266 L 200 264 L 197 263 L 195 261 L 194 261 L 191 258 L 191 243 L 190 243 L 189 242 L 190 241 L 193 241 L 195 239 L 195 234 L 193 232 " stroke="black" stroke-width="1" fill="none"/>
<path d="M 190 243 L 191 244 L 191 247 L 190 248 L 189 247 L 189 244 " stroke="black" stroke-width="1" fill="none"/>
<path d="M 189 232 L 192 232 L 195 235 L 195 238 L 192 241 L 190 241 L 189 240 L 188 240 L 187 239 L 187 235 L 188 234 L 188 233 " stroke="black" stroke-width="1" fill="none"/>
<path d="M 191 234 L 189 236 L 189 237 L 191 239 L 192 238 L 192 235 " stroke="black" stroke-width="1" fill="none"/>
<path d="M 191 234 L 192 235 L 192 238 L 191 239 L 189 237 L 189 236 " stroke="black" stroke-width="1" fill="none"/>
<path d="M 147 232 " stroke="black" stroke-width="1" fill="none"/>
<path d="M 113 232 L 109 232 L 107 234 L 107 239 L 109 241 L 109 258 L 106 261 L 105 261 L 103 263 L 100 264 L 98 266 L 95 267 L 93 269 L 92 269 L 89 271 L 90 271 L 92 269 L 95 268 L 97 266 L 100 265 L 102 263 L 103 263 L 104 262 L 107 261 L 109 259 L 109 249 L 110 248 L 111 249 L 111 257 L 112 258 L 111 259 L 111 262 L 111 261 L 112 260 L 111 259 L 112 258 L 114 258 L 116 260 L 119 261 L 121 263 L 122 263 L 123 264 L 121 262 L 118 261 L 116 259 L 113 258 L 111 256 L 111 243 L 110 243 L 109 242 L 110 241 L 113 241 L 115 239 L 115 234 " stroke="black" stroke-width="1" fill="none"/>
<path d="M 110 243 L 111 244 L 111 247 L 110 248 L 109 247 L 109 244 " stroke="black" stroke-width="1" fill="none"/>
<path d="M 109 232 L 112 232 L 115 235 L 115 238 L 112 241 L 110 241 L 109 240 L 108 240 L 107 239 L 107 235 L 108 234 L 108 233 " stroke="black" stroke-width="1" fill="none"/>
<path d="M 111 234 L 109 236 L 109 237 L 111 239 L 112 238 L 112 235 " stroke="black" stroke-width="1" fill="none"/>
<path d="M 111 234 L 112 235 L 112 238 L 111 239 L 109 237 L 109 236 " stroke="black" stroke-width="1" fill="none"/>
<path d="M 142 231 " stroke="black" stroke-width="1" fill="none"/>
<path d="M 144 230 L 145 231 " stroke="black" stroke-width="1" fill="none"/>
<path d="M 140 230 " stroke="black" stroke-width="1" fill="none"/>
<path d="M 142 229 " stroke="black" stroke-width="1" fill="none"/>
<path d="M 140 228 " stroke="black" stroke-width="1" fill="none"/>
<path d="M 135 225 L 136 226 L 137 226 L 138 227 L 137 228 L 136 228 L 137 228 L 138 229 L 137 228 L 138 227 L 137 226 L 136 226 " stroke="black" stroke-width="1" fill="none"/>
<path d="M 135 223 L 136 223 L 137 224 L 138 224 L 140 226 L 141 226 L 142 227 L 143 227 L 144 228 L 145 228 L 147 230 L 148 230 L 149 231 L 149 233 L 149 232 L 150 231 L 149 230 L 148 230 L 147 229 L 146 229 L 145 228 L 144 228 L 142 226 L 141 226 L 140 225 L 139 225 L 137 223 " stroke="black" stroke-width="1" fill="none"/>
<path d="M 165 205 L 165 223 L 167 223 L 167 206 L 166 205 " stroke="black" stroke-width="1" fill="none"/>
<path d="M 166 205 L 167 206 L 167 222 L 166 223 L 165 222 L 165 206 " stroke="black" stroke-width="1" fill="none"/>
<path d="M 135 203 " stroke="black" stroke-width="1" fill="none"/>
<path d="M 135 201 " stroke="black" stroke-width="1" fill="none"/>
<path d="M 140 200 " stroke="black" stroke-width="1" fill="none"/>
<path d="M 137 200 " stroke="black" stroke-width="1" fill="none"/>
<path d="M 142 199 " stroke="black" stroke-width="1" fill="none"/>
<path d="M 140 198 " stroke="black" stroke-width="1" fill="none"/>
<path d="M 145 197 L 144 198 " stroke="black" stroke-width="1" fill="none"/>
<path d="M 142 197 " stroke="black" stroke-width="1" fill="none"/>
<path d="M 147 196 " stroke="black" stroke-width="1" fill="none"/>
<path d="M 149 195 L 149 197 L 148 198 L 147 198 L 145 200 L 144 200 L 143 201 L 142 201 L 141 202 L 140 202 L 139 203 L 138 203 L 136 205 L 135 205 L 137 205 L 139 203 L 140 203 L 141 202 L 142 202 L 144 200 L 145 200 L 146 199 L 147 199 L 148 198 L 149 198 L 150 197 L 149 196 " stroke="black" stroke-width="1" fill="none"/>
<path d="M 145 195 " stroke="black" stroke-width="1" fill="none"/>
<path d="M 147 194 " stroke="black" stroke-width="1" fill="none"/>
<path d="M 154 167 " stroke="black" stroke-width="1" fill="none"/>
<path d="M 161 163 " stroke="black" stroke-width="1" fill="none"/>
<path d="M 164 161 " stroke="black" stroke-width="1" fill="none"/>
<path d="M 161 161 " stroke="black" stroke-width="1" fill="none"/>
<path d="M 166 160 " stroke="black" stroke-width="1" fill="none"/>
<path d="M 164 159 " stroke="black" stroke-width="1" fill="none"/>
<path d="M 166 158 " stroke="black" stroke-width="1" fill="none"/>
<path d="M 134 157 L 134 164 L 135 164 L 136 165 L 136 162 L 137 161 L 138 161 L 139 162 L 139 164 L 141 164 L 141 157 L 139 157 L 137 159 L 136 158 L 136 156 L 135 157 " stroke="black" stroke-width="1" fill="none"/>
<path d="M 140 157 L 141 158 L 141 163 L 140 164 L 139 163 L 139 161 L 138 160 L 138 159 " stroke="black" stroke-width="1" fill="none"/>
<path d="M 135 157 L 136 158 L 136 159 L 137 159 L 138 160 L 137 161 L 136 161 L 136 163 L 135 164 L 134 163 L 134 158 " stroke="black" stroke-width="1" fill="none"/>
<path d="M 209 60 L 207 62 L 207 67 L 209 69 L 213 69 L 215 67 L 215 62 L 213 60 " stroke="black" stroke-width="1" fill="none"/>
<path d="M 209 60 L 212 60 L 215 63 L 215 66 L 212 69 L 209 69 L 207 67 L 207 63 L 208 62 L 208 61 " stroke="black" stroke-width="1" fill="none"/>
<path d="M 211 62 L 209 64 L 209 65 L 211 67 L 212 66 L 212 63 " stroke="black" stroke-width="1" fill="none"/>
<path d="M 211 62 L 212 63 L 212 66 L 211 67 L 209 65 L 209 64 " stroke="black" stroke-width="1" fill="none"/>
<path d="M 173 60 L 167 62 L 169 86 L 149 98 L 149 123 L 169 136 L 169 153 L 148 165 L 144 164 L 149 165 L 167 155 L 169 158 L 170 135 L 171 157 L 175 160 L 171 159 L 154 170 L 150 167 L 159 162 L 150 167 L 150 190 L 149 169 L 144 166 L 149 170 L 149 189 L 129 202 L 129 224 L 120 229 L 119 234 L 130 227 L 149 238 L 170 227 L 184 234 L 170 227 L 150 238 L 130 227 L 119 231 L 129 225 L 134 227 L 131 224 L 132 203 L 129 224 L 129 203 L 151 190 L 171 203 L 171 224 L 169 204 L 150 192 L 169 205 L 169 224 L 149 235 L 169 225 L 184 232 L 171 224 L 171 202 L 151 189 L 153 170 L 171 159 L 178 160 L 178 167 L 181 164 L 185 167 L 185 160 L 181 162 L 171 156 L 171 136 L 191 123 L 191 98 L 171 86 L 169 70 L 175 67 " stroke="black" stroke-width="1" fill="none"/>
<path d="M 117 232 L 118 231 L 119 231 L 120 232 L 120 233 L 119 234 " stroke="black" stroke-width="1" fill="none"/>
<path d="M 184 160 L 185 161 L 185 166 L 184 167 L 183 166 L 183 164 L 182 163 L 182 162 " stroke="black" stroke-width="1" fill="none"/>
<path d="M 179 160 L 180 161 L 180 162 L 181 162 L 182 163 L 181 164 L 180 164 L 180 166 L 179 167 L 178 166 L 178 161 " stroke="black" stroke-width="1" fill="none"/>
<path d="M 169 87 L 171 87 L 172 88 L 173 88 L 174 89 L 175 89 L 176 90 L 177 90 L 178 91 L 179 91 L 180 92 L 181 92 L 182 93 L 183 93 L 185 95 L 186 95 L 187 96 L 188 96 L 191 99 L 191 122 L 188 125 L 187 125 L 186 126 L 185 126 L 183 128 L 182 128 L 181 129 L 180 129 L 178 131 L 177 131 L 176 132 L 175 132 L 173 134 L 172 134 L 171 135 L 169 135 L 168 134 L 167 134 L 165 132 L 164 132 L 162 130 L 161 130 L 160 129 L 159 129 L 157 127 L 156 127 L 155 126 L 154 126 L 153 125 L 152 125 L 149 122 L 149 99 L 152 96 L 153 96 L 154 95 L 155 95 L 157 93 L 158 93 L 159 92 L 160 92 L 161 91 L 162 91 L 163 90 L 164 90 L 165 89 L 166 89 " stroke="black" stroke-width="1" fill="none"/>
<path d="M 167 131 " stroke="black" stroke-width="1" fill="none"/>
<path d="M 165 130 " stroke="black" stroke-width="1" fill="none"/>
<path d="M 167 129 " stroke="black" stroke-width="1" fill="none"/>
<path d="M 162 128 " stroke="black" stroke-width="1" fill="none"/>
<path d="M 164 127 L 165 128 " stroke="black" stroke-width="1" fill="none"/>
<path d="M 162 126 " stroke="black" stroke-width="1" fill="none"/>
<path d="M 159 126 L 160 127 " stroke="black" stroke-width="1" fill="none"/>
<path d="M 157 125 " stroke="black" stroke-width="1" fill="none"/>
<path d="M 159 124 " stroke="black" stroke-width="1" fill="none"/>
<path d="M 155 121 L 157 123 " stroke="black" stroke-width="1" fill="none"/>
<path d="M 155 119 L 156 119 L 159 122 L 160 122 L 162 124 L 163 124 L 164 125 L 165 125 L 167 127 L 168 127 L 169 128 L 169 130 L 169 129 L 170 128 L 169 127 L 168 127 L 167 126 L 166 126 L 165 125 L 164 125 L 161 122 L 160 122 L 158 120 L 157 120 L 156 119 " stroke="black" stroke-width="1" fill="none"/>
<path d="M 187 102 L 185 102 L 185 120 L 186 120 L 187 119 " stroke="black" stroke-width="1" fill="none"/>
<path d="M 186 102 L 187 103 L 187 119 L 186 120 L 185 119 L 185 103 " stroke="black" stroke-width="1" fill="none"/>
<path d="M 157 96 L 156 97 L 155 97 L 153 99 L 152 99 L 151 100 L 151 121 L 152 122 L 153 122 L 155 124 L 151 120 L 151 101 L 155 97 L 156 97 " stroke="black" stroke-width="1" fill="none"/>
<path d="M 170 94 L 169 94 L 168 95 L 167 95 L 165 97 L 164 97 L 163 98 L 162 98 L 161 99 L 160 99 L 158 101 L 157 101 L 156 102 L 155 102 L 157 102 L 159 100 L 160 100 L 161 99 L 162 99 L 164 97 L 165 97 L 166 96 L 167 96 L 168 95 L 169 95 " stroke="black" stroke-width="1" fill="none"/>
<path d="M 165 94 L 164 95 L 163 95 L 162 96 L 161 96 L 160 97 L 159 97 L 157 99 L 156 99 L 155 100 L 156 99 L 157 99 L 159 97 L 160 97 L 161 96 L 162 96 L 163 95 L 164 95 " stroke="black" stroke-width="1" fill="none"/>
<path d="M 170 89 L 169 90 L 168 90 L 167 91 L 166 91 L 165 92 L 164 92 L 159 95 L 160 94 L 161 94 L 166 91 L 167 91 L 168 92 L 167 93 L 168 92 L 169 92 L 168 92 L 167 91 L 170 89 L 172 91 L 173 91 L 174 92 L 175 92 L 176 93 L 177 93 L 178 94 L 179 94 L 180 95 L 183 96 L 185 98 L 186 98 L 189 101 L 189 120 L 186 123 L 185 123 L 183 125 L 180 126 L 178 128 L 175 129 L 170 133 L 169 132 L 170 133 L 172 131 L 175 130 L 177 128 L 180 127 L 182 125 L 185 124 L 187 122 L 188 122 L 189 121 L 189 100 L 188 99 L 187 99 L 185 97 L 182 96 L 180 94 L 179 94 L 178 93 L 177 93 L 176 92 L 175 92 " stroke="black" stroke-width="1" fill="none"/>
<path d="M 170 75 L 171 76 L 171 86 L 170 87 L 169 86 L 169 76 " stroke="black" stroke-width="1" fill="none"/>
<path d="M 170 71 L 171 72 L 171 74 L 170 75 L 169 74 L 169 72 " stroke="black" stroke-width="1" fill="none"/>
<path d="M 169 60 L 172 60 L 175 63 L 175 66 L 172 69 L 170 69 L 169 68 L 168 68 L 167 67 L 167 63 L 168 62 L 168 61 " stroke="black" stroke-width="1" fill="none"/>
<path d="M 171 62 L 169 64 L 169 65 L 171 67 L 172 66 L 172 63 " stroke="black" stroke-width="1" fill="none"/>
<path d="M 171 62 L 172 63 L 172 66 L 171 67 L 169 65 L 169 64 " stroke="black" stroke-width="1" fill="none"/>
<path d="M 198 59 L 199 60 L 200 60 L 201 61 L 202 61 L 203 62 L 204 62 L 203 62 L 202 61 L 201 61 L 200 60 L 199 60 " stroke="black" stroke-width="1" fill="none"/>
<path d="M 196 58 " stroke="black" stroke-width="1" fill="none"/>
<path d="M 178 61 L 179 61 L 180 60 L 181 60 L 182 59 L 183 59 L 184 58 L 185 58 L 187 56 L 188 56 L 189 57 L 190 57 L 191 58 L 192 58 L 194 60 L 195 60 L 196 61 L 197 61 L 198 62 L 199 62 L 201 64 L 203 64 L 202 64 L 201 63 L 200 63 L 199 62 L 198 62 L 197 61 L 196 61 L 194 59 L 193 59 L 191 57 L 190 57 L 189 56 L 187 56 L 186 57 L 185 57 L 183 59 L 182 59 L 181 60 L 180 60 L 179 61 " stroke="black" stroke-width="1" fill="none"/>
<path d="M 189 29 L 189 51 L 186 54 L 185 54 L 183 56 L 180 57 L 178 59 L 179 58 L 180 58 L 182 56 L 187 54 L 189 52 L 189 30 L 190 29 L 191 30 L 191 51 L 192 51 L 193 52 L 194 52 L 195 53 L 200 55 L 202 57 L 201 58 L 200 58 L 199 57 L 198 57 L 191 53 L 191 55 L 192 54 L 193 54 L 194 55 L 193 56 L 194 57 L 193 56 L 194 55 L 195 55 L 200 58 L 201 58 L 202 57 L 203 58 L 203 59 L 204 58 L 201 55 L 200 55 L 195 52 L 193 52 L 191 50 L 191 29 " stroke="black" stroke-width="1" fill="none"/>
</svg>