<svg xmlns="http://www.w3.org/2000/svg" width="300" height="300" viewBox="0 0 300 300">
<path d="M 142 241 L 141 241 L 139 243 L 138 243 L 136 245 L 135 245 L 134 246 L 133 246 L 131 248 L 130 248 L 129 249 L 128 249 L 127 250 L 126 250 L 124 252 L 123 252 L 122 253 L 121 253 L 123 253 L 125 251 L 126 251 L 127 250 L 128 250 L 130 248 L 131 248 L 132 247 L 133 247 L 134 246 L 135 246 L 137 244 L 138 244 L 140 242 L 141 242 " stroke="black" stroke-width="1" fill="none"/>
<path d="M 142 239 L 140 239 L 139 240 L 138 240 L 136 242 L 135 242 L 134 243 L 133 243 L 131 245 L 130 245 L 129 246 L 128 246 L 126 248 L 125 248 L 124 249 L 123 249 L 122 250 L 121 250 L 120 251 L 121 251 L 122 250 L 123 250 L 125 248 L 126 248 L 127 247 L 128 247 L 129 246 L 130 246 L 132 244 L 133 244 L 134 243 L 135 243 L 137 241 L 138 241 L 140 239 " stroke="black" stroke-width="1" fill="none"/>
<path d="M 158 196 " stroke="black" stroke-width="1" fill="none"/>
<path d="M 205 195 L 204 196 L 204 197 L 203 198 L 203 203 L 204 204 L 204 205 L 205 206 L 210 206 L 212 204 L 212 197 L 210 195 " stroke="black" stroke-width="1" fill="none"/>
<path d="M 206 195 L 209 195 L 212 198 L 212 203 L 209 206 L 206 206 L 204 204 L 204 203 L 203 202 L 203 199 L 204 198 L 204 197 " stroke="black" stroke-width="1" fill="none"/>
<path d="M 207 197 L 206 198 L 206 199 L 205 200 L 205 201 L 206 202 L 206 203 L 207 204 L 208 203 L 209 203 L 210 202 L 210 199 L 209 198 L 208 198 " stroke="black" stroke-width="1" fill="none"/>
<path d="M 207 198 L 209 198 L 210 199 L 210 202 L 209 203 L 207 203 L 205 201 L 205 200 " stroke="black" stroke-width="1" fill="none"/>
<path d="M 160 195 " stroke="black" stroke-width="1" fill="none"/>
<path d="M 156 195 " stroke="black" stroke-width="1" fill="none"/>
<path d="M 163 193 " stroke="black" stroke-width="1" fill="none"/>
<path d="M 165 192 " stroke="black" stroke-width="1" fill="none"/>
<path d="M 161 192 L 160 193 L 159 193 L 158 194 L 159 193 L 160 193 " stroke="black" stroke-width="1" fill="none"/>
<path d="M 163 191 " stroke="black" stroke-width="1" fill="none"/>
<path d="M 168 190 L 167 191 " stroke="black" stroke-width="1" fill="none"/>
<path d="M 165 190 " stroke="black" stroke-width="1" fill="none"/>
<path d="M 170 189 " stroke="black" stroke-width="1" fill="none"/>
<path d="M 172 188 " stroke="black" stroke-width="1" fill="none"/>
<path d="M 168 188 " stroke="black" stroke-width="1" fill="none"/>
<path d="M 170 187 " stroke="black" stroke-width="1" fill="none"/>
<path d="M 238 186 L 237 186 L 236 187 L 235 187 L 233 189 L 232 189 L 231 190 L 230 190 L 229 191 L 228 191 L 226 193 L 225 193 L 224 194 L 223 194 L 222 195 L 221 195 L 220 196 L 219 196 L 218 197 L 217 197 L 219 197 L 220 196 L 221 196 L 223 194 L 225 194 L 227 192 L 228 192 L 229 191 L 230 191 L 232 189 L 233 189 L 234 188 L 235 188 L 236 187 L 237 187 " stroke="black" stroke-width="1" fill="none"/>
<path d="M 173 185 L 172 186 " stroke="black" stroke-width="1" fill="none"/>
<path d="M 237 184 L 235 184 L 233 186 L 232 186 L 231 187 L 230 187 L 228 189 L 227 189 L 226 190 L 225 190 L 224 191 L 223 191 L 221 193 L 219 193 L 218 194 L 217 194 L 216 195 L 217 195 L 218 194 L 219 194 L 220 193 L 221 193 L 222 192 L 223 192 L 224 191 L 225 191 L 227 189 L 228 189 L 229 188 L 230 188 L 231 187 L 232 187 L 234 185 L 235 185 L 236 184 " stroke="black" stroke-width="1" fill="none"/>
<path d="M 174 183 L 171 183 L 169 185 L 168 185 L 166 187 L 165 187 L 164 188 L 163 188 L 162 189 L 161 189 L 159 191 L 158 191 L 157 192 L 156 192 L 155 193 L 154 193 L 153 194 L 152 194 L 151 195 L 152 195 L 153 194 L 154 194 L 155 193 L 156 193 L 158 191 L 159 191 L 160 190 L 161 190 L 162 189 L 163 189 L 164 188 L 165 188 L 167 186 L 168 186 L 169 185 L 170 185 L 172 183 " stroke="black" stroke-width="1" fill="none"/>
<path d="M 124 155 L 124 181 L 126 181 L 126 155 " stroke="black" stroke-width="1" fill="none"/>
<path d="M 125 155 L 126 156 L 126 180 L 125 181 L 124 180 L 124 156 " stroke="black" stroke-width="1" fill="none"/>
<path d="M 172 150 L 173 151 " stroke="black" stroke-width="1" fill="none"/>
<path d="M 170 149 " stroke="black" stroke-width="1" fill="none"/>
<path d="M 172 148 " stroke="black" stroke-width="1" fill="none"/>
<path d="M 168 148 " stroke="black" stroke-width="1" fill="none"/>
<path d="M 170 147 " stroke="black" stroke-width="1" fill="none"/>
<path d="M 165 146 " stroke="black" stroke-width="1" fill="none"/>
<path d="M 167 145 L 168 146 " stroke="black" stroke-width="1" fill="none"/>
<path d="M 165 144 " stroke="black" stroke-width="1" fill="none"/>
<path d="M 163 143 " stroke="black" stroke-width="1" fill="none"/>
<path d="M 161 142 " stroke="black" stroke-width="1" fill="none"/>
<path d="M 159 141 " stroke="black" stroke-width="1" fill="none"/>
<path d="M 84 141 L 83 141 L 82 142 L 81 142 L 80 143 L 79 143 L 78 144 L 77 144 L 76 145 L 75 145 L 73 147 L 72 147 L 71 148 L 70 148 L 69 149 L 68 149 L 66 151 L 65 151 L 64 152 L 63 152 L 65 152 L 67 150 L 68 150 L 69 149 L 70 149 L 72 147 L 73 147 L 74 146 L 75 146 L 76 145 L 77 145 L 79 143 L 81 143 L 82 142 L 83 142 " stroke="black" stroke-width="1" fill="none"/>
<path d="M 151 140 L 152 141 L 151 142 L 152 142 L 153 143 L 154 143 L 155 144 L 156 144 L 157 145 L 158 145 L 159 146 L 160 146 L 161 147 L 162 147 L 163 148 L 164 148 L 165 149 L 166 149 L 168 151 L 169 151 L 171 153 L 174 153 L 172 153 L 170 151 L 169 151 L 168 150 L 167 150 L 165 148 L 164 148 L 163 147 L 162 147 L 161 146 L 162 145 L 163 145 L 162 145 L 161 144 L 160 144 L 159 143 L 158 143 L 157 142 L 156 142 L 155 141 L 154 141 L 153 140 " stroke="black" stroke-width="1" fill="none"/>
<path d="M 159 145 L 160 144 L 161 144 L 162 145 L 161 146 L 160 146 " stroke="black" stroke-width="1" fill="none"/>
<path d="M 152 141 L 153 140 L 154 141 L 155 141 L 156 142 L 157 142 L 158 143 L 159 143 L 160 144 L 159 145 L 157 145 L 156 144 L 155 144 L 154 143 L 153 143 L 152 142 " stroke="black" stroke-width="1" fill="none"/>
<path d="M 83 139 L 81 139 L 80 140 L 79 140 L 77 142 L 75 142 L 73 144 L 72 144 L 71 145 L 70 145 L 68 147 L 67 147 L 66 148 L 65 148 L 64 149 L 63 149 L 62 150 L 63 150 L 64 149 L 65 149 L 67 147 L 68 147 L 69 146 L 70 146 L 71 145 L 72 145 L 74 143 L 75 143 L 76 142 L 77 142 L 78 141 L 79 141 L 80 140 L 81 140 L 82 139 " stroke="black" stroke-width="1" fill="none"/>
<path d="M 100 141 L 120 153 L 120 186 L 149 204 L 149 226 L 151 227 L 147 228 L 145 231 L 147 239 L 152 239 L 154 237 L 154 230 L 151 227 L 151 204 L 179 186 L 199 197 L 179 186 L 153 202 L 147 202 L 120 185 L 120 153 L 122 153 L 122 184 L 150 201 L 156 197 L 151 197 L 154 198 L 150 201 L 122 183 L 122 153 L 150 136 L 157 140 L 150 136 L 122 152 " stroke="black" stroke-width="1" fill="none"/>
<path d="M 148 228 L 151 228 L 154 231 L 154 236 L 151 239 L 148 239 L 146 237 L 146 236 L 145 235 L 145 232 L 146 231 L 146 230 " stroke="black" stroke-width="1" fill="none"/>
<path d="M 149 230 L 148 231 L 148 232 L 147 233 L 147 234 L 148 235 L 148 236 L 149 237 L 150 236 L 151 236 L 152 235 L 152 232 L 151 231 L 150 231 " stroke="black" stroke-width="1" fill="none"/>
<path d="M 149 231 L 151 231 L 152 232 L 152 235 L 151 236 L 149 236 L 147 234 L 147 233 " stroke="black" stroke-width="1" fill="none"/>
<path d="M 150 219 L 151 220 L 151 225 L 150 226 L 149 225 L 149 220 " stroke="black" stroke-width="1" fill="none"/>
<path d="M 150 203 L 151 204 L 151 218 L 150 219 L 149 218 L 149 204 " stroke="black" stroke-width="1" fill="none"/>
<path d="M 89 128 L 88 129 L 88 130 L 87 131 L 87 136 L 88 137 L 88 138 L 89 139 L 94 139 L 96 137 L 96 130 L 94 128 " stroke="black" stroke-width="1" fill="none"/>
<path d="M 90 128 L 93 128 L 96 131 L 96 136 L 93 139 L 90 139 L 88 137 L 88 136 L 87 135 L 87 132 L 88 131 L 88 130 " stroke="black" stroke-width="1" fill="none"/>
<path d="M 91 130 L 90 131 L 90 132 L 89 133 L 89 134 L 90 135 L 90 136 L 91 137 L 92 136 L 93 136 L 94 135 L 94 132 L 93 131 L 92 131 " stroke="black" stroke-width="1" fill="none"/>
<path d="M 91 131 L 93 131 L 94 132 L 94 135 L 93 136 L 91 136 L 89 134 L 89 133 " stroke="black" stroke-width="1" fill="none"/>
<path d="M 157 98 L 156 99 L 155 99 L 154 100 L 155 99 L 156 99 " stroke="black" stroke-width="1" fill="none"/>
<path d="M 159 97 " stroke="black" stroke-width="1" fill="none"/>
<path d="M 155 97 " stroke="black" stroke-width="1" fill="none"/>
<path d="M 161 96 " stroke="black" stroke-width="1" fill="none"/>
<path d="M 164 94 " stroke="black" stroke-width="1" fill="none"/>
<path d="M 166 93 " stroke="black" stroke-width="1" fill="none"/>
<path d="M 162 93 L 161 94 L 160 94 L 159 95 L 158 95 L 157 96 L 158 95 L 159 95 L 160 94 L 161 94 " stroke="black" stroke-width="1" fill="none"/>
<path d="M 164 92 " stroke="black" stroke-width="1" fill="none"/>
<path d="M 166 91 " stroke="black" stroke-width="1" fill="none"/>
<path d="M 171 90 " stroke="black" stroke-width="1" fill="none"/>
<path d="M 173 89 " stroke="black" stroke-width="1" fill="none"/>
<path d="M 200 88 L 199 89 L 198 88 L 198 91 L 197 92 L 196 92 L 195 91 L 195 89 L 192 89 L 192 98 L 195 98 L 195 95 L 196 94 L 197 94 L 198 95 L 198 99 L 199 98 L 200 99 " stroke="black" stroke-width="1" fill="none"/>
<path d="M 195 93 L 196 92 L 197 92 L 198 93 L 197 94 L 196 94 " stroke="black" stroke-width="1" fill="none"/>
<path d="M 199 89 L 200 90 L 200 97 L 199 98 L 198 97 L 198 95 L 197 94 L 198 93 L 197 92 L 198 91 L 198 90 " stroke="black" stroke-width="1" fill="none"/>
<path d="M 193 89 L 194 89 L 195 90 L 195 97 L 194 98 L 193 98 L 192 97 L 192 90 " stroke="black" stroke-width="1" fill="none"/>
<path d="M 171 88 " stroke="black" stroke-width="1" fill="none"/>
<path d="M 173 87 " stroke="black" stroke-width="1" fill="none"/>
<path d="M 178 84 L 177 85 L 178 86 " stroke="black" stroke-width="1" fill="none"/>
<path d="M 135 84 L 134 85 L 133 84 L 133 87 L 132 88 L 131 88 L 130 87 L 130 85 L 127 85 L 127 94 L 130 94 L 130 91 L 131 90 L 132 90 L 133 91 L 133 95 L 134 94 L 135 95 " stroke="black" stroke-width="1" fill="none"/>
<path d="M 130 89 L 131 88 L 132 88 L 133 89 L 132 90 L 131 90 " stroke="black" stroke-width="1" fill="none"/>
<path d="M 134 85 L 135 86 L 135 93 L 134 94 L 133 93 L 133 91 L 132 90 L 133 89 L 132 88 L 133 87 L 133 86 " stroke="black" stroke-width="1" fill="none"/>
<path d="M 128 85 L 129 85 L 130 86 L 130 93 L 129 94 L 128 94 L 127 93 L 127 86 " stroke="black" stroke-width="1" fill="none"/>
<path d="M 178 50 L 178 81 L 148 98 L 140 96 L 149 103 L 149 133 L 121 150 L 101 139 L 121 150 L 149 134 L 180 151 L 179 184 L 178 152 L 174 149 L 178 153 L 178 183 L 174 187 L 180 184 L 200 195 L 180 183 L 180 150 L 151 133 L 151 105 L 181 87 L 189 91 L 180 87 L 154 103 L 150 100 L 153 98 L 150 100 L 152 103 L 150 134 L 149 102 L 140 96 L 149 98 L 178 82 L 179 50 L 180 84 L 189 89 L 180 83 L 180 50 " stroke="black" stroke-width="1" fill="none"/>
</svg>