<svg xmlns="http://www.w3.org/2000/svg" width="300" height="300" viewBox="0 0 300 300">
<path d="M 226 155 L 225 156 L 224 155 L 224 159 L 223 160 L 222 159 L 222 158 L 221 157 L 221 156 L 219 156 L 219 157 L 218 158 L 218 165 L 220 165 L 220 162 L 220 164 L 219 165 L 218 164 L 218 158 L 220 156 L 221 157 L 221 158 L 223 160 L 224 159 L 224 157 L 225 156 L 226 157 L 226 164 L 225 165 L 224 165 L 223 164 L 223 163 L 222 162 L 222 163 L 223 164 L 223 165 L 226 165 " stroke="black" stroke-width="1" fill="none"/>
<path d="M 200 144 L 200 145 L 203 148 L 203 149 L 214 160 L 216 158 L 213 155 L 216 158 L 214 160 L 209 155 L 209 154 L 200 145 L 201 144 L 202 144 L 211 153 L 202 144 " stroke="black" stroke-width="1" fill="none"/>
<path d="M 144 119 L 143 120 L 142 120 L 142 123 L 141 124 L 140 123 L 140 122 L 139 121 L 139 120 L 137 120 L 137 121 L 136 122 L 136 129 L 138 129 L 138 126 L 138 128 L 137 129 L 136 128 L 136 122 L 138 120 L 139 121 L 139 122 L 141 124 L 142 123 L 142 121 L 143 120 L 144 121 L 144 128 L 143 129 L 142 129 L 141 128 L 141 127 L 140 126 L 140 127 L 141 128 L 141 129 L 144 129 " stroke="black" stroke-width="1" fill="none"/>
<path d="M 142 111 L 140 111 L 140 117 L 141 118 L 142 117 " stroke="black" stroke-width="1" fill="none"/>
<path d="M 140 116 L 141 115 L 142 116 L 142 117 L 141 118 L 140 117 " stroke="black" stroke-width="1" fill="none"/>
<path d="M 141 111 L 142 112 L 142 114 L 141 115 L 140 114 L 140 112 " stroke="black" stroke-width="1" fill="none"/>
<path d="M 144 98 L 143 99 L 142 98 L 142 101 L 141 102 L 140 102 L 139 101 L 139 99 L 136 99 L 136 108 L 139 108 L 139 105 L 140 104 L 141 104 L 142 105 L 142 108 L 143 108 L 144 109 " stroke="black" stroke-width="1" fill="none"/>
<path d="M 139 103 L 140 102 L 141 102 L 142 103 L 141 104 L 140 104 " stroke="black" stroke-width="1" fill="none"/>
<path d="M 143 99 L 144 100 L 144 107 L 143 108 L 142 107 L 142 105 L 141 104 L 142 103 L 141 102 L 142 101 L 142 100 " stroke="black" stroke-width="1" fill="none"/>
<path d="M 137 99 L 138 99 L 139 100 L 139 107 L 138 108 L 137 108 L 136 107 L 136 100 " stroke="black" stroke-width="1" fill="none"/>
<path d="M 243 98 L 213 104 L 197 87 L 190 88 L 208 108 L 200 134 L 167 144 L 149 131 L 149 134 L 165 146 L 155 175 L 124 173 L 116 146 L 133 133 L 133 130 L 114 144 L 80 136 L 57 161 L 67 196 L 103 203 L 125 177 L 156 177 L 178 203 L 214 196 L 223 168 L 220 169 L 211 194 L 204 194 L 208 191 L 183 196 L 185 200 L 178 199 L 161 179 L 159 172 L 164 172 L 170 150 L 167 153 L 166 150 L 170 145 L 199 138 L 212 151 L 200 139 L 202 138 L 215 153 L 202 137 L 210 109 " stroke="black" stroke-width="1" fill="none"/>
<path d="M 185 198 L 186 197 L 189 197 L 190 198 L 189 199 L 186 199 " stroke="black" stroke-width="1" fill="none"/>
<path d="M 189 197 L 190 196 L 193 196 L 194 197 L 193 198 L 190 198 " stroke="black" stroke-width="1" fill="none"/>
<path d="M 184 197 L 185 196 L 186 197 L 185 198 " stroke="black" stroke-width="1" fill="none"/>
<path d="M 193 196 L 194 195 L 198 195 L 199 196 L 198 197 L 194 197 " stroke="black" stroke-width="1" fill="none"/>
<path d="M 198 195 L 199 194 L 204 194 L 205 195 L 204 196 L 199 196 " stroke="black" stroke-width="1" fill="none"/>
<path d="M 207 192 L 206 193 L 205 193 L 204 194 L 199 194 L 198 195 L 194 195 L 193 196 L 190 196 L 189 197 L 186 197 L 185 196 L 186 195 L 188 195 L 189 194 L 192 194 L 193 193 L 196 193 L 197 192 L 202 192 L 203 191 L 206 191 " stroke="black" stroke-width="1" fill="none"/>
<path d="M 64 173 L 65 174 L 65 176 L 64 177 L 63 176 L 63 174 " stroke="black" stroke-width="1" fill="none"/>
<path d="M 63 170 L 64 171 L 64 173 L 63 174 L 62 173 L 62 171 " stroke="black" stroke-width="1" fill="none"/>
<path d="M 161 168 L 162 169 L 162 171 L 161 172 L 160 171 L 160 169 " stroke="black" stroke-width="1" fill="none"/>
<path d="M 64 167 L 65 168 L 65 169 L 66 170 L 66 172 L 67 173 L 67 174 L 68 175 L 68 177 L 69 178 L 69 180 L 70 181 L 70 183 L 71 184 L 71 186 L 72 187 L 72 188 L 71 189 L 69 187 L 69 186 L 68 185 L 68 183 L 67 182 L 67 179 L 66 178 L 66 177 L 65 176 L 65 174 L 64 173 L 64 171 L 63 170 L 63 168 " stroke="black" stroke-width="1" fill="none"/>
<path d="M 162 165 L 163 166 L 163 168 L 162 169 L 161 168 L 161 166 " stroke="black" stroke-width="1" fill="none"/>
<path d="M 163 162 L 164 163 L 164 165 L 163 166 L 162 165 L 162 163 " stroke="black" stroke-width="1" fill="none"/>
<path d="M 166 152 L 167 153 L 167 156 L 166 157 L 166 159 L 165 160 L 165 162 L 164 163 L 163 162 L 163 159 L 164 158 L 164 156 L 165 155 L 165 153 " stroke="black" stroke-width="1" fill="none"/>
<path d="M 169 151 L 170 152 L 170 153 L 169 154 L 169 157 L 168 158 L 168 160 L 167 161 L 167 164 L 166 165 L 166 166 L 165 167 L 165 169 L 164 170 L 164 172 L 163 173 L 162 173 L 161 172 L 162 171 L 162 169 L 163 168 L 163 166 L 164 165 L 164 163 L 165 162 L 165 160 L 166 159 L 166 157 L 167 156 L 167 153 " stroke="black" stroke-width="1" fill="none"/>
<path d="M 95 143 L 96 142 L 99 142 L 100 143 L 99 144 L 96 144 " stroke="black" stroke-width="1" fill="none"/>
<path d="M 91 142 L 92 141 L 95 141 L 96 142 L 95 143 L 92 143 " stroke="black" stroke-width="1" fill="none"/>
<path d="M 85 142 L 86 141 L 87 141 L 88 142 L 91 142 L 92 143 L 95 143 L 96 144 L 99 144 L 100 145 L 102 145 L 103 146 L 106 146 L 108 148 L 107 149 L 106 149 L 105 148 L 102 148 L 101 147 L 99 147 L 98 146 L 95 146 L 94 145 L 91 145 L 90 144 L 87 144 " stroke="black" stroke-width="1" fill="none"/>
<path d="M 87 141 L 88 140 L 91 140 L 92 141 L 91 142 L 88 142 " stroke="black" stroke-width="1" fill="none"/>
<path d="M 242 99 L 211 107 L 202 137 L 168 146 L 159 177 L 175 196 L 185 200 L 212 194 L 222 168 L 213 196 L 179 203 L 156 177 L 125 177 L 102 203 L 67 195 L 60 167 L 72 195 L 102 200 L 117 183 L 102 200 L 68 192 L 65 176 L 70 190 L 72 187 L 60 162 L 81 139 L 106 149 L 109 147 L 99 144 L 111 145 L 122 172 L 119 180 L 122 177 L 114 147 L 81 139 L 60 161 L 59 168 L 58 160 L 81 136 L 114 144 L 132 130 L 116 145 L 124 174 L 156 175 L 165 145 L 150 131 L 167 144 L 197 137 L 211 103 " stroke="black" stroke-width="1" fill="none"/>
<path d="M 117 180 L 111 186 " stroke="black" stroke-width="1" fill="none"/>
<path d="M 119 177 L 118 177 L 117 176 L 112 181 L 112 182 L 104 190 L 104 191 L 101 194 L 101 195 L 102 195 L 103 196 L 104 195 L 104 194 L 110 188 L 103 195 L 102 195 L 101 194 L 109 186 L 109 185 L 117 177 " stroke="black" stroke-width="1" fill="none"/>
<path d="M 192 87 L 194 89 L 196 87 L 200 91 L 200 92 L 201 92 L 211 102 L 211 103 L 210 104 L 206 100 L 210 104 L 210 105 L 208 107 L 198 97 L 198 96 L 197 95 L 197 94 L 196 94 L 193 91 L 192 91 L 190 89 " stroke="black" stroke-width="1" fill="none"/>
<path d="M 200 96 L 204 100 " stroke="black" stroke-width="1" fill="none"/>
<path d="M 185 75 L 184 76 L 184 77 L 183 78 L 183 83 L 184 84 L 184 85 L 185 86 L 190 86 L 192 84 L 192 77 L 190 75 " stroke="black" stroke-width="1" fill="none"/>
<path d="M 186 75 L 189 75 L 192 78 L 192 83 L 189 86 L 186 86 L 184 84 L 184 83 L 183 82 L 183 79 L 184 78 L 184 77 " stroke="black" stroke-width="1" fill="none"/>
<path d="M 187 77 L 186 78 L 186 79 L 185 80 L 185 81 L 186 82 L 186 83 L 187 84 L 188 83 L 189 83 L 190 82 L 190 79 L 189 78 L 188 78 " stroke="black" stroke-width="1" fill="none"/>
<path d="M 187 78 L 189 78 L 190 79 L 190 82 L 189 83 L 187 83 L 185 81 L 185 80 " stroke="black" stroke-width="1" fill="none"/>
</svg>