<svg xmlns="http://www.w3.org/2000/svg" width="300" height="300" viewBox="0 0 300 300">
<path d="M 97 267 L 96 268 L 95 267 L 95 270 L 94 271 L 93 271 L 92 270 L 92 268 L 89 268 L 89 277 L 92 277 L 92 274 L 93 273 L 94 273 L 95 274 L 95 278 L 96 277 L 97 278 " stroke="black" stroke-width="1" fill="none"/>
<path d="M 92 272 L 93 271 L 94 271 L 95 272 L 94 273 L 93 273 " stroke="black" stroke-width="1" fill="none"/>
<path d="M 96 268 L 97 269 L 97 276 L 96 277 L 95 276 L 95 274 L 94 273 L 95 272 L 94 271 L 95 270 L 95 269 " stroke="black" stroke-width="1" fill="none"/>
<path d="M 90 268 L 91 268 L 92 269 L 92 276 L 91 277 L 90 277 L 89 276 L 89 269 " stroke="black" stroke-width="1" fill="none"/>
<path d="M 212 233 " stroke="black" stroke-width="1" fill="none"/>
<path d="M 210 232 " stroke="black" stroke-width="1" fill="none"/>
<path d="M 212 231 " stroke="black" stroke-width="1" fill="none"/>
<path d="M 207 230 " stroke="black" stroke-width="1" fill="none"/>
<path d="M 105 230 " stroke="black" stroke-width="1" fill="none"/>
<path d="M 209 229 " stroke="black" stroke-width="1" fill="none"/>
<path d="M 103 229 " stroke="black" stroke-width="1" fill="none"/>
<path d="M 207 228 " stroke="black" stroke-width="1" fill="none"/>
<path d="M 204 228 " stroke="black" stroke-width="1" fill="none"/>
<path d="M 105 228 " stroke="black" stroke-width="1" fill="none"/>
<path d="M 202 227 " stroke="black" stroke-width="1" fill="none"/>
<path d="M 204 226 " stroke="black" stroke-width="1" fill="none"/>
<path d="M 102 226 L 103 227 " stroke="black" stroke-width="1" fill="none"/>
<path d="M 96 225 L 97 226 L 98 226 L 99 227 L 100 227 L 101 228 L 100 227 L 99 227 L 98 226 L 97 226 " stroke="black" stroke-width="1" fill="none"/>
<path d="M 201 224 L 202 225 " stroke="black" stroke-width="1" fill="none"/>
<path d="M 197 224 L 198 225 L 199 225 L 200 226 L 199 225 L 198 225 " stroke="black" stroke-width="1" fill="none"/>
<path d="M 199 223 " stroke="black" stroke-width="1" fill="none"/>
<path d="M 195 223 " stroke="black" stroke-width="1" fill="none"/>
<path d="M 95 222 L 96 223 L 97 223 L 98 224 L 99 224 L 100 225 L 99 224 L 98 224 L 97 223 L 96 223 " stroke="black" stroke-width="1" fill="none"/>
<path d="M 91 222 L 92 223 L 93 223 L 94 224 L 93 223 L 92 223 " stroke="black" stroke-width="1" fill="none"/>
<path d="M 194 220 L 195 221 L 196 221 L 197 222 L 196 221 L 195 221 " stroke="black" stroke-width="1" fill="none"/>
<path d="M 90 219 L 91 220 L 92 220 L 93 221 L 92 220 L 91 220 " stroke="black" stroke-width="1" fill="none"/>
<path d="M 132 192 L 132 215 L 134 215 L 134 192 " stroke="black" stroke-width="1" fill="none"/>
<path d="M 133 192 L 134 193 L 134 214 L 133 215 L 132 214 L 132 193 " stroke="black" stroke-width="1" fill="none"/>
<path d="M 90 188 " stroke="black" stroke-width="1" fill="none"/>
<path d="M 92 187 " stroke="black" stroke-width="1" fill="none"/>
<path d="M 90 186 " stroke="black" stroke-width="1" fill="none"/>
<path d="M 95 185 " stroke="black" stroke-width="1" fill="none"/>
<path d="M 97 184 " stroke="black" stroke-width="1" fill="none"/>
<path d="M 93 184 L 92 185 " stroke="black" stroke-width="1" fill="none"/>
<path d="M 99 183 " stroke="black" stroke-width="1" fill="none"/>
<path d="M 95 183 " stroke="black" stroke-width="1" fill="none"/>
<path d="M 97 182 " stroke="black" stroke-width="1" fill="none"/>
<path d="M 102 181 L 101 182 " stroke="black" stroke-width="1" fill="none"/>
<path d="M 99 181 " stroke="black" stroke-width="1" fill="none"/>
<path d="M 109 180 L 108 180 L 107 181 L 106 181 L 105 182 L 104 182 L 102 184 L 101 184 L 100 185 L 99 185 L 98 186 L 97 186 L 96 187 L 95 187 L 93 189 L 92 189 L 91 190 L 90 190 L 92 190 L 94 188 L 95 188 L 96 187 L 97 187 L 98 186 L 99 186 L 100 185 L 101 185 L 103 183 L 104 183 L 105 182 L 106 182 L 107 181 L 108 181 " stroke="black" stroke-width="1" fill="none"/>
<path d="M 104 180 " stroke="black" stroke-width="1" fill="none"/>
<path d="M 102 179 " stroke="black" stroke-width="1" fill="none"/>
<path d="M 44 176 L 43 177 L 42 176 L 42 179 L 41 180 L 40 180 L 39 179 L 39 177 L 36 177 L 36 186 L 39 186 L 39 183 L 40 182 L 41 182 L 42 183 L 42 187 L 43 186 L 44 187 " stroke="black" stroke-width="1" fill="none"/>
<path d="M 39 181 L 40 180 L 41 180 L 42 181 L 41 182 L 40 182 " stroke="black" stroke-width="1" fill="none"/>
<path d="M 43 177 L 44 178 L 44 185 L 43 186 L 42 185 L 42 183 L 41 182 L 42 181 L 41 180 L 42 179 L 42 178 " stroke="black" stroke-width="1" fill="none"/>
<path d="M 37 177 L 38 177 L 39 178 L 39 185 L 38 186 L 37 186 L 36 185 L 36 178 " stroke="black" stroke-width="1" fill="none"/>
<path d="M 54 166 L 53 167 L 53 168 L 52 169 L 52 174 L 53 175 L 53 176 L 54 177 L 59 177 L 61 175 L 61 168 L 59 166 " stroke="black" stroke-width="1" fill="none"/>
<path d="M 55 166 L 58 166 L 61 169 L 61 174 L 58 177 L 55 177 L 53 175 L 53 174 L 52 173 L 52 170 L 53 169 L 53 168 " stroke="black" stroke-width="1" fill="none"/>
<path d="M 56 168 L 55 169 L 55 170 L 54 171 L 54 172 L 55 173 L 55 174 L 56 175 L 57 174 L 58 174 L 59 173 L 59 170 L 58 169 L 57 169 " stroke="black" stroke-width="1" fill="none"/>
<path d="M 56 169 L 58 169 L 59 170 L 59 173 L 58 174 L 56 174 L 54 172 L 54 171 " stroke="black" stroke-width="1" fill="none"/>
<path d="M 106 141 " stroke="black" stroke-width="1" fill="none"/>
<path d="M 104 140 " stroke="black" stroke-width="1" fill="none"/>
<path d="M 106 139 " stroke="black" stroke-width="1" fill="none"/>
<path d="M 101 138 " stroke="black" stroke-width="1" fill="none"/>
<path d="M 103 137 " stroke="black" stroke-width="1" fill="none"/>
<path d="M 101 136 " stroke="black" stroke-width="1" fill="none"/>
<path d="M 98 136 " stroke="black" stroke-width="1" fill="none"/>
<path d="M 98 134 " stroke="black" stroke-width="1" fill="none"/>
<path d="M 90 132 L 91 132 L 92 133 L 93 133 L 94 134 L 95 134 L 96 135 L 95 134 L 96 133 L 95 134 L 94 134 L 93 133 L 94 132 L 93 131 L 94 132 L 93 133 L 92 133 L 91 132 " stroke="black" stroke-width="1" fill="none"/>
<path d="M 156 130 L 155 131 L 154 130 L 154 133 L 153 134 L 152 134 L 151 133 L 151 131 L 148 131 L 148 140 L 151 140 L 151 137 L 152 136 L 153 136 L 154 137 L 154 141 L 155 140 L 156 141 " stroke="black" stroke-width="1" fill="none"/>
<path d="M 151 135 L 152 134 L 153 134 L 154 135 L 153 136 L 152 136 " stroke="black" stroke-width="1" fill="none"/>
<path d="M 155 131 L 156 132 L 156 139 L 155 140 L 154 139 L 154 137 L 153 136 L 154 135 L 153 134 L 154 133 L 154 132 " stroke="black" stroke-width="1" fill="none"/>
<path d="M 149 131 L 150 131 L 151 132 L 151 139 L 150 140 L 149 140 L 148 139 L 148 132 " stroke="black" stroke-width="1" fill="none"/>
<path d="M 81 120 L 80 121 L 80 122 L 79 123 L 79 128 L 80 129 L 80 130 L 81 131 L 86 131 L 88 129 L 88 122 L 86 120 " stroke="black" stroke-width="1" fill="none"/>
<path d="M 82 120 L 85 120 L 88 123 L 88 128 L 85 131 L 82 131 L 80 129 L 80 128 L 79 127 L 79 124 L 80 123 L 80 122 " stroke="black" stroke-width="1" fill="none"/>
<path d="M 83 122 L 82 123 L 82 124 L 81 125 L 81 126 L 82 127 L 82 128 L 83 129 L 84 128 L 85 128 L 86 127 L 86 124 L 85 123 L 84 123 " stroke="black" stroke-width="1" fill="none"/>
<path d="M 83 123 L 85 123 L 86 124 L 86 127 L 85 128 L 83 128 L 81 126 L 81 125 " stroke="black" stroke-width="1" fill="none"/>
<path d="M 185 92 " stroke="black" stroke-width="1" fill="none"/>
<path d="M 183 91 " stroke="black" stroke-width="1" fill="none"/>
<path d="M 185 90 " stroke="black" stroke-width="1" fill="none"/>
<path d="M 182 88 L 183 89 " stroke="black" stroke-width="1" fill="none"/>
<path d="M 174 86 L 175 87 L 176 87 L 177 88 L 178 88 L 179 89 L 180 89 L 181 90 L 180 89 L 179 89 L 178 88 L 177 88 L 176 87 L 175 87 " stroke="black" stroke-width="1" fill="none"/>
<path d="M 172 85 " stroke="black" stroke-width="1" fill="none"/>
<path d="M 171 82 L 172 83 L 173 83 L 174 84 L 175 84 L 176 85 L 177 85 L 178 86 L 179 86 L 180 87 L 179 86 L 178 86 L 177 85 L 176 85 L 175 84 L 174 84 L 173 83 L 172 83 " stroke="black" stroke-width="1" fill="none"/>
<path d="M 169 81 " stroke="black" stroke-width="1" fill="none"/>
<path d="M 123 80 L 122 81 L 121 80 L 121 83 L 120 84 L 119 84 L 118 83 L 118 81 L 115 81 L 115 90 L 118 90 L 118 87 L 119 86 L 120 86 L 121 87 L 121 91 L 122 90 L 123 91 " stroke="black" stroke-width="1" fill="none"/>
<path d="M 118 85 L 119 84 L 120 84 L 121 85 L 120 86 L 119 86 " stroke="black" stroke-width="1" fill="none"/>
<path d="M 122 81 L 123 82 L 123 89 L 122 90 L 121 89 L 121 87 L 120 86 L 121 85 L 120 84 L 121 83 L 121 82 " stroke="black" stroke-width="1" fill="none"/>
<path d="M 116 81 L 117 81 L 118 82 L 118 89 L 117 90 L 116 90 L 115 89 L 115 82 " stroke="black" stroke-width="1" fill="none"/>
<path d="M 211 54 L 211 77 L 213 77 L 213 54 " stroke="black" stroke-width="1" fill="none"/>
<path d="M 212 54 L 213 55 L 213 76 L 212 77 L 211 76 L 211 55 " stroke="black" stroke-width="1" fill="none"/>
<path d="M 170 50 L 169 51 " stroke="black" stroke-width="1" fill="none"/>
<path d="M 172 49 " stroke="black" stroke-width="1" fill="none"/>
<path d="M 179 45 " stroke="black" stroke-width="1" fill="none"/>
<path d="M 182 43 L 181 44 " stroke="black" stroke-width="1" fill="none"/>
<path d="M 179 43 " stroke="black" stroke-width="1" fill="none"/>
<path d="M 189 42 L 188 42 L 187 43 L 186 43 L 185 44 L 184 44 L 182 46 L 181 46 L 180 47 L 179 47 L 178 48 L 177 48 L 175 50 L 174 50 L 172 52 L 171 52 L 170 53 L 168 53 L 171 53 L 173 51 L 174 51 L 176 49 L 177 49 L 178 48 L 179 48 L 180 47 L 181 47 L 183 45 L 184 45 L 185 44 L 186 44 L 187 43 L 188 43 " stroke="black" stroke-width="1" fill="none"/>
<path d="M 184 42 " stroke="black" stroke-width="1" fill="none"/>
<path d="M 182 41 " stroke="black" stroke-width="1" fill="none"/>
<path d="M 234 39 L 216 49 L 189 34 L 162 49 L 162 79 L 137 95 L 127 91 L 134 126 L 112 140 L 93 129 L 111 140 L 132 129 L 134 96 L 127 92 L 136 95 L 136 128 L 111 143 L 111 171 L 109 141 L 89 134 L 109 146 L 109 171 L 84 187 L 66 177 L 84 187 L 111 172 L 138 188 L 137 218 L 136 189 L 104 178 L 136 190 L 136 217 L 110 233 L 90 217 L 110 233 L 136 218 L 161 232 L 192 216 L 217 232 L 243 220 L 217 235 L 216 266 L 215 233 L 187 222 L 163 235 L 137 220 L 109 235 L 83 219 L 84 189 L 89 221 L 88 187 L 65 179 L 83 190 L 83 220 L 109 236 L 107 269 L 114 267 L 111 236 L 137 220 L 162 235 L 188 222 L 215 238 L 215 266 L 217 236 L 244 220 L 217 232 L 191 216 L 162 232 L 138 217 L 138 187 L 111 171 L 111 144 L 146 131 L 140 97 L 163 82 L 189 97 L 217 82 L 217 52 L 235 41 L 215 51 L 184 40 L 215 52 L 215 79 L 191 94 L 169 79 L 188 94 L 215 80 L 216 51 L 217 81 L 190 97 L 163 82 L 141 95 L 144 133 L 138 95 L 162 80 L 170 84 L 164 52 L 177 44 L 164 51 L 163 80 L 162 50 L 190 34 L 216 49 " stroke="black" stroke-width="1" fill="none"/>
<path d="M 108 258 L 111 258 L 114 261 L 114 266 L 111 269 L 108 269 L 106 267 L 106 266 L 105 265 L 105 262 L 106 261 L 106 260 " stroke="black" stroke-width="1" fill="none"/>
<path d="M 109 260 L 108 261 L 108 262 L 107 263 L 107 264 L 108 265 L 108 266 L 109 267 L 110 266 L 111 266 L 112 265 L 112 262 L 111 261 L 110 261 " stroke="black" stroke-width="1" fill="none"/>
<path d="M 109 261 L 111 261 L 112 262 L 112 265 L 111 266 L 109 266 L 107 264 L 107 263 " stroke="black" stroke-width="1" fill="none"/>
<path d="M 110 251 L 111 252 L 111 255 L 110 256 L 109 255 L 109 252 " stroke="black" stroke-width="1" fill="none"/>
<path d="M 110 235 L 111 236 L 111 250 L 110 251 L 109 250 L 109 236 " stroke="black" stroke-width="1" fill="none"/>
<path d="M 136 127 L 137 126 L 138 127 L 138 128 L 137 129 L 136 128 " stroke="black" stroke-width="1" fill="none"/>
<path d="M 137 97 L 138 98 L 138 125 L 137 126 L 136 125 L 136 98 " stroke="black" stroke-width="1" fill="none"/>
<path d="M 136 96 L 137 95 L 138 96 L 137 97 " stroke="black" stroke-width="1" fill="none"/>
<path d="M 242 22 L 242 26 L 243 26 L 244 27 L 243 28 L 240 28 L 239 29 L 239 30 L 238 31 L 238 36 L 239 37 L 239 38 L 240 39 L 245 39 L 247 37 L 247 30 L 244 27 L 244 22 " stroke="black" stroke-width="1" fill="none"/>
<path d="M 241 28 L 244 28 L 247 31 L 247 36 L 244 39 L 241 39 L 239 37 L 239 36 L 238 35 L 238 32 L 239 31 L 239 30 " stroke="black" stroke-width="1" fill="none"/>
<path d="M 242 30 L 241 31 L 241 32 L 240 33 L 240 34 L 241 35 L 241 36 L 242 37 L 243 36 L 244 36 L 245 35 L 245 32 L 244 31 L 243 31 " stroke="black" stroke-width="1" fill="none"/>
<path d="M 242 31 L 244 31 L 245 32 L 245 35 L 244 36 L 242 36 L 240 34 L 240 33 " stroke="black" stroke-width="1" fill="none"/>
<path d="M 243 22 L 244 23 L 244 25 L 243 26 L 242 25 L 242 23 " stroke="black" stroke-width="1" fill="none"/>
<path d="M 246 9 L 245 10 L 244 9 L 244 12 L 243 13 L 242 13 L 241 12 L 241 10 L 238 10 L 238 19 L 241 19 L 241 16 L 242 15 L 243 15 L 244 16 L 244 19 L 245 19 L 246 20 " stroke="black" stroke-width="1" fill="none"/>
<path d="M 241 14 L 242 13 L 243 13 L 244 14 L 243 15 L 242 15 " stroke="black" stroke-width="1" fill="none"/>
<path d="M 245 10 L 246 11 L 246 18 L 245 19 L 244 18 L 244 16 L 243 15 L 244 14 L 243 13 L 244 12 L 244 11 " stroke="black" stroke-width="1" fill="none"/>
<path d="M 239 10 L 240 10 L 241 11 L 241 18 L 240 19 L 239 19 L 238 18 L 238 11 " stroke="black" stroke-width="1" fill="none"/>
</svg>