<svg xmlns="http://www.w3.org/2000/svg" width="300" height="300" viewBox="0 0 300 300">
<path d="M 109 231 L 109 238 L 110 238 L 111 239 L 111 236 L 112 235 L 113 235 L 114 236 L 114 238 L 116 238 L 116 231 L 114 231 L 112 233 L 111 232 L 111 230 L 110 231 " stroke="black" stroke-width="1" fill="none"/>
<path d="M 115 231 L 116 232 L 116 237 L 115 238 L 114 237 L 114 235 L 113 234 L 113 233 " stroke="black" stroke-width="1" fill="none"/>
<path d="M 110 231 L 111 232 L 111 233 L 112 233 L 113 234 L 112 235 L 111 235 L 111 237 L 110 238 L 109 237 L 109 232 " stroke="black" stroke-width="1" fill="none"/>
<path d="M 220 216 L 221 217 L 223 217 L 224 218 L 225 218 L 226 219 L 229 219 L 230 220 L 232 220 L 233 221 L 235 221 L 236 222 L 239 222 L 238 221 L 239 220 L 237 220 L 236 219 L 234 219 L 233 218 L 231 218 L 230 217 L 228 217 L 227 216 L 225 216 L 223 214 L 221 214 L 222 214 L 223 215 L 224 215 L 225 216 L 227 216 L 228 217 L 230 217 L 231 218 L 233 218 L 234 219 L 236 219 L 238 221 L 237 222 L 236 222 L 235 221 L 233 221 L 232 220 L 230 220 L 229 219 L 226 219 L 225 218 L 224 218 L 223 217 L 222 217 L 221 216 " stroke="black" stroke-width="1" fill="none"/>
<path d="M 213 207 L 212 208 L 211 208 L 210 209 L 210 214 L 212 216 L 216 216 L 218 214 L 218 209 L 216 207 " stroke="black" stroke-width="1" fill="none"/>
<path d="M 213 207 L 215 207 L 218 210 L 218 213 L 215 216 L 212 216 L 210 214 L 210 210 " stroke="black" stroke-width="1" fill="none"/>
<path d="M 214 209 L 212 211 L 212 212 L 214 214 L 215 213 L 215 210 " stroke="black" stroke-width="1" fill="none"/>
<path d="M 214 209 L 215 210 L 215 213 L 214 214 L 212 212 L 212 211 " stroke="black" stroke-width="1" fill="none"/>
<path d="M 52 195 L 50 197 L 50 202 L 52 204 L 56 204 L 58 202 L 58 197 L 56 195 " stroke="black" stroke-width="1" fill="none"/>
<path d="M 52 195 L 55 195 L 58 198 L 58 201 L 55 204 L 52 204 L 50 202 L 50 198 L 51 197 L 51 196 " stroke="black" stroke-width="1" fill="none"/>
<path d="M 54 197 L 52 199 L 52 200 L 54 202 L 55 201 L 55 198 " stroke="black" stroke-width="1" fill="none"/>
<path d="M 54 197 L 55 198 L 55 201 L 54 202 L 52 200 L 52 199 " stroke="black" stroke-width="1" fill="none"/>
<path d="M 92 193 " stroke="black" stroke-width="1" fill="none"/>
<path d="M 81 189 " stroke="black" stroke-width="1" fill="none"/>
<path d="M 83 188 L 84 189 L 83 190 L 84 191 L 83 190 L 84 189 L 85 189 L 86 190 L 87 190 L 88 191 L 89 191 L 90 192 L 89 191 L 88 191 L 87 190 L 86 190 L 85 189 L 84 189 " stroke="black" stroke-width="1" fill="none"/>
<path d="M 29 188 L 30 189 L 31 189 L 32 190 L 33 190 L 35 192 L 36 192 L 37 193 L 38 193 L 39 194 L 40 194 L 41 195 L 42 195 L 44 197 L 46 197 L 45 197 L 44 196 L 43 196 L 42 195 L 41 195 L 40 194 L 39 194 L 37 192 L 36 192 L 35 191 L 34 191 L 32 189 L 31 189 L 30 188 " stroke="black" stroke-width="1" fill="none"/>
<path d="M 81 187 " stroke="black" stroke-width="1" fill="none"/>
<path d="M 30 186 L 31 186 L 32 187 L 33 187 L 35 189 L 36 189 L 37 190 L 38 190 L 40 192 L 41 192 L 42 193 L 43 193 L 44 194 L 45 194 L 46 195 L 47 195 L 46 194 L 44 194 L 42 192 L 41 192 L 40 191 L 39 191 L 37 189 L 36 189 L 35 188 L 34 188 L 32 186 " stroke="black" stroke-width="1" fill="none"/>
<path d="M 251 172 L 249 174 L 249 179 L 251 181 L 255 181 L 257 179 L 257 174 L 255 172 " stroke="black" stroke-width="1" fill="none"/>
<path d="M 251 172 L 254 172 L 257 175 L 257 178 L 254 181 L 251 181 L 249 179 L 249 175 L 250 174 L 250 173 " stroke="black" stroke-width="1" fill="none"/>
<path d="M 253 174 L 251 176 L 251 177 L 253 179 L 254 178 L 254 175 " stroke="black" stroke-width="1" fill="none"/>
<path d="M 253 174 L 254 175 L 254 178 L 253 179 L 251 177 L 251 176 " stroke="black" stroke-width="1" fill="none"/>
<path d="M 117 164 L 117 184 L 119 184 L 119 164 " stroke="black" stroke-width="1" fill="none"/>
<path d="M 118 164 L 119 165 L 119 183 L 118 184 L 117 183 L 117 165 " stroke="black" stroke-width="1" fill="none"/>
<path d="M 81 161 " stroke="black" stroke-width="1" fill="none"/>
<path d="M 81 159 " stroke="black" stroke-width="1" fill="none"/>
<path d="M 272 158 L 271 158 L 268 161 L 267 161 L 259 169 L 261 171 L 266 166 L 267 166 L 273 160 L 272 160 L 261 171 L 259 169 L 260 168 L 261 168 L 271 158 " stroke="black" stroke-width="1" fill="none"/>
<path d="M 89 154 L 88 155 L 87 155 L 86 156 L 87 155 L 88 155 " stroke="black" stroke-width="1" fill="none"/>
<path d="M 99 148 L 91 153 L 95 151 L 96 152 L 94 154 L 85 159 L 83 158 L 84 157 L 83 160 L 96 152 L 97 154 L 95 156 L 81 163 L 83 163 L 98 154 L 97 152 L 95 151 L 99 148 L 102 151 L 118 160 L 121 163 L 121 185 L 118 188 L 101 197 L 99 199 L 96 197 L 97 196 L 96 195 L 98 194 L 89 188 L 83 185 L 81 185 L 95 192 L 97 194 L 96 195 L 94 194 L 95 195 L 94 196 L 86 192 L 99 199 L 121 186 L 121 162 " stroke="black" stroke-width="1" fill="none"/>
<path d="M 94 196 L 95 195 L 96 195 L 97 196 L 96 197 L 95 197 " stroke="black" stroke-width="1" fill="none"/>
<path d="M 151 135 L 150 135 L 149 136 L 148 136 L 148 138 L 149 138 L 148 137 L 150 135 L 151 136 L 151 137 " stroke="black" stroke-width="1" fill="none"/>
<path d="M 149 140 L 148 145 L 152 145 L 174 153 L 176 155 L 178 168 L 179 169 L 181 179 L 193 183 L 196 185 L 204 187 L 207 191 L 210 206 L 212 205 L 212 202 L 211 201 L 211 197 L 208 188 L 227 171 L 231 171 L 246 176 L 245 175 L 246 174 L 239 171 L 230 169 L 228 167 L 222 142 L 220 142 L 217 140 L 208 137 L 205 137 L 198 134 L 195 134 L 177 151 L 174 151 L 171 149 L 166 148 L 163 146 L 154 143 L 151 145 L 149 145 L 148 143 L 151 142 L 152 139 " stroke="black" stroke-width="1" fill="none"/>
<path d="M 182 167 L 183 168 L 183 171 L 182 172 L 181 171 L 181 168 " stroke="black" stroke-width="1" fill="none"/>
<path d="M 181 162 L 182 163 L 182 167 L 181 168 L 180 167 L 180 163 " stroke="black" stroke-width="1" fill="none"/>
<path d="M 153 143 L 157 144 L 158 145 L 160 145 L 161 146 L 163 146 L 166 148 L 171 149 L 174 151 L 177 151 L 179 153 L 178 154 L 179 156 L 179 161 L 179 157 L 181 156 L 183 158 L 184 166 L 185 167 L 185 170 L 186 171 L 186 173 L 185 174 L 183 171 L 181 159 L 180 167 L 181 168 L 181 171 L 182 172 L 182 175 L 184 178 L 189 179 L 192 181 L 194 181 L 195 182 L 197 182 L 198 183 L 200 183 L 204 185 L 207 185 L 209 187 L 208 188 L 209 189 L 209 192 L 210 193 L 210 196 L 211 197 L 211 201 L 212 202 L 212 204 L 211 205 L 209 203 L 209 199 L 208 198 L 207 191 L 205 187 L 202 187 L 201 186 L 196 185 L 193 183 L 191 183 L 185 180 L 183 180 L 181 178 L 180 176 L 180 173 L 179 172 L 179 169 L 178 168 L 178 164 L 177 163 L 177 158 L 176 157 L 176 154 L 175 153 L 170 152 L 167 150 L 165 150 L 164 149 L 156 147 L 152 144 " stroke="black" stroke-width="1" fill="none"/>
<path d="M 200 141 L 201 140 L 203 140 L 204 141 L 206 141 L 207 142 L 209 142 L 210 143 L 212 143 L 213 144 L 215 144 L 216 145 L 216 146 L 215 147 L 214 146 L 212 146 L 211 145 L 209 145 L 208 144 L 206 144 L 205 143 L 203 143 L 202 142 L 201 142 " stroke="black" stroke-width="1" fill="none"/>
<path d="M 199 140 L 200 139 L 201 140 L 200 141 " stroke="black" stroke-width="1" fill="none"/>
<path d="M 151 139 L 152 140 L 152 141 L 151 142 L 150 142 L 149 141 " stroke="black" stroke-width="1" fill="none"/>
<path d="M 200 139 L 201 138 L 203 138 L 204 139 L 203 140 L 201 140 " stroke="black" stroke-width="1" fill="none"/>
<path d="M 196 137 L 200 137 L 201 138 L 200 139 L 198 139 L 199 140 L 198 141 L 200 142 L 202 142 L 203 143 L 205 143 L 206 144 L 208 144 L 209 145 L 217 147 L 216 146 L 217 145 L 213 144 L 212 143 L 210 143 L 209 142 L 207 142 L 206 141 L 204 141 L 203 140 L 204 139 L 207 139 L 208 140 L 210 140 L 211 141 L 213 141 L 214 142 L 218 143 L 221 147 L 221 150 L 222 151 L 222 154 L 223 155 L 223 159 L 224 160 L 224 163 L 225 164 L 225 167 L 226 168 L 217 177 L 225 169 L 226 171 L 209 187 L 208 185 L 215 178 L 209 184 L 207 185 L 204 185 L 203 184 L 201 184 L 200 183 L 192 181 L 189 179 L 187 179 L 182 175 L 182 172 L 183 171 L 184 172 L 184 174 L 186 175 L 186 171 L 185 170 L 185 167 L 184 166 L 184 162 L 183 161 L 182 155 L 181 156 L 179 156 L 178 154 L 181 151 L 182 151 " stroke="black" stroke-width="1" fill="none"/>
<path d="M 221 170 L 215 176 " stroke="black" stroke-width="1" fill="none"/>
<path d="M 222 168 L 220 168 L 218 170 L 217 170 L 207 180 L 207 182 L 208 182 L 207 181 L 220 168 " stroke="black" stroke-width="1" fill="none"/>
<path d="M 178 151 L 193 136 L 194 136 L 196 134 L 198 134 L 199 135 L 201 135 L 202 136 L 204 136 L 205 137 L 208 137 L 209 138 L 211 138 L 212 139 L 217 140 L 218 141 L 221 142 L 223 145 L 223 148 L 224 149 L 224 152 L 225 153 L 225 157 L 226 158 L 226 161 L 227 162 L 227 165 L 228 166 L 228 168 L 229 169 L 232 169 L 233 170 L 235 170 L 236 171 L 239 171 L 242 173 L 244 173 L 245 174 L 245 175 L 244 176 L 243 175 L 241 175 L 240 174 L 238 174 L 237 173 L 235 173 L 234 172 L 232 172 L 231 171 L 227 171 L 225 169 L 226 168 L 225 167 L 225 164 L 224 163 L 224 160 L 223 159 L 223 155 L 222 154 L 222 151 L 221 150 L 221 147 L 220 146 L 220 144 L 219 144 L 216 142 L 214 142 L 213 141 L 211 141 L 210 140 L 208 140 L 207 139 L 204 139 L 203 138 L 201 138 L 200 137 L 196 137 L 179 153 L 178 152 " stroke="black" stroke-width="1" fill="none"/>
<path d="M 148 132 L 148 134 " stroke="black" stroke-width="1" fill="none"/>
<path d="M 150 131 L 150 133 " stroke="black" stroke-width="1" fill="none"/>
<path d="M 149 127 L 147 127 L 147 130 L 148 130 L 149 129 " stroke="black" stroke-width="1" fill="none"/>
<path d="M 147 128 L 148 127 L 149 128 L 149 129 L 148 130 L 147 129 " stroke="black" stroke-width="1" fill="none"/>
<path d="M 146 124 L 146 125 " stroke="black" stroke-width="1" fill="none"/>
<path d="M 149 71 L 147 73 L 147 78 L 149 80 L 153 80 L 155 78 L 155 73 L 153 71 " stroke="black" stroke-width="1" fill="none"/>
<path d="M 149 71 L 152 71 L 155 74 L 155 77 L 152 80 L 149 80 L 147 78 L 147 74 L 148 73 L 148 72 " stroke="black" stroke-width="1" fill="none"/>
<path d="M 151 73 L 149 75 L 149 76 L 151 78 L 152 77 L 152 74 " stroke="black" stroke-width="1" fill="none"/>
<path d="M 151 73 L 152 74 L 152 77 L 151 78 L 149 76 L 149 75 " stroke="black" stroke-width="1" fill="none"/>
<path d="M 114 67 L 112 68 L 126 79 L 122 81 L 108 70 L 123 85 L 121 105 L 97 117 L 98 145 L 75 160 L 75 185 L 60 195 L 75 186 L 79 188 L 79 160 L 76 186 L 75 161 L 100 146 L 121 159 L 123 187 L 100 201 L 76 188 L 61 197 L 76 188 L 96 200 L 98 231 L 104 229 L 104 224 L 98 221 L 100 202 L 123 188 L 123 160 L 100 145 L 100 124 L 120 109 L 147 121 L 165 100 L 155 81 L 153 84 L 162 99 L 146 117 L 125 108 L 123 104 L 126 83 L 144 77 L 127 79 " stroke="black" stroke-width="1" fill="none"/>
<path d="M 99 222 L 101 222 L 104 225 L 104 228 L 101 231 L 98 231 L 96 229 L 96 225 " stroke="black" stroke-width="1" fill="none"/>
<path d="M 100 224 L 98 226 L 98 227 L 100 229 L 101 228 L 101 225 " stroke="black" stroke-width="1" fill="none"/>
<path d="M 100 224 L 101 225 L 101 228 L 100 229 L 98 227 L 98 226 " stroke="black" stroke-width="1" fill="none"/>
<path d="M 99 215 L 100 216 L 100 219 L 99 220 L 98 219 L 98 216 " stroke="black" stroke-width="1" fill="none"/>
<path d="M 99 201 L 100 202 L 100 214 L 99 215 L 98 214 L 98 202 " stroke="black" stroke-width="1" fill="none"/>
<path d="M 99 123 L 100 124 L 100 145 L 99 146 L 98 145 L 98 124 " stroke="black" stroke-width="1" fill="none"/>
<path d="M 164 96 L 164 98 L 165 99 L 164 100 L 164 101 L 147 119 L 148 120 L 147 121 L 146 121 L 144 119 L 143 119 L 132 113 L 130 113 L 129 112 L 128 112 L 127 111 L 125 111 L 122 109 L 119 109 L 117 111 L 116 111 L 114 113 L 113 113 L 110 116 L 109 116 L 106 119 L 105 119 L 102 122 L 101 122 L 101 123 L 100 124 L 98 122 L 98 120 L 97 119 L 97 118 L 98 117 L 99 117 L 102 115 L 104 115 L 105 114 L 116 109 L 118 107 L 120 107 L 121 106 L 122 106 L 124 108 L 126 108 L 129 110 L 131 110 L 144 117 L 146 117 L 162 100 L 162 97 L 160 95 L 159 92 L 157 90 L 156 87 L 153 83 L 154 82 L 155 82 L 157 84 L 159 89 L 161 91 L 162 94 " stroke="black" stroke-width="1" fill="none"/>
<path d="M 143 78 L 141 80 L 136 80 L 135 81 L 130 81 L 129 82 L 128 82 L 127 81 L 127 80 L 128 79 L 133 79 L 134 78 L 139 78 L 140 77 L 142 77 " stroke="black" stroke-width="1" fill="none"/>
<path d="M 113 72 L 122 81 L 123 81 L 124 82 L 124 81 L 126 79 L 127 80 L 127 81 L 126 82 L 126 85 L 125 86 L 125 92 L 124 93 L 124 103 L 123 104 L 123 105 L 122 106 L 121 105 L 121 100 L 122 99 L 122 91 L 123 90 L 123 84 L 122 83 L 121 83 L 112 74 L 112 73 " stroke="black" stroke-width="1" fill="none"/>
<path d="M 104 59 L 102 61 L 102 66 L 104 68 L 108 68 L 110 66 L 110 61 L 108 59 " stroke="black" stroke-width="1" fill="none"/>
<path d="M 104 59 L 107 59 L 110 62 L 110 65 L 107 68 L 104 68 L 102 66 L 102 62 L 103 61 L 103 60 " stroke="black" stroke-width="1" fill="none"/>
<path d="M 106 61 L 104 63 L 104 64 L 106 66 L 107 65 L 107 62 " stroke="black" stroke-width="1" fill="none"/>
<path d="M 106 61 L 107 62 L 107 65 L 106 66 L 104 64 L 104 63 " stroke="black" stroke-width="1" fill="none"/>
</svg>