<svg xmlns="http://www.w3.org/2000/svg" width="300" height="300" viewBox="0 0 300 300">
<path d="M 143 253 L 143 260 L 144 260 L 145 261 L 145 258 L 146 257 L 147 257 L 148 258 L 148 260 L 150 260 L 150 253 L 148 253 L 146 255 L 145 254 L 145 252 L 144 253 " stroke="black" stroke-width="1" fill="none"/>
<path d="M 149 253 L 150 254 L 150 259 L 149 260 L 148 259 L 148 257 L 147 256 L 147 255 " stroke="black" stroke-width="1" fill="none"/>
<path d="M 144 253 L 145 254 L 145 255 L 146 255 L 147 256 L 146 257 L 145 257 L 145 259 L 144 260 L 143 259 L 143 254 " stroke="black" stroke-width="1" fill="none"/>
<path d="M 162 246 L 160 248 L 160 249 L 162 251 L 163 250 L 163 247 " stroke="black" stroke-width="1" fill="none"/>
<path d="M 162 246 L 163 247 L 163 250 L 162 251 L 160 249 L 160 248 " stroke="black" stroke-width="1" fill="none"/>
<path d="M 164 244 L 163 244 L 166 247 L 166 250 L 163 253 L 160 253 L 158 251 L 158 247 L 160 245 L 159 245 L 158 246 L 158 251 L 160 253 L 164 253 L 166 251 L 166 246 " stroke="black" stroke-width="1" fill="none"/>
<path d="M 204 218 L 202 220 L 202 225 L 204 227 L 208 227 L 210 225 L 210 220 L 208 218 " stroke="black" stroke-width="1" fill="none"/>
<path d="M 204 218 L 207 218 L 210 221 L 210 224 L 207 227 L 204 227 L 202 225 L 202 221 L 203 220 L 203 219 " stroke="black" stroke-width="1" fill="none"/>
<path d="M 206 220 L 204 222 L 204 223 L 206 225 L 207 224 L 207 221 " stroke="black" stroke-width="1" fill="none"/>
<path d="M 206 220 L 207 221 L 207 224 L 206 225 L 204 223 L 204 222 " stroke="black" stroke-width="1" fill="none"/>
<path d="M 116 218 L 114 220 L 114 225 L 116 227 L 120 227 L 122 225 L 122 220 L 120 218 " stroke="black" stroke-width="1" fill="none"/>
<path d="M 116 218 L 119 218 L 122 221 L 122 224 L 119 227 L 116 227 L 114 225 L 114 221 L 115 220 L 115 219 " stroke="black" stroke-width="1" fill="none"/>
<path d="M 118 220 L 116 222 L 116 223 L 118 225 L 119 224 L 119 221 " stroke="black" stroke-width="1" fill="none"/>
<path d="M 118 220 L 119 221 L 119 224 L 118 225 L 116 223 L 116 222 " stroke="black" stroke-width="1" fill="none"/>
<path d="M 214 212 L 214 219 L 215 219 L 216 220 L 216 217 L 217 216 L 218 216 L 219 217 L 219 219 L 221 219 L 221 212 L 219 212 L 217 214 L 216 213 L 216 211 L 215 212 " stroke="black" stroke-width="1" fill="none"/>
<path d="M 220 212 L 221 213 L 221 218 L 220 219 L 219 218 L 219 216 L 218 215 L 218 214 " stroke="black" stroke-width="1" fill="none"/>
<path d="M 215 212 L 216 213 L 216 214 L 217 214 L 218 215 L 217 216 L 216 216 L 216 218 L 215 219 L 214 218 L 214 213 " stroke="black" stroke-width="1" fill="none"/>
<path d="M 100 212 L 100 219 L 101 219 L 102 220 L 102 217 L 103 216 L 104 216 L 105 217 L 105 219 L 107 219 L 107 212 L 105 212 L 103 214 L 102 213 L 102 211 L 101 212 " stroke="black" stroke-width="1" fill="none"/>
<path d="M 106 212 L 107 213 L 107 218 L 106 219 L 105 218 L 105 216 L 104 215 L 104 214 " stroke="black" stroke-width="1" fill="none"/>
<path d="M 101 212 L 102 213 L 102 214 L 103 214 L 104 215 L 103 216 L 102 216 L 102 218 L 101 219 L 100 218 L 100 213 " stroke="black" stroke-width="1" fill="none"/>
<path d="M 136 210 L 135 210 L 133 212 L 132 212 L 131 213 L 130 213 L 129 214 L 126 214 L 125 215 L 124 215 L 124 218 L 125 218 L 127 220 L 126 221 L 125 221 L 124 220 L 124 221 L 125 222 L 126 221 L 127 221 L 134 214 L 135 214 L 136 213 L 137 213 L 137 212 L 135 214 L 133 214 L 131 216 L 130 215 L 130 214 L 132 212 L 133 212 L 134 211 L 135 211 " stroke="black" stroke-width="1" fill="none"/>
<path d="M 124 216 L 125 215 L 128 218 L 128 219 L 127 220 L 124 217 " stroke="black" stroke-width="1" fill="none"/>
<path d="M 126 215 L 127 214 L 129 214 L 131 216 L 130 217 L 130 218 L 129 219 L 126 216 " stroke="black" stroke-width="1" fill="none"/>
<path d="M 56 177 L 56 184 L 57 184 L 58 185 L 58 182 L 59 181 L 60 181 L 61 182 L 61 184 L 63 184 L 63 177 L 61 177 L 59 179 L 58 178 L 58 176 L 57 177 " stroke="black" stroke-width="1" fill="none"/>
<path d="M 62 177 L 63 178 L 63 183 L 62 184 L 61 183 L 61 181 L 60 180 L 60 179 " stroke="black" stroke-width="1" fill="none"/>
<path d="M 57 177 L 58 178 L 58 179 L 59 179 L 60 180 L 59 181 L 58 181 L 58 183 L 57 184 L 56 183 L 56 178 " stroke="black" stroke-width="1" fill="none"/>
<path d="M 206 170 L 204 172 L 204 173 L 206 175 L 207 174 L 207 171 " stroke="black" stroke-width="1" fill="none"/>
<path d="M 206 170 L 207 171 L 207 174 L 206 175 L 204 173 L 204 172 " stroke="black" stroke-width="1" fill="none"/>
<path d="M 208 168 L 207 168 L 210 171 L 210 174 L 207 177 L 204 177 L 202 175 L 202 171 L 204 169 L 203 169 L 202 170 L 202 175 L 204 177 L 208 177 L 210 175 L 210 170 " stroke="black" stroke-width="1" fill="none"/>
<path d="M 160 168 L 158 170 L 158 175 L 160 177 L 164 177 L 166 175 L 166 170 L 164 168 " stroke="black" stroke-width="1" fill="none"/>
<path d="M 160 168 L 163 168 L 166 171 L 166 174 L 163 177 L 160 177 L 158 175 L 158 171 L 159 170 L 159 169 " stroke="black" stroke-width="1" fill="none"/>
<path d="M 162 170 L 160 172 L 160 173 L 162 175 L 163 174 L 163 171 " stroke="black" stroke-width="1" fill="none"/>
<path d="M 162 170 L 163 171 L 163 174 L 162 175 L 160 173 L 160 172 " stroke="black" stroke-width="1" fill="none"/>
<path d="M 70 163 L 70 166 L 75 166 L 76 167 L 75 168 L 72 168 L 70 170 L 70 175 L 72 177 L 76 177 L 78 175 L 78 170 L 76 168 L 76 167 L 75 166 L 75 164 L 74 164 L 75 165 L 74 166 L 71 166 L 70 165 L 70 164 L 71 163 " stroke="black" stroke-width="1" fill="none"/>
<path d="M 72 168 L 75 168 L 78 171 L 78 174 L 75 177 L 72 177 L 70 175 L 70 171 L 71 170 L 71 169 " stroke="black" stroke-width="1" fill="none"/>
<path d="M 74 170 L 72 172 L 72 173 L 74 175 L 75 174 L 75 171 " stroke="black" stroke-width="1" fill="none"/>
<path d="M 74 170 L 75 171 L 75 174 L 74 175 L 72 173 L 72 172 " stroke="black" stroke-width="1" fill="none"/>
<path d="M 75 160 L 74 159 L 73 160 L 71 160 L 71 161 L 72 160 L 73 160 L 74 161 " stroke="black" stroke-width="1" fill="none"/>
<path d="M 114 145 L 116 152 L 115 176 L 138 187 L 138 210 L 138 186 L 116 176 L 118 169 L 140 185 L 141 211 L 161 222 L 180 211 L 183 212 L 161 224 L 160 227 L 157 222 L 139 212 L 159 224 L 158 242 L 163 242 L 161 232 L 163 223 L 183 212 L 194 220 L 199 219 L 199 216 L 192 215 L 184 209 L 184 186 L 198 179 L 199 176 L 197 174 L 183 183 L 168 177 L 168 179 L 182 187 L 182 209 L 161 222 L 140 209 L 140 187 L 155 178 L 141 186 L 140 184 L 154 176 L 140 184 L 120 171 L 118 168 L 118 154 L 116 153 L 122 150 L 122 145 L 120 143 " stroke="black" stroke-width="1" fill="none"/>
<path d="M 160 231 L 162 233 L 162 236 L 163 237 L 163 241 L 162 242 L 159 242 L 157 240 L 158 239 L 158 233 " stroke="black" stroke-width="1" fill="none"/>
<path d="M 160 227 L 161 228 L 161 230 L 160 231 L 159 230 L 159 228 " stroke="black" stroke-width="1" fill="none"/>
<path d="M 193 216 L 194 215 L 195 215 L 196 216 L 195 217 L 196 216 L 198 216 L 199 217 L 199 218 L 198 219 L 197 219 L 196 220 L 195 220 L 193 218 " stroke="black" stroke-width="1" fill="none"/>
<path d="M 192 215 L 193 214 L 194 215 L 193 216 " stroke="black" stroke-width="1" fill="none"/>
<path d="M 187 213 L 188 212 L 189 213 L 190 213 L 193 216 L 192 217 L 191 217 L 189 215 L 188 215 L 187 214 " stroke="black" stroke-width="1" fill="none"/>
<path d="M 196 174 L 199 177 L 197 179 L 196 179 L 195 180 L 193 180 L 192 181 L 190 181 L 189 182 L 188 182 L 186 184 L 185 184 L 184 185 L 184 210 L 185 210 L 187 212 L 187 213 L 186 214 L 185 213 L 184 213 L 181 210 L 182 209 L 182 186 L 181 186 L 180 185 L 179 185 L 178 184 L 177 184 L 175 182 L 174 182 L 172 180 L 171 180 L 169 178 L 170 177 L 171 177 L 172 178 L 173 178 L 175 180 L 176 180 L 177 181 L 178 181 L 180 183 L 181 183 L 182 184 L 184 182 L 185 182 L 187 180 L 188 180 L 191 177 L 192 177 L 194 175 L 195 175 " stroke="black" stroke-width="1" fill="none"/>
<path d="M 117 159 L 118 160 L 118 169 L 117 170 L 116 169 L 116 160 " stroke="black" stroke-width="1" fill="none"/>
<path d="M 117 154 L 118 155 L 118 158 L 117 159 L 116 158 L 116 155 " stroke="black" stroke-width="1" fill="none"/>
<path d="M 116 143 L 119 143 L 122 146 L 122 149 L 119 152 L 117 152 L 116 151 L 115 151 L 114 150 L 114 146 L 115 145 L 115 144 " stroke="black" stroke-width="1" fill="none"/>
<path d="M 118 145 L 116 147 L 116 148 L 118 150 L 119 149 L 119 146 " stroke="black" stroke-width="1" fill="none"/>
<path d="M 118 145 L 119 146 L 119 149 L 118 150 L 116 148 L 116 147 " stroke="black" stroke-width="1" fill="none"/>
<path d="M 29 143 L 27 145 L 27 150 L 29 152 L 33 152 L 35 150 L 35 145 L 33 143 " stroke="black" stroke-width="1" fill="none"/>
<path d="M 29 143 L 32 143 L 35 146 L 35 149 L 32 152 L 29 152 L 27 150 L 27 146 L 28 145 L 28 144 " stroke="black" stroke-width="1" fill="none"/>
<path d="M 31 145 L 29 147 L 29 148 L 31 150 L 32 149 L 32 146 " stroke="black" stroke-width="1" fill="none"/>
<path d="M 31 145 L 32 146 L 32 149 L 31 150 L 29 148 L 29 147 " stroke="black" stroke-width="1" fill="none"/>
<path d="M 12 136 L 12 143 L 13 143 L 14 144 L 14 141 L 15 140 L 16 140 L 17 141 L 17 143 L 19 143 L 19 136 L 17 136 L 15 138 L 14 137 L 14 135 L 13 136 " stroke="black" stroke-width="1" fill="none"/>
<path d="M 18 136 L 19 137 L 19 142 L 18 143 L 17 142 L 17 140 L 16 139 L 16 138 " stroke="black" stroke-width="1" fill="none"/>
<path d="M 13 136 L 14 137 L 14 138 L 15 138 L 16 139 L 15 140 L 14 140 L 14 142 L 13 143 L 12 142 L 12 137 " stroke="black" stroke-width="1" fill="none"/>
<path d="M 182 130 L 180 132 L 180 137 L 182 139 L 186 139 L 187 138 L 186 137 L 186 136 L 185 136 L 184 137 L 182 135 L 182 134 L 184 132 L 185 133 L 186 133 L 186 132 L 187 131 L 186 130 " stroke="black" stroke-width="1" fill="none"/>
<path d="M 182 130 L 185 130 L 186 131 L 186 132 L 185 133 L 184 132 L 182 134 L 182 135 L 184 137 L 185 136 L 186 137 L 186 138 L 185 139 L 182 139 L 181 138 L 181 137 L 180 136 L 180 133 L 181 132 L 181 131 " stroke="black" stroke-width="1" fill="none"/>
<path d="M 169 127 L 170 128 " stroke="black" stroke-width="1" fill="none"/>
<path d="M 168 122 L 168 124 L 167 125 L 167 126 L 166 127 L 165 127 L 165 128 L 164 129 L 165 130 L 166 130 L 167 131 L 168 131 L 170 133 L 171 133 L 172 134 L 173 134 L 174 135 L 176 135 L 176 131 L 174 129 L 175 128 L 174 129 L 173 129 L 172 128 L 172 127 L 171 126 L 172 127 L 172 128 L 173 129 L 174 129 L 175 130 L 174 131 L 175 130 L 176 131 L 176 134 L 175 135 L 174 134 L 173 134 L 172 133 L 171 133 L 169 131 L 170 130 L 169 131 L 168 131 L 167 130 L 166 130 L 165 129 L 165 128 L 166 127 L 167 128 L 167 125 L 168 124 L 168 123 L 169 122 L 171 124 L 172 124 L 173 125 L 174 125 L 175 126 L 176 126 L 177 127 L 177 129 L 177 128 L 178 127 L 177 126 L 176 126 L 175 125 L 174 125 L 173 124 L 172 124 L 170 122 " stroke="black" stroke-width="1" fill="none"/>
<path d="M 157 118 L 157 126 L 158 125 L 159 126 L 159 124 L 160 123 L 161 124 L 161 125 L 163 125 L 164 124 L 164 118 " stroke="black" stroke-width="1" fill="none"/>
<path d="M 160 119 L 161 118 L 162 119 L 161 120 " stroke="black" stroke-width="1" fill="none"/>
<path d="M 157 119 L 158 118 L 159 118 L 160 119 L 160 120 L 161 120 L 163 118 L 164 119 L 164 124 L 163 125 L 162 125 L 161 124 L 161 123 L 160 123 L 158 125 L 157 124 " stroke="black" stroke-width="1" fill="none"/>
<path d="M 48 107 L 50 107 " stroke="black" stroke-width="1" fill="none"/>
<path d="M 36 102 L 36 105 L 37 105 L 38 104 L 40 104 L 42 106 L 44 106 L 45 107 L 46 107 L 46 106 L 47 105 L 45 103 L 44 103 L 41 100 L 38 100 L 38 101 L 37 102 " stroke="black" stroke-width="1" fill="none"/>
<path d="M 44 103 L 46 105 L 46 106 L 45 107 L 44 106 L 43 106 L 42 105 " stroke="black" stroke-width="1" fill="none"/>
<path d="M 43 102 L 44 103 L 42 105 L 41 105 L 40 104 L 42 102 " stroke="black" stroke-width="1" fill="none"/>
<path d="M 36 104 L 36 103 L 37 102 L 38 102 L 38 101 L 39 100 L 40 100 L 42 102 L 40 104 L 38 104 L 37 105 " stroke="black" stroke-width="1" fill="none"/>
<path d="M 36 139 L 37 143 L 40 144 L 51 136 L 72 150 L 71 157 L 74 157 L 71 155 L 74 154 L 74 150 L 95 136 L 107 145 L 111 143 L 111 140 L 96 132 L 96 116 L 94 115 L 100 112 L 100 107 L 98 105 L 92 107 L 92 112 L 94 114 L 94 133 L 73 147 L 52 133 L 52 111 L 73 98 L 88 106 L 73 98 L 52 110 L 52 134 L 73 147 L 94 134 L 95 121 L 96 133 L 111 142 L 108 145 L 95 136 L 72 149 L 49 136 L 39 144 L 36 140 L 50 133 L 49 109 L 50 132 " stroke="black" stroke-width="1" fill="none"/>
<path d="M 72 152 L 73 151 L 74 152 L 74 153 L 73 154 L 72 153 " stroke="black" stroke-width="1" fill="none"/>
<path d="M 72 150 L 73 149 L 74 150 L 73 151 " stroke="black" stroke-width="1" fill="none"/>
<path d="M 95 116 L 96 117 L 96 120 L 95 121 L 94 120 L 94 117 " stroke="black" stroke-width="1" fill="none"/>
<path d="M 94 105 L 97 105 L 100 108 L 100 111 L 97 114 L 95 114 L 94 113 L 93 113 L 92 112 L 92 108 L 93 107 L 93 106 " stroke="black" stroke-width="1" fill="none"/>
<path d="M 96 107 L 94 109 L 94 110 L 96 112 L 97 111 L 97 108 " stroke="black" stroke-width="1" fill="none"/>
<path d="M 96 107 L 97 108 L 97 111 L 96 112 L 94 110 L 94 109 " stroke="black" stroke-width="1" fill="none"/>
<path d="M 271 109 L 250 96 L 248 96 L 238 101 L 236 103 L 226 109 L 226 133 L 223 136 L 211 142 L 205 147 L 199 142 L 193 139 L 190 139 L 191 140 L 190 141 L 195 143 L 203 149 L 203 156 L 202 157 L 202 163 L 201 164 L 202 166 L 207 166 L 207 161 L 205 156 L 205 150 L 207 148 L 210 147 L 215 143 L 225 138 L 227 136 L 229 138 L 234 140 L 236 142 L 239 143 L 248 149 L 252 148 L 258 143 L 271 136 " stroke="black" stroke-width="1" fill="none"/>
<path d="M 204 155 L 206 157 L 206 160 L 207 161 L 207 165 L 206 166 L 203 166 L 201 164 L 202 163 L 202 157 " stroke="black" stroke-width="1" fill="none"/>
<path d="M 204 151 L 205 152 L 205 154 L 204 155 L 203 154 L 203 152 " stroke="black" stroke-width="1" fill="none"/>
<path d="M 271 110 L 271 135 L 249 149 L 227 136 L 208 147 L 204 151 L 202 147 L 191 140 L 193 139 L 205 147 L 222 136 L 228 134 L 246 145 L 250 146 L 254 143 L 252 145 L 248 146 L 238 139 L 231 136 L 228 133 L 228 112 L 242 102 L 250 99 L 245 100 L 228 111 L 228 133 L 227 134 L 226 133 L 226 110 L 232 105 L 249 96 L 268 107 " stroke="black" stroke-width="1" fill="none"/>
<path d="M 252 142 L 251 143 L 250 143 L 251 143 " stroke="black" stroke-width="1" fill="none"/>
<path d="M 257 141 L 256 142 " stroke="black" stroke-width="1" fill="none"/>
<path d="M 259 140 " stroke="black" stroke-width="1" fill="none"/>
<path d="M 255 140 L 254 141 " stroke="black" stroke-width="1" fill="none"/>
<path d="M 257 139 " stroke="black" stroke-width="1" fill="none"/>
<path d="M 264 137 L 263 138 L 262 138 L 261 139 L 262 138 L 263 138 " stroke="black" stroke-width="1" fill="none"/>
<path d="M 260 137 L 259 138 " stroke="black" stroke-width="1" fill="none"/>
<path d="M 262 136 " stroke="black" stroke-width="1" fill="none"/>
<path d="M 265 132 L 263 132 L 261 134 L 260 134 L 258 136 L 257 136 L 255 138 L 254 138 L 253 139 L 252 139 L 251 140 L 250 140 L 249 141 L 250 141 L 251 140 L 252 140 L 254 138 L 255 138 L 256 137 L 257 137 L 259 135 L 260 135 L 261 134 L 262 134 L 264 132 L 265 133 L 265 134 L 264 135 L 265 134 " stroke="black" stroke-width="1" fill="none"/>
<path d="M 232 112 L 231 112 L 230 113 L 230 132 L 232 132 " stroke="black" stroke-width="1" fill="none"/>
<path d="M 231 112 L 232 113 L 232 131 L 231 132 L 230 131 L 230 113 " stroke="black" stroke-width="1" fill="none"/>
<path d="M 265 110 " stroke="black" stroke-width="1" fill="none"/>
<path d="M 267 109 L 267 110 L 269 112 L 269 133 L 266 136 L 267 135 L 268 135 L 269 134 L 269 111 " stroke="black" stroke-width="1" fill="none"/>
<path d="M 265 108 " stroke="black" stroke-width="1" fill="none"/>
<path d="M 255 104 L 257 106 L 258 106 L 259 107 L 260 107 L 261 108 L 262 108 L 263 109 L 262 108 L 263 107 L 262 106 L 263 107 L 262 108 L 261 108 L 260 107 L 259 107 L 258 106 L 257 106 " stroke="black" stroke-width="1" fill="none"/>
<path d="M 257 103 L 258 104 L 259 104 L 260 105 L 259 104 L 258 104 " stroke="black" stroke-width="1" fill="none"/>
<path d="M 254 101 L 255 102 " stroke="black" stroke-width="1" fill="none"/>
<path d="M 250 101 L 250 102 L 249 103 L 251 105 L 252 105 L 254 107 L 255 107 L 257 109 L 258 109 L 259 110 L 260 110 L 261 111 L 262 111 L 263 112 L 265 112 L 264 112 L 263 111 L 262 111 L 261 110 L 260 110 L 259 109 L 258 109 L 257 108 L 256 108 L 253 105 L 252 105 L 250 103 L 251 102 L 252 102 L 253 103 L 252 102 L 251 102 " stroke="black" stroke-width="1" fill="none"/>
<path d="M 252 100 " stroke="black" stroke-width="1" fill="none"/>
<path d="M 29 87 L 29 92 L 27 94 L 27 99 L 29 101 L 33 101 L 35 99 L 35 94 L 33 92 L 30 92 L 29 91 L 30 90 L 31 90 L 31 87 " stroke="black" stroke-width="1" fill="none"/>
<path d="M 30 92 L 32 92 L 35 95 L 35 98 L 32 101 L 29 101 L 27 99 L 27 95 " stroke="black" stroke-width="1" fill="none"/>
<path d="M 31 94 L 29 96 L 29 97 L 31 99 L 32 98 L 32 95 " stroke="black" stroke-width="1" fill="none"/>
<path d="M 31 94 L 32 95 L 32 98 L 31 99 L 29 97 L 29 96 " stroke="black" stroke-width="1" fill="none"/>
<path d="M 29 88 L 30 87 L 31 88 L 31 89 L 30 90 L 29 89 " stroke="black" stroke-width="1" fill="none"/>
<path d="M 26 77 L 26 84 L 28 84 L 28 82 L 29 81 L 30 81 L 31 82 L 31 84 L 33 84 L 33 77 L 31 77 L 29 79 L 28 78 L 28 76 L 27 77 " stroke="black" stroke-width="1" fill="none"/>
<path d="M 32 77 L 33 78 L 33 83 L 32 84 L 31 83 L 31 81 L 30 80 L 30 79 " stroke="black" stroke-width="1" fill="none"/>
<path d="M 27 77 L 28 78 L 28 79 L 29 79 L 30 80 L 29 81 L 28 81 L 28 83 L 27 84 L 26 83 L 26 78 " stroke="black" stroke-width="1" fill="none"/>
<path d="M 88 62 L 86 62 L 82 65 L 79 66 L 74 70 L 70 71 L 69 73 L 70 74 L 70 81 L 71 82 L 71 91 L 72 92 L 72 96 L 62 101 L 52 108 L 72 96 L 72 92 L 71 91 L 71 82 L 70 81 L 70 74 L 69 73 L 72 70 L 74 70 L 76 72 L 75 74 L 74 96 L 78 98 L 80 100 L 89 104 L 77 98 L 74 95 L 75 74 L 77 71 L 78 71 L 86 65 L 88 65 L 89 64 L 84 66 L 76 72 L 74 70 L 78 67 L 81 66 L 83 64 " stroke="black" stroke-width="1" fill="none"/>
<path d="M 94 49 L 94 54 L 92 56 L 92 61 L 94 63 L 98 63 L 100 61 L 100 56 L 98 54 L 95 54 L 94 53 L 95 52 L 96 52 L 96 49 " stroke="black" stroke-width="1" fill="none"/>
<path d="M 95 54 L 97 54 L 100 57 L 100 60 L 97 63 L 94 63 L 92 61 L 92 57 " stroke="black" stroke-width="1" fill="none"/>
<path d="M 96 56 L 94 58 L 94 59 L 96 61 L 97 60 L 97 57 " stroke="black" stroke-width="1" fill="none"/>
<path d="M 96 56 L 97 57 L 97 60 L 96 61 L 94 59 L 94 58 " stroke="black" stroke-width="1" fill="none"/>
<path d="M 94 50 L 95 49 L 96 50 L 96 51 L 95 52 L 94 51 " stroke="black" stroke-width="1" fill="none"/>
<path d="M 91 39 L 91 46 L 93 46 L 93 44 L 94 43 L 95 43 L 96 44 L 96 46 L 98 46 L 98 39 L 96 39 L 94 41 L 93 40 L 93 38 L 92 39 " stroke="black" stroke-width="1" fill="none"/>
<path d="M 97 39 L 98 40 L 98 45 L 97 46 L 96 45 L 96 43 L 95 42 L 95 41 " stroke="black" stroke-width="1" fill="none"/>
<path d="M 92 39 L 93 40 L 93 41 L 94 41 L 95 42 L 94 43 L 93 43 L 93 45 L 92 46 L 91 45 L 91 40 " stroke="black" stroke-width="1" fill="none"/>
</svg>