<svg xmlns="http://www.w3.org/2000/svg" width="300" height="300" viewBox="0 0 300 300">
<path d="M 66 242 L 65 243 L 64 243 L 64 245 L 63 246 L 62 246 L 61 245 L 61 243 L 58 243 L 58 252 L 61 252 L 61 249 L 62 248 L 63 248 L 64 249 L 64 253 L 65 252 L 66 253 " stroke="black" stroke-width="1" fill="none"/>
<path d="M 61 247 L 62 246 L 63 246 L 64 247 L 63 248 L 62 248 " stroke="black" stroke-width="1" fill="none"/>
<path d="M 65 243 L 66 244 L 66 251 L 65 252 L 64 251 L 64 249 L 63 248 L 64 247 L 63 246 L 64 245 L 64 244 " stroke="black" stroke-width="1" fill="none"/>
<path d="M 59 243 L 60 243 L 61 244 L 61 251 L 60 252 L 59 252 L 58 251 L 58 244 " stroke="black" stroke-width="1" fill="none"/>
<path d="M 62 234 L 62 240 L 64 240 L 64 234 " stroke="black" stroke-width="1" fill="none"/>
<path d="M 63 234 L 64 235 L 64 239 L 63 240 L 62 239 L 62 235 " stroke="black" stroke-width="1" fill="none"/>
<path d="M 59 221 L 58 222 L 58 223 L 57 224 L 57 229 L 58 230 L 58 231 L 59 232 L 64 232 L 66 230 L 66 223 L 64 221 " stroke="black" stroke-width="1" fill="none"/>
<path d="M 60 221 L 63 221 L 66 224 L 66 229 L 63 232 L 60 232 L 58 230 L 58 229 L 57 228 L 57 225 L 58 224 L 58 223 " stroke="black" stroke-width="1" fill="none"/>
<path d="M 61 223 L 60 224 L 60 225 L 59 226 L 59 227 L 60 228 L 60 229 L 61 230 L 62 229 L 63 229 L 64 228 L 64 225 L 63 224 L 62 224 " stroke="black" stroke-width="1" fill="none"/>
<path d="M 61 224 L 63 224 L 64 225 L 64 228 L 63 229 L 61 229 L 59 227 L 59 226 " stroke="black" stroke-width="1" fill="none"/>
<path d="M 144 211 L 143 212 L 142 212 L 141 213 L 140 213 L 138 215 L 137 215 L 136 216 L 135 216 L 134 217 L 133 217 L 131 219 L 130 219 L 129 220 L 128 220 L 126 222 L 125 222 L 124 223 L 122 223 L 124 223 L 125 222 L 126 222 L 128 220 L 129 220 L 130 219 L 131 219 L 132 218 L 133 218 L 135 216 L 136 216 L 137 215 L 138 215 L 140 213 L 141 213 L 142 212 L 143 212 " stroke="black" stroke-width="1" fill="none"/>
<path d="M 145 209 L 142 209 L 140 211 L 139 211 L 138 212 L 137 212 L 136 213 L 135 213 L 134 214 L 133 214 L 131 216 L 130 216 L 129 217 L 128 217 L 126 219 L 125 219 L 124 220 L 123 220 L 122 221 L 123 221 L 125 219 L 126 219 L 127 218 L 128 218 L 130 216 L 131 216 L 132 215 L 133 215 L 134 214 L 135 214 L 136 213 L 137 213 L 139 211 L 140 211 L 141 210 L 142 210 L 143 209 " stroke="black" stroke-width="1" fill="none"/>
<path d="M 234 185 L 233 186 L 232 185 L 232 188 L 231 189 L 230 189 L 229 188 L 229 186 L 226 186 L 226 195 L 229 195 L 229 192 L 230 191 L 231 191 L 232 192 L 232 196 L 233 195 L 234 196 " stroke="black" stroke-width="1" fill="none"/>
<path d="M 229 190 L 230 189 L 231 189 L 232 190 L 231 191 L 230 191 " stroke="black" stroke-width="1" fill="none"/>
<path d="M 233 186 L 234 187 L 234 194 L 233 195 L 232 194 L 232 192 L 231 191 L 232 190 L 231 189 L 232 188 L 232 187 " stroke="black" stroke-width="1" fill="none"/>
<path d="M 227 186 L 228 186 L 229 187 L 229 194 L 228 195 L 227 195 L 226 194 L 226 187 " stroke="black" stroke-width="1" fill="none"/>
<path d="M 94 181 L 94 207 L 96 207 L 96 181 " stroke="black" stroke-width="1" fill="none"/>
<path d="M 95 181 L 96 182 L 96 206 L 95 207 L 94 206 L 94 182 " stroke="black" stroke-width="1" fill="none"/>
<path d="M 263 171 L 262 172 L 262 173 L 261 174 L 261 179 L 262 180 L 262 181 L 263 182 L 268 182 L 270 180 L 270 173 L 268 171 " stroke="black" stroke-width="1" fill="none"/>
<path d="M 264 171 L 267 171 L 270 174 L 270 179 L 267 182 L 264 182 L 262 180 L 262 179 L 261 178 L 261 175 L 262 174 L 262 173 " stroke="black" stroke-width="1" fill="none"/>
<path d="M 265 173 L 264 174 L 264 175 L 263 176 L 263 177 L 264 178 L 264 179 L 265 180 L 266 179 L 267 179 L 268 178 L 268 175 L 267 174 L 266 174 " stroke="black" stroke-width="1" fill="none"/>
<path d="M 265 174 L 267 174 L 268 175 L 268 178 L 267 179 L 265 179 L 263 177 L 263 176 " stroke="black" stroke-width="1" fill="none"/>
<path d="M 54 167 L 53 167 L 51 169 L 50 169 L 49 170 L 48 170 L 47 171 L 46 171 L 44 173 L 43 173 L 42 174 L 41 174 L 40 175 L 39 175 L 37 177 L 36 177 L 35 178 L 34 178 L 36 178 L 38 176 L 39 176 L 40 175 L 41 175 L 43 173 L 44 173 L 45 172 L 46 172 L 47 171 L 48 171 L 50 169 L 51 169 L 52 168 L 53 168 " stroke="black" stroke-width="1" fill="none"/>
<path d="M 123 165 L 123 166 L 122 167 L 123 168 L 124 168 L 127 171 L 128 171 L 130 173 L 131 173 L 133 175 L 134 175 L 135 176 L 136 176 L 137 177 L 138 177 L 139 178 L 140 178 L 142 180 L 145 180 L 143 180 L 142 179 L 141 179 L 140 178 L 139 178 L 137 176 L 136 176 L 135 175 L 134 175 L 133 174 L 132 174 L 130 172 L 129 172 L 126 169 L 125 169 L 123 167 L 124 166 L 125 166 L 126 167 L 127 167 L 130 170 L 131 170 L 133 172 L 134 172 L 135 173 L 136 173 L 137 174 L 138 174 L 140 176 L 141 176 L 142 177 L 143 177 L 144 178 L 143 177 L 142 177 L 141 176 L 140 176 L 138 174 L 137 174 L 136 173 L 135 173 L 133 171 L 132 171 L 130 169 L 129 169 L 127 167 L 126 167 L 125 166 L 124 166 " stroke="black" stroke-width="1" fill="none"/>
<path d="M 53 165 L 51 165 L 49 167 L 48 167 L 47 168 L 46 168 L 44 170 L 43 170 L 42 171 L 41 171 L 39 173 L 38 173 L 37 174 L 36 174 L 35 175 L 34 175 L 33 176 L 34 176 L 35 175 L 36 175 L 38 173 L 39 173 L 40 172 L 41 172 L 42 171 L 43 171 L 45 169 L 46 169 L 47 168 L 48 168 L 50 166 L 51 166 L 52 165 " stroke="black" stroke-width="1" fill="none"/>
<path d="M 240 162 L 240 164 L 241 164 L 243 166 L 244 166 L 246 168 L 248 168 L 249 169 L 249 170 L 251 172 L 252 172 L 254 174 L 255 174 L 256 173 L 258 173 L 258 169 L 257 168 L 253 168 L 252 167 L 251 167 L 250 166 L 249 166 L 247 164 L 246 164 L 245 163 L 244 163 L 243 162 " stroke="black" stroke-width="1" fill="none"/>
<path d="M 243 164 L 244 163 L 245 164 L 246 164 L 248 166 L 249 166 L 250 167 L 251 167 L 252 168 L 256 168 L 258 170 L 258 172 L 257 173 L 256 173 L 255 174 L 254 173 L 253 173 L 248 168 L 247 168 L 245 166 L 244 166 L 243 165 " stroke="black" stroke-width="1" fill="none"/>
<path d="M 256 171 " stroke="black" stroke-width="1" fill="none"/>
<path d="M 240 163 L 241 162 L 243 162 L 244 163 L 242 165 " stroke="black" stroke-width="1" fill="none"/>
<path d="M 286 161 L 285 162 L 284 161 L 284 164 L 283 165 L 282 165 L 281 164 L 281 162 L 278 162 L 278 171 L 281 171 L 281 168 L 282 167 L 283 167 L 284 168 L 284 172 L 285 171 L 286 172 " stroke="black" stroke-width="1" fill="none"/>
<path d="M 281 166 L 282 165 L 283 165 L 284 166 L 283 167 L 282 167 " stroke="black" stroke-width="1" fill="none"/>
<path d="M 285 162 L 286 163 L 286 170 L 285 171 L 284 170 L 284 168 L 283 167 L 284 166 L 283 165 L 284 164 L 284 163 " stroke="black" stroke-width="1" fill="none"/>
<path d="M 279 162 L 280 162 L 281 163 L 281 170 L 280 171 L 279 171 L 278 170 L 278 163 " stroke="black" stroke-width="1" fill="none"/>
<path d="M 59 154 L 58 155 L 58 156 L 57 157 L 57 162 L 58 163 L 58 164 L 59 165 L 64 165 L 66 163 L 66 156 L 64 154 " stroke="black" stroke-width="1" fill="none"/>
<path d="M 60 154 L 63 154 L 66 157 L 66 162 L 63 165 L 60 165 L 58 163 L 58 162 L 57 161 L 57 158 L 58 157 L 58 156 " stroke="black" stroke-width="1" fill="none"/>
<path d="M 61 156 L 60 157 L 60 158 L 59 159 L 59 160 L 60 161 L 60 162 L 61 163 L 62 162 L 63 162 L 64 161 L 64 158 L 63 157 L 62 157 " stroke="black" stroke-width="1" fill="none"/>
<path d="M 61 157 L 63 157 L 64 158 L 64 161 L 63 162 L 61 162 L 59 160 L 59 159 " stroke="black" stroke-width="1" fill="none"/>
<path d="M 206 140 L 205 141 L 204 140 L 204 143 L 203 144 L 202 144 L 201 143 L 201 141 L 198 141 L 198 150 L 201 150 L 201 147 L 202 146 L 203 146 L 204 147 L 204 151 L 205 150 L 206 151 " stroke="black" stroke-width="1" fill="none"/>
<path d="M 201 145 L 202 144 L 203 144 L 204 145 L 203 146 L 202 146 " stroke="black" stroke-width="1" fill="none"/>
<path d="M 205 141 L 206 142 L 206 149 L 205 150 L 204 149 L 204 147 L 203 146 L 204 145 L 203 144 L 204 143 L 204 142 " stroke="black" stroke-width="1" fill="none"/>
<path d="M 199 141 L 200 141 L 201 142 L 201 149 L 200 150 L 199 150 L 198 149 L 198 142 " stroke="black" stroke-width="1" fill="none"/>
<path d="M 274 115 L 274 117 L 277 117 L 277 115 " stroke="black" stroke-width="1" fill="none"/>
<path d="M 274 116 L 275 115 L 276 115 L 277 116 L 276 117 L 275 117 " stroke="black" stroke-width="1" fill="none"/>
<path d="M 287 114 L 286 115 L 285 114 L 285 117 L 284 118 L 283 118 L 282 117 L 282 115 L 279 115 L 279 124 L 282 124 L 282 121 L 283 120 L 284 120 L 285 121 L 285 125 L 286 124 L 287 125 " stroke="black" stroke-width="1" fill="none"/>
<path d="M 282 119 L 283 118 L 284 118 L 285 119 L 284 120 L 283 120 " stroke="black" stroke-width="1" fill="none"/>
<path d="M 286 115 L 287 116 L 287 123 L 286 124 L 285 123 L 285 121 L 284 120 L 285 119 L 284 118 L 285 117 L 285 116 " stroke="black" stroke-width="1" fill="none"/>
<path d="M 280 115 L 281 115 L 282 116 L 282 123 L 281 124 L 280 124 L 279 123 L 279 116 " stroke="black" stroke-width="1" fill="none"/>
<path d="M 107 110 L 106 111 L 105 110 L 105 113 L 104 114 L 103 114 L 102 113 L 102 111 L 99 111 L 99 120 L 102 120 L 102 117 L 103 116 L 104 116 L 105 117 L 105 121 L 106 120 L 107 121 " stroke="black" stroke-width="1" fill="none"/>
<path d="M 102 115 L 103 114 L 104 114 L 105 115 L 104 116 L 103 116 " stroke="black" stroke-width="1" fill="none"/>
<path d="M 106 111 L 107 112 L 107 119 L 106 120 L 105 119 L 105 117 L 104 116 L 105 115 L 104 114 L 105 113 L 105 112 " stroke="black" stroke-width="1" fill="none"/>
<path d="M 100 111 L 101 111 L 102 112 L 102 119 L 101 120 L 100 120 L 99 119 L 99 112 " stroke="black" stroke-width="1" fill="none"/>
<path d="M 258 115 L 237 125 L 206 108 L 186 121 L 207 108 L 186 123 L 208 111 L 237 128 L 236 159 L 208 176 L 181 161 L 196 152 L 180 157 L 180 120 L 173 123 L 179 132 L 178 159 L 150 177 L 122 158 L 123 120 L 116 123 L 122 132 L 117 161 L 91 176 L 71 165 L 91 176 L 122 159 L 150 177 L 179 159 L 179 143 L 180 157 L 187 157 L 151 179 L 129 166 L 149 180 L 149 209 L 122 226 L 92 210 L 92 179 L 121 161 L 127 165 L 121 161 L 92 178 L 70 167 L 90 179 L 90 210 L 70 222 L 92 211 L 123 226 L 151 210 L 178 226 L 177 245 L 176 227 L 150 212 L 121 229 L 91 213 L 71 224 L 91 213 L 122 229 L 150 212 L 176 228 L 174 261 L 181 264 L 182 228 L 199 217 L 182 227 L 181 245 L 180 226 L 198 215 L 179 226 L 154 212 L 151 180 L 179 162 L 206 179 L 208 203 L 202 212 L 209 215 L 208 181 L 224 186 L 211 178 L 238 162 L 239 127 " stroke="black" stroke-width="1" fill="none"/>
<path d="M 177 253 L 180 253 L 183 256 L 183 261 L 180 264 L 177 264 L 175 262 L 175 261 L 174 260 L 174 257 L 175 256 L 175 255 " stroke="black" stroke-width="1" fill="none"/>
<path d="M 178 255 L 177 256 L 177 257 L 176 258 L 176 259 L 177 260 L 177 261 L 178 262 L 179 261 L 180 261 L 181 260 L 181 257 L 180 256 L 179 256 " stroke="black" stroke-width="1" fill="none"/>
<path d="M 178 256 L 180 256 L 181 257 L 181 260 L 180 261 L 178 261 L 176 259 L 176 258 " stroke="black" stroke-width="1" fill="none"/>
<path d="M 176 252 L 177 251 L 178 252 L 177 253 " stroke="black" stroke-width="1" fill="none"/>
<path d="M 181 245 L 182 246 L 182 250 L 181 251 L 180 250 L 180 246 " stroke="black" stroke-width="1" fill="none"/>
<path d="M 177 245 L 178 246 L 178 250 L 177 251 L 176 250 L 176 246 " stroke="black" stroke-width="1" fill="none"/>
<path d="M 179 228 L 180 229 L 180 251 L 181 251 L 182 252 L 181 253 L 179 253 L 178 252 L 178 229 " stroke="black" stroke-width="1" fill="none"/>
<path d="M 178 227 L 179 226 L 180 227 L 179 228 " stroke="black" stroke-width="1" fill="none"/>
<path d="M 205 204 L 208 204 L 211 207 L 211 212 L 208 215 L 205 215 L 203 213 L 203 212 L 202 211 L 202 208 L 203 207 L 203 206 " stroke="black" stroke-width="1" fill="none"/>
<path d="M 206 206 L 205 207 L 205 208 L 204 209 L 204 210 L 205 211 L 205 212 L 206 213 L 207 212 L 208 212 L 209 211 L 209 208 L 208 207 L 207 207 " stroke="black" stroke-width="1" fill="none"/>
<path d="M 206 207 L 208 207 L 209 208 L 209 211 L 208 212 L 206 212 L 204 210 L 204 209 " stroke="black" stroke-width="1" fill="none"/>
<path d="M 207 195 L 208 196 L 208 201 L 207 202 L 206 201 L 206 196 " stroke="black" stroke-width="1" fill="none"/>
<path d="M 150 179 L 151 180 L 151 209 L 150 210 L 149 209 L 149 180 " stroke="black" stroke-width="1" fill="none"/>
<path d="M 209 180 L 211 178 L 212 179 L 213 179 L 214 180 L 213 181 L 210 181 " stroke="black" stroke-width="1" fill="none"/>
<path d="M 91 178 L 92 179 L 92 210 L 91 211 L 90 210 L 90 179 " stroke="black" stroke-width="1" fill="none"/>
<path d="M 180 161 L 181 161 L 182 162 L 183 162 L 185 164 L 186 164 L 187 165 L 188 165 L 190 167 L 191 167 L 193 169 L 194 169 L 195 170 L 196 170 L 198 172 L 199 172 L 200 173 L 201 173 L 202 174 L 203 174 L 205 176 L 209 176 L 211 178 L 209 180 L 208 180 L 208 194 L 207 195 L 206 194 L 206 178 L 204 178 L 202 176 L 201 176 L 200 175 L 199 175 L 198 174 L 197 174 L 195 172 L 194 172 L 193 171 L 192 171 L 190 169 L 189 169 L 187 167 L 186 167 L 185 166 L 184 166 L 182 164 L 181 164 L 179 162 " stroke="black" stroke-width="1" fill="none"/>
<path d="M 193 149 L 195 151 L 195 152 L 196 153 L 196 154 L 195 155 L 193 155 L 192 156 L 190 156 L 189 157 L 187 157 L 185 155 L 187 153 L 188 153 L 191 150 L 192 150 " stroke="black" stroke-width="1" fill="none"/>
<path d="M 121 143 L 122 144 L 122 158 L 121 159 L 120 158 L 120 144 " stroke="black" stroke-width="1" fill="none"/>
<path d="M 178 133 L 179 134 L 179 136 L 180 137 L 180 142 L 179 143 L 178 142 L 178 141 L 177 140 L 177 134 " stroke="black" stroke-width="1" fill="none"/>
<path d="M 121 133 L 122 134 L 122 142 L 121 143 L 120 142 L 120 134 " stroke="black" stroke-width="1" fill="none"/>
<path d="M 176 120 L 179 120 L 182 123 L 182 128 L 179 131 L 176 131 L 174 129 L 174 128 L 173 127 L 173 124 L 174 123 L 174 122 " stroke="black" stroke-width="1" fill="none"/>
<path d="M 177 122 L 176 123 L 176 124 L 175 125 L 175 126 L 176 127 L 176 128 L 177 129 L 178 128 L 179 128 L 180 127 L 180 124 L 179 123 L 178 123 " stroke="black" stroke-width="1" fill="none"/>
<path d="M 177 123 L 179 123 L 180 124 L 180 127 L 179 128 L 177 128 L 175 126 L 175 125 " stroke="black" stroke-width="1" fill="none"/>
<path d="M 119 120 L 122 120 L 125 123 L 125 128 L 122 131 L 119 131 L 117 129 L 117 128 L 116 127 L 116 124 L 117 123 L 117 122 " stroke="black" stroke-width="1" fill="none"/>
<path d="M 120 122 L 119 123 L 119 124 L 118 125 L 118 126 L 119 127 L 119 128 L 120 129 L 121 128 L 122 128 L 123 127 L 123 124 L 122 123 L 121 123 " stroke="black" stroke-width="1" fill="none"/>
<path d="M 120 123 L 122 123 L 123 124 L 123 127 L 122 128 L 120 128 L 118 126 L 118 125 " stroke="black" stroke-width="1" fill="none"/>
<path d="M 255 113 L 258 116 L 257 118 L 253 119 L 252 120 L 250 120 L 249 121 L 247 121 L 239 126 L 239 138 L 238 139 L 238 161 L 235 164 L 232 165 L 225 170 L 216 174 L 212 177 L 210 177 L 209 176 L 210 175 L 222 169 L 224 167 L 227 166 L 229 164 L 232 163 L 236 160 L 236 133 L 237 132 L 237 127 L 230 124 L 223 119 L 216 116 L 214 114 L 208 111 L 209 110 L 211 110 L 215 112 L 217 114 L 226 118 L 228 120 L 231 121 L 233 123 L 237 125 L 239 123 L 242 122 L 245 119 " stroke="black" stroke-width="1" fill="none"/>
<path d="M 263 103 L 262 104 L 262 105 L 261 106 L 261 111 L 262 112 L 262 113 L 263 114 L 268 114 L 270 112 L 270 105 L 268 103 " stroke="black" stroke-width="1" fill="none"/>
<path d="M 264 103 L 267 103 L 270 106 L 270 111 L 267 114 L 264 114 L 262 112 L 262 111 L 261 110 L 261 107 L 262 106 L 262 105 " stroke="black" stroke-width="1" fill="none"/>
<path d="M 265 105 L 264 106 L 264 107 L 263 108 L 263 109 L 264 110 L 264 111 L 265 112 L 266 111 L 267 111 L 268 110 L 268 107 L 267 106 L 266 106 " stroke="black" stroke-width="1" fill="none"/>
<path d="M 265 106 L 267 106 L 268 107 L 268 110 L 267 111 L 265 111 L 263 109 L 263 108 " stroke="black" stroke-width="1" fill="none"/>
<path d="M 208 92 L 208 103 L 207 104 L 206 103 L 206 106 L 206 105 L 207 104 L 208 105 L 208 106 L 208 94 L 209 93 " stroke="black" stroke-width="1" fill="none"/>
<path d="M 206 91 L 206 101 " stroke="black" stroke-width="1" fill="none"/>
<path d="M 206 88 L 206 89 L 207 88 L 208 88 L 209 89 L 209 88 " stroke="black" stroke-width="1" fill="none"/>
<path d="M 205 85 L 206 86 L 208 84 L 209 85 L 209 84 L 208 84 L 207 85 L 206 84 " stroke="black" stroke-width="1" fill="none"/>
<path d="M 210 80 L 209 80 L 210 81 L 209 82 L 208 82 L 210 82 " stroke="black" stroke-width="1" fill="none"/>
<path d="M 206 80 L 205 80 L 205 81 " stroke="black" stroke-width="1" fill="none"/>
<path d="M 228 65 L 226 65 L 225 66 L 223 66 L 222 67 L 221 67 L 220 68 L 219 68 L 217 70 L 216 70 L 215 71 L 214 71 L 212 73 L 211 73 L 209 75 L 205 75 L 205 77 L 205 76 L 206 75 L 210 75 L 211 76 L 210 77 L 209 77 L 211 77 L 213 75 L 214 75 L 215 74 L 216 74 L 218 72 L 219 72 L 221 70 L 222 70 L 223 69 L 224 69 L 225 68 L 226 68 L 227 67 L 228 67 L 227 66 " stroke="black" stroke-width="1" fill="none"/>
<path d="M 227 66 L 227 67 L 226 68 L 224 68 L 223 69 L 222 69 L 220 71 L 219 71 L 217 73 L 216 73 L 215 74 L 214 74 L 212 76 L 211 76 L 210 75 L 213 72 L 214 72 L 215 71 L 216 71 L 218 69 L 219 69 L 221 67 L 222 67 L 223 66 L 225 66 L 226 65 " stroke="black" stroke-width="1" fill="none"/>
<path d="M 235 46 L 235 51 L 236 51 L 237 52 L 236 53 L 233 53 L 232 54 L 232 55 L 231 56 L 231 61 L 232 62 L 232 63 L 233 64 L 238 64 L 240 62 L 240 55 L 237 52 L 237 46 " stroke="black" stroke-width="1" fill="none"/>
<path d="M 234 53 L 237 53 L 240 56 L 240 61 L 237 64 L 234 64 L 232 62 L 232 61 L 231 60 L 231 57 L 232 56 L 232 55 " stroke="black" stroke-width="1" fill="none"/>
<path d="M 235 55 L 234 56 L 234 57 L 233 58 L 233 59 L 234 60 L 234 61 L 235 62 L 236 61 L 237 61 L 238 60 L 238 57 L 237 56 L 236 56 " stroke="black" stroke-width="1" fill="none"/>
<path d="M 235 56 L 237 56 L 238 57 L 238 60 L 237 61 L 235 61 L 233 59 L 233 58 " stroke="black" stroke-width="1" fill="none"/>
<path d="M 236 46 L 237 47 L 237 50 L 236 51 L 235 50 L 235 47 " stroke="black" stroke-width="1" fill="none"/>
<path d="M 239 33 L 238 34 L 237 33 L 237 36 L 236 37 L 235 37 L 234 36 L 234 34 L 231 34 L 231 43 L 234 43 L 234 40 L 235 39 L 236 39 L 237 40 L 237 43 L 238 43 L 239 44 " stroke="black" stroke-width="1" fill="none"/>
<path d="M 234 38 L 235 37 L 236 37 L 237 38 L 236 39 L 235 39 " stroke="black" stroke-width="1" fill="none"/>
<path d="M 238 34 L 239 35 L 239 42 L 238 43 L 237 42 L 237 40 L 236 39 L 237 38 L 236 37 L 237 36 L 237 35 " stroke="black" stroke-width="1" fill="none"/>
<path d="M 232 34 L 233 34 L 234 35 L 234 42 L 233 43 L 232 43 L 231 42 L 231 35 " stroke="black" stroke-width="1" fill="none"/>
</svg>