<svg xmlns="http://www.w3.org/2000/svg" width="300" height="300" viewBox="0 0 300 300">
<path d="M 188 244 L 188 246 L 193 246 L 193 244 L 192 244 L 193 245 L 192 246 L 189 246 L 188 245 L 189 244 " stroke="black" stroke-width="1" fill="none"/>
<path d="M 192 239 L 191 240 L 192 241 L 193 240 " stroke="black" stroke-width="1" fill="none"/>
<path d="M 189 239 L 188 239 L 188 241 L 188 240 " stroke="black" stroke-width="1" fill="none"/>
<path d="M 189 236 L 189 237 L 190 236 L 191 236 L 192 237 L 192 236 " stroke="black" stroke-width="1" fill="none"/>
<path d="M 189 232 L 189 233 L 190 232 L 191 232 L 192 233 L 192 232 " stroke="black" stroke-width="1" fill="none"/>
<path d="M 165 216 L 164 217 L 163 217 L 163 219 L 162 220 L 161 220 L 160 219 L 160 217 L 157 217 L 157 226 L 160 226 L 160 223 L 161 222 L 162 222 L 163 223 L 163 227 L 164 226 L 165 227 " stroke="black" stroke-width="1" fill="none"/>
<path d="M 160 221 L 161 220 L 162 220 L 163 221 L 162 222 L 161 222 " stroke="black" stroke-width="1" fill="none"/>
<path d="M 164 217 L 165 218 L 165 225 L 164 226 L 163 225 L 163 223 L 162 222 L 163 221 L 162 220 L 163 219 L 163 218 " stroke="black" stroke-width="1" fill="none"/>
<path d="M 158 217 L 159 217 L 160 218 L 160 225 L 159 226 L 158 226 L 157 225 L 157 218 " stroke="black" stroke-width="1" fill="none"/>
<path d="M 247 204 L 246 205 L 246 206 L 245 207 L 245 212 L 246 213 L 246 214 L 247 215 L 252 215 L 254 213 L 254 206 L 252 204 " stroke="black" stroke-width="1" fill="none"/>
<path d="M 248 204 L 251 204 L 254 207 L 254 212 L 251 215 L 248 215 L 246 213 L 246 212 L 245 211 L 245 208 L 246 207 L 246 206 " stroke="black" stroke-width="1" fill="none"/>
<path d="M 249 206 L 248 207 L 248 208 L 247 209 L 247 210 L 248 211 L 248 212 L 249 213 L 250 212 L 251 212 L 252 211 L 252 208 L 251 207 L 250 207 " stroke="black" stroke-width="1" fill="none"/>
<path d="M 249 207 L 251 207 L 252 208 L 252 211 L 251 212 L 249 212 L 247 210 L 247 209 " stroke="black" stroke-width="1" fill="none"/>
<path d="M 164 198 L 166 200 L 169 201 L 171 203 L 174 204 L 176 206 L 184 210 L 189 214 L 189 218 L 190 216 L 191 217 L 191 222 L 190 223 L 189 222 L 189 220 L 189 230 L 190 228 L 191 229 L 192 228 L 191 227 L 191 216 L 189 215 L 190 214 L 192 214 L 196 212 L 198 210 L 201 209 L 203 207 L 206 206 L 208 204 L 211 203 L 218 198 L 225 201 L 232 206 L 234 206 L 239 209 L 242 209 L 241 208 L 242 207 L 241 207 L 240 209 L 239 208 L 237 208 L 231 205 L 229 203 L 224 201 L 222 199 L 218 198 L 214 201 L 211 202 L 209 204 L 206 205 L 204 207 L 201 208 L 199 210 L 196 211 L 194 213 L 190 214 L 188 212 L 183 210 L 181 208 L 178 207 L 176 205 L 173 204 L 171 202 L 168 201 " stroke="black" stroke-width="1" fill="none"/>
<path d="M 190 223 L 191 224 L 191 227 L 190 228 L 189 227 L 189 224 " stroke="black" stroke-width="1" fill="none"/>
<path d="M 202 165 L 201 166 L 200 165 L 200 168 L 199 169 L 198 169 L 197 168 L 197 166 L 194 166 L 194 175 L 197 175 L 197 172 L 198 171 L 199 171 L 200 172 L 200 176 L 201 175 L 202 176 " stroke="black" stroke-width="1" fill="none"/>
<path d="M 197 170 L 198 169 L 199 169 L 200 170 L 199 171 L 198 171 " stroke="black" stroke-width="1" fill="none"/>
<path d="M 201 166 L 202 167 L 202 174 L 201 175 L 200 174 L 200 172 L 199 171 L 200 170 L 199 169 L 200 168 L 200 167 " stroke="black" stroke-width="1" fill="none"/>
<path d="M 195 166 L 196 166 L 197 167 L 197 174 L 196 175 L 195 175 L 194 174 L 194 167 " stroke="black" stroke-width="1" fill="none"/>
<path d="M 196 159 L 194 159 L 193 160 L 192 160 L 192 162 L 196 162 " stroke="black" stroke-width="1" fill="none"/>
<path d="M 192 161 L 194 159 L 195 159 L 196 160 L 196 161 L 195 162 L 193 162 " stroke="black" stroke-width="1" fill="none"/>
<path d="M 216 154 L 215 155 L 215 156 L 214 157 L 214 162 L 215 163 L 215 164 L 216 165 L 221 165 L 223 163 L 223 156 L 221 154 " stroke="black" stroke-width="1" fill="none"/>
<path d="M 217 154 L 220 154 L 223 157 L 223 162 L 220 165 L 217 165 L 215 163 L 215 162 L 214 161 L 214 158 L 215 157 L 215 156 " stroke="black" stroke-width="1" fill="none"/>
<path d="M 218 156 L 217 157 L 217 158 L 216 159 L 216 160 L 217 161 L 217 162 L 218 163 L 219 162 L 220 162 L 221 161 L 221 158 L 220 157 L 219 157 " stroke="black" stroke-width="1" fill="none"/>
<path d="M 218 157 L 220 157 L 221 158 L 221 161 L 220 162 L 218 162 L 216 160 L 216 159 " stroke="black" stroke-width="1" fill="none"/>
<path d="M 191 151 L 190 152 L 190 155 L 191 156 L 191 158 L 192 158 L 191 157 L 193 155 L 194 156 L 194 157 L 194 155 L 193 155 L 192 156 L 191 156 L 190 155 L 192 153 L 192 151 " stroke="black" stroke-width="1" fill="none"/>
<path d="M 190 152 L 191 151 L 192 152 L 192 153 L 191 154 L 190 153 " stroke="black" stroke-width="1" fill="none"/>
<path d="M 189 149 L 191 149 L 192 148 L 193 149 L 194 149 L 195 150 L 196 150 L 197 151 L 198 151 L 199 152 L 200 152 L 202 154 L 204 154 L 206 156 L 207 156 L 208 157 L 210 157 L 209 157 L 208 156 L 207 156 L 206 155 L 205 155 L 204 154 L 203 154 L 202 153 L 201 153 L 200 152 L 199 152 L 198 151 L 197 151 L 195 149 L 194 149 L 193 148 L 191 148 L 190 149 " stroke="black" stroke-width="1" fill="none"/>
<path d="M 105 126 L 104 127 L 103 126 L 103 129 L 102 130 L 101 130 L 100 129 L 100 127 L 97 127 L 97 136 L 100 136 L 100 133 L 101 132 L 102 132 L 103 133 L 103 137 L 104 136 L 105 137 " stroke="black" stroke-width="1" fill="none"/>
<path d="M 100 131 L 101 130 L 102 130 L 103 131 L 102 132 L 101 132 " stroke="black" stroke-width="1" fill="none"/>
<path d="M 104 127 L 105 128 L 105 135 L 104 136 L 103 135 L 103 133 L 102 132 L 103 131 L 102 130 L 103 129 L 103 128 " stroke="black" stroke-width="1" fill="none"/>
<path d="M 98 127 L 99 127 L 100 128 L 100 135 L 99 136 L 98 136 L 97 135 L 97 128 " stroke="black" stroke-width="1" fill="none"/>
<path d="M 171 87 L 142 87 L 135 95 L 132 100 L 122 111 L 121 113 L 122 114 L 122 117 L 123 118 L 123 121 L 124 122 L 124 126 L 125 127 L 125 130 L 126 131 L 126 134 L 127 135 L 127 138 L 128 139 L 128 143 L 127 144 L 129 144 L 134 147 L 136 147 L 151 155 L 147 153 L 145 151 L 141 150 L 128 143 L 128 139 L 127 138 L 127 135 L 126 134 L 126 131 L 125 130 L 125 127 L 124 126 L 124 122 L 123 121 L 123 118 L 122 117 L 122 114 L 121 113 L 130 103 L 130 102 L 134 98 L 134 97 L 142 87 L 169 87 L 170 88 L 165 91 L 162 94 L 162 96 L 162 95 " stroke="black" stroke-width="1" fill="none"/>
<path d="M 184 52 L 179 53 L 173 85 L 140 85 L 119 111 L 126 142 L 113 134 L 108 139 L 123 147 L 99 163 L 67 149 L 98 166 L 100 200 L 131 216 L 158 196 L 163 214 L 160 195 L 191 212 L 220 194 L 220 178 L 222 197 L 239 206 L 223 195 L 237 203 L 225 193 L 242 203 L 222 191 L 221 167 L 220 193 L 191 212 L 162 194 L 159 161 L 189 146 L 195 118 L 190 144 L 211 155 L 190 144 L 198 105 L 191 108 L 188 143 L 160 158 L 147 140 L 152 108 L 158 105 L 158 98 L 151 96 L 149 128 L 141 137 L 156 158 L 127 146 L 100 165 L 103 199 L 134 213 L 158 198 L 133 216 L 100 199 L 98 165 L 67 151 L 70 147 L 99 163 L 125 145 L 117 141 L 126 142 L 120 110 L 141 85 L 174 85 L 181 52 L 177 84 L 164 96 L 174 88 L 187 104 L 176 86 L 189 103 L 176 86 " stroke="black" stroke-width="1" fill="none"/>
<path d="M 161 203 L 163 205 L 163 207 L 164 208 L 164 212 L 162 214 L 160 214 L 159 213 L 159 206 L 160 205 L 160 204 " stroke="black" stroke-width="1" fill="none"/>
<path d="M 220 167 L 221 168 L 221 177 L 220 178 L 219 177 L 219 168 " stroke="black" stroke-width="1" fill="none"/>
<path d="M 158 161 L 160 163 L 160 171 L 161 172 L 161 182 L 162 183 L 162 194 L 161 195 L 160 194 L 160 190 L 159 189 L 159 175 L 158 174 L 158 166 L 157 165 L 157 162 " stroke="black" stroke-width="1" fill="none"/>
<path d="M 128 146 L 129 147 L 130 147 L 131 148 L 132 148 L 133 149 L 134 149 L 153 159 L 155 159 L 157 161 L 157 165 L 158 166 L 158 174 L 159 175 L 159 189 L 160 190 L 160 194 L 158 196 L 155 197 L 152 200 L 151 200 L 149 202 L 148 202 L 145 205 L 144 205 L 138 210 L 137 210 L 133 213 L 132 213 L 131 212 L 130 212 L 129 211 L 128 211 L 127 210 L 126 210 L 125 209 L 124 209 L 123 208 L 122 208 L 121 207 L 120 207 L 119 206 L 118 206 L 117 205 L 104 199 L 102 197 L 102 188 L 101 187 L 101 170 L 100 169 L 100 165 L 104 162 L 107 161 L 109 159 L 110 159 L 112 157 L 113 157 L 115 155 L 116 155 L 124 149 L 125 149 " stroke="black" stroke-width="1" fill="none"/>
<path d="M 188 146 L 186 148 L 184 148 L 183 149 L 182 149 L 181 150 L 180 150 L 179 151 L 178 151 L 177 152 L 175 152 L 174 153 L 173 153 L 172 154 L 171 154 L 170 155 L 169 155 L 168 156 L 167 156 L 165 158 L 164 158 L 163 159 L 162 159 L 161 160 L 160 160 L 159 159 L 161 157 L 162 157 L 163 156 L 164 156 L 166 154 L 167 154 L 168 153 L 169 153 L 170 152 L 171 152 L 172 151 L 173 151 L 174 150 L 175 150 L 176 149 L 178 149 L 179 148 L 180 148 L 181 147 L 182 147 L 183 146 L 184 146 L 185 145 L 187 145 " stroke="black" stroke-width="1" fill="none"/>
<path d="M 151 140 L 152 141 L 152 142 L 153 143 L 153 145 L 154 146 L 154 149 L 155 150 L 155 151 L 156 152 L 156 153 L 157 154 L 157 155 L 158 156 L 158 157 L 159 158 L 159 160 L 158 161 L 156 159 L 156 157 L 155 156 L 155 155 L 153 153 L 153 152 L 150 149 L 150 148 L 149 147 L 149 146 L 147 144 L 147 143 L 149 141 L 150 141 " stroke="black" stroke-width="1" fill="none"/>
<path d="M 108 137 L 111 134 L 112 134 L 114 136 L 115 136 L 117 138 L 118 138 L 119 139 L 117 141 L 115 141 L 114 140 L 112 140 L 111 139 L 109 139 L 108 138 " stroke="black" stroke-width="1" fill="none"/>
<path d="M 144 129 L 147 129 L 150 132 L 150 137 L 147 140 L 144 140 L 142 138 L 142 137 L 141 136 L 141 133 L 142 132 L 142 131 " stroke="black" stroke-width="1" fill="none"/>
<path d="M 145 131 L 144 132 L 144 133 L 143 134 L 143 135 L 144 136 L 144 137 L 145 138 L 146 137 L 147 137 L 148 136 L 148 133 L 147 132 L 146 132 " stroke="black" stroke-width="1" fill="none"/>
<path d="M 145 132 L 147 132 L 148 133 L 148 136 L 147 137 L 145 137 L 143 135 L 143 134 " stroke="black" stroke-width="1" fill="none"/>
<path d="M 153 109 L 154 110 L 154 111 L 153 112 L 153 114 L 152 115 L 152 118 L 151 119 L 151 121 L 150 122 L 150 125 L 148 127 L 147 126 L 147 125 L 148 124 L 148 121 L 149 120 L 149 117 L 150 116 L 150 114 L 151 113 L 151 111 " stroke="black" stroke-width="1" fill="none"/>
<path d="M 194 105 L 197 105 L 200 108 L 200 113 L 197 116 L 194 116 L 192 114 L 192 113 L 191 112 L 191 109 L 192 108 L 192 107 " stroke="black" stroke-width="1" fill="none"/>
<path d="M 195 107 L 194 108 L 194 109 L 193 110 L 193 111 L 194 112 L 194 113 L 195 114 L 196 113 L 197 113 L 198 112 L 198 109 L 197 108 L 196 108 " stroke="black" stroke-width="1" fill="none"/>
<path d="M 195 108 L 197 108 L 198 109 L 198 112 L 197 113 L 195 113 L 193 111 L 193 110 " stroke="black" stroke-width="1" fill="none"/>
<path d="M 152 96 L 155 96 L 158 99 L 158 104 L 155 107 L 152 107 L 150 105 L 150 104 L 149 103 L 149 100 L 150 99 L 150 98 " stroke="black" stroke-width="1" fill="none"/>
<path d="M 153 98 L 152 99 L 152 100 L 151 101 L 151 102 L 152 103 L 152 104 L 153 105 L 154 104 L 155 104 L 156 103 L 156 100 L 155 99 L 154 99 " stroke="black" stroke-width="1" fill="none"/>
<path d="M 153 99 L 155 99 L 156 100 L 156 103 L 155 104 L 153 104 L 151 102 L 151 101 " stroke="black" stroke-width="1" fill="none"/>
</svg>