<svg xmlns="http://www.w3.org/2000/svg" width="300" height="300" viewBox="0 0 300 300">
<path d="M 116 220 L 116 221 L 123 221 L 123 220 L 122 221 L 117 221 " stroke="black" stroke-width="1" fill="none"/>
<path d="M 121 215 L 122 216 L 122 217 L 122 215 " stroke="black" stroke-width="1" fill="none"/>
<path d="M 118 215 L 117 215 L 117 217 L 117 216 " stroke="black" stroke-width="1" fill="none"/>
<path d="M 118 212 L 118 213 L 119 212 L 120 212 L 121 213 L 121 212 " stroke="black" stroke-width="1" fill="none"/>
<path d="M 121 207 L 120 207 L 119 208 L 118 208 L 118 209 L 120 207 L 121 208 L 121 209 " stroke="black" stroke-width="1" fill="none"/>
<path d="M 120 203 L 118 203 L 118 206 L 118 204 L 119 203 L 120 204 L 120 205 " stroke="black" stroke-width="1" fill="none"/>
<path d="M 118 200 L 118 201 " stroke="black" stroke-width="1" fill="none"/>
<path d="M 95 200 L 95 207 L 96 207 L 97 208 L 97 205 L 98 204 L 99 204 L 100 205 L 100 207 L 102 207 L 102 200 L 100 200 L 98 202 L 97 201 L 97 200 " stroke="black" stroke-width="1" fill="none"/>
<path d="M 101 200 L 102 201 L 102 206 L 101 207 L 100 206 L 100 204 L 99 203 L 99 202 " stroke="black" stroke-width="1" fill="none"/>
<path d="M 96 200 L 97 201 L 97 202 L 98 202 L 99 203 L 98 204 L 97 204 L 97 206 L 96 207 L 95 206 L 95 201 " stroke="black" stroke-width="1" fill="none"/>
<path d="M 163 190 L 161 192 L 161 197 L 163 199 L 167 199 L 169 197 L 169 192 L 167 190 " stroke="black" stroke-width="1" fill="none"/>
<path d="M 163 190 L 166 190 L 169 193 L 169 196 L 166 199 L 163 199 L 161 197 L 161 193 L 162 192 L 162 191 " stroke="black" stroke-width="1" fill="none"/>
<path d="M 165 192 L 163 194 L 163 195 L 165 197 L 166 196 L 166 193 " stroke="black" stroke-width="1" fill="none"/>
<path d="M 165 192 L 166 193 L 166 196 L 165 197 L 163 195 L 163 194 " stroke="black" stroke-width="1" fill="none"/>
<path d="M 280 184 L 280 191 L 281 191 L 282 192 L 282 189 L 283 188 L 284 188 L 285 189 L 285 191 L 287 191 L 287 184 L 285 184 L 283 186 L 282 185 L 282 183 L 281 184 " stroke="black" stroke-width="1" fill="none"/>
<path d="M 286 184 L 287 185 L 287 190 L 286 191 L 285 190 L 285 188 L 284 187 L 284 186 " stroke="black" stroke-width="1" fill="none"/>
<path d="M 281 184 L 282 185 L 282 186 L 283 186 L 284 187 L 283 188 L 282 188 L 282 190 L 281 191 L 280 190 L 280 185 " stroke="black" stroke-width="1" fill="none"/>
<path d="M 270 175 L 268 177 L 268 182 L 270 184 L 274 184 L 276 182 L 276 177 L 274 175 " stroke="black" stroke-width="1" fill="none"/>
<path d="M 270 175 L 273 175 L 276 178 L 276 181 L 273 184 L 270 184 L 268 182 L 268 178 L 269 177 L 269 176 " stroke="black" stroke-width="1" fill="none"/>
<path d="M 272 177 L 270 179 L 270 180 L 272 182 L 273 181 L 273 178 " stroke="black" stroke-width="1" fill="none"/>
<path d="M 272 177 L 273 178 L 273 181 L 272 182 L 270 180 L 270 179 " stroke="black" stroke-width="1" fill="none"/>
<path d="M 122 162 L 122 169 L 123 169 L 124 170 L 124 167 L 125 166 L 126 166 L 127 167 L 127 169 L 129 169 L 129 162 L 127 162 L 125 164 L 124 163 L 124 161 L 123 162 " stroke="black" stroke-width="1" fill="none"/>
<path d="M 128 162 L 129 163 L 129 168 L 128 169 L 127 168 L 127 166 L 126 165 L 126 164 " stroke="black" stroke-width="1" fill="none"/>
<path d="M 123 162 L 124 163 L 124 164 L 125 164 L 126 165 L 125 166 L 124 166 L 124 168 L 123 169 L 122 168 L 122 163 " stroke="black" stroke-width="1" fill="none"/>
<path d="M 124 155 L 122 155 L 121 156 L 120 156 L 120 158 L 124 158 " stroke="black" stroke-width="1" fill="none"/>
<path d="M 120 157 L 122 155 L 123 155 L 124 156 L 124 157 L 123 158 L 121 158 " stroke="black" stroke-width="1" fill="none"/>
<path d="M 181 154 L 181 159 L 185 162 L 185 175 L 186 170 L 189 183 L 208 192 L 228 180 L 248 192 L 249 205 L 247 205 L 246 193 L 229 183 L 206 195 L 186 183 L 186 177 L 186 180 L 184 180 L 183 163 L 181 162 L 182 182 L 172 189 L 182 182 L 182 170 L 186 183 L 172 191 L 186 184 L 207 195 L 229 183 L 246 194 L 247 212 L 249 211 L 249 200 L 251 200 L 251 212 L 247 215 L 247 220 L 249 222 L 255 220 L 255 215 L 251 212 L 253 211 L 252 194 L 265 185 L 252 193 L 252 206 L 250 192 L 264 183 L 249 192 L 227 180 L 205 192 L 188 181 L 187 163 L 185 162 L 189 159 L 189 154 L 187 152 " stroke="black" stroke-width="1" fill="none"/>
<path d="M 250 213 L 252 213 L 255 216 L 255 219 L 252 222 L 249 222 L 247 220 L 247 216 " stroke="black" stroke-width="1" fill="none"/>
<path d="M 251 215 L 249 217 L 249 218 L 251 220 L 252 219 L 252 216 " stroke="black" stroke-width="1" fill="none"/>
<path d="M 251 215 L 252 216 L 252 219 L 251 220 L 249 218 L 249 217 " stroke="black" stroke-width="1" fill="none"/>
<path d="M 252 206 L 253 207 L 253 210 L 252 211 L 251 210 L 251 207 " stroke="black" stroke-width="1" fill="none"/>
<path d="M 248 206 L 249 207 L 249 210 L 248 211 L 247 210 L 247 207 " stroke="black" stroke-width="1" fill="none"/>
<path d="M 249 194 L 250 195 L 250 199 L 249 200 L 248 199 L 248 195 " stroke="black" stroke-width="1" fill="none"/>
<path d="M 248 193 L 249 192 L 250 193 L 249 194 " stroke="black" stroke-width="1" fill="none"/>
<path d="M 186 163 L 187 164 L 187 169 L 186 170 L 185 169 L 185 164 " stroke="black" stroke-width="1" fill="none"/>
<path d="M 182 163 L 183 164 L 183 169 L 182 170 L 181 169 L 181 164 " stroke="black" stroke-width="1" fill="none"/>
<path d="M 183 152 L 186 152 L 189 155 L 189 158 L 186 161 L 184 161 L 183 160 L 182 160 L 181 159 L 181 155 L 182 154 L 182 153 " stroke="black" stroke-width="1" fill="none"/>
<path d="M 185 154 L 183 156 L 183 157 L 185 159 L 186 158 L 186 155 " stroke="black" stroke-width="1" fill="none"/>
<path d="M 185 154 L 186 155 L 186 158 L 185 159 L 183 157 L 183 156 " stroke="black" stroke-width="1" fill="none"/>
<path d="M 122 152 L 121 151 L 120 152 L 119 152 L 119 154 L 120 154 " stroke="black" stroke-width="1" fill="none"/>
<path d="M 119 153 L 120 152 L 121 153 L 120 154 " stroke="black" stroke-width="1" fill="none"/>
<path d="M 88 136 L 86 138 L 86 139 L 88 141 L 89 140 L 89 137 " stroke="black" stroke-width="1" fill="none"/>
<path d="M 88 136 L 89 137 L 89 140 L 88 141 L 86 139 L 86 138 " stroke="black" stroke-width="1" fill="none"/>
<path d="M 51 133 L 51 140 L 52 140 L 53 141 L 53 138 L 54 137 L 55 137 L 56 138 L 56 140 L 58 140 L 58 133 L 56 133 L 54 135 L 53 134 L 53 132 L 52 133 " stroke="black" stroke-width="1" fill="none"/>
<path d="M 57 133 L 58 134 L 58 139 L 57 140 L 56 139 L 56 137 L 55 136 L 55 135 " stroke="black" stroke-width="1" fill="none"/>
<path d="M 52 133 L 53 134 L 53 135 L 54 135 L 55 136 L 54 137 L 53 137 L 53 139 L 52 140 L 51 139 L 51 134 " stroke="black" stroke-width="1" fill="none"/>
<path d="M 90 120 L 90 122 L 89 123 L 89 128 L 88 129 L 88 132 L 90 132 L 90 131 L 91 130 L 91 126 L 92 125 L 92 121 L 91 121 " stroke="black" stroke-width="1" fill="none"/>
<path d="M 91 121 L 92 122 L 92 125 L 91 126 L 91 130 L 89 132 L 88 131 L 88 129 L 89 128 L 89 123 " stroke="black" stroke-width="1" fill="none"/>
<path d="M 123 117 L 121 119 L 121 124 L 122 125 L 123 125 L 124 126 L 127 126 L 129 124 L 129 119 L 127 117 " stroke="black" stroke-width="1" fill="none"/>
<path d="M 123 117 L 126 117 L 129 120 L 129 123 L 126 126 L 124 126 L 123 125 L 122 125 L 121 124 L 121 120 L 122 119 L 122 118 " stroke="black" stroke-width="1" fill="none"/>
<path d="M 125 119 L 123 121 L 123 122 L 125 124 L 126 123 L 126 120 " stroke="black" stroke-width="1" fill="none"/>
<path d="M 125 119 L 126 120 L 126 123 L 125 124 L 123 122 L 123 121 " stroke="black" stroke-width="1" fill="none"/>
<path d="M 92 110 L 90 112 L 90 117 L 91 118 L 92 118 L 93 119 L 96 119 L 98 117 L 98 112 L 96 110 " stroke="black" stroke-width="1" fill="none"/>
<path d="M 92 110 L 95 110 L 98 113 L 98 116 L 95 119 L 93 119 L 92 118 L 91 118 L 90 117 L 90 113 L 91 112 L 91 111 " stroke="black" stroke-width="1" fill="none"/>
<path d="M 94 112 L 92 114 L 92 115 L 94 117 L 95 116 L 95 113 " stroke="black" stroke-width="1" fill="none"/>
<path d="M 94 112 L 95 113 L 95 116 L 94 117 L 92 115 L 92 114 " stroke="black" stroke-width="1" fill="none"/>
<path d="M 103 106 L 102 106 L 100 108 L 101 108 " stroke="black" stroke-width="1" fill="none"/>
<path d="M 115 78 L 110 79 L 106 102 L 82 102 L 67 121 L 71 142 L 62 138 L 60 143 L 72 148 L 53 162 L 55 185 L 78 196 L 96 184 L 77 199 L 53 186 L 51 161 L 28 151 L 31 147 L 53 159 L 69 148 L 53 159 L 32 147 L 28 149 L 51 162 L 53 187 L 75 199 L 95 187 L 96 197 L 100 197 L 97 183 L 120 195 L 141 184 L 121 197 L 101 186 L 118 197 L 141 185 L 154 193 L 158 191 L 143 182 L 140 163 L 146 160 L 144 153 L 138 155 L 140 183 L 120 195 L 99 182 L 99 157 L 116 148 L 134 155 L 121 147 L 135 153 L 120 145 L 123 128 L 117 145 L 98 155 L 90 134 L 84 136 L 86 143 L 85 135 L 92 137 L 87 145 L 90 153 L 73 144 L 70 122 L 85 104 L 105 104 L 82 106 L 70 121 L 70 143 L 68 120 L 83 102 L 107 102 L 112 78 L 116 82 L 109 103 L 100 110 L 107 105 L 119 114 L 109 103 " stroke="black" stroke-width="1" fill="none"/>
<path d="M 98 188 L 100 190 L 100 191 L 101 192 L 101 195 L 99 197 L 97 197 L 96 196 L 96 191 L 97 190 L 97 189 " stroke="black" stroke-width="1" fill="none"/>
<path d="M 96 186 L 97 185 L 99 187 L 98 188 L 97 188 L 96 187 " stroke="black" stroke-width="1" fill="none"/>
<path d="M 141 183 L 142 182 L 143 183 L 144 183 L 145 184 L 146 184 L 147 185 L 148 185 L 149 186 L 151 186 L 152 187 L 154 187 L 155 188 L 156 188 L 158 190 L 155 193 L 154 192 L 153 192 L 151 190 L 150 190 L 148 188 L 147 188 L 145 186 L 144 186 L 143 185 L 142 185 L 141 184 " stroke="black" stroke-width="1" fill="none"/>
<path d="M 141 170 L 142 171 L 142 174 L 143 175 L 143 181 L 142 182 L 141 181 L 141 179 L 140 178 L 140 171 " stroke="black" stroke-width="1" fill="none"/>
<path d="M 141 164 L 142 165 L 142 169 L 141 170 L 140 169 L 140 165 " stroke="black" stroke-width="1" fill="none"/>
<path d="M 96 158 L 97 159 L 97 161 L 98 162 L 98 174 L 99 175 L 99 182 L 98 183 L 97 182 L 97 179 L 96 178 L 96 166 L 95 165 L 95 159 " stroke="black" stroke-width="1" fill="none"/>
<path d="M 140 153 L 143 153 L 146 156 L 146 159 L 143 162 L 141 162 L 140 161 L 139 161 L 138 160 L 138 156 L 139 155 L 139 154 " stroke="black" stroke-width="1" fill="none"/>
<path d="M 142 155 L 140 157 L 140 158 L 142 160 L 143 159 L 143 156 " stroke="black" stroke-width="1" fill="none"/>
<path d="M 142 155 L 143 156 L 143 159 L 142 160 L 140 158 L 140 157 " stroke="black" stroke-width="1" fill="none"/>
<path d="M 74 145 L 75 146 L 76 146 L 77 147 L 78 147 L 89 153 L 90 153 L 91 152 L 92 153 L 92 156 L 95 159 L 95 165 L 96 166 L 96 178 L 97 179 L 97 182 L 95 184 L 92 185 L 89 188 L 88 188 L 82 193 L 81 193 L 77 196 L 76 196 L 75 195 L 74 195 L 73 194 L 72 194 L 71 193 L 70 193 L 69 192 L 68 192 L 67 191 L 66 191 L 65 190 L 58 187 L 55 184 L 55 178 L 54 177 L 54 166 L 53 165 L 53 162 L 54 161 L 57 160 L 59 158 L 60 158 L 62 156 L 63 156 L 65 154 L 66 154 L 70 150 L 71 150 L 73 147 L 75 149 L 76 149 L 85 154 L 87 154 L 90 156 L 90 155 L 88 155 L 87 154 L 86 154 L 85 153 L 84 153 L 83 152 L 82 152 L 81 151 L 74 148 L 73 147 L 73 146 " stroke="black" stroke-width="1" fill="none"/>
<path d="M 60 142 L 61 141 L 61 140 L 63 138 L 64 139 L 65 139 L 68 142 L 69 142 L 71 144 L 73 144 L 74 145 L 73 146 L 73 147 L 72 148 L 71 147 L 71 146 L 70 146 L 69 145 L 67 145 L 66 144 L 62 144 " stroke="black" stroke-width="1" fill="none"/>
<path d="M 122 128 L 123 129 L 123 132 L 122 133 L 122 136 L 121 137 L 121 140 L 120 141 L 120 146 L 121 147 L 119 149 L 118 148 L 116 148 L 115 149 L 114 149 L 112 151 L 111 151 L 110 152 L 109 152 L 108 153 L 107 153 L 106 154 L 105 154 L 104 155 L 103 155 L 102 156 L 100 156 L 99 157 L 98 157 L 97 158 L 95 158 L 92 155 L 92 153 L 90 151 L 90 150 L 88 148 L 88 147 L 87 146 L 88 145 L 89 145 L 91 143 L 93 145 L 93 148 L 94 149 L 93 150 L 94 151 L 94 152 L 95 153 L 95 155 L 96 156 L 97 155 L 98 155 L 99 154 L 100 154 L 101 153 L 103 153 L 104 152 L 105 152 L 106 151 L 107 151 L 108 150 L 109 150 L 110 149 L 111 149 L 113 147 L 114 147 L 115 146 L 117 146 L 117 144 L 118 143 L 118 140 L 119 139 L 119 136 L 120 135 L 120 130 " stroke="black" stroke-width="1" fill="none"/>
<path d="M 109 103 L 113 107 L 113 108 L 119 114 L 117 116 L 116 115 L 116 114 L 111 109 L 111 108 L 109 106 L 108 106 L 107 105 " stroke="black" stroke-width="1" fill="none"/>
</svg>