<svg xmlns="http://www.w3.org/2000/svg" width="300" height="300" viewBox="0 0 300 300">
<path d="M 144 260 L 144 262 L 154 262 L 153 261 L 154 260 " stroke="black" stroke-width="1" fill="none"/>
<path d="M 144 261 L 145 260 L 152 260 L 153 261 L 152 262 L 145 262 " stroke="black" stroke-width="1" fill="none"/>
<path d="M 168 257 L 167 257 L 165 259 L 165 260 L 165 259 L 167 257 L 168 258 L 168 262 L 166 264 L 165 264 L 167 264 L 167 263 L 168 262 L 168 260 L 169 259 L 168 258 " stroke="black" stroke-width="1" fill="none"/>
<path d="M 159 256 L 159 263 L 161 263 L 162 262 L 162 261 L 161 260 L 161 256 " stroke="black" stroke-width="1" fill="none"/>
<path d="M 159 261 L 160 260 L 161 261 L 161 262 L 160 263 L 159 262 " stroke="black" stroke-width="1" fill="none"/>
<path d="M 159 259 L 160 258 L 161 259 L 160 260 " stroke="black" stroke-width="1" fill="none"/>
<path d="M 159 257 L 160 256 L 161 257 L 160 258 " stroke="black" stroke-width="1" fill="none"/>
<path d="M 156 255 L 156 264 L 157 264 L 158 265 L 163 265 L 163 264 L 162 265 L 158 265 L 156 263 L 156 256 L 158 254 L 162 254 L 163 255 L 163 256 L 164 257 L 163 258 L 163 259 L 163 258 L 164 257 L 164 256 L 163 255 L 163 254 L 158 254 L 157 255 " stroke="black" stroke-width="1" fill="none"/>
<path d="M 140 254 L 139 255 L 138 254 L 138 257 L 137 258 L 136 258 L 135 257 L 135 255 L 132 255 L 132 264 L 135 264 L 135 261 L 136 260 L 137 260 L 138 261 L 138 265 L 139 264 L 140 265 " stroke="black" stroke-width="1" fill="none"/>
<path d="M 135 259 L 136 258 L 137 258 L 138 259 L 137 260 L 136 260 " stroke="black" stroke-width="1" fill="none"/>
<path d="M 139 255 L 140 256 L 140 263 L 139 264 L 138 263 L 138 261 L 137 260 L 138 259 L 137 258 L 138 257 L 138 256 " stroke="black" stroke-width="1" fill="none"/>
<path d="M 133 255 L 134 255 L 135 256 L 135 263 L 134 264 L 133 264 L 132 263 L 132 256 " stroke="black" stroke-width="1" fill="none"/>
<path d="M 239 179 L 238 180 L 237 179 L 237 182 L 236 183 L 235 183 L 234 182 L 234 180 L 231 180 L 231 189 L 234 189 L 234 186 L 235 185 L 236 185 L 237 186 L 237 190 L 238 189 L 239 190 " stroke="black" stroke-width="1" fill="none"/>
<path d="M 234 184 L 235 183 L 236 183 L 237 184 L 236 185 L 235 185 " stroke="black" stroke-width="1" fill="none"/>
<path d="M 238 180 L 239 181 L 239 188 L 238 189 L 237 188 L 237 186 L 236 185 L 237 184 L 236 183 L 237 182 L 237 181 " stroke="black" stroke-width="1" fill="none"/>
<path d="M 232 180 L 233 180 L 234 181 L 234 188 L 233 189 L 232 189 L 231 188 L 231 181 " stroke="black" stroke-width="1" fill="none"/>
<path d="M 236 176 L 236 177 L 235 178 L 236 177 " stroke="black" stroke-width="1" fill="none"/>
<path d="M 233 176 L 233 177 " stroke="black" stroke-width="1" fill="none"/>
<path d="M 230 163 L 229 164 L 229 165 L 228 166 L 228 171 L 229 172 L 229 173 L 230 174 L 235 174 L 237 172 L 237 165 L 235 163 " stroke="black" stroke-width="1" fill="none"/>
<path d="M 231 163 L 234 163 L 237 166 L 237 171 L 234 174 L 231 174 L 229 172 L 229 171 L 228 170 L 228 167 L 229 166 L 229 165 " stroke="black" stroke-width="1" fill="none"/>
<path d="M 232 165 L 231 166 L 231 167 L 230 168 L 230 169 L 231 170 L 231 171 L 232 172 L 233 171 L 234 171 L 235 170 L 235 167 L 234 166 L 233 166 " stroke="black" stroke-width="1" fill="none"/>
<path d="M 232 166 L 234 166 L 235 167 L 235 170 L 234 171 L 232 171 L 230 169 L 230 168 " stroke="black" stroke-width="1" fill="none"/>
<path d="M 29 155 L 28 156 L 28 157 L 27 158 L 27 163 L 28 164 L 28 165 L 29 166 L 34 166 L 36 164 L 36 157 L 34 155 " stroke="black" stroke-width="1" fill="none"/>
<path d="M 30 155 L 33 155 L 36 158 L 36 163 L 33 166 L 30 166 L 28 164 L 28 163 L 27 162 L 27 159 L 28 158 L 28 157 " stroke="black" stroke-width="1" fill="none"/>
<path d="M 31 157 L 30 158 L 30 159 L 29 160 L 29 161 L 30 162 L 30 163 L 31 164 L 32 163 L 33 163 L 34 162 L 34 159 L 33 158 L 32 158 " stroke="black" stroke-width="1" fill="none"/>
<path d="M 31 158 L 33 158 L 34 159 L 34 162 L 33 163 L 31 163 L 29 161 L 29 160 " stroke="black" stroke-width="1" fill="none"/>
<path d="M 19 155 L 18 156 L 17 155 L 17 158 L 16 159 L 15 159 L 14 158 L 14 156 L 11 156 L 11 165 L 14 165 L 14 162 L 15 161 L 16 161 L 17 162 L 17 166 L 18 165 L 19 166 " stroke="black" stroke-width="1" fill="none"/>
<path d="M 14 160 L 15 159 L 16 159 L 17 160 L 16 161 L 15 161 " stroke="black" stroke-width="1" fill="none"/>
<path d="M 18 156 L 19 157 L 19 164 L 18 165 L 17 164 L 17 162 L 16 161 L 17 160 L 16 159 L 17 158 L 17 157 " stroke="black" stroke-width="1" fill="none"/>
<path d="M 12 156 L 13 156 L 14 157 L 14 164 L 13 165 L 12 165 L 11 164 L 11 157 " stroke="black" stroke-width="1" fill="none"/>
<path d="M 90 141 L 89 142 L 88 141 L 88 144 L 87 145 L 86 145 L 85 144 L 85 142 L 82 142 L 82 151 L 85 151 L 85 148 L 86 147 L 87 147 L 88 148 L 88 152 L 89 151 L 90 152 " stroke="black" stroke-width="1" fill="none"/>
<path d="M 85 146 L 86 145 L 87 145 L 88 146 L 87 147 L 86 147 " stroke="black" stroke-width="1" fill="none"/>
<path d="M 89 142 L 90 143 L 90 150 L 89 151 L 88 150 L 88 148 L 87 147 L 88 146 L 87 145 L 88 144 L 88 143 " stroke="black" stroke-width="1" fill="none"/>
<path d="M 83 142 L 84 142 L 85 143 L 85 150 L 84 151 L 83 151 L 82 150 L 82 143 " stroke="black" stroke-width="1" fill="none"/>
<path d="M 148 137 L 148 138 L 147 139 L 147 141 L 150 141 L 150 137 " stroke="black" stroke-width="1" fill="none"/>
<path d="M 149 137 L 150 138 L 150 140 L 149 141 L 148 141 L 147 140 L 147 139 " stroke="black" stroke-width="1" fill="none"/>
<path d="M 157 136 L 156 137 L 156 138 L 155 139 L 155 144 L 156 145 L 156 146 L 157 147 L 162 147 L 164 145 L 164 138 L 162 136 " stroke="black" stroke-width="1" fill="none"/>
<path d="M 158 136 L 161 136 L 164 139 L 164 144 L 161 147 L 158 147 L 156 145 L 156 144 L 155 143 L 155 140 L 156 139 L 156 138 " stroke="black" stroke-width="1" fill="none"/>
<path d="M 159 138 L 158 139 L 158 140 L 157 141 L 157 142 L 158 143 L 158 144 L 159 145 L 160 144 L 161 144 L 162 143 L 162 140 L 161 139 L 160 139 " stroke="black" stroke-width="1" fill="none"/>
<path d="M 159 139 L 161 139 L 162 140 L 162 143 L 161 144 L 159 144 L 157 142 L 157 141 " stroke="black" stroke-width="1" fill="none"/>
<path d="M 87 131 L 89 133 L 90 133 L 92 135 L 93 135 L 95 137 L 96 137 L 99 140 L 100 140 L 103 143 L 104 143 L 107 146 L 108 146 L 111 149 L 112 149 L 113 150 L 115 150 L 116 149 L 117 149 L 121 145 L 122 145 L 126 141 L 127 141 L 128 140 L 129 140 L 131 138 L 132 138 L 135 135 L 136 136 L 137 136 L 136 136 L 135 135 L 133 137 L 132 137 L 130 139 L 129 139 L 128 140 L 127 140 L 125 142 L 124 142 L 120 146 L 119 146 L 116 149 L 115 149 L 114 150 L 113 149 L 112 149 L 110 147 L 109 147 L 106 144 L 105 144 L 102 141 L 101 141 L 98 138 L 97 138 L 95 136 L 94 136 L 92 134 L 91 134 L 88 131 " stroke="black" stroke-width="1" fill="none"/>
<path d="M 74 95 L 74 97 L 73 98 L 72 97 L 72 96 L 72 97 L 73 98 L 74 97 " stroke="black" stroke-width="1" fill="none"/>
<path d="M 71 92 L 71 94 L 71 93 L 72 92 L 73 93 L 73 92 " stroke="black" stroke-width="1" fill="none"/>
<path d="M 74 84 L 74 86 L 73 87 L 69 87 L 69 90 L 70 90 L 69 89 L 69 88 L 70 87 L 72 87 L 73 88 L 73 89 L 73 87 L 74 86 " stroke="black" stroke-width="1" fill="none"/>
<path d="M 146 136 L 143 138 L 142 135 L 136 133 L 129 108 L 90 102 L 94 81 L 89 80 L 77 96 L 89 81 L 93 81 L 94 83 L 88 102 L 87 99 L 91 84 L 86 102 L 78 99 L 89 84 L 77 100 L 75 99 L 37 114 L 44 138 L 35 152 L 40 154 L 44 143 L 48 139 L 79 128 L 81 130 L 81 138 L 86 139 L 87 136 L 83 129 L 84 126 L 113 147 L 133 134 L 127 110 L 91 105 L 90 102 L 128 108 L 136 133 L 143 139 L 145 139 L 143 138 " stroke="black" stroke-width="1" fill="none"/>
<path d="M 139 136 L 140 135 L 141 135 L 142 136 L 141 137 L 140 137 " stroke="black" stroke-width="1" fill="none"/>
<path d="M 83 131 L 84 131 L 85 132 L 85 134 L 87 136 L 87 138 L 86 139 L 83 139 L 81 137 L 81 133 " stroke="black" stroke-width="1" fill="none"/>
<path d="M 80 127 L 78 129 L 76 129 L 75 130 L 74 130 L 73 131 L 71 131 L 70 132 L 68 132 L 67 133 L 66 133 L 65 134 L 63 134 L 62 135 L 60 135 L 59 136 L 57 136 L 56 137 L 54 137 L 53 138 L 51 138 L 50 139 L 47 139 L 46 138 L 47 137 L 48 137 L 49 136 L 51 136 L 52 135 L 54 135 L 55 134 L 57 134 L 58 133 L 60 133 L 61 132 L 63 132 L 64 131 L 66 131 L 67 130 L 69 130 L 70 129 L 71 129 L 72 128 L 74 128 L 75 127 L 77 127 L 78 126 L 79 126 " stroke="black" stroke-width="1" fill="none"/>
<path d="M 88 105 L 89 104 L 90 104 L 91 105 L 97 105 L 98 106 L 104 106 L 105 107 L 110 107 L 111 108 L 117 108 L 118 109 L 123 109 L 124 110 L 126 110 L 128 112 L 128 114 L 129 115 L 129 117 L 130 118 L 130 121 L 131 122 L 131 124 L 132 125 L 132 128 L 133 129 L 133 133 L 131 135 L 130 135 L 128 137 L 127 137 L 125 139 L 124 139 L 122 141 L 121 141 L 117 145 L 116 145 L 114 147 L 113 146 L 112 146 L 109 143 L 108 143 L 105 140 L 104 140 L 101 137 L 100 137 L 98 135 L 97 135 L 94 132 L 93 132 L 91 130 L 90 130 L 88 128 L 87 128 L 86 127 L 85 127 L 83 125 L 84 124 L 84 121 L 85 120 L 85 117 L 86 116 L 86 113 L 87 112 L 87 109 L 88 108 " stroke="black" stroke-width="1" fill="none"/>
<path d="M 88 102 L 89 103 L 88 104 L 88 108 L 87 109 L 87 112 L 86 113 L 86 116 L 85 117 L 85 120 L 84 121 L 84 124 L 83 125 L 83 129 L 84 130 L 82 132 L 81 131 L 81 130 L 80 129 L 80 127 L 81 126 L 81 124 L 82 123 L 82 119 L 83 118 L 83 115 L 84 114 L 84 111 L 85 110 L 85 107 L 86 106 L 86 103 L 87 102 " stroke="black" stroke-width="1" fill="none"/>
<path d="M 86 105 L 86 106 L 85 107 L 85 110 L 84 111 L 84 114 L 83 115 L 83 118 L 82 119 L 82 123 L 81 124 L 81 125 L 80 126 L 78 126 L 77 127 L 75 127 L 74 128 L 72 128 L 71 129 L 70 129 L 69 130 L 67 130 L 66 131 L 64 131 L 63 132 L 61 132 L 60 133 L 58 133 L 57 134 L 55 134 L 54 135 L 52 135 L 51 136 L 49 136 L 48 137 L 47 137 L 45 135 L 45 133 L 44 132 L 44 129 L 43 128 L 43 125 L 42 124 L 42 122 L 41 121 L 41 119 L 40 118 L 40 115 L 41 114 L 43 114 L 44 113 L 46 113 L 47 112 L 49 112 L 50 111 L 52 111 L 53 110 L 56 110 L 57 109 L 58 109 L 59 108 L 61 108 L 62 107 L 64 107 L 65 106 L 66 106 L 67 105 L 69 105 L 70 104 L 71 104 L 72 103 L 74 103 L 75 102 L 77 102 L 78 103 L 83 103 L 84 104 L 85 104 " stroke="black" stroke-width="1" fill="none"/>
<path d="M 85 101 L 86 102 L 86 103 L 85 104 L 84 104 L 83 103 L 78 103 L 77 102 L 75 102 L 74 103 L 72 103 L 69 105 L 67 105 L 64 107 L 59 108 L 56 110 L 53 110 L 52 111 L 50 111 L 49 112 L 47 112 L 46 113 L 44 113 L 43 114 L 41 114 L 40 115 L 40 118 L 41 119 L 41 121 L 42 122 L 42 124 L 43 125 L 43 128 L 44 129 L 44 132 L 45 133 L 45 135 L 46 136 L 46 138 L 47 139 L 43 144 L 43 145 L 42 146 L 42 149 L 41 150 L 40 153 L 39 154 L 38 153 L 37 153 L 35 151 L 37 149 L 37 148 L 41 144 L 41 143 L 44 139 L 44 138 L 43 137 L 43 134 L 42 133 L 42 130 L 41 129 L 41 127 L 40 126 L 40 123 L 39 122 L 39 120 L 38 119 L 38 117 L 37 116 L 37 115 L 40 112 L 42 112 L 43 111 L 45 111 L 46 110 L 48 110 L 49 109 L 51 109 L 52 108 L 54 108 L 55 107 L 60 106 L 63 104 L 65 104 L 68 102 L 70 102 L 75 99 L 76 99 L 77 100 L 79 100 L 80 101 " stroke="black" stroke-width="1" fill="none"/>
<path d="M 242 75 L 237 76 L 219 92 L 223 117 L 204 134 L 192 130 L 183 125 L 179 106 L 176 109 L 175 106 L 179 103 L 179 96 L 177 94 L 172 94 L 170 97 L 170 102 L 173 106 L 177 127 L 169 134 L 169 136 L 171 136 L 181 127 L 185 130 L 201 135 L 204 141 L 204 152 L 206 161 L 225 167 L 224 166 L 225 165 L 211 160 L 211 156 L 205 136 L 224 120 L 250 128 L 270 112 L 268 95 L 265 84 " stroke="black" stroke-width="1" fill="none"/>
<path d="M 210 162 L 211 161 L 214 161 L 215 162 L 217 162 L 218 163 L 220 163 L 221 164 L 222 164 L 224 166 L 223 167 L 222 167 L 221 166 L 219 166 L 218 165 L 216 165 L 215 164 L 213 164 L 212 163 L 211 163 " stroke="black" stroke-width="1" fill="none"/>
<path d="M 241 123 L 242 122 L 244 122 L 245 123 L 244 124 L 242 124 " stroke="black" stroke-width="1" fill="none"/>
<path d="M 239 120 L 240 119 L 242 119 L 243 120 L 245 120 L 246 121 L 246 122 L 245 123 L 244 122 L 242 122 L 241 121 L 240 121 " stroke="black" stroke-width="1" fill="none"/>
<path d="M 233 120 L 234 119 L 236 119 L 237 120 L 239 120 L 240 121 L 241 121 L 242 122 L 241 123 L 239 123 L 238 122 L 236 122 L 235 121 L 234 121 " stroke="black" stroke-width="1" fill="none"/>
<path d="M 230 119 L 231 118 L 233 118 L 234 119 L 233 120 L 231 120 " stroke="black" stroke-width="1" fill="none"/>
<path d="M 228 118 L 229 117 L 229 116 L 230 115 L 231 115 L 232 116 L 234 116 L 235 117 L 237 117 L 238 118 L 239 118 L 240 119 L 239 120 L 237 120 L 236 119 L 234 119 L 233 118 L 231 118 L 230 119 L 229 119 " stroke="black" stroke-width="1" fill="none"/>
<path d="M 174 107 L 176 109 L 176 111 L 176 109 L 178 107 L 180 109 L 180 114 L 181 115 L 181 118 L 182 119 L 183 126 L 187 128 L 189 128 L 192 130 L 194 130 L 195 131 L 197 131 L 198 132 L 203 133 L 204 134 L 208 130 L 209 130 L 213 126 L 214 126 L 222 118 L 223 119 L 223 120 L 215 128 L 214 128 L 205 136 L 206 137 L 206 141 L 207 142 L 207 145 L 209 149 L 209 152 L 211 156 L 211 161 L 210 162 L 209 161 L 207 161 L 205 159 L 205 153 L 204 152 L 204 141 L 203 140 L 203 136 L 202 135 L 199 135 L 198 134 L 193 133 L 181 127 L 179 128 L 172 135 L 170 136 L 169 135 L 169 134 L 171 133 L 177 127 L 177 125 L 176 124 L 176 119 L 175 118 L 175 114 L 174 113 L 174 110 L 173 109 " stroke="black" stroke-width="1" fill="none"/>
<path d="M 179 125 L 181 125 " stroke="black" stroke-width="1" fill="none"/>
<path d="M 180 120 L 180 123 " stroke="black" stroke-width="1" fill="none"/>
<path d="M 179 116 L 179 118 L 178 119 L 178 123 L 178 119 L 179 118 " stroke="black" stroke-width="1" fill="none"/>
<path d="M 178 111 L 178 113 L 177 114 L 177 116 L 177 114 L 178 113 " stroke="black" stroke-width="1" fill="none"/>
<path d="M 173 106 L 174 105 L 175 106 L 174 107 " stroke="black" stroke-width="1" fill="none"/>
<path d="M 173 94 L 176 94 L 179 97 L 179 102 L 176 105 L 173 105 L 171 103 L 171 102 L 170 101 L 170 98 L 171 97 L 171 96 " stroke="black" stroke-width="1" fill="none"/>
<path d="M 174 96 L 173 97 L 173 98 L 172 99 L 172 100 L 173 101 L 173 102 L 174 103 L 175 102 L 176 102 L 177 101 L 177 98 L 176 97 L 175 97 " stroke="black" stroke-width="1" fill="none"/>
<path d="M 174 97 L 176 97 L 177 98 L 177 101 L 176 102 L 174 102 L 172 100 L 172 99 " stroke="black" stroke-width="1" fill="none"/>
<path d="M 264 91 L 265 92 L 265 95 L 264 96 L 263 95 L 263 92 " stroke="black" stroke-width="1" fill="none"/>
<path d="M 261 89 L 262 90 L 262 91 L 263 92 L 263 95 L 264 96 L 264 102 L 265 103 L 265 106 L 264 107 L 263 106 L 263 105 L 262 104 L 262 97 L 261 96 L 261 93 L 260 92 L 260 90 " stroke="black" stroke-width="1" fill="none"/>
<path d="M 240 75 L 263 83 L 266 87 L 270 111 L 249 128 L 235 123 L 238 122 L 245 125 L 250 125 L 268 110 L 263 86 L 243 78 L 239 78 L 237 80 L 243 78 L 261 85 L 264 88 L 263 92 L 262 89 L 260 88 L 263 108 L 264 107 L 265 108 L 264 102 L 265 95 L 268 110 L 249 125 L 244 124 L 247 123 L 246 122 L 247 121 L 231 115 L 228 115 L 229 117 L 227 118 L 224 113 L 221 94 L 223 92 L 221 94 L 225 117 L 236 122 L 233 123 L 222 118 L 223 117 L 219 93 " stroke="black" stroke-width="1" fill="none"/>
<path d="M 227 90 L 226 91 " stroke="black" stroke-width="1" fill="none"/>
<path d="M 229 86 L 227 88 " stroke="black" stroke-width="1" fill="none"/>
<path d="M 233 85 L 232 86 " stroke="black" stroke-width="1" fill="none"/>
<path d="M 239 81 L 238 82 L 237 82 L 236 83 L 237 82 L 238 82 L 239 83 L 237 85 L 236 85 L 233 88 L 232 88 L 227 93 L 226 93 L 225 94 L 224 94 L 226 94 L 228 92 L 229 92 L 234 87 L 235 87 L 237 85 L 238 85 L 240 83 L 239 83 L 238 82 " stroke="black" stroke-width="1" fill="none"/>
<path d="M 235 81 L 233 83 " stroke="black" stroke-width="1" fill="none"/>
<path d="M 72 73 L 71 74 L 70 73 L 70 76 L 69 77 L 68 77 L 67 76 L 67 74 L 64 74 L 64 83 L 67 83 L 67 80 L 68 79 L 69 79 L 70 80 L 70 84 L 71 84 L 72 83 " stroke="black" stroke-width="1" fill="none"/>
<path d="M 67 78 L 68 77 L 69 77 L 70 78 L 69 79 L 68 79 " stroke="black" stroke-width="1" fill="none"/>
<path d="M 71 74 L 72 75 L 72 83 L 71 84 L 70 83 L 70 80 L 69 79 L 70 78 L 69 77 L 70 76 L 70 75 " stroke="black" stroke-width="1" fill="none"/>
<path d="M 65 74 L 66 74 L 67 75 L 67 82 L 66 83 L 65 83 L 64 82 L 64 75 " stroke="black" stroke-width="1" fill="none"/>
<path d="M 97 68 L 96 69 L 95 68 L 95 72 L 94 73 L 93 72 L 93 71 L 92 70 L 92 69 L 90 69 L 90 70 L 89 71 L 89 78 L 91 78 L 91 75 L 91 77 L 90 78 L 89 77 L 89 71 L 91 69 L 92 70 L 92 71 L 94 73 L 95 72 L 95 70 L 96 69 L 97 70 L 97 77 L 96 78 L 95 78 L 94 77 L 94 76 L 93 75 L 93 76 L 94 77 L 94 78 L 97 78 " stroke="black" stroke-width="1" fill="none"/>
<path d="M 108 52 L 108 54 L 107 55 L 107 56 L 106 57 L 106 58 L 104 60 L 104 61 L 103 62 L 103 63 L 102 64 L 102 65 L 101 66 L 101 67 L 101 66 L 103 64 L 103 63 L 104 62 L 104 61 L 105 60 L 105 59 L 106 58 L 106 57 L 108 55 " stroke="black" stroke-width="1" fill="none"/>
<path d="M 106 52 L 105 53 L 105 54 L 104 55 L 104 56 L 103 57 L 103 58 L 102 59 L 102 60 L 100 62 L 100 63 L 99 64 L 99 66 L 99 65 L 100 64 L 100 63 L 101 62 L 101 61 L 102 60 L 102 59 L 104 57 L 104 56 L 105 55 L 105 54 L 106 53 " stroke="black" stroke-width="1" fill="none"/>
</svg>