<svg xmlns="http://www.w3.org/2000/svg" width="300" height="300" viewBox="0 0 300 300">
<path d="M 100 228 L 100 235 L 101 235 L 102 236 L 102 233 L 103 232 L 104 232 L 105 233 L 105 235 L 107 235 L 107 228 L 105 228 L 103 230 L 102 229 L 102 228 " stroke="black" stroke-width="1" fill="none"/>
<path d="M 106 228 L 107 229 L 107 234 L 106 235 L 105 234 L 105 232 L 104 231 L 104 230 " stroke="black" stroke-width="1" fill="none"/>
<path d="M 101 228 L 102 229 L 102 230 L 103 230 L 104 231 L 103 232 L 102 232 L 102 234 L 101 235 L 100 234 L 100 229 " stroke="black" stroke-width="1" fill="none"/>
<path d="M 100 224 L 101 223 L 100 224 L 100 225 L 107 225 L 107 223 L 106 223 L 107 224 L 106 225 L 101 225 " stroke="black" stroke-width="1" fill="none"/>
<path d="M 103 220 L 102 220 L 102 221 " stroke="black" stroke-width="1" fill="none"/>
<path d="M 105 219 L 105 221 " stroke="black" stroke-width="1" fill="none"/>
<path d="M 29 218 L 27 220 L 27 225 L 29 227 L 33 227 L 35 225 L 35 220 L 33 218 " stroke="black" stroke-width="1" fill="none"/>
<path d="M 29 218 L 32 218 L 35 221 L 35 224 L 32 227 L 29 227 L 27 225 L 27 221 L 28 220 L 28 219 " stroke="black" stroke-width="1" fill="none"/>
<path d="M 31 220 L 29 222 L 29 223 L 31 225 L 32 224 L 32 221 " stroke="black" stroke-width="1" fill="none"/>
<path d="M 31 220 L 32 221 L 32 224 L 31 225 L 29 223 L 29 222 " stroke="black" stroke-width="1" fill="none"/>
<path d="M 104 210 L 104 214 L 103 215 L 102 215 L 102 217 L 104 217 " stroke="black" stroke-width="1" fill="none"/>
<path d="M 102 216 L 103 215 L 104 216 L 103 217 " stroke="black" stroke-width="1" fill="none"/>
<path d="M 12 210 L 12 217 L 13 217 L 14 218 L 14 215 L 15 214 L 16 214 L 17 215 L 17 217 L 19 217 L 19 210 L 17 210 L 15 212 L 14 211 L 14 209 L 13 210 " stroke="black" stroke-width="1" fill="none"/>
<path d="M 18 210 L 19 211 L 19 216 L 18 217 L 17 216 L 17 214 L 16 213 L 16 212 " stroke="black" stroke-width="1" fill="none"/>
<path d="M 13 210 L 14 211 L 14 212 L 15 212 L 16 213 L 15 214 L 14 214 L 14 216 L 13 217 L 12 216 L 12 211 " stroke="black" stroke-width="1" fill="none"/>
<path d="M 187 191 L 186 191 L 187 192 L 186 193 L 181 193 L 180 192 L 180 193 L 187 193 " stroke="black" stroke-width="1" fill="none"/>
<path d="M 153 189 L 153 209 L 148 213 L 147 213 L 146 214 L 145 214 L 143 216 L 142 216 L 141 217 L 140 217 L 139 218 L 138 218 L 136 220 L 135 220 L 134 221 L 133 221 L 131 223 L 129 223 L 128 224 L 127 223 L 125 223 L 123 221 L 122 221 L 121 220 L 120 220 L 118 218 L 117 218 L 116 217 L 115 217 L 114 216 L 113 216 L 111 214 L 110 214 L 109 213 L 108 213 L 106 211 L 109 214 L 110 214 L 111 215 L 112 215 L 113 216 L 114 216 L 116 218 L 117 218 L 118 219 L 119 219 L 121 221 L 122 221 L 123 222 L 124 222 L 127 224 L 129 224 L 130 223 L 131 223 L 132 222 L 133 222 L 134 221 L 135 221 L 137 219 L 138 219 L 139 218 L 140 218 L 142 216 L 143 216 L 144 215 L 145 215 L 146 214 L 147 214 L 149 212 L 150 212 L 153 210 " stroke="black" stroke-width="1" fill="none"/>
<path d="M 185 188 L 184 187 L 182 187 L 181 188 L 180 188 L 180 190 L 182 190 L 181 190 L 180 189 L 182 187 L 183 187 L 184 188 L 184 189 " stroke="black" stroke-width="1" fill="none"/>
<path d="M 183 184 L 182 183 L 181 183 L 180 184 L 179 184 L 179 186 L 180 186 L 179 185 L 181 183 L 182 184 L 182 185 " stroke="black" stroke-width="1" fill="none"/>
<path d="M 181 180 L 180 179 L 179 179 L 178 180 L 178 182 L 179 182 " stroke="black" stroke-width="1" fill="none"/>
<path d="M 178 180 L 179 179 L 180 180 L 180 181 L 179 182 L 178 181 " stroke="black" stroke-width="1" fill="none"/>
<path d="M 176 176 L 176 177 L 177 178 L 176 177 " stroke="black" stroke-width="1" fill="none"/>
<path d="M 178 175 L 179 176 L 179 177 L 179 176 " stroke="black" stroke-width="1" fill="none"/>
<path d="M 175 172 L 175 174 " stroke="black" stroke-width="1" fill="none"/>
<path d="M 78 165 L 53 179 L 53 207 L 36 215 L 38 220 L 40 220 L 54 210 L 77 225 L 64 247 L 67 247 L 79 227 L 91 248 L 79 227 L 81 226 L 91 242 L 93 248 L 93 245 L 81 225 L 102 212 L 84 222 L 79 227 L 77 224 L 65 218 L 54 210 L 49 212 L 39 220 L 36 216 L 53 208 L 53 180 L 60 175 L 79 165 L 101 178 L 84 167 " stroke="black" stroke-width="1" fill="none"/>
<path d="M 78 226 L 79 227 L 77 229 L 77 230 L 76 231 L 76 232 L 74 234 L 74 235 L 73 236 L 73 237 L 71 239 L 71 240 L 70 241 L 70 242 L 68 244 L 68 245 L 66 247 L 65 247 L 64 246 L 66 244 L 66 243 L 67 242 L 67 241 L 69 239 L 69 238 L 71 236 L 71 235 L 72 234 L 72 233 L 74 231 L 74 230 L 75 229 L 75 228 L 77 226 " stroke="black" stroke-width="1" fill="none"/>
<path d="M 151 182 L 142 176 L 128 169 L 119 175 L 106 181 L 105 180 L 106 154 L 103 153 L 101 154 L 100 156 L 101 157 L 101 165 L 102 166 L 102 175 L 103 176 L 103 179 L 105 180 L 102 181 L 80 168 L 77 168 L 70 173 L 55 181 L 55 208 L 66 216 L 79 223 L 103 208 L 107 209 L 126 221 L 130 221 L 151 208 L 151 186 L 152 185 " stroke="black" stroke-width="1" fill="none"/>
<path d="M 104 181 L 105 182 L 105 207 L 104 208 L 103 207 L 103 182 " stroke="black" stroke-width="1" fill="none"/>
<path d="M 128 169 L 130 171 L 131 171 L 132 172 L 133 172 L 134 173 L 135 173 L 136 174 L 137 174 L 138 175 L 139 175 L 140 176 L 143 177 L 145 179 L 148 180 L 151 183 L 151 207 L 148 210 L 145 211 L 143 213 L 140 214 L 138 216 L 137 216 L 136 217 L 133 218 L 131 220 L 130 220 L 129 221 L 127 221 L 126 220 L 125 220 L 123 218 L 122 218 L 121 217 L 118 216 L 116 214 L 115 214 L 114 213 L 113 213 L 111 211 L 108 210 L 105 207 L 105 182 L 106 181 L 108 181 L 109 180 L 110 180 L 111 179 L 112 179 L 113 178 L 116 177 L 118 175 L 119 175 L 120 174 L 123 173 " stroke="black" stroke-width="1" fill="none"/>
<path d="M 78 168 L 80 168 L 82 170 L 85 171 L 87 173 L 90 174 L 92 176 L 95 177 L 97 179 L 98 179 L 99 180 L 100 180 L 103 182 L 103 207 L 100 210 L 99 210 L 97 212 L 94 213 L 89 217 L 88 217 L 87 218 L 84 219 L 79 223 L 77 221 L 76 221 L 75 220 L 74 220 L 73 219 L 70 218 L 68 216 L 65 215 L 63 213 L 62 213 L 60 211 L 59 211 L 55 207 L 55 182 L 58 179 L 59 179 L 60 178 L 61 178 L 62 177 L 63 177 L 64 176 L 67 175 L 69 173 L 70 173 L 71 172 L 74 171 L 76 169 L 77 169 " stroke="black" stroke-width="1" fill="none"/>
<path d="M 103 153 L 104 153 L 106 155 L 106 169 L 105 170 L 105 178 L 104 179 L 103 178 L 103 176 L 102 175 L 102 166 L 101 165 L 101 157 L 100 156 " stroke="black" stroke-width="1" fill="none"/>
<path d="M 264 145 L 263 145 L 261 147 L 260 147 L 259 148 L 258 148 L 257 149 L 256 149 L 254 151 L 253 151 L 252 152 L 251 152 L 250 153 L 251 153 L 252 152 L 253 152 L 255 150 L 256 150 L 257 149 L 258 149 L 260 147 L 261 147 L 262 146 L 263 146 " stroke="black" stroke-width="1" fill="none"/>
<path d="M 280 144 L 280 151 L 281 151 L 282 152 L 282 149 L 283 148 L 284 148 L 285 149 L 285 151 L 287 151 L 287 144 L 285 144 L 283 146 L 282 145 L 282 143 L 281 144 " stroke="black" stroke-width="1" fill="none"/>
<path d="M 286 144 L 287 145 L 287 150 L 286 151 L 285 150 L 285 148 L 284 147 L 284 146 " stroke="black" stroke-width="1" fill="none"/>
<path d="M 281 144 L 282 145 L 282 146 L 283 146 L 284 147 L 283 148 L 282 148 L 282 150 L 281 151 L 280 150 L 280 145 " stroke="black" stroke-width="1" fill="none"/>
<path d="M 269 135 L 267 137 L 267 142 L 269 144 L 273 144 L 275 142 L 275 137 L 273 135 " stroke="black" stroke-width="1" fill="none"/>
<path d="M 269 135 L 272 135 L 275 138 L 275 141 L 272 144 L 269 144 L 267 142 L 267 138 L 268 137 L 268 136 " stroke="black" stroke-width="1" fill="none"/>
<path d="M 271 137 L 269 139 L 269 140 L 271 142 L 272 141 L 272 138 " stroke="black" stroke-width="1" fill="none"/>
<path d="M 271 137 L 272 138 L 272 141 L 271 142 L 269 140 L 269 139 " stroke="black" stroke-width="1" fill="none"/>
<path d="M 263 143 L 248 151 L 225 140 L 247 153 L 244 155 L 224 142 L 224 168 L 202 182 L 196 182 L 179 172 L 178 169 L 201 180 L 221 168 L 222 141 L 242 122 L 232 98 L 205 100 L 200 126 L 222 138 L 222 141 L 199 128 L 175 142 L 173 137 L 175 139 L 178 114 L 183 116 L 183 109 L 179 111 L 178 108 L 175 115 L 177 109 L 180 112 L 177 123 L 176 118 L 171 120 L 171 114 L 171 121 L 176 119 L 172 124 L 172 138 L 150 127 L 128 139 L 127 166 L 107 178 L 129 167 L 152 180 L 173 168 L 153 182 L 170 200 L 166 203 L 154 187 L 167 203 L 170 199 L 154 181 L 176 169 L 177 173 L 200 183 L 224 169 L 225 142 L 243 155 " stroke="black" stroke-width="1" fill="none"/>
<path d="M 176 169 L 177 168 L 178 169 L 177 170 " stroke="black" stroke-width="1" fill="none"/>
<path d="M 173 168 L 174 167 L 175 167 L 176 168 L 175 169 L 174 169 " stroke="black" stroke-width="1" fill="none"/>
<path d="M 129 165 L 130 164 L 131 164 L 132 163 L 133 163 L 134 164 L 132 166 L 130 166 " stroke="black" stroke-width="1" fill="none"/>
<path d="M 175 142 L 176 143 L 176 166 L 175 167 L 174 166 L 174 143 " stroke="black" stroke-width="1" fill="none"/>
<path d="M 174 132 L 175 133 L 175 135 L 174 136 L 173 135 L 173 133 " stroke="black" stroke-width="1" fill="none"/>
<path d="M 151 130 L 153 130 L 154 131 L 159 133 L 161 135 L 166 137 L 170 140 L 172 140 L 174 142 L 174 166 L 172 168 L 171 168 L 170 169 L 163 172 L 161 174 L 158 175 L 152 180 L 150 178 L 149 178 L 147 176 L 142 174 L 140 172 L 139 172 L 132 168 L 130 168 L 129 167 L 130 166 L 132 166 L 133 165 L 136 164 L 136 163 L 135 164 L 134 164 L 133 163 L 137 159 L 138 160 L 140 158 L 142 160 L 142 161 L 141 162 L 138 163 L 140 163 L 141 162 L 142 162 L 142 159 L 141 158 L 139 158 L 139 159 L 138 160 L 137 159 L 136 159 L 133 163 L 131 163 L 130 164 L 129 163 L 129 143 L 132 140 L 135 139 L 137 137 L 138 137 " stroke="black" stroke-width="1" fill="none"/>
<path d="M 144 152 L 144 159 L 145 159 L 146 160 L 146 157 L 147 156 L 148 156 L 149 157 L 149 159 L 151 159 L 151 152 L 149 152 L 147 154 L 146 153 L 146 151 L 145 152 " stroke="black" stroke-width="1" fill="none"/>
<path d="M 150 152 L 151 153 L 151 158 L 150 159 L 149 158 L 149 156 L 148 155 L 148 154 " stroke="black" stroke-width="1" fill="none"/>
<path d="M 145 152 L 146 153 L 146 154 L 147 154 L 148 155 L 147 156 L 146 156 L 146 158 L 145 159 L 144 158 L 144 153 " stroke="black" stroke-width="1" fill="none"/>
<path d="M 199 128 L 204 132 L 205 132 L 206 133 L 209 134 L 211 136 L 212 136 L 213 137 L 214 137 L 215 138 L 216 138 L 217 139 L 220 140 L 222 142 L 222 166 L 219 169 L 216 170 L 214 172 L 211 173 L 209 175 L 208 175 L 207 176 L 204 177 L 202 179 L 201 179 L 200 180 L 198 180 L 197 179 L 196 179 L 194 177 L 193 177 L 192 176 L 189 175 L 187 173 L 184 172 L 182 170 L 181 170 L 180 169 L 179 169 L 176 167 L 176 143 L 179 140 L 182 139 L 184 137 L 187 136 L 189 134 L 190 134 L 191 133 L 194 132 " stroke="black" stroke-width="1" fill="none"/>
<path d="M 173 139 L 172 140 L 171 140 L 170 139 L 167 138 L 165 136 L 164 136 L 163 135 L 162 135 L 161 134 L 158 133 L 156 131 L 155 131 L 154 130 L 150 130 L 149 131 L 148 131 L 147 132 L 146 132 L 145 133 L 144 133 L 143 134 L 142 134 L 141 135 L 138 136 L 136 138 L 133 139 L 131 141 L 130 141 L 129 142 L 129 165 L 130 166 L 129 167 L 128 167 L 127 166 L 127 141 L 129 139 L 130 139 L 132 137 L 135 136 L 137 134 L 138 134 L 139 133 L 140 133 L 141 132 L 142 132 L 143 131 L 144 131 L 145 130 L 146 130 L 147 129 L 148 129 L 149 128 L 152 127 L 153 128 L 155 128 L 156 129 L 157 129 L 159 131 L 160 131 L 161 132 L 162 132 L 163 133 L 166 134 L 168 136 L 171 137 " stroke="black" stroke-width="1" fill="none"/>
<path d="M 176 123 L 177 124 L 177 127 L 176 128 L 176 130 L 174 132 L 172 130 L 172 125 L 174 123 " stroke="black" stroke-width="1" fill="none"/>
<path d="M 182 109 L 183 110 L 183 115 L 182 116 L 181 115 L 181 113 L 180 112 L 180 111 " stroke="black" stroke-width="1" fill="none"/>
<path d="M 230 97 L 232 99 L 232 100 L 233 101 L 233 102 L 234 103 L 234 104 L 235 105 L 235 106 L 236 107 L 236 109 L 237 110 L 237 111 L 238 112 L 238 113 L 239 114 L 239 115 L 240 116 L 240 117 L 241 118 L 241 119 L 242 120 L 242 121 L 236 127 L 235 127 L 229 133 L 228 133 L 224 137 L 224 138 L 223 139 L 221 137 L 220 137 L 219 136 L 218 136 L 217 135 L 216 135 L 215 134 L 214 134 L 213 133 L 212 133 L 211 132 L 210 132 L 209 131 L 208 131 L 206 129 L 205 129 L 204 128 L 203 128 L 202 127 L 201 127 L 200 126 L 201 125 L 201 121 L 202 120 L 202 117 L 203 116 L 203 111 L 204 110 L 204 104 L 205 103 L 205 101 L 206 100 L 213 100 L 214 99 L 222 99 L 223 98 L 229 98 " stroke="black" stroke-width="1" fill="none"/>
<path d="M 164 83 L 168 83 L 169 84 L 171 84 L 169 84 L 168 83 " stroke="black" stroke-width="1" fill="none"/>
<path d="M 171 82 L 173 82 L 174 83 L 176 83 L 174 83 L 173 82 " stroke="black" stroke-width="1" fill="none"/>
<path d="M 187 80 " stroke="black" stroke-width="1" fill="none"/>
<path d="M 194 53 L 185 77 L 159 82 L 159 84 L 162 84 L 160 83 L 162 81 L 179 78 L 185 79 L 193 55 L 196 55 L 188 76 L 191 81 L 189 83 L 192 83 L 196 87 L 194 90 L 193 87 L 186 84 L 183 80 L 180 80 L 182 82 L 176 81 L 184 81 L 183 84 L 164 88 L 161 87 L 167 85 L 160 86 L 160 88 L 185 83 L 203 99 L 199 123 L 192 123 L 190 120 L 193 120 L 189 115 L 186 116 L 189 116 L 186 121 L 196 125 L 193 122 L 197 123 L 198 126 L 178 138 L 198 126 L 203 101 L 199 95 L 200 93 L 205 98 L 228 95 L 234 97 L 245 122 L 228 138 L 245 123 L 245 120 L 232 95 L 205 98 L 191 82 L 188 76 L 196 55 " stroke="black" stroke-width="1" fill="none"/>
<path d="M 189 122 L 190 121 L 191 122 L 190 123 " stroke="black" stroke-width="1" fill="none"/>
<path d="M 189 117 L 191 119 L 190 120 L 190 121 L 189 122 L 188 122 L 186 120 " stroke="black" stroke-width="1" fill="none"/>
<path d="M 196 88 L 197 89 L 197 90 L 200 93 L 199 94 L 198 94 L 194 90 " stroke="black" stroke-width="1" fill="none"/>
</svg>