<svg xmlns="http://www.w3.org/2000/svg" width="300" height="300" viewBox="0 0 300 300">
<path d="M 115 208 L 115 209 L 122 209 L 122 208 L 121 209 L 116 209 " stroke="black" stroke-width="1" fill="none"/>
<path d="M 120 204 L 121 205 L 121 204 " stroke="black" stroke-width="1" fill="none"/>
<path d="M 117 203 L 116 203 L 116 205 L 116 204 " stroke="black" stroke-width="1" fill="none"/>
<path d="M 118 200 L 117 200 L 117 201 " stroke="black" stroke-width="1" fill="none"/>
<path d="M 120 199 L 121 200 L 121 201 L 121 199 " stroke="black" stroke-width="1" fill="none"/>
<path d="M 183 196 L 182 197 L 181 196 L 181 199 L 180 200 L 179 200 L 178 199 L 178 197 L 175 197 L 175 206 L 178 206 L 178 203 L 179 202 L 180 202 L 181 203 L 181 207 L 182 206 L 183 207 " stroke="black" stroke-width="1" fill="none"/>
<path d="M 178 201 L 179 200 L 180 200 L 181 201 L 180 202 L 179 202 " stroke="black" stroke-width="1" fill="none"/>
<path d="M 182 197 L 183 198 L 183 205 L 182 206 L 181 205 L 181 203 L 180 202 L 181 201 L 180 200 L 181 199 L 181 198 " stroke="black" stroke-width="1" fill="none"/>
<path d="M 176 197 L 177 197 L 178 198 L 178 205 L 177 206 L 176 206 L 175 205 L 175 198 " stroke="black" stroke-width="1" fill="none"/>
<path d="M 117 196 L 117 197 L 118 196 L 119 196 L 120 197 L 120 196 " stroke="black" stroke-width="1" fill="none"/>
<path d="M 117 191 L 117 193 L 117 192 L 118 191 L 120 193 L 120 192 L 119 192 L 118 191 " stroke="black" stroke-width="1" fill="none"/>
<path d="M 118 183 L 118 189 L 118 184 L 119 183 L 120 184 L 120 190 L 120 183 " stroke="black" stroke-width="1" fill="none"/>
<path d="M 118 180 L 118 181 L 119 180 L 120 181 L 120 180 " stroke="black" stroke-width="1" fill="none"/>
<path d="M 205 179 L 204 180 L 204 181 L 203 182 L 203 187 L 204 188 L 204 189 L 205 190 L 210 190 L 212 188 L 212 181 L 210 179 " stroke="black" stroke-width="1" fill="none"/>
<path d="M 206 179 L 209 179 L 212 182 L 212 187 L 209 190 L 206 190 L 204 188 L 204 187 L 203 186 L 203 183 L 204 182 L 204 181 " stroke="black" stroke-width="1" fill="none"/>
<path d="M 207 181 L 206 182 L 206 183 L 205 184 L 205 185 L 206 186 L 206 187 L 207 188 L 208 187 L 209 187 L 210 186 L 210 183 L 209 182 L 208 182 " stroke="black" stroke-width="1" fill="none"/>
<path d="M 207 182 L 209 182 L 210 183 L 210 186 L 209 187 L 207 187 L 205 185 L 205 184 " stroke="black" stroke-width="1" fill="none"/>
<path d="M 258 152 L 257 153 L 257 154 L 256 155 L 256 160 L 257 161 L 257 162 L 258 163 L 263 163 L 265 161 L 265 154 L 263 152 " stroke="black" stroke-width="1" fill="none"/>
<path d="M 259 152 L 262 152 L 265 155 L 265 160 L 262 163 L 259 163 L 257 161 L 257 160 L 256 159 L 256 156 L 257 155 L 257 154 " stroke="black" stroke-width="1" fill="none"/>
<path d="M 260 154 L 259 155 L 259 156 L 258 157 L 258 158 L 259 159 L 259 160 L 260 161 L 261 160 L 262 160 L 263 159 L 263 156 L 262 155 L 261 155 " stroke="black" stroke-width="1" fill="none"/>
<path d="M 260 155 L 262 155 L 263 156 L 263 159 L 262 160 L 260 160 L 258 158 L 258 157 " stroke="black" stroke-width="1" fill="none"/>
<path d="M 88 119 L 88 122 L 88 121 L 89 120 L 90 121 L 90 122 L 90 119 L 89 120 " stroke="black" stroke-width="1" fill="none"/>
<path d="M 88 116 L 88 117 " stroke="black" stroke-width="1" fill="none"/>
<path d="M 88 107 L 88 114 L 90 114 L 90 108 L 90 113 L 89 114 L 88 113 " stroke="black" stroke-width="1" fill="none"/>
<path d="M 88 104 L 88 105 L 89 104 L 90 104 L 91 105 L 90 106 L 91 106 L 91 104 " stroke="black" stroke-width="1" fill="none"/>
<path d="M 88 100 L 88 101 L 89 100 L 90 100 L 91 101 L 91 100 " stroke="black" stroke-width="1" fill="none"/>
<path d="M 253 156 L 228 156 L 211 134 L 221 100 L 217 113 L 214 106 L 216 101 L 218 105 L 216 99 L 206 130 L 180 140 L 181 120 L 175 118 L 175 109 L 183 118 L 183 107 L 180 111 L 175 108 L 174 139 L 147 125 L 119 141 L 88 124 L 59 141 L 59 177 L 89 194 L 118 177 L 147 193 L 174 178 L 176 194 L 180 194 L 179 177 L 200 184 L 178 173 L 180 142 L 209 135 L 226 158 L 213 177 L 227 160 L 207 133 L 175 142 L 177 131 L 178 141 L 209 131 L 216 112 L 212 136 L 227 156 L 245 157 L 229 160 L 245 161 L 227 162 L 215 178 L 228 162 L 253 162 " stroke="black" stroke-width="1" fill="none"/>
<path d="M 177 184 L 178 184 L 179 185 L 179 186 L 180 187 L 180 189 L 181 190 L 181 192 L 179 194 L 177 194 L 176 193 L 176 192 L 175 191 L 175 186 " stroke="black" stroke-width="1" fill="none"/>
<path d="M 178 176 L 179 175 L 181 175 L 182 176 L 183 176 L 184 177 L 186 177 L 187 178 L 188 178 L 189 179 L 191 179 L 192 180 L 194 180 L 195 181 L 197 181 L 199 183 L 198 184 L 197 184 L 196 183 L 193 183 L 192 182 L 191 182 L 190 181 L 188 181 L 187 180 L 186 180 L 185 179 L 183 179 L 182 178 L 181 178 L 180 177 L 179 177 " stroke="black" stroke-width="1" fill="none"/>
<path d="M 120 176 L 121 175 L 122 176 L 123 176 L 124 177 L 125 177 L 126 178 L 127 178 L 129 180 L 130 180 L 131 181 L 132 181 L 134 183 L 135 183 L 136 184 L 137 184 L 139 186 L 140 186 L 141 187 L 142 187 L 143 188 L 144 188 L 146 190 L 150 190 L 152 188 L 153 188 L 154 187 L 155 187 L 156 186 L 157 186 L 159 184 L 160 184 L 161 183 L 162 183 L 164 181 L 165 181 L 166 180 L 167 180 L 169 178 L 170 178 L 171 177 L 172 177 L 173 176 L 174 176 L 175 177 L 173 179 L 172 179 L 170 181 L 169 181 L 168 182 L 167 182 L 165 184 L 164 184 L 163 185 L 162 185 L 161 186 L 160 186 L 158 188 L 157 188 L 156 189 L 155 189 L 154 190 L 153 190 L 151 192 L 149 192 L 148 193 L 147 192 L 145 192 L 143 190 L 142 190 L 141 189 L 140 189 L 139 188 L 138 188 L 136 186 L 135 186 L 134 185 L 133 185 L 132 184 L 131 184 L 129 182 L 128 182 L 127 181 L 126 181 L 124 179 L 123 179 L 122 178 L 121 178 L 120 177 " stroke="black" stroke-width="1" fill="none"/>
<path d="M 118 176 L 119 175 L 120 176 L 119 177 " stroke="black" stroke-width="1" fill="none"/>
<path d="M 176 174 L 178 174 L 179 175 L 178 176 L 178 183 L 177 184 L 175 182 L 175 175 " stroke="black" stroke-width="1" fill="none"/>
<path d="M 245 161 L 246 160 L 252 160 L 253 161 L 252 162 L 246 162 " stroke="black" stroke-width="1" fill="none"/>
<path d="M 229 159 L 230 158 L 252 158 L 253 159 L 252 160 L 230 160 " stroke="black" stroke-width="1" fill="none"/>
<path d="M 245 157 L 246 156 L 252 156 L 253 157 L 252 158 L 246 158 " stroke="black" stroke-width="1" fill="none"/>
<path d="M 177 143 L 178 144 L 178 173 L 177 174 L 176 173 L 176 144 " stroke="black" stroke-width="1" fill="none"/>
<path d="M 119 143 L 120 144 L 120 174 L 119 175 L 118 174 L 118 144 " stroke="black" stroke-width="1" fill="none"/>
<path d="M 209 127 L 210 128 L 210 130 L 209 131 L 208 130 L 208 128 " stroke="black" stroke-width="1" fill="none"/>
<path d="M 90 126 L 92 128 L 95 129 L 97 131 L 102 133 L 104 135 L 105 135 L 109 138 L 112 139 L 118 144 L 118 174 L 117 175 L 114 176 L 112 178 L 109 179 L 107 181 L 104 182 L 99 186 L 96 187 L 91 191 L 89 191 L 88 190 L 87 190 L 86 189 L 79 186 L 77 184 L 76 184 L 75 183 L 72 182 L 70 180 L 67 179 L 61 174 L 61 144 L 67 139 L 68 139 L 72 136 L 77 134 L 79 132 L 80 132 L 81 131 L 88 128 " stroke="black" stroke-width="1" fill="none"/>
<path d="M 90 126 L 93 125 L 119 141 L 148 125 L 174 139 L 175 141 L 174 142 L 150 128 L 146 128 L 143 130 L 145 131 L 142 133 L 146 131 L 144 130 L 145 129 L 149 128 L 162 136 L 173 141 L 176 144 L 176 173 L 175 175 L 149 190 L 147 190 L 120 174 L 120 144 L 125 140 L 120 143 L 118 143 " stroke="black" stroke-width="1" fill="none"/>
<path d="M 127 141 L 126 142 " stroke="black" stroke-width="1" fill="none"/>
<path d="M 129 140 " stroke="black" stroke-width="1" fill="none"/>
<path d="M 131 139 " stroke="black" stroke-width="1" fill="none"/>
<path d="M 134 137 " stroke="black" stroke-width="1" fill="none"/>
<path d="M 136 136 " stroke="black" stroke-width="1" fill="none"/>
<path d="M 132 136 L 131 137 L 130 137 L 129 138 L 128 138 L 127 139 L 128 138 L 129 138 L 130 137 L 131 137 " stroke="black" stroke-width="1" fill="none"/>
<path d="M 134 135 " stroke="black" stroke-width="1" fill="none"/>
<path d="M 136 134 " stroke="black" stroke-width="1" fill="none"/>
<path d="M 147 133 L 146 133 L 145 134 L 144 134 L 143 135 L 142 135 L 141 136 L 140 136 L 139 137 L 138 137 L 137 138 L 136 138 L 135 139 L 134 139 L 132 141 L 131 141 L 130 142 L 129 142 L 127 144 L 125 144 L 128 144 L 130 142 L 131 142 L 133 140 L 134 140 L 135 139 L 136 139 L 137 138 L 138 138 L 139 137 L 140 137 L 141 136 L 142 136 L 143 135 L 144 135 L 145 134 L 146 134 " stroke="black" stroke-width="1" fill="none"/>
<path d="M 141 131 L 140 132 L 139 132 L 138 133 L 139 134 L 138 135 L 139 134 L 140 134 L 139 134 L 138 133 L 139 132 L 140 132 " stroke="black" stroke-width="1" fill="none"/>
<path d="M 210 124 L 211 125 L 211 127 L 210 128 L 209 127 L 209 125 " stroke="black" stroke-width="1" fill="none"/>
<path d="M 89 124 L 91 125 L 89 127 L 75 134 L 73 136 L 70 137 L 61 143 L 61 175 L 70 181 L 73 182 L 75 184 L 82 187 L 88 191 L 91 191 L 106 181 L 109 180 L 111 178 L 117 175 L 118 176 L 117 178 L 114 179 L 112 181 L 109 182 L 107 184 L 104 185 L 99 189 L 96 190 L 90 194 L 72 185 L 70 183 L 62 179 L 59 176 L 59 142 L 62 139 L 65 138 L 72 133 L 81 129 L 83 127 " stroke="black" stroke-width="1" fill="none"/>
<path d="M 211 121 L 212 122 L 212 124 L 211 125 L 210 124 L 210 122 " stroke="black" stroke-width="1" fill="none"/>
<path d="M 177 119 L 179 119 L 181 121 L 181 124 L 180 125 L 180 127 L 179 128 L 179 130 L 178 131 L 177 131 L 176 130 L 176 129 L 175 128 L 175 122 L 176 121 L 176 120 " stroke="black" stroke-width="1" fill="none"/>
<path d="M 211 114 L 212 115 L 212 117 L 211 118 L 211 121 L 210 122 L 210 124 L 209 125 L 209 127 L 208 128 L 208 130 L 207 131 L 206 130 L 206 127 L 207 126 L 207 124 L 208 123 L 208 121 L 209 120 L 209 117 L 210 116 L 210 115 " stroke="black" stroke-width="1" fill="none"/>
<path d="M 214 112 L 215 113 L 215 115 L 214 116 L 214 118 L 213 119 L 213 121 L 212 122 L 211 121 L 211 118 L 212 117 L 212 115 L 213 114 L 213 113 " stroke="black" stroke-width="1" fill="none"/>
<path d="M 178 112 L 179 111 L 180 111 L 181 112 L 180 113 L 179 113 " stroke="black" stroke-width="1" fill="none"/>
<path d="M 215 109 L 216 110 L 216 112 L 215 113 L 214 112 L 214 110 " stroke="black" stroke-width="1" fill="none"/>
<path d="M 182 108 L 183 109 L 183 116 L 182 117 L 181 116 L 181 114 L 180 113 L 181 112 L 180 111 L 181 110 L 181 109 " stroke="black" stroke-width="1" fill="none"/>
<path d="M 214 106 L 215 107 L 215 109 L 214 110 L 214 112 L 213 113 L 213 114 L 212 115 L 211 114 L 211 112 L 212 111 L 212 109 L 213 108 L 213 107 " stroke="black" stroke-width="1" fill="none"/>
<path d="M 87 96 L 87 98 L 89 98 L 90 97 L 91 98 L 92 97 L 91 96 L 89 98 L 88 98 L 87 97 L 88 96 " stroke="black" stroke-width="1" fill="none"/>
<path d="M 87 91 L 87 93 L 87 92 L 88 91 L 91 91 L 92 92 L 92 93 L 92 91 " stroke="black" stroke-width="1" fill="none"/>
</svg>