<svg xmlns="http://www.w3.org/2000/svg" width="300" height="300" viewBox="0 0 300 300">
<path d="M 107 234 L 107 241 L 108 241 L 109 242 L 109 239 L 110 238 L 111 238 L 112 239 L 112 241 L 114 241 L 114 234 L 112 234 L 110 236 L 109 235 L 109 233 L 108 234 " stroke="black" stroke-width="1" fill="none"/>
<path d="M 113 234 L 114 235 L 114 240 L 113 241 L 112 240 L 112 238 L 111 237 L 111 236 " stroke="black" stroke-width="1" fill="none"/>
<path d="M 108 234 L 109 235 L 109 236 L 110 236 L 111 237 L 110 238 L 109 238 L 109 240 L 108 241 L 107 240 L 107 235 " stroke="black" stroke-width="1" fill="none"/>
<path d="M 108 227 L 108 230 L 113 230 L 113 227 L 112 227 L 113 228 L 113 229 L 112 230 L 109 230 L 108 229 L 108 228 L 109 227 " stroke="black" stroke-width="1" fill="none"/>
<path d="M 30 223 L 28 225 L 28 230 L 30 232 L 34 232 L 36 230 L 36 225 L 34 223 " stroke="black" stroke-width="1" fill="none"/>
<path d="M 30 223 L 33 223 L 36 226 L 36 229 L 33 232 L 30 232 L 28 230 L 28 226 L 29 225 L 29 224 " stroke="black" stroke-width="1" fill="none"/>
<path d="M 32 225 L 30 227 L 30 228 L 32 230 L 33 229 L 33 226 " stroke="black" stroke-width="1" fill="none"/>
<path d="M 32 225 L 33 226 L 33 229 L 32 230 L 30 228 L 30 227 " stroke="black" stroke-width="1" fill="none"/>
<path d="M 23 222 L 23 225 L 25 225 L 25 222 " stroke="black" stroke-width="1" fill="none"/>
<path d="M 23 223 L 24 222 L 25 223 L 25 224 L 24 225 L 23 224 " stroke="black" stroke-width="1" fill="none"/>
<path d="M 111 214 L 112 215 L 111 216 L 111 218 L 110 219 L 109 218 L 109 216 L 108 216 L 107 217 L 106 217 L 105 218 L 104 218 L 103 219 L 102 219 L 100 221 L 99 221 L 98 222 L 97 222 L 95 224 L 94 224 L 93 225 L 92 225 L 90 227 L 89 227 L 86 229 L 86 231 L 87 232 L 87 233 L 89 235 L 89 236 L 90 237 L 90 238 L 91 239 L 91 240 L 92 241 L 92 242 L 93 243 L 93 244 L 95 246 L 95 247 L 96 248 L 96 249 L 98 251 L 98 252 L 99 253 L 99 254 L 99 252 L 97 250 L 97 249 L 96 248 L 96 247 L 94 245 L 94 244 L 93 243 L 93 242 L 92 241 L 92 240 L 90 238 L 90 237 L 89 236 L 89 235 L 88 234 L 88 233 L 86 230 L 88 228 L 89 228 L 91 226 L 92 226 L 93 225 L 94 225 L 96 223 L 97 223 L 99 221 L 100 221 L 101 220 L 102 220 L 103 219 L 104 219 L 106 217 L 107 217 L 108 216 L 109 217 L 109 222 L 111 222 L 112 223 L 111 224 L 109 224 L 109 225 L 110 224 L 111 224 L 112 225 L 112 223 L 111 222 L 111 216 L 112 215 " stroke="black" stroke-width="1" fill="none"/>
<path d="M 109 220 L 110 219 L 111 220 L 111 221 L 110 222 L 109 221 " stroke="black" stroke-width="1" fill="none"/>
<path d="M 12 215 L 12 222 L 13 222 L 14 223 L 14 220 L 15 219 L 16 219 L 17 220 L 17 222 L 19 222 L 19 215 L 17 215 L 15 217 L 14 216 L 14 214 L 13 215 " stroke="black" stroke-width="1" fill="none"/>
<path d="M 18 215 L 19 216 L 19 221 L 18 222 L 17 221 L 17 219 L 16 218 L 16 217 " stroke="black" stroke-width="1" fill="none"/>
<path d="M 13 215 L 14 216 L 14 217 L 15 217 L 16 218 L 15 219 L 14 219 L 14 221 L 13 222 L 12 221 L 12 216 " stroke="black" stroke-width="1" fill="none"/>
<path d="M 193 197 L 195 197 L 195 196 L 194 197 L 193 196 L 193 195 L 194 194 L 199 194 L 194 194 L 193 193 L 194 192 L 193 192 " stroke="black" stroke-width="1" fill="none"/>
<path d="M 196 191 L 197 191 L 198 192 L 199 192 L 198 191 " stroke="black" stroke-width="1" fill="none"/>
<path d="M 197 188 L 196 187 L 194 187 L 193 188 L 192 188 L 192 190 L 194 190 L 193 190 L 192 189 L 194 187 L 195 187 L 196 188 L 196 189 " stroke="black" stroke-width="1" fill="none"/>
<path d="M 195 184 L 194 183 L 193 183 L 192 184 L 191 184 L 191 186 L 192 186 L 191 185 L 193 183 L 194 184 L 194 185 " stroke="black" stroke-width="1" fill="none"/>
<path d="M 193 179 L 192 179 L 191 180 L 190 180 L 190 182 L 191 182 L 190 181 L 192 179 L 193 180 L 193 181 " stroke="black" stroke-width="1" fill="none"/>
<path d="M 191 175 L 190 175 L 189 176 L 189 178 L 190 178 L 191 177 " stroke="black" stroke-width="1" fill="none"/>
<path d="M 189 176 L 190 175 L 191 176 L 191 177 L 190 178 L 189 177 " stroke="black" stroke-width="1" fill="none"/>
<path d="M 192 173 L 191 173 L 190 172 L 189 173 L 188 173 " stroke="black" stroke-width="1" fill="none"/>
<path d="M 151 160 L 150 159 L 147 159 L 145 161 L 144 161 L 143 162 L 142 162 L 142 163 L 141 164 L 142 164 L 143 165 L 142 166 L 143 166 L 144 165 L 145 165 L 146 164 L 148 164 L 149 163 L 151 163 " stroke="black" stroke-width="1" fill="none"/>
<path d="M 142 163 L 143 162 L 144 163 L 144 164 L 143 165 L 142 164 " stroke="black" stroke-width="1" fill="none"/>
<path d="M 149 159 L 151 161 L 151 162 L 150 163 L 148 163 L 147 162 L 148 163 L 147 164 L 146 164 L 145 165 L 144 164 L 144 162 L 146 160 L 147 160 L 148 159 " stroke="black" stroke-width="1" fill="none"/>
<path d="M 161 184 L 137 170 L 110 184 L 107 159 L 110 153 L 113 155 L 111 181 L 113 154 L 110 153 L 107 156 L 108 180 L 85 166 L 57 180 L 56 211 L 37 222 L 41 225 L 55 215 L 82 230 L 68 254 L 82 230 L 84 232 L 70 255 L 84 232 L 97 255 L 82 229 L 54 215 L 42 224 L 38 223 L 38 220 L 56 212 L 56 182 L 84 166 L 109 181 L 82 169 L 58 183 L 58 213 L 84 228 L 110 212 L 111 184 L 114 214 L 135 226 L 150 220 L 162 212 " stroke="black" stroke-width="1" fill="none"/>
<path d="M 137 170 L 139 172 L 140 172 L 141 173 L 142 173 L 143 174 L 146 175 L 148 177 L 149 177 L 150 178 L 153 179 L 155 181 L 158 182 L 161 185 L 161 208 L 162 209 L 162 211 L 159 214 L 158 214 L 156 216 L 153 217 L 151 219 L 148 220 L 146 222 L 145 222 L 144 223 L 143 223 L 138 226 L 136 226 L 135 225 L 134 225 L 133 224 L 132 224 L 131 223 L 128 222 L 126 220 L 123 219 L 121 217 L 120 217 L 119 216 L 118 216 L 116 214 L 115 214 L 112 211 L 112 184 L 113 183 L 114 183 L 115 182 L 116 182 L 117 181 L 118 181 L 119 180 L 120 180 L 121 179 L 122 179 L 123 178 L 126 177 L 128 175 L 129 175 L 130 174 L 131 174 L 132 173 L 135 172 " stroke="black" stroke-width="1" fill="none"/>
<path d="M 83 169 L 85 169 L 86 170 L 89 171 L 91 173 L 92 173 L 93 174 L 96 175 L 98 177 L 99 177 L 101 179 L 104 180 L 106 182 L 108 182 L 110 185 L 110 211 L 107 214 L 104 215 L 102 217 L 101 217 L 100 218 L 97 219 L 95 221 L 94 221 L 93 222 L 92 222 L 90 224 L 87 225 L 84 228 L 82 226 L 81 226 L 80 225 L 79 225 L 77 223 L 76 223 L 75 222 L 72 221 L 70 219 L 69 219 L 68 218 L 67 218 L 66 217 L 65 217 L 64 216 L 61 215 L 58 212 L 58 184 L 61 181 L 62 181 L 63 180 L 64 180 L 65 179 L 66 179 L 67 178 L 70 177 L 72 175 L 73 175 L 74 174 L 77 173 L 79 171 L 80 171 " stroke="black" stroke-width="1" fill="none"/>
<path d="M 154 152 L 154 159 L 155 159 L 156 160 L 156 157 L 157 156 L 158 156 L 159 157 L 159 159 L 161 159 L 161 152 L 159 152 L 157 154 L 156 153 L 156 151 L 155 152 " stroke="black" stroke-width="1" fill="none"/>
<path d="M 160 152 L 161 153 L 161 158 L 160 159 L 159 158 L 159 156 L 158 155 L 158 154 " stroke="black" stroke-width="1" fill="none"/>
<path d="M 155 152 L 156 153 L 156 154 L 157 154 L 158 155 L 157 156 L 156 156 L 156 158 L 155 159 L 154 158 L 154 153 " stroke="black" stroke-width="1" fill="none"/>
<path d="M 180 139 L 181 140 " stroke="black" stroke-width="1" fill="none"/>
<path d="M 178 138 " stroke="black" stroke-width="1" fill="none"/>
<path d="M 180 137 " stroke="black" stroke-width="1" fill="none"/>
<path d="M 178 136 " stroke="black" stroke-width="1" fill="none"/>
<path d="M 175 136 L 176 137 " stroke="black" stroke-width="1" fill="none"/>
<path d="M 173 135 " stroke="black" stroke-width="1" fill="none"/>
<path d="M 175 134 " stroke="black" stroke-width="1" fill="none"/>
<path d="M 173 133 " stroke="black" stroke-width="1" fill="none"/>
<path d="M 170 133 L 171 134 " stroke="black" stroke-width="1" fill="none"/>
<path d="M 168 132 " stroke="black" stroke-width="1" fill="none"/>
<path d="M 163 132 L 164 133 L 165 133 L 166 134 L 167 134 L 168 135 L 169 135 L 171 137 L 172 137 L 173 138 L 174 138 L 176 140 L 177 140 L 179 142 L 181 142 L 180 142 L 178 140 L 177 140 L 176 139 L 175 139 L 173 137 L 172 137 L 171 136 L 170 136 L 168 134 L 167 134 L 166 133 L 165 133 L 164 132 " stroke="black" stroke-width="1" fill="none"/>
<path d="M 170 131 " stroke="black" stroke-width="1" fill="none"/>
<path d="M 167 129 L 168 130 L 167 129 L 166 129 L 165 128 L 164 128 L 163 127 L 161 127 L 160 128 L 159 128 L 157 130 L 156 130 L 154 132 L 153 132 L 151 134 L 150 134 L 149 135 L 148 135 L 147 136 L 146 136 L 144 138 L 143 138 L 142 139 L 141 139 L 140 140 L 139 140 L 138 141 L 138 165 L 139 165 L 138 164 L 138 142 L 141 139 L 142 139 L 143 138 L 144 138 L 145 137 L 146 137 L 147 136 L 148 136 L 149 135 L 150 135 L 152 133 L 153 133 L 155 131 L 156 131 L 158 129 L 159 129 L 161 127 L 163 127 L 164 128 L 165 128 L 166 129 L 165 130 L 164 130 L 165 130 L 166 131 L 165 130 L 166 129 " stroke="black" stroke-width="1" fill="none"/>
<path d="M 208 126 L 203 128 L 198 132 L 190 136 L 187 139 L 182 135 L 177 133 L 167 126 L 163 124 L 159 125 L 151 131 L 136 139 L 136 167 L 133 170 L 122 175 L 113 181 L 117 178 L 128 173 L 130 171 L 136 168 L 136 140 L 143 135 L 150 132 L 158 126 L 162 124 L 187 139 L 189 137 L 192 136 L 194 134 L 197 133 L 202 129 " stroke="black" stroke-width="1" fill="none"/>
<path d="M 187 108 L 187 115 L 188 115 L 189 116 L 189 113 L 190 112 L 191 112 L 192 113 L 192 115 L 194 115 L 194 108 L 192 108 L 190 110 L 189 109 L 189 107 L 188 108 " stroke="black" stroke-width="1" fill="none"/>
<path d="M 193 108 L 194 109 L 194 114 L 193 115 L 192 114 L 192 112 L 191 111 L 191 110 " stroke="black" stroke-width="1" fill="none"/>
<path d="M 188 108 L 189 109 L 189 110 L 190 110 L 191 111 L 190 112 L 189 112 L 189 114 L 188 115 L 187 114 L 187 109 " stroke="black" stroke-width="1" fill="none"/>
<path d="M 266 90 L 237 76 L 212 92 L 187 76 L 185 82 L 211 95 L 212 121 L 200 113 L 196 119 L 212 122 L 212 94 L 214 123 L 239 139 L 213 125 L 188 141 L 182 138 L 186 142 L 183 170 L 162 182 L 139 168 L 161 181 L 182 203 L 178 206 L 164 187 L 164 213 L 137 229 L 114 217 L 136 229 L 164 214 L 164 188 L 176 205 L 181 205 L 164 184 L 188 171 L 162 182 L 186 168 L 212 182 L 238 168 L 240 138 L 265 152 L 262 155 L 240 141 L 240 169 L 213 185 L 194 174 L 214 185 L 239 171 L 241 142 L 263 155 L 265 150 L 242 139 L 267 125 " stroke="black" stroke-width="1" fill="none"/>
<path d="M 187 141 L 188 142 L 188 167 L 187 168 L 186 167 L 186 142 " stroke="black" stroke-width="1" fill="none"/>
<path d="M 212 125 L 213 125 L 216 128 L 219 129 L 221 131 L 224 132 L 226 134 L 227 134 L 228 135 L 229 135 L 230 136 L 231 136 L 232 137 L 235 138 L 238 141 L 238 167 L 235 170 L 234 170 L 232 172 L 229 173 L 227 175 L 224 176 L 222 178 L 221 178 L 220 179 L 219 179 L 214 182 L 212 182 L 210 180 L 207 179 L 205 177 L 202 176 L 200 174 L 199 174 L 198 173 L 197 173 L 196 172 L 195 172 L 194 171 L 191 170 L 188 167 L 188 142 L 191 139 L 192 139 L 194 137 L 197 136 L 202 132 L 203 132 L 204 131 L 205 131 L 207 129 L 210 128 " stroke="black" stroke-width="1" fill="none"/>
<path d="M 205 120 L 206 119 L 207 120 L 208 120 L 210 122 L 210 123 L 209 124 L 208 123 L 207 123 L 205 121 " stroke="black" stroke-width="1" fill="none"/>
<path d="M 199 113 L 201 115 L 202 115 L 204 117 L 205 117 L 206 118 L 206 119 L 204 121 L 202 121 L 201 120 L 199 120 L 198 119 L 197 119 L 196 118 L 196 117 L 197 116 L 197 115 " stroke="black" stroke-width="1" fill="none"/>
<path d="M 239 78 L 241 80 L 242 80 L 243 81 L 244 81 L 246 83 L 251 85 L 253 87 L 254 87 L 255 88 L 256 88 L 257 89 L 262 91 L 265 94 L 265 122 L 262 125 L 261 125 L 260 126 L 259 126 L 258 127 L 253 129 L 251 131 L 250 131 L 249 132 L 246 133 L 244 135 L 241 136 L 241 137 L 240 138 L 239 138 L 237 136 L 236 136 L 235 135 L 230 133 L 228 131 L 225 130 L 223 128 L 220 127 L 218 125 L 217 125 L 214 122 L 214 99 L 213 98 L 213 95 L 216 92 L 219 91 L 221 89 L 226 87 L 228 85 L 229 85 L 230 84 L 231 84 L 233 82 L 236 81 " stroke="black" stroke-width="1" fill="none"/>
<path d="M 186 78 L 188 76 L 196 82 L 212 92 L 238 76 L 240 76 L 251 83 L 260 87 L 267 92 L 267 124 L 265 126 L 251 133 L 242 139 L 240 138 L 243 135 L 265 123 L 265 93 L 257 88 L 250 85 L 239 78 L 222 89 L 217 91 L 213 94 L 211 94 L 201 88 L 199 88 L 192 84 L 186 82 L 185 81 " stroke="black" stroke-width="1" fill="none"/>
<path d="M 240 63 L 240 69 L 239 70 L 238 69 L 238 64 L 238 74 L 238 73 L 239 72 L 240 73 L 240 74 " stroke="black" stroke-width="1" fill="none"/>
<path d="M 238 71 L 239 70 L 240 71 L 239 72 " stroke="black" stroke-width="1" fill="none"/>
<path d="M 237 60 L 237 62 L 238 62 L 237 61 L 238 60 L 239 60 L 240 61 L 240 60 " stroke="black" stroke-width="1" fill="none"/>
<path d="M 237 56 L 237 57 L 238 56 L 239 56 L 240 57 L 240 56 " stroke="black" stroke-width="1" fill="none"/>
<path d="M 236 53 L 237 54 L 238 53 L 239 54 L 241 54 L 241 52 L 240 52 L 241 53 L 240 54 L 239 54 L 237 52 " stroke="black" stroke-width="1" fill="none"/>
<path d="M 236 47 L 236 49 L 236 48 L 237 47 L 240 47 L 241 48 L 241 49 L 241 47 " stroke="black" stroke-width="1" fill="none"/>
</svg>