<svg xmlns="http://www.w3.org/2000/svg" width="300" height="300" viewBox="0 0 300 300">
<path d="M 111 262 L 109 262 L 108 263 L 108 265 L 110 265 L 111 264 " stroke="black" stroke-width="1" fill="none"/>
<path d="M 108 263 L 109 262 L 110 262 L 111 263 L 111 264 L 110 265 L 109 265 L 108 264 " stroke="black" stroke-width="1" fill="none"/>
<path d="M 104 261 L 103 262 L 102 261 L 102 264 L 101 265 L 100 265 L 99 264 L 99 262 L 96 262 L 96 271 L 99 271 L 99 268 L 100 267 L 101 267 L 102 268 L 102 272 L 103 271 L 104 272 " stroke="black" stroke-width="1" fill="none"/>
<path d="M 99 266 L 100 265 L 101 265 L 102 266 L 101 267 L 100 267 " stroke="black" stroke-width="1" fill="none"/>
<path d="M 103 262 L 104 263 L 104 270 L 103 271 L 102 270 L 102 268 L 101 267 L 102 266 L 101 265 L 102 264 L 102 263 " stroke="black" stroke-width="1" fill="none"/>
<path d="M 97 262 L 98 262 L 99 263 L 99 270 L 98 271 L 97 271 L 96 270 L 96 263 " stroke="black" stroke-width="1" fill="none"/>
<path d="M 115 252 L 115 253 L 114 254 L 114 259 L 115 260 L 115 261 L 116 262 L 121 262 L 123 260 L 123 253 L 122 252 L 121 252 L 123 254 L 123 259 L 120 262 L 117 262 L 115 260 L 115 259 L 114 258 L 114 255 L 115 254 L 115 253 L 116 252 L 117 252 L 118 253 L 117 254 L 117 255 L 116 256 L 116 257 L 117 258 L 117 259 L 118 260 L 119 259 L 120 259 L 121 258 L 121 255 L 120 254 L 119 254 L 117 252 " stroke="black" stroke-width="1" fill="none"/>
<path d="M 118 254 L 120 254 L 121 255 L 121 258 L 120 259 L 118 259 L 116 257 L 116 256 " stroke="black" stroke-width="1" fill="none"/>
<path d="M 179 238 L 178 239 L 177 239 L 177 241 L 176 242 L 175 242 L 174 241 L 174 239 L 171 239 L 171 248 L 174 248 L 174 245 L 175 244 L 176 244 L 177 245 L 177 249 L 178 248 L 179 249 " stroke="black" stroke-width="1" fill="none"/>
<path d="M 174 243 L 175 242 L 176 242 L 177 243 L 176 244 L 175 244 " stroke="black" stroke-width="1" fill="none"/>
<path d="M 178 239 L 179 240 L 179 247 L 178 248 L 177 247 L 177 245 L 176 244 L 177 243 L 176 242 L 177 241 L 177 240 " stroke="black" stroke-width="1" fill="none"/>
<path d="M 172 239 L 173 239 L 174 240 L 174 247 L 173 248 L 172 248 L 171 247 L 171 240 " stroke="black" stroke-width="1" fill="none"/>
<path d="M 65 238 L 64 239 L 63 239 L 63 241 L 62 242 L 61 242 L 60 241 L 60 239 L 57 239 L 57 248 L 60 248 L 60 245 L 61 244 L 62 244 L 63 245 L 63 249 L 64 248 L 65 249 " stroke="black" stroke-width="1" fill="none"/>
<path d="M 60 243 L 61 242 L 62 242 L 63 243 L 62 244 L 61 244 " stroke="black" stroke-width="1" fill="none"/>
<path d="M 64 239 L 65 240 L 65 247 L 64 248 L 63 247 L 63 245 L 62 244 L 63 243 L 62 242 L 63 241 L 63 240 " stroke="black" stroke-width="1" fill="none"/>
<path d="M 58 239 L 59 239 L 60 240 L 60 247 L 59 248 L 58 248 L 57 247 L 57 240 " stroke="black" stroke-width="1" fill="none"/>
<path d="M 173 218 L 172 219 L 172 220 L 171 221 L 171 226 L 172 227 L 172 228 L 173 229 L 176 229 L 177 230 L 176 231 L 175 231 L 175 236 L 177 236 L 177 230 L 180 227 L 180 220 L 178 218 " stroke="black" stroke-width="1" fill="none"/>
<path d="M 176 231 L 177 232 L 177 235 L 176 236 L 175 235 L 175 232 " stroke="black" stroke-width="1" fill="none"/>
<path d="M 174 218 L 177 218 L 180 221 L 180 226 L 177 229 L 174 229 L 172 227 L 172 226 L 171 225 L 171 222 L 172 221 L 172 220 " stroke="black" stroke-width="1" fill="none"/>
<path d="M 175 220 L 174 221 L 174 222 L 173 223 L 173 224 L 174 225 L 174 226 L 175 227 L 176 226 L 177 226 L 178 225 L 178 222 L 177 221 L 176 221 " stroke="black" stroke-width="1" fill="none"/>
<path d="M 175 221 L 177 221 L 178 222 L 178 225 L 177 226 L 175 226 L 173 224 L 173 223 " stroke="black" stroke-width="1" fill="none"/>
<path d="M 59 218 L 58 219 L 58 220 L 57 221 L 57 226 L 58 227 L 58 228 L 59 229 L 62 229 L 63 230 L 62 231 L 61 231 L 61 236 L 63 236 L 63 230 L 66 227 L 66 220 L 64 218 " stroke="black" stroke-width="1" fill="none"/>
<path d="M 62 231 L 63 232 L 63 235 L 62 236 L 61 235 L 61 232 " stroke="black" stroke-width="1" fill="none"/>
<path d="M 60 218 L 63 218 L 66 221 L 66 226 L 63 229 L 60 229 L 58 227 L 58 226 L 57 225 L 57 222 L 58 221 L 58 220 " stroke="black" stroke-width="1" fill="none"/>
<path d="M 61 220 L 60 221 L 60 222 L 59 223 L 59 224 L 60 225 L 60 226 L 61 227 L 62 226 L 63 226 L 64 225 L 64 222 L 63 221 L 62 221 " stroke="black" stroke-width="1" fill="none"/>
<path d="M 61 221 L 63 221 L 64 222 L 64 225 L 63 226 L 61 226 L 59 224 L 59 223 " stroke="black" stroke-width="1" fill="none"/>
<path d="M 287 170 L 286 171 L 285 170 L 285 173 L 284 174 L 283 174 L 282 173 L 282 171 L 279 171 L 279 180 L 282 180 L 282 177 L 283 176 L 284 176 L 285 177 L 285 181 L 286 180 L 287 181 " stroke="black" stroke-width="1" fill="none"/>
<path d="M 282 175 L 283 174 L 284 174 L 285 175 L 284 176 L 283 176 " stroke="black" stroke-width="1" fill="none"/>
<path d="M 286 171 L 287 172 L 287 179 L 286 180 L 285 179 L 285 177 L 284 176 L 285 175 L 284 174 L 285 173 L 285 172 " stroke="black" stroke-width="1" fill="none"/>
<path d="M 280 171 L 281 171 L 282 172 L 282 179 L 281 180 L 280 180 L 279 179 L 279 172 " stroke="black" stroke-width="1" fill="none"/>
<path d="M 31 169 L 30 170 L 30 171 L 29 172 L 29 177 L 30 178 L 30 179 L 31 180 L 36 180 L 38 178 L 38 171 L 36 169 " stroke="black" stroke-width="1" fill="none"/>
<path d="M 32 169 L 35 169 L 38 172 L 38 177 L 35 180 L 32 180 L 30 178 L 30 177 L 29 176 L 29 173 L 30 172 L 30 171 " stroke="black" stroke-width="1" fill="none"/>
<path d="M 33 171 L 32 172 L 32 173 L 31 174 L 31 175 L 32 176 L 32 177 L 33 178 L 34 177 L 35 177 L 36 176 L 36 173 L 35 172 L 34 172 " stroke="black" stroke-width="1" fill="none"/>
<path d="M 33 172 L 35 172 L 36 173 L 36 176 L 35 177 L 33 177 L 31 175 L 31 174 " stroke="black" stroke-width="1" fill="none"/>
<path d="M 23 169 L 23 171 L 24 172 L 26 172 L 26 170 L 25 169 " stroke="black" stroke-width="1" fill="none"/>
<path d="M 23 170 L 24 169 L 25 169 L 26 170 L 26 171 L 25 172 L 24 172 L 23 171 " stroke="black" stroke-width="1" fill="none"/>
<path d="M 19 159 L 18 160 L 17 159 L 17 162 L 16 163 L 15 163 L 14 162 L 14 160 L 11 160 L 11 169 L 14 169 L 14 166 L 15 165 L 16 165 L 17 166 L 17 170 L 18 169 L 19 170 " stroke="black" stroke-width="1" fill="none"/>
<path d="M 14 164 L 15 163 L 16 163 L 17 164 L 16 165 L 15 165 " stroke="black" stroke-width="1" fill="none"/>
<path d="M 18 160 L 19 161 L 19 168 L 18 169 L 17 168 L 17 166 L 16 165 L 17 164 L 16 163 L 17 162 L 17 161 " stroke="black" stroke-width="1" fill="none"/>
<path d="M 12 160 L 13 160 L 14 161 L 14 168 L 13 169 L 12 169 L 11 168 L 11 161 " stroke="black" stroke-width="1" fill="none"/>
<path d="M 42 169 L 47 170 L 61 162 L 90 177 L 90 207 L 70 216 L 73 221 L 70 222 L 89 210 L 117 226 L 116 249 L 121 249 L 119 227 L 148 210 L 167 222 L 164 221 L 167 216 L 148 207 L 148 177 L 168 167 L 166 162 L 146 174 L 128 164 L 145 174 L 164 162 L 168 166 L 148 176 L 148 209 L 119 226 L 118 236 L 117 224 L 146 208 L 146 176 L 127 166 L 146 177 L 146 207 L 119 224 L 92 207 L 92 178 L 111 166 L 92 177 L 92 208 L 115 221 L 116 225 L 90 209 L 90 176 L 62 162 L 43 170 L 63 157 L 90 174 L 110 164 L 91 174 L 62 157 " stroke="black" stroke-width="1" fill="none"/>
<path d="M 118 236 L 120 238 L 120 241 L 121 242 L 121 248 L 120 249 L 117 249 L 115 247 L 115 246 L 116 245 L 116 238 " stroke="black" stroke-width="1" fill="none"/>
<path d="M 166 216 L 167 217 L 165 219 L 165 220 L 164 221 L 163 220 L 162 220 L 161 219 L 164 216 " stroke="black" stroke-width="1" fill="none"/>
<path d="M 70 217 L 71 216 L 73 216 L 76 219 L 75 220 L 74 220 L 73 221 L 72 220 L 72 219 " stroke="black" stroke-width="1" fill="none"/>
<path d="M 159 217 L 159 216 L 160 215 L 161 216 L 162 215 L 163 215 L 164 216 L 161 219 " stroke="black" stroke-width="1" fill="none"/>
<path d="M 160 215 L 161 214 L 162 215 L 161 216 " stroke="black" stroke-width="1" fill="none"/>
<path d="M 77 213 L 78 214 L 78 215 L 79 215 L 80 216 L 79 217 L 78 217 L 76 219 L 75 218 L 75 217 L 74 217 L 73 216 L 76 213 " stroke="black" stroke-width="1" fill="none"/>
<path d="M 77 213 L 78 212 L 79 213 L 78 214 " stroke="black" stroke-width="1" fill="none"/>
<path d="M 152 211 L 153 210 L 154 211 L 155 211 L 156 212 L 158 212 L 159 213 L 158 214 L 159 214 L 160 215 L 159 216 L 157 216 L 154 213 L 153 213 L 152 212 " stroke="black" stroke-width="1" fill="none"/>
<path d="M 84 210 L 85 211 L 85 212 L 84 213 L 83 213 L 80 216 L 78 214 L 80 212 L 81 212 L 82 211 L 83 211 " stroke="black" stroke-width="1" fill="none"/>
<path d="M 148 209 L 149 208 L 150 209 L 152 209 L 153 210 L 151 212 L 150 211 L 149 211 L 148 210 " stroke="black" stroke-width="1" fill="none"/>
<path d="M 89 208 L 90 209 L 88 211 L 87 211 L 86 212 L 84 210 L 85 209 L 87 209 L 88 208 " stroke="black" stroke-width="1" fill="none"/>
<path d="M 173 152 L 172 153 L 172 154 L 171 155 L 171 160 L 172 161 L 172 162 L 173 163 L 178 163 L 180 161 L 180 154 L 178 152 " stroke="black" stroke-width="1" fill="none"/>
<path d="M 174 152 L 177 152 L 180 155 L 180 160 L 177 163 L 174 163 L 172 161 L 172 160 L 171 159 L 171 156 L 172 155 L 172 154 " stroke="black" stroke-width="1" fill="none"/>
<path d="M 175 154 L 174 155 L 174 156 L 173 157 L 173 158 L 174 159 L 174 160 L 175 161 L 176 160 L 177 160 L 178 159 L 178 156 L 177 155 L 176 155 " stroke="black" stroke-width="1" fill="none"/>
<path d="M 175 155 L 177 155 L 178 156 L 178 159 L 177 160 L 175 160 L 173 158 L 173 157 " stroke="black" stroke-width="1" fill="none"/>
<path d="M 116 152 L 115 153 L 115 154 L 114 155 L 114 160 L 115 161 L 115 162 L 116 163 L 121 163 L 123 161 L 123 154 L 121 152 " stroke="black" stroke-width="1" fill="none"/>
<path d="M 117 152 L 120 152 L 123 155 L 123 160 L 120 163 L 117 163 L 115 161 L 115 160 L 114 159 L 114 156 L 115 155 L 115 154 " stroke="black" stroke-width="1" fill="none"/>
<path d="M 118 154 L 117 155 L 117 156 L 116 157 L 116 158 L 117 159 L 117 160 L 118 161 L 119 160 L 120 160 L 121 159 L 121 156 L 120 155 L 119 155 " stroke="black" stroke-width="1" fill="none"/>
<path d="M 118 155 L 120 155 L 121 156 L 121 159 L 120 160 L 118 160 L 116 158 L 116 157 " stroke="black" stroke-width="1" fill="none"/>
<path d="M 275 151 L 274 152 L 274 153 L 273 154 L 273 159 L 274 160 L 274 161 L 275 162 L 280 162 L 281 163 L 280 164 L 279 164 L 279 166 L 280 167 L 280 168 L 281 168 L 282 169 L 282 166 L 281 165 L 281 163 L 280 162 L 282 160 L 282 153 L 280 151 " stroke="black" stroke-width="1" fill="none"/>
<path d="M 279 165 L 280 164 L 282 166 L 282 167 L 281 168 L 279 166 " stroke="black" stroke-width="1" fill="none"/>
<path d="M 276 151 L 279 151 L 282 154 L 282 159 L 279 162 L 276 162 L 274 160 L 274 159 L 273 158 L 273 155 L 274 154 L 274 153 " stroke="black" stroke-width="1" fill="none"/>
<path d="M 277 153 L 276 154 L 276 155 L 275 156 L 275 157 L 276 158 L 276 159 L 277 160 L 278 159 L 279 159 L 280 158 L 280 155 L 279 154 L 278 154 " stroke="black" stroke-width="1" fill="none"/>
<path d="M 277 154 L 279 154 L 280 155 L 280 158 L 279 159 L 277 159 L 275 157 L 275 156 " stroke="black" stroke-width="1" fill="none"/>
<path d="M 178 147 L 177 147 L 178 148 L 178 149 L 177 150 L 174 150 L 173 149 L 174 148 L 173 148 L 173 150 L 178 150 " stroke="black" stroke-width="1" fill="none"/>
<path d="M 174 140 L 174 143 L 173 144 L 174 145 L 175 144 L 176 144 L 177 145 L 177 144 L 175 144 L 174 143 L 174 141 L 175 140 L 176 141 L 177 140 " stroke="black" stroke-width="1" fill="none"/>
<path d="M 210 131 L 209 132 L 208 131 L 208 134 L 207 135 L 206 135 L 205 134 L 205 132 L 202 132 L 202 141 L 205 141 L 205 138 L 206 137 L 207 137 L 208 138 L 208 142 L 209 141 L 210 142 " stroke="black" stroke-width="1" fill="none"/>
<path d="M 205 136 L 206 135 L 207 135 L 208 136 L 207 137 L 206 137 " stroke="black" stroke-width="1" fill="none"/>
<path d="M 209 132 L 210 133 L 210 140 L 209 141 L 208 140 L 208 138 L 207 137 L 208 136 L 207 135 L 208 134 L 208 133 " stroke="black" stroke-width="1" fill="none"/>
<path d="M 203 132 L 204 132 L 205 133 L 205 140 L 204 141 L 203 141 L 202 140 L 202 133 " stroke="black" stroke-width="1" fill="none"/>
<path d="M 202 128 L 203 127 L 202 128 L 202 129 L 209 129 L 209 127 L 208 127 L 209 128 L 208 129 L 203 129 " stroke="black" stroke-width="1" fill="none"/>
<path d="M 204 124 L 203 124 L 203 125 " stroke="black" stroke-width="1" fill="none"/>
<path d="M 206 123 L 207 124 L 207 125 L 207 123 " stroke="black" stroke-width="1" fill="none"/>
<path d="M 203 120 L 203 121 L 204 120 L 205 120 L 206 121 L 206 120 " stroke="black" stroke-width="1" fill="none"/>
<path d="M 205 72 " stroke="black" stroke-width="1" fill="none"/>
<path d="M 203 72 " stroke="black" stroke-width="1" fill="none"/>
<path d="M 165 71 L 164 72 L 163 72 L 162 73 L 161 73 L 160 74 L 159 74 L 158 75 L 157 75 L 156 76 L 155 76 L 154 77 L 155 76 L 156 76 L 157 75 L 158 75 L 159 74 L 160 74 L 161 73 L 162 73 L 163 72 L 164 72 " stroke="black" stroke-width="1" fill="none"/>
<path d="M 175 68 L 174 68 L 172 70 L 171 70 L 170 71 L 169 71 L 167 73 L 166 73 L 165 74 L 164 74 L 163 75 L 162 75 L 161 76 L 160 76 L 159 77 L 158 77 L 157 78 L 156 78 L 155 79 L 154 79 L 156 79 L 157 78 L 158 78 L 159 77 L 160 77 L 161 76 L 162 76 L 163 75 L 164 75 L 166 73 L 167 73 L 168 72 L 169 72 L 171 70 L 172 70 L 173 69 L 174 69 " stroke="black" stroke-width="1" fill="none"/>
<path d="M 170 68 L 169 69 L 168 69 L 167 70 L 168 69 L 169 69 " stroke="black" stroke-width="1" fill="none"/>
<path d="M 204 67 L 204 69 L 204 68 L 205 67 L 206 68 L 206 69 L 206 67 " stroke="black" stroke-width="1" fill="none"/>
<path d="M 206 64 L 206 65 L 207 65 " stroke="black" stroke-width="1" fill="none"/>
<path d="M 204 63 L 204 65 " stroke="black" stroke-width="1" fill="none"/>
<path d="M 208 60 L 207 60 L 208 61 L 207 62 L 206 62 L 208 62 " stroke="black" stroke-width="1" fill="none"/>
<path d="M 205 60 L 204 60 L 204 61 " stroke="black" stroke-width="1" fill="none"/>
<path d="M 239 56 L 239 58 " stroke="black" stroke-width="1" fill="none"/>
<path d="M 270 157 L 270 155 L 249 151 L 236 120 L 256 95 L 236 67 L 237 56 L 237 63 L 232 67 L 205 76 L 177 60 L 146 76 L 146 101 L 148 102 L 142 106 L 144 114 L 151 112 L 151 105 L 148 102 L 148 79 L 153 75 L 148 78 L 147 95 L 146 77 L 176 60 L 202 75 L 178 63 L 155 74 L 177 63 L 203 78 L 203 108 L 176 126 L 156 114 L 177 127 L 175 129 L 155 116 L 176 130 L 174 138 L 176 138 L 178 127 L 201 113 L 205 118 L 203 114 L 208 112 L 235 123 L 245 152 " stroke="black" stroke-width="1" fill="none"/>
<path d="M 174 136 L 175 135 L 176 136 L 176 137 L 175 138 L 174 137 " stroke="black" stroke-width="1" fill="none"/>
<path d="M 203 116 L 204 115 L 205 116 L 205 117 L 204 118 L 203 117 " stroke="black" stroke-width="1" fill="none"/>
<path d="M 145 103 L 148 103 L 151 106 L 151 111 L 148 114 L 145 114 L 143 112 L 143 111 L 142 110 L 142 107 L 143 106 L 143 105 " stroke="black" stroke-width="1" fill="none"/>
<path d="M 146 105 L 145 106 L 145 107 L 144 108 L 144 109 L 145 110 L 145 111 L 146 112 L 147 111 L 148 111 L 149 110 L 149 107 L 148 106 L 147 106 " stroke="black" stroke-width="1" fill="none"/>
<path d="M 146 106 L 148 106 L 149 107 L 149 110 L 148 111 L 146 111 L 144 109 L 144 108 " stroke="black" stroke-width="1" fill="none"/>
<path d="M 147 95 L 148 96 L 148 100 L 147 101 L 146 100 L 146 96 " stroke="black" stroke-width="1" fill="none"/>
<path d="M 204 78 L 205 79 L 205 108 L 204 109 L 203 108 L 203 79 " stroke="black" stroke-width="1" fill="none"/>
<path d="M 201 76 L 202 75 L 203 76 L 202 77 " stroke="black" stroke-width="1" fill="none"/>
<path d="M 204 76 L 232 67 L 235 64 L 237 65 L 236 67 L 256 94 L 236 120 L 242 139 L 247 150 L 266 154 L 269 156 L 268 157 L 248 153 L 244 150 L 233 120 L 208 112 L 204 113 L 204 111 L 180 126 L 176 126 L 203 109 L 232 118 L 237 116 L 232 118 L 205 108 L 205 79 L 207 77 L 234 69 L 253 94 L 248 101 L 253 95 L 251 90 L 235 69 L 204 78 " stroke="black" stroke-width="1" fill="none"/>
<path d="M 237 113 L 236 114 " stroke="black" stroke-width="1" fill="none"/>
<path d="M 240 112 L 239 113 " stroke="black" stroke-width="1" fill="none"/>
<path d="M 241 108 L 240 109 " stroke="black" stroke-width="1" fill="none"/>
<path d="M 244 107 L 243 108 " stroke="black" stroke-width="1" fill="none"/>
<path d="M 244 104 L 243 105 " stroke="black" stroke-width="1" fill="none"/>
<path d="M 247 103 L 246 104 " stroke="black" stroke-width="1" fill="none"/>
<path d="M 249 94 L 249 96 L 248 97 L 248 98 L 246 100 L 246 101 L 245 102 L 246 101 L 246 100 L 248 98 L 248 97 L 249 96 " stroke="black" stroke-width="1" fill="none"/>
<path d="M 247 94 L 246 95 L 246 96 L 245 97 L 245 98 L 243 100 L 243 101 L 242 102 L 242 103 L 239 106 L 239 107 L 235 111 L 235 112 L 234 113 L 234 114 L 234 113 L 238 109 L 238 108 L 241 105 L 241 104 L 243 102 L 243 101 L 244 100 L 244 99 L 245 98 L 245 97 L 247 95 " stroke="black" stroke-width="1" fill="none"/>
<path d="M 204 56 L 204 57 L 204 56 L 205 55 L 208 55 L 209 56 L 209 57 L 208 58 L 207 58 L 209 58 L 209 56 L 208 55 L 205 55 " stroke="black" stroke-width="1" fill="none"/>
<path d="M 238 51 L 238 53 L 238 52 L 239 51 L 240 52 L 240 54 L 241 53 L 239 51 " stroke="black" stroke-width="1" fill="none"/>
<path d="M 243 49 L 242 48 L 242 49 L 241 50 L 242 50 " stroke="black" stroke-width="1" fill="none"/>
<path d="M 240 47 L 239 47 L 239 49 L 239 48 " stroke="black" stroke-width="1" fill="none"/>
<path d="M 210 43 L 209 44 L 208 43 L 208 46 L 207 47 L 206 47 L 205 46 L 205 44 L 202 44 L 202 53 L 205 53 L 205 50 L 206 49 L 207 49 L 208 50 L 208 53 L 209 53 L 210 54 " stroke="black" stroke-width="1" fill="none"/>
<path d="M 205 48 L 206 47 L 207 47 L 208 48 L 207 49 L 206 49 " stroke="black" stroke-width="1" fill="none"/>
<path d="M 209 44 L 210 45 L 210 52 L 209 53 L 208 52 L 208 50 L 207 49 L 208 48 L 207 47 L 208 46 L 208 45 " stroke="black" stroke-width="1" fill="none"/>
<path d="M 203 44 L 204 44 L 205 45 L 205 52 L 204 53 L 203 53 L 202 52 L 202 45 " stroke="black" stroke-width="1" fill="none"/>
<path d="M 240 40 L 240 45 L 240 44 L 241 43 L 243 43 L 244 44 L 244 45 L 243 46 L 242 46 L 244 46 L 244 43 L 241 43 L 240 42 " stroke="black" stroke-width="1" fill="none"/>
<path d="M 254 33 L 254 35 L 258 35 L 257 34 L 258 33 " stroke="black" stroke-width="1" fill="none"/>
<path d="M 254 34 L 255 33 L 256 33 L 257 34 L 256 35 L 255 35 " stroke="black" stroke-width="1" fill="none"/>
<path d="M 243 29 L 242 30 L 242 31 L 241 32 L 241 37 L 242 38 L 242 39 L 243 39 L 244 40 L 248 40 L 250 38 L 250 31 L 248 29 " stroke="black" stroke-width="1" fill="none"/>
<path d="M 244 29 L 247 29 L 250 32 L 250 37 L 247 40 L 244 40 L 242 38 L 242 37 L 241 36 L 241 33 L 242 32 L 242 31 " stroke="black" stroke-width="1" fill="none"/>
<path d="M 245 31 L 244 32 L 244 33 L 243 34 L 243 35 L 244 36 L 244 37 L 245 38 L 246 37 L 247 37 L 248 36 L 248 33 L 247 32 L 246 32 " stroke="black" stroke-width="1" fill="none"/>
<path d="M 245 32 L 247 32 L 248 33 L 248 36 L 247 37 L 245 37 L 243 35 L 243 34 " stroke="black" stroke-width="1" fill="none"/>
<path d="M 268 25 L 267 26 L 266 25 L 266 28 L 265 29 L 264 29 L 263 28 L 263 26 L 260 26 L 260 35 L 263 35 L 263 32 L 264 31 L 265 31 L 266 32 L 266 36 L 267 35 L 268 36 " stroke="black" stroke-width="1" fill="none"/>
<path d="M 263 30 L 264 29 L 265 29 L 266 30 L 265 31 L 264 31 " stroke="black" stroke-width="1" fill="none"/>
<path d="M 267 26 L 268 27 L 268 34 L 267 35 L 266 34 L 266 32 L 265 31 L 266 30 L 265 29 L 266 28 L 266 27 " stroke="black" stroke-width="1" fill="none"/>
<path d="M 261 26 L 262 26 L 263 27 L 263 34 L 262 35 L 261 35 L 260 34 L 260 27 " stroke="black" stroke-width="1" fill="none"/>
</svg>