<svg xmlns="http://www.w3.org/2000/svg" width="300" height="300" viewBox="0 0 300 300">
<path d="M 176 200 L 176 202 L 181 202 L 182 203 L 182 204 L 181 205 L 180 204 L 180 207 L 179 208 L 178 208 L 177 207 L 177 205 L 174 205 L 174 214 L 177 214 L 177 211 L 178 210 L 179 210 L 180 211 L 180 215 L 181 214 L 182 215 L 182 203 L 181 202 L 181 200 L 180 200 L 181 201 L 180 202 L 177 202 L 176 201 L 177 200 " stroke="black" stroke-width="1" fill="none"/>
<path d="M 177 209 L 178 208 L 179 208 L 180 209 L 179 210 L 178 210 " stroke="black" stroke-width="1" fill="none"/>
<path d="M 181 205 L 182 206 L 182 213 L 181 214 L 180 213 L 180 211 L 179 210 L 180 209 L 179 208 L 180 207 L 180 206 " stroke="black" stroke-width="1" fill="none"/>
<path d="M 175 205 L 176 205 L 177 206 L 177 213 L 176 214 L 175 214 L 174 213 L 174 206 " stroke="black" stroke-width="1" fill="none"/>
<path d="M 176 196 L 177 197 L 178 196 L 179 196 L 180 197 L 181 196 L 180 195 L 179 196 L 178 196 L 177 195 " stroke="black" stroke-width="1" fill="none"/>
<path d="M 178 187 L 178 190 L 177 191 L 177 193 L 178 192 L 179 192 L 180 193 L 180 192 L 178 192 L 177 191 L 178 190 L 180 190 L 180 187 " stroke="black" stroke-width="1" fill="none"/>
<path d="M 178 188 L 179 187 L 180 188 L 180 189 L 179 190 L 178 189 " stroke="black" stroke-width="1" fill="none"/>
<path d="M 125 176 L 124 177 L 123 177 L 123 180 L 122 181 L 121 180 L 121 179 L 120 178 L 120 177 L 118 177 L 118 178 L 117 179 L 117 186 L 119 186 L 119 183 L 119 185 L 118 186 L 117 185 L 117 179 L 119 177 L 120 178 L 120 179 L 122 181 L 123 180 L 123 178 L 124 177 L 125 178 L 125 185 L 124 186 L 123 186 L 122 185 L 122 184 L 121 183 L 121 184 L 122 185 L 122 186 L 125 186 " stroke="black" stroke-width="1" fill="none"/>
<path d="M 178 144 L 178 145 " stroke="black" stroke-width="1" fill="none"/>
<path d="M 180 143 L 180 145 " stroke="black" stroke-width="1" fill="none"/>
<path d="M 177 139 L 177 142 L 178 142 L 177 141 L 177 140 L 178 139 L 179 139 L 180 140 L 180 141 L 180 139 " stroke="black" stroke-width="1" fill="none"/>
<path d="M 177 136 L 177 137 L 178 136 L 179 136 L 180 137 L 180 136 " stroke="black" stroke-width="1" fill="none"/>
<path d="M 147 135 L 146 135 L 145 136 L 144 136 L 142 138 L 141 138 L 140 139 L 139 139 L 138 140 L 137 140 L 136 141 L 135 141 L 133 143 L 132 143 L 131 144 L 130 144 L 129 145 L 128 145 L 127 146 L 126 146 L 125 147 L 126 147 L 127 146 L 128 146 L 130 144 L 131 144 L 132 143 L 133 143 L 134 142 L 135 142 L 136 141 L 137 141 L 138 140 L 139 140 L 141 138 L 142 138 L 143 137 L 144 137 L 145 136 L 146 136 " stroke="black" stroke-width="1" fill="none"/>
<path d="M 176 132 L 176 134 L 181 134 L 181 132 L 180 132 L 181 133 L 180 134 L 177 134 L 176 133 L 177 132 " stroke="black" stroke-width="1" fill="none"/>
<path d="M 212 127 L 211 128 L 210 128 L 210 131 L 209 132 L 208 131 L 208 130 L 207 129 L 207 128 L 205 128 L 205 129 L 204 130 L 204 137 L 206 137 L 206 134 L 206 136 L 205 137 L 204 136 L 204 130 L 206 128 L 207 129 L 207 130 L 209 132 L 210 131 L 210 129 L 211 128 L 212 129 L 212 136 L 211 137 L 210 137 L 209 136 L 209 135 L 208 134 L 208 135 L 209 136 L 209 137 L 212 137 " stroke="black" stroke-width="1" fill="none"/>
<path d="M 176 128 L 176 129 L 176 128 L 177 127 L 180 127 L 181 128 L 181 129 L 181 128 L 180 127 L 177 127 " stroke="black" stroke-width="1" fill="none"/>
<path d="M 121 124 " stroke="black" stroke-width="1" fill="none"/>
<path d="M 120 116 L 118 116 L 118 125 L 119 125 L 118 124 L 118 117 L 119 116 L 120 117 L 120 118 " stroke="black" stroke-width="1" fill="none"/>
<path d="M 182 115 L 181 116 L 180 115 L 180 118 L 179 119 L 178 119 L 177 118 L 177 116 L 174 116 L 174 125 L 177 125 L 177 122 L 178 121 L 179 121 L 180 122 L 180 125 L 181 125 L 182 126 " stroke="black" stroke-width="1" fill="none"/>
<path d="M 177 120 L 178 119 L 179 119 L 180 120 L 179 121 L 178 121 " stroke="black" stroke-width="1" fill="none"/>
<path d="M 181 116 L 182 117 L 182 124 L 181 125 L 180 124 L 180 122 L 179 121 L 180 120 L 179 119 L 180 118 L 180 117 " stroke="black" stroke-width="1" fill="none"/>
<path d="M 175 116 L 176 116 L 177 117 L 177 124 L 176 125 L 175 125 L 174 124 L 174 117 " stroke="black" stroke-width="1" fill="none"/>
<path d="M 130 113 L 129 114 L 128 113 L 128 118 L 127 119 L 126 118 L 126 116 L 125 115 L 125 114 L 122 114 L 122 115 L 123 116 L 123 118 L 122 119 L 123 120 L 121 122 L 122 122 L 123 123 L 123 124 L 124 125 L 126 125 L 126 120 L 127 119 L 128 120 L 128 123 L 129 123 L 130 124 " stroke="black" stroke-width="1" fill="none"/>
<path d="M 129 114 L 130 115 L 130 122 L 129 123 L 128 122 L 128 115 " stroke="black" stroke-width="1" fill="none"/>
<path d="M 123 114 L 124 114 L 125 115 L 125 116 L 126 117 L 126 124 L 125 125 L 123 123 L 123 122 L 122 121 L 123 120 L 122 119 L 123 118 L 123 116 L 122 115 " stroke="black" stroke-width="1" fill="none"/>
<path d="M 210 97 L 179 81 L 149 98 L 150 130 L 133 124 L 147 133 L 149 99 L 177 82 L 211 99 L 209 125 L 209 100 L 181 84 L 151 100 L 152 133 L 176 149 L 151 135 L 124 150 L 125 128 L 120 127 L 122 150 L 95 135 L 64 150 L 64 183 L 92 200 L 91 218 L 90 201 L 62 184 L 62 149 L 93 132 L 119 147 L 92 132 L 62 148 L 62 185 L 90 201 L 90 238 L 97 236 L 96 201 L 115 189 L 92 199 L 67 185 L 64 151 L 92 135 L 121 151 L 121 174 L 123 151 L 151 135 L 178 151 L 177 183 L 152 198 L 130 186 L 152 198 L 177 185 L 151 201 L 129 188 L 150 201 L 177 185 L 209 200 L 237 184 L 238 150 L 220 138 L 236 153 L 235 181 L 207 197 L 180 182 L 180 151 L 201 137 L 177 148 L 152 132 L 154 98 L 181 84 L 209 101 L 210 125 " stroke="black" stroke-width="1" fill="none"/>
<path d="M 91 227 L 94 227 L 97 230 L 97 235 L 94 238 L 91 238 L 89 236 L 89 235 L 88 234 L 88 231 L 89 230 L 89 229 " stroke="black" stroke-width="1" fill="none"/>
<path d="M 92 229 L 91 230 L 91 231 L 90 232 L 90 233 L 91 234 L 91 235 L 92 236 L 93 235 L 94 235 L 95 234 L 95 231 L 94 230 L 93 230 " stroke="black" stroke-width="1" fill="none"/>
<path d="M 92 230 L 94 230 L 95 231 L 95 234 L 94 235 L 92 235 L 90 233 L 90 232 " stroke="black" stroke-width="1" fill="none"/>
<path d="M 90 226 L 91 225 L 92 226 L 91 227 " stroke="black" stroke-width="1" fill="none"/>
<path d="M 95 218 L 96 219 L 96 224 L 95 225 L 94 224 L 94 219 " stroke="black" stroke-width="1" fill="none"/>
<path d="M 91 218 L 92 219 L 92 224 L 91 225 L 90 224 L 90 219 " stroke="black" stroke-width="1" fill="none"/>
<path d="M 93 202 L 94 203 L 94 225 L 95 225 L 96 226 L 95 227 L 93 227 L 92 226 L 92 203 " stroke="black" stroke-width="1" fill="none"/>
<path d="M 92 200 L 93 199 L 94 200 L 94 201 L 93 202 L 92 201 " stroke="black" stroke-width="1" fill="none"/>
<path d="M 113 187 L 114 188 L 114 189 L 112 191 L 111 191 L 109 193 L 108 193 L 106 195 L 105 195 L 104 196 L 103 196 L 101 198 L 100 198 L 99 199 L 98 199 L 96 201 L 96 217 L 95 218 L 94 217 L 94 200 L 97 197 L 98 197 L 100 195 L 101 195 L 102 194 L 103 194 L 105 192 L 106 192 L 107 191 L 108 191 L 110 189 L 111 189 " stroke="black" stroke-width="1" fill="none"/>
<path d="M 176 184 L 177 183 L 178 184 L 177 185 " stroke="black" stroke-width="1" fill="none"/>
<path d="M 178 183 L 179 182 L 180 183 L 180 184 L 179 185 L 178 184 " stroke="black" stroke-width="1" fill="none"/>
<path d="M 179 151 L 180 152 L 180 181 L 179 182 L 178 181 L 178 152 " stroke="black" stroke-width="1" fill="none"/>
<path d="M 122 150 L 123 151 L 123 173 L 122 174 L 121 173 L 121 151 " stroke="black" stroke-width="1" fill="none"/>
<path d="M 178 149 L 179 148 L 180 149 L 180 150 L 179 151 L 178 150 " stroke="black" stroke-width="1" fill="none"/>
<path d="M 176 149 L 177 148 L 178 149 L 177 150 " stroke="black" stroke-width="1" fill="none"/>
<path d="M 122 139 L 123 140 L 123 147 L 122 148 L 121 147 L 121 140 " stroke="black" stroke-width="1" fill="none"/>
<path d="M 218 137 L 229 145 L 235 148 L 238 151 L 238 177 L 237 178 L 237 183 L 235 185 L 227 189 L 225 191 L 220 193 L 218 195 L 213 197 L 211 199 L 209 199 L 208 200 L 198 195 L 196 193 L 187 189 L 180 184 L 182 183 L 186 185 L 188 187 L 204 195 L 206 197 L 210 197 L 212 195 L 217 193 L 219 191 L 224 189 L 226 187 L 231 185 L 235 182 L 235 173 L 236 172 L 236 152 L 231 148 L 228 147 L 226 145 L 219 141 L 217 139 " stroke="black" stroke-width="1" fill="none"/>
<path d="M 201 138 L 201 139 L 200 140 L 199 140 L 197 142 L 196 142 L 195 143 L 194 143 L 193 144 L 192 144 L 191 145 L 190 145 L 189 146 L 188 146 L 186 148 L 185 148 L 184 149 L 183 149 L 182 150 L 181 150 L 180 149 L 182 147 L 183 147 L 184 146 L 185 146 L 187 144 L 188 144 L 189 143 L 190 143 L 191 142 L 192 142 L 193 141 L 194 141 L 195 140 L 196 140 L 198 138 L 199 138 L 200 137 " stroke="black" stroke-width="1" fill="none"/>
<path d="M 121 127 L 123 127 L 125 129 L 125 134 L 124 135 L 124 137 L 122 139 L 121 138 L 121 137 L 120 136 L 120 131 L 119 130 L 120 129 L 120 128 " stroke="black" stroke-width="1" fill="none"/>
</svg>