<svg xmlns="http://www.w3.org/2000/svg" width="300" height="300" viewBox="0 0 300 300">
<path d="M 61 230 L 59 232 L 59 237 L 61 239 L 65 239 L 67 237 L 67 232 L 65 230 " stroke="black" stroke-width="1" fill="none"/>
<path d="M 61 230 L 64 230 L 67 233 L 67 236 L 64 239 L 61 239 L 59 237 L 59 233 L 60 232 L 60 231 " stroke="black" stroke-width="1" fill="none"/>
<path d="M 63 232 L 61 234 L 61 235 L 63 237 L 64 236 L 64 233 " stroke="black" stroke-width="1" fill="none"/>
<path d="M 63 232 L 64 233 L 64 236 L 63 237 L 61 235 L 61 234 " stroke="black" stroke-width="1" fill="none"/>
<path d="M 22 217 L 22 219 L 24 221 L 24 222 L 26 224 L 26 226 L 27 227 L 27 228 L 28 229 L 28 230 L 29 231 L 29 233 L 30 234 L 30 235 L 31 236 L 31 237 L 33 239 L 38 239 L 39 238 L 45 238 L 46 237 L 56 237 L 56 235 L 43 235 L 42 236 L 36 236 L 35 237 L 33 235 L 33 234 L 32 233 L 32 232 L 31 231 L 31 229 L 30 228 L 30 227 L 29 226 L 29 225 L 28 224 L 28 223 L 27 222 L 27 221 L 26 220 L 26 219 L 25 218 L 25 217 " stroke="black" stroke-width="1" fill="none"/>
<path d="M 48 236 L 49 235 L 55 235 L 56 236 L 55 237 L 49 237 " stroke="black" stroke-width="1" fill="none"/>
<path d="M 22 218 L 23 217 L 24 217 L 25 218 L 25 219 L 27 221 L 27 222 L 28 223 L 28 224 L 29 225 L 29 226 L 30 227 L 30 229 L 31 230 L 31 231 L 32 232 L 32 233 L 33 234 L 33 236 L 34 236 L 35 237 L 36 236 L 42 236 L 43 235 L 47 235 L 48 236 L 47 237 L 46 237 L 45 238 L 39 238 L 38 239 L 33 239 L 31 237 L 31 236 L 30 235 L 30 233 L 29 232 L 29 231 L 28 230 L 28 229 L 27 228 L 27 226 L 26 225 L 26 224 L 25 223 L 25 222 L 23 220 L 23 219 " stroke="black" stroke-width="1" fill="none"/>
<path d="M 20 206 L 18 208 L 18 213 L 20 215 L 24 215 L 26 213 L 26 208 L 24 206 " stroke="black" stroke-width="1" fill="none"/>
<path d="M 20 206 L 23 206 L 26 209 L 26 212 L 23 215 L 20 215 L 18 213 L 18 209 L 19 208 L 19 207 " stroke="black" stroke-width="1" fill="none"/>
<path d="M 22 208 L 20 210 L 20 211 L 22 213 L 23 212 L 23 209 " stroke="black" stroke-width="1" fill="none"/>
<path d="M 22 208 L 23 209 L 23 212 L 22 213 L 20 211 L 20 210 " stroke="black" stroke-width="1" fill="none"/>
<path d="M 54 194 L 55 195 L 56 195 L 57 196 L 58 196 L 59 197 L 60 197 L 62 199 L 63 199 L 64 200 L 65 200 L 66 201 L 67 201 L 66 201 L 65 200 L 64 200 L 63 199 L 62 199 L 60 197 L 59 197 L 58 196 L 57 196 L 56 195 L 55 195 " stroke="black" stroke-width="1" fill="none"/>
<path d="M 50 194 L 51 195 L 52 195 L 53 196 L 52 195 L 51 195 " stroke="black" stroke-width="1" fill="none"/>
<path d="M 49 191 L 50 192 L 51 192 L 52 193 L 51 192 L 50 192 " stroke="black" stroke-width="1" fill="none"/>
<path d="M 49 189 L 50 189 L 51 190 L 52 190 L 54 192 L 55 192 L 56 193 L 57 193 L 58 194 L 59 194 L 60 195 L 61 195 L 62 196 L 63 196 L 65 198 L 66 198 L 67 199 L 68 199 L 67 198 L 66 198 L 65 197 L 64 197 L 63 196 L 62 196 L 60 194 L 59 194 L 58 193 L 57 193 L 56 192 L 55 192 L 54 191 L 53 191 L 51 189 " stroke="black" stroke-width="1" fill="none"/>
<path d="M 89 165 L 89 188 L 91 188 L 91 165 " stroke="black" stroke-width="1" fill="none"/>
<path d="M 90 165 L 91 166 L 91 187 L 90 188 L 89 187 L 89 166 " stroke="black" stroke-width="1" fill="none"/>
<path d="M 199 155 L 198 156 L 197 156 L 196 157 L 195 157 L 196 157 L 197 156 L 198 156 " stroke="black" stroke-width="1" fill="none"/>
<path d="M 61 155 L 60 156 L 59 156 L 58 157 L 57 157 L 56 158 L 55 158 L 54 159 L 53 159 L 51 161 L 50 161 L 49 162 L 48 162 L 49 162 L 50 161 L 51 161 L 53 159 L 54 159 L 55 158 L 56 158 L 57 157 L 58 157 L 59 156 L 60 156 " stroke="black" stroke-width="1" fill="none"/>
<path d="M 68 154 L 67 154 L 66 155 L 65 155 L 63 157 L 62 157 L 61 158 L 60 158 L 59 159 L 58 159 L 57 160 L 56 160 L 54 162 L 53 162 L 52 163 L 51 163 L 50 164 L 49 164 L 51 164 L 53 162 L 54 162 L 55 161 L 56 161 L 57 160 L 58 160 L 59 159 L 60 159 L 62 157 L 63 157 L 64 156 L 65 156 L 66 155 L 67 155 " stroke="black" stroke-width="1" fill="none"/>
<path d="M 207 153 L 206 154 L 205 154 L 204 155 L 203 155 L 202 156 L 201 156 L 200 157 L 201 156 L 202 156 L 203 155 L 204 155 L 205 154 L 206 154 " stroke="black" stroke-width="1" fill="none"/>
<path d="M 67 152 L 66 152 L 65 153 L 64 153 L 63 154 L 64 153 L 65 153 L 66 152 " stroke="black" stroke-width="1" fill="none"/>
<path d="M 62 152 L 61 153 L 60 153 L 59 154 L 58 154 L 57 155 L 56 155 L 55 156 L 54 156 L 53 157 L 52 157 L 50 159 L 49 159 L 48 160 L 47 160 L 46 161 L 45 161 L 44 162 L 44 190 L 46 192 L 47 192 L 48 193 L 44 189 L 44 163 L 47 160 L 48 160 L 49 159 L 50 159 L 52 157 L 53 157 L 54 156 L 55 156 L 56 155 L 57 155 L 58 154 L 59 154 L 60 153 L 61 153 " stroke="black" stroke-width="1" fill="none"/>
<path d="M 212 150 L 211 151 L 210 151 L 209 152 L 210 151 L 211 151 " stroke="black" stroke-width="1" fill="none"/>
<path d="M 208 150 L 207 151 L 206 151 L 205 152 L 204 152 L 203 153 L 202 153 L 201 154 L 202 153 L 203 153 L 204 152 L 205 152 L 206 151 L 207 151 " stroke="black" stroke-width="1" fill="none"/>
<path d="M 213 147 L 212 148 L 211 148 L 210 149 L 211 148 L 212 148 " stroke="black" stroke-width="1" fill="none"/>
<path d="M 213 145 L 211 145 L 209 147 L 208 147 L 207 148 L 206 148 L 205 149 L 204 149 L 203 150 L 202 150 L 200 152 L 199 152 L 198 153 L 197 153 L 196 154 L 195 154 L 194 155 L 195 155 L 196 154 L 197 154 L 199 152 L 200 152 L 201 151 L 202 151 L 203 150 L 204 150 L 205 149 L 206 149 L 207 148 L 208 148 L 210 146 L 211 146 L 212 145 " stroke="black" stroke-width="1" fill="none"/>
<path d="M 125 144 L 124 145 L 123 145 L 121 147 L 119 147 L 121 147 L 123 145 L 124 145 " stroke="black" stroke-width="1" fill="none"/>
<path d="M 121 144 L 120 145 L 119 145 L 120 145 " stroke="black" stroke-width="1" fill="none"/>
<path d="M 127 143 " stroke="black" stroke-width="1" fill="none"/>
<path d="M 123 143 " stroke="black" stroke-width="1" fill="none"/>
<path d="M 130 141 L 129 142 " stroke="black" stroke-width="1" fill="none"/>
<path d="M 128 140 L 127 141 L 126 141 L 125 142 L 126 141 L 127 141 " stroke="black" stroke-width="1" fill="none"/>
<path d="M 130 139 " stroke="black" stroke-width="1" fill="none"/>
<path d="M 137 135 L 136 135 L 134 137 L 133 137 L 132 138 L 133 139 L 132 140 L 133 139 L 134 139 L 135 138 L 136 138 L 135 138 L 134 137 L 135 136 L 136 136 " stroke="black" stroke-width="1" fill="none"/>
<path d="M 132 138 L 133 137 L 134 137 L 135 138 L 134 139 L 133 139 " stroke="black" stroke-width="1" fill="none"/>
<path d="M 142 128 L 140 130 L 140 135 L 142 137 L 146 137 L 148 135 L 148 130 L 146 128 " stroke="black" stroke-width="1" fill="none"/>
<path d="M 142 128 L 145 128 L 148 131 L 148 134 L 145 137 L 142 137 L 140 135 L 140 131 L 141 130 L 141 129 " stroke="black" stroke-width="1" fill="none"/>
<path d="M 144 130 L 142 132 L 142 133 L 144 135 L 145 134 L 145 131 " stroke="black" stroke-width="1" fill="none"/>
<path d="M 144 130 L 145 131 L 145 134 L 144 135 L 142 133 L 142 132 " stroke="black" stroke-width="1" fill="none"/>
<path d="M 171 122 L 171 144 L 173 144 L 173 122 " stroke="black" stroke-width="1" fill="none"/>
<path d="M 172 122 L 173 123 L 173 143 L 172 144 L 171 143 L 171 123 " stroke="black" stroke-width="1" fill="none"/>
<path d="M 111 122 L 110 122 L 109 123 L 107 123 L 106 124 L 105 124 L 104 125 L 103 125 L 101 127 L 100 127 L 98 129 L 97 129 L 95 131 L 94 131 L 93 132 L 94 132 L 96 130 L 97 130 L 99 128 L 100 128 L 102 126 L 103 126 L 105 124 L 106 124 L 107 123 L 109 123 L 110 122 L 111 123 L 111 124 L 110 125 L 108 125 L 107 126 L 106 126 L 104 128 L 103 128 L 101 130 L 100 130 L 98 132 L 97 132 L 95 134 L 93 134 L 95 134 L 96 133 L 97 133 L 99 131 L 100 131 L 102 129 L 103 129 L 105 127 L 106 127 L 107 126 L 108 126 L 109 125 L 110 125 L 111 124 L 112 124 L 111 123 " stroke="black" stroke-width="1" fill="none"/>
<path d="M 210 116 L 211 117 L 212 117 L 213 118 L 212 117 L 211 117 " stroke="black" stroke-width="1" fill="none"/>
<path d="M 114 114 L 114 122 L 115 121 L 116 122 L 116 120 L 117 119 L 118 120 L 118 121 L 120 121 L 121 120 L 121 114 " stroke="black" stroke-width="1" fill="none"/>
<path d="M 117 115 L 118 114 L 119 115 L 118 116 " stroke="black" stroke-width="1" fill="none"/>
<path d="M 114 115 L 115 114 L 116 114 L 117 115 L 117 116 L 118 116 L 120 114 L 121 115 L 121 120 L 120 121 L 119 121 L 118 120 L 118 119 L 117 119 L 115 121 L 114 120 " stroke="black" stroke-width="1" fill="none"/>
<path d="M 209 113 L 210 114 L 211 114 L 212 115 L 211 114 L 210 114 " stroke="black" stroke-width="1" fill="none"/>
<path d="M 201 111 L 202 112 L 203 112 L 204 113 L 205 113 L 206 114 L 207 114 L 208 115 L 207 114 L 206 114 L 205 113 L 204 113 L 203 112 L 202 112 " stroke="black" stroke-width="1" fill="none"/>
<path d="M 194 110 L 195 111 L 196 111 L 197 112 L 198 112 L 199 113 L 200 113 L 202 115 L 203 115 L 204 116 L 205 116 L 206 117 L 207 117 L 208 118 L 209 118 L 211 120 L 213 120 L 212 120 L 211 119 L 210 119 L 208 117 L 207 117 L 206 116 L 205 116 L 204 115 L 203 115 L 202 114 L 201 114 L 200 113 L 199 113 L 197 111 L 196 111 L 195 110 " stroke="black" stroke-width="1" fill="none"/>
<path d="M 200 108 L 201 109 L 202 109 L 203 110 L 204 110 L 205 111 L 206 111 L 207 112 L 206 111 L 205 111 L 204 110 L 203 110 L 202 109 L 201 109 " stroke="black" stroke-width="1" fill="none"/>
<path d="M 195 108 L 196 108 L 197 109 L 198 109 L 199 110 L 198 109 L 197 109 L 196 108 " stroke="black" stroke-width="1" fill="none"/>
<path d="M 252 107 L 253 107 L 254 108 L 255 108 L 256 109 L 257 109 L 259 111 L 260 111 L 261 112 L 262 112 L 264 114 L 265 114 L 266 115 L 267 115 L 269 117 L 269 118 L 268 119 L 266 117 L 265 117 L 264 116 L 263 116 L 261 114 L 260 114 L 259 113 L 258 113 L 256 111 L 255 111 L 254 110 L 253 110 L 252 109 L 251 109 L 252 110 L 254 110 L 256 112 L 257 112 L 259 114 L 260 114 L 261 115 L 262 115 L 264 117 L 265 117 L 267 119 L 269 119 L 269 118 L 270 117 L 269 116 L 268 116 L 266 114 L 265 114 L 264 113 L 263 113 L 261 111 L 260 111 L 259 110 L 258 110 L 256 108 L 255 108 L 254 107 " stroke="black" stroke-width="1" fill="none"/>
<path d="M 243 98 L 241 100 L 241 105 L 243 107 L 247 107 L 249 105 L 249 100 L 247 98 " stroke="black" stroke-width="1" fill="none"/>
<path d="M 243 98 L 246 98 L 249 101 L 249 104 L 246 107 L 243 107 L 241 105 L 241 101 L 242 100 L 242 99 " stroke="black" stroke-width="1" fill="none"/>
<path d="M 245 100 L 243 102 L 243 103 L 245 105 L 246 104 L 246 101 " stroke="black" stroke-width="1" fill="none"/>
<path d="M 245 100 L 246 101 L 246 104 L 245 105 L 243 103 L 243 102 " stroke="black" stroke-width="1" fill="none"/>
<path d="M 238 108 L 220 119 L 214 116 L 214 149 L 219 119 L 220 147 L 196 162 L 168 148 L 143 162 L 124 152 L 145 159 L 169 146 L 198 158 L 169 145 L 169 120 L 197 106 L 169 119 L 145 106 L 125 115 L 143 103 L 168 117 L 192 102 L 219 117 L 237 106 L 219 117 L 197 104 L 192 80 L 198 72 L 192 70 L 192 101 L 168 117 L 142 103 L 124 114 L 144 106 L 164 117 L 164 148 L 142 159 L 123 148 L 136 140 L 95 162 L 65 150 L 93 163 L 93 189 L 68 205 L 55 197 L 68 205 L 92 191 L 95 163 L 95 191 L 71 205 L 65 221 L 67 207 L 41 191 L 42 161 L 68 146 L 94 160 L 137 133 L 94 160 L 73 148 L 73 117 L 93 106 L 112 113 L 93 103 L 68 117 L 68 145 L 42 160 L 42 190 L 27 203 L 41 191 L 28 205 L 44 193 L 66 206 L 65 228 L 69 208 L 95 192 L 98 160 L 119 149 L 144 162 L 168 148 L 194 163 L 220 148 L 220 120 " stroke="black" stroke-width="1" fill="none"/>
<path d="M 65 221 L 66 222 L 66 225 L 65 226 L 65 227 L 64 228 L 63 227 L 63 223 " stroke="black" stroke-width="1" fill="none"/>
<path d="M 168 119 L 169 120 L 169 145 L 168 146 L 167 145 L 167 120 " stroke="black" stroke-width="1" fill="none"/>
<path d="M 111 113 L 111 114 L 110 115 L 109 114 L 108 114 L 106 112 L 103 111 L 101 109 L 98 108 L 96 106 L 92 106 L 91 107 L 90 107 L 88 109 L 87 109 L 86 110 L 85 110 L 84 111 L 83 111 L 82 112 L 79 113 L 77 115 L 76 115 L 75 116 L 74 116 L 72 118 L 71 118 L 70 119 L 70 145 L 69 146 L 68 145 L 68 118 L 70 116 L 71 116 L 73 114 L 76 113 L 78 111 L 79 111 L 80 110 L 81 110 L 82 109 L 85 108 L 87 106 L 88 106 L 91 104 L 93 104 L 94 103 L 95 104 L 97 104 L 99 106 L 102 107 L 104 109 L 105 109 L 106 110 L 109 111 " stroke="black" stroke-width="1" fill="none"/>
<path d="M 193 88 L 194 89 L 194 101 L 193 102 L 192 101 L 192 89 " stroke="black" stroke-width="1" fill="none"/>
<path d="M 193 81 L 194 82 L 194 87 L 193 88 L 192 87 L 192 82 " stroke="black" stroke-width="1" fill="none"/>
<path d="M 192 70 L 195 70 L 198 73 L 198 76 L 195 79 L 193 79 L 192 78 L 191 78 L 190 77 L 190 73 L 191 72 L 191 71 " stroke="black" stroke-width="1" fill="none"/>
<path d="M 194 72 L 192 74 L 192 75 L 194 77 L 195 76 L 195 73 " stroke="black" stroke-width="1" fill="none"/>
<path d="M 194 72 L 195 73 L 195 76 L 194 77 L 192 75 L 192 74 " stroke="black" stroke-width="1" fill="none"/>
<path d="M 219 61 L 218 61 L 217 62 L 216 62 L 215 63 L 214 63 L 212 65 L 211 65 L 210 66 L 209 66 L 208 67 L 207 67 L 206 68 L 205 68 L 202 71 L 201 71 L 202 71 L 203 70 L 204 70 L 206 68 L 207 68 L 209 66 L 210 66 L 211 65 L 212 65 L 213 64 L 214 64 L 215 63 L 216 63 L 217 62 L 218 62 " stroke="black" stroke-width="1" fill="none"/>
<path d="M 219 59 L 216 59 L 214 61 L 213 61 L 212 62 L 211 62 L 210 63 L 209 63 L 208 64 L 207 64 L 206 65 L 205 65 L 203 67 L 202 67 L 200 69 L 201 69 L 204 66 L 205 66 L 206 65 L 207 65 L 208 64 L 209 64 L 211 62 L 212 62 L 213 61 L 214 61 L 215 60 L 216 60 L 217 59 " stroke="black" stroke-width="1" fill="none"/>
</svg>